<svg width="197" height="200" viewBox="0 0 197 200" fill="none" xmlns="http://www.w3.org/2000/svg">
<path fill-rule="evenodd" clip-rule="evenodd" d="M96.6502 1.21138C94.4335 1.83502 90.8533 5.53461 82.6444 15.6862C71.057 30.015 64.9038 36.9656 52.6046 49.6166C39.531 63.0646 29.8431 72.0396 15.5482 83.9486C3.08794 94.3288 0.146484 97.4388 0.146484 100.229C0.146484 103.188 2.03252 105.615 8.70334 111.242C11.8734 113.916 17.3856 118.558 20.9523 121.557C41.7073 139.008 62.7838 160.692 81.1848 183.526C91.0851 195.811 93.0268 197.929 95.5186 199.153C99.8938 201.302 101.608 199.988 113.253 185.552C125.696 170.126 133.72 161.111 146.547 148.144C159.235 135.319 166.429 128.755 181.833 115.949C195.838 104.307 197.442 102.181 195.445 97.9094C194.466 95.8163 191.474 93.0711 175.896 79.9703C153.132 60.8273 134.88 42.0578 114.055 16.3762C102.357 1.9502 100.323 0.178561 96.6502 1.21138ZM104.716 25.8103C123.816 35.3552 161.948 73.9319 171.317 93.1869C174.931 100.615 174.08 104.613 166.487 115.889C155.33 132.459 128.707 159.413 112.86 170.182C99.8441 179.029 96.8216 179.147 84.966 171.28C63.8641 157.276 33.4298 125.077 24.6146 107.431C21.6964 101.589 21.7969 98.9411 25.1815 92.4979C30.2598 82.8302 38.3351 72.6688 52.8116 57.7288C67.3654 42.7094 80.5352 31.638 89.526 26.8645C91.8714 25.6189 94.4248 24.3924 95.2003 24.1385C97.4538 23.4013 101.218 24.0628 104.716 25.8103ZM94.3935 29.9953C87.3795 33.7558 75.9196 43.7768 59.0317 60.9173C41.7964 78.4104 31.4746 90.6462 28.25 97.407C27.1762 99.6591 27.1011 100.237 27.6442 102.076C29.2341 107.462 40.7226 121.344 58.7653 139.681C73.8903 155.053 83.0216 163.325 90.5285 168.453C96.6583 172.641 98.0175 172.9 102.151 170.663C105.501 168.851 116.335 160.476 116.335 159.698C116.335 158.733 111.947 155.278 110.72 155.278C110.012 155.278 107.939 156.327 106.113 157.609C99.2221 162.449 97.2539 163.506 95.1284 163.506C92.5437 163.506 90.9295 162.452 88.9932 159.503C86.864 156.26 84.9644 154.212 83.2346 153.295C82.4175 152.862 81.7484 152.168 81.7484 151.753C81.7484 151.338 80.8854 150.482 79.8305 149.85C78.7292 149.19 77.5792 147.892 77.1295 146.799C76.0914 144.278 74.9614 143.758 71.3493 144.136C67.7059 144.517 65.7826 144.096 65.2789 142.805C65.0719 142.274 64.7206 138.508 64.498 134.435C64.0446 126.143 63.8517 125.582 59.6148 120.244C54.1081 113.306 51.9616 106.756 51.8643 96.5892C51.8011 90.0292 52.3096 87.454 54.3426 84.0369L55.4472 82.1797L56.1741 85.1339C59.4068 98.272 71.5185 109.96 86.3419 114.246C92.3988 115.998 104.79 115.988 111.151 114.228C119.789 111.836 127.682 107.71 133.086 102.76C134.815 101.176 136.374 99.8801 136.55 99.8801C136.726 99.8801 136.87 100.474 136.87 101.199C136.87 103.386 139.303 109.982 141.057 112.552C141.963 113.879 144.826 117.059 147.419 119.62L152.135 124.277L154.314 121.814C162.13 112.983 168.754 103.191 168.754 100.471C168.754 95.547 155.78 79.5968 134.361 58.1907C115.552 39.3916 102.195 28.5758 97.7883 28.5758C97.3771 28.5758 95.8494 29.2148 94.3935 29.9953ZM112.244 41.3283C112.383 42.0068 112.592 48.303 112.707 55.3193C112.877 65.6069 112.772 68.2879 112.164 69.1688C111.469 70.1747 110.786 70.2614 103.565 70.2614C96.3849 70.2614 95.7353 70.1802 95.9007 69.3015C96.0596 68.4607 96.9848 68.3077 103.371 68.0674L110.66 67.7932L110.813 56.0005C110.897 49.5146 110.832 43.6523 110.668 42.9738C110.372 41.7512 110.279 41.7397 100.788 41.7479C95.5175 41.7528 90.8592 41.9788 90.4361 42.2509C89.8924 42.5997 89.7022 43.6484 89.7881 45.8139C89.9254 49.2491 89.6465 50.062 88.4863 49.61C87.4757 49.2168 87.3541 41.7545 88.3414 40.7524C88.8051 40.2818 92.2659 40.0942 100.49 40.0942C111.982 40.0942 111.991 40.0953 112.244 41.3283ZM108.714 43.5925C109.145 44.1185 109.288 47.743 109.186 55.5223L109.039 66.6962L101.895 66.8492L94.7512 67.0023L93.377 64.7924C92.621 63.5769 91.7628 62.5825 91.4688 62.5825C91.1381 62.5825 90.9354 58.9443 90.9354 53.008V43.4334L94.8534 43.2442C104.958 42.7555 108.095 42.8345 108.714 43.5925ZM99.4469 47.6557C94.5918 47.8005 94.1779 47.8987 94.1779 48.9085C94.1779 49.9452 94.4892 49.9956 99.9808 49.8486C104.829 49.7186 105.811 49.5464 105.952 48.8021C106.181 47.5894 105.53 47.4747 99.4469 47.6557ZM122.388 54.451C126.04 58.257 130.385 65.7495 130.385 68.2408C130.385 69.8435 129.575 68.7986 128.762 66.1477C127.325 61.4597 121.74 53.9843 117.636 51.255C116.921 50.7789 116.335 50.1624 116.335 49.8848C116.335 48.8679 118.856 50.7701 122.388 54.451ZM87.8691 54.4137C88.1247 56.6033 87.9599 57.6855 87.1136 59.3694C85.8599 61.8629 85.9696 62.1568 88.8402 63.9965C90.0156 64.7496 91.1959 65.9497 91.4634 66.6633C91.7309 67.3769 92.2075 68.1228 92.5231 68.3208C93.7499 69.0904 92.9349 69.6773 88.6387 71.1198C86.1868 71.9425 83.8771 72.7296 83.5058 72.8684C83.0838 73.0258 82.8428 72.6375 82.8606 71.8279C82.8763 71.1171 82.732 69.8906 82.5401 69.1024C82.3094 68.1535 82.5715 66.9134 83.3156 65.4319C84.678 62.7224 84.4851 62.0801 81.8835 60.6627C80.7757 60.0594 79.5252 58.8253 79.1042 57.9203C78.6832 57.0153 78.0747 56.0998 77.7516 55.8865C76.7934 55.2524 77.9645 54.4724 82.044 53.0261C87.4265 51.1184 87.4865 51.1326 87.8691 54.4137ZM94.1779 53.7292C94.1779 55.1317 94.6307 55.2184 100.83 55.0072C105.449 54.8498 106.109 54.7083 105.958 53.9053C105.81 53.1226 104.911 52.9602 99.9808 52.828C94.5583 52.6827 94.1779 52.7419 94.1779 53.7292ZM73.6423 57.3356C73.6423 57.4661 72.9262 58.7622 72.0508 60.2152C70.001 63.6175 68.1998 69.1403 67.835 73.141C67.6772 74.8754 67.3384 76.2949 67.0822 76.2949C65.6458 76.2949 67.7167 67.1822 70.416 61.6226C71.6249 59.1341 72.8452 57.0975 73.1278 57.0975C73.411 57.0975 73.6423 57.2045 73.6423 57.3356ZM83.2346 57.6899C81.9597 58.4435 82.0413 59.6672 83.4161 60.4137C84.6748 61.0972 84.6045 61.1312 85.4832 59.4171C86.5246 57.386 85.3173 56.4585 83.2346 57.6899ZM94.3832 58.4424C93.785 60.0243 94.7945 60.3885 99.749 60.3803C105.02 60.3709 106.43 59.9453 105.892 58.5242C105.425 57.2895 94.8474 57.2144 94.3832 58.4424ZM137.264 80.9099L140.829 86.8967L139.255 88.1747C138.389 88.8779 137.559 89.4511 137.411 89.4478C137.145 89.4423 129.776 77.2449 129.362 76.1243C129.245 75.8078 129.853 74.9768 130.713 74.2775C132.585 72.7554 132.14 72.3051 137.264 80.9099ZM83.4642 75.4173C86.6932 76.5878 89.6703 79.3686 91.2883 82.7249C96.0866 92.679 89.1196 103.971 78.2358 103.881C74.2843 103.849 71.7849 102.844 68.7537 100.07C58.9356 91.0872 65.0806 74.6368 78.2358 74.6856C80.0191 74.6922 82.3721 75.0212 83.4642 75.4173ZM103.932 76.0349C104.809 76.4951 105.526 76.9964 105.526 77.1494C105.526 77.6804 99.5306 90.8272 99.0794 91.2852C98.6633 91.7076 95.2587 90.3144 95.2587 89.7226C95.2587 89.4066 99.9462 78.7878 101.004 76.7062C101.901 74.9428 101.866 74.9505 103.932 76.0349ZM75.1084 77.083C69.84 78.5042 66.5424 82.7715 66.1738 88.6448C65.7442 95.4894 70.2253 100.921 77.089 101.876C83.6923 102.794 90.9354 96.3753 90.9354 89.6041C90.9354 81.2352 82.9979 74.9554 75.1084 77.083ZM132.333 83.3183C135.232 88.2477 135.305 88.4681 134.469 89.7631C133.993 90.5009 133.263 91.1042 132.848 91.1042C132.432 91.1042 130.189 89.778 127.862 88.1566C122.764 84.6068 118.429 82.3283 116.77 82.3283C116.034 82.3283 114.762 83.2004 113.572 84.5223C111.536 86.7832 109.309 87.4622 109.309 85.8233C109.309 84.0972 112.551 79.1306 114.055 78.5514C114.863 78.2404 118.631 78.0374 122.428 78.1005L129.332 78.2146L132.333 83.3183ZM79.9246 80.0049C79.9618 80.3779 80.0224 80.9126 80.0596 81.1929C80.0969 81.4737 80.6741 81.7825 81.3431 81.8785C82.2251 82.0058 82.6071 82.4824 82.7347 83.6123C82.8946 85.0275 82.7947 85.1311 81.6539 84.7378C79.9813 84.1608 77.9904 84.2777 77.2857 84.9929C76.5075 85.7827 77.6078 87.0574 80.2477 88.4243C84.0257 90.3802 84.3484 94.071 80.9205 96.124C79.8267 96.7784 79.0464 97.6801 79.0464 98.289C79.0464 99.8099 77.008 99.6668 76.7875 98.1299C76.668 97.2989 76.0725 96.7866 74.8582 96.4691C73.4726 96.1065 73.1019 95.7231 73.1019 94.6535C73.1019 93.1424 73.4391 93.0382 75.6126 93.8769C79.4263 95.349 81.1437 92.4815 77.5602 90.6254C74.5891 89.0863 73.5364 87.6849 73.7395 85.5408C73.8682 84.1806 74.3556 83.4319 75.6477 82.6097C76.6026 82.0025 77.3927 81.1145 77.4041 80.6373C77.416 80.1596 77.5959 79.5957 77.804 79.384C78.3763 78.8031 79.8478 79.2337 79.9246 80.0049ZM108.885 80.5457L110.352 80.8018L109.259 82.9783C106.813 87.844 109.667 89.5235 113.804 85.6533C115.114 84.4279 116.65 83.4253 117.217 83.4253C118.416 83.4253 125.593 87.5829 129.71 90.6621C132.61 92.832 133.38 94.6535 131.676 95.3172C131.171 95.5141 129.227 94.7918 127.049 93.5977C124.983 92.465 123.145 91.6878 122.966 91.8699C122.558 92.284 122.471 92.2166 126.186 94.3392C129.859 96.4378 130.256 96.955 129.098 98.1304C128.292 98.9488 127.948 98.8802 124.711 97.2605C122.779 96.2935 121.198 95.7417 121.198 96.0346C121.198 96.3275 122.232 97.0954 123.495 97.7416C126.557 99.3075 127.131 99.8215 126.799 100.701C126.309 101.998 125.055 102.068 122.468 100.941C121.082 100.339 119.683 99.952 119.358 100.081C119.032 100.211 119.803 100.774 121.069 101.333C124.272 102.745 123.948 103.994 120.38 103.994C117.882 103.994 117.681 103.894 117.627 102.623C117.518 100.066 117.417 99.8533 116.064 99.3316C115.321 99.0448 114.713 98.4398 114.713 97.9867C114.713 97.5337 114.115 96.7647 113.384 96.2787C112.652 95.7922 111.906 94.9223 111.726 94.3453C111.187 92.6225 109.448 91.9829 107.972 92.9647C106.855 93.7074 106.628 93.7107 106.041 92.9932C105.579 92.4283 104.837 92.2829 103.607 92.5172C102.181 92.7887 101.723 92.6389 101.253 91.7482C100.42 90.1668 105.275 79.3489 106.565 79.9149C107.034 80.1212 108.078 80.4047 108.885 80.5457ZM105.54 94.1374C106.497 95.3073 105.397 97.6862 103.9 97.6862C102.376 97.6862 101.987 96.3073 103.048 94.6651C104.07 93.0826 104.588 92.9724 105.54 94.1374ZM110.575 94.4945C111.31 95.6776 108.28 100.703 106.832 100.703C105.198 100.703 105.322 98.7744 107.142 95.8624C108.801 93.2094 109.583 92.8978 110.575 94.4945ZM113.307 97.8337C114.059 99.0431 111.974 102.828 110.421 103.072C108.653 103.35 108.529 101.763 110.106 99.0322C111.577 96.4833 112.3 96.2129 113.307 97.8337ZM116.369 100.745C116.959 101.466 116.911 101.922 116.08 103.488C115.032 105.462 113.435 105.966 112.88 104.497C112.384 103.186 112.458 102.892 113.672 101.325C114.97 99.6503 115.399 99.5582 116.369 100.745ZM97.1588 108.501C101.522 108.771 105.668 108.312 108.365 107.261C108.885 107.059 109.309 107.137 109.309 107.435C109.309 108.869 99.8706 110.053 94.8042 109.256C90.7198 108.612 84.9909 106.678 84.9909 105.942C84.9909 105.7 86.6321 106.109 88.6387 106.851C91.0332 107.737 93.9601 108.304 97.1588 108.501Z" fill="white"/>
</svg>
