<svg width="200" height="200" viewBox="0 0 1368 1361" fill="none" xmlns="http://www.w3.org/2000/svg">
<path d="M670.113 0.15264C667.399 0.269668 664.641 0.503752 662.21 1.1318C658.012 2.13435 656.235 3.07073 658.248 3.22287C660.397 3.41792 658.894 5.34081 654.602 7.9681C644.084 14.4027 631.874 29.4932 567.3 115.904C507.716 195.638 488.805 218.787 422.522 293.082C300.416 429.946 238.129 488.223 83.7936 610.017C34.7855 648.692 13.4735 668.471 7.27566 681.046C5.10186 685.462 3.18903 687.406 3.0212 685.387C2.89832 683.37 1.95935 684.471 1.00908 687.833C-1.27016 695.916 0.635759 706.676 3.5058 702.109C5.05225 699.694 5.58029 699.635 5.61763 701.836C5.74051 709.201 28.4476 728.241 101.916 782.522C201.812 856.331 215.482 867.08 271.24 915.518C413.531 1039.13 553.754 1188.49 631.552 1299.33C660.609 1340.73 668.816 1350.71 676.555 1354.09C682.493 1356.67 682.973 1357.39 679.039 1357.74C676.356 1357.93 678.543 1358.95 683.934 1359.91C689.312 1360.85 695.165 1361.25 696.955 1360.78C698.744 1360.29 702.607 1359.9 705.518 1359.88C709.841 1359.85 710.126 1359.39 707.145 1357.48C703.996 1355.44 704.064 1355.1 707.642 1355.06C709.934 1355.05 714.187 1352.55 717.074 1349.52C719.962 1346.5 756.124 1298.92 797.422 1243.81C838.721 1188.69 878.968 1135.9 886.865 1126.49C990.037 1003.55 1184.63 822.859 1324.77 719.87C1339.83 708.807 1354.95 696.422 1358.38 692.346C1361.83 688.243 1364.74 686.39 1364.9 688.172C1365.02 689.955 1366.02 687.053 1367.04 681.735C1369.15 670.788 1367.35 651.6 1364.59 656.014C1363.47 657.828 1362.25 656.643 1361.28 652.769C1359.1 644.098 1344.57 632.092 1295.91 598.801C1156.31 503.266 1060.43 420.859 927.571 282.237C841.974 192.925 804.027 149.156 740.397 66.2519C709.099 25.4745 690.474 5.85932 682.953 5.79846C679.829 5.76647 679.704 5.35715 682.332 3.67585C685.847 1.44451 678.239 -0.209308 670.115 0.0871637L670.113 0.15264ZM673.591 167.851C687.633 167.656 703.297 170.04 715.713 174.724C804.656 208.266 1136.02 532.007 1188.61 636.742C1197.12 653.692 1197.83 656.645 1197.77 675.853C1197.73 701.436 1192.19 714.326 1162.92 757.731C1116.24 826.949 1066.72 884.193 968.202 982.762C863.419 1087.6 775.312 1163.54 735.479 1183.37C694.13 1203.97 662.017 1194.23 589.042 1138.94C453.644 1036.34 317.766 907.118 229.696 797.197C170.28 723.041 162.556 704.286 175.615 666.036C195.365 608.196 284.565 500.01 435.637 350.663C547.163 240.41 617.067 182.119 651.106 171.021C657.318 168.997 665.165 167.963 673.591 167.854V167.851ZM680.689 211.501C674.795 211.486 669.101 212.629 663.097 214.747C649.678 219.479 618.213 240.439 589.413 263.822C479.176 353.327 245.34 602.18 220.957 655.939C214.827 669.455 214.254 694.246 219.702 710.229C235.041 755.248 363.763 894.969 498.442 1012.76C565.876 1071.73 654.943 1139.05 675.008 1146.22C696.026 1153.73 714.649 1149.23 742.609 1129.9C853.085 1053.53 1100.96 796.111 1143.37 713.705C1150.91 699.057 1152 694.722 1152 679.18C1152 669.405 1150.35 656.747 1148.35 651.061C1136.64 617.879 1072.81 542.784 969.498 440.63C876.584 348.761 814.935 293.894 753.192 248.162C717.935 222.047 698.409 211.542 680.714 211.496L680.689 211.501ZM844.283 383.593C861.992 383.592 863.692 384.089 877.601 393.38C894.29 404.524 907.96 420.062 914.91 435.775C924.256 456.902 927.024 504.351 919.705 518.023C916.096 524.769 907.373 526.633 821.941 538.882C746.903 549.642 721.15 553.583 710.319 555.959C705.996 556.907 704.295 560.309 701.113 574.276C693.965 605.706 656.325 786.695 633.85 897.681C621.645 957.954 610.071 1010.34 608.13 1014.1C606.192 1017.86 602.807 1021.6 600.629 1022.44C585.563 1028.22 546.815 1011.44 523.275 988.942C493.641 960.622 480.667 931.552 482.875 898.389C484.235 877.941 514.013 725.516 546.919 570.575C573.96 443.252 579.577 420.642 584.775 417.861C598.901 410.301 801.143 383.595 844.281 383.593H844.283ZM549.19 422.851C553.016 422.656 555.395 423.709 556.272 426.006C559.005 433.124 530.879 575.511 525.739 580.587C523.832 582.463 496.684 587.327 458.991 592.529C424.04 597.348 392.14 601.875 388.107 602.573C383.771 603.326 378.872 602.456 376.116 600.4C369.158 595.264 372.085 583.622 386.497 559.229C422.459 498.343 458.697 463.909 518.335 433.957C532.454 426.867 542.82 423.155 549.19 422.852V422.851ZM857.755 603.924C881.647 603.573 889.115 607.271 894.292 619.665C897.515 627.364 897.267 630.862 891.454 659.051C882.961 700.277 874.304 729.607 866.877 742.328C854.505 763.514 834.434 770.519 757.169 780.604C681.645 790.46 684.034 790.291 680.201 785.671C677.394 782.289 677.301 778.668 679.704 764.569C684.158 738.632 708.877 633.729 711.848 628.178C713.295 625.486 718.579 622.191 723.597 620.854C741.234 616.159 818.568 605.745 846.453 604.324C850.571 604.051 854.323 603.974 857.736 603.974L857.755 603.924ZM845.168 844.309L845.87 851.648C846.827 861.372 833.88 882.56 807.82 913.921C770.198 959.197 736.202 984.622 682.132 1007.95C646.274 1023.42 638.967 1025.32 632.67 1020.71C629.205 1018.19 628.118 1014.59 628.384 1006.58C628.881 992.471 653.434 875.603 656.921 870.834C658.896 868.138 679.953 864.256 734.888 856.445C776.286 850.557 818.037 845.422 827.662 845.032L845.168 844.309Z" fill="white"/>
</svg>
