<svg width="201" height="201" viewBox="0 0 1369 1361" fill="none" xmlns="http://www.w3.org/2000/svg">
<path d="M683.543 910.324C682.104 910.318 680.587 910.441 679.365 910.636C676.892 911.132 678.433 911.51 682.814 911.529C687.185 911.551 689.221 911.178 687.323 910.66C686.375 910.387 684.994 910.308 683.558 910.308L683.543 910.324ZM879.054 805.544C878.781 805.817 878.741 806.445 878.702 807.599C878.585 809.69 879.054 810.869 879.736 810.202C880.4 809.538 880.47 807.826 879.854 806.386C879.542 805.594 879.233 805.325 879.054 805.532V805.544ZM888.438 572.336C888.321 572.453 888.934 573.237 890.178 574.813C891.676 576.725 893.24 578.285 893.649 578.285C895.284 578.285 894.207 576.659 890.907 574.068C889.331 572.832 888.532 572.231 888.43 572.328L888.438 572.336ZM716.844 505.042C712.579 504.925 707.643 504.925 701.78 505.159L680.565 506.048L666.788 515.721C659.209 521.044 652.665 525.631 652.254 525.941C651.903 526.254 655.601 531.041 660.608 536.613C673.407 550.848 680.318 565.794 680.598 579.862C680.871 590.172 680.442 591.263 676.381 591.837C673.365 592.188 666.699 588.388 655.52 579.716C621.998 553.697 596.773 542.512 577.941 545.337C560.316 547.982 542.886 564.135 535.706 584.481C532.683 593.057 531.537 631.934 534.31 631.93C535.133 631.929 542.499 630.514 550.695 628.774C575.871 623.433 600.598 629.125 603.585 641.103C605.087 647.096 603.027 648.905 591.416 651.789C587.045 652.874 574.211 658.348 562.895 663.958C546.318 672.177 539.33 677.109 526.889 689.308C507.636 708.19 506.349 712.815 513.821 736.467C517.954 749.574 520.661 754.337 528.805 762.832C537.725 772.135 550.825 779.938 564.006 783.821C567.829 784.948 568.646 784.094 570.637 776.562C576.853 753.19 594.781 731.268 607.673 731.268C615.532 731.268 615.732 732.587 611.293 755.781C607.229 776.997 607.537 802.4 612.085 821.387C616.682 840.587 620.423 845.956 634.105 852.95C643.024 857.509 647.318 858.421 660.082 858.421C677.594 858.421 687.689 855.417 704.683 845.127C711.239 841.151 716.903 837.679 717.285 837.368C717.636 837.056 713.423 831.189 707.853 824.299C693.998 807.176 689.238 796.499 688.989 781.984C688.872 772.203 689.34 770.006 692.246 769.43C694.231 769.079 704.12 775.057 715.471 783.61C726.339 791.796 743.018 802.359 752.539 807.078C767.113 814.298 772.084 815.758 783.957 816.316C796.839 816.936 798.876 816.433 807.409 810.975C827.416 798.133 837.813 775.898 837.184 747.333C837.028 738.142 836.502 730.295 836.104 729.903C835.753 729.552 829.668 730.535 822.681 732.189C806.535 735.997 794.457 736.027 781.862 732.306C769.846 728.744 763.462 722.698 766.539 717.819C767.682 716.005 778.146 710.724 789.797 706.086C813.988 696.458 828.625 687.172 845.906 670.467C860.383 656.473 861.748 651.679 857.366 630.487C852.995 609.355 840.224 593.317 819.911 583.456C801.927 574.723 802.009 574.697 798.296 587.927C791.818 611.017 773.882 631.948 760.569 631.948C755.849 631.948 755.338 631.223 755.338 624.497C755.338 620.398 756.692 610.045 758.331 601.48C762.189 581.306 762.095 561.782 758.057 543.939C754.134 526.513 751.291 520.682 743.524 514.146C736.342 508.103 729.633 505.548 716.837 505.053L716.844 505.042ZM668.494 347.838H685.62H702.728L714.897 357.688C730.073 369.968 735.818 380.879 736.191 398.201C736.386 407.014 735.446 412.131 732.98 415.906C731.069 418.824 729.532 422.355 729.571 423.76C729.602 425.266 730.468 424.888 731.662 422.82C736.798 414.01 753.31 422.851 770.919 443.84C779.685 454.285 797.058 486.884 797.058 492.883C797.058 498.181 799.164 498.826 804.655 495.227C808.631 492.618 814.319 491.865 829.747 491.865C847.445 491.865 851.044 492.493 861.568 497.417C874.708 503.572 880.264 507.857 882.363 513.48C883.588 516.749 884.287 516.363 887.867 510.293C896.645 495.416 912.781 488.012 933.836 489.208C952.551 490.273 960.888 495.139 972.384 511.742C981.398 524.76 981.833 525.981 981.833 538.991C981.833 555.194 978.154 563.573 965.27 576.831C955.526 586.857 947.386 590.028 930.167 590.464L919.237 590.737L928.814 592.075C934.081 592.801 939.237 594.696 940.274 596.279C942.283 599.342 941.105 613.846 937.778 626.973C934.583 639.556 921.134 663.659 910.206 676.402L900.194 688.088L905.889 691.567C919.593 699.899 929.369 718.706 933.027 743.796C935.071 757.782 932.91 764.923 925.784 767.922C919.983 770.365 920.195 770.47 933.027 771.496C952.084 773.025 962.718 779.109 973.281 794.544C981.395 806.4 981.828 807.741 981.828 821.343C981.828 837.343 978.696 843.811 963.173 860.004C945.182 878.772 913.359 878.315 894.622 859.025C887.57 851.766 887.56 851.761 886.495 856.579C884.872 863.892 867.301 871.753 847.045 874.22C831.551 876.112 798.782 874.415 790.646 871.271C788.415 870.413 787.362 872.063 786.442 877.789C785.771 882.003 782.461 890.934 779.102 897.651C769.555 916.755 743.684 938.004 733.279 935.282C728.702 934.089 728.713 933.882 732.721 943.909C736.71 953.874 735.678 977.561 730.856 986.851C726.229 995.767 715.969 1005.46 706.681 1009.67C701.595 1011.98 693.993 1013.31 685.774 1013.33C664.048 1013.37 644.866 1001.32 636.892 982.608C633.096 973.693 632.524 953.855 635.826 945.427C637.87 940.223 637.773 940.117 633.108 942.232C628.864 944.171 626.996 943.457 617.511 936.295C599.441 922.651 585.402 902.829 575.358 876.79C572.296 868.863 569.29 863.141 568.678 864.074C565.647 868.689 556.833 870.738 540.012 870.722C514.085 870.696 493.463 862.365 487.943 849.685C486.469 846.295 485.225 844.605 485.193 845.932C485.076 850.74 473.227 861.733 462.241 867.291C448.136 874.429 432.742 874.832 418.349 868.465C405.605 862.825 400.479 857.793 393.53 844.08C388.903 834.952 387.766 830.127 387.766 819.6C387.766 808.297 388.574 805.306 393.691 797.871C402.003 785.79 415.104 775.108 424.804 772.504C431.837 770.612 432.625 769.895 430.256 767.53C426.788 764.058 426.835 759.592 430.529 742.373C435.312 719.795 446.381 698.95 463.025 681.177L469.93 673.807L464.893 671.891C458.253 669.363 444.212 648.088 440.3 634.63C436.394 621.192 435.871 599.5 439.36 595.293C441.564 592.637 441.263 592.196 437.214 592.184C422.051 592.153 402.255 579.383 393.08 563.728C388.7 556.263 387.801 552.315 387.801 540.486C387.801 527.534 388.48 525.158 395.14 514.363C404.427 499.318 409.057 495.747 425.93 490.623C445.931 484.548 460.549 488.442 475.215 503.74L482.168 510.983L483.17 505.4C484.06 500.394 485.92 499.214 501.052 494.004C515.339 489.085 521.147 488.16 538.796 488.036C550.269 487.919 564.675 488.593 570.809 489.502L581.964 491.098L583.189 483.437C587.411 457.013 620.925 422.218 637.881 426.652L642.391 427.838L639.074 420.112C632.907 405.762 632.108 400.81 634.149 389.757C636.907 374.8 641.363 368.143 655.91 357.26L668.494 347.838ZM681.507 211.506C675.607 211.491 669.919 212.645 663.915 214.759C650.496 219.492 619.03 240.451 590.231 263.835C479.994 353.339 246.159 602.193 221.775 655.951C215.644 669.468 215.074 694.259 220.519 710.24C235.859 755.26 364.58 894.982 499.258 1012.77C566.692 1071.75 655.76 1139.07 675.826 1146.23C696.843 1153.74 715.466 1149.24 743.427 1129.91C853.901 1053.54 1101.77 796.124 1144.19 713.717C1151.73 699.07 1152.81 694.735 1152.81 679.192C1152.81 669.417 1151.17 656.76 1149.15 651.074C1137.45 617.892 1073.62 542.797 970.302 440.642C877.387 348.773 815.723 293.905 753.979 248.174C718.723 222.059 699.196 211.554 681.502 211.508L681.507 211.506ZM674.408 167.854C688.45 167.659 704.112 170.046 716.529 174.727C805.471 208.269 1136.83 532.009 1189.43 636.744C1197.94 653.694 1198.65 656.647 1198.59 675.857C1198.55 701.438 1193.02 714.328 1163.74 757.734C1117.06 826.951 1067.54 884.194 969.018 982.764C864.234 1087.6 776.127 1163.54 736.293 1183.38C694.945 1203.97 662.833 1194.23 589.858 1138.94C454.459 1036.34 318.582 907.12 230.512 797.2C171.096 723.043 163.372 704.287 176.431 666.038C196.181 608.198 285.38 500.012 436.453 350.665C547.979 240.412 617.883 182.122 651.921 171.024C658.134 169 665.981 167.962 674.408 167.857V167.854ZM670.936 0.165325C668.228 0.282353 665.464 0.515842 663.034 1.14389C658.829 2.14644 657.059 3.06345 659.071 3.21948C661.22 3.33651 659.71 5.33761 655.411 7.96412C644.894 14.3995 632.684 29.4894 568.11 115.9C508.526 195.634 489.615 218.784 423.332 293.079C301.226 429.943 238.939 488.22 84.6041 610.013C35.5962 648.688 14.2847 668.468 8.08647 681.042C5.90974 685.458 3.99196 687.404 3.83827 685.383C3.72124 683.366 2.7734 684.47 1.82547 687.829C-0.452678 695.912 1.4745 706.672 4.32219 702.105C5.86307 699.69 6.40503 699.639 6.42844 701.832C6.54547 709.197 29.2591 728.235 102.728 782.518C202.624 856.327 216.293 867.076 272.052 915.514C414.343 1039.13 554.566 1188.49 632.363 1299.33C661.419 1340.72 669.627 1350.71 677.365 1354.08C683.303 1356.67 683.785 1357.38 679.843 1357.74C677.155 1358.01 679.347 1358.96 684.737 1359.92C690.115 1360.85 695.968 1361.26 697.758 1360.79C699.557 1360.29 703.404 1359.91 706.321 1359.89C710.639 1359.86 710.935 1359.45 707.948 1357.49C704.799 1355.44 704.873 1355.11 708.443 1355.08C710.74 1355.06 714.988 1352.57 717.875 1349.55C720.762 1346.52 756.925 1298.95 798.223 1243.83C839.521 1188.72 879.768 1135.92 887.665 1126.51C990.838 1003.57 1185.43 822.884 1325.57 719.895C1340.63 708.831 1355.75 696.448 1359.18 692.372C1362.63 688.269 1365.54 686.41 1365.7 688.198C1365.82 689.985 1366.81 687.087 1367.83 681.761C1369.94 670.813 1368.11 651.626 1365.39 656.04C1364.26 657.854 1363.04 656.668 1362.07 652.786C1359.9 644.115 1345.36 632.111 1296.71 598.819C1157.1 503.285 1061.22 420.877 928.365 282.255C842.769 192.944 804.821 149.173 741.191 66.2705C709.892 25.492 691.269 5.87773 683.746 5.81531C680.622 5.78449 680.493 5.3746 683.118 3.69329C686.633 1.46975 679.032 -0.191861 670.901 0.104611L670.936 0.165325Z" fill="white"/>
</svg>
