<svg width="222" height="228" viewBox="0 0 222 228" fill="none" xmlns="http://www.w3.org/2000/svg">
<path d="M54.5778 198.039L54.5778 194.039L54.5778 194.039L54.5778 198.039ZM1.8742 195.21C0.312108 196.772 0.312108 199.305 1.8742 200.867L27.3301 226.323C28.8921 227.885 31.4248 227.885 32.9869 226.323C34.549 224.761 34.549 222.228 32.9869 220.666L10.3595 198.039L32.9869 175.411C34.549 173.849 34.549 171.316 32.9869 169.754C31.4248 168.192 28.8921 168.192 27.33 169.754L1.8742 195.21ZM114.818 64.3439L118.818 64.3569L118.818 64.3569L114.818 64.3439ZM114.577 138.234L110.577 138.221L110.577 138.221L114.577 138.234ZM174.817 4.53907L174.817 8.53907L174.817 8.53907L174.817 4.53907ZM54.5778 194.039L4.70263 194.039L4.70263 202.039L54.5778 202.039L54.5778 194.039ZM110.818 64.3309L110.577 138.221L118.577 138.247L118.818 64.3569L110.818 64.3309ZM221.712 0.538905L174.817 0.539067L174.817 8.53907L221.712 8.5389L221.712 0.538905ZM118.818 64.3569C118.918 33.5003 143.961 8.53917 174.817 8.53907L174.817 0.539067C139.552 0.539185 110.933 29.0662 110.818 64.3309L118.818 64.3569ZM54.5778 202.039C89.8427 202.039 118.463 173.512 118.577 138.247L110.577 138.221C110.477 169.077 85.4346 194.039 54.5778 194.039L54.5778 202.039Z" fill="white"/>
</svg>
