<svg width="408" height="421" viewBox="0 0 408 421" fill="none" xmlns="http://www.w3.org/2000/svg">
<path d="M284 157.606L284 153.606L284 157.606ZM344 217.606L348 217.606L348 217.606L344 217.606ZM341.171 316.159C342.733 317.721 345.266 317.721 346.828 316.159L372.284 290.703C373.846 289.141 373.846 286.608 372.284 285.046C370.722 283.484 368.189 283.484 366.627 285.046L344 307.674L321.372 285.046C319.81 283.484 317.277 283.484 315.715 285.046C314.153 286.608 314.153 289.141 315.715 290.703L341.171 316.159ZM3.99994 161.606L284 161.606L284 153.606L3.99994 153.606L3.99994 161.606ZM340 217.606L340 313.331L348 313.331L348 217.606L340 217.606ZM284 161.606C314.928 161.606 340 186.678 340 217.606L348 217.606C348 182.26 319.346 153.606 284 153.606L284 161.606Z" fill="white"/>
</svg>
