<svg width="94" height="95" viewBox="0 0 94 95" fill="none" xmlns="http://www.w3.org/2000/svg">
<path fill-rule="evenodd" clip-rule="evenodd" d="M75.072 0.839783H19.9913V7.72935H0.839844V40.0455C0.839844 52.5349 13.7686 62.8125 26.4557 63.8817C30.6207 68.693 37.9466 72.1879 44.4668 73.6781V82.1247C38.2317 84.1895 27.0941 89.041 26.4557 94.3268H69.246C68.6014 89.041 56.3296 84.1828 50.0821 82.1247V73.6781C56.6271 72.1879 64.2814 68.693 68.4526 63.8817C81.1335 62.8125 93.4921 52.5349 93.4921 40.0455V7.72935H75.072V0.839783ZM6.72164 13.8504H19.5451V41.6894C19.5451 47.1823 20.859 52.408 23.1708 57.1124C13.5765 53.818 6.72164 45.3313 6.72164 35.4012V13.8504ZM71.1735 58.0011C73.4977 53.0829 74.8303 47.6434 74.8303 41.8898V14.0309H87.6847V35.321C87.6847 45.6988 80.7988 54.5597 71.1735 58.0011Z" fill="white"/>
</svg>
