<svg width="35" height="35" viewBox="0 0 35 35" fill="none" xmlns="http://www.w3.org/2000/svg">
<path fill-rule="evenodd" clip-rule="evenodd" d="M0.836234 0.910076C1.37237 0.374608 2.09912 0.0738417 2.85686 0.0738417C3.6146 0.0738417 4.34135 0.374608 4.87748 0.910076L17.1537 13.1863L29.43 0.910076C29.6918 0.629145 30.0074 0.403818 30.3582 0.247536C30.7089 0.0912542 31.0876 0.00721899 31.4715 0.000445C31.8554 -0.00632899 32.2368 0.0642962 32.5928 0.208108C32.9489 0.351919 33.2723 0.56597 33.5438 0.837492C33.8153 1.10901 34.0294 1.43244 34.1732 1.78849C34.317 2.14453 34.3876 2.52589 34.3809 2.90982C34.3741 3.29375 34.2901 3.67238 34.1338 4.02313C33.9775 4.37388 33.7522 4.68955 33.4712 4.95133L21.195 17.2276L33.4712 29.5038C33.7522 29.7656 33.9775 30.0813 34.1338 30.432C34.2901 30.7828 34.3741 31.1614 34.3809 31.5453C34.3876 31.9293 34.317 32.3106 34.1732 32.6667C34.0294 33.0227 33.8153 33.3461 33.5438 33.6177C33.2723 33.8892 32.9489 34.1032 32.5928 34.2471C32.2368 34.3909 31.8554 34.4615 31.4715 34.4547C31.0876 34.4479 30.7089 34.3639 30.3582 34.2076C30.0074 34.0513 29.6918 33.826 29.43 33.5451L17.1537 21.2688L4.87748 33.5451C4.33544 34.0502 3.61851 34.3251 2.87774 34.3121C2.13697 34.299 1.43019 33.9989 0.906301 33.475C0.382414 32.9511 0.0823246 32.2443 0.0692545 31.5036C0.0561844 30.7628 0.331154 30.0459 0.836234 29.5038L13.1125 17.2276L0.836234 4.95133C0.300767 4.41519 0 3.68844 0 2.9307C0 2.17296 0.300767 1.44621 0.836234 0.910076Z" fill="white"/>
</svg>
