<svg width="35" height="35" viewBox="0 0 35 35" fill="none" xmlns="http://www.w3.org/2000/svg">
<rect width="35" height="35" rx="5" fill="#0D5FAA"/>
<path d="M14.154 15.3333C14.358 15.3333 14.5537 15.4035 14.6979 15.5285C14.8422 15.6535 14.9232 15.8231 14.9232 15.9999V23.9999C14.9232 24.1767 14.8422 24.3463 14.6979 24.4713C14.5537 24.5963 14.358 24.6666 14.154 24.6666C13.95 24.6666 13.7543 24.5963 13.6101 24.4713C13.4658 24.3463 13.3848 24.1767 13.3848 23.9999V15.9999C13.3848 15.8231 13.4658 15.6535 13.6101 15.5285C13.7543 15.4035 13.95 15.3333 14.154 15.3333ZM18.0002 15.3333C18.2042 15.3333 18.3998 15.4035 18.5441 15.5285C18.6883 15.6535 18.7694 15.8231 18.7694 15.9999V23.9999C18.7694 24.1767 18.6883 24.3463 18.5441 24.4713C18.3998 24.5963 18.2042 24.6666 18.0002 24.6666C17.7961 24.6666 17.6005 24.5963 17.4562 24.4713C17.312 24.3463 17.2309 24.1767 17.2309 23.9999V15.9999C17.2309 15.8231 17.312 15.6535 17.4562 15.5285C17.6005 15.4035 17.7961 15.3333 18.0002 15.3333ZM22.6155 15.9999C22.6155 15.8231 22.5345 15.6535 22.3902 15.5285C22.246 15.4035 22.0503 15.3333 21.8463 15.3333C21.6423 15.3333 21.4466 15.4035 21.3024 15.5285C21.1581 15.6535 21.0771 15.8231 21.0771 15.9999V23.9999C21.0771 24.1767 21.1581 24.3463 21.3024 24.4713C21.4466 24.5963 21.6423 24.6666 21.8463 24.6666C22.0503 24.6666 22.246 24.5963 22.3902 24.4713C22.5345 24.3463 22.6155 24.1767 22.6155 23.9999V15.9999Z" fill="white"/>
<path fill-rule="evenodd" clip-rule="evenodd" d="M28 12C28 12.3536 27.8379 12.6928 27.5494 12.9428C27.2609 13.1929 26.8696 13.3333 26.4615 13.3333H25.6923V25.3333C25.6923 26.0406 25.3681 26.7189 24.7911 27.219C24.2141 27.719 23.4314 28 22.6154 28H13.3846C12.5686 28 11.7859 27.719 11.2089 27.219C10.6319 26.7189 10.3077 26.0406 10.3077 25.3333V13.3333H9.53846C9.13044 13.3333 8.73912 13.1929 8.4506 12.9428C8.16209 12.6928 8 12.3536 8 12V10.6667C8 10.313 8.16209 9.97391 8.4506 9.72386C8.73912 9.47381 9.13044 9.33333 9.53846 9.33333H14.9231C14.9231 8.97971 15.0852 8.64057 15.3737 8.39052C15.6622 8.14048 16.0535 8 16.4615 8H19.5385C19.9465 8 20.3378 8.14048 20.6263 8.39052C20.9148 8.64057 21.0769 8.97971 21.0769 9.33333H26.4615C26.8696 9.33333 27.2609 9.47381 27.5494 9.72386C27.8379 9.97391 28 10.313 28 10.6667V12ZM12.0277 13.3333L11.8462 13.412V25.3333C11.8462 25.687 12.0082 26.0261 12.2968 26.2761C12.5853 26.5262 12.9766 26.6667 13.3846 26.6667H22.6154C23.0234 26.6667 23.4147 26.5262 23.7032 26.2761C23.9918 26.0261 24.1538 25.687 24.1538 25.3333V13.412L23.9723 13.3333H12.0277ZM9.53846 12V10.6667H26.4615V12H9.53846Z" fill="white"/>
</svg>
