<svg width="171" height="137" viewBox="0 0 171 137" fill="none" xmlns="http://www.w3.org/2000/svg">
<path d="M126.344 82.8547H50.9248V56.2987H126.344V82.8547Z" fill="white"/>
<path d="M66.6851 76.1291C70.4607 76.1291 73.5215 73.0684 73.5215 69.2927C73.5215 65.5171 70.4607 62.4563 66.6851 62.4563C62.9094 62.4563 59.8486 65.5171 59.8486 69.2927C59.8486 73.0684 62.9094 76.1291 66.6851 76.1291Z" fill="#0D5FAA"/>
<path d="M82.1836 64.7966C82.0634 64.7966 81.9482 64.9085 81.8632 65.1077C81.7782 65.307 81.7305 65.5771 81.7305 65.8589C81.7305 66.1406 81.7782 66.4108 81.8632 66.61C81.9482 66.8092 82.0634 66.9211 82.1836 66.9211H115.27C115.39 66.9204 115.505 66.8082 115.59 66.6091C115.675 66.41 115.722 66.1402 115.722 65.8589C115.722 65.5776 115.675 65.3078 115.59 65.1086C115.505 64.9095 115.39 64.7973 115.27 64.7966H82.1836Z" fill="#0D5FAA"/>
<path d="M82.2389 71.17C82.1043 71.1695 81.9752 71.2808 81.8798 71.4796C81.7845 71.6784 81.7308 71.9483 81.7305 72.23C81.7302 72.5118 81.7834 72.7822 81.8783 72.9818C81.9732 73.1814 82.1022 73.2939 82.2367 73.2945H105.654C105.721 73.2948 105.787 73.2675 105.848 73.2142C105.91 73.1609 105.966 73.0827 106.013 72.984C106.06 72.8854 106.098 72.7682 106.123 72.6392C106.149 72.5102 106.162 72.3719 106.162 72.2323C106.162 72.0926 106.149 71.9544 106.123 71.8254C106.098 71.6964 106.06 71.5792 106.013 71.4805C105.966 71.3819 105.91 71.3037 105.848 71.2504C105.787 71.1971 105.721 71.1698 105.654 71.17H82.2389Z" fill="#0D5FAA"/>
<path d="M126.344 82.8547H50.9248V56.2987H126.344V82.8547ZM52.0762 80.9579H125.192V58.1956H52.0762V80.9579Z" fill="#CCCCCC"/>
<path d="M159.827 76.0804C159.704 75.7205 159.663 75.3383 159.704 74.9605C159.745 74.5827 159.869 74.2187 160.067 73.8939C160.264 73.5692 160.53 73.2916 160.846 73.0809C161.163 72.8702 161.521 72.7313 161.897 72.6742L163.322 66.9073L167.038 66.9186L164.911 75.0343C164.965 75.6718 164.784 76.3071 164.401 76.8197C164.018 77.3323 163.46 77.6867 162.833 77.8156C162.207 77.9446 161.555 77.8391 161 77.5193C160.446 77.1995 160.029 76.6875 159.827 76.0804Z" fill="#FFB7B7"/>
<path d="M166.099 72.3486L160.408 71.9542L163.164 55.5291L161.41 37.4433L167.163 35.0845L171 55.169L170.989 55.2056L166.099 72.3486Z" fill="#0D5FAA"/>
<path d="M122.096 70.4234C122.089 70.0434 122.166 69.6666 122.321 69.3195C122.476 68.9724 122.705 68.6635 122.992 68.4145C123.279 68.1655 123.617 67.9824 123.983 67.8783C124.348 67.7741 124.732 67.7513 125.107 67.8115L128.224 62.7547L131.759 63.8994L127.257 70.9789C127.114 71.6025 126.747 72.1521 126.226 72.5234C125.705 72.8947 125.066 73.062 124.43 72.9935C123.794 72.925 123.205 72.6256 122.775 72.1519C122.345 71.6782 122.103 71.0632 122.096 70.4234Z" fill="#FFB7B7"/>
<path d="M139.647 133.653H136.62L135.18 121.976L139.648 121.977L139.647 133.653Z" fill="#FFB7B7"/>
<path d="M140.418 136.588L130.657 136.587V136.464C130.657 135.456 131.058 134.49 131.77 133.777C132.483 133.065 133.449 132.665 134.457 132.665H134.457L140.419 132.665L140.418 136.588Z" fill="#2F2E41"/>
<path d="M160.766 133.653H157.739L156.299 121.976L160.767 121.977L160.766 133.653Z" fill="#FFB7B7"/>
<path d="M161.537 136.588L151.775 136.587V136.464C151.775 135.456 152.176 134.49 152.888 133.777C153.601 133.065 154.567 132.665 155.575 132.665H155.575L161.537 132.665L161.537 136.588Z" fill="#2F2E41"/>
<path d="M157.887 24.0029C161.859 24.0029 165.079 20.7829 165.079 16.8109C165.079 12.8389 161.859 9.6189 157.887 9.6189C153.915 9.6189 150.695 12.8389 150.695 16.8109C150.695 20.7829 153.915 24.0029 157.887 24.0029Z" fill="#FFB8B8"/>
<path d="M155.458 16.4165C154.383 16.866 153.18 16.8993 152.082 16.51C150.984 16.1206 150.07 15.3365 149.519 14.3103C148.968 13.2841 148.818 12.0895 149.1 10.9591C149.381 9.82879 150.073 8.84372 151.042 8.19586C152.956 6.91485 155.815 7.33884 157.67 8.82453C158.921 8.25543 160.321 8.09922 161.667 8.37851C163.013 8.6578 164.235 9.35809 165.156 10.378C166.948 12.4503 167.143 15.7398 165.838 18.1556C165.267 19.415 165.014 20.7952 165.1 22.1753C165.187 23.5553 165.61 24.8931 166.334 26.0714C165.772 26.0485 164.536 25.9445 162.989 25.811C162.541 25.7724 162.348 24.4575 161.857 24.4152C161.424 24.3779 160.697 25.6135 160.244 25.5751C156.884 25.2913 153.123 25.0029 151.418 25.0593C152.703 22.0524 153.987 19.0456 155.458 16.4165Z" fill="#2F2E41"/>
<path d="M163.403 67.4773C163.403 67.4773 165.74 69.8871 164.313 82.3309L163.327 108.754L161.582 132.15L155.969 131.777L151.039 77.927L144.137 97.6323L140.42 130.209L135.035 129.836L134.115 97.4401L136.476 72.4036L163.403 67.4773Z" fill="#2F2E41"/>
<path d="M140.269 73.9108C137.397 73.911 136.24 73.5657 136.156 73.5392L136.022 73.4972L136.046 73.3596C136.065 73.2465 137.994 61.9975 140.642 56.0917L142.503 32.1416C142.557 31.43 142.849 30.7575 143.334 30.2335C143.818 29.7096 144.466 29.3652 145.171 29.2564L145.196 29.4148L145.171 29.2564L149.906 28.5131L152.803 25.9625L159.742 26.3463L160.354 29.2815C161.184 29.5135 166.66 31.1919 167.202 35.211L167.209 35.2614L167.185 35.3063L157.152 54.6073C158 55.4441 164.701 62.3271 165.155 71.1264L165.166 71.3381L164.96 71.2908C164.94 71.2869 162.796 70.8794 151.521 72.7856C146.306 73.667 142.682 73.9108 140.269 73.9108Z" fill="#0D5FAA"/>
<path d="M129.145 70.307L125.056 67.1576L134.183 48.8956L142.673 30.9972C142.791 30.7471 142.984 30.5392 143.224 30.4016C143.464 30.2639 143.741 30.203 144.016 30.2271C144.292 30.2511 144.554 30.3589 144.767 30.5361C144.979 30.7132 145.133 30.9512 145.206 31.2181L147.307 38.8412L140.736 55.9374L129.145 70.307Z" fill="#0D5FAA"/>
<path d="M95.8445 52.0575H78.5439V34.757H87.1942V35.3977H79.1847V51.4167H95.2037V43.4072H95.8445V52.0575Z" fill="#3F3D56"/>
<path d="M96.693 42.1861L97.2308 41.6519C99.7188 41.7332 99.7571 41.646 99.8664 41.3902L100.55 39.7262L100.601 39.5684L100.545 39.4304C100.516 39.3575 100.426 39.14 98.8722 37.6588V36.8796C100.665 35.1528 100.626 35.0644 100.524 34.8116L99.8437 33.1303C99.7415 32.8781 99.7027 32.7795 97.2326 32.847L96.6948 32.2914C96.7504 31.4728 96.7221 30.6508 96.6106 29.838L96.5413 29.6808L94.7643 28.9041C94.5026 28.7846 94.4106 28.7415 92.7328 30.5687L91.9787 30.5574C90.2513 28.7135 90.1694 28.7469 89.9107 28.8515L88.2586 29.5195C87.9999 29.6241 87.9085 29.6611 88.0088 32.1707L87.4753 32.7024C84.9884 32.6212 84.9502 32.7096 84.842 32.9641L84.1573 34.6288L84.1035 34.7883L84.1597 34.927C84.189 34.9987 84.2756 35.2138 85.8327 36.6968V37.4736C84.0402 39.2004 84.079 39.2888 84.1818 39.5421L84.8618 41.2253C84.9657 41.4828 85.0028 41.5743 87.4723 41.5097L88.01 42.0684C87.9543 42.8857 87.9817 43.7065 88.0919 44.5182L88.1612 44.6765L89.9496 45.4581C90.2095 45.5668 90.2997 45.6057 91.9727 43.7851L92.7268 43.7946C94.4566 45.6409 94.545 45.6051 94.7977 45.5029L96.4463 44.8367C96.7068 44.7333 96.7976 44.6969 96.693 42.1861ZM89.6078 38.288C89.3993 37.7431 89.3564 37.1487 89.4844 36.5795C89.6124 36.0103 89.9057 35.4916 90.3274 35.0885C90.7492 34.6853 91.2806 34.4157 91.855 34.3135C92.4294 34.2112 93.0212 34.2809 93.5561 34.5137C94.0911 34.7466 94.5453 35.1322 94.8619 35.6223C95.1785 36.1123 95.3433 36.685 95.3356 37.2684C95.328 37.8517 95.1482 38.4199 94.8189 38.9014C94.4895 39.383 94.0253 39.7566 93.4844 39.9753C92.7465 40.2639 91.9242 40.2484 91.1977 39.9321C90.4711 39.6159 89.8995 39.0247 89.6078 38.288Z" fill="#0D5FAA"/>
<path d="M167.099 136.076H0.575195V136.575H167.099V136.076Z" fill="#CCCCCC"/>
<path d="M13.9434 21.5472L14.3478 19.5248C14.3478 19.5248 20.2973 17.5023 20.963 21.5472H13.9434Z" fill="#E6E6E6"/>
<path d="M25.362 132.906H29.2623L31.1179 117.861H25.3613L25.362 132.906Z" fill="#9F616A"/>
<path d="M24.3672 131.632L32.0485 131.632H32.0488C33.3471 131.632 34.5921 132.148 35.5101 133.066C36.4281 133.984 36.9439 135.229 36.944 136.527V136.686L24.3674 136.687L24.3672 131.632Z" fill="#2F2E41"/>
<path d="M6.56022 132.906H10.4605L12.3162 117.861H6.55957L6.56022 132.906Z" fill="#9F616A"/>
<path d="M5.56445 131.632L13.2458 131.632H13.2461C14.5443 131.632 15.7894 132.148 16.7074 133.066C17.6254 133.984 18.1411 135.229 18.1412 136.527V136.686L5.56471 136.687L5.56445 131.632Z" fill="#2F2E41"/>
<path d="M8.28064 30.0415L3.8312 29.6369L1 42.9849L1.40432 55.1196L5.85376 71.2991L11.9211 67.6587L8.68528 51.0748L8.28064 30.0415Z" fill="#0D5FAA"/>
<path d="M5.46461 69.8834L6.46067 78.3776L7.39586 98.1976L5.24707 127.733L12.9324 127.32L16.6991 96.5794L18.9997 82.4224L22.2355 98.6019L24.2581 128.938L32.1455 128.306V98.4952L32.3477 76.7597L29.5165 68.2654L5.46461 69.8834Z" fill="#2F2E41"/>
<path d="M22.0331 21.9518C22.0331 21.9518 19.2017 17.9069 13.9434 20.7383L11.5165 23.9742L3.83124 29.637L5.4492 48.6479L3.42676 72.5126L32.1453 72.1081L27.2915 48.2434V22.7607L22.0331 21.9518Z" fill="#0D5FAA"/>
<path opacity="0.25" d="M6.45986 36.3508L4.14062 64.0813L7.06666 49.0523L6.45986 36.3508Z" fill="black"/>
<path d="M54.7351 59.6013C54.3221 59.7416 53.8834 59.7896 53.4499 59.742C53.0164 59.6945 52.5986 59.5524 52.2259 59.3259C51.8532 59.0993 51.5347 58.7938 51.2929 58.4309C51.051 58.068 50.8917 57.6564 50.8261 57.2253L44.208 55.5897L44.2211 51.3254L53.5346 53.7665C54.2663 53.7043 54.9953 53.9126 55.5836 54.3521C56.1719 54.7915 56.5786 55.4314 56.7266 56.1507C56.8745 56.8699 56.7535 57.6184 56.3865 58.2544C56.0194 58.8904 55.4319 59.3696 54.7351 59.6013H54.7351Z" fill="#9F616A"/>
<path d="M47.816 51.2743L46.7031 57.6497L49.4924 58.1366L50.6052 51.7612L47.816 51.2743Z" fill="#E6E6E6"/>
<path d="M17.5326 17.2796C22.0185 17.2796 25.6551 13.643 25.6551 9.15712C25.6551 4.67121 22.0185 1.03467 17.5326 1.03467C13.0467 1.03467 9.41016 4.67121 9.41016 9.15712C9.41016 13.643 13.0467 17.2796 17.5326 17.2796Z" fill="#9F616A"/>
<path d="M18.14 16.3221C16.1528 16.7992 14.0593 16.5207 12.2659 15.5407C10.4725 14.5607 9.10732 12.9493 8.43547 11.0192C7.76363 9.0891 7.83309 6.97823 8.63033 5.09649C9.42758 3.21475 10.8957 1.69646 12.7496 0.836491C14.1773 0.199302 15.7386 -0.0808802 17.2988 0.0201319C19.728 0.147848 22.089 1.04568 24.5207 0.979522L24.8731 1.54606L26.2014 1.22392L26.486 2.27849L26.8359 2.26638C27.4626 3.43107 26.4543 5.09852 25.1317 5.08441C24.6117 5.02445 24.0989 4.91274 23.601 4.75096C23.089 4.64125 22.486 4.66859 22.133 5.0553C21.6741 5.55785 21.8739 6.34208 21.9695 7.01583C22.0652 7.68959 21.8263 8.59712 21.1461 8.61911C20.7987 8.63035 20.4682 8.38119 20.1268 8.4467C19.7292 8.523 19.5281 9.00317 19.5862 9.40388C19.6846 9.79707 19.8452 10.172 20.0619 10.5146C20.5218 11.5173 20.5949 12.6547 20.2673 13.7081C19.9398 14.7615 19.2345 15.6568 18.2871 16.222" fill="#2F2E41"/>
<path d="M25.3604 24.3236L27.291 22.7607C27.291 22.7607 31.1874 22.4898 31.117 26.6205L37.3515 46.1225L49.3119 50.3594L47.7003 58.6862L30.778 52.2396L22.1826 37.9928L25.3604 24.3236Z" fill="#0D5FAA"/>
</svg>
