<svg width="35" height="35" viewBox="0 0 35 35" fill="none" xmlns="http://www.w3.org/2000/svg">
<rect width="35" height="35" rx="5" fill="#0D5FAA"/>
<path d="M22.6744 10.8328L25.1662 13.3234M24.2768 8.63863L17.5391 15.3763C17.191 15.724 16.9535 16.1669 16.8567 16.6493L16.2344 19.7646L19.3497 19.1411C19.8321 19.0446 20.2744 18.8081 20.6227 18.4599L27.3604 11.7222C27.5628 11.5197 27.7234 11.2794 27.833 11.0148C27.9426 10.7503 27.999 10.4667 27.999 10.1804C27.999 9.89407 27.9426 9.61054 27.833 9.346C27.7234 9.08146 27.5628 8.8411 27.3604 8.63863C27.1579 8.43616 26.9175 8.27555 26.653 8.16597C26.3885 8.0564 26.1049 8 25.8186 8C25.5323 8 25.2487 8.0564 24.9842 8.16597C24.7196 8.27555 24.4793 8.43616 24.2768 8.63863Z" stroke="white" stroke-width="2" stroke-linecap="round" stroke-linejoin="round"/>
<path d="M25.6472 22.1176V25.6471C25.6472 26.2711 25.3993 26.8696 24.9581 27.3109C24.5168 27.7521 23.9183 28 23.2943 28H10.353C9.72892 28 9.13043 27.7521 8.68917 27.3109C8.2479 26.8696 8 26.2711 8 25.6471V12.7057C8 12.0817 8.2479 11.4832 8.68917 11.042C9.13043 10.6007 9.72892 10.3528 10.353 10.3528H13.8824" stroke="white" stroke-width="2" stroke-linecap="round" stroke-linejoin="round"/>
</svg>
