<svg width="218" height="153" viewBox="0 0 218 153" fill="none" xmlns="http://www.w3.org/2000/svg">
<g clip-path="url(#clip0_2568_5434)">
<path d="M197.562 137.557C195.513 135.4 190.772 133.552 184.422 132.328V104.526H184.131V104.239H178.888V104.526H170.65C171.388 100.32 173.85 85.6527 173.354 79.7618C173.354 79.7618 179.755 62.4864 174.518 48.0886C174.518 48.0886 179.761 49.24 180.338 43.4809C180.808 38.8313 186.202 28.5582 180.007 22.6474C178.553 21.1388 176.391 19.8916 173.269 19.0554L171.755 14.8648C172.743 13.3183 173.354 11.2309 173.354 8.93005C173.354 5.83098 172.253 3.11505 170.603 1.59045C169.654 0.592682 168.494 -0.00598145 167.242 -0.00598145C166.288 0.00849021 165.366 0.335533 164.62 0.923941C164.729 1.00576 164.834 1.09356 164.939 1.18536C163.025 2.6002 161.712 5.53165 161.712 8.92008C161.712 11.4843 162.468 13.7812 163.664 15.3637L162.876 20.4383C162.876 20.4383 146.581 16.4133 153.567 43.4809C153.567 43.4809 155.313 48.0886 158.223 48.0886C158.223 48.0886 156.477 68.8203 159.387 76.3075C159.387 76.3075 158.223 94.7364 160.552 98.7674V104.526H146V133.043C138.551 134.731 133.777 137.323 133.777 140.227C133.777 145.317 148.37 149.442 166.37 149.442C184.371 149.442 198.962 145.325 198.962 140.233C198.962 139.303 198.47 138.405 197.562 137.557Z" fill="#E7EFF7"/>
<path d="M82.8678 140.578C80.9661 138.57 76.5497 136.852 70.6308 135.713V109.841H70.3606V109.573H65.4863V109.841H57.823C58.5107 105.927 60.8016 92.2798 60.3398 86.7961C60.3398 86.7961 66.297 70.718 61.4228 57.3199C61.4228 57.3199 66.297 58.3915 66.8395 53.0335C67.2771 48.7072 72.2965 39.1465 66.5309 33.6468C65.1778 32.2499 63.1672 31.0825 60.2632 30.3083L58.8515 26.401C59.7731 24.9602 60.3398 23.0206 60.3398 20.8773C60.3398 17.9938 59.3174 15.4674 57.7807 14.0486C56.8974 13.1187 55.8185 12.5719 54.6529 12.5719C53.7663 12.5858 52.9095 12.8904 52.2167 13.438C52.3176 13.5138 52.4184 13.5956 52.5132 13.6794C50.7325 14.9965 49.5084 17.7244 49.5084 20.8773C49.5084 23.272 50.2142 25.4012 51.3234 26.864L50.5893 31.5854C50.5893 31.5854 35.4261 27.8338 41.9177 53.0235C41.9177 53.0235 43.5431 57.3099 46.2515 57.3099C46.2515 57.3099 44.6261 76.6028 47.3344 83.5713C47.3344 83.5713 46.2515 100.721 48.4174 104.473V109.831H34.8856V136.371C27.9544 137.942 23.5117 140.362 23.5117 143.062C23.5117 147.798 37.0919 151.643 53.8422 151.643C70.5925 151.643 84.1706 147.804 84.1706 143.062C84.1706 142.202 83.7128 141.366 82.8678 140.578Z" fill="#E7EFF7"/>
<path d="M127.49 139.227C126.078 137.73 122.783 136.451 118.375 135.603V116.334H118.173V116.135H114.543V116.334H108.836C109.348 113.419 111.054 103.251 110.712 99.1725C110.712 99.1725 115.148 87.1992 111.518 77.2215C111.518 77.2215 115.148 78.0197 115.552 74.0286C115.878 70.8058 119.617 63.6857 115.322 59.5889C114.313 58.5432 112.817 57.6792 110.653 57.1025L109.604 54.187C110.354 52.9441 110.738 51.5191 110.714 50.0722C110.714 47.925 109.951 46.0432 108.806 44.9855C108.148 44.2931 107.346 43.886 106.479 43.886C105.818 43.8968 105.18 44.1242 104.664 44.5325C104.74 44.5884 104.813 44.6483 104.885 44.7121C103.558 45.692 102.647 47.7234 102.647 50.0722C102.647 51.8502 103.173 53.4426 104.002 54.5382L103.454 58.0563C103.454 58.0563 92.1604 55.2626 97.0003 74.0207C97.0003 74.0207 98.2103 77.2135 100.227 77.2135C100.227 77.2135 99.017 91.5814 101.034 96.7698C101.034 96.7698 100.227 109.541 101.84 112.335V116.326H91.7571V136.082C86.5944 137.251 83.2871 139.049 83.2871 141.071C83.2871 144.599 93.4006 147.457 105.874 147.457C118.347 147.457 128.46 144.597 128.46 141.071C128.46 140.436 128.119 139.814 127.49 139.227Z" fill="#E7EFF7"/>
<path d="M209.764 142.496C208.929 141.614 206.991 140.859 204.394 140.358V129.004H204.275V128.886H202.135V129.004H198.771C199.074 127.286 200.08 121.293 199.876 118.888C199.876 118.888 202.498 111.83 200.352 105.949C200.352 105.949 202.492 106.42 202.73 104.067C202.932 102.17 205.126 97.9731 202.595 95.5585C202 94.9419 201.117 94.433 199.842 94.0938L199.223 92.3776C199.665 91.6456 199.891 90.8057 199.876 89.953C199.876 88.6878 199.427 87.5783 198.753 86.9597C198.582 86.7631 198.372 86.6039 198.135 86.4923C197.899 86.3806 197.642 86.3189 197.38 86.3112C196.991 86.318 196.615 86.452 196.311 86.6923C196.356 86.7253 196.399 86.7606 196.44 86.7981C195.66 87.3748 195.123 88.5721 195.123 89.957C195.104 90.8967 195.387 91.8182 195.93 92.5891L195.607 94.6625C195.607 94.6625 188.952 93.0162 191.804 104.071C191.804 104.071 192.518 105.953 193.705 105.953C193.705 105.953 192.994 114.422 194.181 117.48C194.181 117.48 193.705 125.009 194.657 126.659V129.012H188.704V140.66C185.661 141.348 183.711 142.408 183.711 143.595C183.711 145.675 189.672 147.361 197.021 147.361C204.369 147.361 210.331 145.675 210.331 143.595C210.337 143.208 210.135 142.841 209.764 142.496Z" fill="#E7EFF7"/>
<path d="M36.3324 142.496C35.4975 141.614 33.5595 140.859 30.9621 140.358V129.004H30.8431V128.886H28.7034V129.004H25.3396C25.6421 127.286 26.6485 121.293 26.4448 118.888C26.4448 118.888 29.0664 111.83 26.9207 105.949C26.9207 105.949 29.0604 106.42 29.2983 104.067C29.4899 102.17 31.6941 97.9731 29.1632 95.5585C28.5582 94.9419 27.685 94.433 26.4105 94.0938L25.7914 92.3776C26.2335 91.6456 26.4599 90.8057 26.4448 89.953C26.4448 88.6878 25.9951 87.5783 25.3215 86.9597C25.1507 86.7631 24.9403 86.6039 24.7039 86.4923C24.4674 86.3806 24.21 86.3189 23.9482 86.3112C23.5591 86.318 23.1833 86.452 22.8793 86.6923C22.9242 86.7253 22.9673 86.7606 23.0084 86.7981C22.228 87.3748 21.6915 88.5721 21.6915 89.957C21.6698 90.894 21.9479 91.8139 22.4861 92.5851L22.1634 94.6585C22.1634 94.6585 15.5085 93.0122 18.36 104.067C18.36 104.067 19.0739 105.949 20.2617 105.949C20.2617 105.949 19.5498 114.418 20.7376 117.476C20.7376 117.476 20.2617 125.005 21.2136 126.655V129.008H15.2725V140.656C12.2294 141.344 10.2793 142.404 10.2793 143.591C10.2793 145.671 16.2405 147.357 23.5892 147.357C30.9379 147.357 36.8991 145.671 36.8991 143.591C36.9051 143.208 36.7035 142.841 36.3324 142.496Z" fill="#E7EFF7"/>
<path d="M128.004 73.8251C125.556 77.9439 125.181 82.9008 124.356 87.6063C123.061 94.898 120.525 101.93 119.246 109.226C118.8 111.778 118.512 114.366 117.804 116.859C116.832 120.283 115.098 123.444 113.47 126.607C110.699 132.011 108.185 137.631 107.15 143.603C106.827 145.465 107.079 147.993 108.943 148.392C109.475 148.51 110.074 148.416 110.528 148.716C110.794 148.889 110.964 149.171 111.177 149.404C111.996 150.298 113.406 150.402 114.575 150.077C115.745 149.751 116.765 149.037 117.85 148.48C122.158 146.285 127.264 146.547 132.096 146.858C132.985 146.914 133.984 147.024 134.546 147.71C134.831 148.059 134.95 148.508 135.161 148.907C135.912 150.354 137.892 151.027 139.38 150.34C139.937 150.083 140.415 149.67 140.994 149.458C142.762 148.806 144.623 150.22 146.517 150.23C149.24 150.242 151.289 147.389 154.009 147.291C155.864 147.225 157.56 148.476 159.416 148.488C160.807 148.488 162.09 147.794 163.3 147.117L171.568 142.496C169.357 139.437 166.65 136.761 163.556 134.577C161.279 132.981 160.664 129.788 159.274 127.393C158.357 125.809 157.429 124.201 156.982 122.43C156.659 121.153 156.594 119.824 156.276 118.545C155.834 116.781 154.925 115.175 154.203 113.504C151.339 106.887 151.436 99.3361 148.812 92.6211C148.074 90.7293 147.124 88.9193 146.469 86.9976C145.606 84.4673 145.269 81.7853 144.398 79.2589C143.526 76.7326 141.978 74.2521 139.507 73.1646C138.435 72.7283 137.294 72.483 136.135 72.4402C133.25 72.2566 130.682 72.7475 128.004 73.8251Z" fill="#3F3D56"/>
<path d="M138.765 40.266H127.262V55.4441H138.765V40.266Z" fill="#FBC661"/>
<path d="M138.456 52.0398C137.871 51.95 137.274 52.0398 136.683 52.0398C135.229 52.0218 134.816 53.7599 133.366 53.9016C131.597 54.0732 129.145 52.9657 127.667 53.9435C127.397 54.1299 127.111 54.2928 126.812 54.4305C125.602 54.9573 124.124 54.7617 123.017 55.4781C121.909 56.1945 121.504 57.6093 121.504 58.9184C121.476 59.3868 121.545 59.8559 121.706 60.2973C121.861 60.6705 122.119 60.9938 122.274 61.367C122.383 61.6304 122.44 61.9117 122.531 62.1831C122.778 62.8045 123.118 63.3857 123.539 63.9073L126.1 67.4334C126.772 68.3593 126.503 69.5048 126.612 70.6402C126.693 71.5123 126.899 72.3744 126.897 73.2484C126.895 74.1225 126.653 75.0444 125.993 75.6431C127.51 75.5513 129.021 75.4136 130.529 75.23C131.771 75.0783 133.009 74.8967 134.257 74.8089C136.879 74.6253 139.513 74.8628 142.122 75.1003C141.691 74.5695 141.495 73.8291 141.388 73.1566C141.033 70.9256 140.809 68.5888 141.552 66.4536C141.79 65.8151 142.069 65.1926 142.388 64.5898L143.185 63.0033C144.312 60.7603 145.365 58.4614 145.605 55.967C145.695 55.3265 145.618 54.6739 145.381 54.0712C145.032 53.299 144.278 52.7562 143.465 52.4928C142.64 52.2601 141.778 52.1856 140.924 52.2733C140.13 52.3112 139.251 52.1595 138.456 52.0398Z" fill="#3F3D56"/>
<path d="M130.174 50.9901C130.358 51.465 130.578 51.9739 130.435 52.4648C130.168 53.4386 128.809 53.6362 128.216 54.4603C128.165 54.5162 128.129 54.5846 128.113 54.6587C128.097 54.7327 128.101 54.8096 128.125 54.8814C128.154 54.9294 128.191 54.972 128.234 55.0071C129.341 55.961 130.943 56.0428 132.411 56.0268C134.55 56.0069 136.835 55.8273 138.531 54.5442C139.005 54.185 139.451 53.5863 139.209 53.0455C139.021 52.6324 138.527 52.4768 138.118 52.2732C137.2 51.8163 136.543 50.9462 136.18 49.9943C135.817 49.0424 135.724 48.0147 135.708 47.001C135.724 46.8276 135.686 46.6534 135.599 46.5021C135.458 46.3026 135.196 46.2726 134.948 46.2567C133.566 46.1654 132.178 46.2202 130.808 46.4203C130.42 46.4762 129.682 46.5281 129.41 46.8414C129.138 47.1547 129.295 47.5258 129.348 47.8671C129.511 48.934 129.788 49.9808 130.174 50.9901Z" fill="#FBB3B2"/>
<path opacity="0.05" d="M130.174 50.9901C130.358 51.465 130.578 51.9739 130.435 52.4648C130.168 53.4386 128.809 53.6362 128.216 54.4603C128.165 54.5162 128.129 54.5846 128.113 54.6587C128.097 54.7327 128.101 54.8096 128.125 54.8814C128.154 54.9294 128.191 54.972 128.234 55.0071C129.341 55.961 130.943 56.0428 132.411 56.0268C134.55 56.0069 136.835 55.8273 138.531 54.5442C139.005 54.185 139.451 53.5863 139.209 53.0455C139.021 52.6324 138.527 52.4768 138.118 52.2732C137.2 51.8163 136.543 50.9462 136.18 49.9943C135.817 49.0424 135.724 48.0147 135.708 47.001C135.724 46.8276 135.686 46.6534 135.599 46.5021C135.458 46.3026 135.196 46.2726 134.948 46.2567C133.566 46.1654 132.178 46.2202 130.808 46.4203C130.42 46.4762 129.682 46.5281 129.41 46.8414C129.138 47.1547 129.295 47.5258 129.348 47.8671C129.511 48.934 129.788 49.9808 130.174 50.9901Z" fill="black"/>
<path d="M132.778 49.0544C135.63 49.0544 137.943 46.7663 137.943 43.9438C137.943 41.1213 135.63 38.8333 132.778 38.8333C129.926 38.8333 127.613 41.1213 127.613 43.9438C127.613 46.7663 129.926 49.0544 132.778 49.0544Z" fill="#FBB3B2"/>
<path opacity="0.1" d="M137.703 149.466C137.294 149.644 136.903 149.859 136.535 150.109C136.991 150.393 137.509 150.563 138.046 150.605C138.583 150.647 139.122 150.559 139.617 150.348C140.008 150.166 140.359 149.909 140.734 149.7C139.701 149.38 138.687 149.103 137.703 149.466Z" fill="black"/>
<path opacity="0.1" d="M114.565 148.49C113.691 148.933 112.858 149.474 111.957 149.843C112.776 150.326 113.871 150.348 114.813 150.079C115.982 149.741 117.003 149.039 118.086 148.482C120.449 147.285 123.055 146.816 125.721 146.686C121.857 146.559 117.963 146.762 114.565 148.49Z" fill="black"/>
<path opacity="0.1" d="M163.788 134.575C161.511 132.979 160.898 129.786 159.506 127.391C158.589 125.807 157.661 124.199 157.214 122.428C156.891 121.151 156.826 119.822 156.508 118.543C156.068 116.779 155.159 115.173 154.437 113.502C151.573 106.885 151.668 99.3341 149.046 92.6191C148.306 90.7273 147.356 88.9173 146.701 86.9956C145.84 84.4653 145.491 81.7833 144.63 79.2569C143.768 76.7306 142.21 74.2501 139.739 73.1625C138.685 72.6956 137.521 72.514 136.367 72.4381C135.394 72.3744 134.418 72.3911 133.447 72.488C134.403 72.5671 135.341 72.7961 136.224 73.1665C138.689 74.2541 140.243 76.7345 141.115 79.2609C141.986 81.7873 142.325 84.4693 143.186 86.9996C143.841 88.9213 144.799 90.7313 145.529 92.623C148.151 99.338 148.056 106.889 150.92 113.506C151.644 115.177 152.553 116.783 152.993 118.547C153.311 119.826 153.376 121.155 153.698 122.432C154.146 124.203 155.074 125.811 155.991 127.395C157.381 129.79 157.996 132.971 160.273 134.579C163.368 136.761 166.077 139.436 168.289 142.494L160.021 147.115C159.329 147.525 158.604 147.876 157.853 148.165C158.438 148.362 159.05 148.471 159.668 148.486C161.057 148.486 162.34 147.792 163.55 147.115L171.818 142.494C169.603 139.433 166.889 136.757 163.788 134.575Z" fill="black"/>
<path opacity="0.1" d="M150.718 147.299C148.587 147.375 146.866 149.145 144.91 149.893C145.503 150.091 146.122 150.205 146.747 150.23C148.937 150.23 150.692 148.396 152.711 147.624C152.07 147.404 151.396 147.294 150.718 147.299Z" fill="black"/>
<path d="M132.466 73.1884V69.4188H130.617C130.716 68.8541 131.047 66.8805 130.98 66.0883C130.98 66.0883 131.841 63.7655 131.137 61.8298C131.231 61.8523 131.329 61.8533 131.424 61.8326C131.518 61.8119 131.606 61.7701 131.682 61.7104C131.758 61.6507 131.818 61.5746 131.859 61.4881C131.901 61.4016 131.921 61.3068 131.92 61.2112C131.997 60.4369 133.094 58.5012 130.98 57.9584L130.764 57.3598C130.91 57.1189 130.985 56.8424 130.98 56.5616C130.98 55.921 130.629 55.4001 130.198 55.4001C129.766 55.4001 129.415 55.921 129.415 56.5616C129.408 56.8711 129.499 57.1749 129.677 57.4296L129.571 58.1201C129.571 58.1201 127.38 57.5773 128.32 61.2171C128.32 61.2171 128.554 61.8358 128.945 61.8358C128.945 61.8358 128.711 64.6295 129.103 65.6273C129.103 65.6273 128.945 68.1038 129.258 68.6466V69.4208H127.302V73.2543C126.293 73.4817 125.658 73.831 125.658 74.2221C125.658 74.9066 127.62 75.4613 130.04 75.4613C132.46 75.4613 134.423 74.9066 134.423 74.2221C134.423 73.7891 133.646 73.4099 132.466 73.1884Z" fill="#0D5FAA"/>
<path opacity="0.1" d="M130.234 56.5237C130.239 56.8043 130.165 57.0807 130.02 57.3219L130.234 57.9206C132.348 58.4614 131.253 60.3971 131.174 61.1713C131.175 61.267 131.155 61.3618 131.113 61.4484C131.072 61.535 131.012 61.6111 130.936 61.6709C130.861 61.7308 130.772 61.7728 130.678 61.7938C130.584 61.8148 130.486 61.8141 130.391 61.7919C131.095 63.7276 130.234 66.0504 130.234 66.0504C130.301 66.8486 129.97 68.8142 129.871 69.381H130.577C130.676 68.8142 131.009 66.8426 130.942 66.0504C130.942 66.0504 131.801 63.7276 131.097 61.7919C131.191 61.8141 131.289 61.8148 131.384 61.7938C131.478 61.7728 131.566 61.7308 131.642 61.6709C131.717 61.6111 131.778 61.535 131.819 61.4484C131.86 61.3618 131.881 61.267 131.88 61.1713C131.958 60.3971 133.053 58.4614 130.942 57.9206L130.726 57.3219C130.872 57.081 130.947 56.8045 130.942 56.5237C130.942 55.8831 130.591 55.3623 130.16 55.3623C130.031 55.3643 129.907 55.4085 129.807 55.488C129.951 55.6188 130.064 55.7794 130.138 55.9585C130.212 56.1375 130.245 56.3306 130.234 56.5237Z" fill="black"/>
<path opacity="0.1" d="M132.427 73.1486V69.381H131.724V73.1486C132.901 73.3721 133.68 73.7472 133.68 74.1803C133.68 74.8328 131.905 75.3656 129.646 75.4155H129.999C132.419 75.4155 134.382 74.8607 134.382 74.1763C134.384 73.7512 133.603 73.3721 132.427 73.1486Z" fill="black"/>
<path d="M134.519 36.7678C132.906 36.3687 131.171 36.0634 129.635 36.676C128.929 36.9853 128.28 37.4081 127.715 37.9272C127.192 38.3762 126.684 38.8731 126.406 39.5017C126.073 40.26 126.111 41.1181 126.091 41.9443C126.071 42.7704 125.96 43.6564 125.406 44.2731C125.19 44.5125 124.909 44.7081 124.77 44.9994C124.569 45.3986 124.702 45.8914 124.899 46.2965C125.097 46.7016 125.361 47.0848 125.452 47.5278C125.575 48.1404 125.335 48.775 124.994 49.3018C124.653 49.8287 124.21 50.2836 123.857 50.8045C123.504 51.3253 123.23 52.0716 123.55 52.6444C123.752 53.0135 124.167 53.243 124.377 53.6062C124.478 53.7798 124.528 53.9814 124.635 54.151C124.932 54.616 125.555 54.7297 126.105 54.7856C126.987 54.8774 127.969 54.9053 128.652 54.3466C129.122 53.9634 129.36 53.3667 129.475 52.7741C129.59 52.1814 129.594 51.5767 129.701 50.9781C129.778 50.551 129.903 50.124 129.866 49.693C129.816 49.1182 129.479 48.6134 129.215 48.0965C128.817 47.3789 128.631 46.565 128.679 45.7478C128.757 44.9376 129.189 44.1374 129.911 43.7522C130.419 43.4748 131.046 43.405 131.478 43.0219C132.161 42.4232 132.059 41.3616 132.182 40.4656C132.198 40.2659 132.264 40.0733 132.373 39.9048C132.587 39.6175 132.978 39.5396 133.341 39.5057C134.186 39.4339 135.084 39.5237 135.791 39.9886C136.447 40.4495 136.902 41.1402 137.062 41.9203C137.217 42.6959 137.203 43.4955 137.02 44.2651C137.048 43.9278 137.572 43.836 137.814 44.0655C138.056 44.295 138.068 44.6901 138 45.0214C137.717 46.4183 136.439 47.416 136.009 48.773C135.839 49.3322 135.817 49.9254 135.947 50.4953C136.076 51.0651 136.352 51.5923 136.747 52.0257C136.854 52.1544 136.993 52.2523 137.151 52.3091C137.312 52.3401 137.477 52.3482 137.641 52.3331C138.284 52.3331 138.837 52.7701 139.327 53.1852C139.817 53.6002 140.335 54.0452 140.988 54.0951C141.642 54.145 142.345 53.5623 142.152 52.9537C142.082 52.7719 141.969 52.6092 141.823 52.4787C141.42 52.0677 140.891 51.7444 140.613 51.2415C140.127 50.3974 140.424 49.3417 140.73 48.4178C141.037 47.4939 141.335 46.4362 140.837 45.5961C140.603 45.197 140.212 44.8977 140.03 44.4746C139.93 44.2297 139.878 43.9684 139.875 43.7043C139.833 42.7385 140.077 41.7547 139.875 40.8128C139.755 40.3586 139.545 39.9326 139.256 39.5598C138.968 39.187 138.607 38.8749 138.195 38.6416C137.777 38.3899 137.323 38.2022 136.848 38.0849C136.665 38.039 136.386 38.049 136.257 37.9133C136.128 37.7776 136.084 37.5361 135.92 37.3845C135.525 37.0492 135.001 36.8856 134.519 36.7678Z" fill="#FBC661"/>
<path opacity="0.05" d="M137.814 42.992C137.726 42.9166 137.616 42.8709 137.501 42.8615C137.385 42.8522 137.269 42.8797 137.17 42.9401C137.165 43.3639 137.119 43.7863 137.031 44.2013C137.12 43.9199 137.588 43.856 137.814 44.0755C137.859 44.1199 137.898 44.1702 137.929 44.2252C137.957 44.134 137.981 44.0415 137.999 43.9478C138.068 43.6166 138.058 43.2294 137.814 42.992Z" fill="black"/>
<path opacity="0.05" d="M139.855 42.6308C139.857 42.7102 139.863 42.7895 139.873 42.8683C139.932 42.3229 139.945 41.7735 139.912 41.226C139.867 41.6929 139.848 42.1619 139.855 42.6308Z" fill="black"/>
<path opacity="0.05" d="M137.032 44.2013C137.026 44.2231 137.022 44.2454 137.02 44.268L137.032 44.2013Z" fill="black"/>
<path opacity="0.05" d="M140.393 49.6311C140.471 49.2248 140.579 48.8246 140.716 48.4338C140.96 47.7034 141.194 46.8873 141.035 46.1609C140.96 46.5676 140.854 46.9679 140.716 47.3582C140.472 48.0806 140.234 48.9008 140.393 49.6311Z" fill="black"/>
<path opacity="0.05" d="M137.063 41.9223C137.098 42.0783 137.125 42.2362 137.143 42.3952C137.201 41.8755 137.174 41.3498 137.063 40.8387C136.903 40.0577 136.449 39.3663 135.792 38.905C135.084 38.442 134.179 38.3502 133.342 38.4221C132.983 38.454 132.588 38.5318 132.374 38.8212C132.265 38.989 132.199 39.1809 132.182 39.3799C132.059 40.2779 132.162 41.3336 131.479 41.9362C131.047 42.3214 130.42 42.3912 129.912 42.6686C129.19 43.0677 128.758 43.8659 128.68 44.6641C128.654 44.9524 128.665 45.2426 128.712 45.5282C128.767 45.1606 128.904 44.8097 129.113 44.501C129.323 44.1924 129.599 43.9339 129.922 43.7442C130.43 43.4668 131.057 43.397 131.489 43.0138C132.172 42.4152 132.07 41.3535 132.193 40.4575C132.209 40.2579 132.275 40.0653 132.384 39.8968C132.598 39.6094 132.989 39.5316 133.352 39.4977C134.197 39.4258 135.095 39.5156 135.802 39.9806C136.457 40.4457 136.907 41.14 137.063 41.9223Z" fill="black"/>
<path opacity="0.05" d="M141.948 52.6285C141.827 52.7613 141.678 52.8659 141.511 52.9349C141.344 53.0039 141.164 53.0356 140.984 53.0276C140.341 52.9777 139.81 52.5327 139.322 52.1176C138.834 51.7025 138.28 51.2735 137.636 51.2655C137.473 51.2797 137.308 51.2716 137.146 51.2416C136.989 51.1839 136.85 51.0862 136.743 50.9582C136.296 50.4733 136.002 49.8688 135.9 49.2201C135.817 49.7229 135.85 50.2376 135.996 50.7261C136.142 51.2146 136.397 51.6643 136.743 52.0418C136.849 52.1704 136.988 52.2683 137.146 52.3252C137.308 52.3562 137.473 52.3642 137.636 52.3491C138.28 52.3491 138.832 52.7861 139.322 53.2012C139.812 53.6163 140.33 54.0613 140.984 54.1112C141.637 54.1611 142.341 53.5784 142.147 52.9697C142.105 52.8438 142.037 52.7278 141.948 52.6285Z" fill="black"/>
<path opacity="0.05" d="M125.403 47.3442C125.491 47.0521 125.508 46.7438 125.452 46.4442C125.361 46.0032 125.095 45.62 124.899 45.2149C124.859 45.1325 124.823 45.0486 124.79 44.9635C124.79 44.9755 124.776 44.9874 124.77 45.0014C124.569 45.4005 124.702 45.8934 124.899 46.2985C125.092 46.6351 125.26 46.9845 125.403 47.3442Z" fill="black"/>
<path opacity="0.05" d="M129.808 49.3677C129.774 49.5453 129.733 49.7209 129.701 49.8985C129.594 50.4971 129.588 51.0958 129.475 51.6945C129.362 52.2931 129.122 52.8918 128.652 53.2669C127.969 53.8237 126.987 53.7978 126.105 53.706C125.555 53.6501 124.932 53.5344 124.635 53.0714C124.528 52.8998 124.478 52.7002 124.377 52.5246C124.175 52.1574 123.758 51.926 123.55 51.5628C123.536 51.5388 123.524 51.5109 123.512 51.4849C123.435 51.6705 123.398 51.8702 123.405 52.0707C123.412 52.2712 123.461 52.4681 123.55 52.6483C123.752 53.0175 124.167 53.247 124.377 53.6102C124.478 53.7838 124.528 53.9853 124.635 54.155C124.932 54.6199 125.555 54.7337 126.105 54.7895C126.987 54.8813 127.969 54.9093 128.652 54.3505C129.122 53.9674 129.36 53.3707 129.475 52.778C129.59 52.1854 129.594 51.5807 129.701 50.9821C129.778 50.555 129.903 50.128 129.866 49.6969C129.856 49.5858 129.837 49.4756 129.808 49.3677Z" fill="black"/>
<path d="M122.292 56.9508C122.292 56.9508 121.284 57.4936 120.649 62.5263C120.014 67.5591 119.709 72.9032 119.709 72.9032C119.709 72.9032 119.709 77.3951 124.013 77.5488C124.013 77.5488 125.735 77.8601 126.283 78.2472C126.832 78.6343 135.439 76.0002 131.369 75.4535C127.3 74.9067 125.813 75.1422 125.813 75.1422C125.813 75.1422 123.621 73.7453 123.621 72.4322C123.621 71.1191 125.813 63.3086 125.813 63.3086L122.292 56.9508Z" fill="#FBB3B2"/>
<path d="M122.279 60.8979C122.387 61.1614 122.444 61.4427 122.535 61.7141C122.781 62.3357 123.121 62.9169 123.543 63.4383C124.055 64.1447 124.878 65.809 125.388 66.5154C125.694 65.4786 126.142 64.4882 126.719 63.572L122.299 56.4878C122.299 56.4878 121.952 56.6714 121.538 57.8248C121.516 58.0343 121.504 58.2439 121.502 58.4494C121.474 58.9178 121.543 59.3869 121.704 59.8283C121.865 60.2015 122.123 60.5248 122.279 60.8979Z" fill="#3F3D56"/>
<path d="M137.435 46.546C137.435 46.4984 137.42 46.4519 137.392 46.413C137.364 46.374 137.325 46.3445 137.279 46.3285V46.0671C137.325 46.0513 137.364 46.0219 137.392 45.9829C137.42 45.9439 137.435 45.8973 137.435 45.8496C137.435 45.8065 137.424 45.7642 137.402 45.7272C137.38 45.6902 137.347 45.6599 137.309 45.6398C137.271 45.6197 137.227 45.6105 137.184 45.6133C137.14 45.616 137.099 45.6305 137.063 45.6553C137.028 45.68 137 45.714 136.982 45.7535C136.965 45.793 136.959 45.8365 136.965 45.8791C136.971 45.9217 136.989 45.9618 137.017 45.995C137.045 46.0281 137.081 46.0531 137.122 46.0671V46.3285C137.076 46.3443 137.037 46.3739 137.009 46.413C136.981 46.4522 136.965 46.499 136.965 46.547C136.965 46.595 136.981 46.6418 137.009 46.681C137.037 46.7201 137.076 46.7497 137.122 46.7655V47.0249C137.076 47.0408 137.037 47.0703 137.009 47.1095C136.981 47.1486 136.965 47.1955 136.965 47.2435C136.965 47.2915 136.981 47.3383 137.009 47.3774C137.037 47.4166 137.076 47.4461 137.122 47.462V47.7234C137.07 47.7417 137.027 47.7776 136.999 47.8247C136.971 47.8718 136.961 47.9271 136.97 47.9809C136.98 48.0346 137.008 48.0834 137.05 48.1185C137.092 48.1536 137.146 48.1729 137.201 48.1729C137.256 48.1729 137.309 48.1536 137.351 48.1185C137.394 48.0834 137.422 48.0346 137.431 47.9809C137.441 47.9271 137.431 47.8718 137.403 47.8247C137.375 47.7776 137.331 47.7417 137.279 47.7234V47.462C137.325 47.4461 137.365 47.4166 137.393 47.3774C137.421 47.3383 137.436 47.2915 137.436 47.2435C137.436 47.1955 137.421 47.1486 137.393 47.1095C137.365 47.0703 137.325 47.0408 137.279 47.0249V46.7655C137.325 46.7494 137.365 46.7196 137.392 46.6803C137.42 46.6409 137.435 46.594 137.435 46.546Z" fill="#EEEFF3"/>
<path d="M144.986 53.8536C146.189 55.8455 147.06 58.0157 147.567 60.2813C148.35 63.9211 148.898 64.6954 148.898 64.6954C148.898 64.6954 152.343 73.3681 148.507 73.9108C144.671 74.4536 137.944 73.9108 137.944 73.9108C137.944 73.9108 124.327 76.2337 129.101 73.1366C133.874 70.0395 137.635 70.4246 137.635 70.4246C137.635 70.4246 143.348 70.271 144.131 69.7282L145.617 69.5745L142.096 59.6627L144.986 53.8536Z" fill="#FBB3B2"/>
<path d="M141.35 59.545L142.991 63.3365C144.1 61.1235 145.377 58.4115 145.613 55.953C145.635 55.4979 145.625 55.0418 145.583 54.5881C145.402 54.2179 145.165 53.8779 144.879 53.5803L141.35 59.545Z" fill="#3F3D56"/>
<path d="M87.7184 103.219C87.7184 103.219 83.7597 111.373 86.5084 114.251C89.2571 117.128 91.1144 102.9 91.1144 102.9L87.7184 103.219Z" fill="#A0616A"/>
<path d="M68.5711 141.35L64.1344 146.866C64.1344 146.866 55.1664 150.384 63.4064 150.857C63.4064 150.857 67.4397 150.538 68.2464 149.977C69.053 149.416 69.5391 148.299 71.1544 148.939C72.7697 149.58 74.6291 148.299 74.6291 148.299C74.6291 148.299 74.8711 142.063 73.2557 141.344C71.6404 140.626 68.5711 141.35 68.5711 141.35Z" fill="#36344A"/>
<path d="M85.1319 143.348L84.0812 147.906C84.0812 147.906 81.7379 153.341 85.1319 152.541C88.5259 151.741 90.2219 150.863 90.5446 149.264C90.8673 147.666 91.7546 145.906 91.7546 145.906C91.7546 145.906 90.7846 143.428 89.8973 143.348C89.0099 143.268 85.1319 143.348 85.1319 143.348Z" fill="#36344A"/>
<path d="M63.4806 88.2648C63.4806 88.2648 60.5726 108.021 62.5933 118.797C64.614 129.573 67.0299 140.622 67.0299 140.622C67.0299 140.622 64.2066 147.008 73.8865 142.781C73.8865 142.781 73.2412 126.95 71.3012 120.796C69.3612 114.642 72.2974 106.332 73.1041 106.093C73.1041 106.093 76.3307 122.163 79.4868 127.445C82.6428 132.727 84.3973 145.028 84.3973 145.028C84.3973 145.028 91.1854 145.906 91.1047 144.148C91.024 142.39 89.812 127.519 85.8614 122.243C85.8614 122.243 82.4674 113.449 84.6514 104.335C86.8355 95.2213 82.3081 92.1022 82.3081 92.1022L75.1207 83.709L67.9314 82.1125L63.4806 88.2648Z" fill="#3F3D56"/>
<path d="M84.7994 54.2289C84.7237 54.4891 84.6015 54.7337 84.4385 54.9512C84.2698 55.1303 84.0705 55.2782 83.8496 55.3883C83.1397 55.7846 82.3885 56.1038 81.6091 56.3401C81.4074 56.7393 81.7341 57.1883 82.0447 57.5115L82.9562 58.4654C83.4886 59.0202 84.021 59.5749 84.5958 60.0858C85.7071 61.0725 86.9681 61.8806 88.3326 62.4804C89.0465 62.7937 89.9681 63.0172 90.5408 62.4924C91.1136 61.9676 90.9704 61.0456 91.3173 60.3612C91.361 60.3204 91.3947 60.2701 91.4155 60.2143C91.4364 60.1585 91.4438 60.0986 91.4374 60.0395C91.431 59.9803 91.4107 59.9234 91.3783 59.8733C91.346 59.8232 91.3023 59.7811 91.2507 59.7505C90.7828 59.2935 90.6881 58.5712 90.7869 57.9286C90.8857 57.286 91.1499 56.6794 91.3011 56.0468C91.4524 55.4142 91.4806 54.7078 91.1398 54.151C90.9393 53.8549 90.6799 53.6023 90.3775 53.4087C89.7154 52.9439 88.9772 52.5955 88.1955 52.379C87.7921 52.2692 87.3888 52.1954 86.9855 52.0777C86.7354 52.0018 86.0578 51.5389 85.8441 51.5768C85.4044 51.6486 84.9547 53.7639 84.7994 54.2289Z" fill="#A0616A"/>
<path opacity="0.1" d="M84.7994 54.2289C84.7237 54.4891 84.6015 54.7337 84.4385 54.9512C84.2698 55.1303 84.0705 55.2782 83.8496 55.3883C83.1397 55.7846 82.3885 56.1038 81.6091 56.3401C81.4074 56.7393 81.7341 57.1883 82.0447 57.5115L82.9562 58.4654C83.4886 59.0202 84.021 59.5749 84.5958 60.0858C85.7071 61.0725 86.9681 61.8806 88.3326 62.4804C89.0465 62.7937 89.9681 63.0172 90.5408 62.4924C91.1136 61.9676 90.9704 61.0456 91.3173 60.3612C91.361 60.3204 91.3947 60.2701 91.4155 60.2143C91.4364 60.1585 91.4438 60.0986 91.4374 60.0395C91.431 59.9803 91.4107 59.9234 91.3783 59.8733C91.346 59.8232 91.3023 59.7811 91.2507 59.7505C90.7828 59.2935 90.6881 58.5712 90.7869 57.9286C90.8857 57.286 91.1499 56.6794 91.3011 56.0468C91.4524 55.4142 91.4806 54.7078 91.1398 54.151C90.9393 53.8549 90.6799 53.6023 90.3775 53.4087C89.7154 52.9439 88.9772 52.5955 88.1955 52.379C87.7921 52.2692 87.3888 52.1954 86.9855 52.0777C86.7354 52.0018 86.0578 51.5389 85.8441 51.5768C85.4044 51.6486 84.9547 53.7639 84.7994 54.2289Z" fill="black"/>
<path d="M83.8955 55.6637C83.8854 55.506 83.8672 55.3224 83.7321 55.2366C83.6534 55.1937 83.5635 55.175 83.474 55.1827C81.5662 55.1827 80.0195 56.6674 78.8196 58.1321C76.2907 61.2153 74.2962 64.6955 72.5679 68.2815C71.5052 70.4905 70.519 72.975 71.2027 75.3277C71.4188 76.0255 71.7404 76.6868 72.1565 77.2894C72.7297 78.1504 73.4252 78.9253 74.2216 79.5902C74.5204 79.8746 74.8909 80.0745 75.2945 80.1689C75.8994 80.2647 76.4742 79.9354 76.9905 79.6182C78.027 78.9796 79.0589 78.3344 80.086 77.6825C81.7538 76.6248 83.4216 75.5492 84.8917 74.2362C86.3618 72.9231 87.6384 71.3546 88.3624 69.5307C88.6709 68.7564 88.8766 67.9343 89.2235 67.1839C89.7518 66.0285 90.6049 65.0088 90.9074 63.7755C91.0506 63.1869 91.0627 62.5782 91.2159 61.9895C91.3369 61.5206 91.5467 61.0776 91.6475 60.6046C91.7483 60.1317 91.7241 59.6069 91.4196 59.2197C90.9074 58.5772 89.9112 58.6729 89.1005 58.8386C88.0437 59.0541 86.1602 59.5849 85.1539 58.9523C84.2928 58.4075 83.956 56.5896 83.8955 55.6637Z" fill="#EEEFF3"/>
<path d="M83.356 59.4851L82.2246 59.5649L81.418 59.2437L82.0653 57.3259C82.0653 57.3259 84.3441 57.5814 84.5781 58.2918C84.5781 58.2918 84.7475 58.7807 85.0217 58.8525C85.296 58.9244 86.4334 58.7647 86.6693 59.3235C86.9053 59.8822 86.8307 62.9155 85.296 62.5164L84.57 60.5966L84.2453 60.1177C84.2453 60.1177 83.2753 59.964 83.356 59.4851Z" fill="#3F3D56"/>
<path d="M74.0647 77.3133C74.0647 77.3133 76.5694 61.0038 84.4061 55.1628C84.4061 55.1628 84.4868 53.6442 83.1134 53.8038C81.7401 53.9635 76.0047 52.844 76.0047 52.844L70.5921 63.2388C70.5921 63.2388 69.3821 72.9112 68.4907 74.5096C67.5993 76.108 62.0273 88.8216 62.0273 88.8216C62.0273 88.8216 65.1794 99.2942 69.864 85.2296C69.864 85.2296 66.2341 96.6621 76.4887 97.7816C86.7434 98.9011 85.5375 97.141 85.5375 97.141L86.7474 88.8276V82.5895L89.0101 78.1993L98.2202 66.6072C98.2202 66.6072 91.9686 58.0424 90.7747 58.8067C90.7767 58.7987 83.0328 70.9176 74.0647 77.3133Z" fill="#3F3D56"/>
<path d="M77.2147 53.4885L76.0047 52.8479C76.0047 52.8479 72.288 54.2069 70.9954 59.4851C70.9954 59.4851 67.8454 61.7221 65.7521 63.4023C65.7521 63.4023 62.9288 58.2139 62.9288 56.4459C62.9288 56.4459 58.2421 59.5649 57.1914 58.7647C57.1914 58.7647 60.0147 71.6359 65.3528 70.6761C70.6909 69.7162 72.6994 66.5992 72.6994 66.5992L77.2147 53.4885Z" fill="#3F3D56"/>
<path d="M95.1532 67.0802L98.2225 66.5992C98.2225 66.5992 100.163 69.1575 96.6879 72.9151L94.5865 85.6267C94.5865 85.6267 94.8285 89.8633 94.1025 93.0621C93.3765 96.261 92.2432 106.093 92.2432 106.093C92.2432 106.093 88.5285 104.734 86.5078 104.974L89.5772 75.4814L95.1532 67.0802Z" fill="#3F3D56"/>
<path d="M62.7554 57.322C62.7554 57.322 61.0573 47.2485 58.1493 51.0061C55.2413 54.7637 58.472 59.9601 58.472 59.9601L62.7554 57.322Z" fill="#A0616A"/>
<path d="M90.9913 57.8467C94.6055 57.8467 97.5353 54.9475 97.5353 51.3712C97.5353 47.7948 94.6055 44.8956 90.9913 44.8956C87.3771 44.8956 84.4473 47.7948 84.4473 51.3712C84.4473 54.9475 87.3771 57.8467 90.9913 57.8467Z" fill="#A0616A"/>
<path d="M96.2213 44.3849C96.0718 44.2006 95.937 44.0051 95.818 43.8002C95.4247 43.2294 94.8097 42.8563 94.2047 42.521C93.0975 41.9224 91.8351 41.3596 90.6029 41.651C89.7499 41.8505 89.0259 42.4492 88.1668 42.6208C87.3077 42.7924 86.2873 42.6028 85.7085 43.2414C85.1297 43.88 85.3858 44.8857 84.8877 45.5463C84.6114 45.9115 84.0992 46.2467 84.2384 46.6817C84.2968 46.8653 84.4683 46.995 84.5469 47.1726C84.6861 47.4839 84.5146 47.8411 84.5066 48.1824C84.4965 48.6873 84.8454 49.1203 85.0914 49.5633C85.3374 50.0063 85.4705 50.6249 85.0914 50.9722C86.3748 49.9564 87.7811 49.1031 89.278 48.4318C89.2758 48.6367 89.2217 48.8377 89.1207 49.0165C89.9312 48.8984 90.7334 48.7297 91.5225 48.5117L91.1071 49.2999L92.8898 48.5296C93.3718 48.3201 93.9768 48.1305 94.3882 48.4498C94.5777 48.6287 94.7108 48.8581 94.7713 49.1103C95.0063 49.8311 95.146 50.579 95.1868 51.3353C95.2311 52.1894 95.1868 53.1313 95.7454 53.7839C95.9036 53.9492 96.0945 54.0806 96.3062 54.1699C96.5179 54.2592 96.7459 54.3045 96.976 54.303C97.2061 54.3015 97.4335 54.2532 97.644 54.1612C97.8545 54.0691 98.0436 53.9353 98.1996 53.7679C98.3569 53.1692 98.121 52.5506 98.1089 51.936C98.0907 51.04 98.5465 50.1979 98.6292 49.3059C98.7361 48.1784 98.0625 47.5099 97.756 46.5121C97.637 46.129 97.7096 45.676 97.4817 45.3148C97.1873 44.8678 96.5863 44.768 96.2213 44.3849Z" fill="#3F3D56"/>
<path d="M58.1911 62.648L60.5244 58.7707L58.6207 57.6492C59.0724 57.1264 60.6373 55.2985 61.0548 54.4444C61.0548 54.4444 63.3779 52.5765 63.8519 50.1579C63.8519 50.1579 64.481 50.7446 65.0417 49.9943C65.6023 49.244 67.9255 47.919 66.0883 46.0811L66.2355 45.3367C66.5348 45.1774 66.7828 44.9382 66.9514 44.6463C67.3548 43.9857 67.3084 43.2494 66.8647 42.978C66.4211 42.7066 65.7374 43.0379 65.3401 43.6984C65.1421 44.0119 65.0489 44.3792 65.0739 44.748L64.5436 45.3866C64.5436 45.3866 62.6237 43.5008 61.3371 47.8132C61.3371 47.8132 61.1959 48.5934 61.5993 48.8309C61.5993 48.8309 59.631 51.5548 59.4112 52.822C59.4112 52.822 57.7172 55.2765 57.7031 56.0149L57.2231 56.8131L55.2065 55.6277L52.8349 59.5729C51.6632 59.1997 50.788 59.1738 50.546 59.5729C50.1225 60.2773 51.7963 62.0374 54.2869 63.5041C56.7774 64.9709 59.1369 65.5875 59.5604 64.885C59.8327 64.452 59.266 63.5899 58.1911 62.648Z" fill="#0D5FAA"/>
<path opacity="0.1" d="M66.2077 44.1514C66.0392 44.4433 65.7921 44.683 65.4938 44.8438L65.3446 45.5862C67.1837 47.4241 64.8585 48.7511 64.2979 49.5014C64.2402 49.6007 64.1602 49.6855 64.0642 49.7495C63.9682 49.8135 63.8587 49.8548 63.7441 49.8704C63.6294 49.886 63.5127 49.8755 63.4028 49.8395C63.2929 49.8036 63.1928 49.7432 63.1101 49.6631C62.6362 52.0817 60.313 53.9495 60.313 53.9495C59.8915 54.8056 58.3306 56.6335 57.8789 57.1543L58.6029 57.5814C59.0546 57.0605 60.6195 55.2306 61.037 54.3765C61.037 54.3765 63.3602 52.5087 63.8341 50.0901C63.8341 50.0901 64.4633 50.6768 65.0239 49.9265C65.5845 49.1762 67.9077 47.8511 66.0706 46.0132L66.2178 45.2689C66.5163 45.1093 66.7636 44.8701 66.9317 44.5784C67.335 43.9199 67.2906 43.1816 66.847 42.9102C66.7138 42.8348 66.5594 42.8047 66.4073 42.8244C66.4753 43.0464 66.4927 43.2806 66.4581 43.5101C66.4236 43.7395 66.3381 43.9586 66.2077 44.1514Z" fill="black"/>
<path opacity="0.1" d="M58.179 62.5842L60.5123 58.7068L59.7923 58.2798L57.4591 62.1571C58.534 63.101 59.0986 63.9531 58.8324 64.4041C58.4291 65.0726 56.2733 64.5458 53.9219 63.2327C54.0409 63.3046 54.1598 63.3784 54.2829 63.4502C56.7714 64.917 59.1329 65.5356 59.5564 64.8311C59.8125 64.3881 59.2478 63.5261 58.179 62.5842Z" fill="black"/>
<path d="M115.841 95.7851L116.689 94.9549C120.61 95.0812 120.67 94.9456 120.843 94.5482L121.92 91.9621L122 91.7169L121.912 91.5024C121.866 91.3891 121.724 91.0511 119.276 88.7492V87.5383C122.101 84.8547 122.04 84.7173 121.879 84.3245L120.807 81.7114C120.646 81.3196 120.585 81.1663 116.692 81.2713L115.844 80.4077C115.932 79.1356 115.887 77.8581 115.711 76.5949L115.602 76.3507L112.802 75.1435C112.389 74.9578 112.244 74.891 109.6 77.7306L108.411 77.7129C105.689 74.8473 105.56 74.8993 105.152 75.0618L102.548 76.1C102.141 76.2625 101.997 76.3201 102.155 80.2201L101.314 81.0466C97.3946 80.9203 97.3344 81.0577 97.1639 81.4533L96.0848 84.0403L96 84.2883L96.0885 84.5037C96.1347 84.6151 96.2712 84.9494 98.7252 87.2542V88.4613C95.9002 91.1449 95.9614 91.2824 96.1234 91.6761L97.195 94.2919C97.3589 94.6921 97.4172 94.8342 101.309 94.7339L102.157 95.6021C102.069 96.8722 102.112 98.1479 102.286 99.4093L102.395 99.6554L105.213 100.87C105.623 101.039 105.765 101.099 108.402 98.27L109.59 98.2848C112.317 101.154 112.456 101.098 112.854 100.94L115.452 99.9043C115.863 99.7436 116.006 99.687 115.841 95.7851ZM104.675 89.727C104.346 88.8802 104.279 87.9565 104.48 87.0719C104.682 86.1873 105.144 85.3812 105.809 84.7547C106.474 84.1281 107.311 83.7091 108.216 83.5502C109.122 83.3913 110.054 83.4996 110.897 83.8615C111.741 84.2233 112.457 84.8227 112.955 85.5843C113.454 86.3459 113.714 87.2358 113.702 88.1424C113.69 89.049 113.407 89.932 112.888 90.6804C112.369 91.4288 111.637 92.0094 110.784 92.3493C109.621 92.7978 108.326 92.7736 107.181 92.2822C106.035 91.7907 105.135 90.872 104.675 89.727Z" fill="#0D5FAA"/>
</g>
<defs>
<clipPath id="clip0_2568_5434">
<rect width="218" height="153" fill="white"/>
</clipPath>
</defs>
</svg>
