<svg width="63" height="44" viewBox="0 0 63 44" fill="none" xmlns="http://www.w3.org/2000/svg">
<path d="M60.5802 0.126953H2.44869C1.54195 0.126953 0.806885 0.994246 0.806885 2.06411V41.9376C0.806885 43.0074 1.54195 43.8747 2.44869 43.8747H60.5802C61.4869 43.8747 62.222 43.0074 62.222 41.9376V2.06411C62.222 0.994246 61.4869 0.126953 60.5802 0.126953Z" fill="#D9DADB"/>
<path d="M2.35211 43.8839H60.6478C60.8831 43.8747 61.1139 43.8044 61.3235 43.6779C61.5332 43.5515 61.7166 43.372 61.8608 43.1523C62.0766 42.8017 62.1941 42.3801 62.1969 41.9468C62.2046 37.1836 62.213 32.4205 62.222 27.6574L31.5106 7.85742L0.806885 27.6483V41.9376C0.808687 42.4111 0.94927 42.8693 1.20478 43.2344C1.34654 43.4318 1.52201 43.5917 1.71971 43.7036C1.91742 43.8155 2.13291 43.877 2.35211 43.8839Z" fill="#EBECED"/>
<path d="M0.806885 7.57018L31.5009 35.1963L62.2297 7.57018L62.2046 2.45609C62.2021 1.82402 62.019 1.21139 61.685 0.717215C61.558 0.53702 61.3996 0.391084 61.2207 0.289257C61.0418 0.187431 60.8464 0.132084 60.6478 0.126953L2.35211 0.126953C2.1191 0.140489 1.89225 0.219784 1.69059 0.358182C1.48893 0.496581 1.31836 0.690042 1.19319 0.922325C0.941069 1.37855 0.806849 1.91145 0.806885 2.45609L0.806885 7.57018Z" fill="white"/>
</svg>
