<svg width="178" height="137" viewBox="0 0 178 137" fill="none" xmlns="http://www.w3.org/2000/svg">
<path d="M136.845 136.016H101.383L101.376 135.818L99.6826 87.4391H138.544L136.845 136.016ZM101.78 135.605H136.447L138.118 87.8505H100.109L101.78 135.605Z" fill="#2F2E41"/>
<path d="M101.624 135.531L100.167 87.9249H138.057L136.6 135.531H101.624Z" fill="#2F2E41" stroke="#2F2E41"/>
<path d="M109.362 96.7643H106.664V130.156H109.362V96.7643Z" fill="white"/>
<path d="M119.987 96.7643H117.289V130.156H119.987V96.7643Z" fill="white"/>
<path d="M130.611 96.7643H127.913V130.156H130.611V96.7643Z" fill="white"/>
<path d="M160.912 102.012L160.736 101.902L116.198 74.0563L120.062 68.0082L120.238 68.1182L164.776 95.964L160.912 102.012ZM116.773 73.9282L160.783 101.444L164.201 96.0924L120.191 68.5765L116.773 73.9282Z" fill="#2F2E41"/>
<path d="M116.684 73.8375L120.084 68.494L164.289 96.183L160.889 101.527L116.684 73.8375Z" fill="#2F2E41" stroke="#2F2E41"/>
<circle cx="142.916" cy="80.1525" r="6.31505" fill="#2F2E41"/>
<path d="M177.279 136.045H0.394531V136.575H177.279V136.045Z" fill="#ccc"/>
<path d="M41.5102 132.449H37.6479L35.8096 117.552H41.5112L41.5102 132.449Z" fill="#FEB8B8"/>
<path d="M30.2012 136.034H42.3394V131.345H34.8259C33.5993 131.345 32.423 131.832 31.5557 132.699C30.6884 133.567 30.2012 134.743 30.2012 135.969V136.034Z" fill="#2F2E41"/>
<path d="M40.1533 109.365L42.8175 112.161L54.8711 103.217L50.9393 99.0897L40.1533 109.365Z" fill="#FEB8B8"/>
<path d="M45.563 113.442L40.3787 108.003L36.9834 111.239L45.3588 120.027L45.4058 119.982C45.8455 119.563 46.1984 119.061 46.4442 118.506C46.6901 117.95 46.8242 117.352 46.8388 116.745C46.8534 116.137 46.7482 115.533 46.5293 114.967C46.3104 114.4 45.9821 113.882 45.563 113.442V113.442Z" fill="#2F2E41"/>
<path d="M13.2713 68.5519C13.0269 68.1586 12.8716 67.7165 12.8165 67.2568C12.7613 66.7971 12.8076 66.3308 12.9521 65.8909C13.0966 65.451 13.3358 65.0481 13.6528 64.7106C13.9698 64.3731 14.3569 64.1092 14.7869 63.9375L29.9505 25.2915L35.8611 28.8305L19.0165 65.9047C19.2572 66.6464 19.2174 67.4507 18.9047 68.165C18.592 68.8794 18.0281 69.4542 17.3199 69.7805C16.6117 70.1069 15.8083 70.162 15.0621 69.9356C14.3159 69.7091 13.6787 69.2168 13.2713 68.5519Z" fill="#FEB8B8"/>
<path d="M70.8272 71.3217C70.3652 71.2887 69.9161 71.1548 69.5114 70.9293C69.1068 70.7039 68.7565 70.3924 68.4853 70.017C68.214 69.6415 68.0284 69.2111 67.9416 68.7561C67.8547 68.3011 67.8687 67.8326 67.9825 67.3836L45.6123 32.4127L51.9481 29.7077L72.0593 65.1172C72.802 65.3573 73.4307 65.8618 73.826 66.5348C74.2213 67.2078 74.3557 68.0025 74.2037 68.7681C74.0517 69.5337 73.6239 70.2168 73.0014 70.6877C72.379 71.1587 71.6053 71.3847 70.8272 71.3228V71.3217Z" fill="#FEB8B8"/>
<path d="M30.0996 64.6821L34.0592 123.532L43.5219 122.697L45.47 79.2792L50.758 97.9261L62.1688 98.7609L57.6522 61.8989L30.0996 64.6821Z" fill="#2F2E41"/>
<path d="M52.428 95.1432L50.7572 97.9264L39.0693 105.997L47.4187 110.45C47.4187 110.45 63.5608 101.544 62.1693 98.7612L52.428 95.1432Z" fill="#2F2E41"/>
<path d="M21.8135 40.8719L25.1075 31.5901C25.8403 29.5248 26.9755 27.6255 28.4472 26.0018C29.919 24.3782 31.6981 23.0626 33.6817 22.1311C38.1401 20.4886 42.9891 20.2232 47.6002 21.3692L48.7989 21.6668C51.9953 22.4415 54.9901 23.8879 57.5842 25.9099C59.614 27.5101 61.4401 29.5361 61.6027 31.7155C61.6035 31.7201 61.6049 31.7247 61.6067 31.729C62.1689 34.1932 62.4471 46.9955 62.4471 46.9955H57.4879L58.2724 64.2509L58.209 64.126C58.209 64.126 29.6062 69.5388 29.6062 66.7556V48.9431L29.0199 42.4935L21.8135 40.8719Z" fill="#0D5FAA"/>
<path d="M48.5114 18.9565C52.889 18.9565 56.4378 15.4077 56.4378 11.0301C56.4378 6.65247 52.889 3.1037 48.5114 3.1037C44.1337 3.1037 40.585 6.65247 40.585 11.0301C40.585 15.4077 44.1337 18.9565 48.5114 18.9565Z" fill="#FEB8B8"/>
<path d="M49.6993 7.47545L55.8539 7.72208C56.6283 7.71969 57.4737 7.69238 58.0635 7.19169C58.9519 6.43615 58.8031 5.01047 58.3274 3.94545C57.0014 0.980044 54.0437 -0.0823231 50.7959 0.00492583C47.548 0.0921748 44.1448 1.19299 42.3958 3.9298C40.6469 6.6666 40.1743 10.1226 40.833 13.3028C41.5946 11.6857 42.767 10.2967 44.2332 9.27432C45.6994 8.25196 47.4081 7.63207 49.1888 7.47651L49.6993 7.47545Z" fill="#2F2E41"/>
<path d="M86.2444 85.0067L63.9676 69.3939C63.7606 69.2483 63.6198 69.0266 63.576 68.7773C63.5321 68.5281 63.5889 68.2716 63.7337 68.0641L81.2183 43.1165C81.364 42.9095 81.5857 42.7687 81.835 42.7249C82.0842 42.681 82.3407 42.7377 82.5482 42.8826L104.825 58.4953C105.032 58.641 105.173 58.8627 105.217 59.112C105.26 59.3612 105.204 59.6177 105.059 59.8252L87.5747 84.7722C87.4292 84.9794 87.2074 85.1204 86.958 85.1644C86.7086 85.2083 86.452 85.1516 86.2444 85.0067Z" fill="#0D5FAA"/>
<path d="M91.2535 68.0658L78.1819 58.9045C78.0308 58.7985 77.9019 58.6638 77.8028 58.5081C77.7037 58.3524 77.6362 58.1787 77.6043 57.9968C77.5723 57.815 77.5764 57.6287 77.6165 57.4485C77.6565 57.2683 77.7316 57.0977 77.8376 56.9466C77.9435 56.7954 78.0782 56.6666 78.2339 56.5675C78.3897 56.4684 78.5634 56.4009 78.7452 56.3689C78.927 56.3369 79.1133 56.3411 79.2935 56.3811C79.4737 56.4211 79.6443 56.4963 79.7955 56.6022L92.8671 65.7635C93.1724 65.9775 93.3802 66.304 93.4448 66.6712C93.5093 67.0383 93.4254 67.4161 93.2114 67.7214C92.9975 68.0267 92.671 68.2345 92.3038 68.2991C91.9366 68.3637 91.5588 68.2798 91.2535 68.0658Z" fill="white"/>
<path d="M88.2536 72.3463L75.1819 63.185C75.0306 63.0791 74.9016 62.9444 74.8023 62.7887C74.7031 62.6329 74.6355 62.4591 74.6034 62.2772C74.5713 62.0953 74.5754 61.9089 74.6154 61.7286C74.6554 61.5483 74.7306 61.3776 74.8366 61.2264C74.9426 61.0751 75.0774 60.9462 75.2332 60.8471C75.389 60.748 75.5629 60.6805 75.7448 60.6486C75.9267 60.6167 76.1132 60.6209 76.2935 60.6611C76.4737 60.7013 76.6443 60.7766 76.7955 60.8827L89.8671 70.044C90.172 70.2581 90.3795 70.5845 90.4439 70.9515C90.5083 71.3185 90.4243 71.6961 90.2105 72.0012C89.9966 72.3063 89.6704 72.5141 89.3034 72.5788C88.9365 72.6435 88.5589 72.5598 88.2536 72.3463Z" fill="white"/>
<path d="M85.2213 76.6728L72.1497 67.5115C71.9985 67.4055 71.8697 67.2708 71.7706 67.1151C71.6715 66.9594 71.604 66.7857 71.572 66.6038C71.5401 66.422 71.5442 66.2357 71.5842 66.0555C71.6243 65.8753 71.6994 65.7047 71.8053 65.5536C71.9113 65.4024 72.046 65.2736 72.2017 65.1745C72.3574 65.0754 72.5312 65.0079 72.713 64.9759C72.8948 64.9439 73.0811 64.9481 73.2613 64.9881C73.4415 65.0281 73.6121 65.1033 73.7633 65.2092L86.8349 74.3705C87.1402 74.5845 87.348 74.911 87.4125 75.2782C87.4771 75.6453 87.3932 76.0231 87.1792 76.3284C86.9652 76.6337 86.6388 76.8415 86.2716 76.9061C85.9044 76.9707 85.5266 76.8868 85.2213 76.6728V76.6728Z" fill="white"/>
<path d="M91.2166 59.5981L86.1536 56.0497C86.0023 55.9438 85.8733 55.8091 85.774 55.6534C85.6747 55.4976 85.6071 55.3238 85.5751 55.1419C85.543 54.96 85.5471 54.7736 85.5871 54.5933C85.6271 54.413 85.7023 54.2423 85.8083 54.0911C85.9143 53.9398 86.0491 53.8109 86.2049 53.7118C86.3607 53.6126 86.5346 53.5452 86.7165 53.5133C86.8984 53.4814 87.0849 53.4856 87.2651 53.5258C87.4454 53.566 87.616 53.6413 87.7672 53.7474L92.8302 57.2958C93.1355 57.5098 93.3433 57.8363 93.4079 58.2035C93.4724 58.5706 93.3885 58.9484 93.1745 59.2537C92.9606 59.559 92.6341 59.7668 92.2669 59.8314C91.8997 59.896 91.5219 59.8121 91.2166 59.5981Z" fill="white"/>
</svg>
