<svg width="171" height="135" viewBox="0 0 171 135" fill="none" xmlns="http://www.w3.org/2000/svg">
<path d="M86.1454 83.3148C114.746 146.264 88.9824 153.617 24.9819 81.6576C8.14237 62.7239 9.16596 31.7446 26.4655 13.3356C43.765 -5.07333 71.1488 -4.33137 87.629 14.9928C104.109 34.3171 75.3323 59.5152 86.1454 83.3148Z" fill="#E7EFF7"/>
<path d="M49.5842 19.0314H31.1328V37.287H49.5842V19.0314Z" fill="#CADFF4"/>
<path d="M59.0611 36.9951H21.6641V39.7555H59.0611V36.9951Z" fill="#3F3D56"/>
<path d="M148.846 99.012H111.449V101.772H148.846V99.012Z" fill="#3F3D56"/>
<path d="M148.847 59.2623H21.6641V62.0227H148.847V59.2623Z" fill="#3F3D56"/>
<path d="M93.1637 20.3413C93.1637 27.1021 90.5579 27.3121 86.3128 27.3121C82.0678 27.3121 77.791 27.1021 77.791 20.3413C77.791 13.5806 81.2323 8.09998 85.4774 8.09998C89.7224 8.09998 93.1637 13.5806 93.1637 20.3413Z" fill="#2F2E41"/>
<path d="M82.6191 20.6167C82.6191 20.6167 84.4313 29.0819 83.7724 30.0021C83.1134 30.9222 89.3737 32.9465 89.3737 32.9465L92.0096 24.8493L90.5269 24.6653C90.5269 24.6653 88.3852 24.1132 89.0442 19.5126C89.7032 14.9119 82.6191 20.6167 82.6191 20.6167Z" fill="#FFB9B9"/>
<path opacity="0.1" d="M82.6191 20.6167C82.6191 20.6167 84.4313 29.0819 83.7724 30.0021C83.1134 30.9222 89.3737 32.9465 89.3737 32.9465L92.0096 24.8493L90.5269 24.6653C90.5269 24.6653 88.3852 24.1132 89.0442 19.5126C89.7032 14.9119 82.6191 20.6167 82.6191 20.6167Z" fill="black"/>
<path d="M85.5026 23.0091C88.4597 23.0091 90.8568 20.3313 90.8568 17.0282C90.8568 13.7251 88.4597 11.0474 85.5026 11.0474C82.5456 11.0474 80.1484 13.7251 80.1484 17.0282C80.1484 20.3313 82.5456 23.0091 85.5026 23.0091Z" fill="#FFB9B9"/>
<path d="M80.2313 50.7051L76.4422 54.3856C76.4422 54.3856 64.91 59.1703 67.546 66.5314C70.1819 73.8924 75.1242 84.75 75.1242 84.75L76.4422 88.2465H79.7371L81.8787 87.1423L81.3845 85.6701C81.3845 85.6701 80.2313 83.6458 80.2313 82.5417C80.2313 81.4375 78.2544 68.7397 76.9364 67.8196C76.9364 67.8196 83.5262 60.6425 88.3038 60.2745C93.0814 59.9064 94.3993 58.6182 97.0353 60.2745C99.6712 61.9307 110.05 65.0592 110.05 65.0592C110.05 65.0592 115.651 76.4688 118.452 78.4931C121.253 80.5174 123.559 87.3263 123.559 87.3263L128.172 86.4062L125.866 81.0695C125.866 81.0695 123.559 77.2049 123.559 75.5487C123.559 73.8924 115.981 57.8821 110.544 55.3058C105.108 52.7294 102.472 50.3606 102.472 50.3606L90.4455 51.2572L80.2313 50.7051Z" fill="#2F2E41"/>
<path d="M76.4413 85.67C76.4413 85.67 75.2881 84.7499 74.4643 86.5901C73.6406 88.4304 71.3342 92.663 71.3342 92.663C71.3342 92.663 64.5797 98.3678 69.6868 99.84C69.6868 99.84 72.1579 100.024 76.4413 96.7116C80.7246 93.3991 83.8548 91.7429 84.0195 91.1908C84.1843 90.6387 83.0311 84.3818 81.8779 84.3818C80.7246 84.3818 81.0541 87.3262 79.7362 87.3262C78.7944 87.3515 77.8568 87.4747 76.9355 87.6943L76.4413 85.67Z" fill="#2F2E41"/>
<path d="M129.675 87.4493C129.527 86.9788 129.296 86.5458 128.997 86.1754C128.698 85.8051 128.336 85.5047 127.932 85.2917C127.528 85.0787 127.091 84.9573 126.644 84.9346C126.198 84.9118 125.752 84.9882 125.333 85.1592C125.08 85.2652 124.909 85.3756 124.876 85.486C124.711 86.0381 123.22 86.3108 123.059 85.9904C122.899 85.6701 121.745 84.7499 122.569 88.2464C123.393 91.7429 125.864 99.288 127.182 100.576C128.5 101.864 133.113 101.68 133.442 100.392C133.772 99.104 133.278 96.7116 132.619 95.7915C131.96 94.8714 130.806 91.9269 130.642 90.8228C130.564 90.3032 130.122 88.8463 129.675 87.4493Z" fill="#2F2E41"/>
<path d="M100.125 61.4717C100.125 61.4717 101.421 67.7125 103.966 66.2461C106.511 64.7797 101.176 58.939 101.176 58.939L100.125 61.4717Z" fill="#FFB9B9"/>
<path d="M85.957 57.9753C85.957 57.9753 87.2533 64.216 89.798 62.7497C92.3427 61.2833 87.008 55.4425 87.008 55.4425L85.957 57.9753Z" fill="#FFB9B9"/>
<path d="M82.2074 48.4968C82.2074 48.4968 81.2189 52.9134 82.5369 54.0175C83.8549 55.1217 85.9965 54.9377 89.6209 56.4099C93.2453 57.8821 99.0113 56.4099 99.1761 54.3856C99.3408 52.3613 98.3524 44.2642 98.3524 44.2642L82.2074 48.4968Z" fill="#0D5FAA"/>
<path d="M98.5175 47.7606C96.6114 48.4158 95.3577 48.4875 94.7564 49.1463C94.6816 49.2264 94.6167 49.3174 94.5637 49.4169C94.0694 50.337 91.9277 50.705 89.1271 49.9689C88.1888 49.6939 87.2132 49.614 86.249 49.7334C85.2918 49.842 84.3281 50.0683 82.5373 49.9689C79.4121 49.7941 77.9178 38.3643 77.2094 35.3021C77.1716 35.1346 77.1353 34.9929 77.1007 34.8788C76.4417 32.6705 79.9014 30.4622 80.3956 29.9101C80.8898 29.358 82.3725 27.1497 83.7366 26.9197C85.0991 26.6896 87.1501 29.9101 87.1501 29.9101C87.1501 29.9101 90.3627 25.5855 90.0332 24.4813C89.7037 23.3772 93.1633 24.1133 93.8223 23.9292C94.1946 23.8243 95.7498 24.2789 97.0332 24.6948C97.5688 24.8676 98.0445 25.2188 98.3969 25.7015C98.7492 26.1842 98.9614 26.7754 99.0052 27.3963C99.0266 27.6963 99.0497 28.022 99.0727 28.3716C99.4813 34.3819 100.153 47.1994 98.5175 47.7606Z" fill="#D0CDE1"/>
<path opacity="0.1" d="M86.2485 49.7334C85.2914 49.842 84.3276 50.0683 82.5368 49.969C79.4116 49.7941 77.9174 38.3643 77.209 35.3021C77.3276 34.3488 77.4297 33.7747 77.4297 33.7747L78.3358 35.1549C78.3358 35.1549 82.7016 43.16 83.8548 45.3683C84.326 46.27 85.293 47.9723 86.2485 49.7334Z" fill="black"/>
<path d="M78.4181 33.0386L76.9354 33.7747C76.9354 33.7747 74.9584 44.8163 78.4181 50.337C81.8777 55.8578 83.1957 56.778 83.8547 57.6981C84.0517 57.9656 84.306 58.1734 84.5939 58.302C84.8819 58.4307 85.1943 58.4761 85.5021 58.4342C85.5021 58.4342 84.8431 60.2745 85.9963 60.2745C87.1496 60.2745 91.4329 58.4342 90.2797 57.8821C89.1265 57.33 87.9733 56.4099 88.3028 55.4898C88.6323 54.5696 84.5136 47.5766 83.3604 45.3683C82.2072 43.16 78.4181 33.0386 78.4181 33.0386Z" fill="#D0CDE1"/>
<path opacity="0.1" d="M98.5179 47.7607C96.6119 48.4158 95.3581 48.4876 94.7568 49.1464C94.6053 47.3282 94.6119 45.6149 94.8936 44.2642C95.9061 39.4167 96.6703 28.92 96.6234 26.3216C96.6178 26.0133 96.6768 26.5056 96.9529 26.5056V26.6897C98.172 26.6897 98.5146 26.2057 98.8573 27.5123C98.9265 27.7736 98.999 28.0607 99.0731 28.3717C99.4817 34.382 100.154 47.1994 98.5179 47.7607Z" fill="black"/>
<path d="M96.3755 25.3094H96.8803C97.4737 25.3092 98.0511 25.5236 98.5262 25.9208C99.0012 26.3179 99.3483 26.8763 99.5153 27.5123C100.145 29.9929 100.637 32.5146 100.988 35.0628C101.977 41.8718 103.13 58.8022 102.965 59.1703C102.801 59.5383 104.942 61.3786 103.954 61.7466C102.965 62.1147 101.153 62.8508 100.329 63.0348C99.5056 63.2188 97.8582 61.3786 97.8582 61.3786C97.8582 61.3786 94.3985 49.7849 95.5518 44.2641C96.705 38.7434 96.3755 25.3094 96.3755 25.3094Z" fill="#D0CDE1"/>
<rect x="109.477" y="24.3356" width="6.30921" height="18.0952" transform="rotate(-90 109.477 24.3356)" fill="#FF203B"/>
<path d="M90.1195 12.7756C90.1195 14.6066 87.8707 16.0909 85.0967 16.0909C82.3227 16.0909 79.7695 17.0719 79.7695 15.2408C79.7695 13.4098 82.3227 9.46021 85.0967 9.46021C87.8707 9.46021 90.1195 10.9445 90.1195 12.7756Z" fill="#2F2E41"/>
<path d="M77.8369 21.4888C77.8369 21.4888 77.6319 27.6521 83.1149 27.3121C88.5979 26.9721 82.3739 22.0438 82.3739 22.0438L77.8369 21.4888Z" fill="#2F2E41"/>
<path d="M101.934 129.492C99.8449 129.656 97.6159 129.744 95.3045 129.744C90.4248 129.744 85.9223 129.35 82.293 128.684L98.1513 120.427L101.934 129.492Z" fill="#0D5FAA"/>
<path d="M92.994 109.999L91.7073 106.222L89.8437 107.013C89.7495 106.403 89.4118 104.284 89.0726 103.523C89.0726 103.523 89.1463 100.828 87.776 99.1891C87.776 99.1891 88.5388 99.0433 88.3529 98.233C88.1671 97.4226 88.6099 95.0182 86.2977 95.3769L85.8767 94.8716C85.9415 94.5679 85.9223 94.259 85.8213 93.9798C85.6055 93.3323 85.0781 92.9725 84.6369 93.1513C84.1958 93.3301 84.0256 94.0063 84.2449 94.6495C84.3435 94.9616 84.5393 95.226 84.8046 95.4049L84.932 96.1335C84.932 96.1335 82.5394 96.527 84.7273 99.7716C84.7273 99.7716 85.1761 100.292 85.5709 100.124C85.5709 100.124 86.2844 103.017 87.0189 103.855C87.0189 103.855 87.7079 106.404 88.2018 106.809L88.4669 107.586L86.4945 108.425L87.8052 112.265C86.8738 112.921 86.3499 113.546 86.4813 113.936C86.7153 114.622 88.8801 114.341 91.3179 113.307C93.7557 112.272 95.5396 110.879 95.307 110.195C95.17 109.764 94.2561 109.717 92.994 109.999Z" fill="#0574BC"/>
<path d="M98.6666 111.983L100.986 108.733L99.2521 107.691C99.6928 107.258 101.22 105.744 101.641 105.025C101.641 105.025 103.877 103.507 104.408 101.44C104.408 101.44 104.974 101.971 105.524 101.347C106.075 100.722 108.291 99.672 106.645 98.0146L106.81 97.3788C107.095 97.2534 107.335 97.057 107.503 96.812C107.904 96.2586 107.888 95.6219 107.484 95.3704C107.08 95.1188 106.43 95.3772 106.035 95.9309C105.839 96.1933 105.739 96.5062 105.748 96.8252L105.23 97.3547C105.23 97.3547 103.509 95.6528 102.149 99.3193C102.149 99.3193 101.989 99.9863 102.356 100.207C102.356 100.207 100.42 102.477 100.168 103.561C100.168 103.561 98.4971 105.61 98.4566 106.246L97.9794 106.915L96.1422 105.813L93.7843 109.12C92.7052 108.751 91.8898 108.694 91.6493 109.029C91.2282 109.619 92.7245 111.203 94.9933 112.566C97.2622 113.93 99.4402 114.555 99.8612 113.966C100.131 113.603 99.6344 112.838 98.6666 111.983Z" fill="#0574BC"/>
<path d="M82.4717 134.296L81.4277 100.947H108.571L107.527 134.296H82.4717Z" fill="#2F2E41" stroke="#2F2E41"/>
<path d="M87.9154 107.15H86.0117V130.618H87.9154V107.15Z" fill="white"/>
<path d="M95.4115 107.15H93.5078V130.618H95.4115V107.15Z" fill="white"/>
<path d="M102.908 107.15H101.004V130.618H102.908V107.15Z" fill="white"/>
<path d="M68.6219 130.16L64.959 128.606L77.8674 98.7728L81.5303 100.327L68.6219 130.16Z" fill="#2F2E41" stroke="#2F2E41"/>
<ellipse rx="4.05743" ry="4.06993" transform="matrix(-0.312489 -0.949921 0.950625 -0.310343 71.2886 112.734)" fill="#2F2E41"/>
<path d="M53.2199 35.0852L53.2714 31.0977L51.2499 31.2235C51.3651 30.6178 51.7566 28.5073 51.6917 27.6769C51.6917 27.6769 52.6636 25.1612 51.9206 23.1608C51.9206 23.1608 52.6885 23.2769 52.7847 22.4512C52.8808 21.6254 54.1034 19.5059 51.8035 19.0757L51.5759 18.4594C51.7387 18.1947 51.8241 17.8971 51.8224 17.6004C51.8358 16.9182 51.459 16.4037 50.9832 16.4257C50.5075 16.4477 50.1206 17.0286 50.112 17.7077C50.1004 18.0348 50.1965 18.3491 50.3866 18.6059L50.2628 19.3351C50.2628 19.3351 47.8754 18.911 48.8514 22.6967C48.8514 22.6967 49.1004 23.3363 49.5286 23.3095C49.5286 23.3095 49.2325 26.274 49.6443 27.308C49.6443 27.308 49.4403 29.9398 49.7703 30.4857L49.76 31.3064L47.6198 31.4415L47.5693 35.4974C46.4716 35.8062 45.7684 36.2214 45.7617 36.6328C45.7526 37.357 47.8876 37.8114 50.532 37.6466C53.1765 37.4818 55.3247 36.7615 55.3347 36.0387C55.3496 35.5876 54.5039 35.2395 53.2199 35.0852Z" fill="#0574BC"/>
<path d="M100.261 67.4473L100.635 71.4176L102.632 71.0787C102.582 71.6932 102.418 73.8331 102.571 74.652C102.571 74.652 101.872 77.2563 102.825 79.1668C102.825 79.1668 102.049 79.1325 102.041 79.9638C102.033 80.795 101.044 83.0319 103.377 83.2163L103.669 83.8051C103.535 84.0855 103.482 84.3905 103.515 84.6854C103.575 85.3651 104.004 85.8368 104.475 85.7646C104.945 85.6924 105.268 85.0738 105.204 84.3976C105.181 84.0712 105.052 83.7688 104.835 83.5336L104.881 82.7954C104.881 82.7954 107.3 82.9645 105.926 79.3034C105.926 79.3034 105.61 78.6939 105.187 78.7658C105.187 78.7658 105.165 75.7867 104.646 74.8022C104.646 74.8022 104.568 72.1637 104.182 71.6558L104.104 70.8386L106.218 70.4778L105.836 66.4395C106.894 66.0163 107.549 65.529 107.512 65.1193C107.444 64.3982 105.273 64.1723 102.661 64.616C100.049 65.0597 97.9896 66.0032 98.0567 66.7229C98.0899 67.1731 98.968 67.4297 100.261 67.4473Z" fill="#0574BC"/>
<path d="M40.1107 62.7077C42.7411 62.7077 44.8737 60.5831 44.8737 57.9628C44.8737 55.3424 42.7411 53.2179 40.1107 53.2179C37.4803 53.2179 35.3477 55.3424 35.3477 57.9628C35.3477 60.5831 37.4803 62.7077 40.1107 62.7077Z" fill="#E2EAF1"/>
<path d="M26.3627 37.4115C26.3627 37.4115 29.9886 47.7553 40.11 53.7517C40.11 53.7517 29.3932 51.4386 24.4277 37.7674C24.4337 37.797 24.5289 37.625 26.3627 37.4115Z" fill="#0574BC"/>
<path d="M43.2946 37.204C43.2946 37.204 45.4678 47.88 40.1094 53.7518C40.1094 53.7518 47.2539 50.2524 45.4678 37.2158C45.4678 37.204 44.6997 36.6405 43.2946 37.204Z" fill="#0574BC"/>
<path d="M40.7044 62.7077C43.3348 62.7077 45.4675 60.5831 45.4675 57.9628C45.4675 55.3424 43.3348 53.2179 40.7044 53.2179C38.0741 53.2179 35.9414 55.3424 35.9414 57.9628C35.9414 60.5831 38.0741 62.7077 40.7044 62.7077Z" fill="#DADDDF"/>
<path d="M40.7051 61.5215C42.6782 61.5215 44.2773 59.9284 44.2773 57.9628C44.2773 55.9973 42.6782 54.4042 40.7051 54.4042C38.732 54.4042 37.1328 55.9973 37.1328 57.9628C37.1328 59.9284 38.732 61.5215 40.7051 61.5215Z" stroke="#A3A6A7" stroke-width="0.5" stroke-miterlimit="10"/>
<path d="M40.4565 55.5903L41.4085 56.9723H43.0999L42.0693 58.3068L42.5933 59.9082L41.0036 59.3507L39.6348 60.3352L39.6765 58.6567L38.3125 57.6662L39.9325 57.1858L40.4565 55.5903Z" fill="white"/>
<path d="M123.693 37.1569L123.762 37.1348L123.744 37.2042C123.73 37.2605 123.732 37.3196 123.751 37.3745L123.774 37.4432L123.704 37.426C123.647 37.4104 123.587 37.412 123.531 37.4304L123.462 37.4529L123.481 37.3854C123.496 37.3285 123.494 37.2691 123.477 37.2135L123.452 37.1466L123.522 37.1636C123.579 37.1772 123.638 37.175 123.693 37.1569Z" fill="#E1E1E1"/>
<path d="M141.641 46.2238L141.759 46.1855L141.728 46.3073C141.702 46.4031 141.706 46.5041 141.739 46.5979L141.777 46.7151L141.657 46.6862C141.56 46.6603 141.458 46.6635 141.363 46.6953L141.243 46.7354L141.274 46.6136C141.299 46.5172 141.296 46.4158 141.266 46.3213L141.225 46.2019L141.345 46.2347C141.443 46.2576 141.545 46.2538 141.641 46.2238Z" fill="#E1E1E1"/>
<path d="M144.256 42.8932L144.455 42.8256L144.403 43.0306C144.361 43.1922 144.368 43.3625 144.421 43.5207L144.484 43.7187L144.283 43.6678C144.12 43.6255 143.949 43.6311 143.789 43.6833L143.59 43.7509L143.643 43.548C143.684 43.3856 143.678 43.2146 143.624 43.0558L143.56 42.8578L143.762 42.9086C143.925 42.9501 144.096 42.9448 144.256 42.8932Z" fill="#E1E1E1"/>
<path d="M124.93 47.1003L125.035 46.9191L125.129 47.1057C125.206 47.2544 125.323 47.3787 125.467 47.4646L125.647 47.571L125.461 47.6672C125.311 47.7406 125.186 47.8574 125.103 48.0024L124.994 48.1833L124.9 47.9968C124.825 47.8464 124.707 47.7215 124.562 47.6378L124.382 47.5315L124.569 47.4374C124.719 47.3607 124.843 47.2439 124.93 47.1003Z" fill="#E1E1E1"/>
<path d="M132.38 49.698C132.34 49.71 132.303 49.7284 132.269 49.7526C132.23 49.784 132.199 49.8234 132.177 49.868C132.156 49.9127 132.143 49.9614 132.142 50.0109C132.141 50.1124 132.162 50.2129 132.204 50.3054C132.223 50.3435 132.238 50.3837 132.248 50.4251C132.164 50.3018 132.117 50.1574 132.111 50.0085C132.113 49.9567 132.127 49.9063 132.151 49.8602C132.174 49.814 132.207 49.7735 132.248 49.7412C132.276 49.7238 132.306 49.7113 132.338 49.7047C132.37 49.6953 132.382 49.6962 132.38 49.698Z" fill="white"/>
<path d="M128.215 39.8111C127.66 39.82 127.111 39.8095 126.553 39.8359C126.314 39.8401 126.079 39.8959 125.865 39.9997C125.65 40.1035 125.46 40.2524 125.309 40.4368C125.163 40.6326 125.058 40.8556 125.001 41.0929C124.944 41.3302 124.937 41.5766 124.979 41.8169C125.15 43.3793 125.616 45.0745 126.819 46.1697C127.653 46.8997 128.735 47.2847 129.844 47.2463C129.937 47.2453 130.025 47.2077 130.09 47.1417C130.155 47.0755 130.191 46.9866 130.19 46.8941C130.189 46.802 130.151 46.7138 130.085 46.6492C130.019 46.5846 129.929 46.549 129.837 46.5498C128.998 46.5848 128.172 46.3333 127.496 45.8368C126.945 45.3808 126.518 44.7937 126.255 44.1297C125.995 43.5004 125.818 42.8404 125.727 42.1656C125.644 41.8374 125.633 41.495 125.694 41.1618C125.755 40.98 125.871 40.8214 126.027 40.7081C126.182 40.5948 126.369 40.5328 126.562 40.5304C127.114 40.5095 127.671 40.5168 128.224 40.5097C128.312 40.5021 128.395 40.4615 128.454 40.3959C128.514 40.3303 128.547 40.2446 128.545 40.156C128.544 40.0677 128.509 39.9828 128.448 39.9188C128.387 39.855 128.304 39.8165 128.215 39.8111Z" fill="#0574BC"/>
<path d="M138.786 40.3034C139.309 40.296 139.83 40.2865 140.351 40.281C140.501 40.2678 140.652 40.2888 140.793 40.3424C140.933 40.3957 141.06 40.4803 141.164 40.5895C141.432 40.9017 141.389 41.2787 141.35 41.66C141.226 42.9947 140.85 44.4579 139.863 45.425C139.177 46.0589 138.273 46.405 137.338 46.391C137.247 46.3945 137.161 46.4332 137.098 46.499C137.036 46.5648 137.001 46.6524 137.003 46.7432C137.004 46.8337 137.041 46.9203 137.105 46.9843C137.17 47.0482 137.257 47.0846 137.348 47.0855C138.34 47.0901 139.305 46.761 140.087 46.1517C140.737 45.5939 141.23 44.8767 141.517 44.0713C141.793 43.3336 141.967 42.5618 142.035 41.7774C142.121 41.3392 142.078 40.8854 141.911 40.4711C141.795 40.2405 141.624 40.0413 141.414 39.8906C141.204 39.74 140.96 39.6425 140.704 39.6064C140.061 39.5577 139.416 39.5592 138.774 39.6107C138.683 39.6142 138.597 39.6529 138.534 39.7187C138.472 39.7845 138.437 39.8721 138.439 39.9629C138.44 40.0534 138.477 40.14 138.541 40.204C138.606 40.2679 138.693 40.3043 138.784 40.3052L138.786 40.3034Z" fill="#0574BC"/>
<path d="M134.589 50.4546L133.688 50.2615L133.673 50.2742L133.647 50.2703L132.754 50.4917C132.754 50.4917 132.656 52.262 131.995 53.5439L133.692 53.5218L133.738 53.5193L135.437 53.4955C134.735 52.2218 134.589 50.4546 134.589 50.4546Z" fill="#0574BC"/>
<path opacity="0.21" d="M134.589 50.4544L133.688 50.2614L133.673 50.2741L133.648 50.2701L133.551 50.2943L134.201 50.4346C134.201 50.4346 134.347 52.2018 135.044 53.4652L133.347 53.4873L133.301 53.4897L132.005 53.499C132.005 53.499 131.988 53.5135 131.986 53.5331L133.686 53.5092L133.731 53.5068L135.429 53.4847C134.735 52.2216 134.589 50.4544 134.589 50.4544Z" fill="black"/>
<path d="M134.917 50.5878L132.417 50.6294C132.262 50.6307 132.113 50.5711 132.003 50.4631C131.892 50.3553 131.829 50.2084 131.827 50.0541C131.825 49.9779 131.839 49.9021 131.867 49.8309C131.895 49.7601 131.937 49.6954 131.991 49.6407C132.044 49.586 132.108 49.5422 132.178 49.5121C132.248 49.482 132.324 49.4661 132.4 49.4653L134.894 49.4291C134.973 49.4265 135.051 49.4399 135.124 49.4682C135.197 49.4964 135.264 49.5392 135.32 49.5935C135.376 49.6481 135.42 49.7134 135.451 49.7854C135.481 49.8575 135.496 49.935 135.496 50.0132C135.494 50.1654 135.432 50.3108 135.324 50.4183C135.216 50.5257 135.07 50.5865 134.917 50.5878Z" fill="#0574BC"/>
<path opacity="0.21" d="M135.498 50.004C135.499 49.926 135.483 49.8484 135.453 49.7765C135.423 49.7042 135.378 49.6391 135.322 49.5846C135.266 49.5298 135.199 49.4873 135.126 49.4591C135.053 49.431 134.975 49.4176 134.896 49.42L134.7 49.4228C134.831 49.4665 134.942 49.5551 135.013 49.6725C135.084 49.7899 135.111 49.9288 135.09 50.0643C135.068 50.1998 134.999 50.3236 134.895 50.4132C134.79 50.5027 134.657 50.5527 134.52 50.554L132.233 50.5961C132.296 50.6184 132.362 50.6302 132.429 50.6307L134.922 50.5946C134.999 50.5938 135.075 50.5777 135.145 50.5476C135.216 50.5173 135.28 50.4733 135.333 50.4185C135.387 50.3637 135.429 50.2989 135.457 50.2277C135.485 50.1566 135.499 50.0806 135.498 50.004Z" fill="black"/>
<path d="M139.402 38.0625L133.519 38.153L133.206 38.1567L127.635 38.2375C127.596 38.3548 127.176 49.8919 133.666 49.6014C140.181 49.6991 139.442 38.1818 139.402 38.0625Z" fill="#0574BC"/>
<path opacity="0.21" d="M139.402 38.0636L138.23 38.0805C138.317 39.246 138.667 49.6053 132.507 49.5051C132.895 49.5844 133.291 49.6147 133.687 49.5952C140.181 49.6993 139.442 38.183 139.402 38.0636Z" fill="black"/>
<path d="M137.477 54.7592L130.133 54.8642C130.13 54.6265 130.174 54.3908 130.262 54.1699C130.351 53.9492 130.482 53.7479 130.648 53.5775C130.815 53.4072 131.013 53.2714 131.232 53.1775C131.451 53.0833 131.687 53.0333 131.925 53.0303L135.637 52.9788C135.875 52.9747 136.112 53.0175 136.334 53.1049C136.556 53.1922 136.758 53.3224 136.929 53.4878C137.1 53.6532 137.236 53.8509 137.33 54.069C137.424 54.2872 137.474 54.5216 137.477 54.7592Z" fill="#0574BC"/>
<path opacity="0.21" d="M131.704 53.2181L135.416 53.1666C135.866 53.1597 136.303 53.3204 136.641 53.6168C136.979 53.9134 137.194 54.3246 137.244 54.7707L137.468 54.7662C137.465 54.5286 137.415 54.294 137.321 54.0757C137.227 53.8577 137.09 53.6602 136.919 53.4948C136.748 53.3294 136.546 53.1992 136.325 53.1119C136.103 53.0246 135.866 52.9817 135.628 52.9857L131.916 53.0372C131.442 53.043 130.989 53.235 130.656 53.5716C130.959 53.3464 131.326 53.2227 131.704 53.2181Z" fill="black"/>
<path d="M140.085 54.6405L128.818 54.8001L128.883 59.5235L140.149 59.364L140.085 54.6405Z" fill="#3F4249"/>
<path opacity="0.21" d="M140.097 54.6204L138.291 54.6479L138.354 59.3354L128.893 59.4698L128.895 59.5054L140.162 59.3473L140.097 54.6204Z" fill="black"/>
<path opacity="0.3" d="M136.747 55.9144L130.253 56.0063L130.285 58.321L136.779 58.2291L136.747 55.9144Z" fill="white"/>
<path d="M133.32 40.2543L134.143 41.8565L135.937 42.0919L134.657 43.3678L134.988 45.1415L133.374 44.3244L131.786 45.1866L132.068 43.4046L130.756 42.1653L132.54 41.8817L133.32 40.2543Z" fill="white"/>
<path opacity="0.21" d="M127.36 39.8196L127.399 40.5144L127.68 40.5161L127.641 39.8174L127.36 39.8196Z" fill="black"/>
<path opacity="0.21" d="M129.058 46.4935L129.47 47.2365L129.175 47.21L128.756 46.433L129.058 46.4935Z" fill="black"/>
</svg>
