<svg width="255" height="203" viewBox="0 0 255 203" fill="none" xmlns="http://www.w3.org/2000/svg">
<path d="M253.946 178.331H0.321044C0.235898 178.331 0.154239 178.279 0.0940313 178.185C0.0338239 178.091 0 177.964 0 177.831C0 177.699 0.0338239 177.571 0.0940313 177.478C0.154239 177.384 0.235898 177.331 0.321044 177.331H253.946C254.031 177.331 254.113 177.384 254.173 177.478C254.233 177.571 254.267 177.699 254.267 177.831C254.267 177.964 254.233 178.091 254.173 178.185C254.113 178.279 254.031 178.331 253.946 178.331Z" fill="#CCCCCC"/>
<path d="M197.38 168.132C194.871 165.496 189.064 163.237 181.286 161.742V127.762H180.931V127.411H174.509V127.762H164.419C165.323 122.621 168.339 104.694 167.731 97.494C167.731 97.494 175.571 76.3796 169.156 58.7822C169.156 58.7822 175.578 60.1895 176.285 53.1506C176.86 47.4677 183.467 34.9118 175.88 27.6875C174.099 25.8436 171.451 24.3192 167.628 23.2973L165.773 18.1754C166.983 16.2852 167.731 13.734 167.731 10.9218C167.731 7.13406 166.383 3.81459 164.362 1.9512C163.199 0.731699 161.779 0 160.245 0C159.077 0.0176876 157.948 0.417407 157.034 1.13657C157.167 1.23657 157.296 1.34389 157.424 1.45608C155.08 3.18533 153.472 6.76821 153.472 10.9096C153.472 14.0437 154.399 16.851 155.863 18.7851L154.897 24.9875C154.897 24.9875 134.94 20.0681 143.496 53.1506C143.496 53.1506 145.635 58.7822 149.199 58.7822C149.199 58.7822 147.06 84.121 150.624 93.2721C150.624 93.2721 149.199 115.796 152.052 120.723V127.762H134.229V162.615C125.105 164.679 119.259 167.847 119.259 171.396C119.259 177.617 137.453 178 159.5 178C181.547 178 199.095 177.627 199.095 171.403C199.095 170.266 198.492 169.169 197.38 168.132Z" fill="#E7EFF7"/>
<path d="M106.906 171.825C104.576 169.371 99.1673 167.271 91.9181 165.879V134.257H91.5871V133.93H85.6173V134.257H76.2315C77.0738 129.474 79.8796 112.794 79.314 106.091C79.314 106.091 86.6102 86.4405 80.6403 70.0651C80.6403 70.0651 86.6102 71.3748 87.2746 64.8261C87.8106 59.5384 93.9582 47.8531 86.8967 41.1313C85.2394 39.424 82.7768 37.9972 79.2201 37.0508L77.4912 32.2753C78.6199 30.5143 79.314 28.1436 79.314 25.5241C79.314 21.9998 78.0617 18.912 76.1796 17.1779C75.0978 16.0413 73.7764 15.373 72.3488 15.373C71.263 15.39 70.2136 15.7623 69.3651 16.4316C69.4886 16.5243 69.6121 16.6243 69.7282 16.7267C67.5472 18.3364 66.048 21.6705 66.048 25.5241C66.048 28.4509 66.9124 31.0533 68.2709 32.8411L67.3718 38.6118C67.3718 38.6118 48.8004 34.0265 56.7511 64.8139C56.7511 64.8139 58.7419 70.0529 62.059 70.0529C62.059 70.0529 60.0682 93.6331 63.3854 102.15C63.3854 102.15 62.059 123.111 64.7117 127.696V134.245H48.1384V166.683C39.6493 168.603 34.208 171.561 34.208 174.861C37 178.5 51.9847 178 72.5 178C95.5 176.5 108.501 180.656 108.501 174.861C108.501 173.81 107.941 172.788 106.906 171.825Z" fill="#E7EFF7"/>
<path d="M141.558 170.174C139.829 168.344 135.794 166.781 130.394 165.744V142.193H130.147V141.95H125.701V142.193H118.712C119.339 138.63 121.428 126.203 121.009 121.218C121.009 121.218 126.442 106.584 121.997 94.3892C121.997 94.3892 126.442 95.3648 126.936 90.4868C127.337 86.5478 131.916 77.8455 126.655 72.8382C125.42 71.5602 123.587 70.5041 120.937 69.7992L119.653 66.2359C120.57 64.7168 121.041 62.9752 121.011 61.2066C121.011 58.5823 120.077 56.2823 118.674 54.9896C117.869 54.1433 116.886 53.6458 115.824 53.6458C115.015 53.6589 114.233 53.9369 113.601 54.436C113.695 54.5043 113.784 54.5774 113.873 54.6555C112.248 55.853 111.131 58.3359 111.131 61.2066C111.131 63.3798 111.776 65.3261 112.791 66.6651L112.119 70.9651C112.119 70.9651 98.2876 67.5505 104.215 90.477C104.215 90.477 105.697 94.3794 108.167 94.3794C108.167 94.3794 106.685 111.94 109.155 118.282C109.155 118.282 108.167 133.891 110.143 137.306V142.184H97.7937V166.33C91.4706 167.759 78.5 172.529 78.5 175C78.5 179.312 99.7234 178 115 178C130.277 178 142.746 176.737 142.746 172.427C142.746 171.652 142.329 170.891 141.558 170.174Z" fill="#E7EFF7"/>
<path d="M222.324 174.169C221.302 173.091 218.928 172.169 215.747 171.557V157.679H215.601V157.535H212.98V157.679H208.86C209.231 155.579 210.463 148.254 210.214 145.315C210.214 145.315 213.425 136.689 210.797 129.501C210.797 129.501 213.417 130.077 213.709 127.201C213.956 124.881 216.643 119.752 213.543 116.801C212.815 116.047 211.733 115.425 210.172 115.011L209.414 112.913C209.955 112.019 210.232 110.992 210.214 109.95C210.214 108.404 209.663 107.048 208.838 106.291C208.629 106.051 208.371 105.857 208.082 105.72C207.792 105.584 207.477 105.508 207.156 105.499C206.68 105.507 206.219 105.671 205.847 105.965C205.902 106.005 205.955 106.048 206.005 106.094C205.049 106.799 204.392 108.262 204.392 109.955C204.369 111.103 204.715 112.23 205.38 113.172L204.985 115.706C204.985 115.706 196.834 113.694 200.327 127.206C200.327 127.206 201.201 129.506 202.656 129.506C202.656 129.506 201.784 139.857 203.239 143.593C203.239 143.593 202.656 152.796 203.822 154.813V157.688H196.531V171.925C192.803 172.766 190.415 174.061 190.415 175.513C190.415 178.054 198 178 207 178C216 178 223.018 178.054 223.018 175.513C223.025 175.039 222.779 174.591 222.324 174.169Z" fill="#E7EFF7"/>
<path d="M48.9091 174.169C47.8865 173.091 45.5129 172.169 42.3317 171.557V157.679H42.1859V157.535H39.5653V157.679H35.4455C35.816 155.579 37.0485 148.254 36.799 145.315C36.799 145.315 40.0099 136.689 37.3819 129.501C37.3819 129.501 40.0025 130.077 40.294 127.201C40.5286 124.881 43.2282 119.752 40.1285 116.801C39.3875 116.047 38.318 115.425 36.757 115.011L35.9987 112.913C36.5403 112.019 36.8175 110.992 36.799 109.95C36.799 108.404 36.2482 107.048 35.4232 106.291C35.214 106.051 34.9564 105.857 34.6668 105.72C34.3772 105.584 34.062 105.508 33.7412 105.499C33.2648 105.507 32.8045 105.671 32.4322 105.965C32.4871 106.005 32.5399 106.048 32.5902 106.094C31.6344 106.799 30.9774 108.262 30.9774 109.955C30.9508 111.1 31.2914 112.224 31.9505 113.167L31.5553 115.701C31.5553 115.701 23.4045 113.689 26.897 127.201C26.897 127.201 27.7714 129.501 29.2262 129.501C29.2262 129.501 28.3543 139.852 29.8091 143.589C29.8091 143.589 29.2262 152.791 30.392 154.808V157.684H23.1156V171.92C19.3884 172.761 17 174.056 17 175.508C17 178.049 24.4996 178 33.5 178C42.5004 178 49.6031 178.049 49.6031 175.508C49.6106 175.039 49.3636 174.591 48.9091 174.169Z" fill="#E7EFF7"/>
<path d="M167.432 177.754C174.048 175.719 177.762 168.706 175.727 162.09C173.692 155.475 166.679 151.761 160.063 153.796C153.448 155.83 149.734 162.844 151.769 169.459C153.803 176.075 160.817 179.789 167.432 177.754Z" fill="#E2EAF1"/>
<path d="M114.999 121.876C114.999 121.876 128.002 147.066 156.259 158.824C156.259 158.824 127.758 156.705 110.125 123.473C110.151 123.547 110.337 123.073 114.999 121.876Z" fill="#0163A3"/>
<path d="M130.706 130.841C130.706 130.841 103.603 139.149 86.9997 164.86C86.9997 164.86 94.1615 137.192 130.002 125.76C129.925 125.772 130.358 126.039 130.706 130.841Z" fill="#0163A3"/>
<path d="M168.693 177.366C175.309 175.331 179.023 168.318 176.988 161.702C174.953 155.087 167.939 151.373 161.324 153.408C154.708 155.443 150.995 162.456 153.029 169.072C155.064 175.687 162.078 179.401 168.693 177.366Z" fill="#DADDDF"/>
<path d="M168.159 173.39C173.034 171.89 175.77 166.724 174.271 161.848C172.771 156.973 167.604 154.237 162.729 155.736C157.854 157.236 155.118 162.403 156.617 167.278C158.117 172.154 163.284 174.89 168.159 173.39Z" stroke="#A3A6A7" stroke-width="0.5" stroke-miterlimit="10"/>
<path d="M162.671 159.895L165.945 162.506L169.954 161.272L168.493 165.216L170.913 168.664L166.735 168.49L164.214 171.842L163.078 167.797L159.116 166.423L162.603 164.093L162.671 159.895Z" fill="white"/>
<path d="M82.0231 173.645C87.5582 177.801 95.4151 176.682 99.5706 171.147C103.726 165.612 102.608 157.755 97.0726 153.6C91.5375 149.444 83.6806 150.563 79.5251 156.098C75.3695 161.633 76.488 169.49 82.0231 173.645Z" fill="#F1D645"/>
<path d="M83.0787 174.438C88.6138 178.593 96.4707 177.475 100.626 171.94C104.782 166.405 103.663 158.548 98.1282 154.392C92.5932 150.237 84.7363 151.355 80.5807 156.89C76.4252 162.425 77.5437 170.282 83.0787 174.438Z" fill="#FFE560"/>
<path d="M85.9807 171.669C90.0598 174.731 95.848 173.907 98.9104 169.828C101.973 165.749 101.149 159.961 97.0698 156.898C92.9907 153.836 87.2025 154.66 84.14 158.739C81.0776 162.818 81.9016 168.606 85.9807 171.669Z" stroke="#F1D645" stroke-width="0.5" stroke-miterlimit="10"/>
<path d="M93.6712 159.295L93.4832 163.478L96.838 165.997L92.7889 167.133L91.4221 171.118L89.1069 167.635L84.9129 167.567L87.5174 164.27L86.3001 160.257L90.235 161.708L93.6712 159.295Z" fill="white"/>
<path d="M159.438 119.206L159.963 119.044L159.816 119.584C159.698 120.009 159.708 120.459 159.846 120.879L160.008 121.404L159.476 121.267C159.049 121.145 158.595 121.152 158.172 121.287L157.638 121.457L157.785 120.917C157.901 120.489 157.894 120.037 157.765 119.614L157.594 119.079L158.125 119.234C158.557 119.342 159.01 119.333 159.438 119.206Z" fill="#E1E1E1"/>
<path d="M168.641 104.507L169.529 104.22L169.287 105.13C169.09 105.847 169.106 106.606 169.331 107.315L169.6 108.201L168.708 107.96C167.99 107.76 167.228 107.773 166.516 107.995L165.627 108.282L165.878 107.382C166.073 106.661 166.055 105.899 165.826 105.187L165.556 104.301L166.449 104.542C167.168 104.737 167.928 104.726 168.641 104.507Z" fill="#E1E1E1"/>
<path d="M85.2162 121.96L85.6948 121.161L86.1008 121.998C86.432 122.667 86.9436 123.228 87.5772 123.621L88.3675 124.108L87.5377 124.523C86.8656 124.84 86.3038 125.352 85.9245 125.992L85.4285 126.79L85.0225 125.952C84.7016 125.277 84.1876 124.712 83.546 124.329L82.7557 123.843L83.5935 123.437C84.2616 123.106 84.8234 122.594 85.2162 121.96Z" fill="#E1E1E1"/>
<path d="M118.101 134.046C117.924 134.097 117.757 134.176 117.605 134.282C117.432 134.419 117.291 134.592 117.191 134.79C117.091 134.987 117.034 135.203 117.024 135.424C117.013 135.876 117.1 136.325 117.28 136.74C117.361 136.911 117.424 137.091 117.468 137.276C117.104 136.721 116.901 136.075 116.885 135.411C116.901 135.18 116.964 134.957 117.072 134.753C117.181 134.549 117.331 134.371 117.513 134.229C117.637 134.154 117.773 134.1 117.914 134.073C118.059 134.034 118.111 134.039 118.101 134.046Z" fill="white"/>
<path d="M100.294 89.7141C97.8321 89.7148 95.3955 89.6298 92.9174 89.7081C91.8586 89.7103 90.8118 89.9422 89.8524 90.3897C88.8912 90.8371 88.0405 91.4872 87.3587 92.2981C86.695 93.1599 86.2151 94.146 85.947 95.1992C85.6789 96.2524 85.6274 97.3494 85.7979 98.423C86.4536 105.395 88.4068 112.98 93.6714 117.943C97.319 121.253 102.095 123.044 107.021 122.951C107.432 122.953 107.828 122.792 108.12 122.502C108.411 122.212 108.577 121.818 108.579 121.406C108.581 120.996 108.42 120.6 108.131 120.308C107.841 120.015 107.447 119.85 107.035 119.848C103.31 119.945 99.6623 118.767 96.6963 116.507C94.2818 114.437 92.4279 111.792 91.3063 108.816C90.1959 105.994 89.4529 103.041 89.0952 100.029C88.7501 98.561 88.7235 97.0347 89.0171 95.5547C89.2992 94.749 89.8264 94.0505 90.5254 93.5568C91.2227 93.0631 92.0569 92.8 92.9122 92.8027C95.3617 92.7482 97.8356 92.8198 100.288 92.8271C100.68 92.7993 101.048 92.6241 101.318 92.336C101.587 92.0479 101.737 91.6688 101.738 91.274C101.739 90.8802 101.59 90.4998 101.323 90.2103C101.054 89.9217 100.688 89.7444 100.294 89.7141Z" fill="#0574BC"/>
<path d="M147.173 92.6328C149.494 92.6367 151.807 92.6311 154.118 92.6429C154.785 92.5947 155.454 92.6989 156.075 92.9472C156.696 93.1946 157.253 93.5804 157.705 94.0742C158.876 95.484 158.659 97.1609 158.458 98.8569C157.82 104.795 156.05 111.287 151.603 115.527C148.518 118.303 144.482 119.782 140.335 119.654C139.931 119.663 139.546 119.829 139.263 120.118C138.981 120.407 138.822 120.795 138.822 121.199C138.82 121.603 138.979 121.991 139.26 122.281C139.541 122.57 139.926 122.738 140.33 122.748C144.733 122.839 149.04 121.44 152.551 118.78C155.473 116.341 157.708 113.18 159.036 109.612C160.311 106.344 161.137 102.918 161.491 99.428C161.905 97.4817 161.744 95.4567 161.029 93.5994C160.529 92.5639 159.787 91.6643 158.863 90.9781C157.941 90.2922 156.866 89.8409 155.731 89.6619C152.883 89.4 150.02 89.3617 147.168 89.5461C146.764 89.5552 146.379 89.7218 146.096 90.0104C145.814 90.2991 145.655 90.6871 145.654 91.0915C145.653 91.495 145.811 91.8834 146.092 92.1732C146.374 92.4622 146.759 92.6305 147.163 92.6407L147.173 92.6328Z" fill="#0574BC"/>
<path d="M127.852 137.57L123.866 136.647L123.799 136.702L123.687 136.683L119.706 137.607C119.706 137.607 119.152 145.487 116.13 151.151L123.664 151.172L123.867 151.164L131.41 151.177C128.379 145.453 127.852 137.57 127.852 137.57Z" fill="#0574BC"/>
<path opacity="0.21" d="M127.851 137.569L123.866 136.646L123.799 136.701L123.686 136.682L123.255 136.783L126.13 137.453C126.13 137.453 126.657 145.337 129.666 151.014L122.133 150.994L121.93 151.001L116.175 150.952C116.175 150.952 116.099 151.015 116.091 151.103L123.634 151.115L123.837 151.108L131.37 151.128C128.379 145.452 127.851 137.569 127.851 137.569Z" fill="black"/>
<path d="M129.297 138.187L118.2 138.196C117.514 138.192 116.856 137.915 116.373 137.427C115.889 136.939 115.618 136.28 115.618 135.592C115.618 135.253 115.685 134.916 115.814 134.601C115.943 134.287 116.134 134.002 116.374 133.762C116.615 133.522 116.901 133.331 117.215 133.202C117.529 133.073 117.866 133.008 118.205 133.009L129.274 133.023C129.623 133.017 129.969 133.082 130.292 133.213C130.615 133.344 130.907 133.539 131.153 133.785C131.399 134.032 131.591 134.326 131.721 134.649C131.85 134.973 131.913 135.319 131.905 135.667C131.887 136.345 131.604 136.989 131.116 137.46C130.629 137.931 129.976 138.191 129.297 138.187Z" fill="#0574BC"/>
<path opacity="0.21" d="M131.921 135.626C131.928 135.278 131.865 134.931 131.736 134.609C131.607 134.285 131.413 133.992 131.168 133.745C130.922 133.497 130.629 133.303 130.306 133.172C129.984 133.042 129.638 132.976 129.29 132.982L128.42 132.98C128.996 133.184 129.482 133.587 129.79 134.115C130.098 134.643 130.21 135.263 130.105 135.866C130 136.468 129.684 137.015 129.215 137.406C128.745 137.798 128.153 138.012 127.541 138.008L117.391 138.035C117.667 138.139 117.959 138.196 118.255 138.203L129.324 138.217C129.665 138.218 130.003 138.152 130.317 138.023C130.633 137.893 130.919 137.701 131.161 137.461C131.402 137.22 131.593 136.935 131.724 136.62C131.853 136.305 131.921 135.967 131.921 135.626Z" fill="black"/>
<path d="M150.062 82.6999L123.948 82.691L122.559 82.6855L97.8274 82.655C97.6474 83.1747 95.0007 134.544 123.823 133.705C152.731 134.597 150.233 83.2345 150.062 82.6999Z" fill="#0574BC"/>
<path opacity="0.21" d="M150.059 82.6992L144.854 82.692C145.164 87.891 146.014 134.071 118.679 133.193C120.395 133.574 122.152 133.736 123.909 133.678C152.727 134.596 150.229 83.2338 150.059 82.6992Z" fill="black"/>
<path d="M140.371 156.949L107.771 156.903C107.773 155.843 107.983 154.796 108.391 153.818C108.798 152.841 109.394 151.954 110.143 151.206C110.893 150.459 111.784 149.868 112.763 149.465C113.742 149.061 114.791 148.855 115.849 148.858L132.324 148.888C133.382 148.887 134.431 149.094 135.408 149.499C136.387 149.904 137.274 150.498 138.022 151.247C138.769 151.996 139.362 152.886 139.766 153.864C140.168 154.843 140.374 155.891 140.371 156.949Z" fill="#0574BC"/>
<path opacity="0.21" d="M114.861 149.678L131.336 149.709C133.336 149.71 135.263 150.456 136.743 151.8C138.222 153.146 139.15 154.993 139.342 156.984L140.336 156.979C140.339 155.921 140.132 154.872 139.73 153.893C139.326 152.915 138.734 152.025 137.987 151.276C137.239 150.527 136.351 149.933 135.373 149.529C134.395 149.125 133.347 148.917 132.289 148.918L115.814 148.887C113.709 148.88 111.686 149.703 110.185 151.18C111.546 150.198 113.182 149.672 114.861 149.678Z" fill="black"/>
<path d="M149.312 156.561L99.3007 156.482L99.2675 177.531L149.279 177.61L149.312 156.561Z" fill="#3F4249"/>
<path opacity="0.21" d="M149.361 156.469L141.342 156.465L141.307 177.354L99.3091 177.29L99.3121 177.449L149.327 177.534L149.361 156.469Z" fill="black"/>
<path opacity="0.3" d="M134.413 162.004L105.587 161.958L105.571 172.272L134.397 172.318L134.413 162.004Z" fill="white"/>
<path d="M122.924 92.0392L126.469 99.2348L134.414 100.409L128.647 106.004L129.997 113.929L122.889 110.176L115.781 113.905L117.156 105.986L111.416 100.373L119.355 99.2346L122.924 92.0392Z" fill="white"/>
<path opacity="0.21" d="M96.5087 89.6923L96.6351 92.7904L97.8812 92.8178L97.7564 89.7023L96.5087 89.6923Z" fill="black"/>
<path opacity="0.21" d="M103.575 119.541L105.35 122.88L104.044 122.741L102.239 119.251L103.575 119.541Z" fill="black"/>
<path d="M177.789 86.3868L178.506 85.6524C181.824 85.7641 181.875 85.6442 182.021 85.2926L182.932 83.0049L183 82.7881L182.926 82.5983C182.887 82.4981 182.767 82.1991 180.695 80.1627V79.0916C183.085 76.7176 183.034 76.596 182.898 76.2486L181.99 73.937C181.854 73.5904 181.802 73.4548 178.508 73.5477L177.791 72.7837C177.865 71.6584 177.828 70.5283 177.679 69.4109L177.586 69.1949L175.217 68.127C174.868 67.9627 174.745 67.9035 172.508 70.4155L171.502 70.3999C169.198 67.8649 169.089 67.9109 168.744 68.0547L166.541 68.9731C166.196 69.1168 166.074 69.1677 166.208 72.6178L165.496 73.3489C162.18 73.2372 162.129 73.3587 161.985 73.7087L161.072 75.9972L161 76.2165L161.075 76.4071C161.114 76.5057 161.229 76.8014 163.306 78.8402V79.9081C160.916 82.2821 160.967 82.4036 161.104 82.7519L162.011 85.0659C162.15 85.42 162.199 85.5456 165.492 85.4569L166.21 86.225C166.135 87.3485 166.172 88.4769 166.319 89.5929L166.411 89.8106L168.796 90.885C169.143 91.0345 169.263 91.0879 171.494 88.585L172.5 88.5981C174.806 91.1364 174.924 91.0871 175.261 90.9466L177.46 90.0307C177.807 89.8886 177.928 89.8385 177.789 86.3868V86.3868ZM168.34 81.0277C168.062 80.2786 168.005 79.4615 168.176 78.679C168.346 77.8965 168.738 77.1833 169.3 76.6291C169.862 76.0749 170.571 75.7042 171.337 75.5637C172.103 75.4231 172.892 75.5189 173.606 75.839C174.319 76.1591 174.925 76.6893 175.347 77.363C175.769 78.0367 175.989 78.824 175.979 79.626C175.968 80.428 175.729 81.209 175.29 81.8711C174.85 82.5332 174.231 83.0468 173.51 83.3475C172.526 83.7442 171.429 83.7228 170.46 83.2881C169.492 82.8533 168.729 82.0406 168.34 81.0277V81.0277Z" fill="#0D5FAA"/>
<path d="M75.6897 126H79.3103V141H75.6897V126Z" fill="#38B05A"/>
<path d="M70 135.31L70 131.69L85 131.69V135.31L70 135.31Z" fill="#38B05A"/>
<rect x="160" y="124" width="3" height="12" transform="rotate(-90 160 124)" fill="#FF203B"/>
</svg>
