<svg width="183" height="157" viewBox="0 0 183 157" fill="none" xmlns="http://www.w3.org/2000/svg">
<path d="M154.971 110.845H0V0.76123H154.971V110.845Z" fill="#3F3D56"/>
<path d="M12.6233 45.9746C12.2228 45.9746 11.8387 46.1337 11.5555 46.4169C11.2724 46.7 11.1133 47.0841 11.1133 47.4846C11.1133 47.885 11.2724 48.2691 11.5555 48.5523C11.8387 48.8355 12.2228 48.9946 12.6233 48.9946H64.9573C65.3573 48.9938 65.7406 48.8344 66.0232 48.5513C66.3057 48.2682 66.4644 47.8846 66.4644 47.4846C66.4644 47.0846 66.3057 46.701 66.0232 46.4179C65.7406 46.1348 65.3573 45.9754 64.9573 45.9746H12.6233Z" fill="#0D5FAA"/>
<path d="M12.6245 55.0343C12.224 55.0335 11.8396 55.1917 11.5558 55.4743C11.2721 55.7569 11.1122 56.1406 11.1113 56.5411C11.1105 56.9416 11.2688 57.326 11.5513 57.6097C11.8339 57.8935 12.2177 58.0534 12.6181 58.0542H64.9972C65.3977 58.0542 65.7817 57.8952 66.0649 57.612C66.3481 57.3288 66.5072 56.9447 66.5072 56.5443C66.5072 56.1438 66.3481 55.7597 66.0649 55.4766C65.7817 55.1934 65.3977 55.0343 64.9972 55.0343H12.6245Z" fill="#0D5FAA"/>
<path d="M12.6245 63.9647C12.224 63.9639 11.8396 64.1222 11.5558 64.4047C11.2721 64.6873 11.1122 65.071 11.1113 65.4715C11.1105 65.872 11.2688 66.2564 11.5513 66.5401C11.8339 66.8239 12.2177 66.9838 12.6181 66.9847H24.405C24.8054 66.9847 25.1895 66.8256 25.4727 66.5424C25.7558 66.2592 25.9149 65.8752 25.9149 65.4747C25.9149 65.0742 25.7558 64.6902 25.4727 64.407C25.1895 64.1238 24.8054 63.9647 24.405 63.9647H12.6245Z" fill="#0D5FAA"/>
<path d="M154.971 110.845H0V0.76123H154.971V110.845ZM2.54747 108.297H152.423V3.3087H2.54747V108.297Z" fill="#ccc"/>
<path d="M106.209 86.656C105.489 86.655 104.798 86.94 104.288 87.4482C103.778 87.9564 103.491 88.6464 103.489 89.3664C103.488 90.0864 103.772 90.7776 104.28 91.288C104.788 91.7984 105.478 92.0862 106.198 92.0883H132.133C132.49 92.0886 132.843 92.0186 133.173 91.8823C133.503 91.746 133.803 91.5459 134.055 91.2937C134.308 91.0414 134.508 90.7419 134.645 90.4122C134.781 90.0825 134.852 89.7291 134.852 89.3721C134.852 89.0152 134.781 88.6618 134.645 88.3321C134.508 88.0024 134.308 87.7028 134.055 87.4506C133.803 87.1983 133.503 86.9983 133.173 86.862C132.843 86.7256 132.49 86.6557 132.133 86.656H106.209Z" fill="#E4E4E4"/>
<path d="M106.209 53.7634C105.489 53.7624 104.798 54.0474 104.288 54.5556C103.778 55.0639 103.491 55.7538 103.489 56.4738C103.488 57.1939 103.772 57.885 104.28 58.3954C104.788 58.9058 105.478 59.1937 106.198 59.1957H132.133C132.49 59.1961 132.843 59.1261 133.173 58.9897C133.503 58.8534 133.803 58.6534 134.055 58.4011C134.308 58.1489 134.508 57.8493 134.645 57.5196C134.781 57.1899 134.852 56.8365 134.852 56.4796C134.852 56.1226 134.781 55.7692 134.645 55.4395C134.508 55.1098 134.308 54.8103 134.055 54.558C133.803 54.3058 133.503 54.1057 133.173 53.9694C132.843 53.8331 132.49 53.7631 132.133 53.7634H106.209Z" fill="#E4E4E4"/>
<path d="M12.6245 87.9141C12.4262 87.9136 12.2298 87.9523 12.0464 88.0278C11.863 88.1033 11.6964 88.2142 11.5558 88.3541C11.4153 88.494 11.3038 88.6602 11.2275 88.8432C11.1512 89.0263 11.1117 89.2226 11.1113 89.4208C11.1109 89.6191 11.1496 89.8156 11.2251 89.9989C11.3005 90.1823 11.4114 90.349 11.5513 90.4895C11.6913 90.63 11.8575 90.7416 12.0405 90.8178C12.2236 90.8941 12.4198 90.9336 12.6181 90.934H64.9972C65.3977 90.934 65.7817 90.7749 66.0649 90.4917C66.3481 90.2086 66.5072 89.8245 66.5072 89.424C66.5072 89.0236 66.3481 88.6395 66.0649 88.3563C65.7817 88.0732 65.3977 87.9141 64.9972 87.9141H12.6245Z" fill="#E4E4E4"/>
<path d="M12.6245 96.8444C12.4262 96.8439 12.2298 96.8826 12.0464 96.9581C11.863 97.0336 11.6964 97.1445 11.5558 97.2844C11.4153 97.4243 11.3038 97.5905 11.2275 97.7736C11.1512 97.9566 11.1117 98.1529 11.1113 98.3512C11.1109 98.5495 11.1496 98.7459 11.2251 98.9292C11.3005 99.1126 11.4114 99.2793 11.5513 99.4198C11.6913 99.5603 11.8575 99.6719 12.0405 99.7482C12.2236 99.8244 12.4198 99.8639 12.6181 99.8643H24.405C24.8054 99.8643 25.1895 99.7052 25.4727 99.422C25.7558 99.1389 25.9149 98.7548 25.9149 98.3543C25.9149 97.9539 25.7558 97.5698 25.4727 97.2866C25.1895 97.0034 24.8054 96.8444 24.405 96.8444H12.6245Z" fill="#E4E4E4"/>
<path d="M12.6233 78.8542C12.2228 78.8542 11.8387 79.0133 11.5555 79.2965C11.2724 79.5797 11.1133 79.9637 11.1133 80.3642C11.1133 80.7647 11.2724 81.1488 11.5555 81.4319C11.8387 81.7151 12.2228 81.8742 12.6233 81.8742H64.9573C65.3573 81.8734 65.7406 81.714 66.0232 81.4309C66.3057 81.1478 66.4644 80.7642 66.4644 80.3642C66.4644 79.9642 66.3057 79.5806 66.0232 79.2975C65.7406 79.0144 65.3573 78.855 64.9573 78.8542H12.6233Z" fill="#E4E4E4"/>
<path d="M12.6233 13.0948C12.2228 13.0948 11.8387 13.2539 11.5555 13.5371C11.2724 13.8203 11.1133 14.2044 11.1133 14.6048C11.1133 15.0053 11.2724 15.3894 11.5555 15.6725C11.8387 15.9557 12.2228 16.1148 12.6233 16.1148H64.9573C65.3573 16.114 65.7406 15.9546 66.0232 15.6715C66.3057 15.3884 66.4644 15.0048 66.4644 14.6048C66.4644 14.2048 66.3057 13.8212 66.0232 13.5381C65.7406 13.255 65.3573 13.0956 64.9573 13.0948H12.6233Z" fill="#E4E4E4"/>
<path d="M12.6245 22.1547C12.4262 22.1542 12.2298 22.1929 12.0464 22.2684C11.863 22.3439 11.6964 22.4548 11.5558 22.5947C11.4153 22.7346 11.3038 22.9008 11.2275 23.0839C11.1512 23.2669 11.1117 23.4632 11.1113 23.6615C11.1109 23.8597 11.1496 24.0562 11.2251 24.2395C11.3005 24.4229 11.4114 24.5896 11.5513 24.7301C11.6913 24.8706 11.8575 24.9822 12.0405 25.0585C12.2236 25.1347 12.4198 25.1742 12.6181 25.1746H64.9972C65.1955 25.1746 65.3918 25.1356 65.575 25.0597C65.7582 24.9838 65.9247 24.8726 66.0649 24.7323C66.2051 24.5921 66.3163 24.4257 66.3922 24.2425C66.4681 24.0593 66.5072 23.8629 66.5072 23.6646C66.5072 23.4663 66.4681 23.27 66.3922 23.0868C66.3163 22.9036 66.2051 22.7371 66.0649 22.5969C65.9247 22.4567 65.7582 22.3455 65.575 22.2696C65.3918 22.1937 65.1955 22.1547 64.9972 22.1547H12.6245Z" fill="#E4E4E4"/>
<path d="M12.6245 31.085C12.224 31.0841 11.8396 31.2424 11.5558 31.525C11.2721 31.8075 11.1122 32.1913 11.1113 32.5917C11.1105 32.9922 11.2688 33.3766 11.5513 33.6604C11.8339 33.9442 12.2177 34.1041 12.6181 34.1049H24.405C24.8054 34.1049 25.1895 33.9458 25.4727 33.6626C25.7558 33.3795 25.9149 32.9954 25.9149 32.5949C25.9149 32.1945 25.7558 31.8104 25.4727 31.5272C25.1895 31.244 24.8054 31.085 24.405 31.085H12.6245Z" fill="#E4E4E4"/>
<path d="M106.209 20.8966C105.489 20.8956 104.798 21.1806 104.288 21.6888C103.778 22.197 103.491 22.887 103.489 23.607C103.488 24.327 103.772 25.0182 104.28 25.5286C104.788 26.039 105.478 26.3268 106.198 26.3289H132.133C132.49 26.3292 132.843 26.2592 133.173 26.1229C133.503 25.9866 133.803 25.7865 134.055 25.5343C134.308 25.282 134.508 24.9825 134.645 24.6528C134.781 24.3231 134.852 23.9697 134.852 23.6127C134.852 23.2558 134.781 22.9024 134.645 22.5727C134.508 22.243 134.308 21.9434 134.055 21.6912C133.803 21.4389 133.503 21.2389 133.173 21.1026C132.843 20.9662 132.49 20.8963 132.133 20.8966H106.209Z" fill="#E4E4E4"/>
<path d="M111.673 28.4581C114.363 28.4581 116.544 26.2772 116.544 23.587C116.544 20.8968 114.363 18.7159 111.673 18.7159C108.983 18.7159 106.802 20.8968 106.802 23.587C106.802 26.2772 108.983 28.4581 111.673 28.4581Z" fill="#CACACA"/>
<path d="M120.186 57.6574C120.132 58.0484 120.164 58.4465 120.28 58.8237C120.397 59.2008 120.595 59.5478 120.86 59.8403C121.125 60.1327 121.451 60.3634 121.815 60.5163C122.179 60.6691 122.572 60.7402 122.966 60.7247L125.553 66.3265L129.341 65.5849L125.577 57.7253C125.507 57.0644 125.197 56.4521 124.705 56.0045C124.214 55.5569 123.576 55.3051 122.911 55.2967C122.247 55.2883 121.602 55.524 121.1 55.9591C120.598 56.3942 120.272 56.9984 120.186 57.6574V57.6574Z" fill="#FFB6B6"/>
<path d="M146.39 78.8563L135.836 73.6358L128.389 60.9962L123.184 63.5143L129.939 78.1158L147.005 87.9676L146.39 78.8563Z" fill="#3F3D56"/>
<path d="M122.563 153.576L119.245 153.576L117.667 144.01L122.564 144.011L122.563 153.576Z" fill="#FFB6B6"/>
<path d="M123.41 156.792L112.712 156.792V156.657C112.712 155.552 113.151 154.493 113.932 153.712C114.712 152.932 115.771 152.493 116.876 152.493H116.876L123.41 152.493L123.41 156.792Z" fill="#2F2E41"/>
<path d="M155.68 147.491L153.365 149.868L145.411 144.325L148.828 140.817L155.68 147.491Z" fill="#FFB6B6"/>
<path d="M158.573 149.129L151.109 156.792L151.012 156.698C150.221 155.927 149.769 154.874 149.754 153.77C149.74 152.666 150.164 151.601 150.935 150.81L150.935 150.81L155.494 146.129L158.573 149.129Z" fill="#2F2E41"/>
<path d="M126.665 96.6471H124.371C118.405 103.166 113.852 110.847 110.996 119.209L108.255 127.235L118.025 147.69L124.121 147.799L117.153 126.082L124.173 116.773L124.527 135.486L147.121 147.329L151.643 140.649L133.258 130.596L136.389 114.678C136.389 114.678 142.688 109.425 139.02 101.212L126.665 96.6471Z" fill="#2F2E41"/>
<path d="M156.865 75.8157L147.33 71.6395L136.835 76.2901C136.835 76.2901 133.863 77.9806 135.757 82.3105L124.37 96.6472C124.37 96.6472 124.391 96.6531 138.702 101.212L151.613 89.8422C153.574 88.1157 155.078 85.9327 155.994 83.4862C156.91 81.0398 157.209 78.4053 156.865 75.8157V75.8157Z" fill="#0D5FAA"/>
<path d="M155.265 71.5162C158.936 71.5162 161.911 68.5404 161.911 64.8696C161.911 61.1988 158.936 58.223 155.265 58.223C151.594 58.223 148.618 61.1988 148.618 64.8696C148.618 68.5404 151.594 71.5162 155.265 71.5162Z" fill="#FFB6B6"/>
<path d="M163.873 56.0493C162.348 54.8083 159.982 54.5373 158.407 55.715C155.661 54.2735 151.949 55.0254 149.98 57.4222C149.272 58.2847 148.77 59.4516 149.12 60.5112C149.471 61.5709 150.983 62.1939 151.771 61.4034L151.757 61.729C152.466 62.4398 152.958 63.3385 153.175 64.3193C153.392 65.3002 153.324 66.3225 152.979 67.2661C152.635 68.2097 152.028 69.0353 151.23 69.6459C150.433 70.2565 149.477 70.6267 148.477 70.713C150.655 71.5928 152.833 72.4727 155.011 73.3525C155.927 73.7228 156.873 74.0989 157.861 74.0938C158.849 74.0887 159.903 73.6085 160.286 72.6976C160.562 73.5429 160.838 74.3881 161.114 75.2334C162.737 72.6506 164.072 69.8976 165.096 67.0237C165.755 65.1712 166.288 63.2339 166.217 61.2687C166.146 59.3036 165.398 57.2902 163.873 56.0493Z" fill="#2F2E41"/>
<path d="M111.673 94.2175C114.363 94.2175 116.544 92.0366 116.544 89.3464C116.544 86.6562 114.363 84.4753 111.673 84.4753C108.983 84.4753 106.802 86.6562 106.802 89.3464C106.802 92.0366 108.983 94.2175 111.673 94.2175Z" fill="#CACACA"/>
<path d="M126.827 61.3507C129.517 61.3507 131.698 59.1698 131.698 56.4796C131.698 53.7894 129.517 51.6085 126.827 51.6085C124.137 51.6085 121.956 53.7894 121.956 56.4796C121.956 59.1698 124.137 61.3507 126.827 61.3507Z" fill="#0574BC"/>
<path d="M126.952 54.9512C126.898 55.3422 126.931 55.7403 127.047 56.1175C127.164 56.4946 127.361 56.8416 127.627 57.1341C127.892 57.4265 128.218 57.6573 128.582 57.8101C128.946 57.9629 129.339 58.034 129.733 58.0185L132.32 63.6203L136.107 62.8787L132.343 55.0191C132.273 54.3582 131.963 53.746 131.472 53.2984C130.981 52.8508 130.342 52.5989 129.678 52.5905C129.013 52.5822 128.369 52.8179 127.866 53.2529C127.364 53.688 127.039 54.2923 126.952 54.9512V54.9512Z" fill="#FFB6B6"/>
<path d="M153.155 76.1502L142.601 70.9298L135.154 58.2902L129.948 60.8082L136.704 75.4098L153.77 85.2615L153.155 76.1502Z" fill="#0D5FAA"/>
<path d="M182.522 157H0.477807C0.351085 157 0.229559 156.947 0.139953 156.854C0.0503471 156.76 0 156.633 0 156.5C0 156.367 0.0503471 156.24 0.139953 156.146C0.229559 156.053 0.351085 156 0.477807 156H182.522C182.649 156 182.77 156.053 182.86 156.146C182.95 156.24 183 156.367 183 156.5C183 156.633 182.95 156.76 182.86 156.854C182.77 156.947 182.649 157 182.522 157Z" fill="#CACACA"/>
</svg>
