<svg width="1080" height="1080" viewBox="0 0 1080 1080" fill="none" xmlns="http://www.w3.org/2000/svg">
<path d="M304.435 535.313L543.313 296.435L782.191 535.313L543.313 774.191L304.435 535.313Z" stroke="white" stroke-width="19"/>
<path fill-rule="evenodd" clip-rule="evenodd" d="M517.726 498.749L508.421 507.65C514.36 523.233 511.043 527.202 498.816 529.805L498.608 543.931C512.512 550.995 513.739 556.557 507.209 568.6L515.924 578.272C528.353 571.815 533.237 574.326 538.343 588.282L552.139 589.492C556.881 577.012 561.137 573.735 574.21 580.145L583.515 571.244C577.663 557.895 579.658 552.722 593.873 548.129L594.081 534.003C581.879 529.859 577.935 525.108 584.728 510.294L576.012 500.622C563.837 507.083 558.612 505.85 553.594 490.612L538.472 491.134C531.408 504.441 529.107 504.566 517.726 498.749ZM517.453 539.962C516.254 526.212 528.488 509.879 545.571 509.865C559.17 509.855 573.944 521.404 574.53 537.99C575.115 554.576 564.577 567.818 547.679 569.575C528.247 571.596 518.612 553.247 517.453 539.962Z" fill="white"/>
<path d="M546.408 562.923C557.927 562.525 568.4 551.753 567.949 538.984C567.498 526.214 556.291 516.191 544.773 516.589C533.004 516.995 524.339 527.973 524.78 540.475C525.221 552.977 534.639 563.33 546.408 562.923Z" stroke="white" stroke-width="5"/>
<path fill-rule="evenodd" clip-rule="evenodd" d="M596.547 562.482L587.242 571.383C593.18 586.965 589.863 590.935 577.636 593.538L577.428 607.663C591.333 614.728 592.56 620.289 586.029 632.333L594.744 642.005C607.173 635.548 612.057 638.058 617.163 652.014L630.959 653.224C635.702 640.744 639.957 637.468 653.03 643.877L662.335 634.976C656.483 621.627 658.478 616.455 672.693 611.862L672.901 597.736C660.7 593.591 656.755 588.84 663.548 574.026L654.833 564.355C642.658 570.815 637.433 569.582 632.414 554.345L617.292 554.867C610.228 568.174 607.928 568.299 596.547 562.482ZM596.274 603.694C595.074 589.944 607.309 573.611 624.392 573.598C637.99 573.587 652.765 585.136 653.35 601.722C653.936 618.308 643.397 631.551 626.499 633.308C607.067 635.328 597.432 616.979 596.274 603.694Z" fill="white"/>
<path d="M625.229 626.656C636.747 626.258 647.22 615.486 646.769 602.716C646.319 589.946 635.112 579.923 623.593 580.321C611.824 580.728 603.159 591.706 603.6 604.208C604.041 616.71 613.459 627.062 625.229 626.656Z" stroke="white" stroke-width="5"/>
<path fill-rule="evenodd" clip-rule="evenodd" d="M519.316 625.095L510.011 633.996C515.949 649.579 512.633 653.548 500.406 656.151L500.198 670.277C514.102 677.342 515.329 682.903 508.798 694.946L517.514 704.618C529.943 698.161 534.827 700.672 539.933 714.628L553.729 715.838C558.471 703.358 562.727 700.082 575.8 706.491L585.105 697.59C579.252 684.241 581.247 679.069 595.463 674.475L595.67 660.35C583.469 656.205 579.524 651.454 586.318 636.64L577.602 626.968C565.427 633.429 560.202 632.196 555.183 616.958L540.062 617.481C532.998 630.787 530.697 630.913 519.316 625.095ZM519.043 666.308C517.844 652.558 530.078 636.225 547.161 636.212C560.76 636.201 575.534 647.75 576.12 664.336C576.705 680.922 566.167 694.164 549.269 695.921C529.836 697.942 520.202 679.593 519.043 666.308Z" fill="white"/>
<path d="M547.981 688.77C559.218 688.381 569.48 677.846 569.039 665.347C568.598 652.848 557.618 643.046 546.38 643.435C534.942 643.83 526.436 654.519 526.869 666.804C527.303 679.088 536.543 689.165 547.981 688.77Z" stroke="white" stroke-width="4"/>
<path fill-rule="evenodd" clip-rule="evenodd" d="M434.765 564.063L426.626 574.02C434.439 588.77 431.637 593.11 419.821 597.168L421.355 611.213C436.026 616.549 437.929 621.921 432.93 634.662L442.772 643.211C454.313 635.304 459.47 637.206 466.257 650.443L480.099 649.981C483.269 637.022 487.089 633.257 500.854 638.042L508.994 628.085C501.54 615.542 502.883 610.167 516.427 603.894L514.893 589.849C502.272 587.206 497.771 582.966 502.689 567.444L492.847 558.895C481.559 566.775 476.221 566.181 469.363 551.662L454.418 554.004C449.046 568.063 446.778 568.465 434.765 564.063ZM439.571 605.002C436.687 591.499 446.818 573.812 463.772 571.739C477.268 570.089 493.355 579.771 495.979 596.163C498.603 612.554 489.774 626.969 473.219 630.75C454.18 635.098 442.357 618.048 439.571 605.002Z" fill="white"/>
<path d="M471.143 624.3C482.527 622.516 491.595 610.561 489.574 597.942C487.554 585.323 475.197 576.725 463.812 578.509C452.18 580.332 444.932 592.273 446.91 604.627C448.888 616.982 459.51 626.123 471.143 624.3Z" stroke="white" stroke-width="5"/>
<path d="M337 505L448.749 482.516C519.255 468.331 591.956 469.128 662.134 484.858L752 505" stroke="white" stroke-width="13"/>
<path d="M533 347H541C550.941 347 559 355.059 559 365V471H533V347Z" fill="white"/>
<path d="M582 395H589C598.941 395 607 403.059 607 413V479H582V395Z" fill="white"/>
<path d="M488 383H495C504.941 383 513 391.059 513 401V480H488V383Z" fill="white"/>
<path d="M626 422H634C643.941 422 652 430.059 652 440V483H626V422Z" fill="white"/>
<path d="M443 422H449C458.941 422 467 430.059 467 440V483H443V422Z" fill="white"/>
</svg>
