<svg width="48" height="47" viewBox="0 0 48 47" fill="none" xmlns="http://www.w3.org/2000/svg">
<circle cx="24.207" cy="23.5" r="23.5" fill="white"/>
<path d="M30.457 10H17.957C14.5053 10 11.707 12.9953 11.707 16.6901V30.0704C11.707 33.7653 14.5053 36.7606 17.957 36.7606H30.457C33.9088 36.7606 36.707 33.7653 36.707 30.0704V16.6901C36.707 12.9953 33.9088 10 30.457 10Z" fill="white" stroke="#0D5FAA" stroke-width="4" stroke-linecap="round" stroke-linejoin="round"/>
<path d="M29.2076 22.5375C29.3619 23.6511 29.1842 24.7884 28.6998 25.7876C28.2155 26.7868 27.4491 27.5971 26.5097 28.1033C25.5703 28.6094 24.5057 28.7856 23.4674 28.6067C22.429 28.4279 21.4698 27.9031 20.7262 27.1071C19.9825 26.3111 19.4923 25.2843 19.3252 24.1729C19.1581 23.0614 19.3227 21.9219 19.7955 20.9163C20.2684 19.9108 21.0254 19.0904 21.9589 18.5719C22.8924 18.0534 23.9548 17.8632 24.9951 18.0284C26.0563 18.1968 27.0387 18.7261 27.7972 19.5381C28.5558 20.35 29.0503 21.4016 29.2076 22.5375Z" fill="white" stroke="#0D5FAA" stroke-width="4" stroke-linecap="round" stroke-linejoin="round"/>
<path d="M31.082 16.0212H31.0945" stroke="#0D5FAA" stroke-width="4" stroke-linecap="round" stroke-linejoin="round"/>
</svg>
