<svg width="66" height="65" viewBox="0 0 66 65" fill="none" xmlns="http://www.w3.org/2000/svg">
<circle cx="32.9998" cy="32.0838" r="32.0838" fill="#0D5FAA"/>
<path d="M41.3144 13H24.4381C19.7779 13 16 17.0894 16 22.1339V40.4016C16 45.446 19.7779 49.5354 24.4381 49.5354H41.3144C45.9747 49.5354 49.7526 45.446 49.7526 40.4016V22.1339C49.7526 17.0894 45.9747 13 41.3144 13Z" fill="#0D5FAA" stroke="white" stroke-width="4" stroke-linecap="round" stroke-linejoin="round"/>
<path d="M39.6272 30.1171C39.8354 31.6375 39.5955 33.1902 38.9416 34.5544C38.2876 35.9186 37.2529 37.0249 35.9847 37.7159C34.7164 38.4069 33.2791 38.6475 31.8773 38.4033C30.4754 38.1591 29.1804 37.4427 28.1764 36.3559C27.1724 35.2691 26.5105 33.8673 26.285 32.3498C26.0594 30.8324 26.2816 29.2766 26.9199 27.9038C27.5583 26.5309 28.5803 25.4109 29.8406 24.703C31.1009 23.9951 32.5354 23.7354 33.9399 23.9609C35.3726 24.1908 36.6989 24.9135 37.723 26.022C38.7471 27.1306 39.4147 28.5663 39.6272 30.1171Z" fill="#0D5FAA" stroke="white" stroke-width="4" stroke-linecap="round" stroke-linejoin="round"/>
<path d="M42.1582 21.2207H42.1753" stroke="white" stroke-width="4" stroke-linecap="round" stroke-linejoin="round"/>
</svg>
