<svg width="128" height="128" viewBox="0 0 128 128" fill="none" xmlns="http://www.w3.org/2000/svg">
<circle cx="63.924" cy="63.8693" r="63.5725" fill="#0D5FAA"/>
<path d="M39.4497 87.9314C38.0692 87.9339 36.6945 87.7446 35.3618 87.3684C31.3617 86.1776 27.968 83.3976 25.9088 79.6249C23.8497 75.8521 23.2891 71.3871 24.3473 67.1878L30.9617 40.9915C31.4768 38.8715 32.3926 36.8802 33.6552 35.1347C34.9178 33.3892 36.5018 31.9247 38.3142 30.8272C40.0788 29.7602 42.0288 29.0694 44.051 28.7947C46.0733 28.52 48.1277 28.6669 50.0951 29.2269C52.1866 29.8332 54.1346 30.8864 55.8156 32.3199C57.4967 33.7533 58.8741 35.5357 59.8606 37.554H67.2414C68.2237 35.5325 69.5997 33.7475 71.2814 32.3135C72.9631 30.8795 74.9132 29.8282 77.0069 29.2269C78.9743 28.6669 81.0287 28.52 83.051 28.7947C85.0732 29.0694 87.0232 29.7602 88.7878 30.8272C90.5914 31.9219 92.1696 33.3784 93.4315 35.1127C94.6934 36.847 95.614 38.8249 96.1403 40.9323L102.755 67.1878C103.829 71.3993 103.273 75.8829 101.206 79.6699C99.1402 83.457 95.7297 86.2436 91.7118 87.4277C89.7443 87.9877 87.69 88.1346 85.6677 87.8599C83.6454 87.5853 81.6955 86.8944 79.9308 85.8275C78.1243 84.7366 76.5438 83.2813 75.2815 81.5464C74.0192 79.8115 73.1003 77.8317 72.5784 75.7223L72.0674 73.1146H55.0346L54.3817 75.6631C53.8598 77.7724 52.9409 79.7523 51.6786 81.4872C50.4163 83.2221 48.8358 84.6773 47.0293 85.7682C44.7227 87.1569 42.1123 87.902 39.4497 87.9314ZM46.0357 34.5906C44.3226 34.5967 42.6403 35.0664 41.153 35.9538C38.8219 37.3815 37.1275 39.715 36.4406 42.4436L29.8262 68.6399C29.1341 71.3387 29.4838 74.2133 30.8002 76.6459C32.1167 79.0785 34.2947 80.8749 36.8664 81.6491C38.1084 82.0027 39.4052 82.0958 40.6819 81.9228C41.9585 81.7499 43.1896 81.3144 44.304 80.6415C45.4642 79.9423 46.4788 79.008 47.2881 77.8935C48.0974 76.7789 48.685 75.5068 49.0164 74.1517L50.7765 67.1878H76.3256L78.0572 74.1517C78.3945 75.5042 78.9844 76.7737 79.7931 77.8874C80.6018 79.0012 81.6134 79.9371 82.7696 80.6415C83.8895 81.3137 85.1253 81.7487 86.4065 81.9216C87.6876 82.0945 88.9888 82.0019 90.2356 81.6491C92.8104 80.8821 94.9911 79.0855 96.3041 76.6496C97.617 74.2136 97.956 71.3352 97.2474 68.6399L90.6331 42.4436C90.3035 41.0917 89.7197 39.8217 88.9155 38.7076C88.1114 37.5934 87.103 36.6573 85.9491 35.9538C84.8292 35.2816 83.5933 34.8466 82.3122 34.6737C81.0311 34.5008 79.7298 34.5934 78.483 34.9463C76.9411 35.4051 75.5264 36.2413 74.3562 37.3855C73.1861 38.5297 72.2944 39.9488 71.7551 41.525L71.0738 43.4808H56.0282L55.3469 41.525C54.8029 39.9467 53.9061 38.5266 52.7311 37.3824C51.5561 36.2383 50.1367 35.4032 48.5906 34.9463C47.7575 34.7118 46.8985 34.5922 46.0357 34.5906Z" fill="white"/>
<path d="M46.5194 58.2988C45.3965 58.2988 44.2988 57.9512 43.3651 57.3C42.4314 56.6487 41.7037 55.7231 41.274 54.6401C40.8443 53.5572 40.7318 52.3655 40.9509 51.2158C41.17 50.0661 41.7107 49.0101 42.5047 48.1812C43.2987 47.3524 44.3104 46.7879 45.4117 46.5592C46.5131 46.3305 47.6547 46.4479 48.6921 46.8965C49.7295 47.345 50.6163 48.1047 51.2401 49.0793C51.864 50.054 52.197 51.1999 52.197 52.3721C52.197 53.9439 51.5988 55.4514 50.534 56.5629C49.4693 57.6744 48.0252 58.2988 46.5194 58.2988Z" fill="white"/>
<path d="M80.5829 49.4072C82.1508 49.4072 83.4217 48.0805 83.4217 46.4438C83.4217 44.8072 82.1508 43.4805 80.5829 43.4805C79.0151 43.4805 77.7441 44.8072 77.7441 46.4438C77.7441 48.0805 79.0151 49.4072 80.5829 49.4072Z" fill="white"/>
<path d="M80.5829 61.2617C82.1508 61.2617 83.4217 59.935 83.4217 58.2983C83.4217 56.6617 82.1508 55.335 80.5829 55.335C79.0151 55.335 77.7441 56.6617 77.7441 58.2983C77.7441 59.935 79.0151 61.2617 80.5829 61.2617Z" fill="white"/>
<path d="M74.9111 55.335C76.4789 55.335 77.7498 54.0082 77.7498 52.3716C77.7498 50.735 76.4789 49.4082 74.9111 49.4082C73.3432 49.4082 72.0723 50.735 72.0723 52.3716C72.0723 54.0082 73.3432 55.335 74.9111 55.335Z" fill="white"/>
<path d="M86.2607 55.335C87.8285 55.335 89.0995 54.0082 89.0995 52.3716C89.0995 50.735 87.8285 49.4082 86.2607 49.4082C84.6928 49.4082 83.4219 50.735 83.4219 52.3716C83.4219 54.0082 84.6928 55.335 86.2607 55.335Z" fill="white"/>
</svg>
