<svg width="65" height="65" viewBox="0 0 65 65" fill="none" xmlns="http://www.w3.org/2000/svg">
<circle cx="32.9159" cy="32.4491" r="32.0838" fill="#0D5FAA"/>
<path d="M39.6277 22.9609C42.3133 22.9609 44.8888 24.1157 46.7878 26.1712C48.6867 28.2267 49.7535 31.0146 49.7535 33.9215V46.7087H43.003V33.9215C43.003 32.9525 42.6474 32.0232 42.0144 31.338C41.3814 30.6529 40.5229 30.268 39.6277 30.268C38.7326 30.268 37.8741 30.6529 37.2411 31.338C36.6081 32.0232 36.2525 32.9525 36.2525 33.9215V46.7087H29.502V33.9215C29.502 31.0146 30.5688 28.2267 32.4677 26.1712C34.3667 24.1157 36.9422 22.9609 39.6277 22.9609Z" fill="white" stroke="white" stroke-width="2" stroke-linecap="round" stroke-linejoin="round"/>
<path d="M22.7515 24.7876H16.001V46.7087H22.7515V24.7876Z" fill="white" stroke="white" stroke-width="2" stroke-linecap="round" stroke-linejoin="round"/>
<path d="M19.3753 19.3071C21.2394 19.3071 22.7506 17.6714 22.7506 15.6536C22.7506 13.6358 21.2394 12 19.3753 12C17.5112 12 16 13.6358 16 15.6536C16 17.6714 17.5112 19.3071 19.3753 19.3071Z" fill="white" stroke="white" stroke-width="2" stroke-linecap="round" stroke-linejoin="round"/>
</svg>
