<svg width="48" height="47" viewBox="0 0 48 47" fill="none" xmlns="http://www.w3.org/2000/svg">
<circle cx="24.207" cy="23.5" r="23.5" fill="white"/>
<path d="M29.207 19.0281C31.1962 19.0281 33.1038 19.8739 34.5103 21.3795C35.9169 22.885 36.707 24.927 36.707 27.0562V36.4224H31.707V27.0562C31.707 26.3465 31.4436 25.6658 30.9748 25.164C30.506 24.6621 29.8701 24.3802 29.207 24.3802C28.544 24.3802 27.9081 24.6621 27.4393 25.164C26.9704 25.6658 26.707 26.3465 26.707 27.0562V36.4224H21.707V27.0562C21.707 24.927 22.4972 22.885 23.9037 21.3795C25.3103 19.8739 27.2179 19.0281 29.207 19.0281Z" fill="#0D5FAA" stroke="#0D5FAA" stroke-width="2" stroke-linecap="round" stroke-linejoin="round"/>
<path d="M16.707 20.3662H11.707V36.4225H16.707V20.3662Z" fill="#0D5FAA" stroke="#0D5FAA" stroke-width="2" stroke-linecap="round" stroke-linejoin="round"/>
<path d="M14.207 16.3521C15.5877 16.3521 16.707 15.154 16.707 13.6761C16.707 12.1981 15.5877 11 14.207 11C12.8263 11 11.707 12.1981 11.707 13.6761C11.707 15.154 12.8263 16.3521 14.207 16.3521Z" fill="#0D5FAA" stroke="#0D5FAA" stroke-width="2" stroke-linecap="round" stroke-linejoin="round"/>
</svg>
