<?xml version="1.0" encoding="UTF-8"?>
<svg version="1.1" xmlns="http://www.w3.org/2000/svg" width="1514" height="1514">
<path d="M0 0 C3.50352498 1.65388785 5.77893898 3.53463831 8.52591705 6.29378796 C9.88746233 7.65398533 9.88746233 7.65398533 11.27651358 9.04166144 C12.28000825 10.05431685 13.28341495 11.06705943 14.28674316 12.07987976 C15.35523229 13.15107655 16.42416978 14.22182627 17.4935174 15.29216605 C20.43425194 18.2381404 23.36871969 21.19028939 26.30226064 24.14342463 C29.46561581 27.32567235 32.63480065 30.50210416 35.8033905 33.67913818 C41.29399749 39.18576325 46.78120534 44.69575652 52.2664032 50.20776939 C60.93089142 58.91412678 69.60512881 67.61073427 78.28088379 76.30586243 C81.24745989 79.27931848 84.21395985 82.25285048 87.18042755 85.22641468 C87.92176189 85.96952067 88.66309622 86.71262666 89.42689523 87.47825101 C97.86601143 95.9378644 106.30279394 104.3998037 114.73876953 112.86254883 C115.51002751 113.63624936 116.28128549 114.40994989 117.07591492 115.2070959 C129.58682662 127.75805302 142.09181933 140.3148956 154.59553152 152.87302449 C167.42353946 165.75638169 180.26109685 178.63017206 193.10679197 191.49589378 C201.03580414 199.43800934 208.95669515 207.38805811 216.86746728 215.34834263 C222.28395159 220.79743828 227.70936865 226.23752966 233.14202321 231.6705037 C236.28005524 234.80930548 239.41376631 237.95213874 242.5367794 241.10589027 C245.39191491 243.98897063 248.25817836 246.86046404 251.13399333 249.72291324 C252.17601865 250.76420908 253.21375958 251.80981236 254.24688274 252.85994109 C255.64444404 254.27929392 257.05880059 255.68205222 258.47408295 257.08373547 C259.64872298 258.26284961 259.64872298 258.26284961 260.84709311 259.46578425 C262.85448687 261.24647274 262.85448687 261.24647274 265.15471411 260.81688625 C267.34572295 259.84695254 269.25706377 258.70900015 271.25512695 257.38305664 C272.08732254 256.83480728 272.91951813 256.28655792 273.77693176 255.72169495 C275.11904976 254.82498329 275.11904976 254.82498329 276.48828125 253.91015625 C277.42367233 253.29160263 278.35906342 252.67304901 279.32279968 252.03575134 C282.3229317 250.04998775 285.31774179 248.05635631 288.3125 246.0625 C290.28676679 244.75404023 292.26137272 243.44609203 294.23632812 242.13867188 C302.57122046 236.61723668 310.89153323 231.07402209 319.20703125 225.5234375 C325.23816159 221.49803339 331.29678497 217.51642159 337.375 213.5625 C338.36193848 212.91982178 339.34887695 212.27714355 340.36572266 211.61499023 C343.24304513 209.74213949 346.12130351 207.87073792 349 206 C349.75539063 205.50886719 350.51078125 205.01773438 351.2890625 204.51171875 C370.09302899 192.29266187 388.96741773 180.1727532 407.97753906 168.27661133 C409.37783296 167.39272229 410.7699519 166.49579838 412.15527344 165.58862305 C412.85297852 165.13656494 413.55068359 164.68450684 414.26953125 164.21875 C414.88803955 163.81205078 415.50654785 163.40535156 416.14379883 162.98632812 C419.8026689 161.04211727 421.90878839 161.14216531 426 162 C427.47558594 163.4909668 427.47558594 163.4909668 428.859375 165.44921875 C429.3745166 166.17633057 429.8896582 166.90344238 430.42041016 167.65258789 C452.06072386 199.81203399 473.25165644 236.54815972 465.41137695 276.87573242 C461.78342607 294.33919279 453.12644567 310.13729232 439.5625 321.75 C424.48238607 335.13830059 416.49294525 356.63358772 414.6875 376.42578125 C414.5149722 384.91199225 415.18051999 393.41479894 421 400 C426.51418598 404.46983257 432.62039759 404.61509171 439.49609375 404.3671875 C456.89197497 402.54420775 471.81783529 389.27809777 483.6171875 377.35546875 C490.00690044 371.03908038 490.00690044 371.03908038 495.1875 370.9375 C498.80547242 372.30428958 499.27636903 373.59041305 501 377 C507.75298178 397.37010553 505.79082237 424.65836842 500 445 C499.81808105 445.66692871 499.63616211 446.33385742 499.44873047 447.02099609 C496.38817489 457.99687593 491.47910082 468.40032444 485.69921875 478.20703125 C484.75340295 480.63233546 485.08784337 481.56107074 486 484 C487.90168523 486.35003838 487.90168523 486.35003838 490.37097263 488.74011612 C490.83136412 489.20396914 491.29175561 489.66782216 491.76609835 490.14573133 C493.31915566 491.70676413 494.88273182 493.2568179 496.44642639 494.80718994 C497.56987649 495.93194763 498.69266739 497.05736407 499.81485265 498.1833837 C502.90709837 501.2823556 506.00865135 504.37186531 509.11175883 507.45995569 C512.4539279 510.7891994 515.78745375 514.12707723 519.12202454 517.46392822 C524.90279423 523.24627286 530.68904225 529.02308849 536.47902107 534.79621124 C544.85040266 543.14323747 553.21351246 551.49851091 561.5746104 559.8558366 C575.13933986 573.41399613 588.71075876 586.96543919 602.28637695 600.51269531 C615.47575804 613.67454983 628.66199239 626.83954374 641.84399414 640.00878906 C642.65619421 640.82020097 643.46839429 641.63161287 644.30520649 642.46761301 C648.37965478 646.53814626 652.45404115 650.60874149 656.52839673 654.67936754 C690.3426684 688.46252646 724.16779429 722.23480183 758 756 C756.42330449 759.85164597 753.8250998 762.45295311 750.91693294 765.33146405 C750.12770138 766.12452987 750.12770138 766.12452987 749.32252575 766.93361722 C747.54587684 768.71642541 745.76214643 770.49197691 743.97840691 772.26768875 C742.68975667 773.55781751 741.40154554 774.84838499 740.11373585 776.1393528 C736.55075635 779.70849509 732.98152605 783.27132996 729.41130543 786.83322695 C725.53700627 790.70067912 721.66849164 794.57390985 717.79925835 798.44642901 C711.0096356 805.24020725 704.21628925 812.03024441 697.42052841 818.81788254 C687.31541637 828.91094975 677.21601772 839.00971927 667.1178056 849.10968933 C650.13288766 866.09742406 633.14313021 883.08031182 616.15081406 900.06064606 C599.31991102 916.87970932 582.49107478 933.70083618 565.66501236 950.52474213 C564.881551 951.30810025 564.881551 951.30810025 564.08226214 952.10728379 C559.31187746 956.87704208 554.54151829 961.64682587 549.77118971 966.41664027 C537.91201097 978.27454012 526.05251236 990.13212002 514.19279671 1001.98948288 C513.65269635 1002.5294766 513.112596 1003.06947032 512.55612896 1003.62582749 C486.27516477 1029.90154702 459.99051607 1056.17357994 433.70556641 1082.4453125 C424.58264897 1091.56364667 415.45974781 1100.68199713 406.33691406 1109.80041504 C405.48823019 1110.64868807 405.48823019 1110.64868807 404.62240118 1111.51409792 C378.32656326 1137.79725067 352.03334114 1164.08301959 325.74079463 1190.36946488 C324.03412963 1192.07573375 322.32746351 1193.78200149 320.62079715 1195.488269 C309.3107527 1206.79567392 298.00075337 1218.10312395 286.69078424 1229.41060419 C264.18622475 1251.91021051 241.6814002 1274.40955169 219.17639358 1296.90871076 C218.10461566 1297.9802102 217.03283793 1299.05170982 215.96106039 1300.12320963 C158.09590652 1357.97336481 100.22616849 1415.81893362 2 1514 C-1.85164597 1512.42330449 -4.45295311 1509.8250998 -7.33146405 1506.91693294 C-8.12452987 1506.12770138 -8.12452987 1506.12770138 -8.93361722 1505.32252575 C-10.71642541 1503.54587684 -12.49197691 1501.76214643 -14.26768875 1499.97840691 C-15.55781751 1498.68975667 -16.84838499 1497.40154554 -18.1393528 1496.11373585 C-21.70849509 1492.55075635 -25.27132996 1488.98152605 -28.83322695 1485.41130543 C-32.70067912 1481.53700627 -36.57390985 1477.66849164 -40.44642901 1473.79925835 C-47.24020725 1467.0096356 -54.03024441 1460.21628925 -60.81788254 1453.42052841 C-70.91094975 1443.31541637 -81.00971927 1433.21601772 -91.10968933 1423.1178056 C-108.09742406 1406.13288766 -125.08031182 1389.14313021 -142.06064606 1372.15081406 C-158.87970932 1355.31991102 -175.70083618 1338.49107478 -192.52474213 1321.66501236 C-193.30810025 1320.881551 -193.30810025 1320.881551 -194.10728379 1320.08226214 C-198.87704208 1315.31187746 -203.64682587 1310.54151829 -208.41664027 1305.77118971 C-220.27454012 1293.91201097 -232.13212002 1282.05251236 -243.98948288 1270.19279671 C-244.5294766 1269.65269635 -245.06947032 1269.112596 -245.62582749 1268.55612896 C-271.90154702 1242.27516477 -298.17357994 1215.99051607 -324.4453125 1189.70556641 C-333.56364667 1180.58264897 -342.68199713 1171.45974781 -351.80041504 1162.33691406 C-352.64868807 1161.48823019 -352.64868807 1161.48823019 -353.51409792 1160.62240118 C-379.79725067 1134.32656326 -406.08301959 1108.03334114 -432.36946488 1081.74079463 C-434.07573375 1080.03412963 -435.78200149 1078.32746351 -437.488269 1076.62079715 C-448.79567392 1065.3107527 -460.10312395 1054.00075337 -471.41060419 1042.69078424 C-493.91021051 1020.18622475 -516.40955169 997.6814002 -538.90871076 975.17639358 C-539.9802102 974.10461566 -541.05170982 973.03283793 -542.12320963 971.96106039 C-599.97336481 914.09590652 -657.81893362 856.22616849 -756 758 C-754.42330449 754.14835403 -751.8250998 751.54704689 -748.91693294 748.66853595 C-748.12770138 747.87547013 -748.12770138 747.87547013 -747.32252575 747.06638278 C-745.54587684 745.28357459 -743.76214643 743.50802309 -741.97840691 741.73231125 C-740.68975667 740.44218249 -739.40154554 739.15161501 -738.11373585 737.8606472 C-734.55075635 734.29150491 -730.98152605 730.72867004 -727.41130543 727.16677305 C-723.53700627 723.29932088 -719.66849164 719.42609015 -715.79925835 715.55357099 C-709.0096356 708.75979275 -702.21628925 701.96975559 -695.42052841 695.18211746 C-685.31541637 685.08905025 -675.21601772 674.99028073 -665.1178056 664.89031067 C-648.13288766 647.90257594 -631.14313021 630.91968818 -614.15081406 613.93935394 C-597.31991102 597.12029068 -580.49107478 580.29916382 -563.66501236 563.47525787 C-563.14270479 562.95301913 -562.62039722 562.43078038 -562.08226214 561.89271621 C-557.31187746 557.12295792 -552.54151829 552.35317413 -547.77118971 547.58335973 C-535.91201097 535.72545988 -524.05251236 523.86787998 -512.19279671 512.01051712 C-511.65269635 511.4705234 -511.112596 510.93052968 -510.55612896 510.37417251 C-484.27516477 484.09845298 -457.99051607 457.82642006 -431.70556641 431.5546875 C-422.58264897 422.43635333 -413.45974781 413.31800287 -404.33691406 404.19958496 C-403.77112481 403.63406961 -403.20533556 403.06855426 -402.62240118 402.48590208 C-376.32656326 376.20274933 -350.03334114 349.91698041 -323.74079463 323.63053512 C-322.03412963 321.92426625 -320.32746351 320.21799851 -318.62079715 318.511731 C-307.3107527 307.20432608 -296.00075337 295.89687605 -284.69078424 284.58939581 C-262.18622475 262.08978949 -239.6814002 239.59044831 -217.17639358 217.09128924 C-216.10461566 216.0197898 -215.03283793 214.94829018 -213.96106039 213.87679037 C-156.09590652 156.02663519 -98.22616849 98.18106638 0 0 Z M-2.02242119 83.77307886 C-2.86315675 84.61412638 -3.70389232 85.45517391 -4.57010472 86.32170773 C-5.04070491 86.78975174 -5.51130509 87.25779576 -5.99616589 87.74002292 C-7.59298138 89.33064805 -9.18249021 90.92838661 -10.77220345 92.52610779 C-11.92356654 93.67599329 -13.07536832 94.8254397 -14.22757179 95.97448313 C-17.42075992 99.1614938 -20.60761675 102.35477272 -23.793558 105.54902561 C-27.24998966 109.01229225 -30.71218631 112.46978714 -34.17368019 115.92799282 C-40.24889567 121.99904903 -46.32036207 128.0738348 -52.38943863 134.15102768 C-61.41404899 143.18767344 -70.44435113 152.21861502 -79.47586024 161.24836531 C-94.66573465 176.43560749 -109.85093659 191.62751347 -125.03351212 206.822052 C-140.07352489 221.87388515 -155.1155911 236.92366011 -170.16042709 251.97067261 C-170.62731011 252.43762445 -171.09419314 252.9045763 -171.57522413 253.3856782 C-175.83935499 257.65043544 -180.10351135 261.91516719 -184.36769832 266.17986834 C-194.96895337 276.78240234 -205.56988848 287.38525619 -216.17060661 297.98832703 C-216.65339058 298.47121763 -217.13617454 298.95410822 -217.63358832 299.45163187 C-241.12986504 322.9531542 -264.62245529 346.45836063 -288.11474609 369.96386719 C-296.2691724 378.12287673 -304.42361499 386.28187001 -312.578125 394.4407959 C-313.0838545 394.9467993 -313.589584 395.45280269 -314.11063863 395.97413953 C-337.61181035 419.48799464 -361.11559677 442.99923546 -384.62005992 466.50980041 C-386.14560577 468.03574238 -387.67115049 469.56168549 -389.19669498 471.08762883 C-399.30638715 481.19996051 -409.41612442 491.31224709 -419.52589191 501.42450347 C-439.64257343 521.54613826 -459.75898987 541.66803807 -479.87522424 561.7901199 C-480.83325581 562.74842995 -481.79128756 563.70673981 -482.74931949 564.66504948 C-546.50434865 628.43856601 -610.25273167 692.21872596 -674 756 C-672.6093171 758.88868989 -671.2794075 760.9699231 -669.00524712 763.24084854 C-668.07965754 764.17241126 -668.07965754 764.17241126 -667.13536918 765.12279344 C-666.45638796 765.79594897 -665.77740675 766.4691045 -665.07785034 767.16265869 C-664.35743628 767.88478161 -663.63702221 768.60690452 -662.89477742 769.35090995 C-660.47348282 771.77550541 -658.04509675 774.19287172 -655.61669922 776.61035156 C-653.88200664 778.34448016 -652.14775402 780.07904895 -650.41390991 781.81402588 C-646.6769239 785.5514677 -642.93689044 789.28581901 -639.19405746 793.01740265 C-633.78255762 798.41264844 -628.37658881 803.81340839 -622.971954 809.21553013 C-614.20314633 817.97996055 -605.42988162 826.73991534 -596.65380859 835.49707031 C-588.12867954 844.00384135 -579.60565357 852.51271043 -571.08544922 861.02441406 C-570.56026344 861.54907439 -570.03507767 862.07373472 -569.49397717 862.61429384 C-566.85928752 865.24637343 -564.22463917 867.87849436 -561.59001136 870.51063585 C-539.73307529 892.34683849 -517.86882999 914.17570876 -496 936 C-492.83788251 934.77193982 -490.19279554 933.60773295 -487.50390625 931.53125 C-486.87073486 931.04817383 -486.23756348 930.56509766 -485.58520508 930.06738281 C-484.58396606 929.29152832 -484.58396606 929.29152832 -483.5625 928.5 C-482.12083048 927.39967925 -480.67810492 926.3007409 -479.234375 925.203125 C-478.51701172 924.65720703 -477.79964844 924.11128906 -477.06054688 923.54882812 C-474.18546745 921.38774947 -471.25450937 919.31926018 -468.3125 917.25 C-460.44371458 911.69353814 -452.82520153 905.81075862 -445.1796875 899.953125 C-441.37477351 897.04044589 -437.5446602 894.16584336 -433.69335938 891.31494141 C-425.16791628 884.99797365 -416.98949445 878.3073798 -408.8359375 871.52001953 C-406.45415498 869.54808097 -404.04438222 867.61305262 -401.625 865.6875 C-388.83252395 855.5008987 -376.3291591 844.99370931 -364.21875 834.00390625 C-362.20691607 832.18688018 -360.17339566 830.40055608 -358.125 828.625 C-352.65587616 823.85313498 -347.32878862 818.92706599 -342 814 C-341.42977112 813.47300507 -340.85954224 812.94601013 -340.27203369 812.40304565 C-329.94337153 802.83775024 -319.86002866 793.04637441 -309.90649414 783.09179688 C-307.54527655 780.73279269 -305.17611187 778.38196039 -302.80664062 776.03125 C-295.07955101 768.332561 -287.64786712 760.66505455 -281 752 C-280.26467041 751.13987305 -279.52934082 750.27974609 -278.77172852 749.39355469 C-276.70252447 747.09444235 -276.70252447 747.09444235 -277 744 C-285.85399874 741.29252809 -294.82691348 739.66904263 -303.92755127 738.06860352 C-340.12985555 731.67027782 -375.12666561 722.7993738 -404.6796875 699.78613281 C-407.16310013 697.8744486 -409.68554115 696.024807 -412.21875 694.1796875 C-429.1769665 681.73199427 -443.25964786 668.0730533 -455.55566406 650.99121094 C-456.9436885 649.07763296 -458.36799582 647.19749446 -459.8046875 645.3203125 C-460.64215018 644.19384061 -461.47818197 643.06630294 -462.3125 641.9375 C-463.03050781 640.97714844 -463.74851562 640.01679687 -464.48828125 639.02734375 C-466.47982356 635.03911303 -466.28038503 632.4148762 -466 628 C-465.0927417 627.89977539 -464.1854834 627.79955078 -463.25073242 627.69628906 C-457.25793247 627.03371939 -451.26515556 626.37103908 -445.27319336 625.70092773 C-443.59098412 625.51284874 -441.90877382 625.32477919 -440.2265625 625.13671875 C-438.94921989 624.99386696 -438.94921989 624.99386696 -437.64607239 624.84812927 C-432.78705688 624.30613974 -427.92701536 623.77561271 -423.06539917 623.25749207 C-365.56788484 617.12051488 -310.28504648 603.02085766 -258 578 C-257.2992334 577.66548828 -256.5984668 577.33097656 -255.87646484 576.98632812 C-251.20660807 574.74059433 -246.59021995 572.40395979 -242 570 C-241.34580078 569.66033203 -240.69160156 569.32066406 -240.01757812 568.97070312 C-229.20947082 563.30830934 -219.50637692 556.63774773 -210 549 C-209.10716309 548.28287842 -209.10716309 548.28287842 -208.19628906 547.55126953 C-196.06720691 537.69850425 -184.84289853 526.69088146 -174.62768555 514.87060547 C-172.3507569 512.25386222 -169.98924552 509.72569151 -167.625 507.1875 C-163.40725913 502.61702095 -159.3904736 497.9306113 -155.4921875 493.08203125 C-153.62130916 490.76835882 -151.73268121 488.47813421 -149.8203125 486.19921875 C-125.74090979 457.44443563 -105.38545102 426.11219005 -87.39453125 393.25 C-75.19066562 371.00804673 -75.19066562 371.00804673 -66 367 C-62.63975143 366.20249367 -62.63975143 366.20249367 -58.92498779 365.60244751 C-58.24263077 365.48971866 -57.56027375 365.37698982 -56.85723925 365.26084495 C-54.60260143 364.89133603 -52.34593772 364.53645023 -50.08886719 364.18212891 C-48.47757191 363.92219487 -46.86637147 363.6616723 -45.25526047 363.40059853 C-27.93174581 360.61085988 -10.57507198 358.03291889 6.78391171 355.47513533 C11.32127948 354.8057046 15.85802657 354.13209233 20.39483643 353.45889282 C30.87868223 351.90388733 41.36323486 350.35368219 51.84786987 348.80400848 C65.2351768 346.82502477 78.62210627 344.84349799 92.00847173 342.85815585 C96.48874175 342.19381378 100.96914932 341.53043154 105.44991302 340.86942673 C128.72431676 337.44172708 128.72431676 337.44172708 151.96582031 333.79931641 C153.38588442 333.57621575 153.38588442 333.57621575 154.83463669 333.34860802 C168.67783955 331.05707244 178.59549345 322.95797878 189.59619141 314.77294922 C192.04025813 312.97030728 194.5055062 311.20134732 196.98046875 309.44140625 C197.78983887 308.86463135 198.59920898 308.28785645 199.43310547 307.69360352 C200.97837275 306.59371442 202.5254731 305.49639446 204.07470703 304.40209961 C204.77837402 303.89815674 205.48204102 303.39421387 206.20703125 302.875 C207.12705933 302.22144531 207.12705933 302.22144531 208.06567383 301.5546875 C210.56376092 299.54688508 212.74655998 297.27591415 215 295 C187.90494903 267.8592163 160.804665 240.72366855 133.69730709 213.59517643 C130.50031515 210.39568294 127.30336677 207.19614594 124.10644531 203.99658203 C123.15173082 203.04108061 123.15173082 203.04108061 122.17772917 202.06627613 C111.85894897 191.73878261 101.54370517 181.40776376 91.22975369 171.0754481 C80.65425971 160.4812808 70.07499817 149.8908869 59.49219644 139.30401945 C52.95705802 132.76613063 46.4249105 126.22528223 39.89650403 119.6806711 C35.42535264 115.19898449 30.95056198 110.72095346 26.47283722 106.24583447 C23.8857939 103.66007786 21.30043861 101.07268813 18.7193737 98.48096275 C15.92721763 95.6773581 13.1274441 92.88144358 10.32681274 90.08630371 C9.09239329 88.84314573 9.09239329 88.84314573 7.83303607 87.57487345 C7.08709071 86.83291019 6.34114536 86.09094693 5.5725956 85.32649994 C4.92631159 84.6794565 4.28002759 84.03241305 3.61415923 83.36576223 C1.10341649 81.24138841 0.4148917 81.63625989 -2.02242119 83.77307886 Z M115.29296875 375.3984375 C113.84969954 375.71167873 112.40633481 376.02448009 110.96289062 376.33691406 C110.18792236 376.50549927 109.4129541 376.67408447 108.61450195 376.84777832 C95.67247241 379.65919697 82.7119891 382.27675966 69.67578125 384.6171875 C67.85302925 384.94600418 67.85302925 384.94600418 65.99345398 385.28146362 C59.93388448 386.3722389 53.87187844 387.44579031 47.80541992 388.49755859 C45.55768893 388.89890463 43.31004481 389.30073763 41.0625 389.703125 C40.03276566 389.8758493 39.00303131 390.04857361 37.9420929 390.22653198 C30.69031692 391.54457992 25.96382125 393.54789459 20.88671875 399.06640625 C20.3656958 399.6286792 19.84467285 400.19095215 19.30786133 400.77026367 C18.77314209 401.36170166 18.23842285 401.95313965 17.6875 402.5625 C17.11990967 403.18165283 16.55231934 403.80080566 15.9675293 404.4387207 C11.87024962 408.94416295 7.98553734 413.59390098 4.18359375 418.3515625 C1.8441435 421.18903526 -0.61879214 423.87162419 -3.125 426.5625 C-11.20757812 434.63212914 -11.20757812 434.63212914 -15.1796875 444.7890625 C-15.12039063 445.51867187 -15.06109375 446.24828125 -15 447 C-11.35683225 449.37030496 -8.92212228 448.98128859 -4.72192383 448.26489258 C-3.4499263 448.05419632 -2.17792877 447.84350006 -0.86738586 447.62641907 C0.51948381 447.38293903 1.90626665 447.13896388 3.29296875 446.89453125 C4.72284921 446.6513063 6.15289072 446.40902643 7.58308411 446.16764832 C10.58296671 445.65850719 13.58115669 445.1405934 16.57836914 444.6159668 C20.39772277 443.94776209 24.21980019 443.29714708 28.04322338 442.65268421 C30.99981717 442.15301641 33.95510307 441.64594423 36.91002846 441.13651085 C38.31736371 440.89437405 39.72500198 440.65399102 41.13295555 440.41547585 C55.0547128 438.58666938 55.0547128 438.58666938 66.9375 431.875 C67.59234375 431.25753906 68.2471875 430.64007813 68.921875 430.00390625 C69.60765625 429.34261719 70.2934375 428.68132812 71 428 C72.55866662 426.5998874 74.12140756 425.2043015 75.6875 423.8125 C80.21989047 419.72569016 84.70395397 415.58830033 89.18237305 411.44262695 C92.43294371 408.43662531 95.70262771 405.45478815 99 402.5 C108.2228367 394.22194169 117.33518428 385.86632306 126 377 C125.67 376.01 125.34 375.02 125 374 C121.56457477 374 118.65279492 374.65834898 115.29296875 375.3984375 Z M448 530 C445.94512997 532.18802803 443.99494194 534.39484289 442.0625 536.6875 C441.48129395 537.36868896 440.90008789 538.04987793 440.30126953 538.75170898 C439.10375606 540.1568677 437.90878411 541.56419616 436.71630859 542.97363281 C435.17908723 544.78855988 433.63303634 546.59529328 432.08203125 548.3984375 C426.93544122 554.40141423 421.97778365 560.52370602 417.12670898 566.76757812 C413.99235527 570.7854372 410.75361603 574.69379522 407.4375 578.5625 C402.05419618 584.86430462 396.97262866 591.37096922 392 598 C391.1970752 599.06395996 391.1970752 599.06395996 390.37792969 600.14941406 C331.21044448 678.69416716 304.83186424 769.85757484 302 873 C301.98340332 873.73702148 301.96680664 874.47404297 301.94970703 875.23339844 C301.85930083 879.82514079 301.9043362 884.40915529 302 889 C302.01256836 889.83644043 302.02513672 890.67288086 302.03808594 891.53466797 C302.32470834 908.14999336 303.80402465 924.56356926 305.62792969 941.07006836 C306.53830335 949.49921043 307.22225302 957.8987971 307.37109375 966.37890625 C307.39728287 967.1574144 307.42347198 967.93592255 307.45045471 968.73802185 C307.46985918 973.94917605 306.41824146 976.85325477 303 981 C297.57698968 984.77111138 290.10832486 983.42858193 283.9453125 982.32421875 C280.28171927 981.61512228 276.63909371 980.82505768 273 980 C273.47300715 989.15606693 275.35806462 997.86892922 277.5 1006.75 C277.68519196 1007.52769745 277.87038391 1008.3053949 278.06118774 1009.10665894 C282.25873723 1026.68071688 286.97313273 1044.12168921 291.6875 1061.5625 C291.87093964 1062.24132736 292.05437927 1062.92015472 292.24337769 1063.61955261 C293.4950225 1068.2488901 294.75172441 1072.87683483 296.01171875 1077.50390625 C296.35286713 1078.75791229 296.6940155 1080.01191833 297.04550171 1081.30392456 C298.60064904 1086.99204369 300.18226944 1092.66868454 301.85400391 1098.32373047 C302.13693802 1099.28536606 302.41987213 1100.24700165 302.71138 1101.23777771 C303.22884263 1102.98392951 303.75430221 1104.72774358 304.28996277 1106.46839905 C305.66490556 1111.10153498 306.36057451 1115.10939076 306 1120 C304.875 1121.9375 304.875 1121.9375 303 1123 C297.61528898 1123.62979076 294.29557144 1121.8483952 289.875 1119.0625 C289.17286377 1118.63662598 288.47072754 1118.21075195 287.74731445 1117.77197266 C285.15563933 1116.19594299 282.57765783 1114.59885574 280 1113 C275.70199067 1110.3394467 271.39850425 1107.68804227 267.08917236 1105.04586792 C265.20342184 1103.88480315 263.32500301 1102.71249385 261.44677734 1101.53930664 C260.2707804 1100.81482427 259.09452221 1100.09076575 257.91796875 1099.3671875 C256.87406982 1098.71862793 255.8301709 1098.07006836 254.75463867 1097.40185547 C251.92098554 1095.69763133 251.92098554 1095.69763133 248 1096 C248.46734239 1105.44076133 249.90964772 1114.39167648 251.94140625 1123.61328125 C252.23218851 1124.96217513 252.52220785 1126.31123368 252.81150818 1127.66044617 C253.56511241 1131.16527367 254.32887066 1134.66780766 255.0949707 1138.16992188 C255.87886141 1141.76231084 256.65284503 1145.35683263 257.42773438 1148.95117188 C258.94228747 1155.96953832 260.46760415 1162.98550517 262 1170 C264.85342491 1168.70318622 266.91356906 1167.33617846 269.12572598 1165.12267101 C270.02076132 1164.23437755 270.02076132 1164.23437755 270.93387818 1163.32813877 C271.58115176 1162.67561117 272.22842534 1162.02308356 272.89531326 1161.35078239 C273.59216185 1160.6562415 274.28901044 1159.9617006 275.00697565 1159.246113 C277.35816776 1156.90024595 279.70211475 1154.54726884 282.04620361 1152.19430542 C283.74039687 1150.50098372 285.43502931 1148.80810133 287.13006473 1147.11562264 C290.82328282 1143.42595327 294.51336511 1139.73317714 298.20074081 1136.03767014 C303.68377111 1130.54258237 309.17251231 1125.05322586 314.66245243 1119.56504249 C323.89670813 1110.33341632 333.12629638 1101.09713701 342.3532486 1091.85821152 C351.49124722 1082.70838542 360.63130505 1073.5606245 369.77413177 1064.41562271 C370.342259 1063.84735801 370.91038622 1063.27909331 371.49572941 1062.69360847 C374.38088263 1059.80777861 377.26607278 1056.92198568 380.15127715 1054.03620698 C400.59573843 1033.58754306 421.03555725 1013.13424447 441.47265625 992.67822266 C461.32903398 972.80348102 481.18750777 952.93083757 501.04882812 933.06103516 C501.66086494 932.44873528 502.27290176 931.83643541 502.90348515 931.205581 C509.04972175 925.0567074 515.19600105 918.90787647 521.34231162 912.75907681 C533.86344459 900.23287119 546.38429257 887.70638071 558.90496826 875.17971802 C559.48066956 874.60374214 560.05637086 874.02776626 560.64951765 873.43433657 C599.10445259 834.96099526 637.55272222 796.48099309 676 758 C674.45269713 754.75067145 672.81580656 752.56534661 670.26119995 750.00951767 C669.47817064 749.22127287 668.69514133 748.43302806 667.88838387 747.62089705 C667.02400137 746.760976 666.15961887 745.90105495 665.26904297 745.01507568 C664.35402952 744.09694226 663.43901608 743.17880883 662.49627495 742.23285317 C659.95519954 739.68341602 657.40790804 737.14026979 654.85955715 734.59810781 C652.11292739 731.85599575 649.37204973 729.1081446 646.63043213 726.36102295 C641.25877461 720.98046321 635.88171307 715.60533539 630.502707 710.23212311 C626.1331571 705.86708548 621.76555775 701.50010513 617.39935303 697.1317215 C616.77852054 696.51058254 616.15768804 695.88944358 615.51804245 695.24948223 C614.25696449 693.98776485 612.99589104 692.72604297 611.73482203 691.46431664 C599.904959 679.62874812 588.06896897 667.79932209 576.23088336 655.97197869 C566.0638556 645.81389105 555.90208932 635.65056475 545.74414062 625.48339844 C533.95671428 613.6852809 522.16606552 601.89039934 510.37021828 590.10070062 C509.1136903 588.84480977 507.85716652 587.58891472 506.60064697 586.33301544 C505.98235767 585.71503469 505.36406837 585.09705394 504.72704303 584.46034651 C500.36091842 580.09595196 495.99712555 575.72923425 491.63421631 571.36162567 C486.32201127 566.04382477 481.00628493 560.72957471 475.68594313 555.41991398 C472.96929623 552.70854062 470.25430509 549.99556087 467.54358673 547.27825928 C464.61142192 544.33908094 461.67163991 541.40764558 458.73095703 538.47698975 C457.86657454 537.60814581 457.00219204 536.73930187 456.11161613 535.84412932 C455.32858683 535.06631551 454.54555752 534.2885017 453.73880005 533.48711777 C452.72087718 532.46968196 452.72087718 532.46968196 451.68239021 531.43169188 C450.11432932 529.7839718 450.11432932 529.7839718 448 530 Z " fill="#FFFFFF" transform="translate(756,0)"/>
</svg>
