<svg width="94" height="93" viewBox="0 0 94 93" fill="none" xmlns="http://www.w3.org/2000/svg">
<path d="M46.047 0.00682711C45.8605 0.0148243 45.6711 0.0308206 45.504 0.073739C45.2155 0.142248 45.0934 0.206237 45.2317 0.216634C45.3794 0.229962 45.2761 0.361365 44.9812 0.540902C44.2584 0.980616 43.4194 2.01184 38.9822 7.91679C34.8879 13.3655 33.5884 14.9474 29.0337 20.0244C20.6432 29.3771 16.3631 33.3594 5.75791 41.6823C2.3903 44.3252 0.925836 45.6769 0.499949 46.5362C0.350576 46.8379 0.219135 46.9708 0.207603 46.8328C0.199159 46.695 0.134637 46.7702 0.0693393 47C-0.0872797 47.5523 0.0436864 48.2876 0.240902 47.9755C0.347167 47.8105 0.383452 47.8065 0.386017 47.9568C0.394461 48.4601 1.95478 49.7613 7.00319 53.4706C13.8676 58.5144 14.8069 59.249 18.6384 62.559C28.4159 71.0061 38.0514 81.2129 43.3973 88.7871C45.3939 91.6159 45.9579 92.2985 46.4897 92.5289C46.8977 92.7054 46.9307 92.7544 46.6604 92.7784C46.4761 92.7918 46.6263 92.8616 46.9967 92.9271C47.3663 92.9911 47.7685 93.0186 47.8915 92.9866C48.0145 92.9528 48.2799 92.9258 48.4799 92.925C48.7769 92.9228 48.7966 92.8912 48.5917 92.7609C48.3753 92.6214 48.38 92.5985 48.6258 92.5956C48.7833 92.5945 49.0756 92.4236 49.274 92.217C49.4725 92.0104 51.9573 88.7593 54.7951 84.9929C57.633 81.2265 60.3986 77.6188 60.9412 76.9758C68.0307 68.5747 81.4021 56.2271 91.0322 49.1892C92.0667 48.4332 93.1059 47.5869 93.3415 47.3084C93.5783 47.028 93.7788 46.9013 93.7895 47.0232C93.798 47.145 93.8663 46.9467 93.9367 46.5833C94.0813 45.8352 93.9581 44.524 93.7685 44.8256C93.6913 44.9496 93.6072 44.8686 93.5406 44.6038C93.3908 44.0113 92.3923 43.1909 89.0491 40.9159C79.456 34.3874 72.8676 28.7561 63.7383 19.2832C57.8565 13.1801 55.249 10.1891 50.8766 4.52377C48.726 1.73722 47.4462 0.396797 46.9293 0.392638C46.7147 0.390453 46.7061 0.362481 46.8866 0.247588C47.1282 0.0951078 46.6054 -0.0179069 46.0472 0.00235275L46.047 0.00682711ZM46.286 11.4666C47.2509 11.4533 48.3273 11.6162 49.1805 11.9363C55.2922 14.2284 78.0617 36.3515 81.6759 43.5086C82.2608 44.6669 82.3095 44.8687 82.3052 46.1813C82.3023 47.9296 81.922 48.8104 79.9107 51.7765C76.703 56.5066 73.2999 60.4184 66.5304 67.1541C59.3302 74.3183 53.2758 79.5075 50.5387 80.8632C47.6974 82.2704 45.4907 81.6051 40.4762 77.8264C31.1723 70.8153 21.8354 61.985 15.7836 54.4735C11.7009 49.4059 11.1701 48.1243 12.0675 45.5104C13.4246 41.5579 19.554 34.165 29.935 23.9592C37.5985 16.425 42.402 12.4416 44.741 11.6833C45.1678 11.5449 45.707 11.4743 46.286 11.4668V11.4666ZM46.7738 14.4495C46.3688 14.4485 45.9775 14.5265 45.5649 14.6713C44.6428 14.9947 42.4807 16.427 40.5017 18.0249C32.9267 24.1413 16.8587 41.1468 15.1831 44.8204C14.7619 45.7441 14.7226 47.4382 15.0969 48.5304C16.1509 51.6068 24.9961 61.1548 34.2506 69.2039C38.8844 73.2341 45.0047 77.8345 46.3834 78.3242C47.8277 78.8373 49.1073 78.53 51.0286 77.2089C58.62 71.99 75.6525 54.3992 78.567 48.7679C79.0851 47.767 79.1598 47.4707 79.1598 46.4086C79.1598 45.7407 79.0467 44.8757 78.9093 44.4871C78.1048 42.2196 73.7188 37.088 66.6193 30.1071C60.2347 23.8292 55.9985 20.0798 51.7559 16.9547C49.3331 15.1701 47.9914 14.4523 46.7755 14.4491L46.7738 14.4495ZM58.0152 26.2095C59.2321 26.2095 59.3489 26.2434 60.3046 26.8783C61.4514 27.6398 62.3907 28.7016 62.8684 29.7754C63.5105 31.2191 63.7008 34.4616 63.1978 35.3959C62.9499 35.8569 62.3504 35.9842 56.4799 36.8213C51.3237 37.5566 49.5541 37.8259 48.8098 37.9883C48.5128 38.053 48.3958 38.2855 48.1772 39.24C47.686 41.3877 45.0996 53.7558 43.5552 61.3401C42.7166 65.4589 41.9213 69.039 41.7878 69.2956C41.6547 69.5523 41.4221 69.8083 41.2724 69.8654C40.2371 70.2605 37.5746 69.1138 35.957 67.5765C33.9207 65.6412 33.0292 63.6547 33.1809 61.3885C33.2744 59.9911 35.3206 49.575 37.5817 38.9871C39.4399 30.2863 39.8258 28.7413 40.183 28.5512C41.1536 28.0346 55.0508 26.2097 58.0151 26.2095H58.0152ZM37.7378 28.8922C38.0007 28.8789 38.1641 28.9508 38.2244 29.1079C38.4122 29.5942 36.4795 39.3243 36.1263 39.6712C35.9953 39.7995 34.1298 40.1318 31.5397 40.4873C29.138 40.8166 26.946 41.126 26.6689 41.1737C26.371 41.2251 26.0343 41.1657 25.8449 41.0252C25.3668 40.6742 25.568 39.8786 26.5583 38.2117C29.0294 34.051 31.5195 31.698 35.6176 29.6512C36.5878 29.1666 37.3001 28.913 37.7378 28.8923V28.8922ZM58.9409 41.266C60.5826 41.242 61.0958 41.4947 61.4516 42.3417C61.6731 42.8678 61.656 43.1068 61.2565 45.0331C60.6729 47.8503 60.0781 49.8547 59.5677 50.7239C58.7176 52.1717 57.3384 52.6504 52.0291 53.3395C46.8395 54.013 47.0036 54.0015 46.7403 53.6858C46.5474 53.4547 46.541 53.2072 46.7061 52.2438C47.0121 50.4714 48.7107 43.3028 48.9149 42.9234C49.0143 42.7395 49.3774 42.5143 49.7222 42.4229C50.9342 42.102 56.2482 41.3904 58.1643 41.2934C58.4473 41.2747 58.7051 41.2694 58.9396 41.2694L58.9409 41.266ZM58.076 57.6929L58.1242 58.1944C58.19 58.8589 57.3003 60.3068 55.5096 62.4499C52.9244 65.5438 50.5883 67.2813 46.8729 68.8755C44.4089 69.9326 43.9069 70.0623 43.4741 69.7476C43.236 69.5749 43.1613 69.3292 43.1796 68.782C43.2138 67.8176 44.9009 59.8314 45.1405 59.5055C45.2763 59.3213 46.7232 59.056 50.4981 58.5222C53.3427 58.1198 56.2117 57.769 56.8731 57.7423L58.076 57.6929Z" fill="#0D5FAA"/>
</svg>
