<?xml version="1.0" encoding="UTF-8" standalone="no"?>
<!DOCTYPE svg PUBLIC "-//W3C//DTD SVG 1.1//EN" "http://www.w3.org/Graphics/SVG/1.1/DTD/svg11.dtd">
<svg width="100%" height="100%" viewBox="0 0 557 557" version="1.1" xmlns="http://www.w3.org/2000/svg" xmlns:xlink="http://www.w3.org/1999/xlink" xml:space="preserve" xmlns:serif="http://www.serif.com/" style="fill-rule:evenodd;clip-rule:evenodd;">
    <g transform="matrix(1,0,0,1,-265.265,-257.266)">
        <path d="M698.484,369.676C698.378,376.807 695.633,383.646 690.78,388.875C690.665,389.015 690.534,389.142 690.391,389.253C685.255,393.033 683.157,398.589 681.541,404.42C680.885,407.014 680.753,409.713 681.151,412.358C681.621,416.104 684.04,418.086 687.8,418.258C690.496,418.317 693.147,417.567 695.412,416.104C698.75,414.192 701.809,411.829 704.502,409.082C704.983,408.554 705.496,408.057 706.038,407.593C706.229,407.389 706.459,407.225 706.714,407.11C706.969,406.995 707.244,406.933 707.523,406.925C707.803,406.918 708.081,406.966 708.342,407.067C708.602,407.168 708.84,407.319 709.042,407.513C709.343,407.798 709.554,408.164 709.649,408.567C709.867,409.247 710.024,409.944 710.119,410.652C711.917,419.533 710.949,428.752 707.345,437.067C703.78,445.086 698.564,451.959 693.039,458.638C686.573,466.496 679.902,474.148 673.734,482.235C665.133,493.327 658.215,505.625 653.203,518.732C650.221,526.661 647.976,534.848 646.497,543.189C645.27,550.062 644.708,556.935 644.112,563.808C643.654,570.484 643.551,577.18 643.803,583.866C643.918,589.594 644.789,595.322 645.293,601.049C645.442,602.733 645.683,604.417 645.683,606.113C645.697,606.735 645.587,607.354 645.361,607.934C645.135,608.514 644.797,609.043 644.365,609.492C643.934,609.941 643.418,610.301 642.848,610.551C642.277,610.8 641.663,610.935 641.04,610.947C640.655,610.962 640.27,610.927 639.894,610.844C638.232,610.546 636.592,610.099 634.976,609.778C633.577,609.503 633.532,609.538 633.83,611.027L633.924,611.456C635.039,616.515 636.161,621.605 637.521,626.629C639.936,635.847 642.439,645.053 645.03,654.247C645.255,654.732 645.315,655.278 645.199,655.8C645.083,656.322 644.798,656.791 644.388,657.134C643.954,657.451 643.426,657.612 642.889,657.591C642.352,657.57 641.838,657.369 641.43,657.02L630.207,650.227C629.221,649.631 628.235,649.001 627.25,648.451C626.782,648.257 626.294,648.118 625.794,648.039C625.603,648.6 625.502,649.187 625.496,649.78C625.782,651.624 626.183,653.457 626.562,655.29C628.075,662.518 629.6,669.746 631.147,676.917C632.232,682.164 633.302,687.387 634.357,692.588C634.542,693.192 634.608,693.826 634.552,694.455C634.403,695.166 634.151,696.208 633.635,696.414C633.238,696.566 632.813,696.626 632.39,696.59C631.968,696.554 631.558,696.424 631.193,696.208C629.513,694.879 627.902,693.464 626.367,691.97C625.221,690.893 624.074,689.679 622.848,688.682C621.621,687.685 620.773,687.937 620.715,689.667C620.526,694.145 619.612,698.563 618.01,702.749C616.795,705.979 615.717,709.278 614.502,712.52C611.5,708 607.143,711.351 606.5,712.52C605.755,713.826 604.158,718.381 603,719C602.026,719.527 541.5,767.5 541.5,767.5C537.9,764.888 380.428,603.73 376.92,601.003C374.387,599.033 374.352,597.956 376.863,596.078C380.302,593.592 383.672,591.163 387.077,588.723C397.188,581.381 406.978,573.625 416.55,565.595C426.449,557.123 435.914,548.157 444.911,538.733C446.882,536.774 448.613,534.632 450.424,532.547C450.709,532.129 450.944,531.679 451.124,531.207C450.707,530.918 450.252,530.691 449.771,530.531C444.177,529.465 438.56,528.572 432.988,527.358C425.72,525.822 418.751,523.114 412.354,519.339C410.829,518.102 402.977,512.454 401.441,511.206C396.168,506.83 392.167,501.366 388.189,495.867C386.607,493.691 387.387,492.156 390.012,491.938L390.351,491.905C396.624,491.298 402.917,490.688 409.133,489.968C417.53,488.914 425.816,487.116 433.894,484.595C443.815,481.607 453.44,477.711 462.645,472.957C470.52,468.89 477.02,463.036 483.004,456.587C491.826,447.215 499.795,437.075 506.814,426.288C509.897,421.488 512.545,416.379 515.4,411.396C516.308,409.871 517.335,408.419 518.472,407.055C520.008,405.165 522.324,404.958 524.513,404.626C532.458,403.4 540.402,402.221 548.346,401.029L575.366,397.043C582.427,395.989 589.5,394.969 596.527,393.79C597.928,393.503 599.249,392.916 600.402,392.071C606.902,387.489 613.275,382.792 619.821,378.325C628.511,372.368 637.303,366.526 646.073,360.741C653.142,356.06 660.242,351.432 667.372,346.857C672.164,343.764 676.99,340.71 681.85,337.693C683.673,336.548 684.854,336.811 685.943,338.564C688.579,342.791 691.308,346.983 693.612,351.394C696.029,355.687 697.477,360.457 697.853,365.369C697.991,366.87 698.255,368.267 698.484,369.676ZM541.032,432.44C540.459,432.531 539.932,432.566 539.061,432.68L539.049,432.68C538.774,432.508 537.949,432.314 537.811,431.924C537.696,431.274 537.826,430.604 538.178,430.045C539.012,428.753 539.935,427.521 540.941,426.357C544.276,422.439 547.716,418.544 551.155,414.695C551.705,414.144 552.415,413.78 553.184,413.653C559.661,412.404 566.149,411.236 572.614,409.999C576.111,409.334 579.619,408.555 583.058,407.822C583.483,407.692 583.921,407.608 584.364,407.57C584.686,407.601 584.983,407.757 585.19,408.005C585.282,408.097 585.133,408.521 584.983,408.693C583.998,409.735 583.069,410.789 582.026,411.774C576.397,416.998 570.723,422.095 565.106,427.308C564.038,428.233 562.707,428.801 561.3,428.934C554.536,430.034 547.796,431.294 541.032,432.44Z"/>
        <g transform="matrix(0.707107,-0.707107,0.707107,0.707107,-289.357,372.058)">
            <rect x="304.435" y="535.313" width="337.824" height="337.824" style="fill:none;stroke:black;stroke-width:19px;"/>
        </g>
    </g>
</svg>
