<svg width="200" height="200" viewBox="0 0 200 200" fill="none" xmlns="http://www.w3.org/2000/svg">
<path fill-rule="evenodd" clip-rule="evenodd" d="M96.4891 2.0307C94.6482 3.15025 92.9963 5.02036 79.3612 21.4227C60.3698 44.2686 42.8344 61.5422 16.3791 83.4652C9.02862 89.556 2.34966 95.5152 1.53755 96.7071C-1.64919 101.383 -0.0837716 103.716 13.9203 115.165C41.7237 137.896 62.0644 158.069 83.2793 183.953C87.4246 189.01 91.8453 194.267 93.103 195.635C97.1404 200.025 100.214 200.804 103.776 198.34C105.874 196.888 106.648 196.009 121.519 178.205C141.439 154.357 159.173 137.159 189.6 112.182C198.524 104.857 200.555 102.132 199.491 98.9163C198.595 96.21 195.732 93.4043 184.572 84.3002C156.426 61.3388 139.046 43.8865 113.388 12.8215C109.306 7.87898 105.012 3.17668 103.847 2.37093C101.313 0.619785 98.9865 0.512314 96.4891 2.0307ZM107.63 26.187C126.669 35.8135 163.882 72.8146 174.106 92.2859C177.651 99.0359 177.651 101.628 174.106 108.378C163.795 128.014 126.573 164.973 107.465 174.547C101.149 177.711 98.7583 177.719 92.5427 174.597C83.0799 169.844 70.6609 159.839 55.6626 144.887C40.4644 129.736 30.5497 117.565 25.6131 108C22.5024 101.971 22.3497 99.3612 24.8038 94.1876C33.9502 74.9094 73.0419 35.6296 92.537 26.1278C98.8044 23.0732 101.492 23.0836 107.63 26.187ZM96.7808 29.5514C90.3733 32.8083 78.8528 42.4727 63.8188 57.2008C45.3041 75.3388 32.9024 89.5635 29.3474 96.7399L27.5675 100.332L29.3474 103.924C32.8926 111.08 45.1716 125.168 63.8246 143.48C80.4021 159.754 94.3295 171.03 98.9669 171.932C103.857 172.885 117.599 162.03 140.423 139.188C154.262 125.338 163.138 115.353 168.245 107.888C171.114 103.695 171.53 102.739 171.53 100.332C171.53 97.925 171.114 96.9692 168.245 92.7761C156.436 75.5163 117.195 37.1342 104.302 30.233C100.513 28.2048 99.5935 28.1215 96.7808 29.5514ZM113.392 49.075C114.725 54.1865 115.596 58.5037 115.327 58.6698C114.579 59.1307 114.406 58.6388 112.174 49.7261C111.031 45.16 109.95 40.9405 109.773 40.3503C109.554 39.6244 109.696 39.3583 110.209 39.529C110.646 39.6744 111.998 43.7273 113.392 49.075ZM111.516 49.4566C112.665 54.0324 113.605 57.8721 113.605 57.9888C113.605 58.1054 112.243 57.7324 110.579 57.1589C106.577 55.7807 101.555 55.8158 94.5059 57.2727C91.3289 57.929 88.3721 58.329 87.9347 58.1617C87.4972 57.9939 86.8713 57.0043 86.5439 55.9623C86.0327 54.3342 85.9779 54.2916 86.1548 55.6617C86.2684 56.5382 86.1543 57.383 85.9018 57.5388C85.3064 57.906 85.0159 57.3767 84.5012 54.987C84.1508 53.3583 84.2292 53.0899 84.9739 53.375C85.5848 53.6083 85.9243 53.3301 86.0476 52.4951C86.2015 51.4497 87.1589 51.0434 92.6989 49.6698C100.185 47.8135 103.863 46.1169 106.691 43.2158C107.799 42.079 108.868 41.1462 109.067 41.1428C109.265 41.1393 110.368 44.8807 111.516 49.4566ZM95.7376 58.6652C95.7376 59.1393 96.0021 59.5273 96.3249 59.5273C96.6528 59.5273 96.7629 60.1215 96.5733 60.8732C96.3353 61.8198 96.6736 62.7388 97.7151 63.9732C99.5618 66.1617 99.5727 66.852 97.7721 67.6698C95.9491 68.4979 95.0384 67.7824 92.7353 63.7129C91.79 62.0428 90.7819 60.5319 90.4955 60.3554C89.4724 59.7255 90.0021 58.9773 91.8471 58.4462C94.6378 57.6428 95.7376 57.7043 95.7376 58.6652ZM83.0574 59.4468C83.0574 60.3215 82.4742 60.5761 79.8528 60.8456C75.3773 61.3066 69.809 64.0623 66.3151 67.5457C62.8217 71.0296 60.058 76.5819 59.5958 81.0445C59.3255 83.6583 59.0701 84.2399 58.1929 84.2399C56.9312 84.2399 56.8523 83.2577 57.7693 78.952C59.7727 69.5462 67.5842 61.5204 77.0056 59.1888C81.386 58.1048 83.0574 58.1761 83.0574 59.4468ZM123.519 59.0244C130.092 60.4163 136.512 64.8439 140.147 70.4916C143.358 75.4819 145.376 84.2399 143.314 84.2399C142.792 84.2399 142.343 83.4267 142.124 82.0847C141.079 75.6934 138.369 70.3962 134.241 66.6773C131.125 63.8709 125.368 61.252 121.421 60.8456C118.799 60.5761 118.216 60.3215 118.216 59.4468C118.216 58.1888 119.201 58.11 123.519 59.0244ZM110.881 76.6221C121.316 81.4939 126.903 92.6181 124.508 103.752C124.015 106.043 123.646 106.654 122.75 106.654C121.705 106.654 121.648 106.384 122.011 103.181L122.405 99.7083L117.573 99.8761C112.751 100.044 112.74 100.048 112.555 101.659C112.321 103.688 110.639 103.562 110.147 101.478L109.808 100.045L100.755 99.8865L91.703 99.7278L91.7093 101.898C91.7128 103.091 91.8759 105.033 92.0713 106.213L92.4269 108.358L98.3399 107.997C103.983 107.653 104.283 107.693 104.914 108.869C105.279 109.547 105.502 110.132 105.412 110.168C105.321 110.204 102.694 110.316 99.5721 110.415C96.4505 110.515 93.7543 110.739 93.5808 110.911C92.9393 111.551 95.4154 116.772 97.2177 118.579C99.8822 121.251 101.666 121.081 104.759 117.862C107.201 115.321 107.249 115.3 107.597 116.68C107.791 117.451 107.798 118.329 107.611 118.63C107.424 118.931 107.659 119.325 108.133 119.507C108.607 119.688 108.994 120.222 108.994 120.693C108.994 122.069 105.032 122.885 99.4257 122.663C94.9474 122.485 93.7381 122.198 90.2476 120.484C72.5462 111.79 71.6632 87.4583 88.6874 77.51C92.6534 75.1928 95.979 74.464 101.789 74.6416C106.215 74.7761 107.55 75.0675 110.881 76.6221ZM97.156 78.764C95.1669 80.8675 92.9733 85.698 93.6851 86.4077C94.2378 86.9589 107.044 86.9508 107.597 86.3985C108.431 85.5681 106.614 81.3359 104.449 79.0675C101.612 76.0939 99.7548 76.0169 97.156 78.764ZM90.5502 79.3255C87.2252 81.0612 84.9197 83.4531 85.7618 84.2928C86.7185 85.2468 91.1266 85.6882 91.1266 84.8301C91.1266 84.4393 91.775 82.8324 92.5675 81.2589C93.36 79.6859 94.0084 78.2905 94.0084 78.1583C94.0084 77.6865 93.1064 77.9911 90.5502 79.3255ZM109.118 81.7974C110.104 83.9313 110.954 85.7405 111.007 85.8186C111.252 86.1778 116.487 84.0721 116.487 83.6146C116.487 82.625 109.072 77.9181 107.513 77.9181C107.41 77.9181 108.132 79.6635 109.118 81.7974ZM151.324 83.2186C152.436 84.8008 152.452 88.0773 151.357 89.987C149.958 92.4278 150.252 92.8606 153.31 92.8606C155.191 92.8606 156.566 93.2135 157.441 93.9204C160.332 96.2548 158.383 108.42 154.988 109.234C154.259 109.409 148.994 109.482 143.288 109.396L132.913 109.24V102.631V96.0215L136.981 95.8549C140.883 95.6951 141.093 95.6129 142.119 93.8434C142.707 92.829 143.906 91.0778 144.784 89.9531C145.663 88.8278 146.559 87.1468 146.776 86.2175C147.316 83.91 148.62 81.9411 149.608 81.9411C150.059 81.9411 150.831 82.5158 151.324 83.2186ZM51.5128 83.5215C51.6724 84.075 51.9894 84.9796 52.2183 85.533C52.5041 86.2261 52.3664 86.5388 51.7744 86.5388C51.3018 86.5388 50.7848 86.0865 50.6252 85.533C50.4655 84.9796 50.1485 84.075 49.9197 83.5215C49.6338 82.8284 49.7716 82.5158 50.3635 82.5158C50.8361 82.5158 51.3531 82.9681 51.5128 83.5215ZM63.4609 83.5554C63.4609 84.775 61.9796 86.9773 61.488 86.4876C61.0194 86.0204 62.3012 82.5158 62.941 82.5158C63.2269 82.5158 63.4609 82.9836 63.4609 83.5554ZM148.437 85.6784C148.229 86.7853 147.223 88.7899 146.203 90.1324C141.987 95.6784 141.271 97.4761 141.271 102.517C141.271 108.262 141.422 108.378 148.924 108.378C153.369 108.378 154.509 108.196 155.234 107.372C156.769 105.629 157.37 102.921 157.368 97.7457C157.367 94.8083 156.312 94.01 152.434 94.01C150.769 94.01 149.287 93.8152 149.14 93.5773C148.992 93.3393 149.253 92.1112 149.72 90.8474C151.132 87.0227 151.212 86.6117 150.834 85.1112C150.298 82.9807 148.882 83.3152 148.437 85.6784ZM82.209 87.0956C81.0684 88.3525 79.0229 94.0732 79.0229 96.0071C79.0229 97.4382 79.0868 97.4583 83.6482 97.4583C88.9399 97.4583 88.9352 97.4629 89.5975 91.6479L89.9652 88.4238L86.5422 87.2583C83.2909 86.1514 83.0736 86.1433 82.209 87.0956ZM115.334 87.0956C111.34 88.4744 111.438 88.2934 112.143 92.9732L112.774 97.1709L117.596 97.3393L122.417 97.5077L122.084 94.7031C121.733 91.7491 119.589 86.7146 118.544 86.3911C118.205 86.2865 116.761 86.6037 115.334 87.0956ZM61.3623 88.2043C65.4874 90.9163 66.5162 96.5186 63.6528 100.682C62.8079 101.912 61.6932 104.082 61.1762 105.504L60.2361 108.09H56.5249C53.2563 108.09 52.7929 107.954 52.6396 106.941C52.2102 104.111 51.8563 103.266 50.2649 101.27C45.4788 95.2646 49.2586 87.1071 56.8223 87.1175C58.6834 87.1198 60.3018 87.5071 61.3623 88.2043ZM53.9035 88.7887C53.2442 89.0721 52.0119 90.1238 51.1658 91.1261C49.0574 93.6244 49.0592 97.0485 51.1704 100.108C52.0188 101.338 53.0304 103.249 53.4194 104.355C54.0718 106.212 54.3272 106.38 56.7572 106.54C59.1422 106.699 59.4223 106.582 59.7468 105.293C59.9439 104.511 61.0079 102.492 62.111 100.808C63.8626 98.1342 64.0857 97.3928 63.8684 94.9623C63.5335 91.2112 61.2102 88.8048 57.6234 88.4934C56.2373 88.3727 54.5635 88.506 53.9035 88.7887ZM92.4413 89.6158C92.2736 89.8859 92.0033 91.7681 91.8396 93.7974L91.5427 97.4882L100.701 97.3296L109.859 97.1709L109.655 94.01C109.338 89.098 109.622 89.2503 100.655 89.1836C96.3047 89.1514 92.6085 89.3457 92.4413 89.6158ZM46.0874 92.2227C47.3024 92.9905 45.8603 93.5853 43.8505 93.1451C42.907 92.9382 42.1353 92.5313 42.1353 92.2405C42.1353 91.5744 45.0413 91.5617 46.0874 92.2227ZM71.2131 92.2393C71.6217 92.8985 68.3358 93.6658 67.4482 93.1186C66.9825 92.8319 67.0194 92.5755 67.5779 92.2227C68.6159 91.5669 70.8027 91.5767 71.2131 92.2393ZM62.1929 92.9755C63.1312 93.9112 63.0655 96.4169 62.0672 97.7784C60.9998 99.2342 60.2857 98.5043 61.1681 96.86C61.6736 95.9181 61.6857 95.2284 61.2148 94.1974C60.8649 93.4324 60.5791 92.6893 60.5791 92.5462C60.5791 92.0451 61.5076 92.2922 62.1929 92.9755ZM134.023 97.6503C133.861 98.0715 133.804 100.593 133.897 103.254L134.066 108.09L137.092 108.264L140.118 108.438V102.661V96.8836H137.218C135.333 96.8836 134.215 97.152 134.023 97.6503ZM79.239 102.487C79.6056 105.176 82.1952 111.269 82.956 111.232C83.1704 111.222 84.7721 110.717 86.5157 110.111C90.0309 108.888 89.9814 109.042 89.0742 102.2L88.7502 99.7571H83.8084H78.8661L79.239 102.487ZM47.8989 101.301C47.8989 101.874 45.4765 104.355 44.9168 104.355C44.0056 104.355 44.4494 103.095 45.7376 102.024C47.0891 100.899 47.8989 100.628 47.8989 101.301ZM68.0695 102.341C68.8131 103.13 69.2465 103.95 69.0327 104.163C68.6113 104.583 65.7664 102.159 65.7664 101.381C65.7664 100.504 66.7087 100.896 68.0695 102.341ZM115.463 105.889C120.147 107.365 123.98 108.736 123.98 108.935C123.98 109.135 122.812 109.863 121.386 110.555C119.959 111.246 118.792 112.056 118.792 112.355C118.792 112.654 119.959 113.852 121.386 115.018C124.276 117.379 124.512 118.201 122.82 120.012L121.661 121.253L118.91 118.551C117.397 117.065 115.895 115.849 115.573 115.849C115.251 115.849 114.381 117.077 113.64 118.579C112.76 120.361 112.188 121.009 111.991 120.447C109.025 111.943 106.278 103.205 106.57 103.205C106.777 103.205 110.779 104.413 115.463 105.889ZM138.965 106.408C138.965 106.944 138.573 107.237 138.004 107.127C136.558 106.847 136.36 105.504 137.765 105.504C138.472 105.504 138.965 105.876 138.965 106.408ZM58.7162 109.938C57.8499 110.069 56.2938 110.072 55.258 109.944C54.2223 109.816 54.9306 109.708 56.8327 109.705C58.7347 109.702 59.5825 109.807 58.7162 109.938ZM58.7162 111.088C57.8499 111.219 56.2938 111.221 55.258 111.093C54.2223 110.965 54.9306 110.858 56.8327 110.855C58.7347 110.851 59.5825 110.956 58.7162 111.088ZM86.9479 112.494C84.6413 113.334 84.9831 114.304 88.3889 116.592C91.394 118.609 94.3658 119.867 93.9035 118.927C93.7704 118.657 92.9652 116.948 92.1133 115.131C90.4863 111.658 89.9681 111.394 86.9479 112.494ZM58.1364 112.796C57.5854 112.939 56.5479 112.945 55.8309 112.807C55.1139 112.67 55.5646 112.552 56.8327 112.546C58.1007 112.539 58.6874 112.652 58.1364 112.796ZM59.5958 119.045C60.6182 128.925 69.9439 138.224 79.8528 139.243C82.5566 139.522 83.0574 139.752 83.0574 140.716C83.0574 141.759 82.7992 141.825 80.1047 141.469C69.1531 140.02 60.0177 131.704 57.7687 121.137C56.8523 116.831 56.9312 115.849 58.1929 115.849C59.0701 115.849 59.3255 116.431 59.5958 119.045ZM144.153 117.809C144.153 120.714 142.222 126.373 140.113 129.65C136.566 135.162 129.971 139.699 123.519 141.065C119.201 141.979 118.216 141.9 118.216 140.642C118.216 139.769 118.797 139.513 121.388 139.247C123.132 139.067 126.032 138.248 127.832 137.427C135.811 133.784 140.611 127.261 142.124 118.004C142.586 115.176 144.153 115.025 144.153 117.809ZM114.629 132.261C115.851 133.113 115.91 133.536 115.91 141.268C115.91 151.4 115.861 151.481 109.656 151.481H105.31L102.958 154.147L100.606 156.812L98.6038 154.165L96.6021 151.517L92.0367 151.499C85.3531 151.473 85.3629 151.488 85.3629 141.367C85.3629 133.533 85.4217 133.115 86.6442 132.261C88.5422 130.935 112.731 130.935 114.629 132.261ZM96.8903 136.405C95.5439 136.819 94.5848 138.332 94.5848 140.043C94.5848 141.193 95.3595 142.299 97.526 144.242C99.1693 145.715 100.759 146.705 101.128 146.486C103.398 145.142 106.126 142.499 106.578 141.207C107.672 138.077 105.251 135.445 102.306 136.561C101.331 136.931 100.165 136.965 99.243 136.649C98.4246 136.369 97.3658 136.259 96.8903 136.405Z" fill="white"/>
</svg>
