<svg width="1080" height="1080" viewBox="0 0 1080 1080" fill="none" xmlns="http://www.w3.org/2000/svg">
<path d="M543.313 774.191L304.435 535.313L543.313 296.435L782.191 535.313L543.313 774.191Z" stroke="white" stroke-width="19"/>
<path d="M406.6 623.624L396.786 567.969L439.544 539.389L438.122 618.066L406.6 623.624Z" fill="white"/>
<path d="M382.393 486.342L391.552 538.287L582.536 569.648L535.381 487.278L547.861 373L382.393 486.342Z" fill="white"/>
<path d="M406.6 623.624L396.786 567.969L439.544 539.389L438.122 618.066L406.6 623.624Z" stroke="black"/>
<path d="M382.393 486.342L391.552 538.287L582.536 569.648L535.381 487.278L547.861 373L382.393 486.342Z" stroke="black"/>
<path d="M611.5 643.5C611.5 672.444 581.813 697.5 543 697.5C504.187 697.5 474.5 672.444 474.5 643.5C474.5 614.556 504.187 589.5 543 589.5C581.813 589.5 611.5 614.556 611.5 643.5Z" stroke="white" stroke-width="9"/>
<path d="M575.196 457C568.46 457 563 451.54 563 444.804V432.806H575.196V457Z" fill="white"/>
<path d="M578.869 457V382H585.954C592.69 382 598.15 387.416 598.15 394.097V413.452H602.443C610.51 413.452 618.128 417.167 623.096 423.523C623.264 423.739 623.405 423.978 623.51 424.23C624.611 426.883 625.388 429.333 625.923 431.557C627.955 439.992 624.921 448.529 621.529 456.515L621.323 457H578.869Z" fill="white"/>
<path d="M575.196 457C568.46 457 563 451.54 563 444.804V432.806H575.196V457Z" stroke="black"/>
<path d="M578.869 457V382H585.954C592.69 382 598.15 387.416 598.15 394.097V413.452H602.443C610.51 413.452 618.128 417.167 623.096 423.523C623.264 423.739 623.405 423.978 623.51 424.23C624.611 426.883 625.388 429.333 625.923 431.557C627.955 439.992 624.921 448.529 621.529 456.515L621.323 457H578.869Z" stroke="black"/>
<path d="M591 523.092V486C591 484.895 591.895 484 593 484H667C668.105 484 669 484.895 669 486V523.092C669 524.196 668.105 525.092 667 525.092H640.346C639.805 525.092 639.287 525.311 638.911 525.699L620.214 544.961C618.963 546.25 616.778 545.364 616.778 543.568V527.092C616.778 525.987 615.883 525.092 614.778 525.092H593C591.895 525.092 591 524.196 591 523.092Z" stroke="white" stroke-width="9"/>
<path d="M687.635 590.548L648.006 613.519C645.339 615.064 642 613.14 642 610.058V587.438V558.774C642 555.52 645.678 553.628 648.325 555.519L687.954 583.832C690.319 585.522 690.149 589.09 687.635 590.548Z" fill="white"/>
</svg>
