<svg width="177" height="198" viewBox="0 0 177 198" fill="none" xmlns="http://www.w3.org/2000/svg">
<path d="M29.0136 136.29L6.80359 197.02H26.4136L44.9036 146.27L29.0136 136.29Z" fill="#01426B"/>
<path d="M137.394 136.29L159.604 197.02H139.994L121.504 146.27L137.394 136.29Z" fill="#01426B"/>
<path d="M159.835 109.445C165.045 67.9125 135.6 30.0206 94.0674 24.8107C52.5352 19.6008 14.6433 49.0458 9.43338 90.5779C4.22347 132.11 33.6685 170.002 75.2006 175.212C116.733 180.422 154.625 150.977 159.835 109.445Z" fill="#0574BC"/>
<g opacity="0.3">
<path d="M159.835 109.445C165.045 67.9125 135.6 30.0206 94.0674 24.8107C52.5352 19.6008 14.6433 49.0458 9.43338 90.5779C4.22347 132.11 33.6685 170.002 75.2006 175.212C116.733 180.422 154.625 150.977 159.835 109.445Z" fill="black"/>
</g>
<path d="M82.5936 170.95C124.451 170.95 158.384 137.018 158.384 95.1601C158.384 53.3025 124.451 19.3701 82.5936 19.3701C40.7359 19.3701 6.80359 53.3025 6.80359 95.1601C6.80359 137.018 40.7359 170.95 82.5936 170.95Z" fill="#0574BC"/>
<path d="M140.818 104.431C145.94 72.2736 124.023 42.0528 91.8659 36.9308C59.7085 31.8088 29.4876 53.7252 24.3656 85.8826C19.2436 118.04 41.1601 148.261 73.3175 153.383C105.475 158.505 135.696 136.588 140.818 104.431Z" fill="white"/>
<path d="M111.92 124.488C128.119 108.289 128.119 82.0249 111.92 65.8259C95.7207 49.627 69.457 49.627 53.258 65.8259C37.0591 82.0249 37.0591 108.289 53.258 124.488C69.457 140.686 95.7207 140.686 111.92 124.488Z" fill="#0574BC"/>
<path d="M82.5936 117.05C94.6831 117.05 104.484 107.25 104.484 95.16C104.484 83.0705 94.6831 73.27 82.5936 73.27C70.5041 73.27 60.7036 83.0705 60.7036 95.16C60.7036 107.25 70.5041 117.05 82.5936 117.05Z" fill="white"/>
<path d="M141.224 33.78L139.164 17.61L155.624 0L156.804 17.45L141.224 33.78Z" fill="white"/>
<path d="M176.544 20.9101L159.844 19.5601L143.114 35.6601L159.854 37.4401L176.544 20.9101Z" fill="white"/>
<g opacity="0.3">
<path d="M82.5935 96.4401L144.804 51.8801C142.414 48.4336 139.773 45.1681 136.903 42.1101L83.6135 93.6501L82.5935 96.4401Z" fill="black"/>
</g>
<path d="M159.274 14.0799L151.463 21.9899L132.713 40.9899C125.187 48.6099 117.66 56.2366 110.134 63.8699L90.5135 83.7199C87.3335 86.9399 84.0135 90.0699 80.9535 93.3999L80.8235 93.5399C78.9735 95.41 81.8235 98.29 83.7035 96.42L91.5135 88.5099L110.264 69.5099L132.843 46.6299L152.463 26.7499C155.643 23.5299 158.964 20.3999 162.024 17.0699L162.153 16.9299C164.003 15.0599 161.154 12.1799 159.274 14.0499V14.0799Z" fill="#263238"/>
</svg>
