<svg width="568" height="98" viewBox="0 0 568 98" fill="none" xmlns="http://www.w3.org/2000/svg">
<path opacity="0.24" d="M440.392 77.5238C408.049 90.8201 358.26 105.075 308.933 87.9235C256.635 69.6941 248.099 27.0827 207.814 10.6065C171.269 -4.35591 109.907 1.82945 1 92.7694" stroke="white" stroke-width="3" stroke-miterlimit="10" stroke-dasharray="12 12"/>
<path d="M568 0L526.417 78.4059L496.957 64.5978L474.538 54.1001L493.239 43.2757L494.79 42.3719L568 0Z" fill="white"/>
<path d="M568 0L460.094 46.2595L414.738 36.0667L568 0Z" fill="white"/>
<path d="M496.957 64.5978L474.538 92.127V54.1001L496.957 64.5978Z" fill="#BFACAC"/>
<path d="M568 0L474.538 54.1001V92.1269L460.094 46.2595L568 0Z" fill="#EAE5E5"/>
</svg>
