<svg width="388" height="324" viewBox="0 0 388 324" fill="none" xmlns="http://www.w3.org/2000/svg">
<path d="M317.86 25.6143C311.504 29.0891 309.385 39.3865 312.362 43.8678C301.344 47.1731 307.065 66.1152 325.074 67.1746C343.084 68.234 356.793 61.6551 347.947 47.6074C356.698 35.8163 352.672 22.648 345.002 24.0993C336.77 7.60445 309.205 8.09177 317.86 25.6143Z" fill="#263238"/>
<path d="M337.035 68.4458C334.257 68.4371 331.533 67.6756 329.153 66.2423C329.115 66.2285 329.081 66.2064 329.052 66.1778C329.023 66.1491 329.002 66.1145 328.988 66.0764C328.974 66.0383 328.969 65.9976 328.973 65.9573C328.977 65.917 328.989 65.8781 329.01 65.8433C329.031 65.8084 329.059 65.7785 329.092 65.7557C329.125 65.7329 329.164 65.7178 329.204 65.7114C329.244 65.705 329.284 65.7075 329.323 65.7187C329.362 65.7299 329.398 65.7495 329.429 65.7761C332.498 67.6133 336.125 68.2881 339.649 67.6776C343.174 67.0671 346.363 65.212 348.636 62.4496C351.528 58.8689 352.873 53.1269 347.82 47.7663C347.795 47.7406 347.776 47.7103 347.764 47.6772C347.751 47.6441 347.745 47.6089 347.746 47.5734C347.747 47.538 347.755 47.5032 347.77 47.4708C347.784 47.4385 347.805 47.4093 347.83 47.3849C347.856 47.3606 347.886 47.3416 347.92 47.3289C347.953 47.3163 347.988 47.3103 348.023 47.3113C348.059 47.3122 348.094 47.3202 348.126 47.3347C348.158 47.3491 348.187 47.3698 348.212 47.3955C353.445 53.0104 352.079 59.049 349.049 62.7886C347.581 64.5521 345.745 65.9725 343.669 66.9499C341.594 67.9272 339.329 68.4379 337.035 68.4458Z" fill="#263238"/>
<path d="M310.37 47.3849C310.316 47.3834 310.264 47.3654 310.22 47.3332C310.176 47.301 310.144 47.2562 310.126 47.2048C307.308 39.1322 311.08 28.2945 317.744 25.3282C317.809 25.3051 317.88 25.3063 317.944 25.3316C318.008 25.3569 318.061 25.4046 318.093 25.4659C318.107 25.4979 318.115 25.5323 318.115 25.5673C318.116 25.6022 318.11 25.6369 318.097 25.6694C318.084 25.7019 318.065 25.7315 318.041 25.7566C318.017 25.7817 317.987 25.8017 317.955 25.8155C311.514 28.6759 307.881 39.1852 310.624 47.0036C310.636 47.0369 310.641 47.0723 310.638 47.1075C310.636 47.1428 310.627 47.1772 310.611 47.2088C310.595 47.2404 310.573 47.2685 310.546 47.2914C310.52 47.3144 310.488 47.3318 310.455 47.3426L310.37 47.3849Z" fill="#263238"/>
<path d="M308.643 35.721H308.548C308.484 35.6949 308.431 35.6455 308.402 35.5826C308.373 35.5198 308.368 35.4481 308.389 35.382C310.296 30.3286 313.898 26.483 317.775 25.3388C317.843 25.3192 317.915 25.3271 317.977 25.3609C318.038 25.3946 318.084 25.4515 318.104 25.5189C318.123 25.5864 318.115 25.6589 318.082 25.7205C318.048 25.782 317.991 25.8277 317.924 25.8473C314.205 26.9068 310.741 30.6676 308.887 35.5727C308.865 35.6181 308.83 35.6561 308.787 35.6824C308.744 35.7087 308.694 35.7221 308.643 35.721Z" fill="#263238"/>
<path d="M323.475 317.522L317.352 317.532L316.324 294.533L326.632 294.787L323.475 317.522Z" fill="#FFB573"/>
<path d="M312.828 119.054C312.828 119.054 312.288 182.882 310.942 210.671C310.889 211.496 310.889 212.324 310.942 213.15C312.955 241.001 316.292 294.533 316.292 294.533L326.664 294.798C326.664 294.798 335.7 252.051 330.107 213.33C339.101 169.534 343.942 130.453 335.796 119.043L312.828 119.054Z" fill="#0D5FAA"/>
<path opacity="0.2" d="M330.202 144.405C327.024 155.063 330.117 189.324 331.759 205.13C333.995 193.71 335.902 182.724 337.311 172.596L330.202 144.405Z" fill="black"/>
<path d="M316.663 314.555H324.619C324.787 314.549 324.95 314.607 325.076 314.717C325.202 314.828 325.281 314.982 325.297 315.149L326.102 321.664C326.107 321.865 326.071 322.066 325.996 322.253C325.922 322.441 325.811 322.612 325.67 322.756C325.529 322.9 325.361 323.014 325.175 323.092C324.989 323.17 324.789 323.211 324.587 323.211C321.081 323.211 319.407 322.956 314.989 322.967C312.267 322.967 310.625 323.242 306.864 323.242C303.103 323.242 303.103 319.64 304.681 319.312C311.769 317.839 312.68 317.024 315.148 315.074C315.581 314.738 316.114 314.555 316.663 314.555Z" fill="#263238"/>
<path d="M319.28 72.0796C318.888 74.2726 318.443 76.3172 317.966 78.436C317.489 80.5548 317.002 82.6736 316.44 84.7924C315.328 89.03 314.173 93.1829 312.648 97.3781C311.882 99.5471 310.991 101.669 309.978 103.735C309.417 104.881 308.769 105.982 308.039 107.029C307.827 107.315 307.637 107.591 307.361 107.909C307.098 108.246 306.803 108.558 306.482 108.841C305.67 109.608 304.691 110.178 303.622 110.504C302.501 110.843 301.312 110.89 300.168 110.642C299.267 110.433 298.408 110.075 297.625 109.582C296.438 108.822 295.385 107.87 294.511 106.764C293.008 104.895 291.81 102.8 290.962 100.556C290.775 100.079 290.759 99.5529 290.916 99.0655C291.073 98.578 291.393 98.1596 291.822 97.8808C292.252 97.602 292.764 97.4798 293.273 97.5349C293.782 97.59 294.257 97.819 294.617 98.1833L294.744 98.321C296.059 99.7098 297.475 100.999 298.981 102.177C299.57 102.627 300.224 102.984 300.92 103.237C301.174 103.3 301.354 103.3 301.376 103.237C301.397 103.173 301.227 103.131 301.079 103.141C300.931 103.152 300.835 103.205 300.878 103.141C300.928 103.049 300.984 102.96 301.047 102.876C301.152 102.748 301.245 102.61 301.323 102.463C301.767 101.734 302.156 100.972 302.488 100.186C303.259 98.3707 303.938 96.5179 304.522 94.6343C305.73 90.7569 306.832 86.7206 307.785 82.6631C308.738 78.6055 309.681 74.4633 310.529 70.4164C310.79 69.2976 311.475 68.3236 312.439 67.6991C313.403 67.0746 314.572 66.8484 315.7 67.0679C316.827 67.2874 317.826 67.9355 318.486 68.8761C319.145 69.8167 319.415 70.9764 319.237 72.1114L319.28 72.0796Z" fill="#FFB573"/>
<path d="M309.65 110.388C309.65 112.994 350.267 113.502 350.267 110.059L329.514 104.762L309.65 110.388Z" fill="#263238"/>
<path d="M317.108 65.2464C327.817 63.4552 338.758 63.5628 349.43 65.5642C350.056 65.6633 350.655 65.8896 351.191 66.2291C351.726 66.5687 352.186 67.0142 352.542 67.5383C352.898 68.0624 353.144 68.654 353.263 69.2765C353.381 69.899 353.372 70.5393 353.234 71.1579C347.492 96.8695 347.82 105.514 348.371 119.053H312.839C311.059 96.467 310.116 83.574 309.883 76.2536C309.692 70.6705 311.61 66.0621 317.108 65.2464Z" fill="#FFB573"/>
<path opacity="0.2" d="M349.324 72.7153C349.101 76.3038 349.575 79.9017 350.723 83.3093C351.178 80.8621 351.708 78.2348 352.312 75.3638L349.324 72.7153Z" fill="black"/>
<path d="M337.766 46.4739C336.707 51.612 335.743 61.0512 339.345 64.4837C339.345 64.4837 337.936 69.7066 328.38 69.7066C317.86 69.7066 323.348 64.4837 323.348 64.4837C329.09 63.1065 328.941 58.8477 327.946 54.8537L337.766 46.4739Z" fill="#FFB573"/>
<path opacity="0.2" d="M333.762 49.8957L327.946 54.8855C328.193 55.8159 328.359 56.7658 328.443 57.7247C330.636 57.4068 333.645 55.002 333.878 52.7031C334.009 51.7679 333.969 50.8168 333.762 49.8957Z" fill="black"/>
<path d="M343.317 37.5537C341.347 45.9336 340.701 49.525 335.679 53.1375C328.136 58.5828 318.262 54.3452 317.669 45.5416C317.139 37.6279 320.434 25.2435 329.323 23.2942C331.275 22.854 333.307 22.9198 335.227 23.4854C337.147 24.051 338.89 25.0975 340.292 26.5258C341.694 27.9542 342.707 29.7169 343.237 31.6468C343.766 33.5768 343.794 35.61 343.317 37.5537Z" fill="#FFB573"/>
<path d="M340.118 24.9469C331.24 25.9321 333.942 42.48 340.616 44.0797C348.435 40.2552 353.255 25.7309 340.118 24.9469Z" fill="#263238"/>
<path d="M383.575 302.372L377.441 304.237L368.489 285.485L377.928 282.911L383.575 302.372Z" fill="#FFB573"/>
<path d="M375.671 302.362L383.553 299.311C383.691 299.257 383.844 299.255 383.983 299.303C384.123 299.352 384.241 299.448 384.316 299.576L387.844 305.529C387.929 305.678 387.98 305.843 387.995 306.013C388.01 306.183 387.988 306.354 387.931 306.515C387.874 306.676 387.782 306.823 387.663 306.945C387.544 307.068 387.4 307.163 387.24 307.224C384.475 308.284 383.14 308.824 379.676 310.17C377.557 310.996 374.231 313.75 371.285 314.884C368.34 316.017 367.048 313.327 368.107 312.394C370.978 309.889 373.238 306.762 374.718 303.252C374.808 303.046 374.939 302.861 375.103 302.708C375.267 302.555 375.46 302.437 375.671 302.362Z" fill="#263238"/>
<path d="M322.585 119.053C322.585 119.053 335.647 185.87 340.595 212.281C345.712 239.825 368.51 285.443 368.51 285.443L377.97 282.858C377.97 282.858 365.014 234.062 358.975 209.876C357.789 166.08 359.187 130.421 348.381 119.011L322.585 119.053Z" fill="#0D5FAA"/>
<path d="M329.418 37.5008C329.302 38.1894 328.846 38.6873 328.359 38.5602C327.871 38.433 327.638 37.861 327.755 37.1724C327.871 36.4838 328.338 35.9858 328.814 36.06C329.291 36.1341 329.545 36.8122 329.418 37.5008Z" fill="#263238"/>
<path d="M321.632 36.1766C321.515 36.8652 321.049 37.3631 320.572 37.236C320.096 37.1088 319.852 36.5474 319.968 35.8482C320.085 35.1489 320.551 34.6616 321.028 34.7888C321.505 34.9159 321.748 35.488 321.632 36.1766Z" fill="#263238"/>
<path d="M321.218 34.8629L319.64 34.1002C319.64 34.1002 320.276 35.5409 321.218 34.8629Z" fill="#263238"/>
<path d="M323.814 37.8291C322.939 39.2943 321.87 40.6342 320.636 41.8125C320.945 42.1214 321.316 42.36 321.726 42.5117C322.136 42.6635 322.573 42.7249 323.009 42.6918L323.814 37.8291Z" fill="#ED893E"/>
<path d="M326.293 46.029C325.938 46.0292 325.583 45.9973 325.234 45.9336C325.207 45.9298 325.181 45.9206 325.158 45.9067C325.135 45.8929 325.115 45.8745 325.1 45.8528C325.084 45.8311 325.073 45.8064 325.066 45.7803C325.06 45.7541 325.06 45.727 325.064 45.7006C325.074 45.6481 325.104 45.6015 325.147 45.5701C325.19 45.5386 325.244 45.5247 325.297 45.531C326.152 45.694 327.034 45.6543 327.871 45.4151C328.708 45.1759 329.477 44.744 330.117 44.1538C330.136 44.1333 330.159 44.1169 330.185 44.1056C330.21 44.0944 330.238 44.0886 330.266 44.0886C330.294 44.0886 330.321 44.0944 330.347 44.1056C330.372 44.1169 330.395 44.1333 330.414 44.1538C330.45 44.1929 330.47 44.2439 330.47 44.2968C330.47 44.3498 330.45 44.4008 330.414 44.4399C329.305 45.4938 327.823 46.0652 326.293 46.029Z" fill="#263238"/>
<path d="M344.525 44.7789C343.681 46.2133 342.308 47.2593 340.701 47.6923C338.582 48.2326 337.522 46.315 338.179 44.3234C338.741 42.533 340.542 40.0858 342.671 40.4142C343.134 40.4987 343.568 40.6967 343.935 40.9904C344.302 41.2842 344.59 41.6644 344.774 42.0971C344.958 42.5298 345.031 43.0013 344.988 43.4694C344.944 43.9375 344.785 44.3874 344.525 44.7789Z" fill="#FFB573"/>
<path d="M332.798 36.4413C332.712 36.4405 332.629 36.4123 332.56 36.3609C332.491 36.3094 332.441 36.2374 332.416 36.1553C331.855 34.3437 329.535 33.5598 329.514 33.5598C329.461 33.5442 329.413 33.5182 329.371 33.4833C329.329 33.4485 329.295 33.4055 329.27 33.3569C329.245 33.3084 329.231 33.2554 329.227 33.201C329.223 33.1466 329.231 33.0921 329.249 33.0407C329.264 32.9885 329.29 32.9399 329.325 32.8981C329.36 32.8562 329.403 32.8218 329.451 32.7971C329.5 32.7723 329.553 32.7577 329.607 32.754C329.662 32.7504 329.716 32.7578 329.768 32.7758C329.874 32.7758 332.512 33.6975 333.2 35.954C333.217 36.0062 333.222 36.0611 333.217 36.1155C333.212 36.1699 333.196 36.2228 333.171 36.2711C333.145 36.3194 333.11 36.3621 333.068 36.3968C333.026 36.4315 332.977 36.4574 332.925 36.4731L332.798 36.4413Z" fill="#263238"/>
<path d="M319.894 32.172C319.823 32.1711 319.754 32.1522 319.693 32.1169C319.632 32.0817 319.581 32.0313 319.544 31.9707C319.491 31.8751 319.478 31.7624 319.508 31.6571C319.538 31.5519 319.608 31.4627 319.703 31.4092C320.261 31.0718 320.892 30.8726 321.542 30.8284C322.193 30.7842 322.845 30.8961 323.443 31.155C323.539 31.2048 323.612 31.2905 323.646 31.3935C323.68 31.4966 323.671 31.6088 323.623 31.7059C323.573 31.8022 323.488 31.875 323.385 31.9087C323.281 31.9424 323.169 31.9342 323.072 31.8859C322.594 31.6902 322.077 31.6094 321.561 31.6498C321.046 31.6903 320.548 31.851 320.106 32.119C320.042 32.1575 319.968 32.176 319.894 32.172Z" fill="#263238"/>
<path d="M352.333 67.0369C355.352 70.9885 358.096 74.9824 360.702 79.1988C361.995 81.3176 363.266 83.4364 364.431 85.6929C365.697 88.0312 366.743 90.4818 367.556 93.0134C367.673 93.3524 367.758 93.7444 367.853 94.0728L367.927 94.38L368.023 94.825C368.065 95.1023 368.094 95.3816 368.107 95.6619C368.156 96.5814 368.088 97.5033 367.906 98.4058C367.605 99.8369 367.154 101.232 366.561 102.569C365.516 104.931 364.283 107.206 362.874 109.371C360.192 113.531 357.177 117.467 353.858 121.14C353.495 121.547 352.993 121.805 352.45 121.863C351.908 121.922 351.363 121.776 350.921 121.456C350.48 121.136 350.172 120.663 350.059 120.129C349.946 119.595 350.035 119.038 350.309 118.566V118.513C352.651 114.434 354.971 110.239 356.973 106.086C357.955 104.084 358.808 102.021 359.526 99.9101C359.835 99.0136 360.049 98.0867 360.162 97.1451C360.201 96.8675 360.201 96.5858 360.162 96.3081V96.2446V96.1174C360.088 95.9056 360.035 95.7149 359.939 95.4924C359.114 93.5062 358.144 91.5834 357.037 89.7398C355.871 87.78 354.632 85.8201 353.36 83.8602C350.775 79.9828 348.063 76.0842 345.309 72.3127C344.649 71.3664 344.383 70.2004 344.568 69.0616C344.753 67.9228 345.374 66.9008 346.3 66.2121C347.226 65.5234 348.383 65.2222 349.527 65.3722C350.671 65.5222 351.711 66.1116 352.428 67.0157L352.333 67.0369Z" fill="#FFB573"/>
<path d="M329.016 36.1871L327.437 35.4244C327.437 35.4244 328.062 36.8758 329.016 36.1871Z" fill="#263238"/>
<path d="M310.879 73.7217C311.533 71.0488 312.376 68.4256 313.4 65.8715C315.025 65.3861 316.687 65.0318 318.369 64.8121C321.795 67.8487 324.613 71.5085 326.674 75.5968C331.219 70.999 339.917 66.3482 345.214 64.6532C347.006 64.5402 348.803 64.7667 350.511 65.3206C346.898 76.7198 343.211 88.1825 349.748 91.1276C349.631 96.5412 349.939 103.258 350.214 110.049C344.038 109.371 319.544 108.195 309.597 110.377C309.088 103.491 308.908 97.6642 308.94 92.632C304.31 86.7311 308.95 78.7009 310.879 73.7217Z" fill="#263238"/>
<mask id="mask0_3820_6964" style="mask-type:luminance" maskUnits="userSpaceOnUse" x="306" y="64" width="45" height="47">
<path d="M310.879 73.7217C311.533 71.0488 312.376 68.4256 313.4 65.8715C315.025 65.3861 316.687 65.0318 318.369 64.8121C321.795 67.8487 324.613 71.5085 326.674 75.5968C331.219 70.999 339.917 66.3482 345.214 64.6532C347.006 64.5402 348.803 64.7667 350.511 65.3206C346.898 76.7198 343.211 88.1825 349.748 91.1276C349.631 96.5412 349.939 103.258 350.214 110.049C344.038 109.371 319.544 108.195 309.597 110.377C309.088 103.491 308.908 97.6642 308.94 92.632C304.31 86.7311 308.95 78.7009 310.879 73.7217Z" fill="white"/>
</mask>
<g mask="url(#mask0_3820_6964)">
<g opacity="0.2">
<path d="M320.615 94.9204C320.559 94.9271 320.507 94.9482 320.462 94.9817C320.417 95.0152 320.382 95.0598 320.361 95.1111C319.609 97.2182 319.632 99.5238 320.424 101.616C319.693 101.001 318.973 100.398 318.305 99.7831C318.902 98.5074 319.133 97.091 318.972 95.6919C318.811 94.2928 318.265 92.9658 317.394 91.8587C317.361 91.8154 317.317 91.7811 317.267 91.7589C317.217 91.7367 317.163 91.7273 317.108 91.7316C317.052 91.736 316.998 91.7563 316.953 91.79C316.908 91.8238 316.874 91.8697 316.854 91.9223C316.078 94.0885 316.127 96.4642 316.992 98.5965C316.038 97.7278 315.127 96.8591 314.29 96.0222C314.916 94.74 315.167 93.3074 315.015 91.8889C314.864 90.4703 314.315 89.1233 313.432 88.0025C313.399 87.9592 313.355 87.9249 313.305 87.9027C313.255 87.8805 313.2 87.8711 313.146 87.8754C313.09 87.8798 313.036 87.9001 312.991 87.9338C312.946 87.9676 312.912 88.0135 312.892 88.0661C312.121 90.2367 312.17 92.6139 313.029 94.7509C311.578 93.236 310.37 91.8588 309.47 90.7146C309.146 89.4336 308.503 88.2555 307.601 87.2903C306.699 86.3251 305.567 85.6043 304.311 85.1951C304.259 85.1862 304.207 85.1895 304.157 85.2049C304.108 85.2202 304.062 85.247 304.025 85.2832C303.988 85.3194 303.96 85.3639 303.943 85.413C303.927 85.4621 303.922 85.5146 303.929 85.5659C304.883 90.2591 308.336 91.0748 309.036 91.1913C309.533 91.8164 310.095 92.505 310.773 93.2466C309.113 92.5026 307.265 92.2809 305.476 92.6109C305.422 92.6234 305.372 92.6509 305.333 92.6902C305.293 92.7296 305.266 92.7792 305.253 92.8334C305.238 92.8859 305.235 92.9414 305.246 92.9951C305.257 93.0488 305.282 93.0988 305.317 93.1406C306.228 94.1792 307.411 94.9428 308.732 95.3452C310.054 95.7477 311.461 95.773 312.796 95.4183C313.39 96.0328 314.025 96.6578 314.693 97.3041C312.449 96.6626 310.054 96.8046 307.902 97.7066C307.851 97.7337 307.808 97.7741 307.779 97.8236C307.749 97.873 307.733 97.9297 307.733 97.9874C307.733 98.0451 307.749 98.1017 307.779 98.1512C307.808 98.2007 307.851 98.2411 307.902 98.2681C309.111 99.0213 310.497 99.4441 311.921 99.4942C313.345 99.5444 314.757 99.2203 316.017 98.5542C316.907 99.3911 317.85 100.228 318.824 101.065C316.654 100.085 314.198 99.942 311.928 100.662C311.875 100.684 311.829 100.718 311.793 100.763C311.758 100.808 311.735 100.86 311.726 100.917C311.721 100.972 311.729 101.027 311.749 101.079C311.769 101.131 311.801 101.177 311.843 101.213C312.958 102.117 314.302 102.694 315.724 102.881C317.147 103.068 318.594 102.857 319.905 102.273L319.99 102.22C320.023 102.185 320.045 102.14 320.053 102.093L321.25 103.067C321.288 103.117 321.339 103.154 321.399 103.173C322.034 103.682 322.681 104.18 323.337 104.667C323.395 104.716 323.468 104.743 323.544 104.743C323.62 104.743 323.693 104.716 323.751 104.667C323.775 104.633 323.793 104.594 323.802 104.554C323.812 104.513 323.813 104.47 323.806 104.429C323.799 104.388 323.784 104.348 323.762 104.313C323.74 104.277 323.711 104.246 323.676 104.222C323.073 103.766 322.469 103.311 321.886 102.834C322.436 101.572 322.634 100.185 322.459 98.8192C322.284 97.4537 321.742 96.1613 320.89 95.0793C320.862 95.031 320.822 94.9908 320.774 94.9629C320.725 94.9351 320.671 94.9204 320.615 94.9204Z" fill="white"/>
<path d="M310.169 78.5102C310.224 78.5036 310.277 78.4824 310.321 78.4489C310.366 78.4155 310.401 78.3708 310.423 78.3195C311.174 76.2124 311.152 73.9069 310.359 71.8148C311.09 72.4293 311.811 73.0331 312.478 73.6476C311.882 74.9233 311.651 76.3396 311.812 77.7387C311.973 79.1379 312.519 80.4649 313.389 81.5719C313.423 81.6152 313.466 81.6495 313.516 81.6717C313.566 81.6939 313.621 81.7033 313.675 81.699C313.732 81.6946 313.785 81.6744 313.83 81.6406C313.875 81.6068 313.91 81.561 313.93 81.5083C314.705 79.3422 314.656 76.9664 313.792 74.8341C314.745 75.7028 315.656 76.5715 316.493 77.4084C315.868 78.6906 315.616 80.1232 315.768 81.5418C315.92 82.9603 316.469 84.3073 317.352 85.4281C317.385 85.4714 317.428 85.5058 317.478 85.528C317.528 85.5502 317.583 85.5595 317.638 85.5552C317.694 85.5508 317.747 85.5306 317.792 85.4968C317.837 85.4631 317.872 85.4172 317.892 85.3646C318.662 83.194 318.613 80.8168 317.754 78.6797C319.205 80.1947 320.413 81.5719 321.314 82.7161C321.637 83.997 322.28 85.1751 323.182 86.1404C324.085 87.1056 325.217 87.8264 326.473 88.2355C326.524 88.2444 326.577 88.2411 326.626 88.2258C326.676 88.2105 326.721 88.1836 326.758 88.1475C326.795 88.1113 326.824 88.0668 326.84 88.0176C326.857 87.9685 326.862 87.9161 326.854 87.8647C325.901 83.1716 322.447 82.3559 321.748 82.2393C321.25 81.6143 320.689 80.9257 320.011 80.1841C321.67 80.9311 323.52 81.1493 325.308 80.8091C325.362 80.7999 325.412 80.7748 325.451 80.7371C325.491 80.6993 325.518 80.6507 325.53 80.5972C325.546 80.5448 325.548 80.4892 325.537 80.4355C325.526 80.3819 325.502 80.3319 325.467 80.29C324.556 79.2514 323.373 78.4879 322.051 78.0854C320.73 77.683 319.322 77.6577 317.987 78.0123C317.394 77.3979 316.758 76.7728 316.091 76.1266C318.334 76.7681 320.73 76.6261 322.882 75.724C322.933 75.6969 322.975 75.6565 323.005 75.6071C323.035 75.5576 323.05 75.501 323.05 75.4433C323.05 75.3855 323.035 75.3289 323.005 75.2795C322.975 75.23 322.933 75.1896 322.882 75.1625C321.672 74.4094 320.286 73.9866 318.862 73.9364C317.438 73.8862 316.026 74.2104 314.767 74.8765C313.877 74.0395 312.934 73.2026 311.959 72.3657C314.13 73.3453 316.586 73.4887 318.856 72.7683C318.907 72.7453 318.953 72.7102 318.988 72.6659C319.023 72.6216 319.047 72.5695 319.057 72.514C319.063 72.4589 319.055 72.4032 319.035 72.3516C319.014 72.3001 318.982 72.2541 318.941 72.2174C317.825 71.314 316.482 70.7369 315.059 70.5499C313.636 70.3629 312.189 70.5734 310.879 71.158L310.794 71.211C310.76 71.2461 310.738 71.2903 310.73 71.3381L309.533 70.3634C309.496 70.3134 309.444 70.2764 309.385 70.2575C308.749 69.749 308.103 69.2511 307.446 68.7637C307.389 68.7145 307.315 68.6874 307.24 68.6874C307.164 68.6874 307.091 68.7145 307.033 68.7637C306.985 68.8321 306.965 68.9161 306.977 68.9988C306.988 69.0814 307.031 69.1565 307.097 69.2087C307.711 69.6642 308.315 70.1198 308.898 70.5965C308.347 71.8584 308.149 73.2459 308.325 74.6114C308.5 75.9769 309.042 77.2694 309.893 78.3513C309.921 78.3997 309.961 78.4398 310.01 78.4677C310.058 78.4956 310.113 78.5103 310.169 78.5102Z" fill="white"/>
<path d="M342.83 102.654C342.777 102.662 342.726 102.682 342.681 102.713C342.637 102.744 342.601 102.786 342.576 102.834C341.834 104.943 341.857 107.245 342.64 109.339C341.909 108.735 341.188 108.121 340.521 107.506C341.118 106.232 341.349 104.818 341.188 103.42C341.027 102.022 340.481 100.697 339.61 99.5924C339.577 99.5488 339.534 99.5144 339.484 99.4924C339.434 99.4705 339.379 99.4617 339.325 99.4671C339.271 99.4724 339.219 99.4916 339.174 99.5228C339.129 99.554 339.093 99.5962 339.07 99.6453C338.299 101.816 338.348 104.193 339.207 106.33C338.254 105.451 337.343 104.593 336.506 103.756C337.134 102.476 337.387 101.045 337.235 99.6271C337.083 98.2096 336.533 96.8642 335.648 95.7467C335.617 95.701 335.573 95.6648 335.523 95.6424C335.472 95.6199 335.416 95.612 335.362 95.6196C335.308 95.6262 335.256 95.6462 335.212 95.6776C335.167 95.709 335.132 95.751 335.107 95.7997C334.337 97.9703 334.386 100.347 335.245 102.485C333.794 100.98 332.586 99.5924 331.686 98.4482C331.358 97.1689 330.714 95.9926 329.812 95.028C328.911 94.0633 327.781 93.3414 326.526 92.9287C326.475 92.9184 326.422 92.9207 326.373 92.9355C326.323 92.9502 326.277 92.977 326.24 93.0135C326.202 93.0517 326.173 93.0986 326.156 93.1502C326.14 93.2018 326.136 93.2567 326.145 93.3101C327.098 97.9927 330.563 98.8084 331.251 98.9249C331.749 99.55 332.311 100.249 332.989 100.991C331.328 100.246 329.481 100.024 327.692 100.355C327.638 100.37 327.59 100.398 327.551 100.437C327.512 100.476 327.484 100.524 327.469 100.578C327.453 100.628 327.451 100.682 327.462 100.734C327.473 100.786 327.497 100.835 327.533 100.874C328.438 101.92 329.621 102.689 330.944 103.092C332.267 103.495 333.677 103.515 335.012 103.152C335.605 103.766 336.241 104.402 336.908 105.048C334.665 104.401 332.268 104.543 330.118 105.451C330.069 105.48 330.029 105.52 329.999 105.568C329.97 105.616 329.952 105.67 329.948 105.726C329.947 105.782 329.961 105.838 329.989 105.886C330.017 105.935 330.058 105.975 330.107 106.002C331.316 106.756 332.701 107.18 334.125 107.232C335.549 107.284 336.961 106.962 338.222 106.298C339.112 107.125 340.055 107.962 341.029 108.809C338.859 107.83 336.403 107.686 334.133 108.407C334.08 108.428 334.034 108.463 333.998 108.507C333.963 108.552 333.94 108.605 333.931 108.661C333.925 108.716 333.933 108.771 333.956 108.821C333.978 108.872 334.014 108.915 334.059 108.947C335.174 109.85 336.517 110.427 337.94 110.614C339.363 110.801 340.81 110.591 342.121 110.006L342.195 109.943C342.226 109.908 342.251 109.869 342.269 109.826L343.466 110.801C343.499 110.85 343.548 110.887 343.604 110.907C344.239 111.415 344.886 111.913 345.542 112.411C345.6 112.46 345.673 112.487 345.749 112.487C345.825 112.487 345.898 112.46 345.956 112.411C346.006 112.344 346.028 112.259 346.016 112.175C346.004 112.092 345.959 112.017 345.892 111.966C345.278 111.511 344.684 111.044 344.091 110.578C344.644 109.318 344.844 107.93 344.671 106.565C344.497 105.199 343.956 103.906 343.106 102.824C343.078 102.774 343.039 102.732 342.99 102.703C342.942 102.673 342.887 102.656 342.83 102.654Z" fill="white"/>
<path d="M363.203 109.974C363.146 109.979 363.093 109.999 363.048 110.033C363.003 110.067 362.968 110.112 362.948 110.165C362.193 112.271 362.212 114.577 363.001 116.67C362.27 116.055 361.56 115.441 360.882 114.837C361.482 113.563 361.715 112.147 361.556 110.747C361.397 109.348 360.852 108.02 359.982 106.913C359.948 106.868 359.902 106.833 359.85 106.81C359.798 106.788 359.742 106.779 359.685 106.786C359.63 106.793 359.578 106.815 359.534 106.848C359.489 106.882 359.454 106.926 359.431 106.976C358.661 109.143 358.709 111.517 359.569 113.651C358.615 112.782 357.715 111.913 356.878 111.076C357.504 109.794 357.755 108.361 357.603 106.943C357.451 105.524 356.903 104.177 356.02 103.057C355.986 103.013 355.943 102.979 355.893 102.957C355.843 102.934 355.788 102.925 355.734 102.929C355.678 102.934 355.624 102.954 355.579 102.988C355.534 103.022 355.499 103.067 355.479 103.12C354.704 105.29 354.753 107.669 355.617 109.805C354.166 108.29 352.947 106.913 352.058 105.769C351.734 104.488 351.091 103.309 350.189 102.344C349.287 101.379 348.155 100.658 346.898 100.249C346.847 100.238 346.793 100.239 346.742 100.253C346.692 100.268 346.645 100.295 346.607 100.331C346.57 100.368 346.541 100.414 346.526 100.464C346.51 100.515 346.507 100.568 346.517 100.62C347.47 105.313 350.924 106.129 351.623 106.245C352.111 106.87 352.683 107.559 353.361 108.301C351.7 107.559 349.853 107.337 348.064 107.665C348.011 107.681 347.964 107.71 347.925 107.749C347.886 107.788 347.858 107.835 347.841 107.887C347.827 107.941 347.826 107.997 347.839 108.051C347.852 108.104 347.878 108.154 347.915 108.195C348.825 109.231 350.006 109.994 351.326 110.396C352.645 110.798 354.051 110.825 355.384 110.472C355.988 111.087 356.613 111.712 357.28 112.358C355.04 111.716 352.649 111.859 350.5 112.761C350.449 112.786 350.406 112.826 350.376 112.874C350.346 112.923 350.331 112.979 350.331 113.036C350.33 113.092 350.343 113.148 350.369 113.198C350.395 113.248 350.433 113.291 350.479 113.322C351.692 114.072 353.079 114.493 354.504 114.543C355.929 114.593 357.342 114.271 358.605 113.608C359.495 114.442 360.427 115.278 361.402 116.119C359.231 115.139 356.775 114.996 354.505 115.716C354.452 115.736 354.406 115.771 354.373 115.816C354.339 115.861 354.319 115.915 354.314 115.971C354.309 116.026 354.316 116.081 354.337 116.133C354.357 116.185 354.389 116.231 354.431 116.267C355.546 117.17 356.89 117.746 358.312 117.933C359.735 118.12 361.182 117.91 362.493 117.327C362.517 117.332 362.542 117.332 362.567 117.327C362.607 117.295 362.633 117.25 362.641 117.2L363.838 118.174C363.874 118.221 363.921 118.258 363.976 118.28C364.612 118.789 365.258 119.287 365.915 119.774C365.972 119.823 366.045 119.85 366.121 119.85C366.197 119.85 366.27 119.823 366.328 119.774C366.354 119.741 366.374 119.703 366.385 119.662C366.396 119.622 366.399 119.579 366.393 119.538C366.387 119.496 366.372 119.456 366.35 119.42C366.328 119.384 366.299 119.353 366.264 119.329L364.463 117.941C365.016 116.68 365.216 115.293 365.043 113.927C364.869 112.562 364.329 111.269 363.478 110.186C363.456 110.129 363.419 110.078 363.371 110.041C363.322 110.003 363.264 109.98 363.203 109.974Z" fill="white"/>
<path d="M316.621 111.172C316.566 111.176 316.514 111.195 316.469 111.227C316.424 111.259 316.389 111.302 316.367 111.352C315.611 113.457 315.63 115.763 316.42 117.856C315.689 117.253 314.979 116.638 314.301 116.024C314.9 114.749 315.133 113.333 314.974 111.934C314.815 110.534 314.27 109.207 313.4 108.099C313.365 108.056 313.32 108.023 313.269 108.002C313.218 107.981 313.162 107.973 313.107 107.98C313.052 107.986 313 108.006 312.955 108.038C312.91 108.07 312.873 108.113 312.849 108.163C312.079 110.334 312.128 112.711 312.987 114.848C312.034 113.968 311.133 113.11 310.296 112.273C310.922 110.991 311.173 109.559 311.021 108.14C310.87 106.721 310.321 105.375 309.438 104.254C309.406 104.21 309.362 104.176 309.311 104.155C309.261 104.135 309.206 104.128 309.152 104.137C309.097 104.139 309.043 104.158 308.998 104.19C308.953 104.222 308.918 104.266 308.898 104.317C308.123 106.487 308.172 108.866 309.035 111.002C307.781 109.719 306.593 108.371 305.476 106.966C305.149 105.686 304.505 104.51 303.603 103.546C302.701 102.581 301.571 101.859 300.317 101.446C300.264 101.436 300.21 101.438 300.158 101.453C300.107 101.468 300.059 101.494 300.02 101.531C299.986 101.57 299.961 101.616 299.947 101.665C299.932 101.714 299.928 101.766 299.935 101.817C300.889 106.51 304.342 107.326 305.042 107.443C305.529 108.068 306.101 108.756 306.779 109.561C305.121 108.809 303.271 108.587 301.482 108.926C301.43 108.939 301.382 108.966 301.343 109.003C301.305 109.04 301.276 109.086 301.259 109.138C301.245 109.191 301.244 109.247 301.257 109.301C301.27 109.354 301.296 109.404 301.334 109.445C302.237 110.491 303.417 111.26 304.739 111.663C306.061 112.066 307.469 112.086 308.802 111.722C309.406 112.337 310.031 112.973 310.699 113.619C308.46 112.967 306.065 113.109 303.919 114.021C303.868 114.045 303.826 114.083 303.796 114.13C303.766 114.176 303.75 114.231 303.749 114.286C303.747 114.343 303.76 114.399 303.786 114.449C303.812 114.499 303.85 114.541 303.897 114.572C305.108 115.326 306.495 115.75 307.921 115.802C309.346 115.854 310.76 115.532 312.023 114.869C312.913 115.695 313.845 116.532 314.82 117.369C312.648 116.392 310.192 116.252 307.923 116.977C307.872 116.996 307.827 117.029 307.793 117.072C307.76 117.115 307.739 117.167 307.732 117.221C307.725 117.276 307.732 117.332 307.752 117.384C307.773 117.436 307.806 117.482 307.849 117.517C308.965 118.42 310.308 118.996 311.731 119.183C313.153 119.37 314.6 119.16 315.911 118.577C315.935 118.582 315.961 118.582 315.985 118.577C316.023 118.548 316.049 118.507 316.059 118.46L317.256 119.435C317.292 119.482 317.34 119.519 317.394 119.541C318.04 120.049 318.676 120.547 319.333 121.045C319.39 121.094 319.464 121.122 319.539 121.122C319.615 121.122 319.688 121.094 319.746 121.045C319.772 121.012 319.792 120.975 319.803 120.934C319.814 120.893 319.817 120.851 319.811 120.809C319.805 120.767 319.791 120.727 319.768 120.691C319.746 120.655 319.717 120.624 319.682 120.6L317.881 119.212C318.434 117.95 318.634 116.561 318.461 115.194C318.287 113.826 317.747 112.532 316.896 111.447C316.891 111.376 316.861 111.308 316.81 111.258C316.759 111.207 316.692 111.177 316.621 111.172Z" fill="white"/>
<path d="M342.152 66.539C342.097 66.5467 342.045 66.5682 342.001 66.6016C341.956 66.6349 341.921 66.679 341.898 66.7297C341.156 68.8383 341.179 71.1407 341.962 73.2344C341.231 72.62 340.51 72.0161 339.843 71.4017C340.439 70.1259 340.67 68.7096 340.509 67.3105C340.349 65.9114 339.802 64.5844 338.932 63.4773C338.898 63.434 338.855 63.3997 338.805 63.3775C338.755 63.3553 338.7 63.3459 338.646 63.3502C338.59 63.3546 338.536 63.3749 338.491 63.4086C338.446 63.4424 338.411 63.4883 338.392 63.5409C337.621 65.7078 337.67 68.0818 338.529 70.2151C337.576 69.3464 336.665 68.4777 335.828 67.6408C336.453 66.3586 336.705 64.926 336.553 63.5075C336.401 62.0889 335.852 60.7419 334.97 59.6211C334.937 59.577 334.893 59.5422 334.843 59.5199C334.793 59.4976 334.738 59.4887 334.684 59.494C334.627 59.4984 334.574 59.5187 334.529 59.5524C334.484 59.5862 334.449 59.6321 334.429 59.6847C333.659 61.8553 333.708 64.2325 334.567 66.3695C333.116 64.8546 331.908 63.4773 331.007 62.3332C330.684 61.0522 330.041 59.8741 329.139 58.9089C328.237 57.9437 327.104 57.2228 325.848 56.8137C325.797 56.8048 325.745 56.8081 325.695 56.8234C325.645 56.8388 325.6 56.8656 325.563 56.9018C325.526 56.9379 325.498 56.9824 325.481 57.0316C325.464 57.0807 325.459 57.1331 325.467 57.1845C326.42 61.8776 329.885 62.6934 330.573 62.8099C331.071 63.435 331.633 64.1236 332.311 64.8652C330.65 64.1205 328.803 63.8988 327.014 64.2295C326.961 64.2459 326.914 64.2746 326.875 64.3134C326.836 64.3521 326.807 64.3997 326.791 64.452C326.775 64.5044 326.773 64.56 326.784 64.6137C326.795 64.6674 326.819 64.7174 326.855 64.7592C327.765 65.7978 328.948 66.5614 330.27 66.9638C331.591 67.3663 332.999 67.3916 334.334 67.0369C334.927 67.6514 335.563 68.2764 336.23 68.9227C333.987 68.2812 331.592 68.4231 329.44 69.3252C329.391 69.3541 329.351 69.3942 329.321 69.4422C329.292 69.4901 329.274 69.5445 329.27 69.6007C329.269 69.6581 329.283 69.7147 329.311 69.7649C329.339 69.8151 329.38 69.8571 329.429 69.8867C330.638 70.6399 332.024 71.0626 333.448 71.1128C334.872 71.163 336.284 70.8389 337.544 70.1727C338.434 71.0097 339.377 71.8466 340.351 72.6835C338.181 71.704 335.725 71.5606 333.455 72.281C333.402 72.3023 333.356 72.3369 333.32 72.3815C333.285 72.4261 333.262 72.479 333.253 72.5352C333.247 72.5914 333.256 72.6483 333.278 72.7002C333.3 72.7522 333.336 72.7975 333.381 72.8319C334.494 73.7343 335.836 74.3109 337.257 74.4979C338.678 74.6849 340.123 74.4749 341.432 73.8913L341.517 73.8383C341.55 73.8032 341.572 73.7589 341.58 73.7112L342.777 74.6858C342.817 74.7336 342.868 74.7702 342.926 74.7917C343.561 75.3003 344.208 75.7982 344.864 76.2855C344.922 76.3347 344.995 76.3618 345.071 76.3618C345.147 76.3618 345.22 76.3347 345.278 76.2855C345.328 76.2181 345.35 76.1333 345.338 76.0499C345.326 75.9664 345.281 75.8911 345.214 75.8406C344.6 75.385 344.006 74.9295 343.413 74.4527C343.966 73.192 344.166 71.8048 343.993 70.4391C343.819 69.0734 343.278 67.7804 342.428 66.6979C342.398 66.6515 342.357 66.613 342.309 66.5853C342.261 66.5577 342.208 66.5418 342.152 66.539Z" fill="white"/>
<path d="M332.088 86.6676C332.143 86.663 332.195 86.6439 332.24 86.6122C332.284 86.5805 332.32 86.5375 332.342 86.4875C333.098 84.3818 333.079 82.0759 332.289 79.9828C333.02 80.5867 333.73 81.2011 334.408 81.8156C333.809 83.0901 333.576 84.5061 333.735 85.9054C333.894 87.3048 334.439 88.6323 335.309 89.7399C335.343 89.7829 335.389 89.8164 335.44 89.8373C335.491 89.8582 335.547 89.8659 335.602 89.8595C335.657 89.8532 335.709 89.8331 335.754 89.801C335.799 89.769 335.836 89.7261 335.86 89.6763C336.63 87.5057 336.581 85.1285 335.722 82.9915C336.675 83.8673 337.576 84.7254 338.423 85.5659C337.798 86.848 337.546 88.2806 337.698 89.6992C337.85 91.1177 338.399 92.4647 339.281 93.5855C339.316 93.6285 339.361 93.662 339.413 93.6829C339.464 93.7038 339.519 93.7115 339.574 93.7051C339.629 93.6988 339.682 93.6787 339.727 93.6467C339.772 93.6146 339.808 93.5717 339.832 93.5219C340.604 91.3509 340.551 88.9719 339.684 86.8371C340.939 88.1207 342.127 89.4679 343.244 90.8734C343.571 92.1544 344.216 93.3319 345.12 94.2968C346.024 95.2617 347.157 95.9827 348.413 96.3929C348.464 96.4033 348.517 96.401 348.567 96.3862C348.617 96.3714 348.662 96.3446 348.7 96.3082C348.736 96.269 348.763 96.2216 348.778 96.17C348.792 96.1185 348.795 96.0642 348.784 96.0115C347.841 91.329 344.377 90.5133 343.678 90.3967C343.191 89.7717 342.619 89.0831 341.941 88.2779C343.599 89.0305 345.449 89.2525 347.238 88.9135C347.29 88.8999 347.337 88.8733 347.376 88.8363C347.415 88.7992 347.444 88.7529 347.46 88.7017C347.475 88.6484 347.475 88.5922 347.462 88.5385C347.449 88.4848 347.423 88.4353 347.386 88.3945C346.483 87.3486 345.302 86.5797 343.981 86.1766C342.659 85.7736 341.25 85.7528 339.917 86.1167C339.324 85.5023 338.688 84.8666 338.021 84.2204C340.26 84.8724 342.655 84.7302 344.801 83.8178C344.852 83.7922 344.895 83.7529 344.925 83.7042C344.955 83.6556 344.971 83.5995 344.97 83.5424C344.974 83.4872 344.962 83.4322 344.936 83.3835C344.909 83.3349 344.87 83.2945 344.822 83.2669C343.611 82.5132 342.224 82.0893 340.799 82.0373C339.373 81.9853 337.959 82.3069 336.697 82.9703C335.807 82.144 334.874 81.307 333.9 80.4701C336.073 81.4423 338.527 81.5818 340.796 80.8621C340.848 80.843 340.892 80.8101 340.926 80.7671C340.96 80.7241 340.981 80.6727 340.987 80.6184C340.997 80.5631 340.991 80.5061 340.97 80.4538C340.95 80.4015 340.915 80.3559 340.871 80.3218C339.757 79.4163 338.413 78.8377 336.99 78.6507C335.566 78.4636 334.119 78.6754 332.809 79.2624C332.784 79.2575 332.759 79.2575 332.734 79.2624C332.704 79.297 332.679 79.3364 332.66 79.3789L331.463 78.4043C331.43 78.355 331.381 78.3179 331.325 78.2984C330.69 77.7898 330.043 77.2389 329.387 76.794C329.329 76.7448 329.256 76.7177 329.18 76.7177C329.104 76.7177 329.031 76.7448 328.973 76.794C328.923 76.8614 328.901 76.9462 328.913 77.0296C328.925 77.1131 328.97 77.1884 329.037 77.239L330.838 78.6268C330.285 79.8894 330.085 81.2782 330.259 82.6455C330.432 84.0128 330.973 85.3076 331.823 86.3922C331.833 86.46 331.864 86.523 331.912 86.5724C331.959 86.6218 332.021 86.6551 332.088 86.6676Z" fill="white"/>
</g>
</g>
<path d="M336.739 95.7785L265.759 102.94C263.866 103.133 262.126 104.069 260.923 105.542C259.719 107.016 259.149 108.907 259.339 110.801L261.775 135.072C263.624 133.762 265.784 132.959 268.039 132.745C270.295 132.53 272.567 132.91 274.63 133.848C276.692 134.786 278.473 136.248 279.794 138.089C281.115 139.93 281.93 142.085 282.158 144.34C282.385 146.594 282.018 148.868 281.092 150.937C280.167 153.005 278.715 154.794 276.882 156.125C275.049 157.457 272.898 158.285 270.645 158.526C268.393 158.767 266.116 158.413 264.042 157.499L266.49 181.77C266.685 183.663 267.621 185.401 269.094 186.606C270.567 187.811 272.456 188.384 274.35 188.201L345.33 181.05C347.224 180.852 348.962 179.913 350.167 178.439C351.372 176.964 351.944 175.073 351.761 173.178L344.61 102.198C344.409 100.307 343.47 98.5708 341.995 97.3685C340.521 96.1661 338.632 95.5947 336.739 95.7785Z" fill="#0D5FAA"/>
<path opacity="0.3" d="M336.739 95.7785L265.759 102.94C263.866 103.133 262.126 104.069 260.923 105.542C259.719 107.016 259.149 108.907 259.339 110.801L261.775 135.072C263.624 133.762 265.784 132.959 268.039 132.745C270.295 132.53 272.567 132.91 274.63 133.848C276.692 134.786 278.473 136.248 279.794 138.089C281.115 139.93 281.93 142.085 282.158 144.34C282.385 146.594 282.018 148.868 281.092 150.937C280.167 153.005 278.715 154.794 276.882 156.125C275.049 157.457 272.898 158.285 270.645 158.526C268.393 158.767 266.116 158.413 264.042 157.499L266.49 181.77C266.685 183.663 267.621 185.401 269.094 186.606C270.567 187.811 272.456 188.384 274.35 188.201L345.33 181.05C347.224 180.852 348.962 179.913 350.167 178.439C351.372 176.964 351.944 175.073 351.761 173.178L344.61 102.198C344.409 100.307 343.47 98.5708 341.995 97.3685C340.521 96.1661 338.632 95.5947 336.739 95.7785Z" fill="black"/>
<path d="M356.104 117.549L352.82 116.119L345.108 118.089C344.224 118.321 343.441 118.839 342.883 119.562L341.251 121.681C340.904 122.145 340.728 122.715 340.753 123.294C340.778 123.874 341.003 124.427 341.389 124.859L343.232 126.893C343.675 127.377 344.288 127.671 344.943 127.71C345.598 127.75 346.242 127.533 346.739 127.105L350.924 123.514C350.924 123.514 355.966 121.151 356.104 117.549Z" fill="#FFB573"/>
<path d="M289.245 104.317L292.657 103.883C293.117 103.831 293.547 103.63 293.881 103.31C294.216 102.991 294.437 102.571 294.511 102.114L294.977 99.4016C295.039 99.0786 295.025 98.7456 294.937 98.4288C294.848 98.1121 294.687 97.8204 294.466 97.5768C294.245 97.3332 293.97 97.1444 293.663 97.0253C293.357 96.9062 293.027 96.8602 292.699 96.8908L288.716 97.1768C288.155 97.207 287.63 97.4581 287.255 97.8752C286.879 98.2923 286.685 98.8412 286.714 99.4016L286.819 102.262C286.825 102.563 286.895 102.859 287.024 103.13C287.153 103.402 287.339 103.643 287.568 103.838C287.798 104.032 288.066 104.175 288.355 104.258C288.644 104.341 288.948 104.361 289.245 104.317Z" fill="#FFB573"/>
<path d="M342.332 26.4617C333.921 30.6993 319.142 28.75 319.142 28.75C319.142 28.75 327.384 15.2745 342.332 26.4617Z" fill="#263238"/>
<path d="M194.313 295.253L190.086 317.257L179.386 314.672L183.613 292.668L194.313 295.253Z" fill="#7F3E3B"/>
<path d="M179.725 310.201L191.622 312.786C191.806 312.822 191.97 312.926 192.082 313.077C192.194 313.228 192.245 313.415 192.226 313.602L191.399 322.342C191.372 322.561 191.299 322.773 191.186 322.962C191.072 323.152 190.92 323.316 190.74 323.443C190.56 323.571 190.354 323.66 190.138 323.703C189.921 323.747 189.698 323.745 189.482 323.698C185.742 322.819 184.63 322.268 179.894 321.24C174.375 320.022 172.415 320.35 165.931 318.931C162.012 318.073 162.192 313.962 163.95 313.952C168.595 313.963 173.16 312.746 177.182 310.424C177.971 310.029 178.88 309.949 179.725 310.201Z" fill="#263238"/>
<path opacity="0.2" d="M194.323 295.264L192.141 306.599L181.43 304.015L183.613 292.668L194.323 295.264Z" fill="black"/>
<path d="M212.937 210.512C225.491 173.581 235.428 129.997 235.428 129.997L199.62 127.73C199.62 127.73 194.323 184.281 191.59 210.363C188.73 237.463 179.841 298.643 179.841 298.643L195.997 301.917C195.997 301.917 211.147 244.307 212.937 210.512Z" fill="#263238"/>
<path opacity="0.2" d="M218.912 150.55L227.599 161.292C225.385 169.587 222.8 178.91 219.961 188.434C218.332 175.874 217.98 163.181 218.912 150.55Z" fill="#263238"/>
<path d="M180.074 300.942L194.906 304.184C195.202 304.249 195.511 304.204 195.775 304.055C196.039 303.906 196.239 303.666 196.336 303.379L197.968 298.601C198.024 298.439 198.046 298.267 198.031 298.096C198.017 297.925 197.966 297.76 197.883 297.61C197.8 297.46 197.687 297.329 197.55 297.226C197.413 297.123 197.256 297.05 197.088 297.012L180.996 293.251C180.827 293.211 180.651 293.207 180.48 293.24C180.31 293.273 180.148 293.342 180.006 293.442C179.863 293.542 179.744 293.671 179.655 293.821C179.567 293.971 179.511 294.137 179.492 294.31L179.121 299.607C179.088 299.908 179.166 300.211 179.342 300.457C179.518 300.703 179.779 300.876 180.074 300.942Z" fill="#263238"/>
<path opacity="0.1" d="M180.074 300.942L194.906 304.184C195.202 304.249 195.511 304.204 195.775 304.055C196.039 303.906 196.239 303.666 196.336 303.379L197.968 298.601C198.024 298.439 198.046 298.267 198.031 298.096C198.017 297.925 197.966 297.76 197.883 297.61C197.8 297.46 197.687 297.329 197.55 297.226C197.413 297.123 197.256 297.05 197.088 297.012L180.996 293.251C180.827 293.211 180.651 293.207 180.48 293.24C180.31 293.273 180.148 293.342 180.006 293.442C179.863 293.542 179.744 293.671 179.655 293.821C179.567 293.971 179.511 294.137 179.492 294.31L179.121 299.607C179.088 299.908 179.166 300.211 179.342 300.457C179.518 300.703 179.779 300.876 180.074 300.942Z" fill="white"/>
<path d="M253.215 294.49L253.883 317.193L243.024 317.045L242.356 294.342L253.215 294.49Z" fill="#7F3E3B"/>
<path d="M242.749 312.384L254.296 312.553C254.483 312.552 254.664 312.621 254.803 312.747C254.943 312.872 255.03 313.045 255.048 313.231L255.981 321.961C255.998 322.181 255.97 322.404 255.896 322.613C255.823 322.822 255.707 323.014 255.555 323.175C255.404 323.337 255.22 323.465 255.016 323.551C254.812 323.638 254.592 323.68 254.37 323.677C250.535 323.56 249.328 323.242 244.486 323.168C238.829 323.073 237.611 323.783 230.979 323.687C226.964 323.624 226.317 319.556 228.034 319.195C232.59 318.285 236.826 316.187 240.312 313.115C241.002 312.57 241.873 312.308 242.749 312.384Z" fill="#263238"/>
<path opacity="0.2" d="M253.226 294.501L253.565 306.197L242.695 306.048L242.356 294.342L253.226 294.501Z" fill="black"/>
<path d="M250.514 209.759C247.442 170.911 250.037 149.956 245.524 130.664L212.937 128.641C212.937 128.641 223.054 185.743 228.637 211.571C234.22 237.399 240.227 300.137 240.227 300.137L256.245 300.338C256.245 300.338 258.205 240.069 250.514 209.759Z" fill="#263238"/>
<path d="M240.27 303.019L255.43 303.252C255.743 303.255 256.046 303.139 256.277 302.926C256.507 302.713 256.648 302.42 256.669 302.108L256.998 297.107C257.011 296.942 256.99 296.776 256.937 296.619C256.883 296.462 256.798 296.318 256.687 296.195C256.576 296.072 256.441 295.973 256.291 295.904C256.14 295.835 255.977 295.797 255.811 295.794L239.316 295.285C239.133 295.278 238.95 295.313 238.782 295.387C238.614 295.461 238.465 295.572 238.346 295.711C238.227 295.851 238.141 296.016 238.094 296.193C238.048 296.371 238.042 296.556 238.077 296.736L239.136 302.033C239.193 302.298 239.334 302.538 239.539 302.715C239.743 302.893 240 302.999 240.27 303.019Z" fill="#263238"/>
<path opacity="0.1" d="M240.27 303.019L255.43 303.252C255.743 303.255 256.046 303.139 256.277 302.926C256.507 302.713 256.648 302.42 256.669 302.108L256.998 297.107C257.011 296.942 256.99 296.776 256.937 296.619C256.883 296.462 256.798 296.318 256.687 296.195C256.576 296.072 256.441 295.973 256.291 295.904C256.14 295.835 255.977 295.797 255.811 295.794L239.316 295.285C239.133 295.278 238.95 295.313 238.782 295.387C238.614 295.461 238.465 295.572 238.346 295.711C238.227 295.851 238.141 296.016 238.094 296.193C238.048 296.371 238.042 296.556 238.077 296.736L239.136 302.033C239.193 302.298 239.334 302.538 239.539 302.715C239.743 302.893 240 302.999 240.27 303.019Z" fill="white"/>
<path d="M211.888 68.8803C210.638 71.5817 209.335 73.976 207.916 76.4444C206.496 78.9128 205.002 81.307 203.35 83.6589C201.679 86.0871 199.853 88.405 197.883 90.598C195.698 93.1229 193.135 95.2955 190.287 97.0392L189.917 97.251C189.283 97.6236 188.578 97.8578 187.848 97.9382C187.117 98.0185 186.378 97.9432 185.679 97.7172C183.613 97.0497 181.611 96.2976 179.651 95.4924C177.691 94.6873 175.784 93.7974 173.909 92.8651C172.034 91.9328 170.201 90.9476 168.4 89.8882C166.599 88.8288 164.841 87.7694 163.103 86.4875C162.481 86.0464 162.033 85.402 161.835 84.6654C161.637 83.9289 161.703 83.1465 162.021 82.4533C162.339 81.7601 162.888 81.1995 163.575 80.8684C164.262 80.5373 165.043 80.4564 165.783 80.6396H165.9C167.796 81.0952 169.756 81.646 171.663 82.144L177.394 83.6589C179.291 84.178 181.198 84.6124 183.073 85.0785C184.948 85.5446 186.823 85.9048 188.666 86.2862L184.1 86.9748C185.687 85.6594 187.109 84.1584 188.338 82.5042C189.789 80.6396 191.188 78.5844 192.576 76.4656C193.963 74.3468 195.224 72.1326 196.474 69.8867C197.724 67.6408 198.996 65.3207 200.119 63.1807L200.182 63.0642C201.027 61.6578 202.37 60.6211 203.944 60.1605C205.519 59.6998 207.209 59.849 208.678 60.5784C210.148 61.3077 211.288 62.5637 211.873 64.0963C212.459 65.6288 212.445 67.3255 211.836 68.8485L211.888 68.8803Z" fill="#7F3E3B"/>
<path d="M214.494 50.3619C201.845 51.8027 192.247 71.391 192.247 71.391L205.299 85.2798C205.299 85.2798 211.115 78.3513 217.365 69.59C224.188 60.0448 224.506 49.2283 214.494 50.3619Z" fill="#0D5FAA"/>
<path d="M212.937 53.2965C217.8 51.5697 239.581 54.3559 239.581 54.3559C235.343 59.8224 231.805 105.091 231.413 131.11C226.783 131.745 209.028 130.527 204.928 129.573C205.458 119.361 209.716 71.4547 212.937 53.2965Z" fill="white"/>
<path d="M198.879 67.0263C199.45 62.3188 201.731 57.9851 205.287 54.8484C208.844 51.7118 213.428 49.9908 218.17 50.0123C227.271 50.0851 236.341 51.0861 245.238 52.9999C246.624 53.2932 247.937 53.8614 249.099 54.6709C250.261 55.4805 251.25 56.5149 252.005 57.713C252.761 58.9111 253.268 60.2485 253.498 61.6462C253.728 63.0439 253.675 64.4735 253.343 65.8504C246.637 93.9775 248.406 120.664 246.615 133.08C240.232 135.427 233.453 136.507 226.656 136.258C226.656 136.258 226.815 125.548 228.309 107.464C229.495 93.0876 231.625 59.2821 236.011 53.6673C236.011 53.6673 220.289 51.5485 215.427 53.2541C211.814 73.6476 209.166 135.421 209.166 135.432C201.474 134.881 197.851 130.601 197.968 129.33C196.41 104.338 197.194 81.6779 198.879 67.0263Z" fill="#0D5FAA"/>
<path d="M236.572 35.7422C235.1 39.9799 233.394 47.491 236.117 51.7074C236.255 51.9033 236.348 52.1274 236.389 52.3635C236.43 52.5997 236.418 52.842 236.354 53.073C236.29 53.304 236.176 53.518 236.02 53.6995C235.863 53.8811 235.668 54.0257 235.449 54.1229C231.073 56.6472 226.016 57.7364 220.988 57.2375C214.155 56.6866 214.632 53.6038 216.391 51.6015C216.806 51.1391 217.382 50.8514 218.001 50.7963C224.453 50.023 224.516 46.135 223.584 42.3211L236.572 35.7422Z" fill="#7F3E3B"/>
<path opacity="0.2" d="M231.275 38.4437L223.595 42.3529C223.838 43.2557 223.976 44.1835 224.008 45.1179C226.805 45.1179 230.767 43.2428 231.222 41.0922C231.456 40.227 231.475 39.3175 231.275 38.4437Z" fill="black"/>
<path d="M226.33 21.0128C226.619 17.1914 224.54 13.9187 221.687 13.7032C218.834 13.4877 216.287 16.4109 215.999 20.2324C215.71 24.0538 217.789 27.3264 220.642 27.542C223.495 27.7575 226.041 24.8343 226.33 21.0128Z" fill="#263238"/>
<path d="M240.725 24.1629C239.306 32.5216 238.893 37.4902 234.252 41.3782C227.271 47.2155 217.471 42.2787 216.412 33.6657C215.448 25.9215 217.927 13.5371 226.381 11.0369C234.835 8.53674 242.145 15.7936 240.725 24.1629Z" fill="#7F3E3B"/>
<path d="M238.903 31.2292C238.797 31.2292 238.67 31.0915 238.554 31.1551C234.761 33.2739 233.532 28.7184 233.765 25.6885C233.843 24.6778 234.133 23.6948 234.617 22.804C235.101 21.9131 235.767 21.1343 236.572 20.5187C232.462 20.9848 228.479 18.3363 228.415 15.8679C223.87 17.8702 218.393 17.9867 215.925 13.7491C213.456 9.51147 216.984 3.97081 221.688 5.44338C219.781 2.03211 227.843 -4.79044 236.286 5.27387C236.551 -2.0254 248.353 5.27387 246.414 12.446C251.881 14.3318 256.563 24.7139 247.294 26.928C246.679 36.5474 238.903 31.2292 238.903 31.2292Z" fill="#263238"/>
<path d="M243.374 33.8564C242.091 35.4308 240.259 36.4605 238.246 36.738C235.704 37.024 235.142 34.4391 236.445 32.0872C237.621 29.9684 240.355 27.2776 242.622 28.1039C244.889 28.9302 245.027 31.8436 243.374 33.8564Z" fill="#7F3E3B"/>
<path d="M228.605 24.788C228.542 25.4872 228.129 26.0063 227.673 25.964C227.218 25.9216 226.9 25.3283 226.963 24.6291C227.027 23.9299 227.44 23.4214 227.896 23.4638C228.351 23.5061 228.658 24.0994 228.605 24.788Z" fill="#263238"/>
<path d="M220.395 23.8768C220.332 24.5654 219.919 25.0846 219.463 25.0422C219.007 24.9998 218.7 24.4065 218.753 23.7179C218.806 23.0293 219.23 22.4996 219.686 22.542C220.141 22.5844 220.501 23.1776 220.395 23.8768Z" fill="#263238"/>
<path d="M223.605 24.2689C222.593 26.2999 221.306 28.182 219.781 29.8625C220.22 30.2456 220.738 30.5284 221.298 30.6912C221.858 30.854 222.446 30.893 223.023 30.8054L223.605 24.2689Z" fill="#630F0F"/>
<path d="M225.163 34.1743C225.932 34.2283 226.704 34.1256 227.432 33.8725C228.161 33.6194 228.83 33.2211 229.4 32.7017C229.419 32.6822 229.434 32.6593 229.444 32.6341C229.454 32.6089 229.458 32.582 229.458 32.555C229.457 32.5279 229.452 32.5012 229.441 32.4764C229.43 32.4516 229.414 32.4292 229.395 32.4104C229.375 32.3916 229.353 32.3768 229.327 32.3669C229.302 32.357 229.275 32.3522 229.248 32.3527C229.221 32.3532 229.194 32.359 229.17 32.3698C229.145 32.3806 229.122 32.3962 229.104 32.4157C228.458 32.9865 227.687 33.3964 226.853 33.6119C226.019 33.8273 225.146 33.8422 224.305 33.6552C224.279 33.649 224.252 33.6483 224.226 33.6531C224.2 33.6579 224.175 33.6682 224.153 33.6831C224.131 33.6981 224.112 33.7175 224.098 33.74C224.084 33.7626 224.075 33.7878 224.071 33.8141C224.062 33.8673 224.073 33.9222 224.103 33.9675C224.132 34.0128 224.178 34.0451 224.23 34.0577C224.569 34.1107 224.866 34.1531 225.163 34.1743Z" fill="#263238"/>
<path d="M231.318 23.1036C231.384 23.119 231.453 23.119 231.519 23.1036C231.568 23.0819 231.613 23.0506 231.649 23.0115C231.686 22.9723 231.715 22.9263 231.734 22.8759C231.752 22.8256 231.761 22.772 231.759 22.7183C231.756 22.6646 231.743 22.6119 231.72 22.5633C231.472 21.964 231.085 21.4318 230.591 21.0102C230.098 20.5887 229.512 20.2896 228.881 20.1373C228.775 20.1219 228.666 20.1488 228.579 20.2121C228.492 20.2754 228.433 20.3702 228.415 20.4763C228.4 20.5828 228.427 20.6912 228.49 20.7782C228.553 20.8653 228.648 20.9242 228.754 20.9424C229.252 21.0707 229.712 21.3139 230.098 21.6524C230.485 21.991 230.786 22.4155 230.979 22.8917C231.014 22.9516 231.064 23.0021 231.123 23.039C231.182 23.0759 231.249 23.098 231.318 23.1036Z" fill="#263238"/>
<path d="M216.953 20.4975C217.018 20.515 217.087 20.5165 217.154 20.5017C217.22 20.487 217.282 20.4565 217.334 20.4128C217.711 20.0707 218.164 19.8223 218.656 19.688C219.147 19.5536 219.663 19.537 220.163 19.6394C220.265 19.6688 220.375 19.6564 220.468 19.6047C220.562 19.5531 220.631 19.4665 220.66 19.364C220.69 19.26 220.678 19.1485 220.627 19.0535C220.575 18.9584 220.488 18.8873 220.385 18.8554C219.755 18.7119 219.099 18.7226 218.474 18.8868C217.848 19.0509 217.272 19.3637 216.794 19.7983C216.756 19.8357 216.726 19.8803 216.705 19.9294C216.685 19.9785 216.674 20.0311 216.674 20.0843C216.674 20.1375 216.685 20.1902 216.705 20.2393C216.726 20.2884 216.756 20.333 216.794 20.3704C216.834 20.4264 216.889 20.4703 216.953 20.4975Z" fill="#263238"/>
<path d="M255.864 65.2783C256.553 66.6237 257.114 67.7891 257.665 69.0497C258.216 70.3104 258.724 71.5288 259.275 72.7788C260.335 75.279 261.256 77.8216 262.125 80.3959C263.892 85.6029 265.245 90.9412 266.172 96.3611L266.458 98.4799L266.606 99.5393V99.7936V100.26C266.606 100.599 266.659 100.938 266.659 101.319C266.618 103.25 266.234 105.158 265.526 106.955C264.471 109.699 263.129 112.323 261.521 114.784C260.062 117.088 258.481 119.312 256.786 121.448C255.124 123.573 253.356 125.613 251.489 127.56C250.952 128.129 250.229 128.485 249.452 128.565C248.675 128.646 247.894 128.444 247.253 127.998C246.611 127.551 246.151 126.89 245.957 126.133C245.762 125.376 245.845 124.574 246.192 123.874V123.789C248.385 119.223 250.705 114.604 252.548 110.102C253.025 108.979 253.449 107.856 253.819 106.764C254.188 105.746 254.496 104.705 254.741 103.65C254.913 102.994 254.974 102.313 254.921 101.637C254.921 101.637 254.921 101.701 254.921 101.637L254.868 101.425L254.667 100.546L254.275 98.7977C253.053 94.0537 251.556 89.3845 249.794 84.8136C248.946 82.483 247.982 80.1841 247.05 77.8746C246.584 76.7304 246.086 75.5863 245.588 74.4527L244.105 71.1474L244.02 70.9567C243.275 69.3973 243.181 67.606 243.757 65.9768C244.333 64.3477 245.533 63.0142 247.092 62.2696C248.652 61.525 250.443 61.4304 252.072 62.0066C253.701 62.5827 255.035 63.7825 255.779 65.3418L255.864 65.2783Z" fill="#7F3E3B"/>
<path d="M246.329 53.2965C260.44 56.8561 264.339 74.8977 264.339 74.8977L246.816 87.4622C246.816 87.4622 242.473 82.9174 241.159 72.2386C240.555 67.1429 243.469 53.1588 246.329 53.2965Z" fill="#0D5FAA"/>
<path d="M248.501 121.628L240.344 124.679L246.594 133.048C246.594 133.048 253.639 129.393 252.304 125.336L248.501 121.628Z" fill="#7F3E3B"/>
<path d="M234.273 125.865C232.076 125.496 229.821 125.7 227.726 126.459L231.773 102.41C232.086 100.532 231.642 98.6071 230.538 97.0562C229.434 95.5054 227.76 94.4554 225.883 94.1364L155.539 82.2923C153.664 81.9822 151.743 82.4266 150.195 83.5282C148.646 84.6298 147.597 86.2992 147.275 88.172L143.165 112.273C145.257 111.505 147.515 111.3 149.712 111.68C151.665 112.008 153.517 112.779 155.126 113.935C156.734 115.091 158.056 116.601 158.989 118.348C159.922 120.095 160.442 122.033 160.509 124.012C160.575 125.992 160.187 127.96 159.373 129.766C158.559 131.572 157.342 133.167 155.815 134.428C154.288 135.69 152.492 136.584 150.566 137.042C148.639 137.5 146.632 137.51 144.701 137.072C142.77 136.633 140.965 135.756 139.425 134.51L135.368 158.559C135.055 160.436 135.499 162.362 136.603 163.913C137.707 165.464 139.381 166.514 141.258 166.833L211.602 178.677C213.478 178.987 215.401 178.543 216.951 177.441C218.5 176.34 219.552 174.671 219.876 172.797L223.923 148.738C225.464 149.964 227.265 150.823 229.188 151.248C231.112 151.673 233.107 151.654 235.021 151.191C236.936 150.729 238.72 149.836 240.237 148.58C241.755 147.324 242.965 145.739 243.777 143.944C244.589 142.15 244.981 140.194 244.923 138.225C244.865 136.256 244.358 134.327 243.442 132.583C242.525 130.84 241.223 129.328 239.634 128.164C238.045 127 236.212 126.214 234.273 125.865Z" fill="#0D5FAA"/>
<path opacity="0.6" d="M234.273 125.865C232.076 125.496 229.821 125.7 227.726 126.459L231.773 102.41C232.086 100.532 231.642 98.6071 230.538 97.0562C229.434 95.5054 227.76 94.4554 225.883 94.1364L155.539 82.2923C153.664 81.9822 151.743 82.4266 150.195 83.5282C148.646 84.6298 147.597 86.2992 147.275 88.172L143.165 112.273C145.257 111.505 147.515 111.3 149.712 111.68C151.665 112.008 153.517 112.779 155.126 113.935C156.734 115.091 158.056 116.601 158.989 118.348C159.922 120.095 160.442 122.033 160.509 124.012C160.575 125.992 160.187 127.96 159.373 129.766C158.559 131.572 157.342 133.167 155.815 134.428C154.288 135.69 152.492 136.584 150.566 137.042C148.639 137.5 146.632 137.51 144.701 137.072C142.77 136.633 140.965 135.756 139.425 134.51L135.368 158.559C135.055 160.436 135.499 162.362 136.603 163.913C137.707 165.464 139.381 166.514 141.258 166.833L211.602 178.677C213.478 178.987 215.401 178.543 216.951 177.441C218.5 176.34 219.552 174.671 219.876 172.797L223.923 148.738C225.464 149.964 227.265 150.823 229.188 151.248C231.112 151.673 233.107 151.654 235.021 151.191C236.936 150.729 238.72 149.836 240.237 148.58C241.755 147.324 242.965 145.739 243.777 143.944C244.589 142.15 244.981 140.194 244.923 138.225C244.865 136.256 244.358 134.327 243.442 132.583C242.525 130.84 241.223 129.328 239.634 128.164C238.045 127 236.212 126.214 234.273 125.865Z" fill="white"/>
<path d="M236.53 132.9L239.21 135.464C239.726 135.96 240.402 136.256 241.116 136.299C241.831 136.341 242.537 136.128 243.109 135.697L246.594 133.08L240.344 124.711L236.477 128.588C236.192 128.872 235.967 129.21 235.816 129.582C235.664 129.954 235.588 130.353 235.593 130.755C235.598 131.157 235.684 131.554 235.844 131.922C236.005 132.291 236.238 132.623 236.53 132.9Z" fill="#7F3E3B"/>
<path d="M157.996 84.5488L158.971 80.9363C159.134 80.5113 159.426 80.148 159.806 79.8973C160.186 79.6465 160.635 79.5209 161.09 79.5379C162.47 79.4816 163.848 79.6938 165.147 80.1629L170.656 82.197L170.391 84.4429C170.169 86.371 168.018 87.9813 165.582 88.0554C163.946 88.0773 162.313 87.903 160.719 87.5363L160.126 87.4092C159.788 87.3854 159.459 87.2889 159.162 87.1264C158.865 86.9639 158.607 86.7392 158.405 86.4676C158.203 86.196 158.061 85.884 157.991 85.5528C157.92 85.2217 157.922 84.8792 157.996 84.5488Z" fill="#7F3E3B"/>
<path d="M71.2209 34.6828C74.7487 30.5829 80.0563 19.936 70.0768 15.8679C62.7139 12.8592 47.0878 14.3953 38.1146 28.3688C31.9807 30.4876 30.1691 44.1327 44.3333 47.0037C58.4975 49.8746 71.2209 34.6828 71.2209 34.6828Z" fill="#263238"/>
<path d="M103.225 297.573L87.0378 298.919L89.7817 317.946L103.31 316.844L103.225 297.573Z" fill="#FFC3BD"/>
<path opacity="0.2" d="M103.225 297.584L87.0271 298.929L88.5738 309.587L103.278 308.369L103.225 297.584Z" fill="black"/>
<path d="M72.2803 241.563C65.9239 217.197 49.4608 188.19 59.8959 164.746L105.249 164.608C105.249 164.608 106.372 212.864 106.69 235.588C107.007 259.35 105.026 304.057 105.026 304.057L86.4763 305.466C86.4763 305.466 73.7634 268.885 72.2803 241.563Z" fill="#0D5FAA"/>
<path d="M85.5544 306.197L105.598 304.724C105.769 304.71 105.929 304.634 106.05 304.512C106.17 304.39 106.243 304.228 106.255 304.057L106.679 296.641C106.686 296.538 106.67 296.435 106.633 296.339C106.595 296.243 106.537 296.156 106.462 296.085C106.387 296.015 106.297 295.961 106.199 295.929C106.101 295.897 105.997 295.887 105.895 295.9L83.6475 298.855C83.5464 298.866 83.4489 298.9 83.3622 298.953C83.2755 299.006 83.2017 299.078 83.1459 299.163C83.0902 299.248 83.0541 299.344 83.04 299.445C83.026 299.545 83.0345 299.648 83.0648 299.745L84.8234 305.699C84.8725 305.851 84.9711 305.983 85.1035 306.073C85.2359 306.164 85.3945 306.207 85.5544 306.197Z" fill="#263238"/>
<path opacity="0.2" d="M59.737 187.809C59.5613 193.564 59.795 199.324 60.4362 205.045C62.6503 212.705 65.4789 220.375 68.0215 227.812C71.348 206.751 71.3586 182.205 59.737 187.809Z" fill="black"/>
<path d="M43.3056 298.76L27.0544 298.919L27.0332 318.094L40.6147 317.988L43.3056 298.76Z" fill="#FFC3BD"/>
<path d="M25.7513 315.149C25.7673 315.042 25.8054 314.94 25.8632 314.849C25.9211 314.758 25.9974 314.68 26.0872 314.62C26.177 314.56 26.2783 314.519 26.3847 314.501C26.491 314.483 26.6001 314.487 26.7048 314.513C30.7834 316.134 38.5171 314.895 41.441 314.333C41.7638 314.266 42.0967 314.267 42.4193 314.334C42.7419 314.402 43.0471 314.535 43.3162 314.725C45.7079 316.259 48.2995 317.457 51.018 318.285C51.6012 319.844 51.7477 321.532 51.4418 323.169H24.0457C24.8186 320.543 25.3888 317.862 25.7513 315.149Z" fill="#263238"/>
<path d="M87.9913 315.149C88.0072 315.042 88.0454 314.94 88.1032 314.849C88.1611 314.758 88.2374 314.68 88.3272 314.62C88.417 314.56 88.5183 314.519 88.6247 314.501C88.731 314.483 88.8401 314.487 88.9448 314.513C93.0234 316.134 100.757 314.895 103.681 314.333C104.004 314.266 104.337 314.267 104.659 314.334C104.982 314.402 105.287 314.535 105.556 314.725C108.671 316.929 116.977 318.285 116.977 318.285C117.56 319.844 117.703 321.533 117.39 323.169H86.2856C87.0586 320.543 87.6288 317.862 87.9913 315.149Z" fill="#263238"/>
<path opacity="0.2" d="M43.3056 298.771L27.0438 298.919L27.0332 309.661L41.8013 309.534L43.3056 298.771Z" fill="black"/>
<path d="M24.7661 233.681C22.5626 209.071 15.6553 175.922 23.4949 164.608H76.5709C76.5709 164.608 65.7544 213.679 61.3155 236.393C56.7071 260.007 43.454 305.349 43.454 305.349L25.8785 305.402C25.8785 305.402 19.2149 261.776 24.7661 233.681Z" fill="#0D5FAA"/>
<path opacity="0.2" d="M27.9549 300.37C27.8407 300.368 27.73 300.33 27.6386 300.262C27.5473 300.193 27.48 300.098 27.4464 299.989C26.1857 295.751 26.387 247.071 29.5652 233.744C29.5652 231.986 29.1944 228.532 28.7706 224.157C27.3192 209.325 24.6284 181.781 28.6435 166.154C28.6786 166.014 28.7681 165.893 28.8923 165.819C29.0165 165.744 29.1651 165.722 29.3056 165.757C29.4461 165.792 29.5669 165.882 29.6414 166.006C29.7159 166.13 29.738 166.279 29.7029 166.419C25.7302 181.876 28.4104 209.314 29.8512 224.061C30.2856 228.511 30.6352 232.017 30.6564 233.797C30.6616 233.843 30.6616 233.889 30.6564 233.935C27.6053 246.542 27.3087 295.592 28.5376 299.692C28.5773 299.825 28.5629 299.969 28.4975 300.092C28.4321 300.215 28.3209 300.307 28.188 300.349C28.1139 300.378 28.033 300.386 27.9549 300.37Z" fill="white"/>
<path d="M24.6602 306.059H44.5663C44.7255 306.064 44.8808 306.01 45.0036 305.909C45.1264 305.808 45.2082 305.665 45.2338 305.508L46.5474 298.442C46.5664 298.335 46.5612 298.225 46.5324 298.12C46.5035 298.016 46.4517 297.919 46.3807 297.837C46.3097 297.754 46.2212 297.689 46.1218 297.645C46.0224 297.602 45.9144 297.581 45.8058 297.584L24.1305 298.548C24.039 298.55 23.949 298.572 23.8661 298.61C23.7832 298.649 23.7092 298.704 23.6486 298.773C23.588 298.842 23.5421 298.922 23.5139 299.009C23.4856 299.096 23.4755 299.188 23.4843 299.279L23.9292 305.381C23.945 305.565 24.0286 305.736 24.1638 305.861C24.2989 305.987 24.4759 306.057 24.6602 306.059Z" fill="#263238"/>
<path d="M94.6017 78.8917C95.6611 83.1293 96.6358 87.3669 97.5786 91.6045C98.5215 95.8421 99.4114 100.08 100.238 104.317L101.509 110.674L102.696 117.03C103.511 121.268 104.232 125.569 104.973 129.849L103.246 125.982C103.477 126.775 103.975 127.463 104.655 127.931C106.011 128.848 107.54 129.478 109.147 129.785C111.29 130.28 113.475 130.567 115.673 130.643C116.849 130.707 118.057 130.749 119.275 130.728C119.879 130.728 120.493 130.728 121.108 130.728C121.722 130.728 122.39 130.728 122.814 130.728L124.318 130.834C125.584 130.915 126.789 131.406 127.751 132.232C128.714 133.058 129.382 134.174 129.655 135.413C129.927 136.652 129.79 137.946 129.263 139.099C128.736 140.253 127.848 141.204 126.733 141.81C125.886 142.276 125.282 142.625 124.562 142.996C123.841 143.367 123.174 143.685 122.443 144.055C121.023 144.67 119.572 145.253 118.067 145.74C116.541 146.24 114.988 146.657 113.417 146.99C111.761 147.32 110.088 147.553 108.406 147.689C106.588 147.819 104.763 147.79 102.95 147.604C100.935 147.435 98.9491 147.015 97.0383 146.354C94.8947 145.64 92.8593 144.635 90.9891 143.367C89.017 142.001 87.2602 140.347 85.7769 138.462C85.137 137.666 84.6617 136.752 84.3785 135.771L84.0501 134.595C82.8847 130.421 81.6876 126.257 80.5858 122.062L78.9014 115.791L77.3017 109.498C76.2423 105.26 75.1829 101.086 74.2188 96.8697C73.2548 92.6533 72.2907 88.3945 71.4538 84.1569C70.8541 81.1246 71.4613 77.978 73.1463 75.3866C74.8313 72.7953 77.4611 70.9638 80.4759 70.2818C83.4908 69.5999 86.6527 70.1214 89.2889 71.7353C91.9251 73.3493 93.8275 75.9282 94.5911 78.9234L94.6017 78.8917Z" fill="#FFC3BD"/>
<path d="M122.072 131.777L122.295 138.621C125.06 145.263 132.984 140.22 132.984 140.22L137.772 139.341C138.606 139.129 139.338 138.628 139.838 137.928C140.338 137.228 140.575 136.374 140.506 135.517L140.378 130.728C140.411 129.74 140.055 128.778 139.388 128.048C138.721 127.317 137.796 126.876 136.808 126.819L132.571 126.904C131.334 126.925 130.122 127.253 129.043 127.857L122.072 131.777Z" fill="#FFC3BD"/>
<path d="M86.4871 67.09C96.2336 72.2175 102.601 90.312 102.601 90.312C100.545 98.7873 92.2609 114.244 84.5908 114.149C84.5908 114.149 73.3294 99.6242 72.111 89.1149C70.6279 76.4127 66.7823 56.729 86.4871 67.09Z" fill="#263238"/>
<path d="M77.4818 64.0812C62.4403 62.6511 47.2866 62.8928 32.2984 64.8016C23.6325 66.0199 17.4667 71.4123 18.5262 89.1678C20.645 125.187 17.3608 153.262 21.9374 166.207C21.9374 166.207 88.5949 185.277 107.601 167.002C112.22 123.662 96.6676 87.6847 89.5908 72.7153C88.4826 70.3583 86.7866 68.3261 84.666 66.814C82.5453 65.3019 80.0713 64.3608 77.4818 64.0812Z" fill="#263238"/>
<path d="M72.4712 68.0222C70.7443 66.3271 68.9328 67.3124 68.0958 64.7592C67.7268 62.7549 68.0637 60.6846 69.0493 58.9007L48.4863 47.7982C48.8889 55.3623 49.1961 61.3374 45.8378 64.3461C44.8632 69.9821 55.3724 75.6075 69.3671 75.6923C78.2767 75.7452 74.9608 70.4588 72.4712 68.0222Z" fill="#FFC3BD"/>
<path opacity="0.2" d="M68.742 59.5365L52.512 55.4789C56.6118 61.9307 63.9959 65.4585 67.9686 63.9012C67.8551 62.4044 68.1211 60.9031 68.742 59.5365Z" fill="black"/>
<path d="M62.0254 22.5209C51.2831 20.1373 42.0027 29.0574 44.0792 38.7827C46.1556 48.508 47.7977 55.0763 54.5249 58.3816C67.8945 64.9711 74.4204 58.6147 75.5116 48.455C76.4968 39.3018 72.9267 24.9257 62.0254 22.5209Z" fill="#FFC3BD"/>
<path opacity="0.2" d="M59.9172 39.7892C58.6549 39.4732 57.3189 39.6673 56.1987 40.3294C57.4617 40.3961 58.7254 40.2125 59.9172 39.7892Z" fill="black"/>
<path opacity="0.2" d="M59.9909 40.6896C59.3972 40.6618 58.8047 40.765 58.2554 40.9921C57.7061 41.2191 57.2135 41.5644 56.8127 42.0033C57.955 41.8013 59.0395 41.3531 59.9909 40.6896Z" fill="black"/>
<path d="M45.4347 47.0037C51.4415 48.3491 53.91 45.3404 53.91 41.9715C53.91 38.3908 50.5305 32.3416 46.8226 31.2292C48.1468 23.2837 70.0446 34.4074 67.9576 23.4002C67.9576 23.4002 67.3644 21.5145 61.7071 20.4551C56.0499 19.3957 40.9323 22.807 41.9917 34.1108C43.0511 45.4146 45.4347 47.0037 45.4347 47.0037Z" fill="#263238"/>
<path d="M37.7864 28.9303C39.2568 25.98 39.6718 22.6149 38.9623 19.3957C38.9623 19.3957 45.5518 23.7498 37.7864 28.9303Z" fill="#263238"/>
<path d="M65.4155 50.0229C65.8648 49.9891 66.311 49.9218 66.7503 49.8216C66.7845 49.8141 66.8168 49.7999 66.8455 49.7799C66.8741 49.7598 66.8985 49.7342 66.9172 49.7047C66.9359 49.6751 66.9486 49.6422 66.9545 49.6077C66.9604 49.5732 66.9594 49.5379 66.9516 49.5038C66.9455 49.4689 66.9322 49.4357 66.9125 49.4063C66.8928 49.3769 66.8672 49.3519 66.8372 49.3329C66.8073 49.314 66.7738 49.3015 66.7387 49.2962C66.7037 49.291 66.668 49.2932 66.6338 49.3025C65.5336 49.5709 64.386 49.5785 63.2824 49.3247C62.1788 49.0709 61.1498 48.5626 60.2774 47.8406C60.2527 47.8149 60.2231 47.7945 60.1903 47.7806C60.1576 47.7667 60.1223 47.7595 60.0867 47.7595C60.0511 47.7595 60.0159 47.7667 59.9831 47.7806C59.9503 47.7945 59.9207 47.8149 59.896 47.8406C59.8468 47.8919 59.8193 47.9602 59.8193 48.0313C59.8193 48.1023 59.8468 48.1707 59.896 48.222C60.6508 48.8729 61.5275 49.3673 62.475 49.6765C63.4225 49.9856 64.4221 50.1034 65.4155 50.0229Z" fill="#263238"/>
<path d="M41.6318 47.4699C42.3193 48.4018 43.1842 49.1886 44.177 49.785C45.1697 50.3813 46.2705 50.7755 47.4162 50.9447C50.499 51.3685 51.6538 48.5187 50.4672 45.8278C49.4078 43.4018 46.5263 40.266 43.6023 41.0711C40.6784 41.8762 39.958 45.1498 41.6318 47.4699Z" fill="#FFC3BD"/>
<path d="M61.6652 39.8952C61.7923 40.7533 62.3432 41.3889 62.9047 41.3041C63.4662 41.2194 63.8264 40.446 63.6992 39.5879C63.5721 38.7298 63.0318 38.1048 62.4703 38.1895C61.9089 38.2743 61.591 38.9947 61.6652 39.8952Z" fill="#263238"/>
<path d="M71.7609 38.5391C71.888 39.4078 72.4389 40.0328 73.0004 39.9481C73.5619 39.8633 73.9221 39.1006 73.795 38.2424C73.6678 37.3843 73.1275 36.7487 72.566 36.8334C72.0046 36.9182 71.6444 37.681 71.7609 38.5391Z" fill="#263238"/>
<path d="M67.9473 39.6726L68.4346 46.9401C68.4346 46.9401 70.8182 47.3533 72.1107 45.976C71.2902 43.5508 69.8559 41.3792 67.9473 39.6726Z" fill="#ED847E"/>
<path d="M58.3389 37.9353C58.2521 37.9589 58.1606 37.9586 58.074 37.9343C57.9875 37.9101 57.909 37.8629 57.8471 37.7978C57.7852 37.7326 57.7421 37.6519 57.7224 37.5642C57.7026 37.4765 57.707 37.385 57.735 37.2996C57.9365 36.5121 58.3219 35.7836 58.8597 35.174C59.3975 34.5644 60.0722 34.0911 60.8285 33.793C60.9563 33.753 61.0948 33.765 61.2138 33.8265C61.3328 33.888 61.4228 33.994 61.4641 34.1214C61.5045 34.2507 61.4927 34.3906 61.4314 34.5114C61.37 34.6321 61.2639 34.7241 61.1357 34.7676C60.5386 35.0112 60.0076 35.3925 59.5859 35.8804C59.1643 36.3683 58.864 36.949 58.7097 37.5751C58.6857 37.6628 58.6387 37.7424 58.5734 37.8058C58.5082 37.8691 58.4272 37.9139 58.3389 37.9353Z" fill="#263238"/>
<path d="M75.0769 34.6829C74.9932 34.6906 74.9089 34.676 74.8326 34.6407C74.7564 34.6053 74.6908 34.5505 74.6426 34.4816C74.2798 33.9554 73.7961 33.5239 73.232 33.2234C72.6679 32.9229 72.0399 32.7622 71.4008 32.7548C71.2603 32.7548 71.1256 32.6989 71.0262 32.5996C70.9269 32.5003 70.8711 32.3655 70.8711 32.2251C70.8711 32.0846 70.9269 31.9498 71.0262 31.8505C71.1256 31.7511 71.2603 31.6953 71.4008 31.6953C72.2079 31.6889 73.0044 31.8783 73.7222 32.2474C74.44 32.6164 75.0575 33.154 75.5219 33.8142C75.5608 33.8684 75.5887 33.9298 75.604 33.9948C75.6192 34.0599 75.6215 34.1273 75.6107 34.1932C75.5998 34.2591 75.5761 34.3222 75.5409 34.379C75.5057 34.4357 75.4596 34.485 75.4053 34.5239C75.3645 34.5716 75.3142 34.6104 75.2577 34.6377C75.2012 34.6651 75.1397 34.6804 75.0769 34.6829Z" fill="#263238"/>
<path d="M136.808 103.968C134.59 104.124 132.451 104.854 130.6 106.086L128.683 81.7203C128.526 79.8249 127.626 78.0684 126.179 76.8339C124.732 75.5995 122.856 74.9873 120.96 75.1308L49.8419 80.735C47.9476 80.8945 46.1928 81.7952 44.9589 83.2414C43.725 84.6875 43.1118 86.5623 43.2525 88.4581L48.8673 159.576C49.0187 161.473 49.9171 163.233 51.3652 164.469C52.8133 165.704 54.6926 166.314 56.5903 166.165L127.697 160.55C129.595 160.396 131.354 159.497 132.59 158.05C133.827 156.603 134.441 154.725 134.297 152.827L132.369 128.514C134.388 129.46 136.62 129.862 138.842 129.679C142.034 129.142 144.909 127.428 146.9 124.876C148.891 122.324 149.854 119.119 149.599 115.892C149.344 112.665 147.889 109.651 145.521 107.444C143.154 105.237 140.045 103.996 136.808 103.968Z" fill="#0D5FAA"/>
<path d="M33.6863 94.2424L32.6269 96.1917L31.4086 98.374C30.6246 99.8572 29.8194 101.34 29.0885 102.845C27.6195 105.776 26.3041 108.782 25.1475 111.85C24.586 113.333 24.0881 114.805 23.7173 116.257C23.2943 117.646 22.9616 119.062 22.7215 120.494C22.2769 122.798 22.2018 125.159 22.499 127.486L20.0624 123.249C21.0768 124.64 22.2864 125.878 23.6537 126.925C25.4511 128.359 27.3371 129.679 29.3003 130.876C31.345 132.19 33.5379 133.451 35.7415 134.712L39.1104 136.587C40.1698 137.222 41.4411 137.858 42.4475 138.472L42.956 138.78C44.0807 139.461 44.95 140.494 45.4303 141.718C45.9105 142.942 45.9749 144.29 45.6136 145.555C45.2523 146.819 44.4854 147.93 43.4309 148.716C42.3764 149.501 41.0928 149.919 39.7778 149.903C38.1675 149.903 36.7903 149.797 35.3071 149.681C33.824 149.564 32.415 149.384 30.9742 149.151C28.0459 148.711 25.1481 148.089 22.2977 147.287C19.281 146.441 16.3398 145.346 13.5047 144.013C10.1531 142.469 7.07299 140.395 4.38323 137.869C3.41539 136.946 2.68799 135.8 2.26442 134.531L1.96779 133.62C0.308913 128.589 -0.311002 123.273 0.145621 117.994C0.505484 113.396 1.38692 108.854 2.77294 104.455C4.06358 100.322 5.66429 96.2915 7.56143 92.399C8.48311 90.4921 9.42598 88.6064 10.4854 86.7736C11.0045 85.8519 11.5448 84.9302 12.0957 84.0192L12.9644 82.6419L13.4199 81.9427L13.9708 81.127C15.6728 78.5517 18.3122 76.7418 21.3278 76.0822C24.3434 75.4226 27.4973 75.9653 30.1191 77.5949C32.7408 79.2245 34.6234 81.8124 35.3667 84.8085C36.1101 87.8046 35.6554 90.9725 34.0994 93.6385L33.6863 94.2424Z" fill="#FFC3BD"/>
<path d="M25.4125 67.09C7.84764 76.4763 1.30054 97.4418 1.30054 97.4418C4.77537 104.063 25.7303 111.214 33.6123 109.265C33.6123 109.265 41.1658 95.4925 42.7231 83.1823C44.1639 71.7726 35.6993 61.5917 25.4125 67.09Z" fill="#263238"/>
<path d="M37.7014 139.638L38.0616 146.481C40.9644 153.071 48.7828 147.869 48.7828 147.869L53.5607 146.895C54.3895 146.666 55.1104 146.151 55.5953 145.441C56.0802 144.731 56.2977 143.872 56.2092 143.017L55.9973 138.239C56.0233 137.245 55.6586 136.279 54.9813 135.551C54.3039 134.822 53.368 134.387 52.3741 134.341L48.1365 134.51C46.8978 134.567 45.6927 134.931 44.6299 135.57L37.7014 139.638Z" fill="#FFC3BD"/>
</svg>
