<svg width="130" height="122" viewBox="0 0 130 122" fill="none" xmlns="http://www.w3.org/2000/svg">
<path fill-rule="evenodd" clip-rule="evenodd" d="M104.155 0H26.8714V8.96582H0V51.0208C0 67.2741 18.1403 80.6489 35.9415 82.0403C41.7854 88.3016 52.0644 92.8497 61.2128 94.7889V105.781C52.4644 108.468 36.8372 114.782 35.9415 121.66H95.9803C95.0759 114.782 77.8574 108.459 69.0916 105.781V94.7889C78.2748 92.8497 89.0146 88.3016 94.8672 82.0403C112.66 80.6489 130 67.2741 130 51.0208V8.96582H104.155V0ZM8.25273 16.9316H26.2452V53.1601C26.2452 60.3084 28.0888 67.1088 31.3325 73.231C17.8708 68.9437 8.25273 57.8995 8.25273 44.9769V16.9316ZM78.727 61.1171L65.3 53.7166L51.8556 61.1171L54.421 45.4639L43.5507 34.3849L58.5691 32.0978L65.3 17.8708L72.0135 32.0978L87.0319 34.3849L76.1616 45.4639L78.727 61.1171ZM98.6849 74.3876C101.946 67.9872 103.816 60.9084 103.816 53.421V17.1664H121.852V44.8726C121.852 58.3778 112.19 69.909 98.6849 74.3876Z" fill="#0D5FAA"/>
</svg>
