<svg width="823" height="556" viewBox="0 0 823 556" fill="none" xmlns="http://www.w3.org/2000/svg">
<g clip-path="url(#clip0_2307_1079)">
<path d="M225.771 553.535L124.01 289.892C123.261 280.645 125.835 271.434 131.268 263.915L295.351 -12.3997C299.304 -17.864 304.607 -22.2087 310.743 -25.0079C316.88 -27.807 323.637 -28.9641 330.355 -28.3671L741.116 9.60233C755.251 10.8585 765.261 20.2213 773.122 32.2648C773.173 32.349 910.877 225.512 910.877 225.512C912.587 232.1 912.541 239.02 910.741 245.584L827.356 554.849L225.771 553.535Z" fill="#F1F4F6"/>
<path d="M884.627 555.523H171.335C171.072 555.503 170.826 555.38 170.647 555.186C170.468 554.992 170.368 554.739 170.368 554.474C170.368 554.215 170.468 553.956 170.647 553.761C170.826 553.574 171.072 553.451 171.335 553.431H884.627C884.893 553.451 885.139 553.574 885.314 553.761C885.495 553.956 885.592 554.215 885.592 554.474C885.592 554.739 885.495 554.992 885.314 555.186C885.139 555.38 884.893 555.503 884.627 555.523Z" fill="#B2B6BB"/>
<path d="M354.545 227.383C359.786 189.512 333.335 154.563 295.465 149.322C257.594 144.08 222.645 170.531 217.404 208.402C212.162 246.272 238.613 281.221 276.484 286.463C314.354 291.704 349.303 265.253 354.545 227.383Z" fill="#B2B6BB"/>
<path opacity="0.2" d="M285.975 283.955C322.458 283.955 352.033 254.38 352.033 217.897C352.033 181.414 322.458 151.839 285.975 151.839C249.493 151.839 219.917 181.414 219.917 217.897C219.917 254.38 249.493 283.955 285.975 283.955Z" fill="black"/>
<path d="M347.773 220.981C349.633 186.856 323.477 157.684 289.351 155.823C255.226 153.964 226.053 180.119 224.193 214.245C222.333 248.371 248.49 277.543 282.615 279.403C316.741 281.263 345.912 255.107 347.773 220.981Z" fill="white"/>
<path opacity="0.05" d="M346.445 204.454C318.266 221.529 271.982 249.533 246.082 264.892C238.758 258.715 232.965 250.925 229.157 242.132L314.769 162.807C322.767 167.018 329.747 172.929 335.219 180.123C340.691 187.318 344.522 195.622 346.445 204.454Z" fill="black"/>
<path opacity="0.05" d="M347.803 219.749C347.578 226.632 346.194 233.429 343.711 239.853L266.529 276.359C263.166 275.246 259.906 273.845 256.784 272.17C280.094 258.696 322.7 234.181 347.803 219.749Z" fill="black"/>
<path d="M286.57 160.205H285.373V169.587H286.57V160.205Z" fill="#B2B6BB"/>
<path d="M257.807 167.581L256.77 168.179L261.461 176.305L262.498 175.706L257.807 167.581Z" fill="#B2B6BB"/>
<path d="M236.567 188.355L235.968 189.393L244.093 194.084L244.692 193.047L236.567 188.355Z" fill="#B2B6BB"/>
<path d="M237.963 217.002H228.581V218.2H237.963V217.002Z" fill="#B2B6BB"/>
<path d="M244.089 241.1L235.963 245.791L236.562 246.829L244.688 242.138L244.089 241.1Z" fill="#B2B6BB"/>
<path d="M261.448 258.895L256.762 267.022L257.8 267.621L262.486 259.493L261.448 258.895Z" fill="#B2B6BB"/>
<path d="M286.57 265.611H285.373V274.993H286.57V265.611Z" fill="#B2B6BB"/>
<path d="M310.502 258.865L309.465 259.464L314.156 267.589L315.193 266.99L310.502 258.865Z" fill="#B2B6BB"/>
<path d="M327.847 241.057L327.248 242.094L335.373 246.786L335.972 245.748L327.847 241.057Z" fill="#B2B6BB"/>
<path d="M343.369 217.002H333.986V218.2H343.369V217.002Z" fill="#B2B6BB"/>
<path d="M335.373 188.412L327.248 193.103L327.847 194.141L335.972 189.449L335.373 188.412Z" fill="#B2B6BB"/>
<path d="M314.159 167.624L309.472 175.751L310.51 176.35L315.197 168.222L314.159 167.624Z" fill="#B2B6BB"/>
<path d="M342.897 217.585L282.874 220.072L282.952 214.205L342.917 215.992L342.897 217.585Z" fill="#61656D"/>
<path d="M286.79 175.389L288.978 221.07L283.112 220.992L285.197 175.37L286.79 175.389Z" fill="#61656D"/>
<path d="M285.975 219.6C287.08 219.6 287.976 218.704 287.976 217.598C287.976 216.494 287.08 215.598 285.975 215.598C284.87 215.598 283.974 216.494 283.974 217.598C283.974 218.704 284.87 219.6 285.975 219.6Z" fill="#B2B6BB"/>
<path opacity="0.08" d="M766.73 110.995H321.989V433.431H766.73V110.995Z" fill="black"/>
<path d="M749.792 125.246H305.051V447.681H749.792V125.246Z" fill="white"/>
<path d="M749.792 149.857H305.051V152.027H749.792V149.857Z" fill="#0D5FAA"/>
<path opacity="0.5" d="M749.792 149.857H305.226V152.027H749.792V149.857Z" fill="white"/>
<path d="M750.88 448.724H303.968V124.217H750.88V448.724ZM306.137 446.652H748.711V126.282H306.137V446.652Z" fill="#0D5FAA"/>
<path opacity="0.5" d="M750.88 448.724H303.968V124.217H750.88V448.724ZM306.137 446.652H748.711V126.282H306.137V446.652Z" fill="white"/>
<path d="M320.079 138.422C320.081 139.018 319.905 139.601 319.575 140.097C319.245 140.593 318.775 140.98 318.225 141.209C317.675 141.437 317.07 141.498 316.485 141.382C315.901 141.267 315.364 140.981 314.942 140.56C314.52 140.139 314.233 139.603 314.116 139.018C313.999 138.434 314.059 137.829 314.286 137.278C314.514 136.727 314.9 136.257 315.395 135.926C315.891 135.594 316.473 135.417 317.068 135.417C317.866 135.417 318.631 135.734 319.195 136.297C319.76 136.861 320.078 137.625 320.079 138.422Z" fill="#0D5FAA"/>
<path d="M330.386 138.422C330.388 139.018 330.212 139.601 329.882 140.098C329.552 140.594 329.081 140.98 328.531 141.209C327.98 141.438 327.374 141.498 326.79 141.382C326.205 141.266 325.668 140.979 325.247 140.557C324.825 140.136 324.538 139.599 324.422 139.014C324.306 138.43 324.367 137.824 324.595 137.273C324.824 136.723 325.211 136.253 325.707 135.923C326.203 135.592 326.786 135.416 327.382 135.417C328.178 135.419 328.942 135.737 329.505 136.299C330.068 136.863 330.385 137.626 330.386 138.422Z" fill="#0D5FAA"/>
<path d="M340.584 138.422C340.585 139.018 340.41 139.601 340.08 140.097C339.75 140.593 339.28 140.98 338.73 141.209C338.18 141.437 337.575 141.498 336.99 141.382C336.406 141.267 335.868 140.981 335.447 140.56C335.025 140.139 334.738 139.603 334.621 139.018C334.504 138.434 334.564 137.829 334.791 137.278C335.019 136.727 335.405 136.257 335.9 135.926C336.395 135.594 336.978 135.417 337.573 135.417C338.371 135.417 339.136 135.734 339.7 136.297C340.264 136.861 340.583 137.625 340.584 138.422Z" fill="#0D5FAA"/>
<path opacity="0.5" d="M320.079 138.422C320.081 139.018 319.905 139.601 319.575 140.097C319.245 140.593 318.775 140.98 318.225 141.209C317.675 141.437 317.07 141.498 316.485 141.382C315.901 141.267 315.364 140.981 314.942 140.56C314.52 140.139 314.233 139.603 314.116 139.018C313.999 138.434 314.059 137.829 314.286 137.278C314.514 136.727 314.9 136.257 315.395 135.926C315.891 135.594 316.473 135.417 317.068 135.417C317.866 135.417 318.631 135.734 319.195 136.297C319.76 136.861 320.078 137.625 320.079 138.422Z" fill="white"/>
<path opacity="0.5" d="M330.386 138.422C330.388 139.018 330.212 139.601 329.882 140.098C329.552 140.594 329.081 140.98 328.531 141.209C327.98 141.438 327.374 141.498 326.79 141.382C326.205 141.266 325.668 140.979 325.247 140.557C324.825 140.136 324.538 139.599 324.422 139.014C324.306 138.43 324.367 137.824 324.595 137.273C324.824 136.723 325.211 136.253 325.707 135.923C326.203 135.592 326.786 135.416 327.382 135.417C328.178 135.419 328.942 135.737 329.505 136.299C330.068 136.863 330.385 137.626 330.386 138.422Z" fill="white"/>
<path opacity="0.5" d="M340.584 138.422C340.585 139.018 340.41 139.601 340.08 140.097C339.75 140.593 339.28 140.98 338.73 141.209C338.18 141.437 337.575 141.498 336.99 141.382C336.406 141.267 335.868 140.981 335.447 140.56C335.025 140.139 334.738 139.603 334.621 139.018C334.504 138.434 334.564 137.829 334.791 137.278C335.019 136.727 335.405 136.257 335.9 135.926C336.395 135.594 336.978 135.417 337.573 135.417C338.371 135.417 339.136 135.734 339.7 136.297C340.264 136.861 340.583 137.625 340.584 138.422Z" fill="white"/>
<path d="M391.783 189.368H390.404V415.617H391.783V189.368Z" fill="#0D5FAA"/>
<path d="M336.996 189.368H335.617V415.617H336.996V189.368Z" fill="#0D5FAA"/>
<path d="M720.512 189.368H719.133V415.617H720.512V189.368Z" fill="#0D5FAA"/>
<path d="M719.819 188.674H336.306V190.053H719.819V188.674Z" fill="#0D5FAA"/>
<path d="M719.819 245.233H336.306V246.613H719.819V245.233Z" fill="#0D5FAA"/>
<path d="M719.819 301.8H336.306V303.179H719.819V301.8Z" fill="#0D5FAA"/>
<path d="M719.819 358.359H336.306V359.738H719.819V358.359Z" fill="#0D5FAA"/>
<path d="M719.819 414.924H336.306V416.303H719.819V414.924Z" fill="#0D5FAA"/>
<path d="M446.573 189.368H445.194V415.617H446.573V189.368Z" fill="#0D5FAA"/>
<path d="M501.361 189.368H499.981V415.617H501.361V189.368Z" fill="#0D5FAA"/>
<path d="M556.15 189.368H554.771V415.617H556.15V189.368Z" fill="#0D5FAA"/>
<path d="M610.934 189.368H609.555V415.617H610.934V189.368Z" fill="#0D5FAA"/>
<path d="M665.727 189.368H664.348V415.617H665.727V189.368Z" fill="#0D5FAA"/>
<path d="M391.783 189.368H390.404V415.617H391.783V189.368Z" fill="#0D5FAA"/>
<path d="M336.996 189.368H335.617V415.617H336.996V189.368Z" fill="#0D5FAA"/>
<path d="M720.512 189.368H719.133V415.617H720.512V189.368Z" fill="#0D5FAA"/>
<path d="M719.819 188.674H336.306V190.053H719.819V188.674Z" fill="#0D5FAA"/>
<path d="M719.819 245.233H336.306V246.613H719.819V245.233Z" fill="#0D5FAA"/>
<path d="M719.819 301.8H336.306V303.179H719.819V301.8Z" fill="#0D5FAA"/>
<path d="M719.819 358.359H336.306V359.738H719.819V358.359Z" fill="#0D5FAA"/>
<path d="M719.819 414.924H336.306V416.303H719.819V414.924Z" fill="#0D5FAA"/>
<path d="M446.573 189.368H445.194V415.617H446.573V189.368Z" fill="#0D5FAA"/>
<path d="M501.361 189.368H499.981V415.617H501.361V189.368Z" fill="#0D5FAA"/>
<path d="M556.15 189.368H554.771V415.617H556.15V189.368Z" fill="#0D5FAA"/>
<path d="M610.934 189.368H609.555V415.617H610.934V189.368Z" fill="#0D5FAA"/>
<path d="M665.727 189.368H664.348V415.617H665.727V189.368Z" fill="#0D5FAA"/>
<path opacity="0.5" d="M720.512 189.367H719.826V188.674H336.304V189.367H335.617V415.61H336.304V416.309H719.826V415.617H720.512V189.367ZM554.751 301.799H501.358V246.613H554.77L554.751 301.799ZM556.13 246.613H609.555V301.799H556.149L556.13 246.613ZM499.959 301.799H446.573V246.613H499.979L499.959 301.799ZM445.174 301.799H391.781V246.613H445.194L445.174 301.799ZM445.174 303.178V358.358H391.781V303.178H445.174ZM446.553 303.178H499.959V358.358H446.573L446.553 303.178ZM501.338 303.178H554.751V358.358H501.358L501.338 303.178ZM556.13 303.178H609.555V358.358H556.149L556.13 303.178ZM610.915 303.178H664.335V358.358H610.934L610.915 303.178ZM610.915 301.799V246.613H664.335V301.799H610.915ZM610.915 245.233V190.053H664.335V245.233H610.915ZM609.536 245.233H556.149V190.053H609.555L609.536 245.233ZM554.751 245.233H501.358V190.053H554.77L554.751 245.233ZM499.959 245.233H446.573V190.053H499.979L499.959 245.233ZM445.174 245.233H391.781V190.053H445.194L445.174 245.233ZM390.383 245.233H336.996V190.053H390.402L390.383 245.233ZM390.383 246.613V301.799H336.996V246.613H390.383ZM390.383 303.178V358.358H336.996V303.178H390.383ZM390.383 359.737V414.924H336.996V359.737H390.383ZM391.762 359.737H445.174V414.924H391.781L391.762 359.737ZM446.553 359.737H499.959V414.924H446.573L446.553 359.737ZM501.338 359.737H554.751V414.924H501.358L501.338 359.737ZM556.13 359.737H609.555V414.924H556.149L556.13 359.737ZM610.915 359.737H664.335V414.924H610.934L610.915 359.737ZM665.707 359.737H719.113V414.924H665.707V359.737ZM665.707 358.358V303.178H719.113V358.358H665.707ZM665.707 301.799V246.613H719.113V301.799H665.707ZM665.707 245.233V190.053H719.113V245.233H665.707Z" fill="white"/>
<path d="M599.507 165.915H455.341V172.81H599.507V165.915Z" fill="#0D5FAA"/>
<path opacity="0.5" d="M599.507 165.915H455.341V172.81H599.507V165.915Z" fill="white"/>
<path d="M407.926 236.953H435.639V199.708H401.146V230.037C401.146 230.037 403.218 235.58 407.926 236.953Z" fill="#0D5FAA"/>
<path d="M428.645 207.815H407.083C406.992 207.815 406.904 207.779 406.838 207.715C406.773 207.65 406.735 207.563 406.733 207.472C406.733 207.426 406.742 207.38 406.76 207.338C406.778 207.296 406.804 207.259 406.836 207.226C406.869 207.195 406.908 207.169 406.95 207.152C406.992 207.136 407.038 207.127 407.083 207.129H428.645C428.736 207.129 428.824 207.164 428.888 207.229C428.952 207.293 428.988 207.38 428.988 207.472C428.988 207.562 428.952 207.65 428.888 207.714C428.824 207.779 428.736 207.815 428.645 207.815Z" fill="white"/>
<path d="M416.506 211.266H428.646C428.737 211.266 428.824 211.302 428.889 211.366C428.953 211.431 428.989 211.518 428.989 211.609C428.989 211.701 428.953 211.787 428.889 211.852C428.824 211.916 428.737 211.952 428.646 211.952H407.084C407.039 211.952 406.994 211.943 406.953 211.926C406.912 211.909 406.873 211.884 406.842 211.852C406.81 211.82 406.785 211.782 406.767 211.741C406.75 211.699 406.741 211.655 406.741 211.609C406.741 211.564 406.75 211.52 406.767 211.478C406.785 211.436 406.81 211.399 406.842 211.366C406.873 211.335 406.912 211.309 406.953 211.292C406.994 211.275 407.039 211.266 407.084 211.266H416.506Z" fill="white"/>
<path d="M417.93 216.091H406.923C406.825 216.091 406.741 215.942 406.741 215.747C406.741 215.553 406.825 215.404 406.923 215.404H417.93C418.027 215.404 418.111 215.56 418.111 215.747C418.111 215.935 418.027 216.091 417.93 216.091Z" fill="white"/>
<path d="M416.504 219.541H428.644C428.728 219.553 428.805 219.594 428.861 219.658C428.916 219.722 428.947 219.803 428.947 219.888C428.947 219.972 428.916 220.054 428.861 220.117C428.805 220.182 428.728 220.223 428.644 220.234H407.082C407.033 220.241 406.983 220.237 406.935 220.223C406.887 220.209 406.843 220.184 406.805 220.151C406.768 220.119 406.737 220.078 406.717 220.033C406.696 219.987 406.686 219.938 406.686 219.888C406.686 219.838 406.696 219.788 406.717 219.743C406.737 219.698 406.768 219.657 406.805 219.625C406.843 219.592 406.887 219.567 406.935 219.553C406.983 219.539 407.033 219.535 407.082 219.541H416.504Z" fill="white"/>
<path d="M417.93 224.372H406.923C406.825 224.372 406.741 224.216 406.741 224.028C406.741 223.841 406.825 223.679 406.923 223.679H417.93C418.027 223.679 418.111 223.834 418.111 224.028C418.111 224.223 418.027 224.372 417.93 224.372Z" fill="white"/>
<path opacity="0.2" d="M401.146 229.37C401.146 229.37 402.526 235.579 408.742 236.958C408.742 236.958 407.719 235.178 408.742 230.062C406.202 230.664 403.536 230.421 401.146 229.37Z" fill="black"/>
<path d="M625.195 405.95H652.913V368.706H618.429V399.035C618.429 399.035 620.501 404.578 625.195 405.95Z" fill="#0D5FAA"/>
<path d="M645.907 376.813H624.359C624.274 376.801 624.198 376.76 624.142 376.696C624.087 376.632 624.056 376.551 624.056 376.467C624.056 376.382 624.087 376.3 624.142 376.237C624.198 376.173 624.274 376.132 624.359 376.12H645.907C645.956 376.113 646.007 376.117 646.055 376.131C646.103 376.146 646.147 376.17 646.184 376.203C646.222 376.236 646.252 376.276 646.272 376.322C646.293 376.367 646.304 376.417 646.304 376.467C646.304 376.516 646.293 376.566 646.272 376.611C646.252 376.657 646.222 376.697 646.184 376.73C646.147 376.763 646.103 376.787 646.055 376.801C646.007 376.816 645.956 376.819 645.907 376.813Z" fill="white"/>
<path d="M633.786 380.264H645.907C645.953 380.263 645.998 380.271 646.041 380.288C646.083 380.305 646.121 380.33 646.154 380.362C646.187 380.394 646.213 380.432 646.23 380.474C646.248 380.516 646.257 380.561 646.257 380.607C646.256 380.699 646.218 380.786 646.153 380.85C646.087 380.914 645.999 380.95 645.907 380.95H624.358C624.268 380.95 624.18 380.914 624.116 380.85C624.051 380.786 624.015 380.698 624.015 380.607C624.015 380.516 624.051 380.429 624.116 380.364C624.18 380.3 624.268 380.264 624.358 380.264H633.786Z" fill="white"/>
<path d="M635.197 385.088H624.189C624.092 385.088 624.008 384.933 624.008 384.745C624.008 384.557 624.092 384.402 624.189 384.402H635.197C635.3 384.402 635.378 384.557 635.378 384.745C635.378 384.933 635.307 385.088 635.197 385.088Z" fill="white"/>
<path d="M633.786 388.538H645.907C645.999 388.538 646.087 388.574 646.153 388.638C646.218 388.703 646.256 388.79 646.257 388.881C646.257 388.927 646.248 388.973 646.23 389.015C646.213 389.057 646.187 389.094 646.154 389.127C646.121 389.158 646.083 389.184 646.041 389.2C645.998 389.217 645.953 389.226 645.907 389.224H624.358C624.268 389.224 624.18 389.189 624.116 389.124C624.051 389.06 624.015 388.973 624.015 388.881C624.015 388.791 624.051 388.703 624.116 388.639C624.18 388.574 624.268 388.538 624.358 388.538H633.786Z" fill="white"/>
<path d="M635.197 393.369H624.189C624.092 393.369 624.008 393.214 624.008 393.019C624.008 392.825 624.092 392.676 624.189 392.676H635.197C635.3 392.676 635.378 392.832 635.378 393.019C635.378 393.207 635.307 393.369 635.197 393.369Z" fill="white"/>
<path opacity="0.2" d="M618.429 398.367C618.429 398.367 619.808 404.577 626.017 405.956C626.017 405.956 624.994 404.175 626.017 399.06C623.48 399.661 620.815 399.419 618.429 398.367Z" fill="black"/>
<path d="M516.901 349.392H544.62V312.147H510.134V342.496C510.134 342.496 512.174 348.012 516.901 349.392Z" fill="#B2B6BB"/>
<path d="M537.612 320.247H516.057C515.966 320.247 515.878 320.211 515.814 320.147C515.75 320.082 515.714 319.995 515.714 319.904C515.714 319.812 515.75 319.726 515.814 319.661C515.878 319.597 515.966 319.561 516.057 319.561H537.606C537.696 319.561 537.784 319.597 537.849 319.661C537.913 319.726 537.949 319.812 537.949 319.904C537.95 319.948 537.942 319.993 537.925 320.035C537.909 320.076 537.884 320.114 537.852 320.146C537.821 320.178 537.784 320.203 537.742 320.221C537.701 320.238 537.657 320.247 537.612 320.247Z" fill="white"/>
<path d="M525.493 323.717H537.614C537.698 323.729 537.775 323.77 537.83 323.834C537.885 323.897 537.916 323.979 537.916 324.064C537.916 324.148 537.885 324.23 537.83 324.294C537.775 324.357 537.698 324.398 537.614 324.41H516.059C515.975 324.398 515.898 324.357 515.843 324.294C515.787 324.23 515.756 324.148 515.756 324.064C515.756 323.979 515.787 323.897 515.843 323.834C515.898 323.77 515.975 323.729 516.059 323.717H525.486" fill="white"/>
<path d="M526.91 328.528H515.902C515.805 328.528 515.721 328.372 515.721 328.185C515.721 327.997 515.805 327.835 515.902 327.835H526.91C527.013 327.835 527.091 327.99 527.091 328.185C527.091 328.379 527.013 328.528 526.91 328.528Z" fill="white"/>
<path d="M525.493 331.973H537.614C537.698 331.985 537.775 332.026 537.83 332.09C537.885 332.153 537.916 332.235 537.916 332.32C537.916 332.404 537.885 332.486 537.83 332.549C537.775 332.613 537.698 332.654 537.614 332.666H516.059C515.975 332.654 515.898 332.613 515.843 332.549C515.787 332.486 515.756 332.404 515.756 332.32C515.756 332.235 515.787 332.153 515.843 332.09C515.898 332.026 515.975 331.985 516.059 331.973H525.486" fill="white"/>
<path d="M526.91 336.804H515.902C515.805 336.804 515.721 336.648 515.721 336.46C515.721 336.273 515.805 336.117 515.902 336.117H526.91C527.013 336.117 527.091 336.266 527.091 336.46C527.091 336.655 527.013 336.804 526.91 336.804Z" fill="white"/>
<path opacity="0.2" d="M510.134 341.808C510.134 341.808 511.513 348.011 517.723 349.39C517.723 349.39 516.7 347.616 517.723 342.494C515.186 343.101 512.521 342.86 510.134 341.808Z" fill="black"/>
<path d="M353.419 407.335H381.145V370.084H346.653V400.413C346.653 400.413 348.725 405.949 353.419 407.335Z" fill="#B2B6BB"/>
<path d="M374.139 378.192H352.59C352.507 378.181 352.43 378.139 352.374 378.076C352.319 378.012 352.288 377.93 352.288 377.846C352.288 377.761 352.319 377.68 352.374 377.616C352.43 377.552 352.507 377.511 352.59 377.5H374.139C374.223 377.511 374.3 377.552 374.356 377.616C374.411 377.68 374.442 377.761 374.442 377.846C374.442 377.93 374.411 378.012 374.356 378.076C374.3 378.139 374.223 378.181 374.139 378.192Z" fill="white"/>
<path d="M362.011 381.644H374.138C374.23 381.644 374.316 381.68 374.381 381.744C374.445 381.809 374.481 381.895 374.481 381.987C374.481 382.077 374.445 382.165 374.381 382.23C374.316 382.294 374.23 382.33 374.138 382.33H352.589C352.544 382.331 352.499 382.323 352.458 382.306C352.416 382.29 352.378 382.265 352.345 382.234C352.312 382.203 352.286 382.165 352.268 382.124C352.25 382.083 352.24 382.038 352.24 381.993C352.239 381.948 352.248 381.903 352.264 381.861C352.281 381.819 352.306 381.781 352.338 381.748C352.371 381.717 352.409 381.691 352.451 381.674C352.493 381.657 352.538 381.649 352.583 381.65H362.004" fill="white"/>
<path d="M363.436 386.467H352.429C352.325 386.467 352.248 386.311 352.248 386.123C352.248 385.936 352.325 385.78 352.429 385.78H363.436C363.533 385.78 363.618 385.936 363.618 386.123C363.618 386.311 363.533 386.467 363.436 386.467Z" fill="white"/>
<path d="M362.012 389.918H374.14C374.23 389.918 374.318 389.954 374.382 390.019C374.447 390.083 374.483 390.17 374.483 390.261C374.483 390.352 374.447 390.44 374.382 390.504C374.318 390.568 374.23 390.604 374.14 390.604H352.591C352.546 390.605 352.5 390.597 352.458 390.58C352.416 390.563 352.378 390.538 352.346 390.506C352.314 390.474 352.289 390.436 352.272 390.394C352.255 390.352 352.246 390.306 352.248 390.261C352.248 390.17 352.284 390.083 352.348 390.019C352.412 389.954 352.5 389.918 352.591 389.918H362.012Z" fill="white"/>
<path d="M363.436 394.749H352.429C352.325 394.749 352.248 394.594 352.248 394.399C352.248 394.205 352.325 394.056 352.429 394.056H363.436C363.533 394.056 363.618 394.212 363.618 394.399C363.618 394.587 363.533 394.749 363.436 394.749Z" fill="white"/>
<path opacity="0.2" d="M346.653 399.747C346.653 399.747 348.032 405.957 354.248 407.336C354.248 407.336 353.225 405.555 354.248 400.44C351.709 401.041 349.041 400.799 346.653 399.747Z" fill="black"/>
<path d="M383.902 259.032H343.893V261.907H383.902V259.032Z" fill="#61656D"/>
<path d="M383.902 265.468H343.893V268.343H383.902V265.468Z" fill="#61656D"/>
<path d="M368.725 272.021H343.893V274.896H368.725V272.021Z" fill="#61656D"/>
<path opacity="0.3" d="M383.902 259.032H343.893V261.907H383.902V259.032Z" fill="white"/>
<path opacity="0.3" d="M383.902 265.468H343.893V268.343H383.902V265.468Z" fill="white"/>
<path opacity="0.3" d="M368.725 272.021H343.893V274.896H368.725V272.021Z" fill="white"/>
<path d="M601.184 199.708H561.175V202.583H601.184V199.708Z" fill="#61656D"/>
<path d="M601.184 206.151H561.175V209.026H601.184V206.151Z" fill="#61656D"/>
<path d="M586.007 212.704H561.175V215.579H586.007V212.704Z" fill="#61656D"/>
<path opacity="0.3" d="M601.184 199.708H561.175V202.583H601.184V199.708Z" fill="white"/>
<path opacity="0.3" d="M601.184 206.151H561.175V209.026H601.184V206.151Z" fill="white"/>
<path opacity="0.3" d="M586.007 212.704H561.175V215.579H586.007V212.704Z" fill="white"/>
<path d="M472.54 369.12L477.991 380.172L490.184 381.94L481.365 390.545L483.443 402.686L472.54 396.956L461.636 402.686L463.714 390.545L454.889 381.94L467.088 380.172L472.54 369.12Z" fill="#0D5FAA"/>
<path d="M449.786 271.269C449.786 271.269 449.696 270.758 449.612 269.741C449.52 268.241 449.638 266.735 449.961 265.267C450.194 264.182 450.53 263.122 450.965 262.101C451.479 260.864 452.13 259.689 452.907 258.598C454.831 255.841 457.479 253.669 460.561 252.323C462.382 251.517 464.314 250.984 466.291 250.743C468.475 250.461 470.688 250.506 472.857 250.879C477.797 251.766 482.336 254.175 485.839 257.769C487.809 259.737 489.482 261.981 490.806 264.432C492.198 267.042 493.141 269.868 493.596 272.791C494.094 275.888 494.001 279.052 493.324 282.115C492.968 283.708 492.429 285.255 491.719 286.725C490.572 289.037 488.945 291.078 486.946 292.71C484.947 294.343 482.622 295.53 480.128 296.191C476.643 297.159 473.021 297.531 469.412 297.292C465.655 297.117 461.939 296.445 458.359 295.291C454.746 294.081 451.237 291.957 448.861 288.706C446.492 285.38 445.214 281.401 445.202 277.317C445.189 275.239 445.472 273.17 446.044 271.172C446.667 269.158 447.536 267.229 448.634 265.429C449.783 263.628 451.135 261.964 452.661 260.469C454.248 258.991 456.004 257.706 457.893 256.642C459.83 255.603 461.899 254.834 464.044 254.357C466.229 253.911 468.468 253.791 470.688 254C475.264 254.514 479.624 256.22 483.334 258.947C487.044 261.674 489.973 265.327 491.829 269.54C493.697 273.938 494.127 278.812 493.059 283.468C492.516 285.824 491.502 288.047 490.08 290.001C488.62 291.965 486.728 293.567 484.551 294.683C482.36 295.802 479.979 296.502 477.532 296.748C475.074 297.011 472.591 296.906 470.163 296.438C465.222 295.501 460.668 293.127 457.071 289.613C455.256 287.84 453.78 285.751 452.713 283.449C451.646 281.115 451.153 278.559 451.276 275.996C451.554 270.816 454.3 266.031 458.107 262.573C461.926 259.086 466.761 256.914 471.905 256.377C474.446 256.124 477.013 256.344 479.474 257.024C480.696 257.367 481.882 257.827 483.016 258.397C486.425 260.075 489.278 262.701 491.233 265.96C491.866 267.04 492.375 268.19 492.748 269.385C492.942 269.978 493.104 270.582 493.234 271.192C493.331 271.839 493.467 272.415 493.506 273.037C494.007 277.995 492.64 282.962 489.672 286.965C486.702 290.839 482.507 293.594 477.771 294.78C473.153 295.99 468.275 295.751 463.798 294.094C454.986 290.901 448.168 283.041 446.704 274.151C445.934 269.744 446.722 265.207 448.932 261.317C451.078 257.551 454.269 254.488 458.12 252.498C461.851 250.591 465.973 249.571 470.163 249.52C474.213 249.434 478.241 250.134 482.025 251.579C489.439 254.395 495.558 260.035 498.213 266.957C499.481 270.274 499.982 273.835 499.678 277.373C499.374 280.91 498.273 284.334 496.458 287.385C494.737 290.223 492.307 292.564 489.407 294.178C486.654 295.69 483.627 296.634 480.504 296.956C474.411 297.603 468.668 295.945 463.908 293.582C459.424 291.385 455.433 288.302 452.176 284.517C449.411 281.346 447.534 277.499 446.737 273.367C446.193 270.051 446.579 266.649 447.85 263.538C448.754 261.252 450.159 259.199 451.962 257.529C453.08 256.522 454.355 255.704 455.737 255.108C456.689 254.764 457.187 254.616 457.187 254.616L456.825 254.751C456.585 254.842 456.223 254.959 455.75 255.146C454.384 255.758 453.124 256.584 452.02 257.594C450.241 259.265 448.856 261.311 447.967 263.583C446.721 266.676 446.351 270.053 446.899 273.341C447.704 277.436 449.578 281.245 452.331 284.381C455.571 288.126 459.535 291.174 463.986 293.342C468.719 295.686 474.424 297.305 480.439 296.658C483.544 296.357 486.555 295.43 489.29 293.932C492.143 292.336 494.533 290.027 496.225 287.23C498.006 284.22 499.085 280.846 499.38 277.36C499.675 273.874 499.178 270.367 497.928 267.099C495.28 260.288 489.232 254.713 481.896 251.941C478.156 250.508 474.174 249.816 470.17 249.902C466.037 249.959 461.974 250.967 458.295 252.848C454.505 254.814 451.369 257.84 449.268 261.557C447.103 265.368 446.337 269.815 447.099 274.131C448.537 282.859 455.258 290.616 463.934 293.75C468.337 295.372 473.132 295.598 477.668 294.398C482.307 293.235 486.415 290.535 489.323 286.738C492.215 282.828 493.552 277.981 493.072 273.14C493.033 272.532 492.897 271.943 492.806 271.34C492.716 270.738 492.541 270.149 492.334 269.573C491.967 268.409 491.469 267.29 490.851 266.238C489.606 264.108 487.943 262.251 485.962 260.78C481.945 257.755 476.936 256.352 471.931 256.849C466.864 257.367 462.098 259.499 458.333 262.929C454.597 266.322 451.917 271.036 451.645 276.054C451.531 278.551 452.013 281.039 453.05 283.313C454.092 285.566 455.536 287.611 457.31 289.347C460.85 292.799 465.326 295.132 470.183 296.055C472.569 296.518 475.011 296.622 477.428 296.366C479.822 296.128 482.15 295.443 484.292 294.346C486.413 293.268 488.258 291.718 489.685 289.814C491.074 287.902 492.065 285.731 492.599 283.429C493.643 278.857 493.219 274.072 491.388 269.754C489.564 265.606 486.683 262.01 483.033 259.324C479.384 256.638 475.093 254.957 470.591 254.447C468.412 254.24 466.215 254.355 464.07 254.79C461.962 255.263 459.928 256.019 458.023 257.037C454.286 259.083 451.143 262.06 448.899 265.681C447.821 267.45 446.968 269.347 446.361 271.327C445.792 273.288 445.511 275.321 445.526 277.362C445.53 281.37 446.779 285.278 449.1 288.545C451.412 291.73 454.856 293.815 458.431 295.02C461.997 296.153 465.699 296.805 469.438 296.956C472.999 297.195 476.574 296.829 480.012 295.874C482.472 295.236 484.767 294.077 486.741 292.475C488.715 290.873 490.322 288.866 491.453 286.589C492.152 285.143 492.684 283.623 493.039 282.057C493.714 279.031 493.811 275.905 493.324 272.843C492.422 267.195 489.748 261.98 485.69 257.95C482.228 254.381 477.736 251.983 472.844 251.093C470.705 250.721 468.523 250.672 466.369 250.944C464.406 251.175 462.487 251.697 460.677 252.492C457.619 253.816 454.984 255.958 453.063 258.682C452.285 259.763 451.633 260.93 451.12 262.159C450.68 263.168 450.337 264.218 450.097 265.293C449.768 266.756 449.638 268.256 449.709 269.754C449.709 270.259 449.793 270.641 449.806 270.894C449.819 271.146 449.786 271.269 449.786 271.269Z" fill="#61656D"/>
<path d="M484.867 269.379H459.524C459.284 269.379 459.09 269.572 459.09 269.81C459.09 270.048 459.284 270.241 459.524 270.241H484.867C485.107 270.241 485.301 270.048 485.301 269.81C485.301 269.572 485.107 269.379 484.867 269.379Z" fill="#61656D"/>
<path d="M475.212 273.09H459.524C459.284 273.09 459.09 273.283 459.09 273.521C459.09 273.759 459.284 273.951 459.524 273.951H475.212C475.453 273.951 475.647 273.759 475.647 273.521C475.647 273.283 475.453 273.09 475.212 273.09Z" fill="#61656D"/>
<path d="M484.881 273.09H477.435C477.206 273.09 477.021 273.276 477.021 273.505V273.537C477.021 273.766 477.206 273.951 477.435 273.951H484.881C485.11 273.951 485.296 273.766 485.296 273.537V273.505C485.296 273.276 485.11 273.09 484.881 273.09Z" fill="#61656D"/>
<path d="M473.14 276.792H459.524C459.284 276.792 459.09 276.985 459.09 277.223C459.09 277.461 459.284 277.654 459.524 277.654H473.14C473.381 277.654 473.575 277.461 473.575 277.223C473.575 276.985 473.381 276.792 473.14 276.792Z" fill="#61656D"/>
<path d="M867.287 177.843H735.353C734.984 177.855 734.615 177.939 734.278 178.092C733.941 178.245 733.637 178.463 733.385 178.733C733.126 179.004 732.931 179.322 732.802 179.669C732.672 180.017 732.607 180.386 732.62 180.757V209.026L727.861 220.895L739.005 216.466H867.287C867.656 216.455 868.026 216.37 868.362 216.217C868.699 216.064 869.003 215.846 869.256 215.576C869.508 215.305 869.709 214.987 869.839 214.64C869.968 214.293 870.033 213.924 870.02 213.553V180.757C870.033 180.386 869.968 180.017 869.839 179.669C869.709 179.322 869.508 179.004 869.256 178.733C869.003 178.463 868.699 178.245 868.362 178.092C868.026 177.939 867.656 177.855 867.287 177.843Z" fill="#F4F4F4"/>
<path d="M870.02 187.866V180.096C869.968 179.442 869.657 178.836 869.159 178.409C868.66 177.983 868.013 177.77 867.359 177.816H735.269C733.799 177.816 732.601 178.833 732.601 180.096V187.866H870.02Z" fill="#868A91"/>
<path d="M867.287 177.843H735.353C734.984 177.855 734.615 177.939 734.278 178.092C733.941 178.245 733.637 178.463 733.385 178.733C733.126 179.004 732.931 179.322 732.802 179.669C732.672 180.017 732.607 180.386 732.62 180.757V209.026L727.861 220.895L739.005 216.466H867.287C867.656 216.455 868.026 216.37 868.362 216.217C868.699 216.064 869.003 215.846 869.256 215.576C869.508 215.305 869.709 214.987 869.839 214.64C869.968 214.293 870.033 213.924 870.02 213.553V180.757C870.033 180.386 869.968 180.017 869.839 179.669C869.709 179.322 869.508 179.004 869.256 178.733C869.003 178.463 868.699 178.245 868.362 178.092C868.026 177.939 867.656 177.855 867.287 177.843Z" stroke="black" stroke-width="1.03" stroke-miterlimit="10"/>
<path d="M746.25 208.793C744.806 208.793 743.388 208.363 742.184 207.56C740.98 206.756 740.047 205.613 739.49 204.276C738.94 202.939 738.791 201.468 739.076 200.049C739.355 198.63 740.054 197.325 741.077 196.302C742.1 195.279 743.401 194.582 744.826 194.3C746.244 194.017 747.714 194.162 749.054 194.716C750.388 195.27 751.528 196.208 752.337 197.411C753.14 198.614 753.567 200.029 753.567 201.476C753.567 203.416 752.797 205.276 751.424 206.648C750.051 208.02 748.193 208.791 746.25 208.793ZM746.25 195.292C745.027 195.292 743.835 195.655 742.819 196.335C741.796 197.014 741.006 197.979 740.539 199.11C740.073 200.24 739.95 201.483 740.183 202.682C740.423 203.882 741.012 204.983 741.88 205.849C742.741 206.714 743.848 207.302 745.046 207.541C746.244 207.779 747.487 207.657 748.62 207.189C749.747 206.721 750.712 205.928 751.392 204.912C752.071 203.894 752.434 202.699 752.434 201.476C752.434 199.836 751.78 198.263 750.621 197.103C749.462 195.944 747.889 195.292 746.25 195.292Z" fill="#0D5FAA"/>
<path d="M745.83 202.564C745.752 202.562 745.681 202.547 745.609 202.519C745.506 202.474 745.422 202.401 745.357 202.308C745.299 202.215 745.26 202.107 745.26 201.995V197.462C745.273 197.322 745.344 197.193 745.448 197.099C745.551 197.005 745.687 196.953 745.83 196.953C745.966 196.953 746.101 197.005 746.205 197.099C746.315 197.193 746.38 197.322 746.393 197.462V200.628L748.167 198.861C748.219 198.806 748.284 198.763 748.348 198.732C748.42 198.703 748.491 198.686 748.568 198.686C748.646 198.685 748.717 198.699 748.789 198.727C748.86 198.756 748.918 198.798 748.976 198.851C749.028 198.904 749.067 198.967 749.099 199.037C749.125 199.106 749.138 199.181 749.138 199.256C749.138 199.331 749.119 199.405 749.093 199.474C749.061 199.543 749.015 199.605 748.963 199.657L746.231 202.396C746.179 202.449 746.114 202.492 746.05 202.52C745.978 202.549 745.907 202.564 745.83 202.564Z" fill="#0D5FAA"/>
<path d="M805.633 194.748C804.389 194.75 803.191 195.246 802.311 196.128C801.43 197.009 800.932 198.203 800.932 199.449C800.932 202.039 805.633 208.203 805.633 208.203C805.633 208.203 810.327 202.046 810.327 199.449C810.327 198.204 809.835 197.009 808.954 196.128C808.074 195.246 806.876 194.75 805.633 194.748ZM805.633 202.123C805.102 202.125 804.584 201.969 804.143 201.676C803.703 201.383 803.36 200.966 803.159 200.477C802.952 199.989 802.9 199.451 803.004 198.932C803.107 198.413 803.36 197.935 803.735 197.561C804.104 197.186 804.584 196.931 805.102 196.827C805.62 196.723 806.157 196.776 806.649 196.978C807.135 197.18 807.556 197.523 807.847 197.963C808.145 198.403 808.3 198.92 808.3 199.449C808.3 199.8 808.236 200.148 808.1 200.472C807.964 200.797 807.769 201.091 807.523 201.34C807.277 201.589 806.979 201.785 806.656 201.92C806.332 202.054 805.982 202.123 805.633 202.123Z" fill="#0D5FAA"/>
<path d="M787.936 197.52H758.274V199.591H787.936V197.52Z" fill="#B2B6BB"/>
<path d="M774.831 201.657H758.274V203.729H774.831V201.657Z" fill="#B2B6BB"/>
<path d="M861.738 197.52H816.905V199.591H861.738V197.52Z" fill="#B2B6BB"/>
<path d="M841.931 201.657H816.905V203.729H841.931V201.657Z" fill="#B2B6BB"/>
<path d="M732.62 187.865H870.02" stroke="black" stroke-width="1.03" stroke-miterlimit="10"/>
<path d="M407.277 468.926C406.976 468.926 406.677 468.866 406.398 468.75C406.12 468.635 405.867 468.465 405.654 468.252C405.441 468.038 405.272 467.785 405.158 467.506C405.043 467.227 404.984 466.928 404.985 466.627V433.216C404.961 432.466 405.235 431.738 405.747 431.19C406.259 430.643 406.968 430.321 407.717 430.296H539.645C540.395 430.321 541.104 430.643 541.616 431.19C542.129 431.738 542.402 432.466 542.378 433.216V466.012C542.401 466.76 542.126 467.487 541.614 468.033C541.102 468.579 540.394 468.9 539.645 468.926H407.277Z" fill="#F4F4F4"/>
<path d="M539.71 430.296H482.419L478.715 421.82L475.478 430.296H407.639C406.985 430.249 406.339 430.462 405.841 430.889C405.343 431.316 405.032 431.921 404.978 432.575V440.345H542.378V432.575C542.378 431.319 541.18 430.296 539.71 430.296Z" fill="#868A91"/>
<path d="M418.608 461.247C417.161 461.247 415.746 460.818 414.543 460.014C413.34 459.21 412.401 458.066 411.848 456.729C411.294 455.391 411.15 453.92 411.433 452.501C411.716 451.081 412.413 449.777 413.437 448.754C414.461 447.731 415.765 447.035 417.185 446.754C418.605 446.472 420.076 446.618 421.413 447.173C422.75 447.727 423.892 448.666 424.695 449.87C425.498 451.074 425.926 452.489 425.925 453.937C425.922 455.876 425.149 457.734 423.778 459.105C422.407 460.475 420.548 461.245 418.608 461.247ZM418.608 447.753C417.385 447.753 416.19 448.116 415.173 448.795C414.156 449.475 413.364 450.441 412.895 451.57C412.427 452.7 412.305 453.943 412.544 455.143C412.782 456.342 413.371 457.445 414.236 458.31C415.101 459.174 416.203 459.763 417.402 460.002C418.602 460.24 419.845 460.118 420.975 459.65C422.105 459.182 423.07 458.389 423.75 457.372C424.429 456.355 424.792 455.16 424.792 453.937C424.791 452.298 424.139 450.725 422.979 449.566C421.82 448.407 420.248 447.755 418.608 447.753Z" fill="#0D5FAA"/>
<path d="M418.181 455.017C418.107 455.016 418.035 455.003 417.967 454.978C417.863 454.935 417.775 454.862 417.713 454.769C417.651 454.676 417.617 454.566 417.617 454.454V449.921C417.632 449.781 417.698 449.652 417.803 449.558C417.907 449.464 418.043 449.412 418.184 449.412C418.324 449.412 418.46 449.464 418.564 449.558C418.669 449.652 418.735 449.781 418.75 449.921V453.087L420.518 451.313C420.627 451.221 420.767 451.174 420.909 451.18C421.052 451.186 421.187 451.245 421.288 451.346C421.389 451.447 421.448 451.583 421.454 451.725C421.46 451.867 421.413 452.007 421.321 452.116L418.582 454.855C418.529 454.907 418.467 454.949 418.397 454.977C418.329 455.005 418.255 455.018 418.181 455.017Z" fill="#0D5FAA"/>
<path d="M477.984 447.209C476.742 447.219 475.554 447.721 474.681 448.604C473.807 449.488 473.319 450.68 473.322 451.923C473.322 454.513 478.017 460.671 478.017 460.671C478.017 460.671 482.718 454.519 482.718 451.923C482.719 451.302 482.598 450.686 482.36 450.112C482.123 449.538 481.774 449.018 481.334 448.579C480.893 448.141 480.371 447.794 479.796 447.559C479.221 447.324 478.605 447.205 477.984 447.209ZM477.984 454.584C477.455 454.585 476.937 454.429 476.497 454.137C476.056 453.843 475.712 453.426 475.509 452.938C475.306 452.449 475.252 451.911 475.354 451.392C475.456 450.873 475.711 450.396 476.085 450.021C476.458 449.647 476.935 449.391 477.454 449.288C477.973 449.184 478.511 449.236 479 449.438C479.488 449.641 479.907 449.984 480.201 450.423C480.495 450.864 480.652 451.381 480.652 451.91C480.652 452.618 480.371 453.298 479.871 453.799C479.371 454.3 478.693 454.582 477.984 454.584Z" fill="#0D5FAA"/>
<path d="M460.295 449.98H430.633V452.052H460.295V449.98Z" fill="#B2B6BB"/>
<path d="M447.189 454.118H430.633V456.19H447.189V454.118Z" fill="#B2B6BB"/>
<path d="M534.098 449.98H489.265V452.052H534.098V449.98Z" fill="#B2B6BB"/>
<path d="M514.291 454.118H489.265V456.19H514.291V454.118Z" fill="#B2B6BB"/>
<path d="M404.978 440.326H542.378" stroke="black" stroke-width="1.03" stroke-miterlimit="10"/>
<path d="M539.647 430.296H482.421L478.717 421.82L475.48 430.296H407.712C406.963 430.321 406.254 430.643 405.741 431.191C405.229 431.738 404.955 432.466 404.98 433.216V466.627C404.979 466.928 405.038 467.227 405.152 467.507C405.267 467.785 405.436 468.039 405.649 468.252C405.862 468.466 406.114 468.635 406.394 468.75C406.672 468.866 406.97 468.926 407.272 468.926H539.647C540.395 468.901 541.103 468.579 541.615 468.034C542.127 467.487 542.402 466.761 542.379 466.012V433.216C542.403 432.466 542.13 431.738 541.617 431.191C541.105 430.643 540.396 430.321 539.647 430.296Z" stroke="black" stroke-width="1.03" stroke-miterlimit="10"/>
<path d="M407.66 541.155L436.052 529.267L436.998 553.8L407.66 541.155Z" fill="#B2B6BB"/>
<path d="M656.623 537.185L656.28 529.014L436.053 529.266L436.351 537.431L656.623 537.185Z" fill="#0D5FAA"/>
<path d="M657.213 553.515L656.908 545.35L436.681 545.557L436.979 553.8L657.213 553.515Z" fill="#0D5FAA"/>
<path d="M656.928 545.351L656.623 537.186L436.349 537.432L436.699 545.558L656.928 545.351Z" fill="#0D5FAA"/>
<path opacity="0.3" d="M656.928 545.351L656.623 537.186L436.349 537.432L436.699 545.558L656.928 545.351Z" fill="black"/>
<path d="M415.177 538.04L407.66 541.187L415.43 544.521L415.177 538.04Z" fill="black"/>
<path d="M702.907 549.844L702.259 532.51C702.201 530.568 700.317 528.943 697.979 528.93L656.312 529.014L657.264 553.515L698.925 553.431C701.204 553.405 703.01 551.799 702.907 549.844Z" fill="#3F4249"/>
<path d="M657.264 553.522L656.319 529.02H663.804L664.749 553.528L657.264 553.522Z" fill="#B2B6BB"/>
<path opacity="0.4" d="M656.947 546.004L698.614 545.92C700.874 545.92 702.68 544.321 702.622 542.327L702.907 549.844C702.965 551.787 701.204 553.405 698.892 553.431L657.232 553.515L656.947 546.004Z" fill="black"/>
<path d="M672.105 546.056L640.183 546.859L652.92 537.794C653.949 537.069 654.797 536.117 655.387 535.003C655.982 533.89 656.306 532.653 656.332 531.397L656.895 521.27L674.222 521.334L672.105 546.056Z" fill="#FC9D9D"/>
<path opacity="0.15" d="M668.55 534.375V534.194C668.608 533.669 668.459 533.138 668.136 532.718C667.812 532.297 667.333 532.025 666.808 531.954L656.448 530.464L656.578 528.476H673.775L672.228 545.37L658.313 543.816L662.91 542.016C664.451 541.368 665.792 540.319 666.782 538.972C667.78 537.632 668.388 536.039 668.55 534.375Z" fill="black"/>
<path d="M728.159 545.434H713.81L711.143 521.146L728.094 521.211L728.159 545.434Z" fill="#FC9D9D"/>
<path opacity="0.15" d="M724.552 541.336L724.183 533.883C724.151 533.41 723.963 532.964 723.646 532.614C723.329 532.258 722.908 532.025 722.442 531.941L712.133 530.387L711.887 528.34L728.036 528.405L728.094 545.603L724.552 541.336Z" fill="black"/>
<path d="M725.783 337.238L728.891 529.985H710.593L694.677 366.252C694.625 365.753 694.392 365.29 694.017 364.952C693.647 364.615 693.168 364.425 692.663 364.42C692.165 364.419 691.692 364.608 691.329 364.95C690.967 365.29 690.747 365.756 690.721 366.252L673.763 529.985H655.464L659.673 337.238H725.783Z" fill="#21252B"/>
<path d="M729.376 529.985H709.861L709.498 526.016H729.318L729.376 529.985Z" fill="#21252B"/>
<path opacity="0.15" d="M729.376 529.985H721.205L721.023 526.016H729.318L729.376 529.985Z" fill="black"/>
<path opacity="0.2" d="M662.781 527.784L680.834 372.928C681.112 370.596 682.232 368.446 683.98 366.883C685.735 365.32 688.001 364.453 690.345 364.445H692.605C692.107 364.445 691.634 364.634 691.271 364.975C690.909 365.316 690.695 365.782 690.663 366.278L673.828 529.156L662.781 527.784Z" fill="black"/>
<path d="M674.183 529.985H654.726L655.03 526.016H674.611L674.183 529.985Z" fill="#21252B"/>
<path opacity="0.15" d="M729.376 529.985H709.861L709.498 526.016H729.318L729.376 529.985Z" fill="black"/>
<path opacity="0.15" d="M674.183 529.985H654.726L655.03 526.016H674.611L674.183 529.985Z" fill="black"/>
<path opacity="0.15" d="M674.184 529.985H662.593L663.021 526.016H674.611L674.184 529.985Z" fill="black"/>
<path d="M628.677 551.333V550.647C628.676 550.109 628.782 549.572 628.987 549.08C629.193 548.581 629.495 548.128 629.876 547.746C630.257 547.364 630.708 547.066 631.206 546.859C631.704 546.652 632.237 546.548 632.776 546.548H638.487C639.085 546.555 639.68 546.445 640.235 546.224C640.791 546.004 641.297 545.674 641.724 545.253L656.319 531.403L660.852 537.367C661.208 537.833 661.661 538.215 662.185 538.48C662.703 538.746 663.28 538.888 663.862 538.901C664.452 538.908 665.028 538.791 665.565 538.545C666.096 538.299 666.563 537.943 666.938 537.49C667.307 537.056 667.76 536.7 668.278 536.454C668.79 536.208 669.353 536.072 669.923 536.059H672.966V551.094L628.677 551.333Z" fill="#3F4249"/>
<path d="M628.677 551.333V553.567H673.083V551.081L628.677 551.333Z" fill="black"/>
<path d="M659.233 535.12L649.358 543.136C648.827 543.557 648.167 543.777 647.489 543.738C646.814 543.706 646.174 543.421 645.693 542.948L644.948 542.203L656.312 531.397C656.604 531.312 656.921 531.319 657.213 531.416C657.497 531.513 657.75 531.701 657.931 531.953L659.11 533.631C659.259 533.818 659.356 534.045 659.388 534.291C659.42 534.531 659.388 534.77 659.297 534.997L659.233 535.12Z" fill="black"/>
<path d="M715.675 534.44H714.497C713.953 534.434 713.435 534.628 713.033 534.99C712.625 535.347 712.373 535.845 712.321 536.383L712.075 540.857C711.997 542.242 711.635 543.596 711.013 544.832L710.579 545.635C709.789 547.196 709.388 548.918 709.401 550.666V551.476H732.134C732.122 549.261 731.442 547.099 730.192 545.266C729.26 543.894 728.683 542.314 728.515 540.669L728.023 536.195C727.913 535.703 727.641 535.256 727.239 534.939C726.844 534.628 726.352 534.453 725.847 534.46H725.038" fill="#3F4249"/>
<path d="M732.005 551.391H709.336V553.567H732.005V551.391Z" fill="black"/>
<path d="M718.654 532.387H722.008C722.409 532.387 722.804 532.471 723.167 532.633C723.536 532.801 723.86 533.041 724.125 533.339C724.391 533.643 724.585 533.993 724.702 534.375C724.818 534.757 724.857 535.165 724.805 535.56L724.061 541.646C723.938 542.553 723.491 543.382 722.805 543.984C722.118 544.586 721.244 544.923 720.331 544.936C719.405 544.942 718.505 544.599 717.819 543.977C717.132 543.362 716.699 542.508 716.608 541.582L715.922 535.495C715.863 535.107 715.889 534.705 716.006 534.33C716.116 533.954 716.31 533.604 716.569 533.307C716.828 533.015 717.152 532.776 717.508 532.62C717.871 532.458 718.259 532.381 718.654 532.387Z" fill="black"/>
<path d="M714.309 536.428H726.359" stroke="white" stroke-width="1.26" stroke-linecap="round" stroke-linejoin="round"/>
<path d="M714.678 539.283H725.984" stroke="white" stroke-width="1.26" stroke-linecap="round" stroke-linejoin="round"/>
<path d="M714.989 542.08H725.672" stroke="white" stroke-width="1.26" stroke-linecap="round" stroke-linejoin="round"/>
<path d="M647.927 537.981L652.337 542.138" stroke="white" stroke-width="1.26" stroke-linecap="round" stroke-linejoin="round"/>
<path d="M650.291 535.806L654.823 540.093" stroke="white" stroke-width="1.26" stroke-linecap="round" stroke-linejoin="round"/>
<path d="M652.712 533.754L657.18 537.982" stroke="white" stroke-width="1.26" stroke-linecap="round" stroke-linejoin="round"/>
<path opacity="0.2" d="M708.747 355.225L709.945 357.271L711.505 352.227L715.695 352.389L717.98 365.663L717.333 335.055L725.815 339.756L728.988 526.158L721.114 525.958L718.136 371.853C712.535 366.983 709.485 359.693 708.423 357.206C708.274 356.882 708.222 356.518 708.281 356.166C708.339 355.812 708.501 355.484 708.747 355.225Z" fill="black"/>
<path d="M604.823 282.924C607.336 279.454 609.706 280.192 603.438 272.072C602.013 270.531 601.385 271.6 598.484 270.233C596.541 269.476 591.925 268.194 590.863 269.152C585.787 277.006 583.249 275.582 591.828 280.859C591.828 280.859 598.303 285.126 600.925 284.919C602.404 284.686 603.769 283.988 604.823 282.924Z" fill="#FC9D9D"/>
<path d="M594.858 272.157L596.379 269.982L586.731 264.582C586.436 264.427 586.096 264.385 585.772 264.462C585.448 264.54 585.164 264.732 584.97 265.002C584.867 265.154 584.797 265.325 584.766 265.505C584.733 265.685 584.74 265.87 584.785 266.048C584.829 266.225 584.911 266.391 585.025 266.534C585.138 266.678 585.28 266.796 585.443 266.88L594.858 272.157Z" fill="#FC9D9D"/>
<path d="M592.547 274.249L594.276 271.659L583.223 265.268C582.885 265.088 582.493 265.039 582.122 265.129C581.75 265.22 581.425 265.445 581.209 265.76C581.089 265.938 581.008 266.139 580.97 266.351C580.933 266.562 580.94 266.779 580.992 266.988C581.043 267.196 581.137 267.392 581.268 267.561C581.399 267.732 581.564 267.872 581.753 267.974L592.547 274.249Z" fill="#FC9D9D"/>
<path opacity="0.15" d="M593.252 271.452C593.194 271.45 593.136 271.434 593.083 271.407L585.119 266.978C585.04 266.933 584.981 266.859 584.956 266.77C584.931 266.682 584.942 266.588 584.986 266.508C585.031 266.429 585.106 266.37 585.194 266.344C585.282 266.32 585.376 266.331 585.456 266.375L593.42 270.804C593.484 270.843 593.534 270.902 593.562 270.971C593.59 271.041 593.595 271.118 593.576 271.19C593.557 271.263 593.515 271.328 593.457 271.375C593.399 271.421 593.327 271.449 593.252 271.452Z" fill="black"/>
<path d="M592.547 277.694L594.276 275.155L583.223 268.765C582.885 268.584 582.493 268.535 582.122 268.625C581.75 268.716 581.425 268.941 581.209 269.257C581.089 269.435 581.008 269.636 580.97 269.847C580.933 270.058 580.94 270.275 580.992 270.484C581.043 270.692 581.137 270.888 581.268 271.058C581.399 271.228 581.564 271.368 581.753 271.471L592.547 277.694Z" fill="#FC9D9D"/>
<path d="M592.547 281.144L594.276 278.554L583.223 272.163C582.886 271.982 582.494 271.932 582.123 272.022C581.752 272.111 581.426 272.334 581.209 272.648C581.089 272.827 581.008 273.028 580.97 273.24C580.933 273.451 580.94 273.668 580.992 273.876C581.043 274.085 581.137 274.28 581.268 274.45C581.399 274.62 581.564 274.761 581.753 274.863L592.547 281.144Z" fill="#FC9D9D"/>
<path d="M590.669 275.803L590.715 275.855V275.887C590.718 275.864 590.718 275.84 590.715 275.816L590.669 275.803Z" fill="#FC9D9D"/>
<path opacity="0.2" d="M599.954 270.623C599.954 270.623 598.245 274.637 599.248 278.134C600.252 281.63 601.515 282.265 601.515 282.265L600.867 271.192L599.954 270.623Z" fill="black"/>
<path d="M589.686 278.833C589.783 278.918 589.809 278.976 589.686 278.97C589.649 278.975 589.612 278.975 589.575 278.97C589.574 278.95 589.574 278.931 589.575 278.911L589.686 278.833Z" fill="#FC9D9D"/>
<path opacity="0.15" d="M591.873 274.21C591.81 274.208 591.747 274.19 591.692 274.158L583.041 269.043C582.974 268.99 582.929 268.915 582.913 268.831C582.897 268.747 582.913 268.661 582.957 268.587C583 268.514 583.069 268.459 583.151 268.433C583.232 268.407 583.32 268.413 583.398 268.447L592.048 273.569C592.087 273.592 592.121 273.622 592.148 273.659C592.175 273.696 592.194 273.737 592.205 273.78C592.216 273.824 592.218 273.87 592.211 273.915C592.204 273.96 592.189 274.002 592.165 274.041C592.134 274.092 592.092 274.133 592.041 274.163C591.99 274.192 591.932 274.208 591.873 274.21Z" fill="black"/>
<path opacity="0.15" d="M590.56 276.515C590.503 276.515 590.448 276.502 590.398 276.477L583.055 272.501C582.975 272.455 582.916 272.38 582.89 272.292C582.865 272.204 582.875 272.108 582.919 272.028C582.943 271.989 582.975 271.955 583.012 271.928C583.049 271.901 583.091 271.882 583.136 271.871C583.18 271.862 583.227 271.86 583.272 271.868C583.317 271.876 583.36 271.893 583.398 271.918L590.734 275.894C590.803 275.929 590.857 275.987 590.889 276.057C590.921 276.128 590.928 276.207 590.909 276.281C590.89 276.356 590.847 276.422 590.786 276.469C590.725 276.517 590.65 276.542 590.573 276.541L590.56 276.515Z" fill="black"/>
<path d="M565.708 288.753L592.327 296.523L602.745 260.762L569.632 251.121L561.15 280.258C561.15 280.258 561.584 286.099 565.708 288.753Z" fill="#61656D"/>
<path d="M593.758 266.544L573.038 260.522C572.951 260.495 572.878 260.435 572.835 260.356C572.791 260.276 572.78 260.182 572.805 260.095C572.817 260.051 572.837 260.009 572.865 259.974C572.894 259.937 572.929 259.908 572.968 259.885C573.008 259.863 573.052 259.849 573.097 259.844C573.142 259.838 573.188 259.842 573.232 259.855L593.92 265.883C593.97 265.888 594.019 265.904 594.062 265.929C594.106 265.955 594.143 265.99 594.171 266.032C594.2 266.074 594.218 266.121 594.227 266.171C594.234 266.221 594.231 266.272 594.217 266.32C594.203 266.369 594.178 266.414 594.145 266.452C594.111 266.489 594.07 266.52 594.024 266.54C593.977 266.56 593.928 266.57 593.877 266.568C593.827 266.567 593.777 266.554 593.732 266.531L593.758 266.544Z" fill="white"/>
<path d="M581.143 266.466L592.798 269.859C592.848 269.865 592.896 269.882 592.939 269.907C592.982 269.934 593.018 269.97 593.045 270.011C593.073 270.053 593.09 270.1 593.098 270.15C593.105 270.199 593.101 270.25 593.087 270.298C593.073 270.346 593.048 270.39 593.015 270.428C592.982 270.465 592.94 270.495 592.894 270.515C592.848 270.534 592.798 270.544 592.749 270.543C592.698 270.541 592.649 270.528 592.604 270.506L571.884 264.478C571.84 264.466 571.799 264.445 571.763 264.417C571.727 264.389 571.697 264.355 571.675 264.314C571.652 264.275 571.639 264.231 571.634 264.186C571.628 264.14 571.632 264.094 571.645 264.051C571.673 263.963 571.734 263.89 571.815 263.847C571.896 263.804 571.99 263.793 572.078 263.818L581.143 266.453" fill="white"/>
<path d="M581.157 271.496L570.59 268.421C570.493 268.421 570.46 268.22 570.512 268.039C570.564 267.857 570.687 267.728 570.784 267.76L581.351 270.836C581.449 270.836 581.481 271.037 581.429 271.218C581.377 271.399 581.254 271.529 581.157 271.496Z" fill="white"/>
<path d="M578.865 274.41L590.52 277.803C590.57 277.809 590.618 277.825 590.66 277.852C590.703 277.878 590.739 277.913 590.767 277.955C590.794 277.997 590.812 278.045 590.819 278.094C590.826 278.144 590.823 278.194 590.808 278.242C590.794 278.29 590.769 278.335 590.736 278.372C590.703 278.409 590.662 278.439 590.616 278.459C590.569 278.478 590.52 278.488 590.47 278.487C590.42 278.485 590.37 278.473 590.326 278.451L569.606 272.428C569.519 272.402 569.446 272.342 569.403 272.262C569.359 272.182 569.348 272.089 569.373 272.001C569.384 271.957 569.405 271.916 569.434 271.88C569.461 271.844 569.496 271.814 569.536 271.792C569.576 271.77 569.619 271.755 569.665 271.75C569.71 271.745 569.756 271.749 569.8 271.762L578.865 274.397" fill="white"/>
<path d="M578.865 279.447L568.291 276.365C568.194 276.365 568.162 276.171 568.213 275.983C568.265 275.795 568.388 275.679 568.485 275.705L579.053 278.78C579.15 278.78 579.189 278.981 579.13 279.162C579.072 279.344 578.943 279.473 578.865 279.447Z" fill="white"/>
<path opacity="0.2" d="M561.336 279.559C561.336 279.559 560.922 285.904 566.517 288.967C566.517 288.967 566.031 286.972 568.459 282.343C565.844 282.218 563.342 281.24 561.336 279.559Z" fill="black"/>
<path opacity="0.2" d="M599.023 274.398C599.023 274.398 593.978 275.576 592.632 272.974C591.188 270.189 595.435 270.552 596.692 270.383C597.948 270.215 597.119 271.957 599.21 272.41L599.023 274.398Z" fill="black"/>
<path d="M596.825 270.544C600.62 269.023 604.246 271.192 605.243 275.161L605.476 276.132C606.266 279.693 604.829 282.005 603.372 282.549C602.316 282.944 600.885 282.711 600.05 279.357C599.542 277.622 599.415 275.797 599.681 274.008C597.557 274.319 594.339 274.508 593.206 272.986C591.166 270.253 595.699 270.984 596.825 270.544Z" fill="#FC9D9D"/>
<path d="M648.795 269.257L640.545 293.033L607.477 276.677L600.582 286.001L641.51 312.652C645.984 315.398 651.974 314.032 654.512 309.415C654.61 309.247 654.7 309.074 654.778 308.897L665.708 280.705" fill="#0D5FAA"/>
<path d="M680.128 215.061C678.47 214.96 676.916 214.214 675.802 212.982C674.688 211.75 674.106 210.131 674.17 208.471C674.235 206.812 674.954 205.245 676.165 204.107C677.369 202.969 678.982 202.35 680.639 202.383C680.833 202.383 681.345 202.253 681.287 202.447C679.875 207.951 681.533 215.061 680.128 215.061Z" fill="black"/>
<path d="M661.344 266.44C661.389 265.074 683.87 239.063 683.87 239.063L708.903 239.199L726.495 277.098L721.166 312.607L720.83 337.328C720.836 337.548 720.804 337.766 720.726 337.972C720.648 338.177 720.532 338.365 720.376 338.523C720.227 338.682 720.046 338.808 719.845 338.894C719.638 338.98 719.425 339.025 719.204 339.025L711.92 339.568C696.781 340.689 681.585 340.507 666.478 339.025C666.258 339.025 666.045 338.983 665.844 338.9C665.643 338.816 665.462 338.694 665.313 338.54C665.158 338.385 665.041 338.202 664.963 338C664.879 337.799 664.84 337.583 664.847 337.367L661.344 266.44Z" fill="white"/>
<path d="M676.411 358.902L657.685 357.562C657.458 357.541 657.238 357.474 657.044 357.366C656.843 357.258 656.669 357.111 656.526 356.933C656.39 356.757 656.286 356.553 656.228 356.334C656.163 356.117 656.151 355.889 656.183 355.665L660.715 314.95L660.767 286.713L644.333 282.62L654.35 252H654.402C656.086 247.358 658.935 245.13 664.18 243.667L681.662 240.3L683.65 285.871L678.263 357.335C678.25 357.561 678.191 357.783 678.088 357.986C677.984 358.188 677.842 358.368 677.673 358.515C677.499 358.662 677.298 358.772 677.078 358.838C676.864 358.904 676.637 358.926 676.411 358.902Z" fill="#0D5FAA"/>
<path d="M683.462 209.758C683.462 209.758 704.286 196.691 705.102 212.665L705.413 216.796L706.837 237.723C706.85 238.3 706.649 238.86 706.28 239.303L691.822 251.418C691.647 251.535 691.44 251.593 691.226 251.584C691.019 251.575 690.812 251.498 690.65 251.366L684.129 241.006C683.832 240.753 683.598 240.429 683.456 240.064C683.314 239.699 683.262 239.303 683.314 238.915L684.609 225.395C684.33 224.191 684.188 222.959 684.201 221.724C684.026 215.436 683.462 209.758 683.462 209.758Z" fill="#FC9D9D"/>
<path d="M691.647 252.558L688.312 243.655L683.617 236.234L681.073 239.97L687.749 253.115L691.647 252.558Z" fill="white"/>
<path opacity="0.2" d="M691.09 251.444L688.195 246.71C688.195 246.71 687.198 245.882 685.819 249.915L680.723 240.028L681.073 239.97L685.482 248.821C685.482 248.821 687.748 244.768 688.513 246.309L691.09 251.444Z" fill="black"/>
<path d="M682.186 238.085L681.63 246.432L683.3 285.955L677.175 241.427L682.186 238.085Z" fill="#0D5FAA"/>
<path opacity="0.2" d="M677.784 241.284L676.087 252.331L680.911 252.544L675.731 256.216C675.731 256.216 677.732 275.382 683.307 285.884C683.307 285.884 677.732 270.927 676.832 256.818L681.876 252.395L676.482 252.162L678.425 240.902L677.784 241.284Z" fill="black"/>
<path d="M681.118 198.498C681.118 198.498 673.717 229.526 689.639 231.617C703.418 233.456 704.953 211.966 704.953 211.966L704.305 196.315L681.118 198.498Z" fill="#FC9D9D"/>
<path d="M709.828 200.978C709.317 196.944 707.238 193.939 703.683 193.169C702.194 192.877 700.66 192.944 699.203 193.363C699.073 193.406 698.931 193.422 698.795 193.41C698.659 193.397 698.523 193.357 698.4 193.29C698.277 193.224 698.173 193.134 698.089 193.025C698.005 192.916 697.94 192.791 697.908 192.657C697.577 191.327 696.813 190.146 695.732 189.299C694.657 188.452 693.323 187.989 691.957 187.982C690.992 187.972 690.047 188.194 689.186 188.629C688.331 189.064 687.587 189.699 687.03 190.482C686.952 190.599 686.848 190.698 686.725 190.772C686.609 190.846 686.473 190.894 686.337 190.913C686.194 190.931 686.052 190.919 685.916 190.879C685.78 190.838 685.657 190.768 685.553 190.676C685.553 190.676 681.461 187.438 676.08 190.741C674.267 191.92 672.953 193.732 672.396 195.824C671.839 197.917 672.085 200.141 673.076 202.065C675.252 206.358 680.885 207.634 684.343 204.37C685.793 202.926 686.641 200.98 686.706 198.931C686.874 197.511 686.745 196.071 686.324 194.703H688.117C690.228 194.58 693.556 194.192 696.697 194.645C696.632 194.703 696.567 194.703 696.503 194.768L702.071 196.626C702.071 196.626 703.8 211.351 704.661 211.221C708.611 210.405 710.34 204.629 709.828 200.978Z" fill="black"/>
<path opacity="0.2" d="M705.49 217.85C704.778 217.91 704.066 217.749 703.451 217.391L705.697 220.861L705.49 217.85Z" fill="black"/>
<path d="M704.642 209.569C704.778 209.174 704.998 208.814 705.283 208.513C705.574 208.213 705.924 207.979 706.319 207.828C706.707 207.678 707.122 207.614 707.536 207.642C707.957 207.67 708.358 207.789 708.727 207.989C712.198 209.518 711.486 217.378 705.613 217.838C702.55 218.09 703.165 216.303 703.67 213.908L704.642 209.569Z" fill="#FC9D9D"/>
<path opacity="0.2" d="M708.883 210.029C708.65 209.844 708.378 209.709 708.087 209.63C707.802 209.551 707.498 209.53 707.2 209.57C706.921 209.646 706.662 209.781 706.436 209.967C706.215 210.152 706.034 210.383 705.905 210.645C705.523 211.293 705.328 212.035 705.341 212.788L705.29 213.435C705.29 213.482 705.296 213.529 705.315 213.573C705.335 213.616 705.361 213.655 705.393 213.688C705.426 213.722 705.464 213.748 705.51 213.765C705.555 213.784 705.6 213.792 705.646 213.791C705.691 213.793 705.743 213.785 705.782 213.767C705.827 213.751 705.866 213.724 705.905 213.691C705.937 213.657 705.963 213.617 705.976 213.573C705.995 213.529 706.002 213.482 706.002 213.435L706.054 212.788C706.08 212.165 706.235 211.556 706.513 211C706.708 210.654 707.012 210.384 707.381 210.236C707.782 210.201 708.177 210.308 708.508 210.541C708.592 210.589 708.689 210.606 708.78 210.587C708.877 210.567 708.954 210.514 709.013 210.437C709.084 210.404 709.013 210.184 708.883 210.029Z" fill="black"/>
<path opacity="0.2" d="M683.618 234.117L684.129 229.118C685.424 230.498 689.309 232.485 693.622 231.462C695.797 230.926 697.746 229.711 699.184 227.992C699.209 227.958 699.242 227.93 699.281 227.91C699.32 227.889 699.365 227.877 699.404 227.873C699.449 227.869 699.488 227.873 699.533 227.886C699.572 227.898 699.611 227.919 699.643 227.946C699.676 227.972 699.708 228.004 699.728 228.041C699.753 228.078 699.766 228.119 699.766 228.161C699.773 228.204 699.773 228.248 699.76 228.288C699.747 228.329 699.721 228.367 699.695 228.4C695.007 231.826 689.419 233.812 683.618 234.117Z" fill="black"/>
<path opacity="0.2" d="M691.089 251.444C691.089 251.444 689.328 310.814 689.095 340.152" stroke="black" stroke-width="0.86" stroke-miterlimit="10"/>
<path d="M691.99 215.094C692.696 215.094 693.266 214.523 693.266 213.818C693.266 213.114 692.696 212.542 691.99 212.542C691.284 212.542 690.714 213.114 690.714 213.818C690.714 214.523 691.284 215.094 691.99 215.094Z" fill="black"/>
<path d="M691.433 214.233C691.575 214.233 691.685 214.119 691.685 213.98C691.685 213.84 691.575 213.728 691.433 213.728C691.297 213.728 691.18 213.84 691.18 213.98C691.18 214.119 691.297 214.233 691.433 214.233Z" fill="white"/>
<path d="M681.889 215.145C682.595 215.145 683.164 214.574 683.164 213.87C683.164 213.165 682.595 212.594 681.889 212.594C681.183 212.594 680.613 213.165 680.613 213.87C680.613 214.574 681.183 215.145 681.889 215.145Z" fill="black"/>
<path d="M681.325 214.284C681.468 214.284 681.578 214.171 681.578 214.032C681.578 213.893 681.468 213.779 681.325 213.779C681.189 213.779 681.073 213.893 681.073 214.032C681.073 214.171 681.189 214.284 681.325 214.284Z" fill="white"/>
<path opacity="0.2" d="M686.835 220.338L688.519 220.441C688.616 220.436 688.713 220.398 688.784 220.334C688.856 220.269 688.907 220.182 688.927 220.085C688.92 219.987 688.888 219.893 688.823 219.819C688.759 219.745 688.668 219.695 688.571 219.677L686.887 219.574C686.686 219.558 686.499 219.463 686.363 219.311C686.227 219.159 686.162 218.961 686.169 218.758C686.188 218.557 686.279 218.37 686.434 218.236C686.583 218.103 686.784 218.032 686.984 218.039C687.081 218.036 687.179 217.999 687.25 217.934C687.328 217.87 687.373 217.781 687.392 217.683C687.444 217.482 687.243 217.327 687.036 217.275C686.641 217.256 686.253 217.388 685.948 217.644C685.644 217.899 685.45 218.261 685.404 218.654C685.379 219.066 685.515 219.471 685.78 219.785C686.045 220.099 686.428 220.297 686.835 220.338Z" fill="black"/>
<path d="M677.175 212.075V213.525C677.175 214.823 677.693 216.069 678.606 216.987C679.525 217.905 680.769 218.42 682.07 218.42C683.365 218.42 684.615 217.905 685.528 216.987C686.447 216.069 686.965 214.823 686.965 213.525V212.075C686.978 211.666 686.855 211.264 686.616 210.935H688.513C688.26 211.261 688.118 211.662 688.118 212.075V213.525C688.118 214.823 688.636 216.069 689.549 216.987C690.468 217.905 691.711 218.42 693.013 218.42C694.308 218.42 695.557 217.905 696.47 216.987C697.39 216.069 697.908 214.823 697.908 213.525V212.075C697.914 211.834 697.869 211.594 697.785 211.37C697.694 211.146 697.565 210.941 697.396 210.767C697.228 210.595 697.027 210.456 696.807 210.36C696.587 210.264 696.347 210.213 696.108 210.21H678.975C678.735 210.213 678.496 210.264 678.276 210.36C678.056 210.456 677.855 210.595 677.686 210.767C677.518 210.941 677.389 211.146 677.298 211.37C677.214 211.594 677.168 211.834 677.175 212.075ZM689.866 210.987H696.062C696.36 210.995 696.639 211.12 696.839 211.333C697.047 211.546 697.157 211.831 697.157 212.127V213.577C697.15 214.683 696.704 215.741 695.914 216.518C695.13 217.296 694.068 217.728 692.961 217.721C691.854 217.715 690.798 217.268 690.021 216.482C689.244 215.694 688.811 214.631 688.817 213.525V212.075C688.811 211.792 688.921 211.519 689.115 211.315C689.316 211.112 689.581 210.994 689.866 210.987ZM677.822 212.127C677.816 211.83 677.932 211.544 678.14 211.331C678.347 211.117 678.625 210.994 678.923 210.987H685.12C685.418 210.995 685.696 211.12 685.903 211.333C686.11 211.546 686.221 211.831 686.221 212.127V213.577C686.24 214.139 686.143 214.698 685.942 215.223C685.735 215.747 685.431 216.225 685.036 216.627C684.647 217.03 684.174 217.349 683.656 217.566C683.138 217.783 682.582 217.893 682.018 217.89C681.455 217.886 680.905 217.77 680.387 217.546C679.869 217.323 679.402 216.998 679.02 216.59C678.632 216.183 678.328 215.701 678.133 215.174C677.939 214.648 677.848 214.087 677.874 213.525L677.822 212.127Z" fill="black"/>
<path opacity="0.15" d="M653.237 302.104L658.248 288.183L659.919 266.472H661.033L660.476 293.751L655.38 307.53C654.59 309.585 653.25 311.38 651.495 312.71C650.329 313.489 649.002 313.998 647.616 314.199C646.231 314.401 644.817 314.291 643.478 313.876L642.959 313.643C647.498 314.763 651.566 307.109 653.237 302.104Z" fill="black"/>
<path opacity="0.15" d="M640.747 293.169L645.078 295.222C645.15 295.26 645.233 295.272 645.312 295.254C645.392 295.236 645.462 295.19 645.51 295.125C645.558 295.059 645.581 294.978 645.574 294.897C645.567 294.816 645.532 294.741 645.473 294.684L641.459 290.353L640.747 293.169Z" fill="black"/>
<path d="M664.173 316.77H690.073C690.384 316.775 690.682 316.67 690.915 316.474C691.154 316.278 691.316 316.004 691.368 315.701L694.8 283.909C694.813 283.737 694.78 283.564 694.722 283.403C694.657 283.241 694.567 283.095 694.444 282.973C694.321 282.85 694.172 282.756 694.01 282.694C693.848 282.632 693.68 282.605 693.505 282.614H660.722C660.547 282.605 660.379 282.632 660.217 282.694C660.055 282.756 659.906 282.85 659.783 282.973C659.666 283.095 659.569 283.241 659.504 283.403C659.446 283.564 659.42 283.737 659.427 283.909L662.865 315.701C662.917 316.007 663.079 316.282 663.318 316.478C663.564 316.674 663.862 316.778 664.173 316.77Z" fill="#1A2E35"/>
<path d="M664.173 316.77H690.073C690.384 316.775 690.682 316.67 690.915 316.474C691.154 316.278 691.316 316.004 691.368 315.701L694.8 283.909C694.813 283.737 694.78 283.564 694.722 283.403C694.657 283.241 694.567 283.095 694.444 282.973C694.321 282.85 694.172 282.756 694.01 282.694C693.848 282.632 693.68 282.605 693.505 282.614H660.722C660.547 282.605 660.379 282.632 660.217 282.694C660.055 282.756 659.906 282.85 659.783 282.973C659.666 283.095 659.569 283.241 659.504 283.403C659.446 283.564 659.42 283.737 659.427 283.909L662.865 315.701C662.917 316.007 663.079 316.282 663.318 316.478C663.564 316.674 663.862 316.778 664.173 316.77Z" fill="black"/>
<path d="M664.173 317.89H690.073C690.384 317.895 690.682 317.79 690.915 317.595C691.154 317.398 691.316 317.125 691.368 316.822L694.8 285.03C694.813 284.857 694.78 284.685 694.722 284.523C694.657 284.362 694.567 284.215 694.444 284.094C694.321 283.971 694.172 283.876 694.01 283.815C693.848 283.752 693.68 283.725 693.505 283.735H660.722C660.547 283.725 660.379 283.752 660.217 283.815C660.055 283.876 659.906 283.971 659.783 284.094C659.666 284.215 659.569 284.362 659.504 284.523C659.446 284.685 659.42 284.857 659.427 285.03L662.865 316.822C662.917 317.127 663.079 317.403 663.318 317.598C663.564 317.795 663.862 317.898 664.173 317.89Z" fill="#1A2E35"/>
<g opacity="0.5">
<path opacity="0.5" d="M663.895 288.753C663.856 289.08 663.921 289.411 664.076 289.701C664.232 289.992 664.471 290.228 664.763 290.379C665.06 290.53 665.391 290.588 665.714 290.547C666.045 290.505 666.349 290.365 666.595 290.145C666.841 289.925 667.009 289.636 667.087 289.317C667.165 288.996 667.145 288.66 667.029 288.352C666.912 288.045 666.699 287.781 666.433 287.594C666.161 287.408 665.837 287.309 665.507 287.309C665.099 287.288 664.704 287.428 664.406 287.698C664.102 287.969 663.921 288.348 663.895 288.753Z" fill="black"/>
</g>
<path d="M665.507 287.289C665.112 287.272 664.73 287.405 664.432 287.661C664.135 287.917 663.94 288.277 663.901 288.668C663.901 288.668 663.901 288.623 663.901 288.597C663.901 288.168 664.07 287.756 664.374 287.452C664.678 287.149 665.093 286.979 665.52 286.979C665.947 286.979 666.362 287.149 666.666 287.452C666.964 287.756 667.139 288.168 667.139 288.597C667.139 288.621 667.139 288.645 667.139 288.668C667.1 288.272 666.906 287.906 666.601 287.648C666.297 287.391 665.902 287.262 665.507 287.289Z" fill="black"/>
<path d="M664.51 288.753C664.49 288.955 664.529 289.159 664.626 289.338C664.717 289.517 664.866 289.663 665.047 289.755C665.228 289.849 665.436 289.884 665.636 289.858C665.837 289.833 666.025 289.746 666.18 289.61C666.329 289.475 666.433 289.296 666.485 289.099C666.53 288.901 666.517 288.694 666.446 288.504C666.375 288.315 666.245 288.152 666.077 288.036C665.908 287.921 665.708 287.86 665.507 287.86C665.254 287.847 665.015 287.934 664.827 288.101C664.639 288.269 664.523 288.503 664.51 288.753Z" fill="white"/>
<path opacity="0.2" d="M665.507 289.4C665.734 289.408 665.96 289.334 666.142 289.192C666.323 289.05 666.446 288.848 666.491 288.624C666.491 288.662 666.491 288.701 666.491 288.74C666.465 288.985 666.349 289.211 666.161 289.375C665.98 289.539 665.74 289.63 665.494 289.63C665.248 289.63 665.009 289.539 664.827 289.375C664.64 289.211 664.523 288.985 664.497 288.74C664.491 288.701 664.491 288.662 664.497 288.624C664.542 288.853 664.672 289.058 664.86 289.2C665.041 289.344 665.274 289.414 665.507 289.4Z" fill="black"/>
<path d="M693.259 293.712C693.965 295.779 694.302 297.952 694.263 300.136H695.059L696.555 303.554C696.917 304.385 697.015 305.308 696.827 306.196C696.633 307.083 696.173 307.889 695.506 308.501L694.625 309.311C692.896 310.889 690.65 311.784 688.306 311.829C686.227 311.875 683.987 311.998 683.689 312.043C682.245 312.282 680.775 312.384 679.312 312.347C678.399 312.244 668.699 313.196 667.534 313.189C666.368 313.183 665.766 311.622 666.776 311.137C667.372 310.852 676.91 309.712 680.018 309.246C680.665 309.149 680.018 308.449 680.018 308.449C680.018 308.449 669.716 308.449 668.596 308.165C667.476 307.88 667.346 306.08 669.412 305.633C671.069 305.283 682.465 305.503 683.009 304.144C683.553 302.784 677.648 301.456 676.372 300.764C675.097 300.071 673.698 299.747 674.494 298.174C674.987 297.189 683.689 299.682 685.204 299.838C686.719 299.993 688.927 298.484 690.054 297.196C690.663 296.497 690.824 294.807 690.844 293.408C690.844 292.288 691.284 290.585 692.139 289.801C692.191 289.752 692.255 289.717 692.327 289.698C692.398 289.68 692.469 289.68 692.54 289.697C692.612 289.715 692.676 289.749 692.728 289.798C692.78 289.847 692.819 289.908 692.845 289.976L693.259 293.712Z" fill="#FC9D9D"/>
<path opacity="0.15" d="M693.641 309.116C693.524 309.213 691.096 311.622 683.973 310.825L669.728 312.412C668.725 312.615 667.695 312.646 666.679 312.502C666.692 312.604 666.724 312.702 666.769 312.792C666.821 312.882 666.886 312.961 666.97 313.025C667.048 313.088 667.138 313.135 667.236 313.164C667.339 313.192 667.436 313.2 667.54 313.189C668.705 313.189 678.405 312.243 679.318 312.347C680.781 312.365 682.245 312.263 683.695 312.042C683.993 312.01 686.233 311.874 688.312 311.829C690.656 311.784 692.902 310.889 694.631 309.31L693.641 309.116Z" fill="black"/>
<path d="M685.91 201.599C687.638 199.164 689.607 198.038 692.676 198.102C696.134 198.167 698.95 200.919 698.627 204.947L698.568 205.847C698.542 206.253 698.672 206.653 698.931 206.964C699.196 207.275 699.572 207.471 699.973 207.511C700.355 207.517 700.724 207.599 701.074 207.751C701.424 207.903 701.735 208.123 701.994 208.396C702.259 208.67 702.466 208.993 702.602 209.347C702.738 209.7 702.803 210.078 702.79 210.457L702.725 213.047C702.725 213.2 702.784 213.346 702.894 213.454C703.004 213.562 703.146 213.623 703.302 213.623C703.302 213.623 704.072 213.753 704.195 213.111L704.584 210.295L701.89 194.451L688.707 190.98L683.203 195.655L685.91 201.599Z" fill="black"/>
<path d="M691.815 222.863C692.002 222.863 692.067 222.992 692.035 223.154C691.873 223.776 691.53 224.333 691.051 224.754C690.565 225.174 689.963 225.437 689.328 225.508C688.687 225.578 688.046 225.452 687.483 225.148C686.92 224.843 686.46 224.373 686.168 223.802C686.155 223.769 686.143 223.734 686.143 223.698C686.143 223.662 686.155 223.627 686.168 223.594C686.181 223.562 686.207 223.534 686.233 223.512C686.266 223.489 686.298 223.473 686.33 223.465L691.815 222.863Z" fill="white"/>
<path d="M706.675 234.745L696.658 243.097L690.533 252L694.431 254.785L708.345 239.756L706.675 234.745Z" fill="white"/>
<path opacity="0.2" d="M707.232 239.756L699.332 248.718L696.969 245.72C696.885 245.613 696.762 245.542 696.632 245.524C696.496 245.506 696.36 245.542 696.25 245.623C695.046 246.531 693.971 247.606 693.065 248.815L691.122 251.444C691.122 251.444 696.134 244.768 697.247 246.989L699.475 250.33L708.067 239.912L707.232 239.756Z" fill="black"/>
<path d="M706.662 359.498L727.441 358.035C727.667 358.02 727.887 357.959 728.088 357.856C728.289 357.754 728.47 357.611 728.613 357.437C728.755 357.264 728.865 357.063 728.93 356.846C728.995 356.629 729.014 356.401 728.988 356.177L725.608 316.595L726.553 283.735L728.023 290.572L747.727 288.571L741.193 257.025C738.409 246.445 729.81 243.997 729.81 243.997L707.795 239.212L702.233 284.861L703.347 314.407L704.888 357.906C704.901 358.128 704.953 358.346 705.044 358.547C705.141 358.748 705.277 358.928 705.438 359.076C705.607 359.225 705.801 359.339 706.008 359.411C706.222 359.484 706.442 359.513 706.662 359.498Z" fill="#0D5FAA"/>
<path d="M725.051 277.61L729.959 299.625L693.874 299.89L692.178 311.008L732.472 318.823C739.27 320.118 753.399 320.26 750.874 301.988L744.509 273.135L725.051 277.61Z" fill="#0D5FAA"/>
<path opacity="0.15" d="M751.171 304.979C751.372 319.775 738.817 320.053 732.497 318.823C732.012 318.538 692.21 311.014 692.21 311.014L692.262 309.583L731.584 315.54C752.447 318.318 750.899 305.808 751.171 304.979Z" fill="black"/>
<path opacity="0.15" d="M729.959 299.612H734.751C734.828 299.612 734.906 299.584 734.964 299.535C735.023 299.486 735.068 299.417 735.081 299.341C735.094 299.265 735.087 299.186 735.049 299.116C735.01 299.048 734.951 298.994 734.88 298.964L729.396 296.769L729.959 299.612Z" fill="black"/>
<path opacity="0.2" d="M725.763 299.572L726.553 284.272L726.158 267.586L725.33 267.34L723.251 282.692L722.248 298.018L702.855 298.744L702.907 300.129L725.763 299.572Z" fill="black"/>
<path d="M707.691 237.225L702.227 284.848L712.574 240.359L707.691 237.225Z" fill="#0D5FAA"/>
<path opacity="0.2" d="M712.574 240.358L713.176 252.557H708.365L713.376 256.442C713.376 256.442 707.873 277.006 702.278 285.65C702.278 285.65 711.149 264.238 712.263 256.999L707.42 252.356H712.82L711.958 239.937L712.574 240.358Z" fill="black"/>
<path opacity="0.15" d="M721.121 316.53L725.653 317.456L728.968 356.073C728.994 356.306 728.975 356.542 728.904 356.765C728.832 356.989 728.716 357.195 728.56 357.371C728.405 357.546 728.217 357.687 728.004 357.783C727.79 357.88 727.557 357.931 727.324 357.931H723.898L721.121 316.53Z" fill="black"/>
<path d="M304.175 457.601L337.347 434.543C339.386 433.164 341.06 431.311 342.223 429.142C343.387 426.972 344.007 424.553 344.029 422.092V377.02L296.03 376.987L295.959 378.172V376.987L247.959 377.02V422.092C247.982 424.553 248.602 426.972 249.766 429.141C250.93 431.31 252.603 433.164 254.642 434.543L287.833 457.601C288.505 458.057 289.058 458.669 289.442 459.385C289.827 460.101 290.032 460.899 290.04 461.713C290.035 462.527 289.831 463.328 289.447 464.045C289.062 464.762 288.508 465.376 287.833 465.83L254.661 488.888C252.625 490.269 250.954 492.123 249.792 494.292C248.63 496.461 248.013 498.879 247.992 501.34V546.412H295.991V545.227L296.062 546.412H344.061V501.346C344.036 498.882 343.411 496.46 342.241 494.291C341.072 492.122 339.392 490.27 337.347 488.894L304.156 465.837C303.483 465.38 302.93 464.767 302.545 464.05C302.16 463.333 301.956 462.532 301.948 461.719C301.958 460.903 302.166 460.102 302.553 459.385C302.942 458.668 303.498 458.055 304.175 457.601Z" fill="#0D5FAA"/>
<path opacity="0.8" d="M304.175 457.601L337.347 434.543C339.386 433.164 341.06 431.311 342.223 429.142C343.387 426.972 344.007 424.553 344.029 422.092V377.02L296.03 376.987L295.959 378.172V376.987L247.959 377.02V422.092C247.982 424.553 248.602 426.972 249.766 429.141C250.93 431.31 252.603 433.164 254.642 434.543L287.833 457.601C288.505 458.057 289.058 458.669 289.442 459.385C289.827 460.101 290.032 460.899 290.04 461.713C290.035 462.527 289.831 463.328 289.447 464.045C289.062 464.762 288.508 465.376 287.833 465.83L254.661 488.888C252.625 490.269 250.954 492.123 249.792 494.292C248.63 496.461 248.013 498.879 247.992 501.34V546.412H295.991V545.227L296.062 546.412H344.061V501.346C344.036 498.882 343.411 496.46 342.241 494.291C341.072 492.122 339.392 490.27 337.347 488.894L304.156 465.837C303.483 465.38 302.93 464.767 302.545 464.05C302.16 463.333 301.956 462.532 301.948 461.719C301.958 460.903 302.166 460.102 302.553 459.385C302.942 458.668 303.498 458.055 304.175 457.601Z" fill="white"/>
<path d="M257.705 410.094C257.705 410.094 290.812 412.166 327.35 399.087C327.318 399.061 302.506 425.271 257.705 410.094Z" fill="#0D5FAA"/>
<path d="M331.163 398.367C322.364 398.367 314.244 408.98 295.972 412.696C286.414 414.93 274.494 412.554 260.009 410.106C256.532 409.511 253.301 411.848 253.301 414.95V423.807C253.336 425.639 253.819 427.433 254.708 429.035C255.596 430.637 256.863 431.996 258.397 432.995C282.018 449.254 283.727 449.597 291.633 455.308C292.252 455.741 292.758 456.316 293.11 456.983C293.462 457.651 293.651 458.393 293.66 459.148V520.311C293.707 521.458 293.516 522.604 293.101 523.672C292.685 524.74 292.053 525.712 291.245 526.527C289.869 528.004 288.196 529.169 286.337 529.953C282.704 531.52 275.918 534.55 273.704 536.162C268.705 539.808 268 540.921 268 540.921H324.079L323.944 540.811L323.62 540.552C318.703 536.758 313.114 533.922 307.147 532.2C305.024 531.552 302.667 530.497 301.126 528.768C298.885 526.249 298.62 525.097 298.62 521.865V459.588C298.627 458.838 298.81 458.1 299.155 457.434C299.501 456.768 299.998 456.193 300.608 455.755C308.507 449.928 299.876 456.7 333.63 433.093C335.145 432.088 336.393 430.731 337.266 429.137C338.139 427.543 338.611 425.761 338.642 423.943V405.69C338.642 402.161 337.029 398.361 331.163 398.367Z" fill="#0D5FAA"/>
<path opacity="0.3" d="M331.163 398.367C322.364 398.367 314.244 408.98 295.972 412.696C286.414 414.93 274.494 412.554 260.009 410.106C256.532 409.511 253.301 411.848 253.301 414.95V423.807C253.336 425.639 253.819 427.433 254.708 429.035C255.596 430.637 256.863 431.996 258.397 432.995C282.018 449.254 283.727 449.597 291.633 455.308C292.252 455.741 292.758 456.316 293.11 456.983C293.462 457.651 293.651 458.393 293.66 459.148V520.311C293.707 521.458 293.516 522.604 293.101 523.672C292.685 524.74 292.053 525.712 291.245 526.527C289.869 528.004 288.196 529.169 286.337 529.953C282.704 531.52 275.918 534.55 273.704 536.162C268.705 539.808 268 540.921 268 540.921H324.079L323.944 540.811L323.62 540.552C318.703 536.758 313.114 533.922 307.147 532.2C305.024 531.552 302.667 530.497 301.126 528.768C298.885 526.249 298.62 525.097 298.62 521.865V459.588C298.627 458.838 298.81 458.1 299.155 457.434C299.501 456.768 299.998 456.193 300.608 455.755C308.507 449.928 299.876 456.7 333.63 433.093C335.145 432.088 336.393 430.731 337.266 429.137C338.139 427.543 338.611 425.761 338.642 423.943V405.69C338.642 402.161 337.029 398.361 331.163 398.367Z" fill="white"/>
<path opacity="0.1" d="M304.176 457.601L337.348 434.543C339.387 433.164 341.06 431.311 342.224 429.142C343.388 426.973 344.008 424.554 344.03 422.092V377.02H328.166V422.092C328.166 426.625 326.036 433.32 322.377 436.596L319.768 438.972L300.732 457.575C300.05 458.025 299.492 458.636 299.104 459.355C298.718 460.074 298.515 460.877 298.515 461.693C298.515 462.51 298.718 463.313 299.104 464.032C299.492 464.751 300.05 465.362 300.732 465.811L319.651 484.297L322.52 486.926C326.101 490.241 328.186 496.814 328.186 501.32V546.386H344.049V501.32C344.021 498.862 343.397 496.446 342.229 494.282C341.062 492.118 339.387 490.269 337.348 488.895L304.157 465.837C303.478 465.386 302.922 464.773 302.537 464.055C302.153 463.336 301.951 462.534 301.951 461.719C301.951 460.904 302.153 460.102 302.537 459.383C302.922 458.665 303.478 458.053 304.157 457.601H304.176Z" fill="black"/>
<path opacity="0.5" d="M280.53 480.931C280.465 481.034 280.393 481.133 280.316 481.229L272.177 487.704C269.612 490.979 268.157 494.987 268.02 499.145V537.263C267.983 537.963 267.67 538.623 267.149 539.089C266.629 539.562 265.943 539.802 265.242 539.769H257.706C257.005 539.802 256.319 539.562 255.799 539.089C255.277 538.623 254.965 537.963 254.928 537.263V499.151C254.928 494.975 257.136 491.025 260.924 488.383C261.37 488.073 261.817 487.736 262.219 487.425L276.651 477.305C277.244 476.898 277.965 476.719 278.679 476.802C279.394 476.885 280.053 477.225 280.536 477.758C280.863 478.126 281.062 478.591 281.104 479.082C281.146 479.573 281.028 480.064 280.769 480.484L280.53 480.931Z" fill="white"/>
<path opacity="0.5" d="M272.798 436.039C270.245 432.321 268.826 427.942 268.712 423.432V380.697C268.712 380.394 268.653 380.093 268.536 379.813C268.42 379.532 268.25 379.277 268.035 379.062C267.821 378.848 267.566 378.678 267.285 378.561C267.005 378.445 266.705 378.386 266.401 378.386H257.919C257.614 378.384 257.313 378.444 257.032 378.56C256.751 378.675 256.495 378.845 256.28 379.06C256.065 379.275 255.894 379.53 255.777 379.811C255.661 380.092 255.601 380.393 255.601 380.697V423.432C255.626 425.881 256.243 428.287 257.398 430.446C258.554 432.605 260.214 434.453 262.237 435.832L262.393 435.936L276.845 444.845C277.287 445.118 277.808 445.234 278.324 445.174C278.84 445.115 279.32 444.882 279.688 444.515C280.09 444.114 280.332 443.579 280.366 443.011C280.399 442.444 280.222 441.884 279.869 441.439L272.798 436.039Z" fill="white"/>
<path d="M353.956 363.881H238.073V371.47H353.956V363.881Z" fill="#3F4249"/>
<path opacity="0.4" d="M353.957 363.881H331.669V371.47H353.957V363.881Z" fill="black"/>
<path d="M349.818 371.464H242.21V376.981H349.818V371.464Z" fill="#3F4249"/>
<path opacity="0.4" d="M349.819 371.464H329.125V376.981H349.819V371.464Z" fill="black"/>
<path opacity="0.4" d="M329.124 371.464H242.21V372.792H329.124V371.464Z" fill="black"/>
<path d="M353.956 545.978H238.073V553.567H353.956V545.978Z" fill="#3F4249"/>
<path opacity="0.4" d="M353.957 545.978H331.669V553.567H353.957V545.978Z" fill="black"/>
<path d="M349.818 540.462H242.21V545.979H349.818V540.462Z" fill="#3F4249"/>
<path opacity="0.4" d="M349.819 540.462H329.125V545.979H349.819V540.462Z" fill="black"/>
<path opacity="0.4" d="M329.124 544.657H242.21V545.985H329.124V544.657Z" fill="black"/>
<path d="M836.842 416.115C829.72 419.812 824.222 426.184 820.279 433.196C816.336 440.209 813.804 447.907 811.292 455.548L809.09 494.955C817.404 480.82 824.073 464.198 825.873 447.894L820.344 447.402C824.054 446.839 827.162 444.165 829.143 440.966C831.125 437.767 832.148 434.103 833.138 430.49L826.392 431.493C831.72 427.899 835.463 422.393 836.842 416.115Z" fill="#0D5FAA"/>
<g opacity="0.3">
<path opacity="0.3" d="M836.842 416.115C829.72 419.812 824.222 426.184 820.279 433.196C816.336 440.209 813.804 447.907 811.292 455.548L809.09 494.955C817.404 480.82 824.073 464.198 825.873 447.894L820.344 447.402C824.054 446.839 827.162 444.165 829.143 440.966C831.125 437.767 832.148 434.103 833.138 430.49L826.392 431.493C831.72 427.899 835.463 422.393 836.842 416.115Z" fill="black"/>
</g>
<path d="M807.86 504.189C807.86 504.189 789.82 482.601 790.028 461.985H797.318C797.318 461.985 789.4 456.805 790.028 453.865C790.656 450.925 790.863 439.918 790.863 439.918L797.526 441.562C797.526 441.562 792.527 439.07 791.905 435.087C791.284 431.105 793.362 412.807 793.362 412.807C793.362 412.807 801.482 421.341 803.981 430.089C806.481 438.837 813.046 449.035 811.104 475.686C809.161 502.337 807.86 504.189 807.86 504.189Z" fill="#0D5FAA"/>
<path d="M817.009 506.229C817.009 506.229 836.55 493.208 840.889 476.593L835.061 475C835.061 475 842.559 472.546 842.695 470.066C842.831 467.586 845.078 458.67 845.078 458.67L839.354 458.547C839.354 458.547 843.886 457.634 845.285 454.591C846.684 451.548 848.989 436.364 848.989 436.364C848.989 436.364 840.571 441.447 836.686 447.935C832.801 454.422 825.258 461.182 820.978 483.029C816.698 504.876 817.009 506.229 817.009 506.229Z" fill="#0D5FAA"/>
<path d="M805.361 517.411C805.361 517.411 788.849 498.685 783.728 487.36L787.613 485.709C784.809 486.169 781.934 484.965 779.758 483.119C777.583 481.274 775.99 478.885 774.423 476.508L779.519 475.647C774.837 474.309 770.849 471.221 768.382 467.022C774.397 468.007 779.843 471.315 784.323 475.44C787.885 478.865 791.116 482.612 793.984 486.635C795.428 488.567 796.684 490.634 797.733 492.806C800.491 498.543 805.367 510.534 805.361 517.411Z" fill="#0D5FAA"/>
<path d="M840.831 447.998C840.831 447.998 820.681 486.388 812.27 521.502" stroke="#3F4249" stroke-width="0.95" stroke-miterlimit="10" stroke-linecap="round"/>
<path d="M798.517 432.562C804.085 461.889 807.472 491.59 808.637 521.419" stroke="#3F4249" stroke-width="0.95" stroke-miterlimit="10" stroke-linecap="round"/>
<path d="M796.626 498.989C796.626 498.989 802.797 507.005 806.721 521.321" stroke="#3F4249" stroke-width="0.95" stroke-miterlimit="10" stroke-linecap="round"/>
<path d="M820.57 553.308H798.737L794.67 523.355H824.63L820.57 553.308Z" fill="#3F4249"/>
<path d="M827.168 527.919H792.132L791.627 521.321H827.673L827.168 527.919Z" fill="#3F4249"/>
<path opacity="0.2" d="M795.292 527.92H824.009L820.57 553.308L817.119 553.075L819.042 529.953L795.512 529.558L795.292 527.92Z" fill="black"/>
<path opacity="0.2" d="M819.671 521.367L818.647 527.919H827.169L827.674 521.321L819.671 521.367Z" fill="black"/>
<g opacity="0.2">
<path opacity="0.2" d="M822.597 535.463H796.626V535.968H822.597V535.463Z" fill="white"/>
</g>
<g opacity="0.2">
<path opacity="0.2" d="M822.597 537.49H796.626V537.995H822.597V537.49Z" fill="white"/>
</g>
</g>
<defs>
<clipPath id="clip0_2307_1079">
<rect width="825" height="556" fill="white"/>
</clipPath>
</defs>
</svg>
