<svg width="498" height="351" viewBox="0 0 498 351" fill="none" xmlns="http://www.w3.org/2000/svg">
<g clip-path="url(#clip0_2834_6448)">
<path d="M64.5779 349.444L0.314196 183.007C-0.158499 177.17 1.4665 171.355 4.89804 166.608L108.519 -7.82798C111.015 -11.2775 114.364 -14.0203 118.239 -15.7874C122.114 -17.5545 126.382 -18.285 130.624 -17.9081L390.026 6.06181C398.952 6.85481 405.274 12.7655 410.238 20.3685C410.271 20.4217 497.233 142.364 497.233 142.364C498.312 146.523 498.284 150.892 497.147 155.036L444.488 350.273L64.5779 349.444Z" fill="#F1F4F6"/>
<path d="M480.655 350.699H30.2003C30.0343 350.686 29.8789 350.609 29.7661 350.486C29.6528 350.364 29.5898 350.204 29.5898 350.037C29.5898 349.873 29.6528 349.71 29.7661 349.587C29.8789 349.468 30.0343 349.391 30.2003 349.378H480.655C480.823 349.391 480.978 349.468 481.089 349.587C481.203 349.71 481.265 349.873 481.265 350.037C481.265 350.204 481.203 350.364 481.089 350.486C480.978 350.609 480.823 350.686 480.655 350.699Z" fill="#B2B6BB"/>
<path d="M145.9 143.546C149.21 119.638 132.506 97.5751 108.59 94.2661C84.6744 90.9572 62.6037 107.656 59.2936 131.563C55.9835 155.47 72.6877 177.534 96.6034 180.843C120.519 184.152 142.59 167.453 145.9 143.546Z" fill="#B2B6BB"/>
<path opacity="0.2" d="M102.598 179.26C125.637 179.26 144.315 160.589 144.315 137.558C144.315 114.526 125.637 95.8555 102.598 95.8555C79.5586 95.8555 60.8813 114.526 60.8813 137.558C60.8813 160.589 79.5586 179.26 102.598 179.26Z" fill="black"/>
<path d="M141.624 139.504C142.798 117.961 126.28 99.5448 104.73 98.3704C83.1787 97.1965 64.7558 113.708 63.5814 135.252C62.4066 156.795 78.9248 175.211 100.475 176.386C122.026 177.56 140.449 161.048 141.624 139.504Z" fill="white"/>
<path opacity="0.05" d="M140.785 129.071C122.989 139.85 93.7609 157.529 77.4046 167.225C72.7791 163.325 69.1206 158.407 66.7158 152.857L120.781 102.779C125.832 105.438 130.24 109.169 133.696 113.711C137.152 118.253 139.571 123.495 140.785 129.071Z" fill="black"/>
<path opacity="0.05" d="M141.643 138.726C141.501 143.072 140.627 147.362 139.059 151.418L90.3171 174.464C88.1933 173.762 86.1344 172.877 84.1631 171.82C98.8837 163.313 125.79 147.837 141.643 138.726Z" fill="black"/>
<path d="M102.974 101.137H102.217V107.06H102.974V101.137Z" fill="#B2B6BB"/>
<path d="M84.8089 105.793L84.1538 106.171L87.1164 111.3L87.7715 110.922L84.8089 105.793Z" fill="#B2B6BB"/>
<path d="M71.3958 118.908L71.0176 119.563L76.1485 122.525L76.5268 121.87L71.3958 118.908Z" fill="#B2B6BB"/>
<path d="M72.2771 136.993H66.3521V137.749H72.2771V136.993Z" fill="#B2B6BB"/>
<path d="M76.146 152.205L71.0146 155.167L71.3929 155.822L76.5242 152.86L76.146 152.205Z" fill="#B2B6BB"/>
<path d="M87.1086 163.439L84.1489 168.57L84.8044 168.948L87.764 163.817L87.1086 163.439Z" fill="#B2B6BB"/>
<path d="M102.974 167.679H102.217V173.602H102.974V167.679Z" fill="#B2B6BB"/>
<path d="M118.087 163.42L117.432 163.798L120.394 168.927L121.049 168.549L118.087 163.42Z" fill="#B2B6BB"/>
<path d="M129.04 152.178L128.662 152.833L133.793 155.795L134.172 155.14L129.04 152.178Z" fill="#B2B6BB"/>
<path d="M138.843 136.993H132.917V137.749H138.843V136.993Z" fill="#B2B6BB"/>
<path d="M133.793 118.943L128.662 121.905L129.04 122.56L134.172 119.598L133.793 118.943Z" fill="#B2B6BB"/>
<path d="M120.397 105.82L117.437 110.951L118.092 111.329L121.052 106.198L120.397 105.82Z" fill="#B2B6BB"/>
<path d="M138.545 137.36L100.639 138.93L100.688 135.227L138.557 136.355L138.545 137.36Z" fill="#61656D"/>
<path d="M103.112 110.722L104.494 139.561L100.79 139.511L102.106 110.71L103.112 110.722Z" fill="#61656D"/>
<path d="M102.598 138.632C103.296 138.632 103.861 138.066 103.861 137.369C103.861 136.671 103.296 136.106 102.598 136.106C101.9 136.106 101.334 136.671 101.334 137.369C101.334 138.066 101.9 138.632 102.598 138.632Z" fill="#B2B6BB"/>
<path opacity="0.08" d="M406.202 70.0706H125.341V273.622H406.202V70.0706Z" fill="black"/>
<path d="M395.505 79.0669H114.644V282.619H395.505V79.0669Z" fill="white"/>
<path d="M395.505 94.6042H114.644V95.9736H395.505V94.6042Z" fill="#0D5FAA"/>
<path opacity="0.5" d="M395.505 94.6042H114.754V95.9736H395.505V94.6042Z" fill="white"/>
<path d="M396.192 283.277H113.96V78.4175H396.192V283.277ZM115.33 281.969H394.822V79.7214H115.33V281.969Z" fill="#0D5FAA"/>
<path opacity="0.5" d="M396.192 283.277H113.96V78.4175H396.192V283.277ZM115.33 281.969H394.822V79.7214H115.33V281.969Z" fill="white"/>
<path d="M124.135 87.385C124.136 87.7614 124.025 88.1293 123.816 88.4424C123.608 88.7555 123.311 88.9996 122.964 89.1443C122.617 89.2886 122.234 89.327 121.865 89.2538C121.496 89.1811 121.157 89.0004 120.891 88.7347C120.624 88.469 120.443 88.1305 120.369 87.7614C120.295 87.3927 120.333 87.0105 120.476 86.6627C120.62 86.3152 120.864 86.018 121.177 85.8092C121.49 85.5999 121.857 85.4883 122.233 85.4883C122.737 85.4883 123.22 85.6882 123.577 86.0438C123.933 86.3994 124.134 86.8818 124.135 87.385Z" fill="#0D5FAA"/>
<path d="M130.644 87.385C130.645 87.7614 130.534 88.1293 130.326 88.4428C130.117 88.7559 129.82 89 129.472 89.1447C129.125 89.289 128.742 89.327 128.373 89.2538C128.004 89.1802 127.664 88.9992 127.398 88.7331C127.132 88.4674 126.951 88.1281 126.878 87.759C126.804 87.3899 126.842 87.0073 126.987 86.6598C127.131 86.3124 127.376 86.0156 127.689 85.8071C128.002 85.5987 128.371 85.4875 128.747 85.4883C129.25 85.4895 129.732 85.6898 130.087 86.045C130.443 86.4006 130.643 86.8826 130.644 87.385Z" fill="#0D5FAA"/>
<path d="M137.084 87.385C137.085 87.7614 136.974 88.1293 136.765 88.4424C136.557 88.7555 136.26 88.9996 135.913 89.1443C135.566 89.2886 135.183 89.327 134.814 89.2538C134.445 89.1811 134.106 89.0004 133.84 88.7347C133.573 88.469 133.392 88.1305 133.318 87.7614C133.244 87.3927 133.282 87.0105 133.426 86.6627C133.569 86.3152 133.813 86.018 134.126 85.8092C134.439 85.5999 134.806 85.4883 135.183 85.4883C135.686 85.4883 136.169 85.6882 136.526 86.0438C136.882 86.3994 137.083 86.8818 137.084 87.385Z" fill="#0D5FAA"/>
<path opacity="0.5" d="M124.135 87.385C124.136 87.7614 124.025 88.1293 123.816 88.4424C123.608 88.7555 123.311 88.9996 122.964 89.1443C122.617 89.2886 122.234 89.327 121.865 89.2538C121.496 89.1811 121.157 89.0004 120.891 88.7347C120.624 88.469 120.443 88.1305 120.369 87.7614C120.295 87.3927 120.333 87.0105 120.476 86.6627C120.62 86.3152 120.864 86.018 121.177 85.8092C121.49 85.5999 121.857 85.4883 122.233 85.4883C122.737 85.4883 123.22 85.6882 123.577 86.0438C123.933 86.3994 124.134 86.8818 124.135 87.385Z" fill="white"/>
<path opacity="0.5" d="M130.644 87.385C130.645 87.7614 130.534 88.1293 130.326 88.4428C130.117 88.7559 129.82 89 129.472 89.1447C129.125 89.289 128.742 89.327 128.373 89.2538C128.004 89.1802 127.664 88.9992 127.398 88.7331C127.132 88.4674 126.951 88.1281 126.878 87.759C126.804 87.3899 126.842 87.0073 126.987 86.6598C127.131 86.3124 127.376 86.0156 127.689 85.8071C128.002 85.5987 128.371 85.4875 128.747 85.4883C129.25 85.4895 129.732 85.6898 130.087 86.045C130.443 86.4006 130.643 86.8826 130.644 87.385Z" fill="white"/>
<path opacity="0.5" d="M137.084 87.385C137.085 87.7614 136.974 88.1293 136.765 88.4424C136.557 88.7555 136.26 88.9996 135.913 89.1443C135.566 89.2886 135.183 89.327 134.814 89.2538C134.445 89.1811 134.106 89.0004 133.84 88.7347C133.573 88.469 133.392 88.1305 133.318 87.7614C133.244 87.3927 133.282 87.0105 133.426 86.6627C133.569 86.3152 133.813 86.018 134.126 85.8092C134.439 85.5999 134.806 85.4883 135.183 85.4883C135.686 85.4883 136.169 85.6882 136.526 86.0438C136.882 86.3994 137.083 86.8818 137.084 87.385Z" fill="white"/>
<path d="M169.417 119.547H168.546V262.377H169.417V119.547Z" fill="#0D5FAA"/>
<path d="M134.818 119.547H133.947V262.377H134.818V119.547Z" fill="#0D5FAA"/>
<path d="M377.014 119.547H376.143V262.377H377.014V119.547Z" fill="#0D5FAA"/>
<path d="M376.577 119.109H134.382V119.98H376.577V119.109Z" fill="#0D5FAA"/>
<path d="M376.577 154.814H134.382V155.685H376.577V154.814Z" fill="#0D5FAA"/>
<path d="M376.577 190.525H134.382V191.396H376.577V190.525Z" fill="#0D5FAA"/>
<path d="M376.577 226.23H134.382V227.101H376.577V226.23Z" fill="#0D5FAA"/>
<path d="M376.577 261.939H134.382V262.81H376.577V261.939Z" fill="#0D5FAA"/>
<path d="M204.018 119.547H203.147V262.377H204.018V119.547Z" fill="#0D5FAA"/>
<path d="M238.617 119.547H237.746V262.377H238.617V119.547Z" fill="#0D5FAA"/>
<path d="M273.217 119.547H272.346V262.377H273.217V119.547Z" fill="#0D5FAA"/>
<path d="M307.814 119.547H306.943V262.377H307.814V119.547Z" fill="#0D5FAA"/>
<path d="M342.417 119.547H341.546V262.377H342.417V119.547Z" fill="#0D5FAA"/>
<path d="M169.417 119.547H168.546V262.377H169.417V119.547Z" fill="#0D5FAA"/>
<path d="M134.818 119.547H133.947V262.377H134.818V119.547Z" fill="#0D5FAA"/>
<path d="M377.014 119.547H376.143V262.377H377.014V119.547Z" fill="#0D5FAA"/>
<path d="M376.577 119.109H134.382V119.98H376.577V119.109Z" fill="#0D5FAA"/>
<path d="M376.577 154.814H134.382V155.685H376.577V154.814Z" fill="#0D5FAA"/>
<path d="M376.577 190.525H134.382V191.396H376.577V190.525Z" fill="#0D5FAA"/>
<path d="M376.577 226.23H134.382V227.101H376.577V226.23Z" fill="#0D5FAA"/>
<path d="M376.577 261.939H134.382V262.81H376.577V261.939Z" fill="#0D5FAA"/>
<path d="M204.018 119.547H203.147V262.377H204.018V119.547Z" fill="#0D5FAA"/>
<path d="M238.617 119.547H237.746V262.377H238.617V119.547Z" fill="#0D5FAA"/>
<path d="M273.217 119.547H272.346V262.377H273.217V119.547Z" fill="#0D5FAA"/>
<path d="M307.814 119.547H306.943V262.377H307.814V119.547Z" fill="#0D5FAA"/>
<path d="M342.417 119.547H341.546V262.377H342.417V119.547Z" fill="#0D5FAA"/>
<path opacity="0.5" d="M377.014 119.547H376.581V119.109H134.381V119.547H133.947V262.373H134.381V262.814H376.581V262.377H377.014V119.547ZM272.333 190.524H238.615V155.686H272.346L272.333 190.524ZM273.204 155.686H306.943V190.524H273.217L273.204 155.686ZM237.732 190.524H204.017V155.686H237.744L237.732 190.524ZM203.134 190.524H169.416V155.686H203.146L203.134 190.524ZM203.134 191.395V226.23H169.416V191.395H203.134ZM204.005 191.395H237.732V226.23H204.017L204.005 191.395ZM238.603 191.395H272.333V226.23H238.615L238.603 191.395ZM273.204 191.395H306.943V226.23H273.217L273.204 191.395ZM307.802 191.395H341.537V226.23H307.814L307.802 191.395ZM307.802 190.524V155.686H341.537V190.524H307.802ZM307.802 154.815V119.98H341.537V154.815H307.802ZM306.931 154.815H273.217V119.98H306.943L306.931 154.815ZM272.333 154.815H238.615V119.98H272.346L272.333 154.815ZM237.732 154.815H204.017V119.98H237.744L237.732 154.815ZM203.134 154.815H169.416V119.98H203.146L203.134 154.815ZM168.533 154.815H134.818V119.98H168.545L168.533 154.815ZM168.533 155.686V190.524H134.818V155.686H168.533ZM168.533 191.395V226.23H134.818V191.395H168.533ZM168.533 227.101V261.94H134.818V227.101H168.533ZM169.404 227.101H203.134V261.94H169.416L169.404 227.101ZM204.005 227.101H237.732V261.94H204.017L204.005 227.101ZM238.603 227.101H272.333V261.94H238.615L238.603 227.101ZM273.204 227.101H306.943V261.94H273.217L273.204 227.101ZM307.802 227.101H341.537V261.94H307.814L307.802 227.101ZM342.404 227.101H376.131V261.94H342.404V227.101ZM342.404 226.23V191.395H376.131V226.23H342.404ZM342.404 190.524V155.686H376.131V190.524H342.404ZM342.404 154.815V119.98H376.131V154.815H342.404Z" fill="white"/>
<path d="M300.598 104.741H209.555V109.094H300.598V104.741Z" fill="#0D5FAA"/>
<path opacity="0.5" d="M300.598 104.741H209.555V109.094H300.598V104.741Z" fill="white"/>
<path d="M179.611 149.587H197.112V126.075H175.33V145.222C175.33 145.222 176.639 148.721 179.611 149.587Z" fill="#0D5FAA"/>
<path d="M192.696 131.193H179.079C179.022 131.193 178.966 131.17 178.925 131.129C178.883 131.089 178.86 131.034 178.858 130.976C178.858 130.947 178.864 130.918 178.875 130.892C178.887 130.865 178.903 130.842 178.923 130.821C178.944 130.801 178.968 130.785 178.995 130.774C179.022 130.764 179.051 130.759 179.079 130.759H192.696C192.753 130.759 192.809 130.782 192.849 130.823C192.89 130.863 192.913 130.918 192.913 130.976C192.913 131.033 192.89 131.088 192.849 131.129C192.809 131.17 192.753 131.193 192.696 131.193Z" fill="white"/>
<path d="M185.03 133.371H192.697C192.754 133.371 192.809 133.394 192.85 133.434C192.89 133.475 192.913 133.53 192.913 133.588C192.913 133.645 192.89 133.7 192.85 133.741C192.809 133.781 192.754 133.804 192.697 133.804H179.08C179.051 133.804 179.023 133.799 178.997 133.788C178.971 133.777 178.947 133.761 178.927 133.741C178.907 133.721 178.891 133.697 178.88 133.671C178.869 133.645 178.863 133.616 178.863 133.588C178.863 133.559 178.869 133.531 178.88 133.505C178.891 133.479 178.907 133.455 178.927 133.434C178.947 133.414 178.971 133.398 178.997 133.387C179.023 133.377 179.051 133.371 179.08 133.371H185.03Z" fill="white"/>
<path d="M185.929 136.417H178.978C178.916 136.417 178.863 136.323 178.863 136.2C178.863 136.077 178.916 135.983 178.978 135.983H185.929C185.991 135.983 186.044 136.081 186.044 136.2C186.044 136.319 185.991 136.417 185.929 136.417Z" fill="white"/>
<path d="M185.028 138.595H192.695C192.749 138.603 192.797 138.629 192.832 138.669C192.867 138.709 192.886 138.761 192.886 138.814C192.886 138.867 192.867 138.919 192.832 138.959C192.797 138.999 192.749 139.026 192.695 139.033H179.079C179.048 139.037 179.016 139.035 178.986 139.026C178.955 139.017 178.927 139.001 178.904 138.98C178.88 138.96 178.861 138.934 178.848 138.905C178.835 138.877 178.828 138.846 178.828 138.814C178.828 138.782 178.835 138.751 178.848 138.723C178.861 138.694 178.88 138.668 178.904 138.648C178.927 138.627 178.955 138.612 178.986 138.603C179.016 138.594 179.048 138.591 179.079 138.595H185.028Z" fill="white"/>
<path d="M185.929 141.644H178.978C178.916 141.644 178.863 141.546 178.863 141.428C178.863 141.309 178.916 141.207 178.978 141.207H185.929C185.991 141.207 186.044 141.305 186.044 141.428C186.044 141.55 185.991 141.644 185.929 141.644Z" fill="white"/>
<path opacity="0.2" d="M175.33 144.8C175.33 144.8 176.201 148.72 180.127 149.59C180.127 149.59 179.48 148.466 180.127 145.237C178.523 145.617 176.839 145.464 175.33 144.8Z" fill="black"/>
<path d="M316.82 256.274H334.324V232.762H312.547V251.909C312.547 251.909 313.855 255.408 316.82 256.274Z" fill="#0D5FAA"/>
<path d="M329.9 237.88H316.292C316.239 237.873 316.191 237.846 316.155 237.806C316.12 237.766 316.101 237.714 316.101 237.661C316.101 237.608 316.12 237.556 316.155 237.516C316.191 237.476 316.239 237.45 316.292 237.443H329.9C329.931 237.438 329.963 237.441 329.994 237.45C330.024 237.459 330.052 237.474 330.075 237.495C330.099 237.516 330.118 237.541 330.131 237.57C330.144 237.598 330.151 237.63 330.151 237.661C330.151 237.693 330.144 237.724 330.131 237.752C330.118 237.782 330.099 237.807 330.075 237.828C330.052 237.848 330.024 237.864 329.994 237.873C329.963 237.882 329.931 237.884 329.9 237.88Z" fill="white"/>
<path d="M322.246 240.059H329.9C329.929 240.058 329.958 240.064 329.985 240.074C330.012 240.085 330.036 240.1 330.057 240.121C330.077 240.141 330.093 240.165 330.104 240.191C330.115 240.218 330.122 240.247 330.122 240.275C330.12 240.333 330.097 240.388 330.055 240.429C330.014 240.469 329.958 240.492 329.9 240.492H316.292C316.235 240.492 316.179 240.469 316.139 240.429C316.098 240.388 316.075 240.333 316.075 240.275C316.075 240.218 316.098 240.163 316.139 240.122C316.179 240.081 316.235 240.059 316.292 240.059H322.246Z" fill="white"/>
<path d="M323.136 243.104H316.185C316.123 243.104 316.07 243.006 316.07 242.888C316.07 242.769 316.123 242.671 316.185 242.671H323.136C323.202 242.671 323.251 242.769 323.251 242.888C323.251 243.006 323.206 243.104 323.136 243.104Z" fill="white"/>
<path d="M322.246 245.282H329.9C329.958 245.282 330.014 245.305 330.055 245.346C330.097 245.386 330.12 245.441 330.122 245.499C330.122 245.528 330.115 245.556 330.104 245.583C330.093 245.61 330.077 245.633 330.057 245.654C330.036 245.674 330.012 245.69 329.985 245.7C329.958 245.711 329.929 245.716 329.9 245.716H316.292C316.235 245.716 316.179 245.693 316.139 245.652C316.098 245.612 316.075 245.556 316.075 245.499C316.075 245.442 316.098 245.386 316.139 245.346C316.179 245.305 316.235 245.282 316.292 245.282H322.246Z" fill="white"/>
<path d="M323.136 248.332H316.185C316.123 248.332 316.07 248.234 316.07 248.111C316.07 247.989 316.123 247.895 316.185 247.895H323.136C323.202 247.895 323.251 247.993 323.251 248.111C323.251 248.23 323.206 248.332 323.136 248.332Z" fill="white"/>
<path opacity="0.2" d="M312.547 251.487C312.547 251.487 313.418 255.407 317.339 256.278C317.339 256.278 316.693 255.154 317.339 251.925C315.737 252.304 314.054 252.151 312.547 251.487Z" fill="black"/>
<path d="M248.43 220.569H265.936V197.057H244.157V216.216C244.157 216.216 245.445 219.699 248.43 220.569Z" fill="#B2B6BB"/>
<path d="M261.51 202.17H247.898C247.84 202.17 247.785 202.147 247.745 202.107C247.704 202.066 247.681 202.011 247.681 201.953C247.681 201.896 247.704 201.841 247.745 201.8C247.785 201.76 247.84 201.737 247.898 201.737H261.506C261.563 201.737 261.619 201.76 261.66 201.8C261.7 201.841 261.723 201.896 261.723 201.953C261.723 201.982 261.718 202.01 261.708 202.036C261.698 202.062 261.682 202.086 261.662 202.106C261.642 202.127 261.619 202.143 261.593 202.154C261.566 202.164 261.539 202.17 261.51 202.17Z" fill="white"/>
<path d="M253.857 204.361H261.511C261.564 204.369 261.613 204.395 261.648 204.435C261.683 204.475 261.702 204.526 261.702 204.58C261.702 204.633 261.683 204.685 261.648 204.725C261.613 204.765 261.564 204.791 261.511 204.799H247.899C247.846 204.791 247.798 204.765 247.762 204.725C247.727 204.685 247.708 204.633 247.708 204.58C247.708 204.526 247.727 204.475 247.762 204.435C247.798 204.395 247.846 204.369 247.899 204.361H253.853" fill="white"/>
<path d="M254.751 207.398H247.8C247.739 207.398 247.686 207.3 247.686 207.181C247.686 207.063 247.739 206.96 247.8 206.96H254.751C254.817 206.96 254.866 207.059 254.866 207.181C254.866 207.304 254.817 207.398 254.751 207.398Z" fill="white"/>
<path d="M253.857 209.573H261.511C261.564 209.581 261.613 209.607 261.648 209.647C261.683 209.687 261.702 209.738 261.702 209.792C261.702 209.845 261.683 209.897 261.648 209.937C261.613 209.977 261.564 210.003 261.511 210.011H247.899C247.846 210.003 247.798 209.977 247.762 209.937C247.727 209.897 247.708 209.845 247.708 209.792C247.708 209.738 247.727 209.687 247.762 209.647C247.798 209.607 247.846 209.581 247.899 209.573H253.853" fill="white"/>
<path d="M254.751 212.622H247.8C247.739 212.622 247.686 212.524 247.686 212.406C247.686 212.287 247.739 212.189 247.8 212.189H254.751C254.817 212.189 254.866 212.283 254.866 212.406C254.866 212.528 254.817 212.622 254.751 212.622Z" fill="white"/>
<path opacity="0.2" d="M244.157 215.782C244.157 215.782 245.028 219.698 248.95 220.568C248.95 220.568 248.304 219.448 248.95 216.215C247.348 216.598 245.664 216.446 244.157 215.782Z" fill="black"/>
<path d="M145.19 257.148H162.699V233.632H140.917V252.779C140.917 252.779 142.225 256.274 145.19 257.148Z" fill="#B2B6BB"/>
<path d="M158.274 238.751H144.666C144.613 238.743 144.565 238.717 144.529 238.677C144.494 238.637 144.475 238.585 144.475 238.532C144.475 238.479 144.494 238.427 144.529 238.387C144.565 238.347 144.613 238.32 144.666 238.313H158.274C158.327 238.32 158.376 238.347 158.411 238.387C158.446 238.427 158.465 238.479 158.465 238.532C158.465 238.585 158.446 238.637 158.411 238.677C158.376 238.717 158.327 238.743 158.274 238.751Z" fill="white"/>
<path d="M150.615 240.93H158.274C158.332 240.93 158.386 240.953 158.427 240.993C158.468 241.034 158.491 241.089 158.491 241.146C158.491 241.204 158.468 241.259 158.427 241.3C158.386 241.34 158.332 241.363 158.274 241.363H144.666C144.637 241.363 144.609 241.358 144.583 241.348C144.556 241.338 144.532 241.322 144.511 241.302C144.491 241.283 144.474 241.259 144.463 241.233C144.451 241.207 144.445 241.179 144.445 241.15C144.444 241.122 144.45 241.093 144.46 241.067C144.471 241.04 144.487 241.016 144.507 240.996C144.527 240.976 144.552 240.96 144.578 240.949C144.605 240.938 144.633 240.933 144.662 240.934H150.611" fill="white"/>
<path d="M151.516 243.974H144.564C144.499 243.974 144.45 243.876 144.45 243.758C144.45 243.639 144.499 243.541 144.564 243.541H151.516C151.577 243.541 151.63 243.639 151.63 243.758C151.63 243.876 151.577 243.974 151.516 243.974Z" fill="white"/>
<path d="M150.616 246.153H158.275C158.332 246.153 158.387 246.176 158.428 246.217C158.469 246.258 158.492 246.313 158.492 246.37C158.492 246.428 158.469 246.483 158.428 246.523C158.387 246.564 158.332 246.587 158.275 246.587H144.666C144.638 246.587 144.609 246.582 144.583 246.571C144.556 246.561 144.532 246.544 144.512 246.524C144.492 246.504 144.476 246.48 144.465 246.454C144.454 246.427 144.449 246.399 144.45 246.37C144.45 246.313 144.473 246.258 144.513 246.217C144.554 246.176 144.609 246.153 144.666 246.153H150.616Z" fill="white"/>
<path d="M151.516 249.203H144.564C144.499 249.203 144.45 249.105 144.45 248.982C144.45 248.86 144.499 248.766 144.564 248.766H151.516C151.577 248.766 151.63 248.864 151.63 248.982C151.63 249.101 151.577 249.203 151.516 249.203Z" fill="white"/>
<path opacity="0.2" d="M140.917 252.358C140.917 252.358 141.787 256.278 145.713 257.149C145.713 257.149 145.067 256.025 145.713 252.796C144.109 253.176 142.425 253.022 140.917 252.358Z" fill="black"/>
<path d="M164.44 163.526H139.174V165.341H164.44V163.526Z" fill="#61656D"/>
<path d="M164.44 167.588H139.174V169.403H164.44V167.588Z" fill="#61656D"/>
<path d="M154.855 171.726H139.174V173.541H154.855V171.726Z" fill="#61656D"/>
<path opacity="0.3" d="M164.44 163.526H139.174V165.341H164.44V163.526Z" fill="white"/>
<path opacity="0.3" d="M164.44 167.588H139.174V169.403H164.44V167.588Z" fill="white"/>
<path opacity="0.3" d="M154.855 171.726H139.174V173.541H154.855V171.726Z" fill="white"/>
<path d="M301.657 126.075H276.391V127.89H301.657V126.075Z" fill="#61656D"/>
<path d="M301.657 130.142H276.391V131.957H301.657V130.142Z" fill="#61656D"/>
<path d="M292.072 134.279H276.391V136.094H292.072V134.279Z" fill="#61656D"/>
<path opacity="0.3" d="M301.657 126.075H276.391V127.89H301.657V126.075Z" fill="white"/>
<path opacity="0.3" d="M301.657 130.142H276.391V131.957H301.657V130.142Z" fill="white"/>
<path opacity="0.3" d="M292.072 134.279H276.391V136.094H292.072V134.279Z" fill="white"/>
<path d="M220.416 233.023L223.859 240.001L231.559 241.117L225.989 246.549L227.302 254.214L220.416 250.596L213.53 254.214L214.842 246.549L209.269 241.117L216.973 240.001L220.416 233.023Z" fill="#0D5FAA"/>
<path d="M206.047 171.251C206.047 171.251 205.989 170.928 205.936 170.286C205.879 169.339 205.953 168.389 206.157 167.462C206.304 166.777 206.516 166.107 206.791 165.463C207.116 164.682 207.527 163.94 208.018 163.251C209.233 161.511 210.905 160.14 212.851 159.29C214.001 158.781 215.221 158.445 216.47 158.293C217.849 158.114 219.246 158.143 220.616 158.379C223.736 158.939 226.602 160.46 228.815 162.728C230.059 163.971 231.115 165.388 231.951 166.934C232.83 168.582 233.426 170.366 233.713 172.211C234.027 174.167 233.969 176.164 233.542 178.098C233.316 179.104 232.976 180.08 232.528 181.008C231.803 182.468 230.776 183.756 229.513 184.786C228.251 185.817 226.783 186.566 225.208 186.984C223.007 187.595 220.72 187.83 218.441 187.679C216.068 187.569 213.721 187.144 211.461 186.416C209.179 185.652 206.963 184.311 205.462 182.259C203.966 180.159 203.159 177.647 203.152 175.069C203.143 173.757 203.322 172.451 203.683 171.19C204.077 169.918 204.626 168.7 205.319 167.564C206.045 166.427 206.898 165.377 207.862 164.433C208.864 163.499 209.973 162.689 211.166 162.017C212.389 161.361 213.696 160.876 215.051 160.574C216.431 160.293 217.845 160.217 219.246 160.349C222.136 160.674 224.89 161.75 227.233 163.472C229.575 165.193 231.425 167.5 232.597 170.159C233.777 172.935 234.049 176.013 233.374 178.952C233.031 180.439 232.391 181.842 231.493 183.076C230.571 184.316 229.376 185.327 228.001 186.032C226.617 186.738 225.114 187.18 223.568 187.336C222.016 187.501 220.448 187.435 218.915 187.14C215.795 186.548 212.919 185.049 210.647 182.831C209.501 181.712 208.568 180.393 207.895 178.94C207.221 177.467 206.91 175.853 206.987 174.235C207.163 170.965 208.897 167.944 211.301 165.761C213.713 163.56 216.767 162.189 220.015 161.849C221.62 161.69 223.24 161.828 224.795 162.258C225.567 162.475 226.316 162.765 227.032 163.125C229.185 164.184 230.986 165.842 232.221 167.899C232.621 168.581 232.942 169.307 233.178 170.061C233.3 170.436 233.402 170.817 233.484 171.202C233.546 171.611 233.632 171.974 233.656 172.367C233.973 175.497 233.109 178.632 231.235 181.159C229.359 183.605 226.71 185.344 223.72 186.093C220.803 186.857 217.723 186.706 214.895 185.66C209.33 183.645 205.024 178.682 204.1 173.07C203.614 170.288 204.112 167.424 205.507 164.968C206.862 162.591 208.878 160.657 211.309 159.401C213.666 158.197 216.269 157.553 218.915 157.521C221.473 157.467 224.017 157.908 226.406 158.82C231.088 160.599 234.952 164.159 236.629 168.529C237.429 170.623 237.746 172.87 237.554 175.104C237.362 177.337 236.667 179.498 235.521 181.425C234.433 183.216 232.899 184.694 231.068 185.713C229.329 186.667 227.418 187.264 225.445 187.467C221.597 187.875 217.97 186.829 214.965 185.337C212.133 183.95 209.613 182.003 207.556 179.614C205.81 177.612 204.625 175.184 204.121 172.575C203.778 170.482 204.021 168.334 204.824 166.37C205.395 164.927 206.282 163.631 207.421 162.577C208.126 161.941 208.932 161.425 209.805 161.048C210.406 160.832 210.721 160.737 210.721 160.737L210.492 160.823C210.34 160.881 210.111 160.954 209.813 161.073C208.95 161.459 208.155 161.98 207.457 162.618C206.334 163.672 205.459 164.964 204.898 166.399C204.111 168.351 203.877 170.483 204.223 172.559C204.732 175.144 205.915 177.549 207.654 179.528C209.699 181.892 212.203 183.817 215.014 185.186C218.003 186.665 221.606 187.687 225.404 187.278C227.365 187.089 229.266 186.503 230.994 185.558C232.796 184.55 234.305 183.092 235.374 181.327C236.498 179.427 237.18 177.297 237.366 175.096C237.552 172.895 237.239 170.681 236.449 168.618C234.776 164.318 230.957 160.799 226.324 159.049C223.963 158.145 221.448 157.707 218.919 157.762C216.309 157.798 213.743 158.434 211.42 159.622C209.026 160.863 207.046 162.773 205.72 165.119C204.352 167.525 203.868 170.333 204.35 173.058C205.258 178.568 209.502 183.465 214.981 185.443C217.762 186.467 220.79 186.609 223.654 185.852C226.584 185.118 229.178 183.413 231.015 181.016C232.841 178.548 233.685 175.488 233.382 172.432C233.358 172.048 233.272 171.676 233.214 171.296C233.157 170.916 233.047 170.544 232.916 170.18C232.684 169.445 232.37 168.739 231.98 168.075C231.193 166.73 230.143 165.558 228.892 164.629C226.355 162.72 223.192 161.834 220.031 162.148C216.832 162.475 213.822 163.82 211.444 165.986C209.085 168.128 207.392 171.104 207.22 174.272C207.149 175.848 207.453 177.418 208.108 178.854C208.766 180.276 209.677 181.568 210.798 182.664C213.034 184.842 215.86 186.315 218.927 186.898C220.435 187.19 221.977 187.256 223.503 187.095C225.015 186.944 226.485 186.512 227.837 185.819C229.177 185.139 230.342 184.16 231.244 182.958C232.121 181.751 232.746 180.381 233.084 178.927C233.743 176.041 233.475 173.02 232.319 170.294C231.167 167.676 229.347 165.406 227.042 163.71C224.738 162.014 222.028 160.953 219.185 160.631C217.809 160.5 216.422 160.573 215.067 160.848C213.736 161.146 212.451 161.623 211.248 162.266C208.888 163.558 206.903 165.437 205.487 167.723C204.805 168.84 204.267 170.037 203.884 171.288C203.524 172.525 203.347 173.809 203.356 175.097C203.359 177.628 204.147 180.094 205.613 182.157C207.073 184.168 209.248 185.484 211.506 186.244C213.758 186.96 216.096 187.371 218.457 187.467C220.706 187.618 222.963 187.387 225.134 186.784C226.688 186.381 228.137 185.649 229.384 184.638C230.631 183.627 231.646 182.359 232.36 180.922C232.801 180.009 233.137 179.05 233.362 178.061C233.788 176.151 233.849 174.177 233.542 172.244C232.972 168.679 231.283 165.387 228.721 162.843C226.534 160.59 223.698 159.076 220.608 158.514C219.257 158.279 217.879 158.248 216.519 158.42C215.279 158.565 214.067 158.895 212.925 159.397C210.993 160.233 209.329 161.585 208.116 163.305C207.625 163.987 207.213 164.724 206.889 165.5C206.611 166.137 206.395 166.799 206.243 167.478C206.035 168.402 205.953 169.349 205.998 170.294C205.998 170.613 206.051 170.854 206.059 171.014C206.067 171.173 206.047 171.251 206.047 171.251Z" fill="#61656D"/>
<path d="M228.201 170.058H212.196C212.045 170.058 211.922 170.179 211.922 170.329C211.922 170.479 212.045 170.601 212.196 170.601H228.201C228.352 170.601 228.475 170.479 228.475 170.329C228.475 170.179 228.352 170.058 228.201 170.058Z" fill="#61656D"/>
<path d="M222.104 172.4H212.196C212.045 172.4 211.922 172.522 211.922 172.672C211.922 172.822 212.045 172.944 212.196 172.944H222.104C222.255 172.944 222.378 172.822 222.378 172.672C222.378 172.522 222.255 172.4 222.104 172.4Z" fill="#61656D"/>
<path d="M228.21 172.4H223.507C223.363 172.4 223.246 172.517 223.246 172.662V172.682C223.246 172.827 223.363 172.944 223.507 172.944H228.21C228.354 172.944 228.471 172.827 228.471 172.682V172.662C228.471 172.517 228.354 172.4 228.21 172.4Z" fill="#61656D"/>
<path d="M220.795 174.738H212.196C212.045 174.738 211.922 174.86 211.922 175.01C211.922 175.16 212.045 175.281 212.196 175.281H220.795C220.947 175.281 221.07 175.16 221.07 175.01C221.07 174.86 220.947 174.738 220.795 174.738Z" fill="#61656D"/>
<path d="M469.705 112.271H386.386C386.153 112.279 385.92 112.332 385.708 112.429C385.495 112.525 385.303 112.662 385.143 112.833C384.98 113.004 384.857 113.205 384.775 113.424C384.693 113.643 384.653 113.876 384.661 114.111V131.957L381.655 139.45L388.693 136.654H469.705C469.938 136.647 470.171 136.593 470.384 136.497C470.596 136.4 470.789 136.262 470.948 136.092C471.107 135.921 471.234 135.72 471.316 135.501C471.398 135.282 471.439 135.049 471.431 134.815V114.111C471.439 113.876 471.398 113.643 471.316 113.424C471.234 113.205 471.107 113.004 470.948 112.833C470.789 112.662 470.596 112.525 470.384 112.429C470.171 112.332 469.938 112.279 469.705 112.271Z" fill="#F4F4F4"/>
<path d="M471.431 118.598V113.693C471.398 113.28 471.202 112.898 470.887 112.629C470.572 112.36 470.163 112.225 469.75 112.254H386.333C385.405 112.254 384.648 112.896 384.648 113.693V118.598H471.431Z" fill="#868A91"/>
<path d="M469.705 112.271H386.386C386.153 112.279 385.92 112.332 385.708 112.429C385.495 112.525 385.303 112.662 385.143 112.833C384.98 113.004 384.857 113.205 384.775 113.424C384.693 113.643 384.653 113.876 384.661 114.111V131.957L381.655 139.45L388.693 136.654H469.705C469.938 136.647 470.171 136.593 470.384 136.497C470.596 136.4 470.789 136.262 470.948 136.092C471.107 135.921 471.234 135.72 471.316 135.501C471.398 135.282 471.439 135.049 471.431 134.815V114.111C471.439 113.876 471.398 113.643 471.316 113.424C471.234 113.205 471.107 113.004 470.948 112.833C470.789 112.662 470.596 112.525 470.384 112.429C470.171 112.332 469.938 112.279 469.705 112.271Z" stroke="black" stroke-width="1.03" stroke-miterlimit="10"/>
<path d="M393.268 131.81C392.357 131.81 391.461 131.539 390.701 131.032C389.94 130.524 389.351 129.802 388.999 128.958C388.652 128.115 388.558 127.186 388.738 126.29C388.914 125.394 389.355 124.571 390.001 123.925C390.647 123.279 391.469 122.839 392.369 122.661C393.264 122.482 394.193 122.574 395.039 122.923C395.881 123.273 396.601 123.865 397.112 124.625C397.619 125.384 397.889 126.277 397.889 127.191C397.889 128.415 397.403 129.59 396.536 130.456C395.669 131.322 394.495 131.809 393.268 131.81ZM393.268 123.287C392.496 123.287 391.743 123.516 391.101 123.945C390.455 124.374 389.956 124.984 389.662 125.697C389.367 126.411 389.29 127.195 389.437 127.952C389.588 128.71 389.96 129.405 390.508 129.951C391.052 130.497 391.751 130.869 392.508 131.02C393.264 131.17 394.05 131.093 394.765 130.797C395.477 130.502 396.086 130.001 396.515 129.36C396.945 128.718 397.174 127.963 397.174 127.191C397.174 126.155 396.761 125.163 396.029 124.43C395.297 123.698 394.303 123.287 393.268 123.287Z" fill="#0D5FAA"/>
<path d="M393.002 127.878C392.953 127.877 392.908 127.867 392.863 127.849C392.798 127.821 392.745 127.775 392.704 127.716C392.667 127.657 392.643 127.589 392.643 127.518V124.657C392.651 124.568 392.696 124.487 392.761 124.427C392.827 124.368 392.912 124.335 393.002 124.335C393.088 124.335 393.174 124.368 393.24 124.427C393.309 124.487 393.35 124.568 393.358 124.657V126.656L394.479 125.54C394.511 125.505 394.552 125.478 394.593 125.459C394.638 125.44 394.683 125.43 394.732 125.429C394.781 125.429 394.826 125.437 394.871 125.455C394.916 125.473 394.953 125.5 394.99 125.534C395.022 125.567 395.047 125.607 395.067 125.651C395.084 125.695 395.092 125.742 395.092 125.789C395.092 125.837 395.08 125.883 395.063 125.927C395.043 125.97 395.014 126.01 394.982 126.042L393.256 127.772C393.223 127.805 393.182 127.832 393.141 127.85C393.096 127.868 393.051 127.878 393.002 127.878Z" fill="#0D5FAA"/>
<path d="M430.769 122.943C429.984 122.945 429.227 123.258 428.671 123.814C428.115 124.37 427.8 125.125 427.8 125.911C427.8 127.546 430.769 131.437 430.769 131.437C430.769 131.437 433.734 127.55 433.734 125.911C433.734 125.125 433.423 124.37 432.867 123.814C432.311 123.258 431.554 122.945 430.769 122.943ZM430.769 127.599C430.434 127.6 430.107 127.502 429.829 127.317C429.55 127.132 429.334 126.868 429.207 126.56C429.076 126.251 429.043 125.912 429.109 125.584C429.174 125.257 429.334 124.955 429.571 124.719C429.804 124.482 430.107 124.321 430.434 124.255C430.761 124.19 431.1 124.223 431.411 124.351C431.718 124.479 431.983 124.695 432.167 124.973C432.356 125.25 432.454 125.577 432.454 125.911C432.454 126.133 432.413 126.352 432.327 126.557C432.241 126.762 432.118 126.948 431.963 127.105C431.808 127.262 431.62 127.386 431.415 127.471C431.211 127.555 430.99 127.599 430.769 127.599Z" fill="#0D5FAA"/>
<path d="M419.594 124.693H400.862V126.001H419.594V124.693Z" fill="#B2B6BB"/>
<path d="M411.318 127.305H400.862V128.613H411.318V127.305Z" fill="#B2B6BB"/>
<path d="M466.201 124.693H437.888V126.001H466.201V124.693Z" fill="#B2B6BB"/>
<path d="M453.692 127.305H437.888V128.613H453.692V127.305Z" fill="#B2B6BB"/>
<path d="M384.661 118.598H471.431" stroke="black" stroke-width="1.03" stroke-miterlimit="10"/>
<path d="M179.201 296.03C179.011 296.03 178.822 295.993 178.647 295.92C178.471 295.847 178.311 295.74 178.177 295.605C178.042 295.47 177.935 295.31 177.863 295.134C177.791 294.958 177.753 294.769 177.754 294.579V273.487C177.739 273.014 177.912 272.554 178.235 272.208C178.559 271.863 179.006 271.659 179.479 271.644H262.794C263.268 271.659 263.715 271.863 264.039 272.208C264.362 272.554 264.535 273.014 264.52 273.487V294.191C264.534 294.663 264.361 295.122 264.037 295.467C263.714 295.812 263.267 296.014 262.794 296.03H179.201Z" fill="#F4F4F4"/>
<path d="M262.835 271.644H226.655L224.316 266.293L222.272 271.644H179.431C179.018 271.614 178.61 271.749 178.295 272.018C177.98 272.287 177.784 272.67 177.75 273.082V277.988H264.52V273.082C264.52 272.289 263.763 271.644 262.835 271.644Z" fill="#868A91"/>
<path d="M186.357 291.183C185.444 291.183 184.55 290.912 183.79 290.404C183.03 289.897 182.438 289.175 182.088 288.331C181.738 287.486 181.647 286.557 181.826 285.661C182.005 284.765 182.445 283.942 183.092 283.296C183.738 282.65 184.562 282.211 185.459 282.033C186.355 281.855 187.284 281.947 188.128 282.298C188.973 282.648 189.694 283.241 190.202 284.001C190.709 284.761 190.979 285.654 190.978 286.568C190.976 287.792 190.488 288.965 189.622 289.83C188.756 290.695 187.582 291.182 186.357 291.183ZM186.357 282.664C185.585 282.664 184.83 282.893 184.188 283.322C183.546 283.751 183.045 284.361 182.75 285.074C182.454 285.787 182.377 286.572 182.528 287.329C182.678 288.087 183.05 288.782 183.596 289.328C184.142 289.874 184.838 290.246 185.596 290.396C186.353 290.547 187.138 290.47 187.852 290.174C188.566 289.879 189.175 289.379 189.605 288.736C190.034 288.095 190.263 287.34 190.263 286.568C190.262 285.533 189.85 284.54 189.118 283.809C188.386 283.077 187.393 282.665 186.357 282.664Z" fill="#0D5FAA"/>
<path d="M186.087 287.25C186.041 287.249 185.996 287.241 185.952 287.225C185.887 287.198 185.831 287.152 185.792 287.093C185.753 287.034 185.731 286.965 185.731 286.894V284.033C185.741 283.944 185.783 283.863 185.849 283.804C185.915 283.744 186.001 283.711 186.089 283.711C186.178 283.711 186.263 283.744 186.33 283.804C186.396 283.863 186.438 283.944 186.447 284.033V286.032L187.563 284.912C187.632 284.854 187.72 284.824 187.81 284.827C187.901 284.831 187.986 284.869 188.05 284.932C188.113 284.996 188.151 285.082 188.155 285.172C188.158 285.261 188.128 285.35 188.07 285.418L186.341 287.148C186.307 287.181 186.268 287.207 186.224 287.224C186.181 287.242 186.134 287.251 186.087 287.25Z" fill="#0D5FAA"/>
<path d="M223.854 282.321C223.07 282.327 222.32 282.644 221.768 283.201C221.216 283.759 220.908 284.512 220.91 285.297C220.91 286.932 223.875 290.819 223.875 290.819C223.875 290.819 226.843 286.936 226.843 285.297C226.845 284.905 226.768 284.516 226.618 284.154C226.468 283.791 226.248 283.463 225.97 283.186C225.692 282.909 225.362 282.69 224.998 282.542C224.635 282.393 224.246 282.318 223.854 282.321ZM223.854 286.977C223.52 286.978 223.193 286.879 222.915 286.694C222.637 286.509 222.419 286.246 222.291 285.937C222.163 285.629 222.129 285.289 222.193 284.961C222.258 284.634 222.419 284.333 222.655 284.096C222.89 283.86 223.191 283.698 223.519 283.633C223.847 283.568 224.187 283.601 224.495 283.728C224.804 283.856 225.068 284.072 225.254 284.35C225.44 284.628 225.539 284.955 225.539 285.288C225.539 285.735 225.362 286.164 225.046 286.481C224.73 286.797 224.302 286.975 223.854 286.977Z" fill="#0D5FAA"/>
<path d="M212.683 284.07H193.951V285.378H212.683V284.07Z" fill="#B2B6BB"/>
<path d="M204.407 286.683H193.951V287.991H204.407V286.683Z" fill="#B2B6BB"/>
<path d="M259.291 284.07H230.978V285.378H259.291V284.07Z" fill="#B2B6BB"/>
<path d="M246.782 286.683H230.978V287.991H246.782V286.683Z" fill="#B2B6BB"/>
<path d="M177.75 277.976H264.52" stroke="black" stroke-width="1.03" stroke-miterlimit="10"/>
<path d="M262.795 271.644H226.656L224.317 266.293L222.273 271.644H179.477C179.003 271.66 178.556 271.863 178.232 272.209C177.908 272.554 177.735 273.014 177.751 273.487V294.579C177.75 294.769 177.787 294.958 177.86 295.134C177.932 295.31 178.039 295.47 178.173 295.605C178.308 295.74 178.467 295.847 178.644 295.92C178.819 295.993 179.008 296.03 179.198 296.03H262.795C263.267 296.015 263.714 295.812 264.038 295.467C264.361 295.122 264.535 294.664 264.521 294.191V273.487C264.536 273.014 264.363 272.554 264.039 272.209C263.716 271.863 263.268 271.66 262.795 271.644Z" stroke="black" stroke-width="1.03" stroke-miterlimit="10"/>
<path d="M179.443 341.628L197.374 334.124L197.971 349.612L179.443 341.628Z" fill="#B2B6BB"/>
<path d="M336.667 339.122L336.451 333.964L197.374 334.123L197.562 339.278L336.667 339.122Z" fill="#0D5FAA"/>
<path d="M337.04 349.431L336.848 344.277L197.771 344.408L197.959 349.611L337.04 349.431Z" fill="#0D5FAA"/>
<path d="M336.86 344.277L336.668 339.123L197.561 339.278L197.782 344.408L336.86 344.277Z" fill="#0D5FAA"/>
<path opacity="0.3" d="M336.86 344.277L336.668 339.123L197.561 339.278L197.782 344.408L336.86 344.277Z" fill="black"/>
<path d="M184.191 339.662L179.443 341.649L184.35 343.754L184.191 339.662Z" fill="black"/>
<path d="M365.896 347.114L365.487 336.171C365.45 334.945 364.26 333.919 362.784 333.911L336.471 333.964L337.072 349.431L363.381 349.378C364.821 349.362 365.961 348.348 365.896 347.114Z" fill="#3F4249"/>
<path d="M337.072 349.435L336.475 333.968H341.202L341.799 349.44L337.072 349.435Z" fill="#B2B6BB"/>
<path opacity="0.4" d="M336.872 344.69L363.185 344.637C364.612 344.637 365.753 343.627 365.716 342.368L365.896 347.114C365.933 348.34 364.821 349.362 363.361 349.378L337.052 349.432L336.872 344.69Z" fill="black"/>
<path d="M346.445 344.723L326.285 345.23L334.329 339.507C334.979 339.049 335.515 338.448 335.887 337.745C336.263 337.042 336.467 336.261 336.484 335.468L336.839 329.075L347.782 329.116L346.445 344.723Z" fill="#FC9D9D"/>
<path opacity="0.15" d="M344.2 337.348V337.234C344.236 336.903 344.142 336.568 343.938 336.302C343.733 336.036 343.431 335.865 343.1 335.82L336.557 334.879L336.639 333.625H347.499L346.522 344.289L337.735 343.308L340.638 342.172C341.611 341.763 342.458 341.101 343.083 340.251C343.713 339.404 344.097 338.399 344.2 337.348Z" fill="black"/>
<path d="M381.843 344.33H372.782L371.097 328.997L381.802 329.038L381.843 344.33Z" fill="#FC9D9D"/>
<path opacity="0.15" d="M379.566 341.742L379.333 337.038C379.312 336.739 379.193 336.457 378.993 336.236C378.793 336.012 378.527 335.864 378.233 335.811L371.723 334.83L371.567 333.539L381.766 333.579L381.802 344.436L379.566 341.742Z" fill="black"/>
<path d="M380.343 212.896L382.306 334.577H370.75L360.699 231.213C360.666 230.898 360.519 230.606 360.282 230.392C360.049 230.179 359.746 230.06 359.427 230.056C359.112 230.056 358.814 230.175 358.585 230.391C358.356 230.606 358.217 230.9 358.201 231.213L347.491 334.577H335.936L338.593 212.896H380.343Z" fill="#21252B"/>
<path d="M382.612 334.577H370.288L370.059 332.071H382.575L382.612 334.577Z" fill="#21252B"/>
<path opacity="0.15" d="M382.612 334.577H377.452L377.337 332.071H382.575L382.612 334.577Z" fill="black"/>
<path opacity="0.2" d="M340.556 333.187L351.956 235.427C352.132 233.955 352.84 232.598 353.944 231.611C355.052 230.624 356.483 230.077 357.963 230.072H359.39C359.076 230.072 358.777 230.192 358.548 230.407C358.319 230.622 358.184 230.916 358.164 231.229L347.532 334.053L340.556 333.187Z" fill="black"/>
<path d="M347.757 334.577H335.469L335.661 332.071H348.027L347.757 334.577Z" fill="#21252B"/>
<path opacity="0.15" d="M382.612 334.577H370.288L370.059 332.071H382.575L382.612 334.577Z" fill="black"/>
<path opacity="0.15" d="M347.757 334.577H335.469L335.661 332.071H348.027L347.757 334.577Z" fill="black"/>
<path opacity="0.15" d="M347.757 334.577H340.438L340.707 332.071H348.027L347.757 334.577Z" fill="black"/>
<path d="M319.019 348.054V347.621C319.018 347.281 319.085 346.942 319.215 346.631C319.345 346.317 319.536 346.031 319.776 345.789C320.016 345.548 320.302 345.36 320.616 345.229C320.93 345.099 321.267 345.033 321.607 345.033H325.214C325.592 345.037 325.967 344.968 326.318 344.829C326.669 344.69 326.989 344.481 327.259 344.216L336.475 335.472L339.338 339.237C339.562 339.531 339.849 339.772 340.18 339.94C340.507 340.108 340.871 340.197 341.239 340.206C341.611 340.21 341.975 340.136 342.314 339.981C342.65 339.826 342.944 339.601 343.181 339.315C343.414 339.041 343.701 338.816 344.028 338.661C344.351 338.505 344.707 338.419 345.066 338.411H346.988V347.903L319.019 348.054Z" fill="#3F4249"/>
<path d="M319.019 348.054V349.464H347.062V347.895L319.019 348.054Z" fill="black"/>
<path d="M338.315 337.819L332.079 342.879C331.744 343.145 331.327 343.284 330.899 343.259C330.472 343.239 330.068 343.059 329.765 342.76L329.294 342.29L336.471 335.468C336.655 335.415 336.855 335.419 337.039 335.48C337.219 335.542 337.379 335.66 337.493 335.82L338.238 336.878C338.332 336.997 338.393 337.14 338.413 337.295C338.434 337.447 338.413 337.598 338.356 337.741L338.315 337.819Z" fill="black"/>
<path d="M373.96 337.389H373.215C372.872 337.385 372.545 337.508 372.291 337.737C372.034 337.962 371.874 338.276 371.841 338.616L371.686 341.44C371.637 342.315 371.408 343.169 371.015 343.95L370.742 344.457C370.243 345.442 369.989 346.529 369.997 347.633V348.144H384.354C384.346 346.746 383.916 345.381 383.127 344.224C382.538 343.357 382.175 342.36 382.068 341.322L381.757 338.497C381.688 338.186 381.516 337.904 381.263 337.704C381.013 337.508 380.702 337.397 380.384 337.402H379.872" fill="#3F4249"/>
<path d="M384.272 348.091H369.957V349.464H384.272V348.091Z" fill="black"/>
<path d="M375.841 336.093H377.959C378.212 336.093 378.462 336.147 378.691 336.249C378.924 336.355 379.128 336.506 379.296 336.694C379.464 336.886 379.586 337.107 379.66 337.348C379.733 337.59 379.758 337.847 379.725 338.096L379.255 341.939C379.177 342.511 378.895 343.034 378.462 343.415C378.028 343.795 377.476 344.007 376.9 344.015C376.315 344.019 375.747 343.803 375.313 343.41C374.88 343.022 374.606 342.482 374.549 341.898L374.115 338.056C374.078 337.81 374.095 337.557 374.168 337.32C374.238 337.083 374.36 336.862 374.524 336.674C374.688 336.49 374.892 336.339 375.117 336.241C375.346 336.138 375.591 336.089 375.841 336.093Z" fill="black"/>
<path d="M373.097 338.644H380.707" stroke="white" stroke-width="1.26" stroke-linecap="round" stroke-linejoin="round"/>
<path d="M373.33 340.447H380.47" stroke="white" stroke-width="1.26" stroke-linecap="round" stroke-linejoin="round"/>
<path d="M373.526 342.213H380.273" stroke="white" stroke-width="1.26" stroke-linecap="round" stroke-linejoin="round"/>
<path d="M331.176 339.625L333.96 342.249" stroke="white" stroke-width="1.26" stroke-linecap="round" stroke-linejoin="round"/>
<path d="M332.668 338.251L335.531 340.958" stroke="white" stroke-width="1.26" stroke-linecap="round" stroke-linejoin="round"/>
<path d="M334.198 336.956L337.019 339.625" stroke="white" stroke-width="1.26" stroke-linecap="round" stroke-linejoin="round"/>
<path opacity="0.2" d="M369.585 224.252L370.341 225.543L371.327 222.359L373.972 222.461L375.416 230.841L375.007 211.519L380.363 214.486L382.367 332.161L377.395 332.034L375.514 234.749C371.977 231.675 370.051 227.072 369.38 225.502C369.286 225.298 369.253 225.068 369.29 224.845C369.327 224.622 369.429 224.415 369.585 224.252Z" fill="black"/>
<path d="M303.955 178.609C305.542 176.418 307.038 176.884 303.08 171.758C302.18 170.785 301.783 171.459 299.952 170.597C298.725 170.118 295.81 169.309 295.139 169.914C291.933 174.872 290.33 173.973 295.748 177.305C295.748 177.305 299.837 179.998 301.494 179.868C302.427 179.721 303.289 179.28 303.955 178.609Z" fill="#FC9D9D"/>
<path d="M297.662 171.812L298.623 170.438L292.53 167.029C292.344 166.932 292.128 166.905 291.924 166.954C291.72 167.003 291.54 167.124 291.418 167.295C291.353 167.39 291.309 167.498 291.289 167.612C291.268 167.726 291.273 167.843 291.301 167.955C291.329 168.067 291.381 168.171 291.452 168.262C291.524 168.353 291.614 168.427 291.716 168.48L297.662 171.812Z" fill="#FC9D9D"/>
<path d="M296.203 173.132L297.294 171.497L290.314 167.462C290.101 167.349 289.853 167.317 289.619 167.375C289.384 167.432 289.179 167.574 289.043 167.773C288.967 167.885 288.915 168.012 288.892 168.146C288.868 168.279 288.873 168.416 288.905 168.548C288.938 168.679 288.997 168.803 289.08 168.91C289.162 169.018 289.267 169.106 289.386 169.171L296.203 173.132Z" fill="#FC9D9D"/>
<path opacity="0.15" d="M296.648 171.366C296.611 171.365 296.574 171.355 296.541 171.338L291.512 168.542C291.461 168.513 291.424 168.466 291.409 168.411C291.393 168.355 291.4 168.296 291.428 168.245C291.456 168.195 291.504 168.158 291.559 168.142C291.614 168.126 291.674 168.133 291.724 168.162L296.754 170.957C296.794 170.982 296.826 171.019 296.844 171.063C296.861 171.107 296.864 171.155 296.853 171.201C296.841 171.247 296.814 171.288 296.777 171.318C296.74 171.347 296.695 171.364 296.648 171.366Z" fill="black"/>
<path d="M296.203 175.306L297.294 173.704L290.314 169.67C290.101 169.556 289.853 169.524 289.619 169.582C289.384 169.639 289.179 169.781 289.043 169.98C288.967 170.093 288.915 170.22 288.892 170.353C288.868 170.486 288.873 170.623 288.905 170.755C288.938 170.886 288.997 171.01 289.08 171.117C289.162 171.225 289.267 171.313 289.386 171.378L296.203 175.306Z" fill="#FC9D9D"/>
<path d="M296.203 177.484L297.294 175.849L290.314 171.815C290.102 171.701 289.854 171.669 289.62 171.726C289.385 171.782 289.18 171.923 289.043 172.121C288.967 172.234 288.915 172.361 288.892 172.495C288.868 172.628 288.873 172.765 288.905 172.896C288.938 173.028 288.997 173.152 289.08 173.259C289.162 173.366 289.267 173.455 289.386 173.519L296.203 177.484Z" fill="#FC9D9D"/>
<path d="M295.017 174.113L295.045 174.146V174.166C295.048 174.151 295.048 174.136 295.045 174.121L295.017 174.113Z" fill="#FC9D9D"/>
<path opacity="0.2" d="M300.88 170.843C300.88 170.843 299.8 173.377 300.434 175.584C301.068 177.792 301.865 178.192 301.865 178.192L301.457 171.202L300.88 170.843Z" fill="black"/>
<path d="M294.395 176.026C294.457 176.079 294.473 176.116 294.395 176.112C294.372 176.115 294.349 176.115 294.326 176.112C294.325 176.1 294.325 176.087 294.326 176.075L294.395 176.026Z" fill="#FC9D9D"/>
<path opacity="0.15" d="M295.777 173.107C295.737 173.106 295.697 173.095 295.662 173.074L290.199 169.845C290.157 169.812 290.128 169.765 290.118 169.711C290.108 169.659 290.118 169.604 290.146 169.558C290.173 169.512 290.217 169.477 290.268 169.461C290.32 169.444 290.375 169.447 290.424 169.469L295.887 172.702C295.912 172.717 295.933 172.736 295.95 172.759C295.967 172.783 295.98 172.809 295.986 172.836C295.993 172.864 295.994 172.893 295.99 172.921C295.986 172.949 295.976 172.976 295.961 173.001C295.942 173.033 295.915 173.059 295.883 173.078C295.85 173.096 295.814 173.106 295.777 173.107Z" fill="black"/>
<path opacity="0.15" d="M294.947 174.563C294.912 174.563 294.877 174.554 294.845 174.538L290.208 172.029C290.157 172 290.12 171.952 290.104 171.897C290.088 171.841 290.094 171.781 290.122 171.73C290.137 171.705 290.157 171.684 290.181 171.667C290.204 171.65 290.231 171.638 290.259 171.631C290.287 171.625 290.316 171.624 290.345 171.629C290.373 171.634 290.401 171.645 290.425 171.661L295.058 174.17C295.101 174.193 295.135 174.229 295.155 174.273C295.175 174.318 295.18 174.368 295.168 174.415C295.156 174.462 295.129 174.504 295.09 174.534C295.051 174.564 295.004 174.58 294.955 174.579L294.947 174.563Z" fill="black"/>
<path d="M279.253 182.289L296.063 187.194L302.643 164.618L281.731 158.531L276.375 176.926C276.375 176.926 276.648 180.613 279.253 182.289Z" fill="#61656D"/>
<path d="M296.967 168.268L283.882 164.466C283.827 164.449 283.781 164.412 283.754 164.361C283.726 164.311 283.719 164.252 283.735 164.197C283.742 164.169 283.755 164.143 283.773 164.12C283.791 164.097 283.813 164.078 283.838 164.064C283.863 164.05 283.89 164.041 283.919 164.038C283.948 164.035 283.977 164.037 284.005 164.045L297.069 167.851C297.101 167.854 297.132 167.864 297.159 167.88C297.186 167.896 297.21 167.918 297.228 167.945C297.246 167.971 297.258 168.001 297.263 168.032C297.268 168.064 297.266 168.096 297.257 168.127C297.248 168.158 297.232 168.186 297.211 168.21C297.19 168.234 297.164 168.253 297.135 168.265C297.106 168.278 297.074 168.284 297.042 168.283C297.01 168.282 296.979 168.274 296.951 168.26L296.967 168.268Z" fill="white"/>
<path d="M289.001 168.219L296.361 170.361C296.392 170.364 296.423 170.375 296.45 170.391C296.477 170.408 296.5 170.43 296.517 170.457C296.534 170.483 296.545 170.513 296.55 170.545C296.555 170.576 296.552 170.607 296.543 170.638C296.534 170.668 296.518 170.696 296.498 170.72C296.477 170.743 296.451 170.762 296.421 170.775C296.392 170.787 296.361 170.793 296.329 170.792C296.298 170.791 296.267 170.783 296.238 170.769L283.153 166.964C283.126 166.956 283.1 166.943 283.077 166.925C283.054 166.908 283.035 166.886 283.021 166.86C283.007 166.835 282.998 166.808 282.995 166.779C282.992 166.75 282.994 166.721 283.002 166.694C283.02 166.639 283.058 166.593 283.11 166.565C283.161 166.538 283.22 166.531 283.276 166.547L289.001 168.21" fill="white"/>
<path d="M289.009 171.394L282.336 169.453C282.275 169.453 282.254 169.326 282.287 169.212C282.32 169.097 282.397 169.015 282.459 169.036L289.132 170.977C289.193 170.977 289.214 171.104 289.181 171.219C289.148 171.333 289.071 171.415 289.009 171.394Z" fill="white"/>
<path d="M287.562 173.233L294.923 175.376C294.954 175.379 294.984 175.39 295.011 175.406C295.038 175.423 295.061 175.445 295.078 175.472C295.096 175.498 295.107 175.528 295.111 175.559C295.116 175.591 295.114 175.623 295.105 175.653C295.096 175.683 295.08 175.711 295.059 175.735C295.038 175.758 295.012 175.777 294.983 175.79C294.954 175.802 294.923 175.808 294.891 175.807C294.859 175.806 294.828 175.798 294.8 175.785L281.715 171.983C281.66 171.966 281.614 171.928 281.587 171.878C281.559 171.827 281.552 171.768 281.568 171.713C281.575 171.685 281.588 171.659 281.606 171.636C281.624 171.614 281.646 171.595 281.671 171.581C281.696 171.567 281.724 171.558 281.752 171.555C281.781 171.551 281.81 171.554 281.838 171.562L287.562 173.226" fill="white"/>
<path d="M287.562 176.414L280.884 174.468C280.823 174.468 280.803 174.345 280.835 174.227C280.868 174.108 280.946 174.035 281.007 174.051L287.68 175.993C287.742 175.993 287.766 176.119 287.729 176.234C287.693 176.348 287.611 176.43 287.562 176.414Z" fill="white"/>
<path opacity="0.2" d="M276.493 176.484C276.493 176.484 276.231 180.49 279.764 182.423C279.764 182.423 279.457 181.164 280.991 178.242C279.339 178.163 277.759 177.545 276.493 176.484Z" fill="black"/>
<path opacity="0.2" d="M300.292 173.226C300.292 173.226 297.107 173.97 296.256 172.327C295.344 170.569 298.027 170.798 298.82 170.692C299.613 170.586 299.09 171.685 300.411 171.971L300.292 173.226Z" fill="black"/>
<path d="M298.904 170.793C301.3 169.833 303.59 171.202 304.22 173.708L304.367 174.321C304.866 176.569 303.958 178.028 303.038 178.372C302.372 178.621 301.468 178.474 300.941 176.357C300.62 175.261 300.54 174.11 300.708 172.98C299.366 173.176 297.334 173.295 296.618 172.335C295.33 170.61 298.193 171.071 298.904 170.793Z" fill="#FC9D9D"/>
<path d="M331.724 169.98L326.514 184.99L305.631 174.665L301.276 180.551L327.123 197.376C329.949 199.109 333.732 198.246 335.335 195.332C335.396 195.226 335.453 195.117 335.502 195.005L342.405 177.207" fill="#0D5FAA"/>
<path d="M351.511 135.767C350.464 135.703 349.483 135.232 348.779 134.454C348.076 133.677 347.708 132.654 347.749 131.607C347.79 130.559 348.244 129.57 349.008 128.852C349.769 128.133 350.787 127.742 351.834 127.763C351.956 127.763 352.28 127.681 352.243 127.804C351.351 131.278 352.398 135.767 351.511 135.767Z" fill="black"/>
<path d="M339.648 168.202C339.677 167.339 353.874 150.919 353.874 150.919L369.683 151.005L380.793 174.93L377.427 197.347L377.215 212.953C377.219 213.092 377.198 213.23 377.149 213.36C377.1 213.489 377.027 213.608 376.928 213.708C376.834 213.808 376.72 213.888 376.593 213.942C376.462 213.997 376.327 214.024 376.188 214.024L371.588 214.368C362.028 215.075 352.431 214.96 342.891 214.024C342.752 214.025 342.617 213.998 342.49 213.945C342.364 213.893 342.249 213.815 342.155 213.718C342.057 213.62 341.983 213.505 341.934 213.378C341.881 213.251 341.857 213.114 341.861 212.978L339.648 168.202Z" fill="white"/>
<path d="M349.164 226.573L337.338 225.727C337.195 225.714 337.056 225.672 336.933 225.603C336.807 225.535 336.696 225.442 336.606 225.33C336.52 225.219 336.455 225.09 336.418 224.952C336.377 224.815 336.369 224.671 336.39 224.53L339.252 198.827L339.285 181L328.906 178.417L335.232 159.087H335.265C336.328 156.156 338.127 154.75 341.44 153.826L352.48 151.7L353.735 180.469L350.333 225.584C350.325 225.727 350.288 225.867 350.223 225.995C350.157 226.123 350.068 226.236 349.961 226.329C349.851 226.421 349.724 226.491 349.585 226.533C349.45 226.575 349.307 226.589 349.164 226.573Z" fill="#0D5FAA"/>
<path d="M353.617 132.419C353.617 132.419 366.767 124.17 367.282 134.254L367.479 136.862L368.378 150.074C368.386 150.437 368.26 150.791 368.027 151.071L358.896 158.719C358.785 158.793 358.654 158.83 358.519 158.824C358.389 158.818 358.258 158.77 358.156 158.686L354.038 152.146C353.85 151.986 353.703 151.782 353.613 151.551C353.523 151.321 353.49 151.071 353.523 150.826L354.34 142.291C354.165 141.531 354.075 140.753 354.083 139.973C353.972 136.004 353.617 132.419 353.617 132.419Z" fill="#FC9D9D"/>
<path d="M358.785 159.439L356.68 153.818L353.715 149.134L352.108 151.492L356.324 159.79L358.785 159.439Z" fill="white"/>
<path opacity="0.2" d="M358.433 158.735L356.605 155.747C356.605 155.747 355.976 155.224 355.105 157.77L351.887 151.528L352.107 151.492L354.892 157.08C354.892 157.08 356.323 154.521 356.806 155.494L358.433 158.735Z" fill="black"/>
<path d="M352.811 150.302L352.459 155.571L353.514 180.522L349.646 152.411L352.811 150.302Z" fill="#0D5FAA"/>
<path opacity="0.2" d="M350.031 152.322L348.959 159.295L352.006 159.43L348.734 161.748C348.734 161.748 349.998 173.847 353.519 180.477C353.519 180.477 349.998 171.035 349.43 162.128L352.615 159.336L349.209 159.189L350.435 152.081L350.031 152.322Z" fill="black"/>
<path d="M352.137 125.31C352.137 125.31 347.463 144.898 357.518 146.218C366.219 147.379 367.188 133.812 367.188 133.812L366.779 123.933L352.137 125.31Z" fill="#FC9D9D"/>
<path d="M370.267 126.876C369.944 124.329 368.632 122.433 366.387 121.946C365.446 121.762 364.477 121.804 363.557 122.069C363.475 122.096 363.385 122.106 363.299 122.098C363.214 122.091 363.128 122.065 363.05 122.023C362.972 121.981 362.907 121.925 362.854 121.856C362.801 121.787 362.76 121.708 362.739 121.623C362.531 120.784 362.048 120.038 361.365 119.503C360.687 118.969 359.844 118.676 358.981 118.672C358.372 118.666 357.775 118.806 357.231 119.08C356.692 119.355 356.221 119.756 355.87 120.25C355.821 120.324 355.755 120.386 355.677 120.433C355.604 120.48 355.518 120.51 355.432 120.522C355.342 120.534 355.252 120.526 355.166 120.5C355.08 120.475 355.003 120.431 354.937 120.373C354.937 120.373 352.353 118.329 348.955 120.413C347.81 121.158 346.98 122.302 346.628 123.623C346.277 124.944 346.432 126.348 347.058 127.563C348.432 130.273 351.989 131.078 354.173 129.018C355.089 128.106 355.624 126.877 355.665 125.584C355.772 124.687 355.69 123.778 355.424 122.915H356.557C357.89 122.837 359.991 122.592 361.975 122.878C361.934 122.915 361.893 122.915 361.852 122.956L365.369 124.129C365.369 124.129 366.46 133.424 367.004 133.343C369.499 132.828 370.59 129.181 370.267 126.876Z" fill="black"/>
<path opacity="0.2" d="M367.528 137.528C367.078 137.566 366.628 137.464 366.24 137.238L367.659 139.429L367.528 137.528Z" fill="black"/>
<path d="M366.992 132.3C367.078 132.051 367.217 131.824 367.397 131.634C367.581 131.444 367.802 131.296 368.051 131.201C368.297 131.106 368.558 131.066 368.82 131.084C369.086 131.101 369.339 131.176 369.572 131.303C371.764 132.268 371.314 137.23 367.605 137.52C365.671 137.68 366.06 136.551 366.379 135.039L366.992 132.3Z" fill="#FC9D9D"/>
<path opacity="0.2" d="M369.67 132.59C369.523 132.474 369.351 132.388 369.167 132.338C368.987 132.289 368.795 132.275 368.607 132.3C368.431 132.349 368.268 132.434 368.125 132.551C367.986 132.668 367.871 132.814 367.789 132.979C367.548 133.389 367.425 133.857 367.434 134.332L367.401 134.741C367.401 134.77 367.405 134.8 367.417 134.827C367.43 134.855 367.446 134.88 367.466 134.901C367.487 134.922 367.511 134.938 367.54 134.949C367.569 134.961 367.597 134.966 367.626 134.965C367.654 134.966 367.687 134.961 367.712 134.95C367.74 134.94 367.765 134.923 367.789 134.902C367.81 134.881 367.826 134.856 367.834 134.828C367.847 134.8 367.851 134.77 367.851 134.741L367.883 134.332C367.9 133.939 367.998 133.554 368.174 133.203C368.296 132.985 368.489 132.814 368.722 132.721C368.975 132.699 369.225 132.767 369.433 132.914C369.486 132.944 369.548 132.955 369.605 132.943C369.666 132.93 369.715 132.897 369.752 132.848C369.797 132.827 369.752 132.688 369.67 132.59Z" fill="black"/>
<path opacity="0.2" d="M353.715 147.797L354.038 144.641C354.856 145.512 357.309 146.767 360.032 146.121C361.406 145.783 362.637 145.015 363.545 143.93C363.561 143.909 363.582 143.891 363.606 143.879C363.631 143.866 363.659 143.858 363.684 143.855C363.713 143.852 363.737 143.855 363.766 143.863C363.79 143.871 363.815 143.884 363.835 143.902C363.856 143.917 363.876 143.938 363.888 143.961C363.905 143.984 363.913 144.011 363.913 144.037C363.917 144.064 363.917 144.092 363.909 144.117C363.901 144.143 363.884 144.167 363.868 144.188C360.908 146.35 357.379 147.604 353.715 147.797Z" fill="black"/>
<path opacity="0.2" d="M358.433 158.735C358.433 158.735 357.321 196.215 357.174 214.736" stroke="black" stroke-width="0.86" stroke-miterlimit="10"/>
<path d="M359.002 135.788C359.448 135.788 359.808 135.427 359.808 134.982C359.808 134.538 359.448 134.177 359.002 134.177C358.557 134.177 358.197 134.538 358.197 134.982C358.197 135.427 358.557 135.788 359.002 135.788Z" fill="black"/>
<path d="M358.65 135.243C358.739 135.243 358.808 135.172 358.808 135.084C358.808 134.996 358.739 134.925 358.65 134.925C358.564 134.925 358.491 134.996 358.491 135.084C358.491 135.172 358.564 135.243 358.65 135.243Z" fill="white"/>
<path d="M352.623 135.82C353.069 135.82 353.428 135.459 353.428 135.015C353.428 134.57 353.069 134.209 352.623 134.209C352.177 134.209 351.817 134.57 351.817 135.015C351.817 135.459 352.177 135.82 352.623 135.82Z" fill="black"/>
<path d="M352.267 135.276C352.356 135.276 352.426 135.204 352.426 135.117C352.426 135.029 352.356 134.958 352.267 134.958C352.181 134.958 352.108 135.029 352.108 135.117C352.108 135.204 352.181 135.276 352.267 135.276Z" fill="white"/>
<path opacity="0.2" d="M355.747 139.098L356.81 139.164C356.871 139.16 356.933 139.136 356.978 139.096C357.023 139.055 357.055 139 357.068 138.939C357.064 138.877 357.043 138.817 357.002 138.771C356.961 138.724 356.904 138.692 356.843 138.681L355.78 138.616C355.653 138.606 355.534 138.546 355.448 138.45C355.363 138.354 355.322 138.229 355.326 138.101C355.338 137.974 355.395 137.856 355.493 137.771C355.587 137.687 355.714 137.643 355.841 137.647C355.902 137.645 355.964 137.622 356.009 137.581C356.058 137.54 356.086 137.484 356.099 137.422C356.131 137.295 356.005 137.197 355.874 137.165C355.624 137.153 355.379 137.236 355.187 137.397C354.995 137.559 354.872 137.787 354.843 138.035C354.827 138.295 354.913 138.551 355.08 138.749C355.248 138.947 355.489 139.072 355.747 139.098Z" fill="black"/>
<path d="M349.646 133.882V134.797C349.646 135.617 349.974 136.403 350.55 136.983C351.131 137.562 351.916 137.888 352.738 137.888C353.556 137.888 354.345 137.562 354.921 136.983C355.502 136.403 355.829 135.617 355.829 134.797V133.882C355.837 133.624 355.76 133.37 355.608 133.162H356.806C356.647 133.368 356.557 133.621 356.557 133.882V134.797C356.557 135.617 356.884 136.403 357.461 136.983C358.041 137.562 358.826 137.888 359.648 137.888C360.466 137.888 361.255 137.562 361.832 136.983C362.412 136.403 362.74 135.617 362.74 134.797V133.882C362.744 133.73 362.715 133.579 362.662 133.437C362.605 133.295 362.523 133.166 362.417 133.057C362.31 132.947 362.183 132.86 362.044 132.799C361.905 132.739 361.754 132.707 361.603 132.705H350.783C350.632 132.707 350.481 132.739 350.342 132.799C350.203 132.86 350.076 132.947 349.969 133.057C349.863 133.166 349.781 133.295 349.724 133.437C349.671 133.579 349.642 133.73 349.646 133.882ZM357.661 133.195H361.574C361.762 133.2 361.938 133.279 362.065 133.413C362.196 133.548 362.265 133.728 362.265 133.915V134.83C362.261 135.528 361.979 136.196 361.48 136.687C360.985 137.178 360.315 137.451 359.615 137.446C358.916 137.442 358.25 137.161 357.759 136.664C357.268 136.167 356.994 135.496 356.999 134.797V133.882C356.994 133.703 357.064 133.531 357.187 133.402C357.313 133.274 357.481 133.2 357.661 133.195ZM350.055 133.915C350.051 133.727 350.125 133.547 350.256 133.412C350.386 133.277 350.562 133.2 350.75 133.195H354.664C354.852 133.2 355.028 133.279 355.158 133.413C355.289 133.548 355.359 133.728 355.359 133.915V134.83C355.371 135.185 355.31 135.538 355.183 135.869C355.052 136.2 354.86 136.502 354.61 136.756C354.365 137.01 354.067 137.212 353.74 137.349C353.412 137.486 353.061 137.555 352.705 137.553C352.349 137.55 352.002 137.477 351.675 137.336C351.347 137.195 351.053 136.99 350.812 136.732C350.566 136.475 350.374 136.171 350.252 135.839C350.129 135.506 350.072 135.152 350.088 134.797L350.055 133.915Z" fill="black"/>
<path opacity="0.15" d="M334.529 190.717L337.694 181.928L338.749 168.223H339.452L339.1 185.444L335.882 194.142C335.383 195.44 334.537 196.572 333.429 197.412C332.693 197.904 331.854 198.225 330.979 198.353C330.104 198.48 329.211 198.41 328.366 198.148L328.039 198.001C330.905 198.708 333.474 193.877 334.529 190.717Z" fill="black"/>
<path opacity="0.15" d="M326.641 185.076L329.377 186.372C329.422 186.396 329.474 186.403 329.524 186.392C329.575 186.381 329.619 186.352 329.649 186.31C329.68 186.269 329.694 186.218 329.69 186.167C329.685 186.116 329.663 186.068 329.626 186.033L327.091 183.298L326.641 185.076Z" fill="black"/>
<path d="M341.435 199.975H357.792C357.988 199.978 358.176 199.912 358.323 199.788C358.475 199.665 358.577 199.492 358.609 199.3L360.777 179.23C360.785 179.121 360.764 179.012 360.728 178.911C360.687 178.809 360.629 178.716 360.552 178.639C360.474 178.562 360.38 178.502 360.278 178.463C360.176 178.424 360.069 178.407 359.959 178.413H339.256C339.146 178.407 339.039 178.424 338.937 178.463C338.835 178.502 338.741 178.562 338.663 178.639C338.589 178.716 338.528 178.809 338.487 178.911C338.45 179.012 338.434 179.121 338.438 179.23L340.609 199.3C340.642 199.493 340.744 199.667 340.896 199.791C341.051 199.915 341.239 199.98 341.435 199.975Z" fill="#1A2E35"/>
<path d="M341.435 199.975H357.792C357.988 199.978 358.176 199.912 358.323 199.788C358.475 199.665 358.577 199.492 358.609 199.3L360.777 179.23C360.785 179.121 360.764 179.012 360.728 178.911C360.687 178.809 360.629 178.716 360.552 178.639C360.474 178.562 360.38 178.502 360.278 178.463C360.176 178.424 360.069 178.407 359.959 178.413H339.256C339.146 178.407 339.039 178.424 338.937 178.463C338.835 178.502 338.741 178.562 338.663 178.639C338.589 178.716 338.528 178.809 338.487 178.911C338.45 179.012 338.434 179.121 338.438 179.23L340.609 199.3C340.642 199.493 340.744 199.667 340.896 199.791C341.051 199.915 341.239 199.98 341.435 199.975Z" fill="black"/>
<path d="M341.435 200.683H357.792C357.988 200.685 358.176 200.619 358.323 200.496C358.475 200.372 358.577 200.199 358.609 200.008L360.777 179.938C360.785 179.829 360.764 179.72 360.728 179.618C360.687 179.516 360.629 179.424 360.552 179.347C360.474 179.27 360.38 179.209 360.278 179.171C360.176 179.131 360.069 179.114 359.959 179.12H339.256C339.146 179.114 339.039 179.131 338.937 179.171C338.835 179.209 338.741 179.27 338.663 179.347C338.589 179.424 338.528 179.516 338.487 179.618C338.45 179.72 338.434 179.829 338.438 179.938L340.609 200.008C340.642 200.201 340.744 200.375 340.896 200.498C341.051 200.622 341.239 200.688 341.435 200.683Z" fill="#1A2E35"/>
<g opacity="0.5">
<path opacity="0.5" d="M341.26 182.288C341.235 182.495 341.276 182.704 341.374 182.887C341.473 183.07 341.624 183.22 341.808 183.315C341.996 183.41 342.204 183.447 342.409 183.421C342.617 183.394 342.81 183.306 342.965 183.167C343.12 183.028 343.227 182.846 343.276 182.644C343.325 182.442 343.313 182.23 343.239 182.035C343.165 181.842 343.03 181.674 342.863 181.557C342.691 181.439 342.487 181.376 342.278 181.377C342.02 181.363 341.771 181.452 341.583 181.623C341.391 181.793 341.276 182.033 341.26 182.288Z" fill="black"/>
</g>
<path d="M342.278 181.364C342.028 181.353 341.787 181.437 341.599 181.599C341.411 181.761 341.288 181.988 341.264 182.235C341.264 182.235 341.264 182.206 341.264 182.19C341.264 181.919 341.37 181.659 341.562 181.467C341.754 181.275 342.016 181.168 342.286 181.168C342.556 181.168 342.818 181.275 343.01 181.467C343.198 181.659 343.308 181.919 343.308 182.19C343.308 182.205 343.308 182.22 343.308 182.235C343.284 181.984 343.161 181.753 342.969 181.591C342.777 181.428 342.527 181.347 342.278 181.364Z" fill="black"/>
<path d="M341.648 182.288C341.636 182.416 341.66 182.545 341.722 182.658C341.779 182.771 341.873 182.863 341.987 182.921C342.102 182.98 342.233 183.003 342.36 182.986C342.486 182.97 342.605 182.916 342.703 182.83C342.797 182.744 342.863 182.631 342.895 182.507C342.924 182.382 342.916 182.251 342.871 182.132C342.826 182.012 342.744 181.909 342.638 181.836C342.531 181.763 342.405 181.724 342.278 181.724C342.118 181.717 341.967 181.771 341.848 181.877C341.73 181.983 341.656 182.13 341.648 182.288Z" fill="white"/>
<path opacity="0.2" d="M342.278 182.697C342.421 182.702 342.564 182.655 342.678 182.565C342.793 182.475 342.871 182.348 342.899 182.207C342.899 182.231 342.899 182.256 342.899 182.28C342.883 182.435 342.809 182.577 342.691 182.681C342.576 182.784 342.425 182.842 342.27 182.842C342.114 182.842 341.963 182.784 341.848 182.681C341.73 182.577 341.656 182.435 341.64 182.28C341.636 182.256 341.636 182.231 341.64 182.207C341.668 182.351 341.75 182.481 341.869 182.571C341.983 182.661 342.131 182.706 342.278 182.697Z" fill="black"/>
<path d="M359.804 185.419C360.249 186.724 360.462 188.096 360.437 189.474H360.94L361.885 191.632C362.114 192.157 362.175 192.74 362.057 193.3C361.934 193.86 361.644 194.369 361.223 194.755L360.666 195.266C359.575 196.263 358.156 196.828 356.676 196.856C355.363 196.885 353.948 196.963 353.76 196.991C352.848 197.142 351.92 197.206 350.996 197.183C350.419 197.118 344.294 197.719 343.558 197.715C342.822 197.711 342.442 196.726 343.079 196.419C343.456 196.239 349.479 195.52 351.442 195.225C351.85 195.164 351.442 194.723 351.442 194.723C351.442 194.723 344.936 194.723 344.228 194.543C343.521 194.363 343.439 193.227 344.744 192.945C345.79 192.724 352.987 192.863 353.331 192.004C353.674 191.146 349.945 190.308 349.139 189.871C348.334 189.433 347.451 189.229 347.954 188.236C348.264 187.614 353.76 189.188 354.717 189.286C355.674 189.384 357.068 188.432 357.78 187.618C358.164 187.177 358.266 186.11 358.278 185.227C358.278 184.52 358.557 183.445 359.096 182.95C359.129 182.919 359.17 182.897 359.215 182.885C359.26 182.874 359.305 182.873 359.35 182.884C359.395 182.896 359.436 182.917 359.468 182.948C359.501 182.979 359.526 183.017 359.542 183.061L359.804 185.419Z" fill="#FC9D9D"/>
<path opacity="0.15" d="M360.044 195.143C359.971 195.204 358.437 196.725 353.939 196.222L344.944 197.224C344.31 197.352 343.66 197.372 343.018 197.281C343.026 197.345 343.046 197.407 343.075 197.464C343.108 197.52 343.148 197.57 343.202 197.611C343.251 197.651 343.308 197.681 343.369 197.699C343.435 197.716 343.496 197.722 343.561 197.714C344.297 197.714 350.423 197.117 350.999 197.183C351.924 197.194 352.848 197.13 353.764 196.991C353.952 196.97 355.367 196.884 356.679 196.856C358.159 196.828 359.578 196.262 360.67 195.266L360.044 195.143Z" fill="black"/>
<path d="M355.162 127.268C356.254 125.731 357.497 125.02 359.435 125.061C361.619 125.102 363.398 126.839 363.193 129.381L363.156 129.95C363.14 130.206 363.222 130.459 363.385 130.655C363.553 130.851 363.79 130.975 364.044 131C364.285 131.004 364.518 131.056 364.739 131.152C364.96 131.248 365.156 131.386 365.32 131.559C365.487 131.732 365.618 131.936 365.704 132.159C365.79 132.383 365.831 132.621 365.823 132.86L365.782 134.495C365.782 134.592 365.818 134.684 365.888 134.752C365.957 134.82 366.047 134.859 366.146 134.859C366.146 134.859 366.632 134.941 366.71 134.536L366.955 132.758L365.254 122.755L356.929 120.564L353.453 123.516L355.162 127.268Z" fill="black"/>
<path d="M358.892 140.692C359.01 140.692 359.051 140.774 359.031 140.876C358.928 141.269 358.712 141.621 358.409 141.886C358.102 142.152 357.722 142.318 357.321 142.362C356.917 142.406 356.512 142.327 356.156 142.135C355.8 141.942 355.51 141.646 355.326 141.285C355.318 141.265 355.31 141.243 355.31 141.22C355.31 141.197 355.318 141.175 355.326 141.154C355.334 141.134 355.35 141.116 355.367 141.102C355.387 141.088 355.408 141.078 355.428 141.073L358.892 140.692Z" fill="white"/>
<path d="M368.276 148.193L361.95 153.466L358.082 159.086L360.544 160.844L369.331 151.357L368.276 148.193Z" fill="white"/>
<path opacity="0.2" d="M368.628 151.357L363.639 157.014L362.147 155.122C362.093 155.054 362.016 155.01 361.934 154.998C361.848 154.987 361.762 155.009 361.693 155.06C360.932 155.634 360.253 156.312 359.681 157.076L358.454 158.735C358.454 158.735 361.619 154.521 362.322 155.923L363.729 158.032L369.155 151.455L368.628 151.357Z" fill="black"/>
<path d="M368.268 226.95L381.39 226.026C381.533 226.016 381.672 225.978 381.799 225.913C381.926 225.848 382.04 225.758 382.13 225.649C382.22 225.539 382.289 225.412 382.33 225.275C382.371 225.138 382.384 224.995 382.367 224.853L380.233 199.865L380.83 179.12L381.758 183.437L394.201 182.174L390.075 162.259C388.317 155.58 382.886 154.034 382.886 154.034L368.984 151.014L365.471 179.831L366.174 198.483L367.148 225.944C367.156 226.084 367.189 226.222 367.246 226.349C367.307 226.476 367.393 226.59 367.495 226.683C367.602 226.777 367.724 226.849 367.855 226.894C367.99 226.94 368.129 226.959 368.268 226.95Z" fill="#0D5FAA"/>
<path d="M379.881 175.253L382.98 189.151L360.192 189.319L359.121 196.337L384.567 201.271C388.86 202.089 397.783 202.179 396.188 190.643L392.168 172.429L379.881 175.253Z" fill="#0D5FAA"/>
<path opacity="0.15" d="M396.376 192.532C396.503 201.873 388.574 202.048 384.583 201.272C384.277 201.092 359.141 196.342 359.141 196.342L359.174 195.439L384.007 199.199C397.182 200.953 396.204 193.055 396.376 192.532Z" fill="black"/>
<path opacity="0.15" d="M382.98 189.143H386.006C386.055 189.143 386.104 189.126 386.141 189.095C386.178 189.064 386.206 189.021 386.215 188.972C386.223 188.924 386.219 188.874 386.194 188.83C386.17 188.787 386.133 188.753 386.088 188.734L382.625 187.349L382.98 189.143Z" fill="black"/>
<path opacity="0.2" d="M380.331 189.119L380.83 179.46L380.58 168.926L380.057 168.771L378.744 178.462L378.11 188.138L365.864 188.596L365.896 189.47L380.331 189.119Z" fill="black"/>
<path d="M368.918 149.759L365.467 179.823L372.001 151.737L368.918 149.759Z" fill="#0D5FAA"/>
<path opacity="0.2" d="M372.001 151.737L372.381 159.438H369.343L372.508 161.891C372.508 161.891 369.032 174.873 365.5 180.33C365.5 180.33 371.102 166.812 371.805 162.242L368.746 159.311H372.156L371.613 151.471L372.001 151.737Z" fill="black"/>
<path opacity="0.15" d="M377.398 199.824L380.261 200.408L382.354 224.787C382.371 224.934 382.359 225.083 382.314 225.224C382.269 225.365 382.195 225.495 382.097 225.606C381.999 225.717 381.88 225.806 381.745 225.866C381.61 225.928 381.463 225.96 381.316 225.96H379.153L377.398 199.824Z" fill="black"/>
<path d="M114.092 288.881L135.04 274.325C136.327 273.455 137.384 272.284 138.119 270.915C138.855 269.546 139.246 268.018 139.26 266.465V238.011L108.948 237.99L108.903 238.738V237.99L78.5903 238.011V266.465C78.6046 268.018 78.9964 269.546 79.7312 270.914C80.4664 272.284 81.523 273.454 82.8102 274.325L103.771 288.881C104.196 289.169 104.544 289.555 104.787 290.007C105.03 290.46 105.16 290.964 105.165 291.477C105.162 291.991 105.033 292.496 104.79 292.949C104.547 293.402 104.197 293.789 103.771 294.076L82.8225 308.633C81.5365 309.504 80.4811 310.675 79.7475 312.044C79.014 313.413 78.6239 314.94 78.6108 316.493V344.947H108.923V344.199L108.968 344.947H139.28V316.497C139.264 314.942 138.87 313.413 138.131 312.043C137.392 310.674 136.331 309.505 135.04 308.636L114.079 294.081C113.654 293.792 113.305 293.405 113.062 292.952C112.819 292.5 112.69 291.994 112.685 291.481C112.691 290.966 112.822 290.46 113.067 290.007C113.313 289.555 113.664 289.168 114.092 288.881Z" fill="#0D5FAA"/>
<path opacity="0.8" d="M114.092 288.881L135.04 274.325C136.327 273.455 137.384 272.284 138.119 270.915C138.855 269.546 139.246 268.018 139.26 266.465V238.011L108.948 237.99L108.903 238.738V237.99L78.5903 238.011V266.465C78.6046 268.018 78.9964 269.546 79.7312 270.914C80.4664 272.284 81.523 273.454 82.8102 274.325L103.771 288.881C104.196 289.169 104.544 289.555 104.787 290.007C105.03 290.46 105.16 290.964 105.165 291.477C105.162 291.991 105.033 292.496 104.79 292.949C104.547 293.402 104.197 293.789 103.771 294.076L82.8225 308.633C81.5365 309.504 80.4811 310.675 79.7475 312.044C79.014 313.413 78.6239 314.94 78.6108 316.493V344.947H108.923V344.199L108.968 344.947H139.28V316.497C139.264 314.942 138.87 313.413 138.131 312.043C137.392 310.674 136.331 309.505 135.04 308.636L114.079 294.081C113.654 293.792 113.305 293.405 113.062 292.952C112.819 292.5 112.69 291.994 112.685 291.481C112.691 290.966 112.822 290.46 113.067 290.007C113.313 289.555 113.664 289.168 114.092 288.881Z" fill="white"/>
<path d="M84.7446 258.89C84.7446 258.89 105.652 260.198 128.727 251.941C128.706 251.925 113.037 268.472 84.7446 258.89Z" fill="#0D5FAA"/>
<path d="M131.134 251.487C125.577 251.487 120.45 258.187 108.91 260.533C102.875 261.943 95.3469 260.443 86.1996 258.898C84.0038 258.522 81.9634 259.998 81.9634 261.956V267.548C81.9855 268.704 82.2905 269.837 82.8515 270.848C83.4125 271.859 84.2124 272.717 85.1815 273.348C100.098 283.612 101.178 283.829 106.171 287.434C106.561 287.707 106.881 288.07 107.103 288.491C107.326 288.913 107.445 289.381 107.45 289.858V328.47C107.48 329.194 107.36 329.917 107.098 330.592C106.835 331.266 106.436 331.879 105.925 332.394C105.056 333.326 104 334.062 102.826 334.557C100.532 335.546 96.2465 337.459 94.848 338.477C91.6913 340.778 91.2455 341.481 91.2455 341.481H126.661L126.575 341.412L126.371 341.248C123.265 338.853 119.736 337.062 115.968 335.975C114.627 335.566 113.138 334.9 112.165 333.809C110.75 332.219 110.583 331.491 110.583 329.451V290.136C110.587 289.662 110.703 289.197 110.921 288.776C111.139 288.355 111.453 287.992 111.838 287.716C116.827 284.037 111.376 288.313 132.692 273.409C133.649 272.775 134.437 271.919 134.988 270.912C135.54 269.906 135.838 268.781 135.857 267.633V256.11C135.857 253.883 134.839 251.483 131.134 251.487Z" fill="#0D5FAA"/>
<path opacity="0.3" d="M131.134 251.487C125.577 251.487 120.45 258.187 108.91 260.533C102.875 261.943 95.3469 260.443 86.1996 258.898C84.0038 258.522 81.9634 259.998 81.9634 261.956V267.548C81.9855 268.704 82.2905 269.837 82.8515 270.848C83.4125 271.859 84.2124 272.717 85.1815 273.348C100.098 283.612 101.178 283.829 106.171 287.434C106.561 287.707 106.881 288.07 107.103 288.491C107.326 288.913 107.445 289.381 107.45 289.858V328.47C107.48 329.194 107.36 329.917 107.098 330.592C106.835 331.266 106.436 331.879 105.925 332.394C105.056 333.326 104 334.062 102.826 334.557C100.532 335.546 96.2465 337.459 94.848 338.477C91.6913 340.778 91.2455 341.481 91.2455 341.481H126.661L126.575 341.412L126.371 341.248C123.265 338.853 119.736 337.062 115.968 335.975C114.627 335.566 113.138 334.9 112.165 333.809C110.75 332.219 110.583 331.491 110.583 329.451V290.136C110.587 289.662 110.703 289.197 110.921 288.776C111.139 288.355 111.453 287.992 111.838 287.716C116.827 284.037 111.376 288.313 132.692 273.409C133.649 272.775 134.437 271.919 134.988 270.912C135.54 269.906 135.838 268.781 135.857 267.633V256.11C135.857 253.883 134.839 251.483 131.134 251.487Z" fill="white"/>
<path opacity="0.1" d="M114.092 288.881L135.04 274.325C136.328 273.455 137.385 272.285 138.119 270.915C138.855 269.546 139.246 268.019 139.26 266.465V238.011H129.242V266.465C129.242 269.326 127.896 273.553 125.586 275.621L123.938 277.121L111.916 288.865C111.486 289.149 111.133 289.535 110.889 289.989C110.645 290.442 110.517 290.95 110.517 291.465C110.517 291.98 110.645 292.488 110.889 292.941C111.133 293.395 111.486 293.781 111.916 294.065L123.865 305.735L125.676 307.394C127.937 309.487 129.254 313.636 129.254 316.481V344.931H139.272V316.481C139.254 314.929 138.86 313.404 138.123 312.038C137.385 310.672 136.328 309.505 135.04 308.637L114.079 294.081C113.651 293.796 113.3 293.409 113.057 292.956C112.814 292.502 112.687 291.996 112.687 291.481C112.687 290.967 112.814 290.46 113.057 290.007C113.3 289.553 113.651 289.167 114.079 288.881H114.092Z" fill="black"/>
<path opacity="0.5" d="M99.1589 303.609C99.1176 303.674 99.0726 303.737 99.0239 303.797L93.884 307.885C92.2643 309.953 91.3451 312.483 91.2588 315.108V339.172C91.2355 339.613 91.0376 340.03 90.7088 340.324C90.3801 340.623 89.947 340.774 89.5046 340.754H84.7449C84.3025 340.774 83.8695 340.623 83.5407 340.324C83.2115 340.03 83.014 339.613 82.9907 339.172V315.112C82.9907 312.475 84.3851 309.982 86.7772 308.314C87.0593 308.118 87.3415 307.905 87.595 307.709L96.7095 301.32C97.0837 301.063 97.5388 300.95 97.9898 301.003C98.4412 301.055 98.8579 301.27 99.163 301.606C99.3695 301.839 99.495 302.132 99.5216 302.442C99.5482 302.752 99.4737 303.062 99.3102 303.327L99.1589 303.609Z" fill="white"/>
<path opacity="0.5" d="M94.2761 275.269C92.6638 272.922 91.7674 270.157 91.6959 267.311V240.332C91.6959 240.141 91.6583 239.951 91.5847 239.774C91.5115 239.597 91.4039 239.436 91.2682 239.3C91.1328 239.165 90.9717 239.057 90.7946 238.984C90.6176 238.911 90.4279 238.873 90.2361 238.873H84.8794C84.6872 238.872 84.4971 238.91 84.3196 238.983C84.1417 239.056 83.9806 239.163 83.8445 239.299C83.7087 239.434 83.6008 239.595 83.5272 239.773C83.4536 239.95 83.4155 240.14 83.4155 240.332V267.311C83.4315 268.856 83.8212 270.376 84.5507 271.738C85.2805 273.101 86.329 274.268 87.6068 275.139L87.7049 275.204L96.8317 280.829C97.1106 281.001 97.4398 281.074 97.7657 281.036C98.0916 280.999 98.395 280.852 98.6268 280.62C98.8812 280.367 99.0337 280.029 99.055 279.671C99.0758 279.313 98.9642 278.959 98.7413 278.678L94.2761 275.269Z" fill="white"/>
<path d="M145.529 229.716H72.3467V234.507H145.529V229.716Z" fill="#3F4249"/>
<path opacity="0.4" d="M145.529 229.716H131.454V234.507H145.529V229.716Z" fill="black"/>
<path d="M142.916 234.503H74.9595V237.986H142.916V234.503Z" fill="#3F4249"/>
<path opacity="0.4" d="M142.916 234.503H129.848V237.986H142.916V234.503Z" fill="black"/>
<path opacity="0.4" d="M129.847 234.503H74.9595V235.341H129.847V234.503Z" fill="black"/>
<path d="M145.529 344.673H72.3467V349.464H145.529V344.673Z" fill="#3F4249"/>
<path opacity="0.4" d="M145.529 344.673H131.454V349.464H145.529V344.673Z" fill="black"/>
<path d="M142.916 341.191H74.9595V344.674H142.916V341.191Z" fill="#3F4249"/>
<path opacity="0.4" d="M142.916 341.191H129.848V344.674H142.916V341.191Z" fill="black"/>
<path opacity="0.4" d="M129.847 343.839H74.9595V344.677H129.847V343.839Z" fill="black"/>
<path d="M450.478 262.691C445.98 265.025 442.509 269.048 440.018 273.475C437.528 277.902 435.929 282.762 434.343 287.585L432.953 312.462C438.203 303.539 442.415 293.046 443.551 282.754L440.059 282.443C442.402 282.087 444.365 280.399 445.616 278.38C446.868 276.36 447.514 274.047 448.139 271.766L443.879 272.4C447.244 270.13 449.607 266.654 450.478 262.691Z" fill="#0D5FAA"/>
<g opacity="0.3">
<path opacity="0.3" d="M450.478 262.691C445.98 265.025 442.509 269.048 440.018 273.475C437.528 277.902 435.929 282.762 434.343 287.585L432.953 312.462C438.203 303.539 442.415 293.046 443.551 282.754L440.059 282.443C442.402 282.087 444.365 280.399 445.616 278.38C446.868 276.36 447.514 274.047 448.139 271.766L443.879 272.4C447.244 270.13 449.607 266.654 450.478 262.691Z" fill="black"/>
</g>
<path d="M432.176 318.292C432.176 318.292 420.784 304.664 420.914 291.649H425.519C425.519 291.649 420.518 288.379 420.914 286.523C421.311 284.667 421.442 277.718 421.442 277.718L425.65 278.756C425.65 278.756 422.493 277.182 422.1 274.669C421.708 272.155 423.02 260.603 423.02 260.603C423.02 260.603 428.148 265.991 429.726 271.513C431.305 277.035 435.451 283.473 434.224 300.298C432.998 317.123 432.176 318.292 432.176 318.292Z" fill="#0D5FAA"/>
<path d="M437.953 319.58C437.953 319.58 450.294 311.359 453.034 300.871L449.354 299.865C449.354 299.865 454.089 298.316 454.175 296.75C454.26 295.185 455.679 289.556 455.679 289.556L452.065 289.478C452.065 289.478 454.927 288.902 455.81 286.981C456.693 285.06 458.149 275.474 458.149 275.474C458.149 275.474 452.833 278.683 450.38 282.779C447.927 286.875 443.163 291.142 440.46 304.934C437.757 318.725 437.953 319.58 437.953 319.58Z" fill="#0D5FAA"/>
<path d="M430.597 326.639C430.597 326.639 420.17 314.818 416.936 307.668L419.389 306.626C417.619 306.916 415.803 306.156 414.429 304.991C413.055 303.826 412.049 302.318 411.06 300.817L414.278 300.274C411.321 299.429 408.803 297.48 407.245 294.829C411.043 295.45 414.482 297.539 417.312 300.143C419.561 302.305 421.601 304.671 423.413 307.211C424.325 308.43 425.118 309.735 425.78 311.106C427.522 314.728 430.601 322.298 430.597 326.639Z" fill="#0D5FAA"/>
<path d="M452.997 282.819C452.997 282.819 440.272 307.054 434.96 329.222" stroke="#3F4249" stroke-width="0.95" stroke-miterlimit="10" stroke-linecap="round"/>
<path d="M426.275 273.074C429.792 291.588 431.931 310.338 432.667 329.169" stroke="#3F4249" stroke-width="0.95" stroke-miterlimit="10" stroke-linecap="round"/>
<path d="M425.082 315.009C425.082 315.009 428.978 320.07 431.456 329.108" stroke="#3F4249" stroke-width="0.95" stroke-miterlimit="10" stroke-linecap="round"/>
<path d="M440.202 349.3H426.414L423.846 330.391H442.766L440.202 349.3Z" fill="#3F4249"/>
<path d="M444.369 333.273H422.243L421.924 329.107H444.688L444.369 333.273Z" fill="#3F4249"/>
<path opacity="0.2" d="M424.239 333.273H442.374L440.202 349.301L438.023 349.153L439.237 334.556L424.378 334.307L424.239 333.273Z" fill="black"/>
<path opacity="0.2" d="M439.634 329.136L438.988 333.273H444.369L444.688 329.107L439.634 329.136Z" fill="black"/>
<g opacity="0.2">
<path opacity="0.2" d="M441.483 338.035H425.082V338.354H441.483V338.035Z" fill="white"/>
</g>
<g opacity="0.2">
<path opacity="0.2" d="M441.483 339.314H425.082V339.633H441.483V339.314Z" fill="white"/>
</g>
</g>
<defs>
<clipPath id="clip0_2834_6448">
<rect width="498" height="351" fill="white"/>
</clipPath>
</defs>
</svg>
