<svg width="601" height="707" viewBox="0 0 601 707" fill="none" xmlns="http://www.w3.org/2000/svg">
<path d="M136.5 709L0.345314 332.533C-0.543677 326.652 0.291042 320.663 2.76592 315.169L154.627 94.1216C156.763 89.4309 161.251 86.2178 166.368 85.7644L451.939 0.120558C455.042 -0.158537 458.174 0.047852 461.199 0.730344L600.748 38C600.748 226 600.748 593.5 600.748 709C419.448 709 136.5 709 136.5 709Z" fill="black" fill-opacity="0.03"/>
<path d="M385.626 174.362H309.563C307.73 174.362 306.246 175.71 306.246 177.372V260.045C306.246 261.707 307.73 263.055 309.563 263.055H385.626C387.458 263.055 388.943 261.707 388.943 260.045V177.372C388.943 175.71 387.458 174.362 385.626 174.362Z" stroke="#61656D" stroke-width="1.5" stroke-miterlimit="10" stroke-dasharray="9.96 7.97"/>
<path d="M365.935 183.353H317.101C317.034 183.352 316.967 183.363 316.905 183.386C316.843 183.408 316.786 183.443 316.739 183.486C316.691 183.529 316.654 183.58 316.629 183.637C316.604 183.693 316.591 183.753 316.593 183.814V253.604C316.593 253.726 316.646 253.844 316.741 253.93C316.837 254.016 316.966 254.065 317.101 254.065H378.09C378.224 254.065 378.354 254.016 378.449 253.93C378.544 253.844 378.598 253.726 378.598 253.604V194.728L365.935 183.353Z" fill="#0D5FAA"/>
<path d="M366.632 199.207H327.376C327.177 199.207 326.987 199.279 326.847 199.406C326.706 199.533 326.627 199.707 326.627 199.887V199.926C326.627 200.107 326.705 200.281 326.846 200.41C326.986 200.539 327.177 200.612 327.376 200.614H366.632C366.831 200.612 367.022 200.539 367.162 200.41C367.303 200.281 367.381 200.107 367.381 199.926V199.887C367.381 199.707 367.302 199.533 367.161 199.406C367.021 199.279 366.831 199.207 366.632 199.207Z" fill="#F4F4F4"/>
<path d="M366.632 242.986H327.376C327.177 242.986 326.987 243.058 326.847 243.186C326.706 243.313 326.627 243.487 326.627 243.666V243.705C326.627 243.887 326.705 244.06 326.846 244.189C326.986 244.318 327.177 244.392 327.376 244.393H366.632C366.831 244.392 367.022 244.318 367.162 244.189C367.303 244.06 367.381 243.887 367.381 243.705V243.666C367.381 243.487 367.302 243.313 367.161 243.186C367.021 243.058 366.831 242.986 366.632 242.986Z" fill="#F4F4F4"/>
<path d="M366.632 206.431H327.376C327.177 206.431 326.987 206.502 326.847 206.63C326.706 206.758 326.627 206.931 326.627 207.111V207.15C326.627 207.33 326.706 207.504 326.847 207.631C326.987 207.759 327.177 207.83 327.376 207.83H366.632C366.831 207.83 367.021 207.759 367.161 207.631C367.302 207.504 367.381 207.33 367.381 207.15V207.111C367.381 206.931 367.302 206.758 367.161 206.63C367.021 206.502 366.831 206.431 366.632 206.431Z" fill="#F4F4F4"/>
<path d="M366.632 213.554H327.376C327.177 213.554 326.987 213.626 326.847 213.753C326.706 213.881 326.627 214.053 326.627 214.234V214.273C326.626 214.363 326.644 214.452 326.681 214.536C326.718 214.619 326.773 214.695 326.843 214.759C326.913 214.823 326.996 214.874 327.088 214.909C327.179 214.943 327.277 214.961 327.376 214.961H366.632C366.731 214.961 366.829 214.943 366.92 214.909C367.011 214.874 367.095 214.823 367.165 214.759C367.235 214.695 367.29 214.619 367.327 214.536C367.364 214.452 367.382 214.363 367.381 214.273V214.234C367.381 214.053 367.302 213.881 367.161 213.753C367.021 213.626 366.831 213.554 366.632 213.554Z" fill="#F4F4F4"/>
<path d="M366.632 228.321H327.376C327.177 228.321 326.987 228.392 326.847 228.519C326.706 228.648 326.627 228.82 326.627 229.001V229.04C326.627 229.22 326.706 229.393 326.847 229.521C326.987 229.648 327.177 229.72 327.376 229.72H366.632C366.831 229.72 367.021 229.648 367.161 229.521C367.302 229.393 367.381 229.22 367.381 229.04V229.001C367.381 228.82 367.302 228.648 367.161 228.519C367.021 228.392 366.831 228.321 366.632 228.321Z" fill="#F4F4F4"/>
<path d="M366.632 235.443H327.376C327.177 235.443 326.987 235.515 326.847 235.643C326.706 235.77 326.627 235.943 326.627 236.124C326.626 236.214 326.644 236.303 326.681 236.386C326.718 236.47 326.773 236.546 326.843 236.609C326.913 236.673 326.996 236.724 327.088 236.759C327.179 236.794 327.277 236.812 327.376 236.812H366.632C366.731 236.812 366.829 236.794 366.92 236.759C367.011 236.724 367.095 236.673 367.165 236.609C367.235 236.546 367.29 236.47 367.327 236.386C367.364 236.303 367.382 236.214 367.381 236.124C367.381 235.943 367.302 235.77 367.161 235.643C367.021 235.515 366.831 235.443 366.632 235.443Z" fill="#F4F4F4"/>
<path d="M361.368 220.776H331.459C331.26 220.776 331.07 220.848 330.93 220.975C330.789 221.103 330.71 221.275 330.71 221.456C330.71 221.637 330.788 221.811 330.929 221.94C331.069 222.069 331.26 222.142 331.459 222.144H361.368C361.569 222.142 361.76 222.069 361.902 221.941C362.043 221.812 362.124 221.638 362.126 221.456C362.124 221.275 362.043 221.102 361.901 220.974C361.759 220.847 361.568 220.776 361.368 220.776Z" fill="#F4F4F4"/>
<path opacity="0.2" d="M365.676 183.353V194.618C365.675 194.679 365.687 194.74 365.712 194.796C365.737 194.853 365.775 194.904 365.822 194.947C365.87 194.99 365.926 195.024 365.989 195.047C366.051 195.069 366.117 195.08 366.184 195.08H378.597L365.676 183.353Z" fill="black"/>
<path d="M436.175 585.046L475.516 584.163L477.411 564.47H477.515L483.166 514.827L483.26 514.045L498.154 383.332C498.217 382.767 498.509 382.244 498.973 381.864C499.437 381.484 500.04 381.273 500.665 381.273C501.291 381.273 501.894 381.484 502.357 381.864C502.822 382.244 503.113 382.767 503.176 383.332L519.276 513.889L525.513 564.478L526.53 575.024L527.391 584.139L549.254 584.624L547.531 575.188L546.67 567.527L546.118 556.363L544.852 514.749V514.178L539.52 343.571L455.23 342.304L456.28 513.701L456.573 561.695L456.289 567.55C456.204 569.514 455.441 571.403 454.11 572.952C453.489 573.682 452.755 574.328 451.93 574.867L436.175 585.046Z" fill="#FC9D9D"/>
<path opacity="0.15" d="M454.06 572.952L463.122 579.894L463.552 568.613L465.275 525.272C465.324 524 465.784 522.771 466.599 521.736C467.415 520.702 468.548 519.909 469.858 519.455L483.21 514.835L483.572 514.71L483.65 514.022H483.305L456.273 513.709L456.566 561.702L456.282 567.558C456.282 567.782 456.265 568.009 456.23 568.238C455.997 569.961 455.246 571.592 454.06 572.952Z" fill="black"/>
<path d="M546.299 573.939L545.696 573.392C543.433 571.397 540.393 570.297 537.239 570.331C534.085 570.365 531.074 571.529 528.863 573.571L528.519 573.939C527.415 574.993 526.799 576.393 526.796 577.848V580.193C526.796 581.522 526.589 580.975 526.124 582.241L524.048 588.495C523.514 590.011 523.241 591.594 523.238 593.186V593.968C523.28 594.564 523.571 595.123 524.051 595.531C524.531 595.939 525.164 596.166 525.823 596.165H549.942C550.606 596.183 551.251 595.963 551.735 595.551C552.22 595.139 552.504 594.57 552.527 593.968V593.663C552.522 591.82 552.179 589.992 551.51 588.253L549.098 582.108C548.564 580.709 548.237 581.147 548.237 579.622L548.177 577.856C548.088 576.387 547.421 574.998 546.299 573.939Z" fill="#3F4249"/>
<path opacity="0.5" d="M552.535 593.64V593.944C552.494 594.54 552.203 595.099 551.723 595.507C551.242 595.916 550.609 596.142 549.951 596.141H525.831C525.168 596.16 524.522 595.939 524.038 595.527C523.553 595.115 523.269 594.546 523.247 593.944V593.163C523.234 592.848 523.257 592.534 523.316 592.224H552.561L552.535 593.64Z" fill="black"/>
<path d="M455.178 342.304V568.183L456.186 568.23L463.551 568.613L477.446 569.325L483.527 514.71L483.605 514.022L498.154 383.332C498.211 382.751 498.51 382.212 498.991 381.823C499.471 381.435 500.096 381.229 500.739 381.245C501.358 381.248 501.954 381.46 502.41 381.839C502.876 382.227 503.165 382.76 503.219 383.332L524.755 569.325L547.557 568.308L539.468 343.571L455.178 342.304Z" fill="#0D5FAA"/>
<path opacity="0.2" d="M534.448 568.896L515.565 394.786C514.833 387.054 509.69 381.253 503.626 381.253H500.774C502.049 381.253 503.135 382.488 503.255 384.185L524.791 569.333L534.448 568.896Z" fill="black"/>
<path opacity="0.2" d="M455.169 345.048V568.183L463.551 568.613L467.754 345.072L455.169 345.048Z" fill="black"/>
<path d="M478.238 577.838V591.754C478.239 592.289 478.124 592.819 477.898 593.314C477.674 593.808 477.343 594.258 476.926 594.636C476.509 595.015 476.014 595.315 475.469 595.519C474.924 595.724 474.34 595.828 473.75 595.827H421.668C421.169 595.825 420.692 595.644 420.34 595.323C419.988 595.002 419.79 594.568 419.79 594.115C419.797 592.496 420.362 590.92 421.406 589.607C422.451 588.295 423.922 587.312 425.613 586.797L437.372 583.279L452.274 572.772C453.025 572.24 453.954 571.96 454.906 571.98C455.858 572 456.773 572.319 457.495 572.882L464.093 578.002C464.569 578.375 465.142 578.631 465.757 578.746C466.372 578.862 467.009 578.831 467.608 578.659L475.972 576.314C476.234 576.25 476.509 576.241 476.775 576.287C477.041 576.333 477.293 576.433 477.511 576.58C477.729 576.727 477.907 576.916 478.033 577.134C478.159 577.351 478.229 577.593 478.238 577.838Z" fill="#3F4249"/>
<path d="M473.75 595.827H421.668C421.17 595.825 420.692 595.644 420.34 595.323C419.988 595.002 419.791 594.568 419.791 594.115C419.777 593.539 419.859 592.965 420.032 592.411H478.212C478.042 593.371 477.497 594.242 476.679 594.869C475.86 595.496 474.821 595.836 473.75 595.827Z" fill="black"/>
<path d="M452.541 578.33C452.631 578.328 452.717 578.301 452.79 578.253C452.863 578.206 452.919 578.141 452.951 578.065C452.983 577.989 452.99 577.906 452.97 577.827C452.951 577.748 452.907 577.676 452.843 577.619L449.699 574.538C449.655 574.498 449.603 574.465 449.545 574.442C449.488 574.42 449.426 574.409 449.363 574.409C449.3 574.409 449.238 574.42 449.18 574.442C449.122 574.465 449.07 574.498 449.027 574.538C448.94 574.619 448.892 574.727 448.892 574.839C448.892 574.952 448.94 575.061 449.027 575.14L452.18 578.221C452.29 578.281 452.413 578.319 452.541 578.33Z" fill="white"/>
<path d="M450.096 580.098C450.208 580.096 450.315 580.057 450.397 579.988C450.443 579.949 450.479 579.901 450.503 579.849C450.528 579.797 450.541 579.74 450.541 579.683C450.541 579.626 450.528 579.57 450.503 579.517C450.479 579.465 450.443 579.418 450.397 579.378L447.253 576.298C447.164 576.218 447.044 576.172 446.917 576.172C446.791 576.172 446.671 576.218 446.581 576.298C446.492 576.379 446.442 576.489 446.442 576.603C446.442 576.718 446.492 576.827 446.581 576.908L449.734 579.988C449.844 580.049 449.968 580.087 450.096 580.098Z" fill="white"/>
<path d="M447.572 581.85C447.684 581.848 447.791 581.809 447.873 581.74C447.96 581.66 448.008 581.552 448.008 581.439C448.008 581.327 447.96 581.219 447.873 581.138L444.729 578.058C444.639 577.978 444.519 577.934 444.393 577.934C444.268 577.934 444.148 577.978 444.057 578.058C443.97 578.138 443.922 578.246 443.922 578.359C443.922 578.471 443.97 578.579 444.057 578.66L447.21 581.74C447.311 581.817 447.44 581.857 447.572 581.85Z" fill="white"/>
<path d="M517.899 215.946H492.151C491.867 215.945 491.587 216.011 491.34 216.138C491.093 216.263 490.885 216.446 490.738 216.665L488.507 220.003L463.879 222.888C458.269 223.548 453.09 225.964 449.235 229.721L416.027 262.055L379.252 229.275L369.122 241.526L408.55 283.656C410.865 285.973 414.052 287.419 417.483 287.708C420.915 287.997 424.341 287.11 427.087 285.219L455.265 268.106V345.049H539.624C539.624 345.049 548.04 226.68 545.025 226.133L521.534 220.48L519.363 216.743C519.223 216.502 519.012 216.299 518.754 216.159C518.496 216.019 518.2 215.945 517.899 215.946Z" fill="#FC9D9D"/>
<path d="M523.316 225.569L543.129 225.921C545.429 225.78 547.72 227.25 549.417 228.665C550.934 229.939 552.105 230.768 552.803 232.574L578.508 291.989C579.756 294.934 579.705 298.201 578.367 301.113C577.03 304.025 574.506 306.357 571.324 307.624L540.39 319.969L531.931 306.608L552.605 294.319L530.01 252.884L515.563 249.132L523.316 225.569Z" fill="#FC9D9D"/>
<path d="M540.39 319.969L527.185 325.293C527.185 325.293 525.789 329.764 516.701 331.437L512.394 338.473C511.257 340.67 507.742 339.716 508.397 337.41L509.327 318.601L531.931 306.608L540.39 319.969Z" fill="#FC9D9D"/>
<path d="M487.868 191.21C488.204 191.249 488.325 191.577 488.273 191.882C488.221 192.187 487.868 192.296 487.532 192.25L484.87 191.749C484.556 191.679 484.26 191.553 483.999 191.378C483.738 191.204 483.519 190.984 483.353 190.731C483.185 190.48 483.076 190.2 483.029 189.909C482.982 189.618 482.999 189.322 483.079 189.036C483.187 188.676 483.392 188.345 483.675 188.072C483.956 187.8 484.308 187.594 484.698 187.473C485.192 187.297 485.617 186.994 485.924 186.6C486.23 186.207 486.403 185.741 486.421 185.26C486.421 184.831 486.481 184.479 486.507 184.385C487.997 179.327 487.868 191.21 487.868 191.21Z" fill="#FC9D9D"/>
<path opacity="0.15" d="M483.079 189.036C483.253 188.452 483.67 187.95 484.242 187.637L484.164 187.84C484.086 188.126 484.07 188.423 484.118 188.714C484.166 189.004 484.277 189.284 484.444 189.536C484.611 189.789 484.832 190.007 485.093 190.183C485.354 190.357 485.65 190.483 485.964 190.553L487.868 190.913V191.21C488.204 191.249 488.325 191.577 488.273 191.882C488.221 192.187 487.868 192.296 487.532 192.25L484.87 191.749C484.556 191.679 484.26 191.553 483.999 191.379C483.738 191.204 483.519 190.984 483.353 190.732C483.185 190.48 483.076 190.2 483.029 189.909C482.982 189.618 482.999 189.322 483.079 189.036Z" fill="black"/>
<path d="M487.42 175.074L485.043 200.145C484.876 201.901 485.386 203.654 486.486 205.106C487.586 206.558 489.207 207.618 491.073 208.104L492.796 208.557L491.348 220.096L503.658 218.588L517.811 219.604L516.244 189.06L500.531 175.402L487.42 175.074Z" fill="#FC9D9D"/>
<path opacity="0.15" d="M503.367 191.336L503.022 192.117C501.831 192.443 500.619 192.704 499.395 192.899L503.944 198.028L503.367 191.336Z" fill="black"/>
<path d="M483.803 187.997C483.951 187.995 484.095 187.947 484.212 187.862C484.327 187.777 484.407 187.66 484.441 187.528L486.577 178.928C486.595 178.853 486.598 178.774 486.582 178.698C486.568 178.622 486.536 178.549 486.489 178.484C486.443 178.419 486.382 178.364 486.311 178.321C486.24 178.277 486.161 178.247 486.077 178.232C485.993 178.215 485.907 178.214 485.822 178.227C485.737 178.24 485.657 178.269 485.585 178.311C485.512 178.353 485.45 178.408 485.401 178.473C485.353 178.537 485.319 178.609 485.302 178.686L483.166 187.285C483.13 187.438 483.162 187.599 483.255 187.731C483.349 187.862 483.497 187.955 483.665 187.989L483.803 187.997Z" fill="black"/>
<path d="M485.186 182.085L484.903 183.237L499.544 186.188L499.827 185.035L485.186 182.085Z" fill="black"/>
<path opacity="0.15" d="M492.803 208.559L498.205 208.465C498.574 208.457 498.941 208.532 499.271 208.683C499.602 208.834 499.886 209.056 500.1 209.331C500.313 209.604 500.449 209.922 500.496 210.256C500.542 210.589 500.498 210.926 500.367 211.241L498.394 215.931H491.873L492.803 208.559Z" fill="black"/>
<path d="M503.365 191.336L503.942 198.02L516.924 201.874C516.924 201.874 524.789 199.568 526.451 190.358L501.41 179.679L499.799 185.003L503.365 191.336Z" fill="#3F4249"/>
<path d="M498.403 189.186C497.679 191.415 496.895 193.041 500.126 193.095C506.337 193.095 507.586 185.661 504.123 183.949C503.761 183.74 503.354 183.605 502.931 183.553C502.506 183.501 502.074 183.533 501.665 183.646C501.256 183.76 500.879 183.952 500.559 184.211C500.24 184.47 499.986 184.788 499.816 185.145L498.403 189.186Z" fill="#FC9D9D"/>
<path opacity="0.3" d="M500.222 188.309C500.308 187.585 500.585 186.89 501.031 186.285C501.4 185.841 501.926 185.526 502.522 185.393C502.832 185.364 503.146 185.393 503.443 185.481C503.74 185.569 504.013 185.712 504.245 185.902C504.319 185.984 504.364 186.084 504.375 186.191C504.386 186.296 504.362 186.403 504.305 186.496C504.184 186.691 503.969 186.676 503.754 186.558C503.605 186.418 503.42 186.31 503.217 186.247C503.013 186.183 502.796 186.164 502.582 186.191C502.263 186.191 502.022 186.449 501.66 186.816C501.284 187.302 501.052 187.868 500.988 188.458L500.825 189.138C500.825 189.341 500.583 189.42 500.368 189.412C500.153 189.404 500.058 189.193 500.075 188.99L500.239 188.309" fill="black"/>
<path d="M486.602 167.601C486.602 163.09 490.211 159.431 494.656 159.431C495.267 159.431 495.876 159.506 496.465 159.65C497.405 158.477 498.648 157.532 500.083 156.895C501.519 156.258 503.105 155.95 504.702 155.997C506.299 156.044 507.859 156.445 509.246 157.165C510.634 157.885 511.805 158.902 512.66 160.127C514.501 158.497 516.979 157.595 519.551 157.618C522.02 157.56 524.412 158.396 526.202 159.94C527.991 161.483 529.033 163.609 529.096 165.85C529.093 167.134 528.744 168.398 528.079 169.532C531.757 170.314 534.428 172.612 534.428 175.356C534.428 177.748 532.395 179.812 529.432 180.829C530.153 181.227 530.75 181.785 531.168 182.451C531.586 183.118 531.809 183.87 531.818 184.636C531.785 185.682 531.368 186.688 530.633 187.494C529.898 188.3 528.886 188.86 527.76 189.084C527.76 189.131 527.76 189.178 527.76 189.225C527.769 189.99 527.461 190.73 526.896 191.298C526.331 191.866 525.552 192.221 524.713 192.292C523.873 192.362 523.035 192.144 522.364 191.68C521.694 191.217 521.24 190.541 521.093 189.788C520.594 189.957 520.066 190.044 519.534 190.046C517.079 190.046 514.977 188.232 514.107 185.652C513.788 185.652 513.469 185.691 513.151 185.691C509.093 185.691 505.751 183.893 505.157 181.54C504.709 181.599 504.257 181.631 503.804 181.634C499.497 181.634 496.051 179.132 495.948 176.028C494.753 176.875 493.278 177.332 491.761 177.326C490.913 177.344 490.069 177.21 489.278 176.931C488.486 176.652 487.764 176.236 487.15 175.703C486.536 175.171 486.044 174.534 485.702 173.829C485.359 173.125 485.173 172.366 485.154 171.596C485.156 170.266 485.685 168.981 486.645 167.976C486.61 167.843 486.602 167.718 486.602 167.601Z" fill="black"/>
<path d="M527.623 222.442L540.493 224.787C542.906 225.212 545.27 225.838 547.557 226.656C548.059 226.824 548.544 227.033 549.004 227.281C551.588 228.774 552.768 231.041 553.802 233.731L567.327 265.705L543.37 277.338L530.035 252.869L515.563 249.132L527.623 222.442Z" fill="#3F4249"/>
<path d="M545.715 226.149L521.491 220.505L519.234 216.244C519.145 216.073 519.003 215.928 518.826 215.826C518.649 215.726 518.444 215.672 518.235 215.673L491.531 215.955C491.347 215.958 491.166 216.005 491.006 216.092C490.848 216.178 490.717 216.3 490.626 216.447L488.43 220.02L463.061 223.03C457.462 223.694 452.304 226.137 448.503 229.925L429.913 248.453L450.475 271.008L455.196 268.131V345.073H539.547L544.905 277.058C544.905 277.058 552.227 227.251 545.715 226.149Z" fill="#3F4249"/>
<path opacity="0.3" d="M458.657 259.397C459.222 259.053 459.878 258.852 460.557 258.815C461.236 258.777 461.913 258.905 462.521 259.185C463.127 259.465 463.64 259.886 464.007 260.405C464.374 260.925 464.583 261.524 464.61 262.141L464.989 270.474L467.762 345.072H455.194V268.129L450.413 270.943L446.571 266.73L458.657 259.397Z" fill="black"/>
<path d="M369.122 241.525L392.337 240.931L378.494 228.579L365.091 214.882L355.184 205.501C355.049 205.33 354.877 205.186 354.678 205.078C354.478 204.971 354.256 204.903 354.026 204.878C353.796 204.853 353.562 204.872 353.341 204.934C353.118 204.996 352.913 205.099 352.739 205.237C352.564 205.375 352.422 205.545 352.324 205.735C352.226 205.926 352.172 206.133 352.167 206.344C352.162 206.554 352.205 206.763 352.295 206.957C352.385 207.151 352.517 207.326 352.686 207.471C354.512 209.378 357.381 212.482 360.353 215.562C359.92 215.408 359.453 215.353 358.992 215.4C358.53 215.447 358.088 215.595 357.705 215.833C357.32 216.07 357.007 216.389 356.79 216.762C356.572 217.134 356.459 217.549 356.459 217.97C356.457 218.306 356.531 218.639 356.674 218.947C356.241 218.734 355.754 218.627 355.262 218.636C354.77 218.646 354.288 218.771 353.865 219.001C353.443 219.231 353.093 219.556 352.852 219.946C352.61 220.336 352.484 220.776 352.488 221.222C352.485 221.488 352.532 221.752 352.626 222.004C352.115 221.784 351.544 221.707 350.984 221.781C350.425 221.854 349.902 222.076 349.482 222.418C347.759 223.81 349.817 226.757 350.86 227.953C354.736 232.425 369.122 241.525 369.122 241.525Z" fill="#FC9D9D"/>
<path opacity="0.15" d="M350.774 221.785C351.48 226.992 368.424 237.898 368.424 237.898L409.463 279.394C414.261 284.194 421.574 282.842 427.26 278.925C427.26 278.925 445.858 267.41 446.978 266.73L450.096 270.912C448.968 271.6 425.115 286.313 425.115 286.313C422.418 287.631 419.31 288.086 416.294 287.604C413.277 287.121 410.527 285.731 408.489 283.655L369.122 241.525C369.122 241.525 354.573 232.386 350.765 227.813C349.628 226.445 347.845 223.708 349.482 222.395C349.843 222.088 350.29 221.877 350.774 221.785Z" fill="black"/>
<path opacity="0.15" d="M546.902 226.351C548.978 227.305 549.487 227.195 551.149 229.064C553.466 236.514 552.95 270.177 549.892 278.316L557.644 289.901C557.79 290.131 557.836 290.401 557.774 290.66C557.712 290.919 557.546 291.148 557.308 291.301L552.605 294.319L546.782 283.421L544.646 279.512C544.646 279.512 552.984 228.79 546.902 226.351Z" fill="black"/>
<path d="M469.829 249.022C470.691 249.726 471.552 250.461 472.413 251.211C472.861 251.548 473.262 251.931 473.611 252.353C473.95 252.816 474.187 253.333 474.309 253.877L474.222 253.94C473.656 253.732 473.138 253.426 472.698 253.041C472.311 252.647 471.97 252.217 471.681 251.759C471.027 250.883 470.381 250 469.786 249.093L469.829 249.022Z" fill="white"/>
<path d="M472.269 248.312C472.846 248.789 473.415 249.274 473.992 249.774C474.294 250.003 474.564 250.265 474.793 250.556C475.021 250.863 475.18 251.209 475.258 251.573H475.198C474.821 251.437 474.477 251.232 474.19 250.971C473.924 250.713 473.696 250.427 473.509 250.118C473.07 249.54 472.648 248.946 472.243 248.344L472.269 248.312Z" fill="white"/>
<path d="M517.847 310.299C518.708 311.002 519.57 311.745 520.379 312.488C520.826 312.828 521.228 313.213 521.577 313.637C521.92 314.095 522.16 314.611 522.283 315.154L522.188 315.224C521.623 315.013 521.108 314.705 520.672 314.317C520.275 313.93 519.934 313.499 519.656 313.035C519.001 312.159 518.355 311.284 517.752 310.369L517.847 310.299Z" fill="white"/>
<path d="M520.284 309.627C520.861 310.096 521.421 310.58 522.007 311.081C522.305 311.312 522.571 311.575 522.799 311.862C523.026 312.168 523.184 312.511 523.264 312.871L523.204 312.918C522.828 312.779 522.485 312.575 522.196 312.316C521.933 312.057 521.705 311.772 521.516 311.464C521.076 310.885 520.654 310.291 520.258 309.689L520.284 309.627Z" fill="white"/>
<path d="M532.972 263.149C533.833 263.853 534.695 264.595 535.504 265.338C535.958 265.674 536.363 266.06 536.71 266.487C537.051 266.946 537.288 267.462 537.408 268.004L537.322 268.074C536.754 267.864 536.238 267.556 535.797 267.167C535.406 266.777 535.065 266.347 534.781 265.885C534.126 265.01 533.48 264.134 532.886 263.219L532.972 263.149Z" fill="white"/>
<path d="M535.376 262.477C535.954 262.947 536.522 263.431 537.099 263.932C537.399 264.162 537.669 264.425 537.9 264.713C538.127 265.018 538.285 265.361 538.366 265.722L538.305 265.769C537.931 265.626 537.589 265.422 537.297 265.167C537.031 264.91 536.803 264.623 536.617 264.315C536.178 263.736 535.755 263.142 535.351 262.54L535.376 262.477Z" fill="white"/>
<path d="M555.5 260.891C556.361 261.595 557.223 262.33 558.033 263.073C558.481 263.41 558.884 263.796 559.23 264.222C559.571 264.681 559.811 265.196 559.936 265.738L559.842 265.809C559.277 265.598 558.761 265.29 558.326 264.902C557.928 264.515 557.586 264.084 557.309 263.62C556.654 262.752 556.008 261.869 555.405 260.954L555.5 260.891Z" fill="white"/>
<path d="M557.937 260.21C558.514 260.679 559.074 261.172 559.66 261.665C559.958 261.895 560.224 262.158 560.452 262.446C560.68 262.751 560.837 263.094 560.917 263.455L560.857 263.502C560.481 263.363 560.138 263.158 559.849 262.9C559.587 262.641 559.358 262.355 559.169 262.048C558.738 261.469 558.307 260.875 557.911 260.273L557.937 260.21Z" fill="white"/>
<path d="M518.286 245.371C519.148 246.075 520.009 246.818 520.819 247.56C521.267 247.896 521.669 248.279 522.016 248.702C522.357 249.164 522.598 249.681 522.723 250.226L522.628 250.297C522.063 250.086 521.548 249.778 521.112 249.39C520.716 249.001 520.375 248.571 520.095 248.108C519.44 247.232 518.794 246.356 518.191 245.442L518.286 245.371Z" fill="white"/>
<path d="M520.732 244.7C521.309 245.169 521.869 245.654 522.455 246.154C522.75 246.386 523.016 246.649 523.247 246.936C523.474 247.243 523.632 247.588 523.712 247.952L523.652 247.999C523.278 247.855 522.937 247.651 522.644 247.397C522.383 247.134 522.155 246.845 521.964 246.537C521.533 245.958 521.102 245.372 520.706 244.762L520.732 244.7Z" fill="white"/>
<path d="M493.53 236.211C493.582 237.274 493.573 238.329 493.53 239.385C493.568 239.907 493.542 240.431 493.453 240.948C493.32 241.491 493.074 242.005 492.729 242.465H492.608C492.381 241.95 492.27 241.4 492.281 240.847C492.31 240.315 492.415 239.79 492.591 239.283C492.832 238.251 493.082 237.219 493.392 236.195L493.53 236.211Z" fill="white"/>
<path d="M495.75 237.336C495.75 238.047 495.75 238.751 495.75 239.454C495.78 239.804 495.763 240.155 495.698 240.502C495.615 240.863 495.454 241.205 495.224 241.51H495.147C494.995 241.167 494.92 240.8 494.923 240.431C494.945 240.078 495.014 239.729 495.13 239.392C495.285 238.704 495.466 238.023 495.664 237.336H495.75Z" fill="white"/>
<path d="M447.907 253.236C447.907 254.299 447.907 255.355 447.907 256.41C447.945 256.932 447.919 257.457 447.829 257.974C447.697 258.517 447.451 259.031 447.106 259.49H446.994C446.764 258.977 446.65 258.426 446.658 257.872C446.692 257.342 446.796 256.817 446.968 256.309C447.209 255.277 447.459 254.245 447.769 253.181L447.907 253.236Z" fill="white"/>
<path d="M450.095 254.362C450.095 255.073 450.095 255.777 450.095 256.481C450.121 256.831 450.103 257.182 450.043 257.528C449.956 257.889 449.792 258.232 449.56 258.537H449.483C449.331 258.193 449.255 257.828 449.259 257.458C449.281 257.105 449.351 256.756 449.466 256.418C449.621 255.73 449.802 255.05 450 254.362H450.095Z" fill="white"/>
<path d="M536.066 230.018C536.118 231.081 536.109 232.137 536.066 233.192C536.105 233.714 536.079 234.239 535.989 234.756C535.856 235.298 535.61 235.813 535.265 236.272H535.144C534.918 235.758 534.807 235.208 534.817 234.654C534.847 234.123 534.951 233.598 535.127 233.091C535.368 232.059 535.618 231.027 535.928 229.963L536.066 230.018Z" fill="white"/>
<path d="M538.298 231.144C538.298 231.855 538.298 232.559 538.298 233.262C538.328 233.612 538.311 233.964 538.246 234.31C538.162 234.671 538.001 235.014 537.772 235.318H537.695C537.543 234.975 537.467 234.609 537.471 234.24C537.492 233.886 537.562 233.538 537.678 233.2C537.833 232.512 538.014 231.832 538.212 231.144H538.298Z" fill="white"/>
<path d="M496.259 288.745C496.259 289.808 496.259 290.864 496.259 291.919C496.3 292.441 496.274 292.966 496.181 293.483C496.049 294.023 495.802 294.535 495.458 294.992H495.346C495.12 294.474 495.006 293.922 495.01 293.366C495.043 292.835 495.147 292.309 495.32 291.802C495.561 290.762 495.811 289.73 496.121 288.675L496.259 288.745Z" fill="white"/>
<path d="M498.48 289.87C498.48 290.574 498.48 291.277 498.48 291.981C498.506 292.331 498.489 292.682 498.429 293.029C498.343 293.391 498.18 293.733 497.946 294.037H497.869C497.717 293.694 497.641 293.328 497.645 292.958C497.671 292.608 497.74 292.262 497.851 291.926C498.006 291.238 498.187 290.55 498.386 289.87H498.48Z" fill="white"/>
<path d="M527.624 337.676C527.676 338.739 527.624 339.795 527.624 340.85C527.662 341.372 527.635 341.897 527.546 342.414C527.414 342.956 527.168 343.471 526.823 343.93H526.702C526.475 343.416 526.364 342.865 526.375 342.312C526.404 341.781 526.508 341.256 526.685 340.748C526.926 339.716 527.176 338.685 527.486 337.621L527.624 337.676Z" fill="white"/>
<path d="M529.829 338.803C529.829 339.507 529.829 340.218 529.829 340.914C529.859 341.267 529.842 341.621 529.777 341.97C529.693 342.331 529.532 342.673 529.304 342.978H529.226C529.075 342.635 528.999 342.268 529.002 341.899C529.023 341.546 529.093 341.196 529.209 340.859C529.364 340.171 529.545 339.483 529.743 338.803H529.829Z" fill="white"/>
<path d="M467.643 329.116C467.695 330.18 467.643 331.235 467.643 332.29C467.68 332.813 467.655 333.337 467.566 333.854C467.435 334.395 467.188 334.907 466.842 335.363H466.722C466.495 334.848 466.384 334.298 466.394 333.744C466.424 333.214 466.528 332.688 466.704 332.181C466.946 331.149 467.195 330.117 467.505 329.054L467.643 329.116Z" fill="white"/>
<path d="M469.907 330.242C469.907 330.946 469.907 331.649 469.907 332.353C469.937 332.705 469.92 333.06 469.856 333.408C469.772 333.766 469.611 334.106 469.382 334.409H469.304C469.153 334.066 469.076 333.699 469.08 333.33C469.103 332.979 469.172 332.633 469.287 332.298C469.442 331.61 469.623 330.922 469.821 330.242H469.907Z" fill="white"/>
<path d="M504.77 263.729C504.098 264.597 503.383 265.433 502.659 266.262C502.341 266.703 501.968 267.11 501.548 267.474C501.074 267.821 500.534 268.086 499.955 268.256L499.877 268.178C500.055 267.64 500.348 267.142 500.738 266.708C501.12 266.31 501.551 265.953 502.022 265.645C502.883 264.957 503.796 264.276 504.727 263.628L504.77 263.729Z" fill="white"/>
<path d="M505.786 265.848C505.33 266.426 504.865 266.989 504.382 267.536C504.17 267.822 503.921 268.085 503.641 268.318C503.329 268.557 502.97 268.74 502.582 268.858L502.53 268.803C502.635 268.446 502.82 268.114 503.073 267.826C503.331 267.56 503.619 267.322 503.934 267.114C504.52 266.653 505.123 266.207 505.735 265.777L505.786 265.848Z" fill="white"/>
<path d="M482.752 310.611C482.08 311.486 481.366 312.315 480.643 313.144C480.327 313.587 479.954 313.994 479.531 314.355C479.063 314.706 478.524 314.972 477.946 315.137L477.859 315.067C478.021 314.532 478.3 314.033 478.679 313.597C479.059 313.197 479.49 312.837 479.961 312.526C480.823 311.838 481.737 311.158 482.667 310.517L482.752 310.611Z" fill="white"/>
<path d="M483.768 312.729C483.32 313.308 482.846 313.871 482.364 314.418C482.153 314.706 481.904 314.968 481.623 315.2C481.311 315.441 480.951 315.623 480.563 315.739L480.512 315.692C480.624 315.337 480.807 315.003 481.054 314.707C481.308 314.441 481.597 314.205 481.916 314.004C482.493 313.542 483.096 313.089 483.716 312.659L483.768 312.729Z" fill="white"/>
<path d="M507.164 323.292C506.493 324.168 505.778 325.004 505.054 325.833C504.734 326.272 504.361 326.679 503.943 327.045C503.475 327.395 502.937 327.661 502.358 327.826L502.271 327.756C502.435 327.221 502.713 326.722 503.09 326.286C503.469 325.886 503.9 325.529 504.373 325.223C505.235 324.535 506.148 323.847 507.078 323.206L507.164 323.292Z" fill="white"/>
<path d="M508.182 325.411C507.734 325.982 507.26 326.545 506.778 327.092C506.565 327.378 506.317 327.64 506.037 327.874C505.725 328.112 505.365 328.292 504.977 328.406L504.926 328.359C505.037 328.004 505.22 327.672 505.468 327.382C505.722 327.113 506.011 326.873 506.33 326.67C506.907 326.209 507.51 325.763 508.13 325.325L508.182 325.411Z" fill="white"/>
<path d="M462.405 229.236C461.733 230.104 461.018 230.941 460.294 231.769C459.979 232.212 459.606 232.618 459.183 232.981C458.714 233.33 458.176 233.595 457.598 233.763L457.512 233.692C457.675 233.155 457.954 232.653 458.33 232.215C458.712 231.817 459.142 231.46 459.614 231.152C460.475 230.464 461.388 229.784 462.318 229.135L462.405 229.236Z" fill="white"/>
<path d="M463.42 231.355C462.972 231.933 462.498 232.496 462.016 233.044C461.806 233.33 461.557 233.593 461.275 233.825C460.963 234.064 460.603 234.247 460.216 234.365L460.164 234.31C460.275 233.955 460.459 233.624 460.707 233.333C460.961 233.066 461.25 232.829 461.568 232.629C462.145 232.168 462.748 231.715 463.36 231.285L463.42 231.355Z" fill="white"/>
<path d="M526.089 287.237C525.417 288.113 524.702 288.941 523.979 289.77C523.663 290.213 523.29 290.62 522.867 290.982C522.398 291.331 521.86 291.596 521.282 291.764L521.196 291.693C521.373 291.154 521.666 290.651 522.058 290.216C522.439 289.818 522.87 289.46 523.341 289.152C524.203 288.465 525.116 287.784 526.046 287.143L526.089 287.237Z" fill="white"/>
<path d="M527.107 289.354C526.659 289.933 526.185 290.496 525.703 291.043C525.492 291.331 525.243 291.592 524.962 291.825C524.649 292.063 524.29 292.246 523.902 292.364L523.851 292.317C523.959 291.96 524.143 291.625 524.393 291.332C524.647 291.066 524.936 290.829 525.255 290.629C525.832 290.167 526.435 289.714 527.046 289.284L527.107 289.354Z" fill="white"/>
<path d="M476.938 268.919C476.266 269.786 475.552 270.623 474.828 271.452C474.509 271.893 474.137 272.3 473.716 272.663C473.245 273.01 472.708 273.275 472.132 273.445L472.045 273.367C472.21 272.834 472.489 272.334 472.864 271.897C473.245 271.499 473.676 271.143 474.147 270.834C475.008 270.146 475.922 269.466 476.853 268.817L476.938 268.919Z" fill="white"/>
<path d="M477.953 271.037C477.506 271.616 477.032 272.179 476.549 272.726C476.337 273.012 476.088 273.275 475.808 273.508C475.495 273.746 475.136 273.93 474.749 274.047L474.697 273.992C474.806 273.637 474.99 273.306 475.24 273.015C475.497 272.75 475.786 272.512 476.101 272.304C476.687 271.842 477.29 271.397 477.902 270.967L477.953 271.037Z" fill="white"/>
<path d="M463.791 291.888C463.119 292.756 462.404 293.592 461.689 294.421C461.371 294.864 460.994 295.271 460.57 295.633C460.103 295.984 459.563 296.25 458.985 296.414L458.898 296.344C459.061 295.808 459.339 295.306 459.717 294.867C460.101 294.469 460.534 294.112 461.009 293.803C461.87 293.115 462.775 292.435 463.705 291.786L463.791 291.888Z" fill="white"/>
<path d="M464.809 294.007C464.361 294.585 463.896 295.148 463.413 295.695C463.197 295.981 462.946 296.243 462.664 296.477C462.356 296.717 461.998 296.901 461.613 297.016L461.553 296.962C461.666 296.609 461.851 296.278 462.095 295.984C462.35 295.72 462.64 295.484 462.957 295.281C463.543 294.82 464.137 294.366 464.757 293.936L464.809 294.007Z" fill="white"/>
<path opacity="0.15" d="M489.722 220.871L520.733 220.379" stroke="black" stroke-width="0.81" stroke-miterlimit="10"/>
<path opacity="0.15" d="M415.991 262.055L419.316 264.4C419.361 264.43 419.415 264.447 419.471 264.446C419.526 264.446 419.58 264.429 419.623 264.397C419.667 264.365 419.698 264.322 419.711 264.273C419.724 264.224 419.719 264.172 419.695 264.126L417.576 260.483L415.991 262.055Z" fill="black"/>
<path d="M151.517 416.964H107.343V555.581H151.517V416.964Z" fill="#DADDDF"/>
<path opacity="0.2" d="M151.517 416.964H107.343V555.581H151.517V416.964Z" fill="black"/>
<path d="M145.478 419.161H101.683C101.084 419.104 100.527 418.848 100.124 418.441C99.7201 418.036 99.4961 417.507 99.4961 416.96C99.4961 416.413 99.7201 415.884 100.124 415.478C100.527 415.072 101.084 414.816 101.683 414.759H145.478V419.161Z" fill="#DADDDF"/>
<path opacity="0.2" d="M145.478 419.161H101.683C101.084 419.104 100.527 418.848 100.124 418.441C99.7201 418.036 99.4961 417.507 99.4961 416.96C99.4961 416.413 99.7201 415.884 100.124 415.478C100.527 415.072 101.084 414.816 101.683 414.759H145.478V419.161Z" fill="black"/>
<path d="M340.806 416.964H150.182V555.581H340.806V416.964Z" fill="#DADDDF"/>
<path opacity="0.2" d="M150.061 423.93L150.181 419.161H340.806V421.304L150.061 423.93Z" fill="black"/>
<path opacity="0.3" d="M334.483 482.032H157.374V544.715H334.483V482.032Z" fill="black"/>
<path d="M345.864 419.161H145.419C144.819 419.104 144.263 418.848 143.859 418.441C143.455 418.036 143.231 417.507 143.231 416.96C143.231 416.413 143.455 415.884 143.859 415.478C144.263 415.072 144.819 414.816 145.419 414.759H345.864C346.464 414.816 347.02 415.072 347.424 415.478C347.828 415.884 348.051 416.413 348.051 416.96C348.051 417.507 347.828 418.036 347.424 418.441C347.02 418.848 346.464 419.104 345.864 419.161Z" fill="#DADDDF"/>
<path d="M246.118 455.045C245.375 455.047 244.647 454.847 244.028 454.474C243.409 454.1 242.927 453.568 242.642 452.944C242.356 452.321 242.281 451.635 242.425 450.973C242.57 450.311 242.928 449.703 243.454 449.226C243.979 448.749 244.65 448.424 245.379 448.293C246.108 448.161 246.864 448.23 247.551 448.488C248.237 448.748 248.824 449.186 249.236 449.748C249.648 450.309 249.867 450.969 249.865 451.644C249.863 452.545 249.468 453.409 248.765 454.047C248.063 454.684 247.112 455.043 246.118 455.045Z" fill="#B2B6BB"/>
<path opacity="0.2" d="M244.698 451.644C244.703 450.93 244.956 450.236 245.42 449.659C245.883 449.083 246.535 448.653 247.282 448.43C246.896 448.302 246.487 448.238 246.076 448.243C245.082 448.243 244.129 448.602 243.427 449.239C242.724 449.877 242.329 450.742 242.329 451.644C242.329 452.546 242.724 453.411 243.427 454.048C244.129 454.686 245.082 455.044 246.076 455.044C246.487 455.049 246.896 454.986 247.282 454.857C246.542 454.624 245.899 454.191 245.437 453.617C244.975 453.043 244.717 452.354 244.698 451.644Z" fill="black"/>
<path d="M114.622 555.643L110.772 593.951C110.64 594.511 110.748 595.097 111.074 595.588C111.4 596.08 111.92 596.441 112.529 596.597C113.137 596.753 113.788 596.693 114.35 596.43C114.912 596.166 115.342 595.719 115.553 595.178L126.613 555.62L114.622 555.643Z" fill="#DADDDF"/>
<path opacity="0.2" d="M116.051 577.917L120.686 576.877L126.715 555.582H114.656L110.805 593.889C110.697 594.394 110.779 594.918 111.038 595.376C111.298 595.833 111.719 596.199 112.235 596.414L116.051 577.917Z" fill="black"/>
<path d="M157.789 555.643L153.93 593.951C153.856 594.278 153.863 594.617 153.95 594.941C154.038 595.266 154.204 595.569 154.436 595.828C154.669 596.088 154.962 596.297 155.294 596.442C155.627 596.586 155.99 596.662 156.359 596.663C156.872 596.67 157.376 596.53 157.798 596.264C158.22 595.997 158.539 595.617 158.711 595.178L169.771 555.62L157.789 555.643Z" fill="#DADDDF"/>
<path opacity="0.2" d="M161.776 559.85L168.625 558.685L169.77 555.644H157.71L153.86 593.951C153.762 594.456 153.848 594.976 154.106 595.433C154.365 595.889 154.781 596.255 155.29 596.477L161.776 559.85Z" fill="black"/>
<path d="M334.483 555.644H322.501L333.562 595.202C333.733 595.642 334.052 596.022 334.474 596.288C334.896 596.555 335.399 596.695 335.913 596.688C336.282 596.686 336.646 596.611 336.978 596.466C337.311 596.323 337.604 596.113 337.835 595.853C338.068 595.594 338.234 595.291 338.322 594.965C338.409 594.641 338.417 594.302 338.343 593.975L334.483 555.644Z" fill="#DADDDF"/>
<path opacity="0.2" d="M328.04 559.85L334.785 558.576L334.483 555.644H322.501L333.191 593.826C333.846 595.992 334.475 596.688 335.913 596.688L328.04 559.85Z" fill="black"/>
<path d="M288.147 555.643L291.998 593.951C292.072 594.278 292.065 594.617 291.977 594.941C291.889 595.266 291.723 595.569 291.491 595.828C291.259 596.088 290.966 596.297 290.633 596.442C290.301 596.586 289.937 596.662 289.569 596.663C289.054 596.67 288.551 596.53 288.129 596.264C287.707 595.997 287.388 595.617 287.217 595.178L276.156 555.62L288.147 555.643Z" fill="#DADDDF"/>
<path opacity="0.2" d="M286.071 576.041L290.137 575.134L288.207 555.644H276.147L287.208 595.202C287.38 595.642 287.699 596.022 288.12 596.288C288.542 596.555 289.046 596.695 289.56 596.688H289.706L286.071 576.041Z" fill="black"/>
<g opacity="0.2">
<path opacity="0.2" d="M283.634 482.032H281.945V544.152H283.634V482.032Z" fill="black"/>
</g>
<path d="M249.444 489.669H196.44V544.089H249.444V489.669Z" fill="#0D5FAA"/>
<path opacity="0.2" d="M249.461 489.669H235.032V544.089H249.461V489.669Z" fill="black"/>
<path d="M230.079 495.909H200.472V544.09H230.079V495.909Z" fill="#0D5FAA"/>
<path opacity="0.2" d="M230.328 495.909H222.214V544.09H230.328V495.909Z" fill="black"/>
<path d="M209.18 544.089H166.91L174.327 498.668H216.597L209.18 544.089Z" fill="#0D5FAA"/>
<path opacity="0.2" d="M197.431 544.089H209.516L216.451 498.668H204.374L197.431 544.089Z" fill="black"/>
<path d="M318.522 500.013H275.123V544.09H318.522V500.013Z" fill="#0D5FAA"/>
<path opacity="0.2" d="M318.108 500.013H306.401V544.09H318.108V500.013Z" fill="black"/>
<path d="M291.568 505.077H261.375V544.151H291.568V505.077Z" fill="#0D5FAA"/>
<path opacity="0.2" d="M291.792 505.077H280.576V544.151H291.792V505.077Z" fill="black"/>
<g opacity="0.2">
<path opacity="0.2" d="M335.361 475.151H156.796V428.135H335.361V475.151ZM158.484 473.587H333.681V429.667H158.484V473.587Z" fill="black"/>
</g>
<path d="M253.949 299.056H205.115C205.048 299.055 204.98 299.066 204.918 299.089C204.856 299.112 204.8 299.146 204.752 299.189C204.705 299.232 204.668 299.284 204.643 299.34C204.618 299.396 204.605 299.456 204.607 299.517V369.307C204.607 369.429 204.66 369.547 204.755 369.633C204.85 369.72 204.98 369.768 205.115 369.768H266.104C266.238 369.768 266.367 369.72 266.463 369.633C266.558 369.547 266.612 369.429 266.612 369.307V310.431L253.949 299.056Z" fill="#0D5FAA"/>
<path d="M254.647 314.91H215.392C215.193 314.91 215.003 314.982 214.862 315.109C214.722 315.237 214.643 315.41 214.643 315.59V315.629C214.643 315.81 214.721 315.984 214.861 316.113C215.002 316.242 215.192 316.315 215.392 316.317H254.647C254.847 316.315 255.037 316.242 255.178 316.113C255.318 315.984 255.397 315.81 255.397 315.629V315.59C255.397 315.41 255.317 315.237 255.177 315.109C255.037 314.982 254.846 314.91 254.647 314.91Z" fill="#F4F4F4"/>
<path d="M254.647 358.689H215.392C215.193 358.689 215.003 358.761 214.862 358.889C214.722 359.016 214.643 359.19 214.643 359.37V359.409C214.643 359.59 214.721 359.764 214.861 359.893C215.002 360.022 215.192 360.095 215.392 360.097H254.647C254.847 360.095 255.037 360.022 255.178 359.893C255.318 359.764 255.397 359.59 255.397 359.409V359.37C255.397 359.19 255.317 359.016 255.177 358.889C255.037 358.761 254.846 358.689 254.647 358.689Z" fill="#F4F4F4"/>
<path d="M254.647 322.134H215.392C215.193 322.134 215.003 322.205 214.862 322.333C214.722 322.461 214.643 322.634 214.643 322.814V322.853C214.643 322.943 214.662 323.031 214.699 323.113C214.737 323.196 214.792 323.271 214.862 323.334C214.932 323.397 215.014 323.448 215.105 323.481C215.196 323.516 215.294 323.534 215.392 323.534H254.647C254.745 323.534 254.843 323.516 254.934 323.481C255.024 323.448 255.107 323.397 255.177 323.334C255.247 323.271 255.302 323.196 255.34 323.113C255.377 323.031 255.397 322.943 255.397 322.853V322.814C255.397 322.634 255.317 322.461 255.177 322.333C255.037 322.205 254.846 322.134 254.647 322.134Z" fill="#F4F4F4"/>
<path d="M254.647 329.257H215.392C215.193 329.257 215.003 329.329 214.862 329.456C214.722 329.584 214.643 329.756 214.643 329.937C214.642 330.027 214.66 330.116 214.697 330.2C214.734 330.283 214.789 330.359 214.859 330.423C214.929 330.487 215.011 330.537 215.103 330.573C215.195 330.607 215.293 330.625 215.392 330.625H254.647C254.746 330.625 254.844 330.607 254.936 330.573C255.027 330.537 255.111 330.487 255.18 330.423C255.25 330.359 255.305 330.283 255.342 330.2C255.379 330.116 255.397 330.027 255.397 329.937C255.397 329.756 255.317 329.584 255.177 329.456C255.037 329.329 254.846 329.257 254.647 329.257Z" fill="#F4F4F4"/>
<path d="M254.647 344.024H215.392C215.193 344.024 215.003 344.095 214.862 344.223C214.722 344.351 214.643 344.524 214.643 344.704V344.743C214.643 344.923 214.722 345.097 214.862 345.224C215.003 345.351 215.193 345.423 215.392 345.423H254.647C254.846 345.423 255.037 345.351 255.177 345.224C255.317 345.097 255.397 344.923 255.397 344.743V344.704C255.397 344.524 255.317 344.351 255.177 344.223C255.037 344.095 254.846 344.024 254.647 344.024Z" fill="#F4F4F4"/>
<path d="M254.647 351.147H215.392C215.193 351.147 215.003 351.219 214.862 351.346C214.722 351.474 214.643 351.646 214.643 351.827C214.642 351.917 214.66 352.006 214.697 352.09C214.734 352.173 214.789 352.249 214.859 352.312C214.929 352.377 215.011 352.427 215.103 352.463C215.195 352.497 215.293 352.515 215.392 352.515H254.647C254.746 352.515 254.844 352.497 254.936 352.463C255.027 352.427 255.111 352.377 255.18 352.312C255.25 352.249 255.305 352.173 255.342 352.09C255.379 352.006 255.397 351.917 255.397 351.827C255.397 351.646 255.317 351.474 255.177 351.346C255.037 351.219 254.846 351.147 254.647 351.147Z" fill="#F4F4F4"/>
<path d="M249.384 336.479H219.475C219.276 336.479 219.086 336.551 218.945 336.679C218.805 336.806 218.726 336.979 218.726 337.159C218.726 337.341 218.804 337.514 218.944 337.643C219.085 337.772 219.275 337.846 219.475 337.847H249.384C249.584 337.846 249.776 337.772 249.918 337.644C250.059 337.515 250.14 337.341 250.142 337.159C250.14 336.978 250.059 336.805 249.917 336.678C249.775 336.55 249.584 336.479 249.384 336.479Z" fill="#F4F4F4"/>
<path opacity="0.2" d="M253.69 299.056V310.322C253.69 310.383 253.702 310.443 253.727 310.499C253.752 310.556 253.79 310.607 253.837 310.65C253.884 310.693 253.941 310.727 254.003 310.75C254.065 310.773 254.132 310.784 254.199 310.783H266.612L253.69 299.056Z" fill="black"/>
<path d="M332.943 268.207C332.838 268.188 332.729 268.188 332.624 268.207L322.115 268.942C321.887 268.958 321.675 269.057 321.526 269.216C321.377 269.374 321.304 269.579 321.322 269.786C321.34 269.993 321.449 270.186 321.624 270.321C321.798 270.456 322.024 270.522 322.253 270.506L330.66 269.919L270.059 328.193C269.921 328.346 269.852 328.541 269.866 328.738C269.881 328.935 269.976 329.12 270.135 329.256C270.292 329.391 270.502 329.468 270.72 329.47C270.938 329.471 271.148 329.398 271.308 329.264L332.418 270.552L331.694 278.847C331.678 279.054 331.752 279.258 331.9 279.414C332.049 279.571 332.259 279.668 332.486 279.684H332.555C332.772 279.684 332.982 279.611 333.141 279.477C333.301 279.344 333.4 279.161 333.417 278.964L334.356 268.105L332.943 268.207Z" fill="#61656D"/>
<path d="M306.237 184.916C311.946 184.916 316.575 180.716 316.575 175.535C316.575 170.354 311.946 166.154 306.237 166.154C300.529 166.154 295.9 170.354 295.9 175.535C295.9 180.716 300.529 184.916 306.237 184.916Z" fill="#61656D"/>
<path d="M307.177 171.479H305.299V179.586H307.177V171.479Z" fill="#F4F4F4"/>
<path d="M310.7 174.683H301.767V176.387H310.7V174.683Z" fill="#F4F4F4"/>
<path opacity="0.2" d="M393.974 444.116H349.783V459.783H393.974V444.116Z" stroke="black" stroke-width="0.98" stroke-miterlimit="10"/>
</svg>
