<svg width="298" height="279" viewBox="0 0 298 279" fill="none" xmlns="http://www.w3.org/2000/svg">
<path d="M116.115 250.388L107.623 258.199L114.372 246.885C109.054 237.252 100.358 228.927 100.358 228.927C100.358 228.927 82.3164 246.196 82.3164 259.77C82.3164 273.345 90.3939 278.084 100.358 278.084C110.322 278.084 118.4 273.345 118.4 259.77C118.4 256.749 117.505 253.544 116.115 250.388Z" fill="#F2F2F2"/>
<path d="M105.44 258.622V259.291C105.4 267.068 104.087 273.137 101.511 277.41C101.475 277.473 101.435 277.532 101.398 277.595L101.11 277.42L100.835 277.247C103.693 272.633 104.704 266.111 104.74 259.327C104.744 259.108 104.747 258.887 104.744 258.665C104.734 255.793 104.558 252.888 104.276 250.066C104.256 249.847 104.233 249.625 104.21 249.403C103.819 245.68 103.255 242.122 102.678 239.032C102.638 238.813 102.595 238.595 102.552 238.379C101.554 233.152 100.536 229.366 100.304 228.528C100.278 228.425 100.261 228.369 100.258 228.356L100.573 228.266L100.576 228.263L100.894 228.174C100.898 228.187 100.954 228.376 101.047 228.727C101.402 230.039 102.323 233.599 103.229 238.296C103.268 238.508 103.311 238.727 103.351 238.946C103.822 241.453 104.283 244.256 104.648 247.197C104.74 247.936 104.823 248.664 104.896 249.383C104.923 249.605 104.946 249.827 104.966 250.046C105.271 253.096 105.429 255.955 105.44 258.622Z" fill="white"/>
<path d="M103.226 238.296C103.004 238.326 102.778 238.356 102.55 238.379C101.928 238.443 101.304 238.475 100.68 238.475C98.0179 238.479 95.3893 237.886 92.9875 236.74C92.8482 236.915 92.709 237.091 92.5664 237.27C95.093 238.502 97.868 239.141 100.68 239.138C101.346 239.138 102.013 239.102 102.676 239.032C102.901 239.009 103.126 238.979 103.349 238.946C105.182 238.683 106.965 238.143 108.637 237.346C108.494 237.164 108.355 236.985 108.219 236.809C106.637 237.548 104.955 238.049 103.226 238.296Z" fill="white"/>
<path d="M104.894 249.383C104.666 249.396 104.437 249.403 104.208 249.403C104.138 249.406 104.065 249.406 103.996 249.406C101.112 249.406 98.2704 248.71 95.714 247.376C93.1576 246.042 90.962 244.11 89.3145 241.745C89.1819 241.94 89.0492 242.136 88.9199 242.334C90.6372 244.727 92.9004 246.677 95.5221 248.022C98.1439 249.367 101.049 250.069 103.996 250.069C104.089 250.069 104.182 250.069 104.274 250.066C104.506 250.062 104.735 250.056 104.964 250.046C108.504 249.865 111.917 248.669 114.795 246.601C114.689 246.405 114.582 246.21 114.473 246.014C111.676 248.045 108.347 249.215 104.894 249.383Z" fill="white"/>
<path d="M105.437 258.622C105.205 258.642 104.973 258.655 104.741 258.665C104.492 258.675 104.244 258.681 103.995 258.681C100.119 258.677 96.3496 257.418 93.2499 255.094C90.1503 252.77 87.8875 249.506 86.8003 245.789C86.6512 246.058 86.502 246.323 86.3594 246.591C87.5843 250.299 89.9475 253.526 93.1134 255.816C96.2793 258.105 100.087 259.34 103.995 259.344C104.244 259.344 104.492 259.34 104.738 259.327C104.973 259.321 105.205 259.307 105.437 259.291C110.125 258.924 114.498 256.792 117.672 253.325C117.602 253.08 117.522 252.838 117.443 252.593C114.378 256.086 110.071 258.248 105.437 258.622Z" fill="white"/>
<path d="M297.982 0H0V157.726H297.982V0Z" fill="#E9EAF0"/>
<path d="M297.982 29.5237V27.9769H239.977V0H238.429V27.9769H180.423V0H178.875V27.9769H120.87V0H119.321V27.9769H61.3157V0H59.7675V27.9769H0V29.5237H59.7675V60.4311H0V61.9779H59.7675V92.8853H0V94.432H59.7675V125.334H0V126.881H59.7675V157.726H61.3157V126.881H119.321V157.726H120.87V126.881H178.875V157.726H180.423V126.881H238.429V157.726H239.977V126.881H297.982V125.334H239.977V94.432H297.982V92.8853H239.977V61.9779H297.982V60.4311H239.977V29.5238L297.982 29.5237ZM119.321 125.334H61.3157V94.432H119.321V125.334ZM119.321 92.8853H61.3157V61.9779H119.321V92.8853ZM119.321 60.4311H61.3157V29.5238H119.321V60.4311ZM178.875 125.334H120.87V94.4321H178.875V125.334ZM178.875 92.8853H120.87V61.9779H178.875V92.8853ZM178.875 60.4312H120.87V29.5238H178.875V60.4312ZM238.429 125.334H180.423V94.4321H238.429V125.334ZM238.429 92.8853H180.423V61.9779H238.429V92.8853ZM238.429 60.4312H180.423V29.5238H238.429V60.4312Z" fill="white"/>
<path d="M92.7907 37.0403H72.8555V56.3216H92.7907V37.0403Z" fill="#CACACA"/>
<path d="M276.328 99.4738H256.393V118.755H276.328V99.4738Z" fill="#CACACA"/>
<path d="M98.9821 131.534H79.0469V150.816H98.9821V131.534Z" fill="#CACACA"/>
<path d="M104.877 33.463H84.9414V52.7444H104.877V33.463Z" fill="#0D5FAA"/>
<path d="M198.586 113.612L222.242 92.5552L229.221 96.0099L200.849 125.741L198.586 113.612Z" fill="#FFB6B6"/>
<path d="M225.357 99.7923C228.466 99.7923 230.986 97.274 230.986 94.1676C230.986 91.0612 228.466 88.543 225.357 88.543C222.247 88.543 219.727 91.0612 219.727 94.1676C219.727 97.274 222.247 99.7923 225.357 99.7923Z" fill="#FFB6B6"/>
<path d="M176.444 272.103H170.847L168.184 250.533L176.445 250.533L176.444 272.103Z" fill="#FFB6B6"/>
<path d="M177.869 277.524L159.82 277.523V277.295C159.82 275.434 160.561 273.649 161.878 272.333C163.196 271.016 164.982 270.277 166.845 270.277H166.846L177.87 270.277L177.869 277.524Z" fill="#2F2E41"/>
<path d="M156.175 272.103H150.577L147.914 250.533L156.175 250.533L156.175 272.103Z" fill="#FFB6B6"/>
<path d="M157.604 277.524L139.555 277.523V277.295C139.555 275.434 140.295 273.649 141.612 272.333C142.93 271.016 144.717 270.277 146.58 270.277H146.58L157.604 270.277L157.604 277.524Z" fill="#2F2E41"/>
<path d="M181.143 148.802C181.143 148.802 195.218 147.677 190.714 172.425C186.21 197.174 176.881 264.872 176.881 264.872L168.422 266.034L163.425 175.725L159.645 266.034L148.888 264.872L138.355 167.925C138.355 167.925 134.973 160.131 138.353 154.747C141.733 149.364 181.143 148.802 181.143 148.802Z" fill="#2F2E41"/>
<path d="M172.137 87.4931L176.044 85.4015C176.044 85.4015 185.672 84.5811 189.601 95.8802L200.022 111.604L216.912 96.98L224.231 102.042L202.944 127.423L194.094 128.553L174.952 103.805L172.137 87.4931Z" fill="#3F3D56"/>
<path d="M157.956 41.8587C141.9 41.8587 137.406 59.4789 137.406 69.4194C137.406 79.3599 146.606 77.8564 157.956 77.8564C162.827 77.8564 167.299 78.1311 170.821 77.6612L172.515 73.5289L173.878 76.9529C176.769 75.8918 178.505 73.7348 178.505 69.4194C178.505 59.4789 174.564 41.8587 157.956 41.8587Z" fill="#2F2E41"/>
<path d="M157.888 77.8397C165.525 77.8397 171.716 71.6547 171.716 64.025C171.716 56.3954 165.525 50.2103 157.888 50.2103C150.251 50.2103 144.061 56.3954 144.061 64.025C144.061 71.6547 150.251 77.8397 157.888 77.8397Z" fill="#FFB6B6"/>
<path d="M141.91 62.6697H147.379L149.792 55.9201L150.275 62.6697H152.889L154.296 58.7324L154.578 62.6697H174.001C174.001 58.7911 172.459 55.0715 169.714 52.3289C166.968 49.5864 163.245 48.0456 159.363 48.0456H156.548C152.666 48.0456 148.943 49.5864 146.198 52.3289C143.452 55.0715 141.91 58.7911 141.91 62.6697Z" fill="#2F2E41"/>
<path d="M234.365 72.8355H214.43V92.1169H234.365V72.8355Z" fill="#0D5FAA"/>
<path d="M185.521 143.712C183.398 143.739 177.003 105.83 177.003 105.83L176.045 85.4016L169.058 85.1669V84.7077C169.058 83.7857 168.691 82.9014 168.039 82.2494C167.386 81.5974 166.501 81.2311 165.578 81.2311H152.27C151.386 81.2315 150.535 81.5684 149.891 82.1731C149.247 82.7778 148.857 83.6051 148.801 84.4866L143.322 84.3026L133.832 114.425C133.832 114.425 142.577 142.413 138.356 154.747C138.356 154.747 179.476 158.275 187.348 150.445C187.348 150.445 187.644 143.685 185.521 143.712Z" fill="#3F3D56"/>
<path d="M145.676 88.0555L143.321 84.3025C143.321 84.3025 135.658 82.4099 132.503 87.4825C129.349 92.5552 120.076 120.041 120.076 120.041L129.647 123.416L140.508 108.204L145.676 88.0555Z" fill="#3F3D56"/>
<path d="M169.621 107.708H149.686V126.99H169.621V107.708Z" fill="#0D5FAA"/>
<path d="M134.389 114.677L127.454 113.944C127.016 114.877 126.796 115.898 126.811 116.929C126.826 117.96 127.076 118.974 127.541 119.894C128.007 120.814 128.675 121.616 129.497 122.24C130.318 122.864 131.271 123.293 132.283 123.495L159.725 128.967L156.863 120.159L134.389 114.677Z" fill="#FFB6B6"/>
<path d="M159.81 129.068C162.919 129.068 165.44 126.55 165.44 123.444C165.44 120.337 162.919 117.819 159.81 117.819C156.7 117.819 154.18 120.337 154.18 123.444C154.18 126.55 156.7 129.068 159.81 129.068Z" fill="#FFB6B6"/>
<path d="M152.781 129.239L131.874 124.467C130.359 124.116 128.961 123.382 127.813 122.333C126.666 121.285 125.809 119.958 125.325 118.482L124.48 115.879L129.906 111.613L154.764 118.554L152.781 129.239Z" fill="#3F3D56"/>
</svg>
