<svg width="128" height="128" viewBox="0 0 128 128" fill="none" xmlns="http://www.w3.org/2000/svg">
<circle cx="63.8811" cy="63.8039" r="63.5725" fill="#0D5FAA"/>
<path d="M73.1097 36.4785C71.8452 36.4785 70.6325 36.9809 69.7383 37.875C68.8441 38.7692 68.3418 39.9819 68.3418 41.2464C68.3418 42.511 68.8441 43.7237 69.7383 44.6179C70.6325 45.512 71.8452 46.0144 73.1097 46.0144C74.3743 46.0144 75.587 45.512 76.4812 44.6179C77.3753 43.7237 77.8776 42.511 77.8776 41.2464C77.8776 39.9819 77.3753 38.7692 76.4812 37.875C75.587 36.9809 74.3743 36.4785 73.1097 36.4785Z" fill="white"/>
<path d="M49.2715 41.2464C49.2715 39.9819 49.7738 38.7692 50.668 37.875C51.5621 36.9809 52.7749 36.4785 54.0394 36.4785C55.3039 36.4785 56.5167 36.9809 57.4108 37.875C58.305 38.7692 58.8073 39.9819 58.8073 41.2464C58.8073 42.511 58.305 43.7237 57.4108 44.6179C56.5167 45.512 55.3039 46.0144 54.0394 46.0144C52.7749 46.0144 51.5621 45.512 50.668 44.6179C49.7738 43.7237 49.2715 42.511 49.2715 41.2464Z" fill="white"/>
<path d="M65.9599 22.176C65.9599 21.5437 65.7088 20.9373 65.2617 20.4902C64.8146 20.0432 64.2082 19.792 63.576 19.792C62.9437 19.792 62.3373 20.0432 61.8902 20.4902C61.4432 20.9373 61.192 21.5437 61.192 22.176V24.5599H46.8882C44.9914 24.5599 43.1723 25.3134 41.8311 26.6547C40.4898 27.9959 39.7363 29.815 39.7363 31.7118V50.7835C39.7363 52.6803 40.4898 54.4994 41.8311 55.8407C43.1723 57.1819 44.9914 57.9354 46.8882 57.9354H80.2637C82.1605 57.9354 83.9796 57.1819 85.3209 55.8407C86.6621 54.4994 87.4156 52.6803 87.4156 50.7835V31.7118C87.4156 29.815 86.6621 27.9959 85.3209 26.6547C83.9796 25.3134 82.1605 24.5599 80.2637 24.5599H65.9599V22.176ZM46.8882 29.3278H80.2637C80.896 29.3278 81.5024 29.579 81.9494 30.0261C82.3965 30.4732 82.6477 31.0795 82.6477 31.7118V50.7835C82.6477 51.4158 82.3965 52.0222 81.9494 52.4692C81.5024 52.9163 80.896 53.1675 80.2637 53.1675H46.8882C46.256 53.1675 45.6496 52.9163 45.2025 52.4692C44.7554 52.0222 44.5043 51.4158 44.5043 50.7835V31.7118C44.5043 31.0795 44.7554 30.4732 45.2025 30.0261C45.6496 29.579 46.256 29.3278 46.8882 29.3278Z" fill="white"/>
<path d="M64.7675 96.0699C77.2404 95.9125 84.7689 93.233 89.1888 89.2041C93.3607 85.3897 94.3811 80.7315 94.5432 77.0172H94.567V73.7274C94.567 68.9642 90.705 65.1022 85.9371 65.1022H70.7274V65.0879H56.4236V65.1022H41.2139C36.446 65.1022 32.584 68.9642 32.584 73.7321V77.0172H32.6078C32.7699 80.7362 33.7903 85.3945 37.9622 89.1993C42.3821 93.233 49.9106 95.9125 62.3835 96.0699V96.0794H64.7675V96.0699ZM41.2139 69.8701H85.9371C86.9614 69.8701 87.9437 70.277 88.6679 71.0013C89.3922 71.7256 89.7991 72.7079 89.7991 73.7321V75.8157C89.7991 79.1056 89.1745 82.7578 85.9752 85.6806C82.6949 88.6701 76.2582 91.3115 63.5755 91.3115C50.8928 91.3115 44.4561 88.6701 41.1758 85.6806C37.9813 82.7578 37.3519 79.1008 37.3519 75.8157V73.7274C37.3532 72.7039 37.7606 71.7228 38.4848 70.9996C39.2089 70.2764 40.1905 69.8701 41.2139 69.8701Z" fill="white"/>
</svg>
