<svg width="1080" height="1080" viewBox="0 0 1080 1080" fill="none" xmlns="http://www.w3.org/2000/svg">
<rect x="304.435" y="535.313" width="337.824" height="337.824" transform="rotate(-45 304.435 535.313)" stroke="white" stroke-width="19"/>
<path d="M377.5 608L379.674 568M379.674 568L445.174 633.5M379.674 568V550V489L428 442L431 566.5L408.5 550L379.674 568Z" stroke="white" stroke-width="11" stroke-linecap="square"/>
<path d="M489.5 560L467 584.5L485.5 679L496.5 614.5L534.5 670V503.5" stroke="white" stroke-width="12" stroke-linecap="square"/>
<path d="M551.439 360.761L550.5 361V407.5V676.5V677H551H566H566.5V676.5V605.526L572.255 549.417L597.023 626.15L597.024 626.154L610.523 669.15L611.5 669.021L616 560.521L616.01 560.263L615.807 560.105L589 539.255V476.5V464.569C589 441.8 583.305 419.393 572.432 399.388L551.439 360.761Z" fill="white" stroke="white" stroke-linecap="square"/>
<path d="M541 361L524.941 397.852C509.847 432.493 502.867 470.124 504.536 507.873L506 541L509.5 599" stroke="white" stroke-width="14" stroke-linecap="square"/>
<path d="M669.5 435.5V635.5L703.5 541L727 593.5V479" stroke="white" stroke-width="11" stroke-linecap="square"/>
<path d="M467 517L465.339 487.908C463.147 449.525 470.446 411.193 486.591 376.301L502 343" stroke="white" stroke-width="4" stroke-linecap="square"/>
<path d="M611 378L632.154 443.085C633.643 447.664 634.798 452.345 635.612 457.09L639.561 480.108C640.518 485.693 641 491.348 641 497.014V526.067L634.39 669.5" stroke="white" stroke-width="4" stroke-linecap="square"/>
<path d="M499 716.928V738.771L544.865 778L600 720.94L593.169 702.663L578.043 667L576.092 711.133H560.478L554.135 738.771L547.304 711.133L530.715 747.687L529.739 720.94L510.71 686.169L512.662 729.41L499 716.928Z" fill="white"/>
</svg>
