<svg width="17" height="17" viewBox="0 0 17 17" fill="none" xmlns="http://www.w3.org/2000/svg">
<path opacity="0.5" d="M16.9489 15.7781L11.4303 10.2595C12.2867 9.15233 12.7499 7.79872 12.7499 6.37497C12.7499 4.67073 12.0848 3.07274 10.8821 1.86787C9.67933 0.662997 8.07709 0 6.37497 0C4.67285 0 3.07061 0.665122 1.86787 1.86787C0.662997 3.07061 0 4.67073 0 6.37497C0 8.07709 0.665122 9.67933 1.86787 10.8821C3.07061 12.0869 4.67073 12.7499 6.37497 12.7499C7.79872 12.7499 9.15021 12.2867 10.2573 11.4325L15.7759 16.9489C15.7921 16.9651 15.8113 16.978 15.8325 16.9867C15.8536 16.9955 15.8763 17 15.8992 17C15.9221 17 15.9447 16.9955 15.9659 16.9867C15.987 16.978 16.0062 16.9651 16.0224 16.9489L16.9489 16.0246C16.9651 16.0084 16.978 15.9892 16.9867 15.968C16.9955 15.9469 17 15.9242 17 15.9013C17 15.8784 16.9955 15.8557 16.9867 15.8346C16.978 15.8135 16.9651 15.7942 16.9489 15.7781ZM9.74096 9.74096C8.83996 10.6398 7.64572 11.135 6.37497 11.135C5.10423 11.135 3.90998 10.6398 3.00899 9.74096C2.11012 8.83996 1.61499 7.64572 1.61499 6.37497C1.61499 5.10423 2.11012 3.90786 3.00899 3.00899C3.90998 2.11012 5.10423 1.61499 6.37497 1.61499C7.64572 1.61499 8.84209 2.10799 9.74096 3.00899C10.6398 3.90998 11.135 5.10423 11.135 6.37497C11.135 7.64572 10.6398 8.84209 9.74096 9.74096Z" fill="black"/>
</svg>
