<svg width="1080" height="1080" viewBox="0 0 1080 1080" fill="none" xmlns="http://www.w3.org/2000/svg">
<rect x="304.435" y="535.313" width="337.824" height="337.824" transform="rotate(-45 304.435 535.313)" stroke="white" stroke-width="19"/>
<path d="M520.237 470.309C522.325 471.694 524.544 472.898 526.87 473.898C531.972 476.092 537.594 477.307 543.5 477.307C548.687 477.307 553.655 476.37 558.244 474.655C557.786 471.929 557.547 469.127 557.547 466.27C557.547 461.221 558.293 456.346 559.68 451.75C554.441 450.743 549.032 450.217 543.5 450.217C537.299 450.217 531.253 450.878 525.428 452.135C523.124 452.632 520.855 453.222 518.624 453.902C514.982 455.011 511.443 456.357 508.026 457.922C511.193 462.849 515.359 467.073 520.237 470.309Z" fill="white"/>
<path d="M478.422 558.592C479.829 556.448 481.046 554.169 482.048 551.777C484.147 546.769 485.307 541.27 485.307 535.5C485.307 528.593 483.645 522.075 480.7 516.322C479.57 516.398 478.429 516.437 477.28 516.437C471.588 516.437 466.117 515.489 461.017 513.742C459.19 520.688 458.217 527.98 458.217 535.5C458.217 542.026 458.95 548.381 460.338 554.486C460.862 556.791 461.479 559.061 462.186 561.291C463.238 564.611 464.488 567.844 465.922 570.974C470.907 567.77 475.172 563.544 478.422 558.592Z" fill="white"/>
<path d="M625.805 513.076C625.186 510.799 624.475 508.56 623.677 506.364C622.893 504.209 622.026 502.095 621.078 500.026C617.17 502.538 613.705 505.678 610.824 509.303C609.074 511.505 607.539 513.887 606.252 516.416C603.337 522.145 601.693 528.631 601.693 535.5C601.693 541.214 602.831 546.663 604.891 551.631C605.825 551.58 606.766 551.553 607.713 551.553C614.356 551.553 620.697 552.844 626.499 555.189C627.993 548.869 628.783 542.277 628.783 535.5C628.783 527.739 627.747 520.221 625.805 513.076Z" fill="white"/>
<path d="M586.133 461.621C583.813 460.28 581.425 459.044 578.974 457.922C574.983 456.094 570.827 454.565 566.534 453.364C565.258 457.439 564.57 461.774 564.57 466.27C564.57 468.036 564.676 469.777 564.882 471.487C565.222 474.305 565.833 477.04 566.689 479.664C571.68 494.959 584.987 506.497 601.269 508.935C605.339 502.428 610.86 496.921 617.379 492.867C609.888 479.913 599.087 469.112 586.133 461.621Z" fill="white"/>
<path d="M476.254 509.401C476.595 509.409 476.937 509.413 477.28 509.413C480.103 509.413 482.863 509.142 485.535 508.625C501.315 505.567 514.027 493.91 518.598 478.726C511.364 474.582 505.262 468.688 500.867 461.621C487.913 469.112 477.112 479.913 469.621 492.867C468.28 495.187 467.044 497.575 465.922 500.026C464.877 502.306 463.93 504.641 463.086 507.024C467.225 508.465 471.65 509.294 476.254 509.401Z" fill="white"/>
<path d="M617.379 578.133C618.72 575.813 619.956 573.425 621.078 570.974C622.41 568.067 623.583 565.072 624.586 562.001C619.652 559.902 614.247 558.696 608.573 558.585C608.437 558.582 608.301 558.58 608.164 558.579C608.014 558.577 607.864 558.577 607.713 558.577C604.966 558.577 602.279 558.834 599.674 559.325C583.215 562.426 570.058 574.875 565.926 590.946C574.245 595.11 581.245 601.519 586.133 609.379C599.087 601.888 609.888 591.087 617.379 578.133Z" fill="white"/>
<path d="M560.625 619.063C562.95 618.589 565.241 618.021 567.493 617.362C571.447 616.205 575.281 614.77 578.974 613.078C575.355 607.448 570.433 602.736 564.633 599.367C562.484 598.119 560.215 597.056 557.847 596.199C553.369 594.577 548.538 593.693 543.5 593.693C537.73 593.693 532.231 594.853 527.223 596.952C527.371 598.521 527.447 600.112 527.447 601.72C527.447 607.666 526.412 613.37 524.514 618.662C530.619 620.05 536.974 620.783 543.5 620.783C549.366 620.783 555.093 620.191 560.625 619.063Z" fill="white"/>
<path d="M500.867 609.379C503.187 610.72 505.575 611.956 508.026 613.078C511.156 614.512 514.389 615.762 517.709 616.814C519.464 612.116 520.423 607.03 520.423 601.72C520.423 601.338 520.418 600.957 520.409 600.578C520.331 597.593 519.95 594.685 519.296 591.881C515.582 575.955 503.045 563.419 487.119 559.704C482.958 567.243 476.914 573.598 469.621 578.133C477.112 591.087 487.913 601.888 500.867 609.379Z" fill="white"/>
<path fill-rule="evenodd" clip-rule="evenodd" d="M631.304 486.911C632.635 489.311 633.87 491.771 635.005 494.286C637.03 493.855 639.108 493.568 641.229 493.439C642.09 493.387 642.959 493.36 643.833 493.36C645.818 493.36 647.771 493.497 649.683 493.763C651.228 491.408 652.581 488.915 653.719 486.307C651.334 485.831 648.889 485.523 646.395 485.398C645.547 485.355 644.693 485.333 643.833 485.333C639.507 485.333 635.309 485.881 631.304 486.911ZM637.542 570.549C638.43 568.165 639.231 565.738 639.94 563.272C644.513 567.109 648.392 571.747 651.36 576.97C652.713 579.351 653.877 581.854 654.831 584.457C652.514 584.976 650.137 585.334 647.712 585.519C646.602 582.782 645.219 580.185 643.598 577.761L643.516 577.639C641.781 575.065 639.776 572.688 637.542 570.549ZM592.089 623.304C589.689 624.635 587.229 625.87 584.714 627.005C585.321 629.852 585.64 632.805 585.64 635.833C585.64 636.81 585.607 637.778 585.541 638.738C585.369 641.272 584.972 643.745 584.371 646.137C586.752 647.391 589.245 648.458 591.833 649.321C592.461 647.066 592.935 644.748 593.244 642.377C593.523 640.235 593.667 638.051 593.667 635.833C593.667 631.507 593.119 627.309 592.089 623.304ZM509.826 630.043C512.193 630.886 514.6 631.642 517.045 632.309C513.056 637.487 508.079 641.864 502.395 645.157C500.041 646.521 497.567 647.699 494.991 648.671C494.388 646.388 493.943 644.041 493.666 641.643C496.393 640.522 498.979 639.131 501.392 637.502C504.52 635.39 507.355 632.879 509.826 630.043ZM455.696 584.089C454.365 581.689 453.13 579.229 451.995 576.714C449.148 577.321 446.195 577.64 443.167 577.64C442.608 577.64 442.052 577.629 441.499 577.608C438.878 577.506 436.319 577.164 433.843 576.605C432.479 578.959 431.301 581.433 430.329 584.009C432.612 584.612 434.959 585.057 437.357 585.334C439.263 585.554 441.202 585.667 443.167 585.667C447.493 585.667 451.691 585.119 455.696 584.089ZM449.805 499.535C448.92 501.841 448.117 504.187 447.4 506.571C442.751 503.119 438.721 498.882 435.504 494.055C433.958 491.735 432.6 489.279 431.452 486.709C433.797 486.148 436.205 485.751 438.665 485.533C440.063 488.33 441.756 490.953 443.703 493.363C445.525 495.619 447.571 497.688 449.805 499.535ZM494.911 447.696C497.311 446.365 499.771 445.13 502.286 443.995C501.679 441.148 501.36 438.195 501.36 435.167C501.36 433.634 501.442 432.121 501.601 430.63C501.873 428.09 502.371 425.618 503.073 423.233C500.759 421.843 498.324 420.635 495.786 419.627C495.06 421.86 494.486 424.161 494.076 426.518C493.588 429.328 493.333 432.217 493.333 435.167C493.333 439.493 493.881 443.691 494.911 447.696ZM573.659 439.778C571.278 439.029 568.86 438.366 566.407 437.793C570.845 431.367 576.745 426.028 583.625 422.254C585.972 420.967 588.434 419.862 590.99 418.958C591.744 421.166 592.348 423.443 592.79 425.778C590.146 426.752 587.624 427.978 585.252 429.427C580.789 432.154 576.86 435.669 573.659 439.778Z" fill="white"/>
<path d="M433.843 576.605C415.056 572.362 401.027 555.569 401.027 535.5C401.027 514.843 415.889 497.658 435.504 494.055C433.958 491.735 432.6 489.279 431.452 486.709C409.396 491.985 393 511.828 393 535.5C393 558.769 408.842 578.338 430.329 584.009C431.301 581.433 432.479 578.959 433.843 576.605Z" fill="white"/>
<path d="M434.137 466.27C434.137 442.443 453.453 423.127 477.28 423.127C483.238 423.127 488.914 424.334 494.076 426.518C494.486 424.161 495.06 421.86 495.786 419.627C490.06 417.353 483.816 416.103 477.28 416.103C449.574 416.103 427.113 438.564 427.113 466.27C427.113 473.549 428.664 480.466 431.452 486.709C433.797 486.148 436.205 485.751 438.665 485.533C435.767 479.735 434.137 473.193 434.137 466.27Z" fill="white"/>
<path d="M503.073 423.233C508.22 405.772 524.371 393.027 543.5 393.027C562.269 393.027 578.172 405.297 583.625 422.254C585.972 420.967 588.434 419.862 590.99 418.958C584.251 399.206 565.534 385 543.5 385C521.218 385 502.328 399.527 495.786 419.627C498.324 420.635 500.759 421.843 503.073 423.233Z" fill="white"/>
<path d="M607.713 423.127C631.541 423.127 650.857 442.443 650.857 466.27C650.857 473.139 649.251 479.633 646.395 485.398C648.889 485.523 651.334 485.831 653.719 486.307C656.395 480.17 657.88 473.393 657.88 466.27C657.88 438.564 635.42 416.103 607.713 416.103C601.85 416.103 596.221 417.109 590.99 418.958C591.744 421.166 592.348 423.443 592.79 425.778C597.44 424.063 602.467 423.127 607.713 423.127Z" fill="white"/>
<path d="M649.683 493.763C670.187 496.61 685.973 514.212 685.973 535.5C685.973 556.204 671.042 573.421 651.36 576.97C652.713 579.351 653.877 581.854 654.831 584.457C677.247 579.444 694 559.428 694 535.5C694 511.178 676.691 490.898 653.719 486.307C652.581 488.915 651.228 491.408 649.683 493.763Z" fill="white"/>
<path d="M650.857 601.72C650.857 625.547 631.541 644.863 607.713 644.863C602.638 644.863 597.767 643.987 593.244 642.377C592.935 644.748 592.461 647.066 591.833 649.321C596.824 650.985 602.163 651.887 607.713 651.887C635.42 651.887 657.88 629.426 657.88 601.72C657.88 595.654 656.803 589.84 654.831 584.457C652.514 584.976 650.137 585.334 647.712 585.519C649.74 590.521 650.857 595.99 650.857 601.72Z" fill="white"/>
<path d="M584.371 646.137C579.774 664.43 563.219 677.973 543.5 677.973C523.431 677.973 506.638 663.944 502.395 645.157C500.041 646.521 497.567 647.699 494.991 648.671C500.662 670.158 520.231 686 543.5 686C566.534 686 585.942 670.477 591.833 649.321C589.245 648.458 586.752 647.391 584.371 646.137Z" fill="white"/>
<path d="M477.28 644.863C453.453 644.863 434.137 625.547 434.137 601.72C434.137 595.919 435.281 590.386 437.357 585.334C434.959 585.057 432.612 584.612 430.329 584.009C428.251 589.516 427.113 595.485 427.113 601.72C427.113 629.426 449.574 651.887 477.28 651.887C483.515 651.887 489.484 650.749 494.991 648.671C494.388 646.388 493.943 644.041 493.666 641.643C488.614 643.719 483.081 644.863 477.28 644.863Z" fill="white"/>
<path d="M643.833 577.64C643.727 577.64 643.622 577.64 643.516 577.639M643.833 577.64L643.598 577.761M643.833 577.64C646.402 577.64 648.918 577.41 651.36 576.97M592.79 425.778C590.146 426.752 587.624 427.978 585.252 429.427M592.79 425.778C597.44 424.063 602.467 423.127 607.713 423.127C631.541 423.127 650.857 442.443 650.857 466.27C650.857 473.139 649.251 479.633 646.395 485.398M592.79 425.778C592.348 423.443 591.744 421.166 590.99 418.958M585.252 429.427C580.789 432.154 576.86 435.669 573.659 439.778C571.278 439.029 568.86 438.366 566.407 437.793C570.845 431.367 576.745 426.028 583.625 422.254M585.252 429.427C584.917 426.962 584.368 424.565 583.625 422.254M649.683 493.763C647.771 493.497 645.818 493.36 643.833 493.36C642.959 493.36 642.09 493.387 641.229 493.439M649.683 493.763C670.187 496.61 685.973 514.212 685.973 535.5C685.973 556.204 671.042 573.421 651.36 576.97M649.683 493.763C651.228 491.408 652.581 488.915 653.719 486.307M641.229 493.439C639.108 493.568 637.03 493.855 635.005 494.286C633.87 491.771 632.635 489.311 631.304 486.911C635.309 485.881 639.507 485.333 643.833 485.333C644.693 485.333 645.547 485.355 646.395 485.398M641.229 493.439C643.233 490.97 644.97 488.275 646.395 485.398M647.712 585.519C649.74 590.521 650.857 595.99 650.857 601.72C650.857 625.547 631.541 644.863 607.713 644.863C602.638 644.863 597.767 643.987 593.244 642.377M647.712 585.519C646.602 582.782 645.219 580.185 643.598 577.761M647.712 585.519C650.137 585.334 652.514 584.976 654.831 584.457M643.516 577.639C643.543 577.68 643.571 577.72 643.598 577.761M643.516 577.639L643.598 577.761M643.516 577.639C641.781 575.065 639.776 572.688 637.542 570.549C638.43 568.165 639.231 565.738 639.94 563.272C644.513 567.109 648.392 571.747 651.36 576.97M567.188 616.554C567.287 616.825 567.389 617.094 567.493 617.362M567.493 617.362C565.241 618.021 562.95 618.589 560.625 619.063C555.093 620.191 549.366 620.783 543.5 620.783C536.974 620.783 530.619 620.05 524.514 618.662C526.412 613.37 527.447 607.666 527.447 601.72C527.447 600.112 527.371 598.521 527.223 596.952C532.231 594.853 537.73 593.693 543.5 593.693C548.538 593.693 553.369 594.577 557.847 596.199C560.215 597.056 562.484 598.119 564.633 599.367C570.433 602.736 575.355 607.448 578.974 613.078C575.281 614.77 571.447 616.205 567.493 617.362ZM583.504 645.669C583.791 645.828 584.08 645.984 584.371 646.137M584.371 646.137C584.972 643.745 585.369 641.272 585.541 638.738M584.371 646.137C579.774 664.429 563.219 677.973 543.5 677.973C523.431 677.973 506.638 663.944 502.395 645.157M584.371 646.137C586.752 647.391 589.245 648.458 591.833 649.321M585.541 638.738C585.607 637.778 585.64 636.81 585.64 635.833C585.64 632.805 585.321 629.852 584.714 627.005C587.229 625.87 589.689 624.635 592.089 623.304C593.119 627.309 593.667 631.507 593.667 635.833C593.667 638.051 593.523 640.235 593.244 642.377M585.541 638.738C587.964 640.192 590.542 641.415 593.244 642.377M493.666 641.643C496.393 640.522 498.979 639.131 501.392 637.502M493.666 641.643C488.614 643.719 483.081 644.863 477.28 644.863C453.453 644.863 434.137 625.547 434.137 601.72C434.137 595.919 435.281 590.386 437.357 585.334M493.666 641.643C493.943 644.041 494.388 646.388 494.991 648.671M501.392 637.502C504.52 635.39 507.355 632.879 509.826 630.043C512.193 630.886 514.6 631.642 517.045 632.309C513.056 637.487 508.079 641.864 502.395 645.157M501.392 637.502C501.494 640.122 501.836 642.681 502.395 645.157M441.499 577.608C438.878 577.506 436.319 577.164 433.843 576.605M441.499 577.608C442.052 577.629 442.608 577.64 443.167 577.64C446.195 577.64 449.148 577.321 451.995 576.714C453.13 579.229 454.365 581.689 455.696 584.089C451.691 585.119 447.493 585.667 443.167 585.667C441.202 585.667 439.263 585.554 437.357 585.334M441.499 577.608C439.869 580.021 438.478 582.607 437.357 585.334M433.843 576.605C415.056 572.362 401.027 555.569 401.027 535.5C401.027 514.843 415.889 497.658 435.504 494.055M433.843 576.605C432.479 578.959 431.301 581.433 430.329 584.009M443.703 493.363C441.756 490.953 440.063 488.33 438.665 485.533M443.703 493.363C443.524 493.361 443.346 493.36 443.167 493.36C440.55 493.36 437.989 493.599 435.504 494.055M443.703 493.363C445.525 495.619 447.571 497.688 449.805 499.535C448.92 501.841 448.117 504.187 447.4 506.571C442.751 503.119 438.721 498.882 435.504 494.055M438.665 485.533C435.767 479.735 434.137 473.193 434.137 466.27C434.137 442.443 453.453 423.127 477.28 423.127C483.238 423.127 488.914 424.334 494.076 426.518M438.665 485.533C436.205 485.751 433.797 486.148 431.452 486.709M501.601 430.63C501.873 428.09 502.371 425.618 503.073 423.233M501.601 430.63C501.442 432.121 501.36 433.634 501.36 435.167C501.36 438.195 501.679 441.148 502.286 443.995C499.771 445.13 497.311 446.365 494.911 447.696C493.881 443.691 493.333 439.493 493.333 435.167C493.333 432.217 493.588 429.328 494.076 426.518M501.601 430.63C499.25 429.023 496.731 427.641 494.076 426.518M503.073 423.233C508.22 405.772 524.371 393.027 543.5 393.027C562.269 393.027 578.172 405.297 583.625 422.254M503.073 423.233C500.759 421.843 498.324 420.635 495.786 419.627M525.708 453.128C525.618 452.796 525.524 452.465 525.428 452.135M525.428 452.135C523.124 452.632 520.855 453.222 518.624 453.902C514.982 455.011 511.443 456.357 508.026 457.922C511.193 462.849 515.359 467.073 520.237 470.309C522.325 471.694 524.544 472.898 526.87 473.898C531.972 476.092 537.594 477.307 543.5 477.307C548.687 477.307 553.655 476.37 558.244 474.655C557.786 471.929 557.547 469.127 557.547 466.27C557.547 461.221 558.293 456.346 559.68 451.75C554.441 450.743 549.032 450.217 543.5 450.217C537.299 450.217 531.253 450.878 525.428 452.135ZM653.719 486.307C676.691 490.898 694 511.178 694 535.5C694 559.428 677.247 579.444 654.831 584.457M653.719 486.307C656.395 480.17 657.88 473.393 657.88 466.27C657.88 438.564 635.42 416.103 607.713 416.103C601.85 416.103 596.221 417.109 590.99 418.958M653.719 486.307C651.334 485.831 648.889 485.523 646.395 485.398M651.36 576.97C652.713 579.351 653.877 581.854 654.831 584.457M654.831 584.457C656.803 589.84 657.88 595.654 657.88 601.72C657.88 629.426 635.42 651.887 607.713 651.887C602.163 651.887 596.824 650.985 591.833 649.321M591.833 649.321C585.942 670.477 566.534 686 543.5 686C520.231 686 500.662 670.158 494.991 648.671M591.833 649.321C592.461 647.066 592.935 644.748 593.244 642.377M494.991 648.671C489.484 650.749 483.515 651.887 477.28 651.887C449.574 651.887 427.113 629.426 427.113 601.72C427.113 595.485 428.251 589.516 430.329 584.009M494.991 648.671C497.567 647.699 500.041 646.521 502.395 645.157M430.329 584.009C408.842 578.338 393 558.769 393 535.5C393 511.828 409.396 491.985 431.452 486.709M430.329 584.009C432.612 584.612 434.959 585.057 437.357 585.334M431.452 486.709C428.664 480.466 427.113 473.549 427.113 466.27C427.113 438.564 449.574 416.103 477.28 416.103C483.816 416.103 490.06 417.353 495.786 419.627M431.452 486.709C432.6 489.279 433.958 491.735 435.504 494.055M583.625 422.254C585.972 420.967 588.434 419.862 590.99 418.958M494.076 426.518C494.486 424.161 495.06 421.86 495.786 419.627M495.786 419.627C502.328 399.527 521.218 385 543.5 385C565.534 385 584.251 399.206 590.99 418.958M628.783 535.5C628.783 527.739 627.747 520.221 625.805 513.076C625.186 510.799 624.475 508.56 623.677 506.364C622.893 504.209 622.026 502.095 621.078 500.026C617.17 502.538 613.705 505.678 610.824 509.303C609.074 511.505 607.539 513.887 606.252 516.416C603.337 522.145 601.693 528.631 601.693 535.5C601.693 541.214 602.831 546.663 604.891 551.631C605.825 551.58 606.766 551.553 607.713 551.553C614.356 551.553 620.697 552.844 626.499 555.189C627.993 548.869 628.783 542.277 628.783 535.5ZM458.217 535.5C458.217 542.026 458.95 548.381 460.338 554.486C460.862 556.791 461.479 559.061 462.186 561.291C463.238 564.611 464.488 567.844 465.922 570.974C470.907 567.77 475.172 563.544 478.422 558.592C479.829 556.448 481.046 554.169 482.048 551.777C484.147 546.769 485.307 541.27 485.307 535.5C485.307 528.593 483.645 522.075 480.7 516.322C479.57 516.398 478.429 516.437 477.28 516.437C471.588 516.437 466.117 515.489 461.017 513.742C459.19 520.688 458.217 527.98 458.217 535.5ZM520.423 601.72C520.423 601.338 520.418 600.957 520.409 600.578C520.331 597.593 519.95 594.685 519.296 591.881C515.582 575.955 503.045 563.419 487.119 559.704C482.958 567.243 476.914 573.598 469.621 578.133C477.112 591.087 487.913 601.888 500.867 609.379C503.187 610.72 505.575 611.956 508.026 613.078C511.156 614.512 514.389 615.762 517.709 616.814C519.464 612.116 520.423 607.03 520.423 601.72ZM607.713 558.577C604.966 558.577 602.279 558.834 599.674 559.325C583.215 562.426 570.058 574.875 565.926 590.946C574.245 595.11 581.245 601.519 586.133 609.379C599.087 601.888 609.888 591.087 617.379 578.133C618.72 575.813 619.956 573.425 621.078 570.974C622.41 568.067 623.583 565.072 624.586 562.001C619.652 559.902 614.247 558.696 608.573 558.585C608.437 558.582 608.301 558.58 608.164 558.579C608.014 558.577 607.864 558.577 607.713 558.577ZM564.57 466.27C564.57 468.036 564.676 469.777 564.882 471.487C565.222 474.305 565.833 477.04 566.689 479.664C571.68 494.959 584.987 506.497 601.269 508.935C605.339 502.428 610.86 496.921 617.379 492.867C609.888 479.913 599.087 469.112 586.133 461.621C583.813 460.28 581.425 459.044 578.974 457.922C574.983 456.094 570.827 454.565 566.534 453.364C565.258 457.439 564.57 461.774 564.57 466.27ZM477.28 509.413C476.937 509.413 476.595 509.409 476.254 509.401C471.65 509.294 467.225 508.465 463.086 507.024C463.93 504.641 464.877 502.306 465.922 500.026C467.044 497.575 468.28 495.187 469.621 492.867C477.112 479.913 487.913 469.112 500.867 461.621C505.262 468.688 511.364 474.582 518.598 478.726C514.027 493.91 501.315 505.567 485.535 508.625C482.863 509.142 480.103 509.413 477.28 509.413Z" stroke="white" stroke-width="6"/>
<path d="M411.5 502C399.912 509.44 389.751 515.243 379.445 519.818L352.13 535L390.999 557.259C397.383 560.514 404.135 564.368 411.5 569L390.999 557.259C364.574 543.788 344.425 540.58 313 535C341.777 532.33 360.847 528.073 379.445 519.818L411.5 502Z" fill="white" stroke="white" stroke-width="8"/>
<path d="M675.5 569C687.088 561.56 697.249 555.757 707.555 551.182L734.87 536L696.001 513.741C689.617 510.486 682.865 506.632 675.5 502L696.001 513.741C722.426 527.212 742.575 530.42 774 536C745.223 538.67 726.153 542.927 707.555 551.182L675.5 569Z" fill="white" stroke="white" stroke-width="8"/>
<path d="M510 667.5C517.44 679.088 523.243 689.249 527.818 699.555L543 726.87L565.259 688.001C568.514 681.617 572.368 674.865 577 667.5L565.259 688.001C551.788 714.426 548.58 734.575 543 766C540.33 737.223 536.073 718.153 527.818 699.555L510 667.5Z" fill="white" stroke="white" stroke-width="8"/>
<path d="M577 403.5C569.56 391.912 563.757 381.751 559.182 371.445L544 344.13L521.741 382.999C518.486 389.383 514.632 396.135 510 403.5L521.741 382.999C535.212 356.574 538.42 336.425 544 305C546.67 333.777 550.927 352.847 559.182 371.445L577 403.5Z" fill="white" stroke="white" stroke-width="8"/>
<ellipse cx="364" cy="535" rx="15" ry="10" fill="white"/>
<ellipse cx="723" cy="535" rx="15" ry="10" fill="white"/>
<ellipse cx="543" cy="714" rx="15" ry="10" transform="rotate(-90 543 714)" fill="white"/>
<ellipse cx="543" cy="357" rx="15" ry="10" transform="rotate(-90 543 357)" fill="white"/>
</svg>
