<svg width="129" height="128" viewBox="0 0 129 128" fill="none" xmlns="http://www.w3.org/2000/svg">
<path d="M64.5432 0.231445C29.4331 0.231445 0.970703 28.6938 0.970703 63.8039C0.970703 98.914 29.4331 127.376 64.5432 127.376C99.6533 127.376 128.116 98.914 128.116 63.8039C128.116 28.6938 99.6533 0.231445 64.5432 0.231445ZM30.7601 32.1908H98.3221V95.417H30.7601V32.1908ZM39.0893 40.4513V87.1604H89.9972V40.4513H39.0893ZM44.6405 46.4092H84.3089V67.121H44.6405V46.4092ZM44.6405 70.7118H55.876V81.9473H44.6405V70.7118ZM58.8549 70.7118H70.0943V81.9473H58.8549V70.7118ZM73.0694 70.7118H84.3089V81.9473H73.0694V70.7118Z" fill="#0D5FAA"/>
</svg>
