<svg width="160" height="93" viewBox="0 0 160 93" fill="none" xmlns="http://www.w3.org/2000/svg">
<path opacity="0.3" d="M49.3599 57.1699V56.8799C49.355 56.9765 49.355 57.0733 49.3599 57.1699Z" fill="black"/>
<path d="M153.18 75.5702C153.18 75.5702 111.11 22.1602 82.92 23.5702C54.73 24.9802 11.3 74.3602 11.3 74.3602C11.3 74.3602 83.0301 110.64 153.18 75.5702Z" fill="#0574BC"/>
<path opacity="0.9" d="M153.18 75.5702C153.18 75.5702 111.11 22.1602 82.92 23.5702C54.73 24.9802 11.3 74.3602 11.3 74.3602C11.3 74.3602 83.0301 110.64 153.18 75.5702Z" fill="#FAFAFA"/>
<path d="M148.47 77.75C147.17 78.27 145.63 78.75 143.93 79.39C143.07 79.69 142.17 80.03 141.21 80.39L138.21 81.3L134.89 82.3L131.27 83.21C128.78 83.89 126.06 84.38 123.19 84.97C121.76 85.28 120.26 85.46 118.74 85.72C117.22 85.98 115.65 86.22 114.03 86.39C98.8496 88.1988 83.4967 87.9937 68.37 85.78C59.3547 84.4982 50.43 82.6445 41.65 80.23C37.09 78.98 32.47 77.57 27.85 75.96C25.53 75.17 23.22 74.3 20.91 73.41L19.18 72.72H19.09H19.14L19.47 72.23C13.8 74.37 9.60001 75 6.58001 74.97L6.26001 75.33C8.52001 76.33 10.72 77.4 13.02 78.4L16.42 79.79L18.24 80.49C20.68 81.38 23.1 82.24 25.52 83.02C30.3533 84.5866 35.1533 85.9466 39.92 87.1C49.033 89.3266 58.2931 90.9006 67.63 91.81C83.2911 93.416 99.1023 92.7423 114.57 89.81C116.21 89.53 117.79 89.16 119.33 88.81C120.87 88.46 122.33 88.13 123.81 87.71C126.68 86.89 129.39 86.18 131.86 85.28L135.45 84.06L138.72 82.78L141.72 81.59C142.66 81.2 143.54 80.77 144.37 80.39C146.03 79.62 147.52 78.97 148.77 78.33L151.91 76.67L154.48 75.3L151.78 76.4L148.47 77.75Z" fill="#0574BC"/>
<path d="M52.47 54.8799C52.3831 58.9973 53.122 63.0903 54.6431 66.9174C56.1642 70.7445 58.4366 74.2281 61.3262 77.1624C64.2158 80.0968 67.664 82.4224 71.4673 84.0021C75.2706 85.5818 79.3518 86.3836 83.47 86.3599C91.8559 86.3226 99.8953 83.0102 105.873 77.1292C111.852 71.2482 115.295 63.2641 115.47 54.8799C115.559 50.7677 114.825 46.6793 113.309 42.8556C111.793 39.0319 109.527 35.5505 106.644 32.6165C103.762 29.6826 100.321 27.3555 96.5243 25.7726C92.728 24.1897 88.6531 23.3829 84.54 23.3999C83.4879 23.3979 82.4365 23.4513 81.39 23.5599C73.5785 24.3535 66.3266 27.9757 61 33.7443C55.6734 39.513 52.6396 47.03 52.47 54.8799V54.8799Z" fill="#0574BC"/>
<path opacity="0.3" d="M52.55 54.53V55.92C53.55 80.54 75.55 85.38 75.55 85.38C67.55 82.38 63.39 74.94 61.22 67.87C60.7632 66.3606 60.6669 64.765 60.9388 63.2116C61.2108 61.6582 61.8435 60.1902 62.7859 58.9258C63.7284 57.6614 64.9545 56.6357 66.3654 55.9313C67.7764 55.2269 69.333 54.8634 70.91 54.87H71.03C70.9231 54.172 70.8763 53.466 70.89 52.76C70.9683 49.1936 72.4376 45.7992 74.9841 43.3012C77.5307 40.8032 80.9529 39.3996 84.5201 39.39C86.2663 39.3857 87.9958 39.7302 89.6071 40.4035C91.2183 41.0767 92.6788 42.0651 93.9029 43.3106C95.1269 44.556 96.0898 46.0335 96.735 47.6562C97.3802 49.2788 97.6947 51.0141 97.66 52.76C97.6405 53.4689 97.5602 54.1748 97.42 54.87C98.9757 54.8624 100.512 55.2157 101.908 55.9021C103.304 56.5885 104.522 57.5893 105.466 58.8259C106.41 60.0625 107.054 61.5011 107.348 63.0288C107.642 64.5564 107.578 66.1314 107.16 67.63C105.16 74.57 101.16 81.78 93.51 84.73C97.3757 83.3844 100.967 81.3517 104.11 78.73C109.58 74.21 115.11 66.73 115.51 54.88C115.595 50.7695 114.857 46.6834 113.339 42.8626C111.821 39.0417 109.553 35.5634 106.67 32.6325C103.787 29.7017 100.346 27.3775 96.5504 25.7971C92.7549 24.2166 88.6814 23.4118 84.5701 23.43C76.247 23.4667 68.2618 26.7268 62.2913 32.5258C56.3208 38.3247 52.8293 46.2115 52.55 54.53Z" fill="black"/>
<path opacity="0.7" d="M70.84 52.7699C70.8279 53.4756 70.8713 54.1811 70.97 54.8799C71.4161 58.0075 72.9775 60.8684 75.3664 62.9358C77.7553 65.0031 80.8108 66.1374 83.97 66.1299C87.1634 66.118 90.2513 64.9852 92.6949 62.9292C95.1384 60.8731 96.7824 58.0243 97.34 54.8799C97.4867 54.186 97.5638 53.4791 97.57 52.7699C97.6073 51.0266 97.2959 49.2935 96.6542 47.6722C96.0124 46.051 95.0533 44.5742 93.8329 43.3288C92.6126 42.0833 91.1558 41.0942 89.5479 40.4195C87.9401 39.7448 86.2137 39.3982 84.47 39.3999C80.9028 39.4095 77.4806 40.8131 74.9341 43.3111C72.3875 45.8091 70.9183 49.2036 70.84 52.7699Z" fill="black"/>
<path opacity="0.7" d="M84.81 39.6498C84.778 41.0693 85.0301 42.4809 85.5516 43.8015C86.0731 45.1221 86.8534 46.3251 87.8466 47.3397C88.8398 48.3544 90.0259 49.1602 91.3351 49.7097C92.6443 50.2593 94.0501 50.5415 95.47 50.5398C98.3738 50.5301 101.159 49.3858 103.231 47.3513C105.303 45.3167 106.497 42.553 106.56 39.6498C106.591 38.226 106.336 36.8105 105.811 35.4866C105.286 34.1628 104.501 32.9574 103.503 31.9416C102.505 30.9257 101.314 30.12 99.9994 29.5718C98.685 29.0236 97.2741 28.7442 95.85 28.7498C92.9531 28.7726 90.1793 29.924 88.1179 31.9593C86.0564 33.9946 84.8697 36.7535 84.81 39.6498Z" fill="#FAFAFA"/>
<path opacity="0.7" d="M148.47 77.75C147.17 78.27 145.63 78.75 143.93 79.39C143.07 79.69 142.17 80.03 141.21 80.39L138.21 81.3L134.89 82.3L131.27 83.21C128.78 83.89 126.06 84.38 123.19 84.97C121.76 85.28 120.26 85.46 118.74 85.72C117.22 85.98 115.65 86.22 114.03 86.39C98.8496 88.1988 83.4967 87.9937 68.37 85.78C59.3547 84.4982 50.43 82.6445 41.65 80.23C37.09 78.98 32.47 77.57 27.85 75.96C25.53 75.17 23.22 74.3 20.91 73.41L19.18 72.72H19.09H19.14L19.47 72.23C13.8 74.37 9.60001 75 6.58001 74.97L6.26001 75.33C8.52001 76.33 10.72 77.4 13.02 78.4L16.42 79.79L18.24 80.49C20.68 81.38 23.1 82.24 25.52 83.02C30.3533 84.5866 35.1533 85.9466 39.92 87.1C49.033 89.3266 58.2931 90.9006 67.63 91.81C83.2911 93.416 99.1023 92.7423 114.57 89.81C116.21 89.53 117.79 89.16 119.33 88.81C120.87 88.46 122.33 88.13 123.81 87.71C126.68 86.89 129.39 86.18 131.86 85.28L135.45 84.06L138.72 82.78L141.72 81.59C142.66 81.2 143.54 80.77 144.37 80.39C146.03 79.62 147.52 78.97 148.77 78.33L151.91 76.67L154.48 75.3L151.78 76.4L148.47 77.75Z" fill="white"/>
<path d="M123.7 16.02C123.7 16.02 123.56 16.5 123.25 17.33C122.814 18.4987 122.303 19.6377 121.72 20.74C120.853 22.405 119.789 23.9595 118.55 25.37C116.939 27.2426 114.945 28.7474 112.702 29.7825C110.459 30.8176 108.02 31.359 105.55 31.37C103.548 31.4069 101.557 31.0677 99.68 30.37C98.4175 29.9108 97.2634 29.1959 96.29 28.27C95.61 27.57 95.4 26.98 95.59 26.6C96.01 25.81 97.9 26.06 100.59 26.05C103.899 26.1084 107.182 25.4464 110.21 24.11C113.403 22.5232 116.484 20.7189 119.43 18.71C120.69 17.89 121.76 17.22 122.52 16.77C123.28 16.32 123.7 16.02 123.7 16.02Z" fill="#263238"/>
<path d="M147.09 36.8601C147.09 36.8601 146.92 37.2701 146.53 38.0001C146.295 38.4392 146.027 38.8604 145.73 39.2601C145.35 39.8078 144.928 40.3259 144.47 40.8101C143.919 41.4086 143.317 41.9573 142.67 42.4501C141.93 43.0339 141.14 43.5525 140.31 44.0001C138.395 45.0094 136.31 45.6569 134.16 45.9101C132.002 46.1242 129.825 46.013 127.7 45.5801C126.78 45.3785 125.877 45.1043 125 44.7601C124.235 44.4743 123.495 44.123 122.79 43.7101C120.19 42.1601 119.17 40.4801 119.61 39.7901C120.05 39.1001 121.82 39.2701 124.26 39.5501C124.87 39.6101 125.53 39.7001 126.26 39.7401C126.99 39.7801 127.71 39.8201 128.48 39.8801C130.149 39.9198 131.818 39.8597 133.48 39.7001C135.24 39.5001 136.93 39.2801 138.48 39.0401C139.26 38.8901 140.04 38.7901 140.75 38.6201C141.46 38.4501 142.15 38.3101 142.75 38.1501C143.35 37.9901 143.95 37.8201 144.48 37.6701C144.934 37.5532 145.381 37.413 145.82 37.2501L147.09 36.8601Z" fill="#263238"/>
<path d="M159.54 62.2301C159.54 62.2301 159.19 62.4601 158.54 62.8201C157.614 63.3234 156.634 63.7225 155.62 64.0101C154.113 64.4554 152.551 64.6909 150.98 64.7101C149.057 64.724 147.146 64.4234 145.32 63.8201C143.507 63.1963 141.78 62.3462 140.18 61.2901C138.871 60.4291 137.684 59.3966 136.65 58.2201C134.91 56.2201 134.41 54.4801 135.01 53.9001C135.61 53.3201 137.19 53.8001 139.31 54.7001L142.93 56.2501C144.29 56.7901 145.76 57.3701 147.33 57.9201C148.9 58.4701 150.39 58.9801 151.79 59.5101C153.19 60.0401 154.5 60.5101 155.64 60.8901C156.78 61.2701 157.76 61.6301 158.45 61.8901C159.14 62.1501 159.54 62.2301 159.54 62.2301Z" fill="#263238"/>
<path d="M46.13 15.3799C46.13 15.3799 46.62 15.5599 47.46 15.9399C48.3 16.3199 49.46 16.8799 50.84 17.5799C53.59 18.9799 56.98 20.8499 60.18 22.2399C63.0607 23.4393 66.132 24.1166 69.25 24.2399C71.85 24.4199 73.83 24.3999 74.41 25.4299C74.68 25.9299 74.53 26.6499 73.9 27.4799C72.995 28.5646 71.8474 29.421 70.55 29.9799C68.6331 30.8424 66.5616 31.3084 64.46 31.3499C61.8286 31.419 59.2151 30.8997 56.81 29.8299C54.4926 28.794 52.4409 27.245 50.81 25.2999C49.5738 23.8119 48.5445 22.1637 47.75 20.3999C47.2359 19.2294 46.8081 18.0228 46.47 16.7899C46.23 15.8999 46.13 15.3799 46.13 15.3799Z" fill="#263238"/>
<path d="M22.47 33.8601L23.77 34.1201C24.17 34.2201 24.64 34.3201 25.2 34.4101C25.76 34.5001 26.34 34.6301 27.01 34.7001C27.68 34.7701 28.34 34.9101 29.08 34.9701C29.82 35.0301 30.56 35.1101 31.33 35.2101C32.88 35.3301 34.49 35.4701 36.18 35.6601C37.87 35.8501 39.47 35.8901 40.97 35.9201C41.71 35.9201 42.44 35.9201 43.12 35.9201C43.8 35.9201 44.45 35.9201 45.06 35.9201C47.47 35.8501 49.33 35.8601 49.95 36.8601C50.57 37.8601 49.65 39.7101 47.02 41.4601C46.3128 41.9358 45.5589 42.3378 44.77 42.6601C43.8728 43.0521 42.9424 43.3633 41.99 43.5901C39.7938 44.0899 37.5314 44.2317 35.29 44.0101C33.0541 43.7434 30.8965 43.022 28.95 41.8901C28.1075 41.3851 27.3141 40.8026 26.58 40.1501C25.9169 39.5723 25.3138 38.9291 24.78 38.2301C24.3344 37.6944 23.9394 37.1186 23.6 36.5101C23.318 36.0678 23.0802 35.5989 22.89 35.1101C22.56 34.3101 22.47 33.8601 22.47 33.8601Z" fill="#263238"/>
<path d="M7.53003 56.57C7.53003 56.57 7.98003 56.44 8.73003 56.27C9.48003 56.1 10.53 55.86 11.73 55.58C12.93 55.3 14.3 54.97 15.73 54.68C17.2243 54.3382 18.7367 54.0811 20.26 53.91C23.43 53.54 26.26 53.08 28.59 52.83C30.92 52.58 32.59 52.65 33.27 53.63C33.95 54.61 33.17 56.35 31.05 58.18C29.8085 59.2185 28.4158 60.0616 26.92 60.68C25.0923 61.4434 23.1671 61.9482 21.2 62.18C19.2233 62.3838 17.2259 62.2177 15.31 61.69C13.7386 61.257 12.2441 60.5823 10.88 59.69C9.9435 59.0866 9.08676 58.3676 8.33003 57.55C7.80003 56.93 7.53003 56.57 7.53003 56.57Z" fill="#263238"/>
<path d="M85.47 0C85.47 0 85.55 0.489998 85.63 1.31C85.71 2.13 85.78 3.31 85.87 4.61C86.08 7.31 86.35 10.61 86.7 13.52C86.7 13.71 86.7 13.9 86.7 14.07L86.81 14.59C86.89 14.92 86.92 15.28 87 15.59C87.1619 16.2128 87.3555 16.8269 87.58 17.43C87.75 18.04 88.07 18.55 88.28 19.11C88.49 19.67 88.81 20.16 89.1 20.61C90.2 22.55 91.21 23.97 90.82 25.07C90.65 25.61 90 25.98 89.05 26.07C87.7432 26.0948 86.453 25.774 85.31 25.14C84.5085 24.7299 83.754 24.2336 83.06 23.66C82.2669 22.9585 81.5587 22.1664 80.95 21.3C80.2612 20.3366 79.6936 19.2921 79.26 18.19C79.0538 17.6102 78.8802 17.0192 78.74 16.42C78.66 16.11 78.58 15.81 78.51 15.5C78.44 15.19 78.43 14.88 78.39 14.57C78.33 13.94 78.29 13.32 78.28 12.72C78.2951 12.1334 78.3519 11.5486 78.45 10.97C78.53 10.41 78.63 9.86 78.74 9.33C78.85 8.8 79.08 8.33 79.26 7.86C79.8878 6.21152 80.772 4.67256 81.88 3.3C82.6375 2.39683 83.4778 1.56653 84.39 0.819992C84.7354 0.52787 85.0959 0.254165 85.47 0Z" fill="#263238"/>
<path d="M147.01 67.78C147.01 67.78 149.51 77.38 143.65 78.87C137.79 80.36 140.22 81.28 140.22 81.28L154.4 75.46L147.01 67.78Z" fill="#0574BC"/>
<path opacity="0.7" d="M147.01 67.78C147.01 67.78 149.51 77.38 143.65 78.87C137.79 80.36 140.22 81.28 140.22 81.28L154.4 75.46L147.01 67.78Z" fill="white"/>
<path d="M154.4 75.3C153.98 75.64 150.78 72.37 145 66.56C142.1 63.66 138.53 60.13 134.31 56.16C130.09 52.19 125.16 47.78 119.47 43.23C116.64 40.98 113.59 38.73 110.34 36.56C107.014 34.3037 103.524 32.2982 99.9 30.56C96.2233 28.7099 92.2728 27.464 88.2 26.87L86.69 26.71C86.18 26.71 85.69 26.71 85.19 26.71C84.1858 26.7236 83.1836 26.8038 82.19 26.95C80.0392 27.3142 77.9244 27.8664 75.87 28.6C71.4379 30.2442 67.183 32.3314 63.17 34.83C58.8662 37.4854 54.7101 40.373 50.72 43.48C42.239 50.1294 34.1738 57.2929 26.57 64.93C24.57 66.93 22.68 68.85 20.81 70.79L19.47 72.23C13.8 74.37 9.6 75 6.58 74.97C1.83 74.97 0 73.25 0 73.25L4.08 73.03C6.8783 72.8801 9.50476 71.6333 11.39 69.56C12.18 68.69 12.99 67.82 13.79 66.95C14.26 66.44 14.79 65.95 15.21 65.44C17.12 63.44 19.09 61.44 21.1 59.44C28.9359 51.56 37.2877 44.2104 46.1 37.44C50.3485 34.1899 54.779 31.185 59.37 28.44C63.8679 25.7413 68.6333 23.5161 73.59 21.8C76.0794 20.9666 78.6402 20.364 81.24 20C82.5661 19.8277 83.9029 19.7508 85.24 19.77C85.92 19.77 86.59 19.77 87.24 19.84L89.18 20.09C93.9603 20.8804 98.5763 22.4585 102.84 24.76C106.68 26.7681 110.357 29.0717 113.84 31.65C117.17 34.08 120.24 36.55 123.06 39.02C128.093 43.4342 132.893 48.1071 137.44 53.02C141.44 57.36 144.72 61.24 147.3 64.48C152.41 71.04 154.82 74.97 154.4 75.3Z" fill="#263238"/>
</svg>
