<?xml version="1.0" encoding="UTF-8"?>
<svg version="1.1" xmlns="http://www.w3.org/2000/svg" width="1080" height="1080">
<path d="M0 0 C3.09704938 2.01158834 5.54123601 4.25506158 8 7 C8.49113281 7.52335937 8.98226562 8.04671875 9.48828125 8.5859375 C16.54992274 17.12656585 16.95233379 29.45710478 16 40 C12.88539262 60.9628539 1.42951246 79.27994132 -11 96 C-11.4758252 96.64018066 -11.95165039 97.28036133 -12.44189453 97.93994141 C-29.25671395 120.32186978 -48.82295747 142.26477521 -70.17578125 160.39453125 C-72.20805506 162.18310628 -74.10057895 164.07118753 -76 166 C-79.83521392 169.87972317 -83.84500239 173.46755254 -88 177 C-88.99257813 177.84691406 -89.98515625 178.69382812 -91.0078125 179.56640625 C-97.01253905 184.67614132 -103.07238866 189.7100838 -109.1875 194.6875 C-112.31799851 197.26146545 -115.41165634 199.87576903 -118.5 202.5 C-125.15033651 208.14857944 -131.90121006 213.66823508 -138.671875 219.171875 C-142.65120183 222.41514138 -146.62082287 225.66260658 -150.51171875 229.01171875 C-151.10227051 229.51848145 -151.69282227 230.02524414 -152.30126953 230.54736328 C-153.45830861 231.54273125 -154.61175729 232.542291 -155.76123047 233.54638672 C-159.77869898 237 -159.77869898 237 -162 237 C-162 237.66 -162 238.32 -162 239 C-163.50787161 240.37491299 -165.08539761 241.67364462 -166.6875 242.9375 C-167.69167969 243.74058594 -168.69585938 244.54367187 -169.73046875 245.37109375 C-170.26591309 245.79890137 -170.80135742 246.22670898 -171.35302734 246.66748047 C-174.1090848 248.8973295 -176.80230657 251.20018813 -179.5 253.5 C-184.4421856 257.70085776 -189.43169618 261.8378241 -194.46484375 265.9296875 C-195.30144531 266.61289062 -196.13804687 267.29609375 -197 268 C-198.02791153 268.71726761 -199.05582306 269.43453522 -200.11488342 270.17353821 C-202.69964789 272.34587819 -202.97138265 272.8671305 -203.72825623 276.38127136 C-203.71794876 277.6723732 -203.7076413 278.96347504 -203.69702148 280.29370117 C-203.69950394 281.00988617 -203.70198639 281.72607117 -203.70454407 282.46395874 C-203.70546004 284.82471551 -203.66368366 287.18262874 -203.62109375 289.54296875 C-203.6124295 291.19337363 -203.60628936 292.84379352 -203.60255432 294.49421692 C-203.58533659 298.83921022 -203.53127154 303.18301963 -203.47027588 307.52758789 C-203.42684563 311.05215043 -203.40915366 314.57661209 -203.39300442 318.10138988 C-203.37327059 322.33198318 -203.3428315 326.56247011 -203.30859375 330.79296875 C-203.30216795 331.58921347 -203.29574215 332.38545818 -203.28912163 333.20583153 C-203.54369473 345.70087244 -203.54369473 345.70087244 -202 358 C-199.91078244 360.17020292 -199.91078244 360.17020292 -197 361 C-195.906875 361.391875 -194.81375 361.78375 -193.6875 362.1875 C-192.800625 362.455625 -191.91375 362.72375 -191 363 C-191 364.98 -191 366.96 -191 369 C-205.19 369 -219.38 369 -234 369 C-234 367.02 -234 365.04 -234 363 C-233.28972656 362.73445313 -232.57945312 362.46890625 -231.84765625 362.1953125 C-230.92855469 361.84210938 -230.00945312 361.48890625 -229.0625 361.125 C-228.14597656 360.77695312 -227.22945312 360.42890625 -226.28515625 360.0703125 C-223.85058944 359.2180914 -223.85058944 359.2180914 -223 357 C-222.9035543 355.04495234 -222.87203691 353.08657499 -222.87060547 351.12915039 C-222.86745331 349.89769791 -222.86430115 348.66624542 -222.86105347 347.3974762 C-222.86284351 346.04753585 -222.86489452 344.69759583 -222.8671875 343.34765625 C-222.86651406 341.96764611 -222.86554369 340.58763608 -222.86428833 339.20762634 C-222.86281277 336.31329216 -222.86496105 333.41898881 -222.86962891 330.5246582 C-222.87532079 326.81446656 -222.87204975 323.10434734 -222.86605644 319.39415836 C-222.86244247 316.5434464 -222.86359336 313.69275159 -222.86618423 310.84203911 C-222.86685146 309.47409494 -222.86603219 308.10614921 -222.86370468 306.73820686 C-222.86116511 304.82555293 -222.86572214 302.91289353 -222.87060547 301.00024414 C-222.87140106 299.91151505 -222.87219666 298.82278595 -222.87301636 297.70106506 C-222.88223453 294.90108277 -222.88223453 294.90108277 -224 292 C-227.92370723 293.61619369 -230.71351855 296.31360105 -233.75 299.1875 C-234.81459291 300.17763332 -235.87969843 301.16721577 -236.9453125 302.15625 C-237.46383789 302.63964844 -237.98236328 303.12304688 -238.51660156 303.62109375 C-240.53476218 305.49709296 -242.57056575 307.35130236 -244.625 309.1875 C-245.23601562 309.73792969 -245.84703125 310.28835938 -246.4765625 310.85546875 C-248 312 -248 312 -250 312 C-250.33 312.99 -250.66 313.98 -251 315 C-252.42578125 316.4375 -252.42578125 316.4375 -254.3125 318 C-257.9534395 321.08532037 -261.49499696 324.26194521 -265 327.5 C-268.23462327 330.48054561 -271.47826431 333.44316864 -274.8125 336.3125 C-278.6696478 339.65855575 -282.39521777 343.13865893 -286.125 346.625 C-286.77025635 347.22538086 -287.4155127 347.82576172 -288.08032227 348.44433594 C-291.32252932 351.46724198 -294.53506979 354.51247793 -297.6953125 357.62109375 C-305.83335547 365.55726623 -313.09670115 372.14190002 -325.0625 372.375 C-329.5875969 372.20620155 -329.5875969 372.20620155 -332 371 C-333.050201 366.04071752 -332.75524733 362.30778759 -330.1953125 357.875 C-329.39218704 356.72073905 -328.57619333 355.57536353 -327.75 354.4375 C-302.08787055 318.75385855 -291.41440166 270.10335416 -278.33911133 228.6418457 C-274.45097809 216.3443094 -270.33363311 204.14774375 -266 192 C-266.74572266 192.63349365 -267.49144531 193.2669873 -268.25976562 193.91967773 C-276.17213344 200.6208069 -284.34918306 206.93036301 -292.61376953 213.18896484 C-295.11092428 215.08418624 -297.60107621 216.9883113 -300.08984375 218.89453125 C-309.34061801 225.97452137 -318.64242641 232.97092254 -328.04418945 239.84912109 C-333.46012741 243.82612366 -338.77781517 247.913116 -344.0625 252.0625 C-356.76264736 262.01371568 -369.89150697 271.28813551 -383.24584961 280.33618164 C-388.85828755 284.16018674 -394.2114284 288.20079006 -399.55078125 292.3984375 C-403.79656946 295.66482133 -408.24992894 298.62775339 -412.6875 301.625 C-417.59176971 304.93766665 -422.44159238 308.21596285 -427 312 C-432.27226333 316.37212081 -437.95282563 320.10709992 -443.62231445 323.93701172 C-448.92029802 327.53249719 -454.09341868 331.24668837 -459.1875 335.125 C-465.50614405 339.9273254 -471.95462198 344.4794243 -478.51953125 348.9375 C-481.93540342 351.26013656 -485.32102693 353.62289898 -488.69921875 356 C-489.69945068 356.7022168 -490.69968262 357.40443359 -491.73022461 358.12792969 C-493.68276082 359.50002483 -495.632961 360.87545292 -497.58032227 362.25488281 C-504.18492934 366.88501235 -510.9779404 371.03460925 -518 375 C-518.78753662 375.44891602 -519.57507324 375.89783203 -520.38647461 376.36035156 C-524.67870455 378.76082291 -527.98457421 379.7570454 -533 379 C-535.75888637 377.32067786 -537.4378264 376.01893965 -539 373.1875 C-539 365.02678211 -532.21321389 359.47466955 -527 354 C-524.74531982 351.60854566 -522.49697719 349.21119141 -520.25 346.8125 C-519.65509766 346.17868408 -519.06019531 345.54486816 -518.44726562 344.8918457 C-513.13228105 339.20221466 -508.03539105 333.34065662 -502.96484375 327.43359375 C-500.4398256 324.49540548 -497.85996061 321.61326702 -495.25 318.75 C-491.51985579 314.63467785 -488.01169481 310.37249393 -484.51953125 306.0546875 C-481.5542737 302.45960005 -478.50215959 298.94780066 -475.4375 295.4375 C-471.20436968 290.57983923 -467.05077176 285.68681106 -463.06640625 280.62109375 C-461.50558303 278.64129719 -459.93085511 276.6779358 -458.33984375 274.72265625 C-450.22414658 264.72342003 -442.54855395 254.43237013 -435 244 C-434.50032715 243.31244629 -434.0006543 242.62489258 -433.48583984 241.91650391 C-423.83672435 228.60366335 -414.91532531 214.80911131 -406 201 C-405.43216797 200.12520996 -404.86433594 199.25041992 -404.27929688 198.34912109 C-378.64932129 158.81639234 -343.45390929 104.47623125 -354 55 C-356.90235507 44.77612611 -362.58809811 36.8401637 -371.6796875 31.27734375 C-393.30812269 19.37078094 -419.00243944 22.74566422 -442 29 C-497.74345802 45.24456443 -548.59351301 80.94278761 -577.02099609 132.18652344 C-588.53615373 153.51684536 -598.30070463 179.88439157 -591.3125 204.1875 C-588.00043661 213.3130453 -583.45070593 220.53080592 -574.7265625 225.22265625 C-561.13888421 231.51993572 -545.78864962 230.01135157 -532 225 C-526.46656343 222.71275983 -521.20989844 219.94039685 -516 217 C-515.04738281 216.46632813 -514.09476563 215.93265625 -513.11328125 215.3828125 C-478.94529327 194.85137577 -446.87216904 159.10545569 -435.5625 120.3125 C-432.70970837 108.48144206 -433.33832836 99.61605517 -439.1328125 88.90625 C-440 87 -440 87 -440 84 C-436.92340454 84.07325227 -434.74145141 84.35634194 -432.37109375 86.4140625 C-424.90905529 94.90470275 -422.46333573 104.54903696 -422.76171875 115.71484375 C-424.82996565 144.22952636 -437.55686373 168.32341929 -457 189 C-457.53995605 189.58233398 -458.07991211 190.16466797 -458.63623047 190.76464844 C-482.32690581 216.12231728 -516.16325529 236.91653909 -551.40234375 239.22265625 C-567.49199943 239.63892406 -584.81831002 236.1533655 -597 225 C-607.58722453 214.74501055 -611.94268411 202.01270754 -612.40454102 187.47827148 C-612.8684738 149.07494689 -588.73410314 115.25361607 -563.02172852 88.78979492 C-557.02701277 82.72931061 -550.69669242 77.2783581 -544 72 C-542.88057919 71.0703911 -541.76351308 70.13794162 -540.6484375 69.203125 C-530.99707422 61.17981333 -520.76809879 54.43053307 -510 48 C-509.31824707 47.59152832 -508.63649414 47.18305664 -507.93408203 46.76220703 C-503.35657181 44.04441717 -498.71284136 41.47523633 -494 39 C-493.24090332 38.60071289 -492.48180664 38.20142578 -491.69970703 37.79003906 C-451.64123525 17.03578129 -402.93134515 6.11111223 -358.70092773 19.25708008 C-340.43245628 25.12749642 -324.17195427 35.66219869 -315 53 C-304.28880328 75.24852298 -304.99853725 100.43778929 -313.05322266 123.46630859 C-315.82435312 130.95300049 -319.17577657 138.05060227 -322.96728516 145.06835938 C-324.00275172 147.00514695 -324.99560071 148.95893446 -325.98046875 150.921875 C-335.6196373 169.93801567 -347.42883664 187.80996208 -360 205 C-360.54479004 205.75055664 -361.08958008 206.50111328 -361.65087891 207.27441406 C-376.52092164 227.75411363 -392.08891058 247.721833 -408.57495117 266.92895508 C-410.5392656 269.22508696 -412.32028153 271.48042229 -414 274 C-414.66 274 -415.32 274 -416 274 C-416.24363281 274.56203125 -416.48726562 275.1240625 -416.73828125 275.703125 C-418.24180936 278.44019785 -420.06699748 280.45795941 -422.1875 282.75 C-424.95141966 285.76438614 -427.70118979 288.78037221 -430.375 291.875 C-436.99846979 299.47114718 -443.7749493 306.97022094 -451 314 C-442.30597452 308.76884907 -434.30396299 302.80900863 -426.23144531 296.68408203 C-422.30129261 293.71797773 -418.33919155 290.7953777 -414.375 287.875 C-413.16360352 286.98252563 -413.16360352 286.98252563 -411.92773438 286.07202148 C-406.76238257 282.27511026 -401.56350412 278.52974805 -396.33618164 274.81884766 C-388.1444589 268.98896769 -380.08399706 262.97776054 -372 257 C-353.67431469 243.44896112 -353.67431469 243.44896112 -345.8125 237.875 C-340.23710616 233.92045395 -334.75816532 229.84846654 -329.30078125 225.73291016 C-324.16741043 221.86454857 -318.9961185 218.0506775 -313.8125 214.25 C-306.87685158 209.16092 -300.01658542 203.98107697 -293.1875 198.75 C-287.2485598 194.20169383 -281.28624603 189.70703913 -275.1875 185.375 C-274.34566162 184.76640137 -274.34566162 184.76640137 -273.48681641 184.14550781 C-271.24830598 182.5359609 -269.03728808 181.02041675 -266.6171875 179.6953125 C-259.25184837 175.41053346 -257.56131035 167.17215406 -254.91503906 159.56005859 C-253.36313199 155.21819693 -251.61122313 150.95821911 -249.875 146.6875 C-247.73968122 141.40313533 -245.67393091 136.11562953 -243.75 130.75 C-234.59233068 107.01916255 -221.21556336 84.74206652 -204 66 C-203.39027344 65.32066406 -202.78054688 64.64132812 -202.15234375 63.94140625 C-191.71115646 52.85844386 -178.70977286 45.27742977 -163.5625 43.625 C-156.97663877 44.31824855 -151.06400041 46.35793721 -146.5 51.3125 C-141.85673208 57.5035239 -141.1803337 64.49690078 -142 72 C-148.14512949 102.25892874 -176.13484346 127.33875096 -199.1953125 145.66796875 C-203.39592484 149.16067846 -207.35397461 152.90439299 -211.31884766 156.66064453 C-211.88394043 157.19415527 -212.4490332 157.72766602 -213.03125 158.27734375 C-213.78245117 158.99265259 -213.78245117 158.99265259 -214.54882812 159.72241211 C-216 161 -216 161 -219 163 C-220.03039247 165.67971457 -220.03039247 165.67971457 -220.75488281 168.92285156 C-221.06718338 170.17730072 -221.37948395 171.43174988 -221.70124817 172.72421265 C-221.86391489 173.40087353 -222.02658161 174.07753441 -222.19417763 174.77470016 C-222.71125395 176.92442074 -223.24248153 179.07019689 -223.77763367 181.21548462 C-224.5436972 184.2901206 -225.30461375 187.36596057 -226.06173706 190.44281006 C-236.58616658 233.12250607 -247.61610398 275.29812774 -269 314 C-268.5875 313.61255615 -268.175 313.2251123 -267.75 312.82592773 C-253.66909559 299.61132896 -253.66909559 299.61132896 -247.875 294.62890625 C-245.61248819 292.66334911 -243.40309317 290.64326691 -241.1875 288.625 C-237.72469918 285.49577173 -234.19320997 282.49499651 -230.5625 279.5625 C-225.78571491 275.69941783 -221.26053118 271.62088565 -216.7421875 267.4609375 C-214.09984117 265.08960105 -211.39305833 262.84747003 -208.625 260.625 C-203.8293951 256.75845816 -199.33121333 252.65148017 -194.83862305 248.4440918 C-190.62588877 244.52107276 -186.23595547 240.88096281 -181.74609375 237.27734375 C-178.20764163 234.34289484 -174.85315455 231.22631242 -171.49121094 228.09448242 C-168.1583895 225.00907804 -164.72847162 222.09827813 -161.1875 219.25 C-157.44452427 216.23631467 -154.00321578 213.12180588 -150.6640625 209.671875 C-148.27513145 207.27172831 -145.7207557 205.0844203 -143.15625 202.875 C-140.80037042 200.82640906 -138.4949254 198.72796998 -136.1875 196.625 C-132.75554859 193.51790506 -129.24727848 190.56968705 -125.625 187.6875 C-120.85632459 183.83613697 -116.56178709 179.67986802 -112.27880859 175.31030273 C-108.93727125 171.9070469 -105.48552868 168.73400279 -101.86328125 165.63671875 C-96.39020314 160.82913023 -91.51100595 155.50829879 -86.7734375 149.98828125 C-84.96641844 147.96235019 -83.07294161 146.07769631 -81.125 144.1875 C-77.23188518 140.3466919 -73.81683216 136.22127441 -70.3984375 131.95703125 C-68.36385587 129.44859754 -66.27888599 126.99790335 -64.16113281 124.55981445 C-56.56750729 115.77710746 -49.73652833 106.44903325 -43 97 C-42.53706543 96.35305176 -42.07413086 95.70610352 -41.59716797 95.03955078 C-25.20198594 71.922282 -7.55233527 42.44832689 -12.51171875 12.95703125 C-14.23503837 7.40037629 -16.67905409 5.19436761 -21.75 2.375 C-23.48575146 1.55256279 -25.23173677 0.74998751 -27 0 C-26.67 -0.99 -26.34 -1.98 -26 -3 C-17.29604079 -5.90131974 -8.1865543 -3.55937143 0 0 Z M-187 69 C-197.19948971 84.29923456 -203.06474813 101.75630604 -208.875 119.0625 C-209.11610504 119.77669098 -209.35721008 120.49088196 -209.60562134 121.22671509 C-212.23853711 129.05996305 -214.70517753 136.812152 -216 145 C-209.87809751 140.64403092 -204.38072971 135.77599961 -198.88671875 130.671875 C-196.55650908 128.51509095 -194.20731067 126.39660669 -191.8125 124.3125 C-191.19117188 123.77109375 -190.56984375 123.2296875 -189.9296875 122.671875 C-188.54247978 121.47000272 -187.1513829 120.27261392 -185.7578125 119.078125 C-180.71530646 114.69776622 -176.25948269 110.13885976 -172 105 C-171.26652344 104.14277344 -170.53304687 103.28554688 -169.77734375 102.40234375 C-160.59766786 91.5062677 -152.54274042 80.01228445 -152.71484375 65.28515625 C-153.26681115 60.86185582 -155.27273998 57.41882073 -158.75 54.5625 C-171.46592331 51.38351917 -179.76765439 59.39131226 -187 69 Z " fill="#FFFFFF" transform="translate(908,463)"/>
<path d="M0 0 C8.719854 6.23516442 14.37801421 15.96327759 16.3125 26.4375 C16.3125 29.7375 16.3125 33.0375 16.3125 36.4375 C-4.4775 36.4375 -25.2675 36.4375 -46.6875 36.4375 C-45.31649614 58.04626948 -45.31649614 58.04626948 -33.75 75.375 C-28.28231134 79.77358752 -23.34153821 80.90417652 -16.41015625 80.7578125 C-9.13482751 79.90189147 -2.48204108 76.85238844 3.3125 72.4375 C4.6428125 71.4475 4.6428125 71.4475 6 70.4375 C8.15063596 68.57749052 9.72178785 66.78170738 11.3125 64.4375 C13.2925 65.4275 13.2925 65.4275 15.3125 66.4375 C14.53694167 73.13116501 10.03736497 76.98385085 5.3125 81.4375 C-3.76149115 88.53117386 -15.231231 91.72589499 -26.6875 90.4375 C-40.8228222 87.90415654 -51.51934164 81.99049772 -60.0625 70.125 C-67.78948945 57.26131869 -68.78486373 42.26079413 -65.95703125 27.66796875 C-65.05075323 24.78637454 -64.00454906 22.15337569 -62.6875 19.4375 C-62.31367187 18.63441406 -61.93984375 17.83132813 -61.5546875 17.00390625 C-55.98260366 6.06269526 -47.87627587 -0.79539731 -36.5625 -5.4375 C-23.88734601 -9.19060411 -11.16202804 -6.54914911 0 0 Z M-40.55859375 8.67578125 C-44.3911759 14.65673124 -46.17492075 20.38953526 -46.6875 27.4375 C-43.12692535 28.24943358 -39.83662393 28.56592653 -36.1875 28.5703125 C-35.14070068 28.57224609 -34.09390137 28.57417969 -33.01538086 28.57617188 C-31.91718018 28.57166016 -30.81897949 28.56714844 -29.6875 28.5625 C-28.56931885 28.56056641 -27.4511377 28.55863281 -26.29907227 28.55664062 C-18.71870135 28.5169557 -11.22673465 28.27685813 -3.6875 27.4375 C-2.66851346 18.90820525 -4.84495396 12.49348446 -9.6875 5.4375 C-13.76650503 1.09562576 -17.90080424 0.13058284 -23.75 -0.125 C-31.19229754 0.22180732 -35.91716901 2.59444256 -40.55859375 8.67578125 Z " fill="#FFFFFF" transform="translate(792.6875,743.5625)"/>
<path d="M0 0 C1.32 0.33 2.64 0.66 4 1 C3.93296875 1.8971875 3.8659375 2.794375 3.796875 3.71875 C4.03423363 7.55300475 4.77173539 8.63891402 7.25 11.5 C7.9821875 12.35980469 8.714375 13.21960938 9.46875 14.10546875 C10.3040625 15.06066406 11.139375 16.01585937 12 17 C12.92913794 18.09852591 13.85613651 19.19886405 14.78125 20.30078125 C19.79852649 26.25127116 24.93715924 32.0620159 30.25 37.75 C44 52.52678571 44 52.52678571 44 58 C35.57891933 57.3362207 27.31608118 55.95386035 19 54.5 C17.66540662 54.27188934 16.33077143 54.04402317 14.99609375 53.81640625 C5.25637755 52.12818878 5.25637755 52.12818878 3 51 C8.68090012 58.060757 14.51657943 64.96187474 20.48120117 71.78344727 C21.52323135 72.97708593 22.56175542 74.17379748 23.59619141 75.37402344 C24.8483407 76.82433896 26.11646866 78.26082385 27.38671875 79.6953125 C29 82 29 82 29 86 C21.57586131 85.40522589 14.24848416 84.51782733 6.890625 83.37109375 C4.81642061 83.0552442 2.74220143 82.73949183 0.66796875 82.42382812 C-2.55350143 81.92960013 -5.77469934 81.43368195 -8.99560547 80.93579102 C-12.13703372 80.45144977 -15.279379 79.97345062 -18.421875 79.49609375 C-19.37930603 79.34611435 -20.33673706 79.19613495 -21.32318115 79.04161072 C-26.260453 78.29460233 -31.00634426 77.63185157 -36 78 C-36.99 78.99 -36.99 78.99 -38 80 C-38.99 80 -39.98 80 -41 80 C-41.44573599 75.37120319 -40.07187204 72.71084053 -37.75 68.75 C-37.14671875 67.69296875 -36.5434375 66.6359375 -35.921875 65.546875 C-34 63 -34 63 -31.765625 62.140625 C-31.18296875 62.09421875 -30.6003125 62.0478125 -30 62 C-29 65 -29 65 -30 68 C-24.2347513 68.85816845 -18.46896098 69.71256507 -12.70263672 70.56347656 C-10.74122024 70.85345611 -8.77995557 71.14446439 -6.81884766 71.43652344 C-3.99941693 71.85622604 -1.17946037 72.27222184 1.640625 72.6875 C2.51680481 72.81874268 3.39298462 72.94998535 4.29571533 73.08520508 C5.11626404 73.20532959 5.93681274 73.3254541 6.78222656 73.44921875 C7.50170471 73.55580811 8.22118286 73.66239746 8.96246338 73.7722168 C11.32083449 74.07406755 11.32083449 74.07406755 15 74 C14.21496094 73.154375 13.42992187 72.30875 12.62109375 71.4375 C7.47393591 65.88306029 2.3345013 60.33384629 -2.59765625 54.5859375 C-6.27276539 50.42968593 -8.30866708 49.23530409 -13.9609375 48.875 C-17.81469921 48.76038999 -20.74366613 48.82911075 -24 51 C-25.21421557 47.47678432 -25.06854799 46.15932272 -23.56640625 42.66796875 C-22.91291108 41.49959859 -22.24444949 40.33949378 -21.5625 39.1875 C-21.05493164 38.2912793 -21.05493164 38.2912793 -20.53710938 37.37695312 C-19.70422749 35.91061178 -18.85381439 34.45425244 -18 33 C-16.68 33.33 -15.36 33.66 -14 34 C-14.33 35.65 -14.66 37.3 -15 39 C-14.25661377 39.1139209 -13.51322754 39.2278418 -12.74731445 39.34521484 C-3.55820119 40.75590129 5.62745722 42.18811753 14.8125 43.625 C16.29491961 43.85678531 17.77734147 44.08855622 19.25976562 44.3203125 C22.83986961 44.88004304 26.41994345 45.43996612 30 46 C29.21496094 45.154375 28.42992187 44.30875 27.62109375 43.4375 C18.05944317 33.11841551 18.05944317 33.11841551 14.375 28.8125 C11.58856516 25.62213481 8.73254317 22.5063081 5.8125 19.4375 C4.99394531 18.56996094 4.17539063 17.70242188 3.33203125 16.80859375 C1.20445385 14.73599865 1.20445385 14.73599865 -1.16015625 15.1875 C-1.76730469 15.455625 -2.37445313 15.72375 -3 16 C-4.33333333 16.33333333 -5.66666667 16.66666667 -7 17 C-8 14 -8 14 -6.34765625 10.64453125 C-5.59622298 9.36110983 -4.83403499 8.08393866 -4.0625 6.8125 C-3.67642578 6.15830078 -3.29035156 5.50410156 -2.89257812 4.83007812 C-1.93746912 3.21464684 -0.96989934 1.60659475 0 0 Z " fill="#FFFFFF" transform="translate(238,429)"/>
<path d="M0 0 C5.5143855 0.41357891 10.08395099 2.65122103 15 5 C15 5.66 15 6.32 15 7 C13.948125 7.12375 12.89625 7.2475 11.8125 7.375 C7.14412204 8.03798115 7.14412204 8.03798115 3 10 C1.48594622 12.91723863 0.60126536 15.97624655 -0.3125 19.125 C-0.57611328 19.97449219 -0.83972656 20.82398438 -1.11132812 21.69921875 C-1.7588149 23.7947214 -2.38738862 25.8940889 -3 28 C-1.82244141 28.29003906 -1.82244141 28.29003906 -0.62109375 28.5859375 C8.99435828 30.96915383 8.99435828 30.96915383 13 32.1875 C16.12547105 33.17427698 16.12547105 33.17427698 20 33 C20.69969682 30.75376301 21.38435043 28.50283586 22.0625 26.25 C22.63677734 24.37054687 22.63677734 24.37054687 23.22265625 22.453125 C24.14875625 18.58493402 24.14875625 18.58493402 23 15 C22.01 14.34 21.02 13.68 20 13 C20 11.68 20 10.36 20 9 C26.45054982 10.35253464 32.71105679 12.03060233 39 14 C38.67 15.32 38.34 16.64 38 18 C35.69 18 33.38 18 31 18 C29.04071619 24.01339937 27.58367389 29.69632197 27 36 C29.37145894 36.84479453 31.74634124 37.67593283 34.125 38.5 C34.79015625 38.73847656 35.4553125 38.97695313 36.140625 39.22265625 C40.23354055 40.62708806 43.61131792 41.27343814 48 41 C50.96926331 34.5090523 53.34800688 28.24369875 53 21 C51.76049601 18.08716563 50.56399968 16.5431108 48.3125 14.375 C47 13 47 13 47 10 C52.70629354 10.42797202 56.41078616 12.84345952 61 16 C60.42695163 21.40420615 59.47951764 26.48400742 57.96875 31.7109375 C57.77277222 32.40514801 57.57679443 33.09935852 57.37487793 33.81460571 C56.96407415 35.26568849 56.55051231 36.71599313 56.13427734 38.16552734 C55.49609872 40.3885899 54.86649913 42.61394804 54.23828125 44.83984375 C53.83642872 46.25534788 53.43410214 47.67071753 53.03125 49.0859375 C52.84268433 49.75047943 52.65411865 50.41502136 52.45983887 51.09970093 C51.11715358 55.76569285 51.11715358 55.76569285 50 58 C48.125 57.8125 48.125 57.8125 46 57 C45.74275146 56.20529297 45.48550293 55.41058594 45.22045898 54.59179688 C44.22216672 51.79714958 44.22216672 51.79714958 41.50415039 50.68554688 C40.46250732 50.36650391 39.42086426 50.04746094 38.34765625 49.71875 C37.1867749 49.35378418 36.02589355 48.98881836 34.82983398 48.61279297 C33.58661377 48.24557129 32.34339355 47.87834961 31.0625 47.5 C29.8031665 47.11344238 28.54383301 46.72688477 27.24633789 46.32861328 C23.50699275 45.18622168 19.75547695 44.08826372 16 43 C14.96584961 42.69932617 13.93169922 42.39865234 12.86621094 42.08886719 C10.22801023 41.33211776 7.58587581 40.59524416 4.9375 39.875 C4.16607666 39.66294922 3.39465332 39.45089844 2.59985352 39.23242188 C-1.6991072 38.111587 -1.6991072 38.111587 -6 39 C-6.66 39.99 -7.32 40.98 -8 42 C-9.32 41.67 -10.64 41.34 -12 41 C-10.64469524 32.97683465 -8.42145924 25.25382434 -6.05883789 17.4831543 C-5.42968193 15.41176028 -4.80912266 13.33792131 -4.18945312 11.26367188 C-1.13860421 1.13860421 -1.13860421 1.13860421 0 0 Z " fill="#FFFFFF" transform="translate(183,545)"/>
<path d="M0 0 C1.37608552 0.08868107 2.75091742 0.19685939 4.125 0.3125 C5.27355469 0.39951172 5.27355469 0.39951172 6.4453125 0.48828125 C9.62922493 1.12603741 12.15570435 2.46243148 15 4 C14.39321114 18.33660636 13.73771367 32.6695196 13 47 C11.68 47 10.36 47 9 47 C8.67 45.35 8.34 43.7 8 42 C-9.99632154 40.66758563 -27.96219827 39.59045898 -46 39 C-46.495 41.475 -46.495 41.475 -47 44 C-48.32 44 -49.64 44 -51 44 C-51.12433748 35.13059308 -50.95134676 26.29907416 -50.5625 17.4375 C-50.52326416 16.49825684 -50.48402832 15.55901367 -50.44360352 14.59130859 C-50.22831708 9.98723674 -49.89762637 5.53339033 -49 1 C-46.70800823 1.14063135 -44.41640814 1.28765943 -42.125 1.4375 C-40.84882813 1.51871094 -39.57265625 1.59992187 -38.2578125 1.68359375 C-35 2 -35 2 -33 3 C-33 3.99 -33 4.98 -33 6 C-33.71027344 6.19335938 -34.42054688 6.38671875 -35.15234375 6.5859375 C-36.07144531 6.84632813 -36.99054688 7.10671875 -37.9375 7.375 C-39.31228516 7.75785156 -39.31228516 7.75785156 -40.71484375 8.1484375 C-43.16745087 8.76660104 -43.16745087 8.76660104 -44 11 C-44.25914998 13.85928811 -44.46597373 16.69768852 -44.625 19.5625 C-44.70234375 20.75262695 -44.70234375 20.75262695 -44.78125 21.96679688 C-44.89791295 23.97580158 -44.9538468 25.98814015 -45 28 C-43.34920558 29.65079442 -41.36263821 29.22549447 -39.08984375 29.31640625 C-37.60581055 29.37924805 -37.60581055 29.37924805 -36.09179688 29.44335938 C-35.05087891 29.48267578 -34.00996094 29.52199219 -32.9375 29.5625 C-31.89271484 29.60568359 -30.84792969 29.64886719 -29.77148438 29.69335938 C-27.18116028 29.79981105 -24.59059825 29.90044308 -22 30 C-22 23.73 -22 17.46 -22 11 C-23.65 10.34 -25.3 9.68 -27 9 C-27 7.68 -27 6.36 -27 5 C-20.73 5.33 -14.46 5.66 -8 6 C-7.505 7.98 -7.505 7.98 -7 10 C-7.94875 10.144375 -8.8975 10.28875 -9.875 10.4375 C-13.05188024 11.61563842 -13.05188024 11.61563842 -13.80859375 13.78515625 C-14.35582127 16.19041212 -14.71623569 18.54930826 -15 21 C-15.10957031 21.92941406 -15.21914062 22.85882812 -15.33203125 23.81640625 C-15.58735639 26.20965386 -15.80177298 28.6015389 -16 31 C-12.72966072 31.19689005 -9.45872059 31.38089008 -6.1875 31.5625 C-5.25873047 31.61857422 -4.32996094 31.67464844 -3.37304688 31.73242188 C-2.0340332 31.80493164 -2.0340332 31.80493164 -0.66796875 31.87890625 C0.15421143 31.9260376 0.9763916 31.97316895 1.82348633 32.02172852 C4.18286584 32.10945673 4.18286584 32.10945673 7 31 C9.42037407 23.99365402 10.18520517 16.76476935 7.9375 9.625 C5.36786248 6.14355561 2.86772854 4.89737627 -1 3 C-0.67 2.01 -0.34 1.02 0 0 Z " fill="#FFFFFF" transform="translate(207,658)"/>
<path d="M0 0 C0.495 7.425 0.495 7.425 1 15 C-0.32 15 -1.64 15 -3 15 C-4.32 12.36 -5.64 9.72 -7 7 C-8.64573233 6.97231478 -10.29161069 6.95330415 -11.9375 6.9375 C-13.31228516 6.92009766 -13.31228516 6.92009766 -14.71484375 6.90234375 C-18.8243936 7.02450635 -22.91378101 7.54597567 -27 8 C-26.01 15.59 -25.02 23.18 -24 31 C-21.97875 30.855625 -19.9575 30.71125 -17.875 30.5625 C-16.16957031 30.44068359 -16.16957031 30.44068359 -14.4296875 30.31640625 C-11.2459522 30.02269035 -8.14489093 29.56875687 -5 29 C-4.34 26.69 -3.68 24.38 -3 22 C-2.01 22 -1.02 22 0 22 C0.33745354 24.39531756 0.6700829 26.79114268 1 29.1875 C1.09539063 29.86103516 1.19078125 30.53457031 1.2890625 31.22851562 C1.78324613 34.84664577 2.11346131 38.34796401 2 42 C0.1875 41.8125 0.1875 41.8125 -2 41 C-2.99 39.35 -3.98 37.7 -5 36 C-10.94 36.33 -16.88 36.66 -23 37 C-22.71125 39.866875 -22.4225 42.73375 -22.125 45.6875 C-22.03879395 46.58170654 -21.95258789 47.47591309 -21.86376953 48.3972168 C-21.42032344 52.57714151 -20.85814165 56.16660692 -19 60 C-11.59448929 60.23509558 -3.44059371 60.17768241 3 56 C4.33346029 53.84255767 4.33346029 53.84255767 5.25 51.375 C5.58515625 50.55773437 5.9203125 49.74046875 6.265625 48.8984375 C6.50796875 48.27195312 6.7503125 47.64546875 7 47 C7.99 47 8.98 47 10 47 C10.02692484 49.29160319 10.04636124 51.58329546 10.0625 53.875 C10.07410156 55.15117187 10.08570313 56.42734375 10.09765625 57.7421875 C10 61 10 61 9 63 C7.28526306 63.46829224 7.28526306 63.46829224 5.03100586 63.77783203 C3.76981178 63.95779221 3.76981178 63.95779221 2.48313904 64.14138794 C1.56960159 64.26230804 0.65606415 64.38322815 -0.28515625 64.5078125 C-1.68138466 64.70333206 -1.68138466 64.70333206 -3.1058197 64.90280151 C-6.09027096 65.31872446 -9.07628144 65.7219815 -12.0625 66.125 C-14.08149514 66.40411779 -16.1003772 66.68405494 -18.11914062 66.96484375 C-23.07816293 67.65275702 -28.03861978 68.32931301 -33 69 C-33.33 67.68 -33.66 66.36 -34 65 C-33.01 64.34 -32.02 63.68 -31 63 C-30.17535387 53.40756451 -32.09522864 43.73513892 -33.4375 34.25 C-33.67052055 32.56388471 -33.90294692 30.8776872 -34.13476562 29.19140625 C-35.46316524 19.5800188 -35.46316524 19.5800188 -37 10 C-39.97 9.505 -39.97 9.505 -43 9 C-43 7.68 -43 6.36 -43 5 C-38.32393732 4.27936734 -33.64663212 3.56764461 -28.96801758 2.86376953 C-27.38009044 2.62363846 -25.7925144 2.3811726 -24.20532227 2.13623047 C-7.97104742 -0.36606418 -7.97104742 -0.36606418 0 0 Z " fill="#FFFFFF" transform="translate(560,239)"/>
<path d="M0 0 C5.74790852 3.82268312 10.75071036 8.49951119 15.4296875 13.5546875 C17.20106164 15.18505673 18.7491815 16.14593448 21 17 C23.7193293 16.21297649 23.7193293 16.21297649 26 15 C26.70703125 16.7421875 26.70703125 16.7421875 27 19 C25.63671875 21.0703125 25.63671875 21.0703125 23.6875 23.125 C23.05199219 23.80820312 22.41648437 24.49140625 21.76171875 25.1953125 C20.51591496 26.47150175 19.26108804 27.73891196 18 29 C17.01 29 16.02 29 15 29 C14.690625 28.030625 14.38125 27.06125 14.0625 26.0625 C11.00159311 18.89123243 3.8471636 12.57919916 -3 9 C-5.58825707 8.16574215 -5.58825707 8.16574215 -8 9 C-10.5 11.66666667 -10.5 11.66666667 -12 15 C-11.46238673 19.57884838 -8.34928846 22.05653469 -5.1875 25.125 C-4.65318359 25.66253906 -4.11886719 26.20007813 -3.56835938 26.75390625 C0.24744165 30.56498285 0.24744165 30.56498285 5 33 C7.68993053 32.69621948 7.68993053 32.69621948 10 32 C10 36.91730642 8.22297284 38.43120905 5 41.75 C4.52304687 42.25660156 4.04609375 42.76320313 3.5546875 43.28515625 C2.37860126 44.53180766 1.19043826 45.76704609 0 47 C-0.99 46.34 -1.98 45.68 -3 45 C-2.97679687 44.236875 -2.95359375 43.47375 -2.9296875 42.6875 C-3.07054231 37.30371614 -8.37795144 33.62204856 -12 30 C-12.58007812 29.41992188 -13.16015625 28.83984375 -13.7578125 28.2421875 C-16.00079447 26.18709931 -17.69266531 25.06432586 -20.6875 24.4375 C-23.09607731 24.82416849 -23.09607731 24.82416849 -24.75 26.625 C-26.35141249 29.66768373 -26.95860378 31.5268575 -27 35 C-25.33007034 37.65866333 -23.16101392 39.67969765 -20.875 41.8125 C-20.29234375 42.39708984 -19.7096875 42.98167969 -19.109375 43.58398438 C-14.81881823 47.73504995 -12.02800453 49 -6 49 C-5.67 49.99 -5.34 50.98 -5 52 C-8.3 55.63 -11.6 59.26 -15 63 C-15.66 62.67 -16.32 62.34 -17 62 C-17.25136719 60.95585937 -17.50273437 59.91171875 -17.76171875 58.8359375 C-18.94572262 54.32357999 -21.50377804 51.78568966 -24.8125 48.625 C-25.33392578 48.09261719 -25.85535156 47.56023437 -26.39257812 47.01171875 C-30.57194801 42.91061422 -33.31003576 42 -39 42 C-39.02694851 40.04174127 -39.04637218 38.08337774 -39.0625 36.125 C-39.07410156 35.03445313 -39.08570313 33.94390625 -39.09765625 32.8203125 C-39 30 -39 30 -38 28 C-35.13275314 28.57344937 -34.1385485 28.8614515 -32 31 C-31.74476563 29.87851562 -31.74476563 29.87851562 -31.484375 28.734375 C-31.24203125 27.74953125 -30.9996875 26.7646875 -30.75 25.75 C-30.51796875 24.77546875 -30.2859375 23.8009375 -30.046875 22.796875 C-28.84715853 19.59166233 -27.72302983 18.06172258 -25 16 C-22.640625 15.609375 -22.640625 15.609375 -20.25 15.75 C-19.45078125 15.78609375 -18.6515625 15.8221875 -17.828125 15.859375 C-17.22484375 15.90578125 -16.6215625 15.9521875 -16 16 C-15.896875 14.80375 -15.79375 13.6075 -15.6875 12.375 C-15.03027737 7.28827693 -13.73214788 3.49157178 -9.75 0.0625 C-5.81510949 -1.4577986 -4.06787713 -1.2670437 0 0 Z " fill="#FFFFFF" transform="translate(330,373)"/>
<path d="M0 0 C4.62 0.99 9.24 1.98 14 3 C14 4.32 14 5.64 14 7 C12.95199219 7.12955078 12.95199219 7.12955078 11.8828125 7.26171875 C10.97273438 7.40222656 10.06265625 7.54273438 9.125 7.6875 C7.76761719 7.87892578 7.76761719 7.87892578 6.3828125 8.07421875 C3.83957169 8.78136316 3.83957169 8.78136316 2.75 11.09375 C1.83448114 14.64138558 1.29943499 18.18100252 0.875 21.8125 C0.441875 25.3703125 0.441875 25.3703125 0 29 C11.385 30.485 11.385 30.485 23 32 C23.33 30.14375 23.66 28.2875 24 26.375 C24.2784375 24.80878906 24.2784375 24.80878906 24.5625 23.2109375 C24.99111086 20.06523994 25.21975294 17.16810488 25 14 C23.0399719 12.36323743 23.0399719 12.36323743 21 11 C21 9.68 21 8.36 21 7 C21.78503906 7.13277344 22.57007813 7.26554688 23.37890625 7.40234375 C28.91187987 8.33242643 34.44073841 9.24191887 40 10 C40 11.32 40 12.64 40 14 C37.69 14.66 35.38 15.32 33 16 C32.51779737 17.87422152 32.03938167 19.74941754 31.5625 21.625 C31.29566406 22.66914062 31.02882812 23.71328125 30.75390625 24.7890625 C30.03547461 27.84891124 29.48023284 30.8948051 29 34 C32.99547492 34.69633488 36.99566935 35.35661834 41 36 C41.88945312 36.15210938 42.77890625 36.30421875 43.6953125 36.4609375 C47.89111235 37.28045384 47.89111235 37.28045384 51.671875 35.8046875 C55.52803784 30.5648427 55.43169305 22.25954927 55 16 C54.0384164 12.53829904 52.96511674 11.97697705 49.875 9.9375 C48.92625 9.298125 47.9775 8.65875 47 8 C47 7.01 47 6.02 47 5 C52.79166195 5.4826385 56.93146497 7.22679264 62 10 C61.35890737 19.15412154 59.93873937 28.14558858 58.4375 37.1875 C58.20081614 38.63080108 57.96448564 40.07416016 57.72851562 41.51757812 C57.15640731 45.01239534 56.57955112 48.50640836 56 52 C54.68 52 53.36 52 52 52 C51.67 50.35 51.34 48.7 51 47 C35.96879938 43.97120502 20.89545627 41.55684972 5.71289062 39.41723633 C3.1225313 39.01884503 0.56519163 38.53538747 -2 38 C-2.99 40.475 -2.99 40.475 -4 43 C-5.32 42.67 -6.64 42.34 -8 42 C-7.26395717 34.50724943 -6.12508333 27.09432286 -4.89819336 19.66845703 C-4.55994732 17.60946117 -4.23212085 15.54895882 -3.90429688 13.48828125 C-3.68813817 12.17177006 -3.47136372 10.85535979 -3.25390625 9.5390625 C-3.06127197 8.35521973 -2.8686377 7.17137695 -2.67016602 5.95166016 C-2 3 -2 3 0 0 Z " fill="#FFFFFF" transform="translate(168,601)"/>
<path d="M0 0 C4.58296803 2.26573701 6.83599512 5.96478056 9.4375 10.2421875 C10.75131019 12.25069732 12.01777672 13.65275666 13.80078125 15.234375 C14.48140625 15.95625 15.16203125 16.678125 15.86328125 17.421875 C15.67578125 19.734375 15.67578125 19.734375 14.86328125 21.421875 C13.11328125 22.171875 13.11328125 22.171875 10.86328125 22.421875 C8.61328125 20.484375 8.61328125 20.484375 6.86328125 18.421875 C6.41597656 18.97617187 5.96867188 19.53046875 5.5078125 20.1015625 C-1.05055257 27.96041361 -1.05055257 27.96041361 -7.28125 28.6640625 C-14.22155215 29.03566923 -19.80587159 27.11790117 -26.13671875 24.421875 C-24.06578668 28.09336971 -21.72416191 31.13273216 -18.94921875 34.296875 C-16.37249606 37.50113901 -15.20717808 39.09667811 -14.32421875 43.171875 C-15.40942937 47.51271746 -16.9383588 49.29789552 -20.13671875 52.421875 C-26.64068097 54.58986241 -35.31957989 54.72968664 -41.63671875 51.859375 C-46.48668799 48.92441508 -49.82846712 44.75397573 -52.57421875 39.859375 C-53.31359796 36.65539844 -53.07505631 34.57200825 -52.13671875 31.421875 C-50.05073237 28.56330107 -48.72995524 27.59325443 -45.32421875 26.609375 C-41.78536393 26.40120707 -38.61905691 26.79505413 -35.13671875 27.421875 C-35.38421875 26.679375 -35.63171875 25.936875 -35.88671875 25.171875 C-36.13671875 22.421875 -36.13671875 22.421875 -34.69921875 19.984375 C-32.13671875 18.421875 -32.13671875 18.421875 -30.0859375 18.62109375 C-28.07608106 19.12445034 -26.10232341 19.76667345 -24.13671875 20.421875 C-24.24371094 19.84179688 -24.35070312 19.26171875 -24.4609375 18.6640625 C-25.28266001 13.3096126 -25.38828672 10.03700374 -22.13671875 5.421875 C-15.69418637 -0.90071661 -8.85131648 -2.39487174 0 0 Z M-15.13671875 9.421875 C-17.12878931 12.65898966 -17.14751319 14.21318244 -16.94921875 18.046875 C-16.35135807 21.31341227 -16.35135807 21.31341227 -14.88671875 23.421875 C-13.13801078 24.61309522 -13.13801078 24.61309522 -10.82421875 24.421875 C-5.85300105 22.57211958 -2.46833437 19.66733141 -0.19921875 14.921875 C0.8746091 11.38455972 1.18735085 9.8266254 -0.13671875 6.421875 C-1.72732359 4.11549798 -2.66773094 3.53912195 -5.38671875 2.859375 C-9.65009438 3.73142911 -12.2275807 6.28090332 -15.13671875 9.421875 Z M-43.07421875 32.546875 C-44.73543398 35.47843129 -44.71361393 37.08870284 -44.13671875 40.421875 C-40.96686764 45.71620079 -37.06482299 48.83398994 -31.13671875 50.421875 C-27.53303442 49.67394052 -25.73671325 49.0218695 -23.13671875 46.421875 C-22.96961474 42.91269077 -23.67414786 40.975543 -25.921875 38.28515625 C-30.87373219 33.01563051 -30.87373219 33.01563051 -37.57421875 31.171875 C-40.99447668 31.14913841 -40.99447668 31.14913841 -43.07421875 32.546875 Z " fill="#FFFFFF" transform="translate(898.13671875,394.578125)"/>
<path d="M0 0 C0.63421875 0.32613281 1.2684375 0.65226562 1.921875 0.98828125 C5.0990594 2.53506839 8.27261509 2.44941336 11.7578125 2.65625 C14 3 14 3 16 5 C15.625 7.125 15.625 7.125 15 9 C12.69 9 10.38 9 8 9 C8.04640625 9.71285156 8.0928125 10.42570312 8.140625 11.16015625 C8.3899618 17.77648643 8.10048163 21.71253684 4 27 C-0.71785138 30.93154282 -6.30152283 32.88277923 -12 35 C-8.08925799 37.60716134 -4.60793721 37.74609332 -0.0078125 38.33984375 C3.2161135 39.0474327 5.32519818 40.08737289 8 42 C9.86895128 45.73790255 9.53940843 49.92934799 9 54 C5.66927059 59.51652058 0.227467 63.67422633 -5.98046875 65.62109375 C-12.68530064 66.87906028 -18.96627711 66.27180748 -25 63 C-27.99461668 60.47329218 -27.9974035 59.02044741 -28.5 55.0625 C-28.37276065 51.63976142 -28.02721159 51.03401449 -25.75 48.1875 C-20.98165138 44.39449541 -20.98165138 44.39449541 -19 43 C-19.7425 42.4121875 -19.7425 42.4121875 -20.5 41.8125 C-22 40 -22 40 -22.5625 37.5625 C-22 35 -22 35 -19 32.6875 C-18.01 32.130625 -17.02 31.57375 -16 31 C-16.804375 30.030625 -17.60875 29.06125 -18.4375 28.0625 C-21.40493378 23.87765749 -22.30797253 20.10872087 -22 15 C-20.06306965 8.5435655 -16.80166423 4.80551695 -11.1875 1.1875 C-7.07413859 -0.34492876 -4.3821419 -0.35339854 0 0 Z M-11.8125 6.375 C-14.47937474 10.02440754 -14.5841075 13.61919374 -14 18 C-12.44416158 21.96661775 -10.5961062 24.60259587 -7 27 C-4.44539786 27.07272562 -4.44539786 27.07272562 -2 26 C1.25905082 22.40380599 1.4521158 18.8721181 1.296875 14.22265625 C0.87114195 11.03526009 -0.25899573 8.67846811 -2 6 C-5.33080818 4.33459591 -8.77881323 4.07358245 -11.8125 6.375 Z M-17.6875 47.1875 C-20.51323272 50.23526415 -20.51323272 50.23526415 -21 54 C-17.97773421 57.60992858 -15.72496816 59.68338465 -10.94921875 60.23828125 C-6.85246739 60.37271696 -4.30945715 60.13815052 -0.5 58.4375 C2.65309479 55.36323258 2.83383414 53.32031241 3 49 C-2.77700292 45.09919803 -11.656862 42.43032197 -17.6875 47.1875 Z " fill="#FFFFFF" transform="translate(645,264)"/>
<path d="M0 0 C0 1.98 0 3.96 0 6 C0.55816406 5.84144531 1.11632812 5.68289063 1.69140625 5.51953125 C6.96473018 4.3328103 12.13164278 4.123016 17.0625 6.4375 C19.80294145 10.06195482 20.04726431 13.57856499 20 18 C19.30669586 22.1080961 18.21588973 26.06223148 17.0625 30.0625 C16.77181641 31.11888672 16.48113281 32.17527344 16.18164062 33.26367188 C15.4686528 35.8467917 14.7412687 38.42488172 14 41 C15.32 41.33 16.64 41.66 18 42 C17.67 43.65 17.34 45.3 17 47 C11.53135543 45.98408579 6.23609987 44.92908943 1 43 C1 41.68 1 40.36 1 39 C1.62414795 38.75088867 2.2482959 38.50177734 2.89135742 38.24511719 C5.43924228 36.74063498 5.81084684 35.84117899 6.73828125 33.078125 C7.00060547 32.29953125 7.26292969 31.5209375 7.53320312 30.71875 C7.79037109 29.9040625 8.04753906 29.089375 8.3125 28.25 C8.58900391 27.45078125 8.86550781 26.6515625 9.15039062 25.828125 C10.65298296 21.2257263 11.48821689 17.77988873 10 13 C8.21342243 10.78629949 8.21342243 10.78629949 5.8359375 10.8046875 C5.02382813 10.82789063 4.21171875 10.85109375 3.375 10.875 C2.14910156 10.90207031 2.14910156 10.90207031 0.8984375 10.9296875 C-0.04128906 10.96449219 -0.04128906 10.96449219 -1 11 C-1.98355849 14.06110696 -2.96106019 17.1241156 -3.9375 20.1875 C-4.21529297 21.05181641 -4.49308594 21.91613281 -4.77929688 22.80664062 C-5.04677734 23.64775391 -5.31425781 24.48886719 -5.58984375 25.35546875 C-5.83597412 26.12528076 -6.08210449 26.89509277 -6.33569336 27.68823242 C-7.031111 30.10826537 -7.53879898 32.52558955 -8 35 C-7.01 35.33 -6.02 35.66 -5 36 C-5 37.32 -5 38.64 -5 40 C-10.75762166 38.91103333 -16.39247819 37.70663707 -22 36 C-20.97244944 33.60238203 -20.14484271 32.12241936 -18.1328125 30.421875 C-15.11153518 26.99112053 -14.02044169 23.30318473 -12.625 19 C-12.34011719 18.19304687 -12.05523438 17.38609375 -11.76171875 16.5546875 C-11.50261719 15.77351563 -11.24351562 14.99234375 -10.9765625 14.1875 C-10.74018066 13.47980469 -10.50379883 12.77210938 -10.26025391 12.04296875 C-9.92688018 9.42601625 -10.74788418 8.27259309 -12 6 C-12 5.01 -12 4.02 -12 3 C-10.75336669 2.49166409 -9.50250613 1.99368855 -8.25 1.5 C-7.55390625 1.2215625 -6.8578125 0.943125 -6.140625 0.65625 C-4 0 -4 0 0 0 Z " fill="#FFFFFF" transform="translate(702,276)"/>
<path d="M0 0 C4.82360189 -0.19294408 8.49646738 0.24252386 13 2 C12 4 11 6 10 8 C10.59167969 8.03738281 11.18335938 8.07476562 11.79296875 8.11328125 C16.53966249 8.50819378 20.19027074 8.88294879 24 12 C26.35263207 15.24887286 26.5925029 18.07466827 26 22 C21.93340041 30.19959264 14.96355011 37.13448946 9 44 C9.66 44.66 10.32 45.32 11 46 C10.625 48.625 10.625 48.625 10 51 C5.93501119 49.62815653 3.32603439 47.77931541 0.1875 44.875 C-0.60269531 44.15054688 -1.39289062 43.42609375 -2.20703125 42.6796875 C-2.79871094 42.12539063 -3.39039063 41.57109375 -4 41 C-3.67 40.01 -3.34 39.02 -3 38 C-2.154375 37.979375 -1.30875 37.95875 -0.4375 37.9375 C4.46251834 36.60113136 6.75312916 33.77712044 10 30 C10.58652344 29.3296875 11.17304687 28.659375 11.77734375 27.96875 C14.35434555 24.8157125 15.87182197 22.75482621 16.5625 18.6875 C16.16849555 16.04081267 16.16849555 16.04081267 14.875 14.1875 C11.94050846 12.32898869 10.53918619 11.79966871 7 12 C3.89135627 14.28093574 1.49408301 17.07672488 -1 20 C-1.70511719 20.77988281 -2.41023437 21.55976563 -3.13671875 22.36328125 C-5.87697195 25.47768541 -5.87697195 25.47768541 -8 29 C-7.28533133 31.74719761 -7.28533133 31.74719761 -6 34 C-7.640625 34.77734375 -7.640625 34.77734375 -10 35 C-12.796875 33.12890625 -12.796875 33.12890625 -15.75 30.5625 C-16.73484375 29.71816406 -17.7196875 28.87382812 -18.734375 28.00390625 C-19.48203125 27.34261719 -20.2296875 26.68132812 -21 26 C-20.505 24.515 -20.505 24.515 -20 23 C-18.96875 22.7525 -17.9375 22.505 -16.875 22.25 C-11.90862094 21.01094428 -9.24420559 17.78490652 -6 14 C-5.12214844 12.99646484 -5.12214844 12.99646484 -4.2265625 11.97265625 C-1.53164764 8.67676272 -0.08712556 6.81317191 0.375 2.5 C0.25125 1.675 0.1275 0.85 0 0 Z " fill="#FFFFFF" transform="translate(850,360)"/>
<path d="M0 0 C5.46842173 1.22599818 9.20010235 6.34392774 12.19262695 10.77612305 C13.15333448 12.29234173 14.10251861 13.81592072 15.0402832 15.34643555 C15.53334961 16.13018555 16.02641602 16.91393555 16.53442383 17.72143555 C17.73430741 19.63192979 18.92332625 21.54828949 20.1027832 23.47143555 C21.7527832 23.14143555 23.4027832 22.81143555 25.1027832 22.47143555 C25.7627832 23.79143555 26.4227832 25.11143555 27.1027832 26.47143555 C25.3616422 27.81631687 23.60951705 29.14698699 21.8527832 30.47143555 C20.87825195 31.21393555 19.9037207 31.95643555 18.8996582 32.72143555 C16.1027832 34.47143555 16.1027832 34.47143555 12.1027832 34.47143555 C12.19172852 33.65030273 12.28067383 32.82916992 12.37231445 31.9831543 C12.01246541 27.2946863 10.16004239 24.27027464 7.7902832 20.28393555 C7.38616211 19.57301758 6.98204102 18.86209961 6.56567383 18.12963867 C3.83858507 13.40614737 3.83858507 13.40614737 0.1027832 9.47143555 C-2.81104408 8.72082706 -2.81104408 8.72082706 -5.8972168 9.47143555 C-7.94403356 11.31037248 -9.28907715 13.20112075 -10.8972168 15.47143555 C-7.71520503 21.41993865 -4.50234628 27.28254473 -0.7800293 32.9128418 C0.1027832 34.47143555 0.1027832 34.47143555 0.1027832 36.47143555 C3.0727832 35.97643555 3.0727832 35.97643555 6.1027832 35.47143555 C6.4327832 36.79143555 6.7627832 38.11143555 7.1027832 39.47143555 C5.33453178 40.62124929 3.56308799 41.76615477 1.7902832 42.90893555 C0.80415039 43.54702148 -0.18198242 44.18510742 -1.19799805 44.8425293 C-3.8972168 46.47143555 -3.8972168 46.47143555 -6.8972168 47.47143555 C-7.8972168 44.47143555 -7.8972168 44.47143555 -7.2253418 42.72143555 C-6.69361561 39.07531314 -8.81015001 36.47868872 -10.6472168 33.47143555 C-11.0081543 32.85526367 -11.3690918 32.2390918 -11.7409668 31.60424805 C-13.26996869 29.02267238 -14.84136371 26.54458827 -16.6628418 24.15893555 C-17.8972168 22.47143555 -17.8972168 22.47143555 -17.8972168 20.47143555 C-19.8772168 20.47143555 -21.8572168 20.47143555 -23.8972168 20.47143555 C-24.2272168 19.81143555 -24.5572168 19.15143555 -24.8972168 18.47143555 C-23.90112305 16.08862305 -23.90112305 16.08862305 -22.4597168 13.34643555 C-21.75008789 11.98131836 -21.75008789 11.98131836 -21.02612305 10.58862305 C-20.65358398 9.88995117 -20.28104492 9.1912793 -19.8972168 8.47143555 C-17.02996993 9.04488492 -16.03576529 9.33288705 -13.8972168 11.47143555 C-13.57108398 10.92874023 -13.24495117 10.38604492 -12.90893555 9.8269043 C-12.47194336 9.11147461 -12.03495117 8.39604492 -11.5847168 7.65893555 C-11.15545898 6.95124023 -10.72620117 6.24354492 -10.28393555 5.5144043 C-7.35477666 1.19905191 -5.50072031 -0.23328808 0 0 Z " fill="#FFFFFF" transform="translate(394.897216796875,319.528564453125)"/>
<path d="M0 0 C4.58817335 2.84905063 6.3420036 6.19484792 8.125 11.125 C8.37652832 11.7857251 8.62805664 12.4464502 8.88720703 13.12719727 C10.84223199 18.34165302 12.55696222 23.62025387 14 29 C15.65 28.67 17.3 28.34 19 28 C19.495 30.475 19.495 30.475 20 33 C12.575 35.475 12.575 35.475 5 38 C4 35 4 35 4.578125 31.79296875 C5.06015251 27.45918436 4.21318622 24.31807333 2.75 20.3125 C2.53214844 19.66216797 2.31429688 19.01183594 2.08984375 18.34179688 C0.85727568 14.80627268 -0.36137117 11.69874949 -3 9 C-6.45728358 8.24988633 -6.45728358 8.24988633 -10 9 C-12.67203762 10.72984769 -12.67203762 10.72984769 -14 14 C-13.45612012 17.95474466 -12.11366856 21.57317727 -10.75 25.3125 C-10.39808594 26.33923828 -10.04617188 27.36597656 -9.68359375 28.42382812 C-8.81137587 30.95797468 -7.91647598 33.48159245 -7 36 C-5.35 36 -3.7 36 -2 36 C-2 37.32 -2 38.64 -2 40 C-3.91282125 40.84212256 -5.83042473 41.67338864 -7.75 42.5 C-8.81734375 42.9640625 -9.8846875 43.428125 -10.984375 43.90625 C-14 45 -14 45 -18 45 C-17.85820312 44.41476562 -17.71640625 43.82953125 -17.5703125 43.2265625 C-15.88149617 33.36031971 -19.55067666 25.08821715 -23 16 C-24.65 15.67 -26.3 15.34 -28 15 C-27.68232368 9.59950264 -24.80003673 7.47662935 -21 4 C-18 5 -18 5 -16 8 C-15.51789063 7.50628906 -15.03578125 7.01257813 -14.5390625 6.50390625 C-13.90742188 5.86324219 -13.27578125 5.22257812 -12.625 4.5625 C-11.68527344 3.60537109 -11.68527344 3.60537109 -10.7265625 2.62890625 C-7.35209995 -0.55469303 -4.53652804 -0.38445153 0 0 Z " fill="#FFFFFF" transform="translate(481,281)"/>
<path d="M0 0 C0.33 1.65 0.66 3.3 1 5 C1.4846875 4.71125 1.969375 4.4225 2.46875 4.125 C7.59421642 1.28628014 11.14003026 0.1354143 17 1 C19.69105198 3.17574416 21.45532928 4.91065856 23 8 C23.15411106 10.0307477 23.24982453 12.06606421 23.31640625 14.1015625 C23.35830078 15.31328125 23.40019531 16.525 23.44335938 17.7734375 C23.48267578 19.04445313 23.52199219 20.31546875 23.5625 21.625 C23.60568359 22.90375 23.64886719 24.1825 23.69335938 25.5 C23.79969886 28.66655348 23.90172833 31.83318753 24 35 C25.65 35 27.3 35 29 35 C29 36.32 29 37.64 29 39 C23.29309366 39.99250545 17.78591511 40.10477512 12 40 C12 38.68 12 37.36 12 36 C12.99 35.505 12.99 35.505 14 35 C15.44277343 30.77199174 15.18397427 26.41421825 15.1875 22 C15.20586914 20.78957031 15.20586914 20.78957031 15.22460938 19.5546875 C15.22654297 18.77351563 15.22847656 17.99234375 15.23046875 17.1875 C15.23457764 16.47980469 15.23868652 15.77210938 15.24291992 15.04296875 C14.95255863 12.60101567 14.36552264 11.0461943 13 9 C8.18465013 7.75157596 6.53899793 7.73050104 2 10 C1.67 18.25 1.34 26.5 1 35 C2.65 35.33 4.3 35.66 6 36 C5.67 36.99 5.34 37.98 5 39 C-2.92 39.495 -2.92 39.495 -11 40 C-11 38.68 -11 37.36 -11 36 C-9.515 35.505 -9.515 35.505 -8 35 C-7.88385071 30.9169058 -7.81276543 26.83423623 -7.75 22.75 C-7.71648438 21.59113281 -7.68296875 20.43226563 -7.6484375 19.23828125 C-7.63554688 18.12324219 -7.62265625 17.00820313 -7.609375 15.859375 C-7.58842773 14.83295898 -7.56748047 13.80654297 -7.54589844 12.74902344 C-8.11120847 9.32677023 -9.37309927 8.17241963 -12 6 C-10.56839732 4.99157547 -9.12948547 3.99352109 -7.6875 3 C-6.88699219 2.443125 -6.08648438 1.88625 -5.26171875 1.3125 C-3 0 -3 0 0 0 Z " fill="#FFFFFF" transform="translate(588,262)"/>
<path d="M0 0 C1.32 0.33 2.64 0.66 4 1 C4 8.92 4 16.84 4 25 C3.01 25 2.02 25 1 25 C0.01 22.69 -0.98 20.38 -2 18 C-13.86494061 17.8855472 -25.70368148 18.01650995 -37.5625 18.4375 C-39.31880737 18.49635376 -39.31880737 18.49635376 -41.1105957 18.55639648 C-42.20976318 18.59837158 -43.30893066 18.64034668 -44.44140625 18.68359375 C-45.90622437 18.73858032 -45.90622437 18.73858032 -47.40063477 18.79467773 C-49.72263922 18.97809144 -51.76916254 19.35174216 -54 20 C-54.33 21.98 -54.66 23.96 -55 26 C-56.32 26 -57.64 26 -59 26 C-60.10941367 20.67132017 -60.11548069 15.53718145 -60.0625 10.125 C-60.05798828 9.24585938 -60.05347656 8.36671875 -60.04882812 7.4609375 C-60.03712337 5.30726197 -60.01919069 3.15362183 -60 1 C-58.68 1 -57.36 1 -56 1 C-55.34 3.31 -54.68 5.62 -54 8 C-48.70973268 8.75863203 -43.74636709 9.08602256 -38.38671875 8.9140625 C-37.34412651 8.88220352 -37.34412651 8.88220352 -36.2804718 8.84970093 C-34.82075556 8.80380247 -33.3611306 8.7549097 -31.90161133 8.703125 C-29.70345752 8.62556306 -27.50517176 8.55808688 -25.30664062 8.4921875 C-17.51126338 8.2446733 -9.75784154 7.8389669 -2 7 C-1.34 4.69 -0.68 2.38 0 0 Z " fill="#FFFFFF" transform="translate(216,712)"/>
<path d="M0 0 C4.90901001 2.88404338 8.28095886 6.99378884 11 11.9375 C12.56093438 18.18123751 11.75983261 23.86966298 8.625 29.4375 C4.52705432 34.10067956 0.00371412 36.15527968 -6.0625 36.875 C-12.0415996 36.70513922 -17.62362122 33.88744567 -22.05078125 29.9453125 C-26.41451136 24.97658146 -27.8676054 20.33136101 -27.68359375 13.84765625 C-26.92887922 7.95324021 -24.89192608 3.73320769 -20.375 -0.125 C-14.15087121 -3.02959343 -6.21929517 -2.7574994 0 0 Z M-21.375 8.4375 C-23.61564938 11.21818479 -23.61564938 11.21818479 -23.4375 14.1875 C-21.49042558 20.14325704 -16.80941949 23.870547 -11.4375 26.875 C-6.28199842 29.19297745 -1.82206256 29.32260774 3.5625 27.375 C5.86872151 25.48587641 5.86872151 25.48587641 6.875 22.25 C6.55760019 17.40965295 5.04025442 15.62954164 1.71484375 12.23828125 C-3.59565858 7.66231569 -8.29811829 5.97568558 -15.296875 6.1015625 C-17.69465225 6.48917311 -19.31698837 7.14908096 -21.375 8.4375 Z " fill="#FFFFFF" transform="translate(293.375,426.5625)"/>
<path d="M0 0 C1.25425781 0.11085938 2.50851562 0.22171875 3.80078125 0.3359375 C4.75339844 0.43132812 5.70601563 0.52671875 6.6875 0.625 C7.27734375 2.4609375 7.27734375 2.4609375 7.6875 4.625 C5.95531809 7.78811479 3.9292976 10.33882756 1.6015625 13.09375 C0.86679687 13.9703125 0.13203125 14.846875 -0.625 15.75 C-1.34300781 16.57757813 -2.06101562 17.40515625 -2.80078125 18.2578125 C-4.54430171 20.46785302 -4.54430171 20.46785302 -4.15234375 22.82421875 C-2.62552005 26.09801283 -0.23362709 27.28563739 3.0625 28.5 C6.89604182 28.68254961 8.56940883 27.88064042 11.6875 25.625 C13.34971341 22.73530592 14.56971747 19.76136629 15.6875 16.625 C17.0075 17.285 18.3275 17.945 19.6875 18.625 C18.56714243 25.25869614 17.12966686 30.61493494 11.8515625 35.23046875 C8.06148539 37.67281086 4.12054353 37.83831939 -0.3125 37.625 C-7.52925097 35.62382122 -11.49932118 30.81369379 -15.125 24.4375 C-17.45827483 16.94645975 -17.22384585 10.20671751 -13.67578125 3.18359375 C-9.94180744 -1.08533333 -5.23223302 -0.48899374 0 0 Z M-11.3125 7.625 C-11.61716674 12.90589024 -11.629624 14.202168 -8.3125 18.625 C-6.0025 15.655 -3.6925 12.685 -1.3125 9.625 C-3.91216188 6.39023272 -3.91216188 6.39023272 -6.875 6.375 C-9.31796594 6.48039031 -9.31796594 6.48039031 -11.3125 7.625 Z " fill="#FFFFFF" transform="translate(361.3125,345.375)"/>
<path d="M0 0 C2.89683868 2.2015974 4.39297231 3.78594462 6 7 C6.13415472 9.6723621 6.04318541 12.32250488 6 15 C6.66 15 7.32 15 8 15 C7.67 16.32 7.34 17.64 7 19 C-1.31616812 18.41640925 -9.01459326 16.26200586 -17 14 C-18.20387289 18.34183667 -18.72403845 22.52412595 -18 27 C-14.80723238 30.7561972 -11.81983723 31.6065439 -7 32 C-5.00034285 32.03703069 -2.99943335 32.04760556 -1 32 C-2.75 35.875 -2.75 35.875 -5 37 C-7.10053716 37.14901491 -9.20687825 37.22138453 -11.3125 37.25 C-12.44300781 37.27578125 -13.57351563 37.3015625 -14.73828125 37.328125 C-19.59683446 36.83936037 -22.07440424 35.05415073 -25.25 31.4375 C-28.63758996 26.71907113 -28.57690592 22.69381056 -28 17 C-26.14478084 10.37084109 -21.56705665 5.8357746 -16 2 C-10.79200716 -0.52380852 -5.69264907 -0.86329963 0 0 Z M-6 3 C-9.07678035 4.71760829 -9.07678035 4.71760829 -12 7 C-12 8.32 -12 9.64 -12 11 C-8.7 11.66 -5.4 12.32 -2 13 C-1.67 11.35 -1.34 9.7 -1 8 C-3.333492 5.16588845 -3.333492 5.16588845 -6 3 Z " fill="#FFFFFF" transform="translate(788,311)"/>
<path d="M0 0 C2.19396424 1.7793155 3.98488609 3.40336592 5.2578125 5.94921875 C5.29803641 8.28220535 5.30101497 10.61628541 5.2578125 12.94921875 C6.2478125 13.27921875 7.2378125 13.60921875 8.2578125 13.94921875 C7.5978125 15.26921875 6.9378125 16.58921875 6.2578125 17.94921875 C3.73687952 17.63750675 1.2160668 17.32486973 -1.3046875 17.01171875 C-2.00916016 16.92470703 -2.71363281 16.83769531 -3.43945312 16.74804688 C-7.88130677 16.19537384 -12.31293414 15.59527279 -16.7421875 14.94921875 C-17.82736635 20.83271856 -18.25591618 24.74369479 -14.7421875 29.94921875 C-11.97766717 31.33147891 -9.6960512 31.04447262 -6.6171875 31.01171875 C-5.52148438 31.00269531 -4.42578125 30.99367188 -3.296875 30.984375 C-2.45382812 30.97277344 -1.61078125 30.96117187 -0.7421875 30.94921875 C-1.0721875 32.59921875 -1.4021875 34.24921875 -1.7421875 35.94921875 C-7.44490862 37.85012579 -15.345744 38.46820064 -20.92578125 35.97265625 C-24.65910633 32.93758399 -26.52223127 29.69960727 -27.11328125 24.99609375 C-27.26280466 17.57269631 -26.82047403 12.55064535 -21.7421875 6.94921875 C-16.44349829 1.44104648 -7.74205703 -4.66953664 0 0 Z M-12.7421875 6.94921875 C-13.61184256 9.07868478 -13.61184256 9.07868478 -13.7421875 10.94921875 C-10.06807965 12.12493326 -6.57289567 12.02288621 -2.7421875 11.94921875 C-1.34122504 8.87679822 -1.34122504 8.87679822 -3.1796875 5.76171875 C-3.6953125 4.83359375 -4.2109375 3.90546875 -4.7421875 2.94921875 C-8.71273347 2.94921875 -9.90689994 4.26315685 -12.7421875 6.94921875 Z " fill="#FFFFFF" transform="translate(754.7421875,295.05078125)"/>
<path d="M0 0 C0.90105469 0.00902344 1.80210937 0.01804687 2.73046875 0.02734375 C3.41753906 0.03894531 4.10460937 0.05054688 4.8125 0.0625 C5.1425 0.7225 5.4725 1.3825 5.8125 2.0625 C4.375 4.6875 4.375 4.6875 2.8125 7.0625 C3.96878906 7.02769531 3.96878906 7.02769531 5.1484375 6.9921875 C6.15132812 6.97414063 7.15421875 6.95609375 8.1875 6.9375 C9.18523438 6.91429687 10.18296875 6.89109375 11.2109375 6.8671875 C13.8125 7.0625 13.8125 7.0625 15.8125 9.0625 C16.25 12 16.25 12 15.8125 15.0625 C13.5625 17 13.5625 17 10.8125 18.0625 C8.5 17.75 8.5 17.75 6.8125 17.0625 C6.8125 15.7425 6.8125 14.4225 6.8125 13.0625 C3.61173337 12.30685252 3.61173337 12.30685252 -0.1875 13.0625 C-3.03509648 15.72104443 -5.08568512 18.79819985 -7.1875 22.0625 C-7.86232422 23.07763672 -7.86232422 23.07763672 -8.55078125 24.11328125 C-9.83801485 26.10486812 -9.83801485 26.10486812 -11.1875 29.0625 C-10.1897242 32.05582739 -9.4352975 33.01016315 -7.1875 35.0625 C-7.8475 36.0525 -8.5075 37.0425 -9.1875 38.0625 C-12.82264696 36.6935888 -16.14338903 35.0792935 -19.5 33.125 C-20.38300781 32.62097656 -21.26601563 32.11695313 -22.17578125 31.59765625 C-22.83964844 31.09105469 -23.50351562 30.58445312 -24.1875 30.0625 C-24.1875 29.0725 -24.1875 28.0825 -24.1875 27.0625 C-23.48238281 26.91296875 -22.77726563 26.7634375 -22.05078125 26.609375 C-17.67182125 24.24366128 -15.86612714 20.51648493 -13.375 16.3125 C-12.87291016 15.51328125 -12.37082031 14.7140625 -11.85351562 13.890625 C-9.19242602 9.48806043 -7.47619556 6.37585847 -8.1875 1.0625 C-5.17259443 0.05753148 -3.14568308 -0.04085303 0 0 Z " fill="#FFFFFF" transform="translate(811.1875,326.9375)"/>
<path d="M0 0 C3 1 3 1 4.44213867 3.65209961 C5.17267456 5.38472046 5.17267456 5.38472046 5.91796875 7.15234375 C6.31113029 8.07534019 6.31113029 8.07534019 6.7122345 9.01698303 C7.26433573 10.31866424 7.81122151 11.62256804 8.35327148 12.9284668 C9.18460744 14.93053398 10.03119974 16.92557165 10.88085938 18.91992188 C15 28.67270093 15 28.67270093 15 31 C16.98 30.67 18.96 30.34 21 30 C21.33 31.65 21.66 33.3 22 35 C19.921188 36.00936536 17.8367638 37.00717846 15.75 38 C14.58984375 38.556875 13.4296875 39.11375 12.234375 39.6875 C9 41 9 41 5 41 C6 37 6 37 6.63891602 35.16870117 C7.38523271 30.68625952 4.66540652 26.36779081 2.9375 22.3125 C2.55400391 21.33732422 2.17050781 20.36214844 1.77539062 19.35742188 C0.66730086 16.7341517 -0.3950851 14.35329684 -2 12 C-5.15047017 10.67732304 -5.15047017 10.67732304 -8 11 C-6.52670958 5.99081256 -3.72484762 3.48192278 0 0 Z " fill="#FFFFFF" transform="translate(437,294)"/>
<path d="M0 0 C1.92578125 0.05078125 1.92578125 0.05078125 4.3125 0.3125 C5.48232422 0.43044922 5.48232422 0.43044922 6.67578125 0.55078125 C9.08207271 1.01586279 10.87133832 1.80658556 13 3 C11.44465031 7.98093582 8.46367806 11.42932485 5.1875 15.375 C-2.1336595 23.022291 -2.1336595 23.022291 -6 32 C-5.34 32.33 -4.68 32.66 -4 33 C-4.495 35.475 -4.495 35.475 -5 38 C-8.89006773 36.61219205 -11.96558708 34.7847773 -15.3125 32.375 C-16.19550781 31.74335938 -17.07851563 31.11171875 -17.98828125 30.4609375 C-18.65214844 29.97882813 -19.31601562 29.49671875 -20 29 C-19.67 27.68 -19.34 26.36 -19 25 C-18.278125 25.103125 -17.55625 25.20625 -16.8125 25.3125 C-11.92964783 24.76996087 -9.53364794 20.66275631 -6.578125 16.9921875 C-5.80984375 15.96351563 -5.0415625 14.93484375 -4.25 13.875 C-3.47140625 12.84117187 -2.6928125 11.80734375 -1.890625 10.7421875 C0.12361656 8.09273053 0.12361656 8.09273053 1 5 C0.12516085 2.83284443 0.12516085 2.83284443 -1 1 C-0.67 0.67 -0.34 0.34 0 0 Z " fill="#FFFFFF" transform="translate(831,344)"/>
<path d="M0 0 C-0.38091797 1.79630859 -0.38091797 1.79630859 -0.76953125 3.62890625 C-2.9088757 13.74074926 -4.99923791 23.85977395 -7 34 C-5.68 34.33 -4.36 34.66 -3 35 C-3.33 36.65 -3.66 38.3 -4 40 C-9.28 39.01 -14.56 38.02 -20 37 C-20 35.68 -20 34.36 -20 33 C-19.38511719 32.814375 -18.77023437 32.62875 -18.13671875 32.4375 C-14.88752436 30.25157032 -14.73491184 27.73482673 -13.8125 24 C-13.64524414 23.33025146 -13.47798828 22.66050293 -13.30566406 21.97045898 C-12.03677197 16.68784087 -11.25563294 11.43220006 -11 6 C-11.99 5.67 -12.98 5.34 -14 5 C-14 4.01 -14 3.02 -14 2 C-9.04726253 0.01890501 -5.23859642 -0.08658837 0 0 Z " fill="#FFFFFF" transform="translate(679,271)"/>
<path d="M0 0 C2.75329021 1.79562405 4.52627461 3.05254922 6 6 C6.36524972 10.45604661 6.53894975 12.94455674 4.5 16.9375 C1.12712966 19.72011803 -1.6704311 20.28461309 -6 20 C-9.54053255 18.66246548 -10.75913909 17.3418671 -12.9375 14.25 C-14.32342842 10.01068954 -13.79831895 8.04621764 -12 4 C-8.31937631 -0.1012664 -5.41226952 -0.77318136 0 0 Z " fill="#FFFFFF" transform="translate(696,703)"/>
<path d="M0 0 C2 2 2 2 2.375 4.4375 C2 7 2 7 0.3125 8.875 C-2.59333428 10.28864911 -3.97308697 9.98170152 -7 9 C-8 8 -8 8 -8.25 5.625 C-8 3 -8 3 -6.8125 1.1875 C-4.3864306 -0.40199375 -2.84602594 -0.36487512 0 0 Z " fill="#FFFFFF" transform="translate(855,328)"/>
<path d="M0 0 C2.375 0.75 2.375 0.75 3.375 1.75 C3.6875 4.625 3.6875 4.625 3.375 7.75 C1.6875 9.75 1.6875 9.75 -0.625 10.75 C-3.375 9.9375 -3.375 9.9375 -5.625 8.75 C-5.98575949 3.33860759 -5.98575949 3.33860759 -4.4375 0.8125 C-2.625 -0.25 -2.625 -0.25 0 0 Z " fill="#FFFFFF" transform="translate(680.625,249.25)"/>
<path d="M0 0 C2.5 1.125 2.5 1.125 5 3 C5.4375 6.0625 5.4375 6.0625 5 9 C3 11 3 11 0.5 11.3125 C-0.7375 11.1578125 -0.7375 11.1578125 -2 11 C-4.14762184 7.77856724 -4.561068 6.7404533 -4 3 C-2 1.1875 -2 1.1875 0 0 Z " fill="#FFFFFF" transform="translate(429,274)"/>
</svg>
