<svg width="1080" height="1080" viewBox="0 0 1080 1080" fill="none" xmlns="http://www.w3.org/2000/svg">
<path d="M794.826 541.945C794.409 541.581 794.045 541.165 793.681 540.801L739.146 486.272C675.245 422.326 611.291 358.431 547.39 294.589C546.973 294.121 546.453 293.34 545.985 293.34C545.464 293.34 544.996 294.121 544.528 294.589L497.694 341.417C497.278 341.833 496.862 342.25 496.445 342.666C496.185 342.926 496.185 343.186 496.445 343.498C498.527 345.788 500.556 348.129 502.586 350.418C503.887 351.875 505.188 353.384 506.54 354.789C506.957 355.205 507.009 356.246 507.789 356.09C508.31 355.986 508.778 355.309 509.246 354.841L544.007 320.084C545.568 318.523 545.152 318.523 546.661 320.032C620.762 394.125 694.915 468.217 769.067 542.362C769.484 542.726 770.108 543.09 770.108 543.506C770.108 543.871 769.484 544.287 769.119 544.651C753.924 559.844 738.73 575.037 723.535 590.23C723.327 590.439 723.119 590.595 722.962 590.803C722.702 591.115 722.494 591.219 722.234 591.011C722.026 591.167 721.818 591.323 721.505 591.375C720.725 590.595 719.944 589.814 719.164 589.034C707.664 577.691 696.215 566.348 684.715 554.901C683.622 553.913 682.686 552.82 681.593 551.623C682.374 551.311 682.894 551.103 683.518 550.843L700.847 544.183C705.998 542.154 711.098 540.228 716.25 538.199C717.499 537.679 718.487 536.794 718.487 535.39C718.487 533.985 717.655 533.204 716.562 532.58C707.143 527.065 697.725 521.393 688.358 515.878C675.973 508.593 663.64 501.361 651.255 494.129C650.007 493.504 648.706 493.036 647.301 492.88C645.896 492.828 644.647 492.048 643.866 490.851C622.479 459.008 601.196 427.112 579.809 395.165C579.184 394.073 577.935 393.396 576.686 393.448C574.345 393.448 572.003 393.396 569.713 393.292C558.421 392.928 547.077 392.512 535.837 392.2C534.276 392.2 532.819 391.575 531.883 390.326C508.154 363.218 484.477 336.058 460.748 308.95C455.752 303.33 450.809 297.763 445.813 292.143C444.72 290.843 443.107 289.958 441.286 289.802C439.673 289.594 437.956 289.854 436.395 290.635C433.897 291.935 431.503 293.444 429.265 295.057C424.582 298.699 420.94 303.278 417.661 308.169C406.629 324.975 399.917 344.227 398.408 364.207C398.251 366.132 398.095 368.005 397.939 369.722L392.944 372.063C389.769 373.52 386.803 375.55 384.253 377.995C383.577 378.463 383.005 379.14 382.64 379.868C379.154 387.413 375.667 394.957 372.129 402.502C371.608 403.438 371.66 404.583 372.337 405.467C372.961 406.248 373.43 407.028 373.95 407.705C375.563 409.734 377.28 411.763 378.998 413.688C385.346 420.973 391.747 428.361 398.095 435.698C405.172 443.867 412.145 451.931 419.222 460.1C420.471 461.401 421.46 462.962 422.24 464.627C423.854 468.373 425.259 472.067 426.508 475.918C428.277 481.589 429.838 487.261 428.849 493.348C428.537 494.909 428.537 496.522 428.381 498.187C428.017 503.546 427.132 508.854 425.831 514.057C423.281 523.943 420.055 533.568 416.36 542.986C414.331 548.189 413.394 553.809 413.654 559.376C413.706 560.781 414.123 562.186 414.643 563.434C415.163 564.839 416.516 564.891 417.505 563.903C419.587 561.821 421.72 559.688 423.854 557.659C425.779 555.89 427.913 554.329 429.994 552.508C428.225 555.63 426.508 558.439 425.103 561.457C423.645 564.579 422.605 567.909 421.356 571.083C419.639 575.662 417.557 580.188 416.777 585.079C416.152 588.878 415.528 592.676 415.059 596.578C415.007 597.983 415.007 599.284 415.215 600.637C415.268 601.469 415.58 602.354 416.516 602.25C417.141 602.25 417.661 601.729 418.234 601.313C418.442 601.157 418.546 600.845 418.702 600.637C421.408 596.422 424.946 592.884 429.109 590.23C430.67 589.138 432.388 588.305 434.001 587.265C433.064 589.19 431.919 590.855 430.879 592.468C427.288 598.555 424.374 604.851 422.032 611.459C420.003 616.766 418.858 622.282 418.39 627.849C418.338 630.347 418.39 632.844 418.702 635.237C418.858 635.914 419.222 636.486 419.847 636.798C420.627 637.111 421.46 636.798 421.876 636.122C422.084 635.81 422.24 635.498 422.397 635.185C423.385 631.127 427.08 629.41 429.942 626.704C429.63 629.098 429.318 631.231 429.161 633.312C428.693 642.73 429.526 652.148 431.815 661.305C432.804 665.207 434.053 669.006 435.562 672.752C436.186 674.521 436.655 674.521 439.048 674.001C439.517 667.393 443.94 663.49 449.612 660.108C449.3 661.982 448.988 663.282 448.779 664.687C448.415 667.497 448.103 670.202 447.947 672.908C447.635 678.215 447.791 683.47 448.415 688.778C448.883 693.773 450.028 698.664 451.902 703.294C452.266 704.283 452.838 705.22 453.515 706C454.295 706.832 455.076 706.78 455.908 706C456.273 705.636 456.689 705.219 457.001 704.751L461.58 699.392C461.789 699.86 462.049 700.225 462.205 700.693C462.257 701.005 462.257 701.369 462.257 701.681C462.101 705.324 463.038 708.81 463.87 712.348C465.483 719.32 468.137 726.084 471.624 732.38C472.404 733.837 473.237 735.242 475.526 735.085C476.203 733.941 476.983 732.588 477.764 731.287C479.169 728.738 480.73 726.396 482.499 724.315C487.703 718.019 494.572 713.753 503.106 711.88C504.199 711.671 505.344 711.567 506.436 711.359C527.043 706.78 545.828 696.218 560.399 680.869C563.053 678.059 565.394 674.937 567.164 671.451C568.569 668.746 569.87 665.988 571.275 663.386C572.419 661.045 572.107 659.796 569.87 658.495C563.625 654.853 557.953 650.431 552.853 645.28C533.808 626.184 520.122 602.198 513.305 576.078C512.004 571.187 511.224 566.14 510.808 561.093C510.651 557.971 509.871 555.161 507.633 552.612C496.601 540.176 485.726 527.481 474.746 514.993C461.841 500.216 448.935 485.387 436.03 470.611C416.933 448.862 397.887 427.008 378.842 405.259C378.477 404.895 378.165 404.427 377.697 403.855C380.715 397.351 383.837 390.899 386.855 384.343C390.602 388.557 393.932 392.72 397.731 396.57C404.808 403.646 412.041 410.619 419.43 417.383C429.838 427.165 440.818 436.27 452.318 444.751C455.18 446.78 458.25 448.549 461.32 450.214C463.402 451.359 464.911 450.527 465.691 448.185C465.848 447.561 466.004 446.936 466.004 446.312C466.004 443.034 465.379 439.86 464.13 436.842C460.54 427.269 455.18 418.787 448.727 410.983C447.583 409.578 446.49 408.121 445.553 406.56C441.91 400.42 438.788 393.865 436.395 387.152C430.254 370.502 426.299 353.488 426.924 335.642C426.976 333.248 427.392 330.907 427.6 328.513C439.985 332.936 451.225 331.999 461.789 323.518C462.101 323.987 462.465 324.507 462.881 324.975C481.875 346.724 500.816 368.421 519.81 390.118C522.464 393.136 525.014 396.258 527.72 399.224C530.738 402.398 534.016 405.467 537.034 408.693C541.717 413.845 546.349 418.944 550.772 424.251C552.021 425.708 553.582 426.8 555.299 427.581C560.347 429.818 565.394 432.16 570.546 434.345C572.107 434.969 573.408 435.958 574.449 437.363C576.53 440.328 578.716 443.138 580.901 446C581.526 446.78 582.202 447.457 582.931 448.081C583.92 446.832 584.024 446.78 583.607 445.896C583.295 445.427 582.983 444.959 582.671 444.491C579.809 439.756 576.843 435.021 574.033 430.182C570.078 423.262 566.279 416.342 562.376 409.37C561.544 407.653 559.982 406.56 558.109 406.352C551.188 405.363 544.215 404.323 537.034 403.23C536.514 402.45 535.889 401.617 535.265 400.837C538.751 400.837 542.03 400.785 545.36 400.837C555.091 401.045 564.874 401.305 574.605 401.357C576.218 401.201 577.779 402.033 578.56 403.438C582.515 409.734 586.625 415.874 590.788 422.013C605.775 444.491 620.71 466.864 635.644 489.342C636.113 490.018 636.477 490.643 637.101 491.683C636.009 491.631 635.384 491.527 634.76 491.475C630.649 490.695 626.59 490.018 622.479 489.238C620.866 489.03 619.149 488.613 617.483 488.405C616.078 488.197 614.934 488.874 614.673 490.018C614.465 491.267 615.142 492.256 616.703 492.724C616.911 492.776 617.067 492.88 617.327 492.88C626.122 494.493 634.968 496.054 643.762 497.615C646.104 497.927 648.289 498.76 650.215 500.112C651.464 501.049 652.869 501.829 654.17 502.61L707.403 534.453C708.08 534.817 708.704 535.233 709.485 535.754C708.808 536.066 708.236 536.274 707.768 536.534C687.005 544.547 666.346 552.56 645.583 560.573C644.283 561.093 642.721 561.093 641.368 560.521C625.445 554.069 609.418 547.565 593.494 541.009C590.945 540.02 588.447 538.824 586.053 537.835C583.815 539.24 583.711 540.228 585.533 541.789C586.521 542.622 587.562 543.35 588.551 544.131C604.422 555.474 620.345 566.66 636.113 578.107C637.986 579.668 640.484 579.98 642.617 578.94C654.534 574.361 666.554 570.146 678.627 565.828C679.147 565.672 679.772 565.516 680.344 565.36L713.44 600.012C713.336 600.116 713.232 600.22 713.128 600.325C698.245 615.205 683.31 630.138 668.428 645.019C668.115 645.332 667.751 645.696 667.439 646.008C667.335 646.112 667.283 646.164 667.179 646.216C666.971 646.424 666.815 646.632 666.554 646.84C666.45 646.892 666.398 646.997 666.294 647.049C666.294 647.049 666.294 647.049 666.242 647.101C666.138 647.205 666.086 647.309 665.982 647.413C665.93 647.465 665.93 647.517 665.878 647.517L655.575 634.353L660.778 623.791C662.235 623.478 663.484 623.582 664.369 623.01C665.93 622.074 666.294 619.68 665.305 618.119C664.369 616.506 662.339 615.882 660.726 616.662C660.674 616.714 660.674 616.714 660.57 616.714C658.957 617.495 658.228 619.576 659.113 621.241C659.477 622.022 659.425 623.01 658.957 623.791C657.344 626.808 655.783 629.878 654.117 632.896C653.441 633.833 653.441 635.081 654.117 636.018C657.552 640.389 660.986 644.655 664.473 649.026C664.057 649.494 663.588 649.962 663.172 650.431C662.808 650.795 662.391 651.159 662.027 651.523C661.923 651.627 661.767 651.731 661.663 651.731C661.611 651.783 661.611 651.835 661.559 651.887C661.455 652.044 661.351 652.148 661.247 652.252C661.09 652.408 660.934 652.564 660.778 652.772L660.726 652.824L647.301 635.758C647.457 635.133 647.613 634.769 647.665 634.457C650.215 627.173 652.817 619.836 655.366 612.604C655.887 611.199 655.679 609.638 654.69 608.545C651.099 604.175 647.717 599.752 644.178 595.33L645.792 590.595C646.936 590.387 648.029 590.387 648.81 589.918C650.371 589.086 650.839 586.64 649.902 585.079C649.07 583.466 647.092 582.738 645.375 583.466C643.606 584.143 642.825 586.276 643.606 587.993C643.97 588.826 643.97 589.918 643.606 590.803C643.086 592.52 642.513 594.237 642.045 595.85C646.156 601.053 650.111 606.048 654.013 610.991L645.167 635.966L659.477 654.125C659.217 654.385 658.905 654.749 658.437 655.165C658.385 655.27 658.332 655.374 658.228 655.478C658.072 655.634 657.916 655.738 657.812 655.894L657.916 655.738C657.708 655.998 657.552 656.206 657.292 656.362C657.188 656.466 657.084 656.57 656.927 656.622L639.131 634.613C642.461 626.288 645.792 618.223 649.07 610.106C648.758 609.742 648.55 609.326 648.289 609.014C641.837 600.793 635.488 592.52 629.036 584.299C626.33 580.813 623.52 577.327 620.814 573.789C620.345 573.112 619.669 572.54 618.784 572.488C616.599 572.332 614.361 572.02 612.176 571.655C611.551 571.603 611.031 571.291 610.615 570.823C610.146 570.302 609.678 569.678 609.366 569.054C610.354 565.776 609.418 563.382 607.128 562.914C607.076 562.862 606.92 562.862 606.816 562.862C604.786 562.654 603.017 564.111 602.757 566.14C602.549 568.481 604.63 569.938 608.221 570.094C608.585 570.407 608.897 570.771 609.158 571.187C609.782 572.332 610.927 573.06 612.176 573.112C614.413 573.424 616.703 573.945 619.097 574.413L647.092 610.002C646.884 610.783 646.624 611.563 646.312 612.344C643.606 619.16 640.848 626.028 638.09 632.792C637.466 634.041 637.726 635.602 638.715 636.59C644.439 643.562 650.111 650.639 655.835 657.663C655.314 658.443 654.534 658.964 653.909 659.64C653.649 659.952 653.441 660.108 653.285 660.16C653.181 660.317 653.077 660.525 652.921 660.681C652.869 660.733 652.817 660.785 652.765 660.837L652.712 660.889L652.66 660.941L621.594 621.761C623.78 617.027 625.809 612.5 627.943 607.869C623.051 601.781 618.056 595.642 613.112 589.502C613.164 589.19 613.268 588.826 613.32 588.513C613.789 586.328 612.696 584.767 610.51 584.403H610.302C608.533 584.247 606.868 585.548 606.712 587.421C606.712 587.473 606.712 587.473 606.712 587.473C606.66 589.398 608.117 590.959 610.042 591.063C610.719 591.063 611.499 591.011 612.228 590.907C616.911 596.682 621.542 602.51 626.226 608.337C624.144 613.02 621.959 617.651 619.773 622.542L651.255 662.294C651.203 662.346 651.151 662.398 651.099 662.45C649.694 663.855 648.289 665.26 646.884 666.664C646.572 666.977 646.416 667.133 646.26 667.185C646.208 667.341 646.104 667.445 645.896 667.549C645.74 667.757 645.531 667.965 645.375 668.173L623.051 638.88C619.773 634.613 616.599 630.347 613.32 626.08C612.8 625.143 611.759 624.675 610.667 624.779C606.139 624.987 601.664 625.143 597.241 625.3C596.721 624.519 596.252 623.999 595.836 623.426C587.926 612.396 579.913 601.417 571.899 590.387C571.275 589.554 571.066 588.461 571.379 587.421C571.847 585.652 572.367 583.935 572.992 582.218C573.772 580.761 573.356 578.94 572.055 577.847C571.535 577.223 570.962 576.598 570.442 575.974C570.65 573.945 571.223 571.863 568.829 570.771C567.892 570.459 566.903 570.563 566.019 570.979C564.458 571.915 563.989 573.841 564.874 575.35C565.967 577.119 567.58 577.067 569.401 576.598L570.338 577.431C571.743 578.732 572.211 580.24 571.431 582.166C570.962 583.414 570.754 584.819 570.286 586.12C569.453 588.357 569.818 590.23 571.275 592.208C579.184 603.082 587.042 614.061 594.899 624.987C595.524 625.768 596.2 626.548 596.929 627.225L611.759 626.704L644.439 669.422L644.387 669.474C643.71 670.255 642.93 670.983 642.201 671.711C642.149 671.815 642.045 671.867 641.941 671.972C641.889 672.024 641.837 672.024 641.837 672.076C641.785 672.128 641.785 672.128 641.733 672.18H641.681C641.473 672.336 641.264 672.492 641.108 672.7C641.004 672.804 640.9 672.908 640.796 673.012L612.332 635.133L595.836 638.099L563.365 592.78C564.354 589.918 563.989 588.097 562.116 586.848C560.971 586.068 559.41 586.016 558.161 586.692C556.288 587.681 555.611 590.126 556.6 592C556.964 592.78 557.693 593.404 558.473 593.769C559.462 594.133 560.711 594.081 562.064 594.133C562.064 594.185 562.116 594.289 562.22 594.341C572.263 608.337 582.254 622.334 592.297 636.226C593.286 637.475 594.379 638.62 595.472 639.816L611.811 636.85L639.755 674.053C639.547 674.261 639.339 674.469 639.131 674.677C638.767 675.093 638.35 675.458 637.986 675.822C637.726 676.082 637.57 676.186 637.362 676.238C637.31 676.29 637.205 676.342 637.153 676.342C637.049 676.446 636.893 676.498 636.685 676.498H636.633C628.619 665.832 620.658 655.217 612.696 644.499C611.759 643.094 610.146 642.418 608.481 642.782C604.11 643.562 599.687 644.395 595.264 645.175C593.963 645.384 592.558 645.54 591.361 645.696L570.546 616.09C571.795 613.697 571.691 612.032 570.39 610.731C569.297 609.638 567.684 609.43 566.279 610.054C564.874 610.731 564.093 612.24 564.354 613.697C564.874 615.934 565.967 616.714 569.401 617.131L590.684 646.84L609.938 643.667L635.8 677.903C635.696 678.059 635.54 678.215 635.332 678.267C635.176 678.475 634.968 678.684 634.656 678.996C634.031 679.62 633.355 680.192 632.678 680.765C632.574 680.661 632.522 680.557 632.418 680.453C632.314 680.557 632.21 680.713 632.106 680.817C625.809 672.44 619.565 664.115 613.32 655.738C612.8 654.905 611.759 654.489 610.823 654.801C608.429 655.165 605.983 655.582 603.59 655.946L603.694 656.726C599.739 657.403 595.784 657.975 591.829 658.6C590.372 658.756 588.863 658.912 587.25 659.068C583.92 654.541 580.589 650.066 577.207 645.488C574.189 641.221 571.066 637.007 568.204 632.896C567.58 631.96 566.591 631.491 565.498 631.595C562.845 631.647 560.139 631.595 557.589 631.595C557.277 631.127 556.912 630.607 556.496 630.138C555.507 629.046 554.258 628.89 552.853 629.462C551.448 629.93 550.928 630.711 550.928 632.324C550.772 633.572 551.448 634.717 552.645 635.185C553.79 635.81 555.195 635.55 556.236 634.821C556.756 634.353 557.381 633.989 558.005 633.833C560.659 633.677 563.365 633.781 565.863 633.781C572.94 643.094 579.861 652.2 586.938 661.461C592.714 660.629 598.386 659.38 604.058 658.443L603.954 657.663C606.504 657.195 609.053 656.882 611.603 656.674L630.961 682.43C630.909 682.482 630.857 682.534 630.857 682.638C630.857 682.794 630.753 682.95 630.545 683.158C629.504 684.147 628.515 685.135 627.579 686.124C627.422 686.28 627.266 686.384 627.162 686.384C627.11 686.436 627.058 686.488 626.954 686.54L609.574 662.554C608.897 662.554 608.273 662.606 607.544 662.71C604.838 663.334 602.185 663.959 599.531 664.583C597.657 664.947 595.732 665.364 594.015 665.676C591.777 663.647 590.268 663.334 588.707 664.427C587.458 665.207 586.834 666.82 587.302 668.225C587.926 670.255 589.331 671.243 591.205 671.087C592.974 671.035 593.859 669.942 594.379 667.289L608.689 664.011L625.861 687.633C625.757 687.789 625.601 687.945 625.445 688.049C625.289 688.361 624.925 688.726 624.3 689.35C595.003 718.644 565.707 747.937 536.41 777.231C534.901 778.74 534.901 778.74 533.444 777.283C517.676 761.517 501.961 745.804 486.194 730.038C485.518 729.362 484.841 728.634 484.113 727.957C483.592 727.385 483.384 727.385 482.968 728.009C481.927 729.466 480.938 730.975 480.002 732.536C479.065 734.097 478.18 735.71 476.827 736.959C474.954 738.728 473.341 738.572 471.884 736.386C470.739 734.617 469.594 732.796 468.553 730.923C467.721 729.466 466.94 727.957 466.368 726.396C465.119 723.118 463.922 719.788 462.829 716.458C461.737 713.128 460.8 709.694 460.8 706.104C460.8 705.376 461.008 704.595 460.228 704.127C459.811 704.595 459.395 705.063 459.031 705.584C458.042 706.884 457.209 708.289 455.804 709.174C454.816 709.798 453.931 709.798 453.203 708.914C452.11 707.561 450.965 706.208 450.08 704.699C448.519 702.202 447.791 699.392 447.27 696.53C446.958 694.761 446.802 692.94 446.438 691.171C446.334 690.547 445.917 689.974 445.553 689.454C445.293 689.038 444.825 688.674 444.46 688.309L311.818 555.422C311.402 555.057 311.089 554.641 310.673 554.329C310.205 553.965 310.205 553.652 310.673 553.288C311.037 552.976 311.35 552.612 311.662 552.3C343.821 520.092 376.032 487.937 408.243 455.73C408.659 455.313 409.023 454.949 409.387 454.585C409.752 454.273 409.804 453.961 409.439 453.596C408.607 452.66 407.826 451.723 406.994 450.787C405.485 449.07 403.923 447.405 402.362 445.688C401.27 444.491 400.177 443.242 399.136 441.993C398.199 440.797 398.251 440.797 397.211 441.785L396.794 442.202C360.056 478.884 323.318 515.618 286.58 552.352C286.268 552.664 285.903 553.028 285.591 553.34C285.331 553.6 285.227 553.809 285.591 554.121C285.955 554.433 286.268 554.797 286.58 555.109C368.59 637.111 450.601 719.112 532.559 801.113C534.536 803.09 534.276 803.09 536.202 801.165C622.011 715.366 707.82 629.618 793.629 543.819C794.045 543.454 794.409 543.09 794.774 542.726C795.086 542.466 795.138 542.258 794.826 541.945ZM553.582 654.125L566.695 663.699C566.695 663.907 566.695 664.063 566.643 664.323C562.532 673.897 555.924 681.441 547.754 687.737C536.93 696.062 525.118 702.67 512.004 706.572C508.986 707.509 505.916 708.185 502.898 708.654C499.151 709.278 495.665 710.579 492.386 712.452C487.235 715.262 482.76 718.956 479.169 723.587C477.452 725.928 476.151 728.477 474.486 731.027C474.173 730.507 473.653 729.778 473.341 729.102C469.23 720.725 466.42 711.619 465.171 702.306V701.941C464.807 697.103 464.859 696.79 468.658 693.877C471.832 691.483 475.11 689.142 478.44 686.905C485.257 682.378 493.063 679.464 501.233 678.267C505.968 677.435 510.703 676.342 515.387 674.833C521.059 673.116 526.679 671.347 532.247 669.318C538.387 667.081 544.163 663.647 549.107 659.38C550.356 658.131 551.5 656.882 552.593 655.478C553.01 655.009 553.322 654.437 553.582 654.125ZM551.032 651.419C545.256 658.027 537.763 663.022 529.333 665.728C521.319 668.433 513.305 670.723 505.396 673.012C502.846 673.637 500.244 674.157 497.642 674.469C492.647 675.25 487.859 676.81 483.436 679.152C473.861 684.199 465.067 690.495 457.782 698.559C457.105 699.34 456.377 700.172 455.7 700.953C455.7 701.005 455.544 701.005 455.336 701.005C452.838 694.085 452.214 686.852 452.058 679.464C451.902 672.076 452.37 664.791 455.024 657.299C456.793 656.362 458.979 655.217 461.268 654.281C463.922 653.188 466.628 652.252 469.334 651.263C472.196 650.17 475.006 649.078 477.868 648.089C482.135 646.528 486.35 644.967 490.617 643.562C501.597 639.92 512.317 635.81 522.1 629.67C524.337 628.265 526.523 626.548 529.02 624.779C535.213 634.561 542.602 643.458 551.032 651.419ZM512.16 591.323C515.959 601.833 520.851 611.927 526.783 621.501C526.106 622.282 525.326 622.958 524.545 623.687C520.018 627.121 515.127 629.982 510.027 632.324C502.638 635.654 495.092 638.567 487.339 640.961C480.678 643.042 474.121 645.852 467.513 648.193C461.268 650.275 455.388 653.084 449.716 656.414C445.657 658.808 441.858 661.461 439.048 665.259L437.435 667.445C437.123 667.133 436.915 666.82 436.759 666.456C434.677 658.235 433.48 649.754 433.168 641.169C433.168 637.111 433.324 633 433.793 628.942C434.001 627.537 434.573 626.132 435.25 624.831C435.77 623.739 436.707 622.802 437.904 622.282C443.576 619.264 449.82 617.911 456.117 616.975C468.814 615.101 480.99 611.927 492.438 605.996C497.746 603.186 502.95 600.325 507.373 596.37C508.934 594.913 510.443 593.092 512.16 591.323ZM500.088 553.236C501.857 555.265 503.574 557.191 505.24 559.22C505.552 559.74 505.604 560.365 505.604 560.989C506.124 569.21 507.685 577.379 510.183 585.235C510.547 586.328 510.339 587.629 509.663 588.565C507.477 591.843 504.615 594.653 501.337 596.786C489.264 605.111 475.943 610.002 461.633 612.708C456.325 613.644 450.965 614.269 445.865 615.726C436.759 618.379 428.589 622.698 422.24 629.93C422.084 629.982 421.876 630.138 421.616 630.242C421.772 625.352 422.709 620.617 424.166 615.934C426.716 608.233 429.682 600.689 434.053 593.769C435.614 591.219 437.487 588.774 439.205 586.328C440.037 585.079 441.39 584.767 442.795 584.403C448.883 582.79 455.024 581.281 460.904 579.252C472.404 575.193 483.072 569.21 492.543 561.613C494.936 559.74 496.81 557.087 498.891 554.849C499.255 554.485 499.568 553.913 500.088 553.236ZM475.214 524.723L498.058 550.895C494.624 556.566 489.837 560.365 484.945 563.695C472.404 572.176 458.354 578.159 443.576 581.333C434.157 583.258 426.612 588.461 420.003 595.173C419.639 595.538 419.326 596.006 418.702 596.63C418.65 596.11 418.546 595.642 418.546 595.069C419.222 589.086 420.263 583.102 422.605 577.431C424.478 572.748 426.091 567.961 428.381 563.382C430.15 559.74 432.648 556.306 434.833 552.82C435.302 552.3 435.77 551.675 436.134 550.947C436.967 548.918 438.788 547.981 440.662 547.149C444.46 545.432 448.363 543.819 452.162 541.945C458.823 538.824 464.963 534.661 470.531 529.666C472.04 528.209 473.497 526.492 475.214 524.723ZM430.983 475.606C430.827 475.137 430.618 474.617 430.462 474.045L430.775 473.837L473.289 522.59C472.82 523.214 472.352 523.839 472.04 524.463C466.264 531.071 458.979 535.65 451.277 539.552C446.125 542.102 440.766 544.391 435.666 546.94C429.213 550.218 423.281 554.641 418.494 560.052C418.286 560.26 417.973 560.521 417.713 560.729C417.557 560.26 417.505 559.74 417.401 559.272C417.401 556.306 417.869 553.34 418.806 550.583C421.304 542.986 423.854 535.442 426.247 527.741C427.704 522.902 429.213 518.011 430.202 513.068C431.191 508.177 431.763 503.13 432.388 498.083C432.7 495.117 432.856 492.152 433.012 489.238C433.22 484.503 432.128 480.028 430.983 475.606ZM413.706 337.255C415.58 332.26 417.921 327.473 420.783 322.946L424.374 326.224C422.136 331.115 419.17 335.121 413.706 337.255ZM453.775 320.969C450.184 323.05 446.178 324.299 441.963 324.559C438.164 324.923 434.209 324.559 430.514 323.258C427.86 322.322 425.519 320.917 424.218 317.951C429.37 311.135 435.406 305.672 443.576 302.237L457.418 318.263C456.273 319.252 455.024 320.188 453.775 320.969ZM559.93 409.578C564.041 417.018 568.152 424.407 572.575 432.264L561.075 427.217C560.295 426.904 559.514 426.54 558.734 426.228C555.872 425.291 553.374 423.418 551.605 421.025C548.17 416.446 544.58 411.971 540.833 407.185C540.781 407.132 540.729 407.028 540.677 406.976L559.93 409.578ZM662.235 617.131C663.796 617.287 664.941 618.535 665.045 619.992C664.837 621.293 663.744 622.23 662.391 622.178C660.986 622.126 659.894 621.033 659.998 619.628C659.998 618.275 660.986 617.131 662.235 617.131ZM644.751 586.484C644.751 585.183 645.844 583.987 647.145 583.987C648.55 584.195 649.642 585.392 649.798 586.796C649.642 588.097 648.55 589.138 647.249 589.034C645.844 589.034 644.751 587.941 644.751 586.536V586.484ZM607.076 568.794C605.619 568.794 604.422 567.701 604.422 566.296C604.422 564.891 605.515 563.747 606.92 563.642C608.325 563.851 609.418 565.047 609.574 566.452C609.47 567.753 608.325 568.794 607.076 568.794ZM610.458 589.866C610.406 589.866 610.406 589.866 610.406 589.814C609.105 589.762 608.169 588.67 608.221 587.317C608.221 587.317 608.221 587.317 608.221 587.265C608.221 586.12 609.157 585.235 610.302 585.235C611.551 585.444 612.644 586.484 612.696 587.785C612.644 588.93 611.655 589.866 610.458 589.866ZM562.897 590.387C562.845 591.948 561.492 593.196 559.878 593.092C558.265 592.936 557.016 591.687 557.016 590.126C557.016 590.074 557.016 590.074 557.016 590.074C557.068 588.461 558.578 587.213 560.295 587.369H560.659C562.116 587.577 563.157 588.93 562.897 590.387ZM567.892 615.726C566.747 615.674 565.707 614.737 565.55 613.488C565.394 612.188 566.383 610.835 567.788 610.679C569.245 610.835 570.442 612.084 570.494 613.54C570.39 614.893 569.193 615.83 567.892 615.726ZM590.892 670.463C589.592 670.463 588.499 669.474 588.343 668.121C588.291 666.716 589.279 665.468 590.684 665.416C592.089 665.572 593.182 666.716 593.39 668.121C593.286 669.422 592.193 670.463 590.892 670.463Z" fill="white"/>
<path d="M540.832 407.185C544.579 411.971 548.169 416.446 551.604 421.025C553.373 423.418 555.871 425.291 558.733 426.228C559.513 426.436 560.294 426.904 561.074 427.217L572.574 432.264C568.151 424.511 564.04 417.018 559.929 409.578L540.676 406.924C540.728 407.028 540.78 407.08 540.832 407.185Z" fill="#FF0000"/>
<path d="M684.82 528.834C685.289 527.533 684.612 527.117 684.04 526.648C681.802 525.4 679.513 524.151 677.223 522.902C667.44 517.699 657.657 512.548 647.978 507.189C646.209 506.096 643.919 505.94 642.046 506.824C629.765 511.663 617.484 516.294 605.204 521.029C603.434 521.705 601.613 522.33 599.844 523.058C599.011 523.37 598.387 524.203 598.387 525.139C598.231 526.128 598.751 527.013 599.688 527.325C600 527.481 600.312 527.637 600.624 527.793C610.043 531.903 619.514 536.014 628.933 540.072C629.453 540.28 630.025 540.385 630.546 540.385C634.605 540.176 638.559 539.916 642.618 539.708C647.354 539.396 652.193 539.032 656.928 538.615C662.288 538.251 667.596 537.835 672.956 537.367C673.736 537.211 674.569 537.055 675.35 536.742C675.558 535.338 674.881 535.025 673.945 534.817C667.596 533.412 661.196 531.955 654.847 530.551L646.677 528.678C659.374 528.521 672.123 529.146 684.82 528.834Z" fill="white"/>
<path d="M591.101 580.345C591.933 581.437 592.87 582.582 593.807 583.779C600.103 591.635 606.4 599.492 612.852 607.401C613.685 608.233 613.997 609.586 613.529 610.679C612.904 612.604 612.28 614.633 611.916 616.766C611.707 617.547 611.759 618.379 612.072 619.16C613.841 621.969 615.87 624.623 617.848 627.225C618.316 627.901 618.836 628.161 619.617 627.173C619.305 626.652 618.993 626.028 618.628 625.456C617.171 623.374 615.662 621.345 614.101 619.316C613.477 618.692 613.268 617.703 613.633 616.818C614.413 614.425 614.934 611.927 615.662 609.534C615.974 608.754 615.818 607.817 615.194 607.193C613.945 605.788 612.852 604.331 611.707 602.926L592.87 579.616C594.171 577.067 593.703 574.933 591.725 574.153C590.112 573.632 588.239 574.465 587.614 576.078C586.99 578.211 588.187 579.668 591.101 580.345Z" fill="white"/>
<path d="M593.444 559.376C592.143 558.543 590.478 558.7 589.333 559.688C588.084 560.781 587.772 562.498 588.5 563.903C589.333 565.776 590.842 566.296 594.016 565.932L602.342 577.899C604.892 578.107 607.182 578.263 609.419 578.419C610.72 578.471 611.813 579.252 612.541 580.345C614.467 582.998 616.444 585.652 618.474 588.253C623.938 595.486 629.349 602.718 635.178 610.002C634.033 612.24 632.836 614.529 631.587 616.818C630.806 618.275 629.974 619.784 629.193 621.241C628.517 622.23 628.673 623.634 629.662 624.415C630.911 625.56 632.055 626.912 633.252 628.057C633.721 628.369 634.189 628.682 634.657 628.89C634.813 628.525 634.969 628.265 635.126 628.057C637.779 622.386 640.485 616.766 643.139 611.199C643.503 610.419 643.347 609.43 642.671 608.702C638.612 603.811 634.605 598.92 630.546 593.925C630.546 590.959 629.922 589.814 628.309 589.71C628.153 589.71 627.996 589.71 627.944 589.71C626.696 589.762 625.707 590.855 625.759 592.208C625.759 592.884 625.915 593.456 626.227 593.821C626.748 594.445 627.788 594.653 629.558 594.653L642.098 610.054C639.445 615.726 637.207 621.501 634.345 627.225L630.13 622.49C632.368 618.223 634.501 614.165 636.635 610.054L624.978 594.653L611.917 577.379L602.915 576.286L594.901 564.527C595.577 561.769 595.265 560.469 593.444 559.376ZM591.831 564.995C590.426 564.995 589.177 563.903 589.177 562.498C589.125 561.093 590.166 559.948 591.571 559.844C592.976 560.052 594.068 561.249 594.276 562.654C594.224 563.955 593.132 564.995 591.831 564.995Z" fill="white"/>
<path d="M583.45 578.68L583.242 580.084L602.652 604.487C603.485 606.985 601.195 609.378 603.485 611.875C604.577 609.95 604.421 608.233 604.89 606.568C605.254 604.851 604.681 603.55 603.641 602.302C597.396 594.445 591.204 586.692 584.959 578.888L583.45 578.68Z" fill="white"/>
<path d="M569.348 545.484C569.192 543.715 567.579 542.31 565.758 542.466C563.572 542.518 562.167 543.767 562.115 545.952C562.063 548.033 563.26 549.542 565.237 549.698C566.018 549.75 566.798 549.698 567.475 549.698C573.251 556.826 578.975 563.903 584.751 570.979L583.45 578.575L585.063 578.888L586.676 570.198L569.14 548.657C569.296 547.669 569.348 546.628 569.348 545.536C569.348 545.484 569.348 545.484 569.348 545.484Z" fill="white"/>
<path d="M559.929 668.746C561.178 668.746 561.803 668.121 561.803 667.029C561.803 667.029 561.803 666.977 561.751 666.872C561.751 665.936 560.97 665.155 559.981 665.155C558.993 665.312 558.212 666.144 558.264 667.185C558.264 668.329 558.68 668.746 559.929 668.746Z" fill="white"/>
<path d="M554.362 620.565C555.767 622.75 557.172 624.987 558.629 627.225V627.381H568.985C575.645 636.642 582.358 645.748 589.175 655.061C589.695 654.853 590.268 654.593 590.892 654.437C595.732 653.605 600.519 652.824 605.359 651.783C606.659 651.575 608.221 651.835 609.417 650.222C608.949 650.014 608.429 649.91 607.96 649.91C604.006 650.587 599.947 651.367 595.992 652.096C593.91 652.46 591.777 652.772 589.695 653.188L569.661 625.82H559.098L555.611 619.836C556.86 617.131 556.288 614.997 554.31 614.321C552.749 613.853 551.032 614.685 550.407 616.246C549.679 618.587 550.876 619.94 554.362 620.565Z" fill="white"/>
<path d="M550.614 679.776C551.863 679.776 552.488 679.256 552.488 678.059C552.488 678.007 552.488 678.007 552.436 677.903C552.436 676.967 551.655 676.186 550.666 676.186C549.678 676.342 548.897 677.175 548.949 678.215C548.897 679.412 549.365 679.776 550.614 679.776Z" fill="white"/>
<path d="M553.166 549.646C553.479 547.617 552.022 545.744 549.992 545.432C547.963 545.223 546.245 546.576 546.037 548.605C545.881 550.218 547.598 552.352 549.472 552.56C550.096 552.612 550.617 552.612 551.189 552.56L559.515 563.59H567.268C571.015 568.273 574.658 572.904 578.404 577.483C579.029 578.315 579.237 579.408 578.925 580.449C578.3 583.727 577.832 586.953 577.364 590.178C578.352 591.583 579.289 592.884 580.226 594.237C585.585 601.625 591.049 609.014 596.461 616.402C596.982 617.079 597.762 617.651 598.647 617.859C600.988 618.327 603.33 618.483 605.724 618.692C606.036 618.692 606.4 618.327 606.817 618.067L606.764 617.599L598.907 616.506C598.23 615.674 597.762 615.049 597.294 614.425C591.361 606.516 585.533 598.556 579.653 590.647C579.029 589.866 578.821 588.878 579.029 587.941C579.549 584.767 580.121 581.593 580.746 578.159L567.945 561.821H559.723L552.49 551.571C552.646 551.207 552.854 550.791 553.01 550.427C553.114 550.218 553.166 549.958 553.166 549.646ZM549.836 551.363C548.535 551.415 547.338 550.375 547.286 549.022C547.13 547.617 548.223 546.368 549.628 546.316C551.033 546.472 552.126 547.617 552.334 549.022C552.23 550.375 551.189 551.363 549.836 551.363Z" fill="white"/>
<path d="M540.105 684.667C539.117 684.667 538.336 685.5 538.336 686.54C538.336 687.685 538.804 688.257 539.949 688.257C541.25 688.309 541.874 687.789 541.874 686.644V686.592C541.926 685.552 541.146 684.667 540.105 684.667Z" fill="white"/>
<path d="M538.282 655.998C539.531 656.05 540.156 655.53 540.208 654.385V654.333C540.26 653.344 539.531 652.564 538.49 652.46C537.502 652.512 536.721 653.396 536.721 654.385C536.617 655.426 537.085 655.998 538.282 655.998Z" fill="white"/>
<path d="M528.138 691.848C527.149 692.004 526.368 692.836 526.42 693.877C526.42 695.021 526.889 695.438 528.138 695.438C529.387 695.438 530.063 694.917 530.011 693.721C530.011 693.721 530.011 693.669 530.011 693.564C529.959 692.628 529.178 691.848 528.138 691.848Z" fill="white"/>
<path d="M524.805 662.346C526.053 662.346 526.678 661.721 526.678 660.629V660.577C526.678 659.64 525.845 658.808 524.909 658.808C523.92 658.86 523.191 659.744 523.191 660.733C523.191 661.877 523.556 662.346 524.805 662.346Z" fill="white"/>
<path d="M518.041 623.374C519.29 623.374 519.811 622.854 519.811 621.657C519.811 621.657 519.811 621.605 519.863 621.501C519.811 620.565 519.03 619.784 517.989 619.784C517.001 619.94 516.22 620.773 516.272 621.813C516.324 622.958 516.792 623.374 518.041 623.374Z" fill="white"/>
<path d="M515.073 697.727C514.084 697.779 513.355 698.664 513.355 699.652C513.355 700.797 513.824 701.265 514.969 701.265C516.218 701.265 516.842 700.745 516.842 699.496C516.894 698.612 516.113 697.727 515.073 697.727Z" fill="white"/>
<path d="M511.746 662.97C510.757 663.022 509.977 663.907 509.977 664.895C509.977 665.988 510.445 666.508 511.59 666.508C512.891 666.56 513.515 666.04 513.515 664.895V664.843C513.567 663.855 512.787 662.97 511.746 662.97Z" fill="white"/>
<path d="M506.228 626.6C505.239 626.652 504.458 627.433 504.51 628.525C504.51 629.67 504.979 630.138 506.123 630.138C507.372 630.19 507.997 629.67 507.997 628.525V628.473C507.997 627.485 507.268 626.6 506.228 626.6Z" fill="white"/>
<path d="M505.708 587.837C506.957 587.837 507.581 587.317 507.581 586.12C507.581 586.068 507.581 585.964 507.529 585.964C507.529 585.027 506.749 584.247 505.76 584.247C504.771 584.403 503.991 585.235 504.043 586.276C503.991 587.421 504.459 587.837 505.708 587.837Z" fill="white"/>
<path d="M500.088 701.994C499.099 702.046 498.371 702.982 498.475 704.023C498.527 705.167 498.995 705.584 500.244 705.584C501.493 705.584 502.117 704.959 502.013 703.815C501.857 702.722 501.129 701.942 500.088 701.994Z" fill="white"/>
<path d="M496.914 666.404C495.925 666.456 495.145 667.341 495.145 668.329C495.145 669.422 495.613 669.942 496.758 669.942C498.059 669.994 498.683 669.474 498.683 668.329V668.277C498.683 667.289 497.903 666.404 496.914 666.404Z" fill="white"/>
<path d="M493.481 594.185C493.429 595.33 493.845 595.798 495.094 595.798C496.343 595.798 496.967 595.278 496.967 594.081C496.967 592.988 496.187 592.208 495.198 592.208C494.209 592.312 493.429 593.196 493.481 594.185Z" fill="white"/>
<path d="M492.541 631.647C491.552 631.699 490.824 632.636 490.928 633.677C490.928 634.821 491.396 635.237 492.645 635.237C493.894 635.237 494.518 634.613 494.414 633.468V633.416C494.362 632.376 493.582 631.595 492.541 631.647Z" fill="white"/>
<path d="M488.692 555.578C489.941 555.63 490.618 555.109 490.618 553.965C490.67 552.976 489.941 552.092 488.901 552.04C487.912 552.04 487.131 552.872 487.131 553.913C487.027 555.005 487.496 555.578 488.692 555.578Z" fill="white"/>
<path d="M486.557 706.572C485.568 706.728 484.839 707.665 484.943 708.654C484.996 709.798 485.464 710.214 486.713 710.214C487.962 710.214 488.586 709.59 488.482 708.445C488.482 708.393 488.482 708.393 488.43 708.289C488.378 707.301 487.597 706.52 486.557 706.572Z" fill="white"/>
<path d="M481.977 671.087C480.989 671.243 480.208 672.076 480.26 673.116C480.26 674.261 480.729 674.677 481.977 674.677C483.226 674.677 483.851 674.053 483.851 672.96C483.851 672.96 483.851 672.908 483.799 672.804C483.747 671.867 482.966 671.087 481.977 671.087Z" fill="white"/>
<path d="M481.509 599.076C480.573 599.128 479.792 600.064 479.896 601.105C479.896 602.25 480.364 602.666 481.613 602.666C482.862 602.614 483.487 602.042 483.383 600.897C483.278 599.804 482.498 599.076 481.509 599.076Z" fill="white"/>
<path d="M479.117 636.33C478.128 636.382 477.348 637.267 477.348 638.255C477.348 639.348 477.816 639.868 478.961 639.868C480.262 639.92 480.886 639.4 480.886 638.255V638.203C480.886 637.163 480.106 636.33 479.117 636.33Z" fill="white"/>
<path d="M477.297 563.642C478.546 563.642 479.17 563.018 479.17 561.925V561.873C479.17 560.937 478.39 560.104 477.401 560.104C476.412 560.156 475.684 561.041 475.684 562.03C475.684 563.174 476.152 563.642 477.297 563.642Z" fill="white"/>
<path d="M476.517 715.522C475.528 715.574 474.747 716.51 474.799 717.551C474.799 718.696 475.268 719.112 476.517 719.112C477.765 719.112 478.286 718.592 478.286 717.395C478.286 717.343 478.286 717.343 478.338 717.239C478.338 716.25 477.557 715.522 476.517 715.522Z" fill="white"/>
<path d="M470.165 677.851C469.176 678.007 468.396 678.84 468.448 679.88C468.448 681.025 468.916 681.441 470.165 681.441C471.31 681.441 471.934 680.921 471.934 679.724C471.934 678.632 471.154 677.851 470.165 677.851Z" fill="white"/>
<path d="M468.919 605.476C468.867 604.487 468.086 603.707 467.046 603.759C466.005 603.811 465.328 604.747 465.432 605.788C465.484 606.88 465.953 607.245 467.202 607.245C468.451 607.245 469.075 606.62 468.971 605.476C469.023 605.476 469.023 605.372 468.919 605.476Z" fill="white"/>
<path d="M465.795 524.723C467.044 524.723 467.669 524.203 467.721 523.006C467.773 522.018 467.044 521.133 466.004 521.081C465.015 521.133 464.234 522.018 464.234 523.006C464.182 524.151 464.651 524.723 465.795 524.723Z" fill="white"/>
<path d="M464.649 641.845C463.661 642.001 462.88 642.834 462.932 643.875C462.932 645.019 463.4 645.436 464.649 645.436C465.794 645.436 466.419 644.915 466.419 643.719C466.419 643.667 466.419 643.667 466.471 643.562C466.419 642.574 465.638 641.793 464.649 641.845Z" fill="white"/>
<path d="M464.34 566.816C463.351 566.868 462.467 567.649 462.571 568.689C462.519 569.834 462.935 570.407 464.132 570.407C465.381 570.407 466.057 569.886 466.057 568.794V568.742C466.109 567.701 465.329 566.816 464.34 566.816Z" fill="white"/>
<path d="M459.967 686.852C458.979 686.905 458.25 687.789 458.25 688.778C458.25 689.922 458.718 690.391 459.863 690.391C461.112 690.391 461.736 689.87 461.736 688.674C461.736 688.622 461.736 688.622 461.736 688.518C461.789 687.529 461.008 686.8 459.967 686.852Z" fill="white"/>
<path d="M456.429 531.851C457.678 531.903 458.302 531.383 458.354 530.29C458.51 529.302 457.73 528.365 456.741 528.261C455.752 528.261 454.868 529.094 454.868 530.03C454.763 531.227 455.336 531.799 456.429 531.851Z" fill="white"/>
<path d="M452.059 607.037C451.07 607.037 450.289 607.869 450.289 608.91C450.237 610.054 450.654 610.627 451.851 610.627C453.099 610.679 453.724 610.158 453.776 609.014C453.828 608.025 453.047 607.193 452.059 607.037Z" fill="white"/>
<path d="M451.642 647.361C450.549 647.361 449.769 648.193 449.873 649.234C449.821 650.379 450.237 650.951 451.434 650.951C452.683 650.951 453.307 650.431 453.359 649.338C453.359 649.286 453.359 649.286 453.359 649.286C453.463 648.245 452.683 647.465 451.642 647.361Z" fill="white"/>
<path d="M449.354 572.384C448.365 572.436 447.636 573.372 447.74 574.413C447.74 575.558 448.209 575.974 449.458 575.974C450.706 575.974 451.331 575.454 451.227 574.205C451.123 573.06 450.342 572.28 449.354 572.384Z" fill="white"/>
<path d="M444.565 538.251C445.814 538.251 446.438 537.731 446.49 536.638C446.49 536.586 446.49 536.586 446.49 536.586C446.542 535.598 445.814 534.817 444.773 534.713C443.784 534.713 443.004 535.546 443.004 536.586C442.952 537.679 443.42 538.251 444.565 538.251Z" fill="white"/>
<path d="M440.454 654.125C439.465 654.281 438.685 655.113 438.737 656.154C438.737 657.299 439.205 657.715 440.454 657.715C441.703 657.715 442.223 657.091 442.223 655.998C442.223 655.946 442.223 655.946 442.275 655.842C442.275 654.853 441.495 654.125 440.454 654.125Z" fill="white"/>
<path d="M438.372 610.054C437.383 610.21 436.603 611.043 436.655 612.084C436.655 613.228 437.123 613.644 438.372 613.644C439.621 613.644 440.245 613.02 440.245 611.927V611.875C440.141 610.835 439.361 610.054 438.372 610.054Z" fill="white"/>
<path d="M435.51 576.182C434.521 576.234 433.741 577.014 433.637 578.055C433.637 579.2 434.105 579.772 435.25 579.772C436.499 579.824 437.175 579.252 437.175 578.159V578.107C437.279 577.014 436.499 576.182 435.51 576.182Z" fill="white"/>
<path d="M431.086 542.518C431.086 543.61 431.554 544.131 432.699 544.131C433.948 544.183 434.624 543.662 434.624 542.518V542.466C434.676 541.477 433.948 540.697 432.907 540.593C431.919 540.645 431.138 541.477 431.086 542.518Z" fill="white"/>
<path d="M427.39 616.818C426.402 616.87 425.621 617.755 425.621 618.744C425.621 619.836 426.089 620.357 427.234 620.357C428.483 620.357 429.16 619.836 429.16 618.744V618.692C429.212 617.651 428.431 616.818 427.39 616.818Z" fill="white"/>
<path d="M424.841 582.062C423.852 582.218 423.072 583.05 423.124 584.091C423.124 585.235 423.592 585.652 424.841 585.652C425.986 585.652 426.61 585.131 426.61 583.935C426.61 583.935 426.61 583.883 426.662 583.779C426.61 582.79 425.829 582.062 424.841 582.062Z" fill="white"/>
<path d="M422.763 546.472C421.774 546.628 420.993 547.461 421.045 548.501C421.045 549.646 421.514 550.062 422.763 550.062C424.012 550.062 424.532 549.542 424.532 548.345C424.532 548.345 424.532 548.293 424.584 548.189C424.532 547.201 423.751 546.472 422.763 546.472Z" fill="white"/>
</svg>
