<svg width="1080" height="1080" viewBox="0 0 1080 1080" fill="none" xmlns="http://www.w3.org/2000/svg">
<rect x="304.435" y="535.313" width="337.824" height="337.824" transform="rotate(-45 304.435 535.313)" stroke="white" stroke-width="19"/>
<path d="M459 675L543.5 665V682H621.5" stroke="white" stroke-width="15" stroke-linecap="square"/>
<path d="M496.5 716L542.557 712V722H586.5" stroke="white" stroke-width="15" stroke-linecap="square"/>
<path d="M699.007 454.921C682.377 516.987 683.62 552.361 699.007 616.154M735 485.018C722.44 522.752 722.181 545.303 735 588.207M661.015 413C639.548 510.883 639.776 564.281 661.015 657" stroke="white" stroke-width="12"/>
<path d="M501.186 479.5L484.573 473.997L476.953 497H501.186V479.5ZM559.578 479.5L576.085 485.311L584.291 462H559.578V479.5ZM522.085 586L505.578 580.189L497.372 603.5H522.085V586ZM564.837 586L581.483 591.4L588.911 568.5H564.837V586ZM525.972 649.1L520.572 665.747L553.865 676.546L559.264 659.9L525.972 649.1ZM540.888 303.997L484.573 473.997L517.798 485.003L574.113 315.003L540.888 303.997ZM501.186 497H559.578V462H501.186V497ZM543.071 473.689L505.578 580.189L538.592 591.811L576.085 485.311L543.071 473.689ZM522.085 603.5H564.837V568.5H522.085V603.5ZM548.191 580.6L525.972 649.1L559.264 659.9L581.483 591.4L548.191 580.6Z" fill="white"/>
<path d="M324 518.5H393C396.454 516.38 398.449 515.506 402.5 517L408.5 491L449.5 449.5L408.5 524C408.695 526.958 408.296 528.703 406.5 532L422 543.5L440 605.5L430 593L395.5 533.5C392.901 532.577 391.916 531.358 390.5 528L369 535L311 520.5L324 518.5Z" fill="white"/>
<path d="M395.5 541.5L389 612L408.5 631L402.5 554.5L395.5 541.5Z" fill="white"/>
<path d="M324 518.5H393C396.454 516.38 398.449 515.506 402.5 517L408.5 491L449.5 449.5L408.5 524C408.695 526.958 408.296 528.703 406.5 532L422 543.5L440 605.5L430 593L395.5 533.5C392.901 532.577 391.916 531.358 390.5 528L369 535L311 520.5L324 518.5Z" stroke="white"/>
<path d="M395.5 541.5L389 612L408.5 631L402.5 554.5L395.5 541.5Z" stroke="white"/>
</svg>
