<svg width="1080" height="1080" viewBox="0 0 1080 1080" fill="none" xmlns="http://www.w3.org/2000/svg">
<rect x="304.435" y="535.313" width="337.824" height="337.824" transform="rotate(-45 304.435 535.313)" stroke="white" stroke-width="19"/>
<path d="M426 414V642H480.5V596.5M480.5 514.5V596.5M480.5 596.5H541.5V455" stroke="white" stroke-width="28"/>
<path d="M584 336.252V553.748M584 553.748V643H639H644C667.196 643 686 624.196 686 601V570.748C686 561.359 678.389 553.748 669 553.748H584Z" stroke="white" stroke-width="26"/>
<path d="M385.791 527.012L387.7 524.568C395.183 514.753 403.205 505.527 411.105 496.234C421.461 484.114 431.98 472.233 442.561 460.512C451.006 451.114 459.6 442.028 468.156 432.885C476.135 424.379 484.136 415.928 492.16 407.531C498.483 400.951 504.821 394.44 511.175 387.996C522.09 376.982 533.143 365.909 544.136 354.873C546.818 352.166 549.437 349.579 552.09 346.962C552.09 346.962 565.627 335.372 572.427 332.906C579.335 330.401 585.074 335.213 585.074 335.213L584.256 335.987C579.079 340.882 573.886 345.792 568.715 350.794C558.747 360.426 548.771 370.079 538.827 379.813C529.546 388.921 520.339 398.198 511.045 407.296C510.706 407.591 490.525 427.873 490.207 428.254C479.446 439.388 468.618 450.609 457.86 461.885C453.514 466.417 449.197 471.112 444.93 475.874C438.438 483.141 432.043 490.679 425.503 497.796C424.14 499.23 401.915 527.343 400.857 529.012C399.564 530.829 398.33 532.663 397.165 534.503C392.366 541.647 388.345 548.846 385.356 555.649C384.377 558.007 383.884 560.1 383.923 561.732C384.017 566.216 386.033 568.545 387.535 570.779L387.569 570.722C390.677 572.735 394.77 573.414 399.68 572.731L436.089 558.998C436.089 558.998 428.732 559.383 437.025 576.856C428.057 581.352 367.839 593.137 360.178 594.881C355.478 596.035 351.834 595.338 349.584 592.857C348.749 591.869 348.38 590.339 348.5 588.367C348.621 586.394 349.23 584.022 350.286 581.402C353.082 574.011 357.818 566.154 363.084 558.292C367.288 552.001 371.582 545.753 375.997 539.627C379.093 535.347 382.538 531.254 385.815 527.059L385.791 527.012Z" fill="white"/>
<path d="M661.713 593.711L660.218 595.696C654.368 603.667 648.043 611.149 641.824 618.687C633.668 628.519 625.367 638.151 617.008 647.653C610.337 655.271 603.531 662.632 596.758 670.04C590.441 676.932 584.103 683.778 577.744 690.579C572.732 695.909 567.704 701.182 562.66 706.399C553.994 715.316 545.215 724.28 536.484 733.215C534.355 735.406 532.273 737.5 530.164 739.618C530.164 739.618 519.333 748.978 513.758 750.926C508.094 752.905 503.113 748.892 503.113 748.892L503.765 748.266C507.888 744.307 512.024 740.335 516.139 736.288C524.071 728.495 532.007 720.683 539.916 712.806C547.295 705.435 554.605 697.924 561.996 690.562C562.267 690.323 578.294 673.903 578.544 673.594C587.077 664.577 595.663 655.489 604.187 646.355C607.632 642.684 611.046 638.879 614.416 635.019C619.542 629.128 624.575 623.013 629.747 617.245C630.827 616.083 648.246 593.259 649.062 591.901C650.068 590.425 651.024 588.933 651.923 587.436C655.641 581.627 658.707 575.764 660.93 570.214C661.652 568.29 661.979 566.578 661.881 565.238C661.623 561.557 659.848 559.623 658.505 557.773L658.479 557.819C655.805 556.132 652.363 555.53 648.293 556.036L641.656 556.91C647.839 553.121 651.703 550.753 659.857 545.728C667.16 542.138 658.648 544.925 664.97 543.579C668.846 542.685 674.711 550 676.688 552.061C677.424 552.882 679.549 555.896 679.527 557.514C679.505 559.131 684.155 563.77 683.378 565.908C681.342 571.943 683.486 561.901 679.407 568.294C676.151 573.41 672.819 578.49 669.38 583.468C666.968 586.946 664.258 590.266 661.691 593.672L661.713 593.711Z" fill="white"/>
<path d="M606.4 377.202C607.876 377.202 608.992 377.772 609.748 378.912C610.516 380.052 610.9 381.66 610.9 383.736C610.9 385.824 610.516 387.444 609.748 388.596C608.992 389.736 607.876 390.306 606.4 390.306C604.924 390.306 603.802 389.736 603.034 388.596C602.278 387.444 601.9 385.824 601.9 383.736C601.9 381.66 602.278 380.052 603.034 378.912C603.802 377.772 604.924 377.202 606.4 377.202ZM606.4 379.272C605.8 379.272 605.356 379.62 605.068 380.316C604.792 381 604.654 382.14 604.654 383.736C604.654 385.38 604.792 386.544 605.068 387.228C605.356 387.912 605.8 388.254 606.4 388.254C607.012 388.254 607.45 387.912 607.714 387.228C607.99 386.544 608.128 385.38 608.128 383.736C608.128 382.116 607.984 380.97 607.696 380.298C607.42 379.614 606.988 379.272 606.4 379.272ZM606.382 382.62C606.718 382.62 607 382.734 607.228 382.962C607.456 383.19 607.57 383.466 607.57 383.79C607.57 384.126 607.456 384.408 607.228 384.636C607 384.864 606.718 384.978 606.382 384.978C606.046 384.978 605.764 384.864 605.536 384.636C605.32 384.408 605.212 384.126 605.212 383.79C605.212 383.466 605.32 383.19 605.536 382.962C605.764 382.734 606.046 382.62 606.382 382.62Z" fill="white"/>
<path d="M627.831 387.84V390H619.731V387.84H622.737V380.316L620.163 381.936L618.957 379.974L622.989 377.526H625.509V387.84H627.831Z" fill="white"/>
<path d="M606.4 399.202C607.876 399.202 608.992 399.772 609.748 400.912C610.516 402.052 610.9 403.66 610.9 405.736C610.9 407.824 610.516 409.444 609.748 410.596C608.992 411.736 607.876 412.306 606.4 412.306C604.924 412.306 603.802 411.736 603.034 410.596C602.278 409.444 601.9 407.824 601.9 405.736C601.9 403.66 602.278 402.052 603.034 400.912C603.802 399.772 604.924 399.202 606.4 399.202ZM606.4 401.272C605.8 401.272 605.356 401.62 605.068 402.316C604.792 403 604.654 404.14 604.654 405.736C604.654 407.38 604.792 408.544 605.068 409.228C605.356 409.912 605.8 410.254 606.4 410.254C607.012 410.254 607.45 409.912 607.714 409.228C607.99 408.544 608.128 407.38 608.128 405.736C608.128 404.116 607.984 402.97 607.696 402.298C607.42 401.614 606.988 401.272 606.4 401.272ZM606.382 404.62C606.718 404.62 607 404.734 607.228 404.962C607.456 405.19 607.57 405.466 607.57 405.79C607.57 406.126 607.456 406.408 607.228 406.636C607 406.864 606.718 406.978 606.382 406.978C606.046 406.978 605.764 406.864 605.536 406.636C605.32 406.408 605.212 406.126 605.212 405.79C605.212 405.466 605.32 405.19 605.536 404.962C605.764 404.734 606.046 404.62 606.382 404.62Z" fill="white"/>
<path d="M627.831 409.84V412H619.731V409.84H622.737V402.316L620.163 403.936L618.957 401.974L622.989 399.526H625.509V409.84H627.831Z" fill="white"/>
<path d="M640.226 399.202C641.702 399.202 642.818 399.772 643.574 400.912C644.342 402.052 644.726 403.66 644.726 405.736C644.726 407.824 644.342 409.444 643.574 410.596C642.818 411.736 641.702 412.306 640.226 412.306C638.75 412.306 637.628 411.736 636.86 410.596C636.104 409.444 635.726 407.824 635.726 405.736C635.726 403.66 636.104 402.052 636.86 400.912C637.628 399.772 638.75 399.202 640.226 399.202ZM640.226 401.272C639.626 401.272 639.182 401.62 638.894 402.316C638.618 403 638.48 404.14 638.48 405.736C638.48 407.38 638.618 408.544 638.894 409.228C639.182 409.912 639.626 410.254 640.226 410.254C640.838 410.254 641.276 409.912 641.54 409.228C641.816 408.544 641.954 407.38 641.954 405.736C641.954 404.116 641.81 402.97 641.522 402.298C641.246 401.614 640.814 401.272 640.226 401.272ZM640.208 404.62C640.544 404.62 640.826 404.734 641.054 404.962C641.282 405.19 641.396 405.466 641.396 405.79C641.396 406.126 641.282 406.408 641.054 406.636C640.826 406.864 640.544 406.978 640.208 406.978C639.872 406.978 639.59 406.864 639.362 406.636C639.146 406.408 639.038 406.126 639.038 405.79C639.038 405.466 639.146 405.19 639.362 404.962C639.59 404.734 639.872 404.62 640.208 404.62Z" fill="white"/>
<path d="M657.139 399.202C658.615 399.202 659.731 399.772 660.487 400.912C661.255 402.052 661.639 403.66 661.639 405.736C661.639 407.824 661.255 409.444 660.487 410.596C659.731 411.736 658.615 412.306 657.139 412.306C655.663 412.306 654.541 411.736 653.773 410.596C653.017 409.444 652.639 407.824 652.639 405.736C652.639 403.66 653.017 402.052 653.773 400.912C654.541 399.772 655.663 399.202 657.139 399.202ZM657.139 401.272C656.539 401.272 656.095 401.62 655.807 402.316C655.531 403 655.393 404.14 655.393 405.736C655.393 407.38 655.531 408.544 655.807 409.228C656.095 409.912 656.539 410.254 657.139 410.254C657.751 410.254 658.189 409.912 658.453 409.228C658.729 408.544 658.867 407.38 658.867 405.736C658.867 404.116 658.723 402.97 658.435 402.298C658.159 401.614 657.727 401.272 657.139 401.272ZM657.121 404.62C657.457 404.62 657.739 404.734 657.967 404.962C658.195 405.19 658.309 405.466 658.309 405.79C658.309 406.126 658.195 406.408 657.967 406.636C657.739 406.864 657.457 406.978 657.121 406.978C656.785 406.978 656.503 406.864 656.275 406.636C656.059 406.408 655.951 406.126 655.951 405.79C655.951 405.466 656.059 405.19 656.275 404.962C656.503 404.734 656.785 404.62 657.121 404.62Z" fill="white"/>
<path d="M610.918 431.84V434H602.818V431.84H605.824V424.316L603.25 425.936L602.044 423.974L606.076 421.526H608.596V431.84H610.918Z" fill="white"/>
<path d="M627.831 431.84V434H619.731V431.84H622.737V424.316L620.163 425.936L618.957 423.974L622.989 421.526H625.509V431.84H627.831Z" fill="white"/>
<path d="M644.744 431.84V434H636.644V431.84H639.65V424.316L637.076 425.936L635.87 423.974L639.902 421.526H642.422V431.84H644.744Z" fill="white"/>
<path d="M657.139 421.202C658.615 421.202 659.731 421.772 660.487 422.912C661.255 424.052 661.639 425.66 661.639 427.736C661.639 429.824 661.255 431.444 660.487 432.596C659.731 433.736 658.615 434.306 657.139 434.306C655.663 434.306 654.541 433.736 653.773 432.596C653.017 431.444 652.639 429.824 652.639 427.736C652.639 425.66 653.017 424.052 653.773 422.912C654.541 421.772 655.663 421.202 657.139 421.202ZM657.139 423.272C656.539 423.272 656.095 423.62 655.807 424.316C655.531 425 655.393 426.14 655.393 427.736C655.393 429.38 655.531 430.544 655.807 431.228C656.095 431.912 656.539 432.254 657.139 432.254C657.751 432.254 658.189 431.912 658.453 431.228C658.729 430.544 658.867 429.38 658.867 427.736C658.867 426.116 658.723 424.97 658.435 424.298C658.159 423.614 657.727 423.272 657.139 423.272ZM657.121 426.62C657.457 426.62 657.739 426.734 657.967 426.962C658.195 427.19 658.309 427.466 658.309 427.79C658.309 428.126 658.195 428.408 657.967 428.636C657.739 428.864 657.457 428.978 657.121 428.978C656.785 428.978 656.503 428.864 656.275 428.636C656.059 428.408 655.951 428.126 655.951 427.79C655.951 427.466 656.059 427.19 656.275 426.962C656.503 426.734 656.785 426.62 657.121 426.62Z" fill="white"/>
<path d="M610.918 453.84V456H602.818V453.84H605.824V446.316L603.25 447.936L602.044 445.974L606.076 443.526H608.596V453.84H610.918Z" fill="white"/>
<path d="M623.313 443.202C624.789 443.202 625.905 443.772 626.661 444.912C627.429 446.052 627.813 447.66 627.813 449.736C627.813 451.824 627.429 453.444 626.661 454.596C625.905 455.736 624.789 456.306 623.313 456.306C621.837 456.306 620.715 455.736 619.947 454.596C619.191 453.444 618.813 451.824 618.813 449.736C618.813 447.66 619.191 446.052 619.947 444.912C620.715 443.772 621.837 443.202 623.313 443.202ZM623.313 445.272C622.713 445.272 622.269 445.62 621.981 446.316C621.705 447 621.567 448.14 621.567 449.736C621.567 451.38 621.705 452.544 621.981 453.228C622.269 453.912 622.713 454.254 623.313 454.254C623.925 454.254 624.363 453.912 624.627 453.228C624.903 452.544 625.041 451.38 625.041 449.736C625.041 448.116 624.897 446.97 624.609 446.298C624.333 445.614 623.901 445.272 623.313 445.272ZM623.295 448.62C623.631 448.62 623.913 448.734 624.141 448.962C624.369 449.19 624.483 449.466 624.483 449.79C624.483 450.126 624.369 450.408 624.141 450.636C623.913 450.864 623.631 450.978 623.295 450.978C622.959 450.978 622.677 450.864 622.449 450.636C622.233 450.408 622.125 450.126 622.125 449.79C622.125 449.466 622.233 449.19 622.449 448.962C622.677 448.734 622.959 448.62 623.295 448.62Z" fill="white"/>
<path d="M644.744 453.84V456H636.644V453.84H639.65V446.316L637.076 447.936L635.87 445.974L639.902 443.526H642.422V453.84H644.744Z" fill="white"/>
<path d="M657.139 443.202C658.615 443.202 659.731 443.772 660.487 444.912C661.255 446.052 661.639 447.66 661.639 449.736C661.639 451.824 661.255 453.444 660.487 454.596C659.731 455.736 658.615 456.306 657.139 456.306C655.663 456.306 654.541 455.736 653.773 454.596C653.017 453.444 652.639 451.824 652.639 449.736C652.639 447.66 653.017 446.052 653.773 444.912C654.541 443.772 655.663 443.202 657.139 443.202ZM657.139 445.272C656.539 445.272 656.095 445.62 655.807 446.316C655.531 447 655.393 448.14 655.393 449.736C655.393 451.38 655.531 452.544 655.807 453.228C656.095 453.912 656.539 454.254 657.139 454.254C657.751 454.254 658.189 453.912 658.453 453.228C658.729 452.544 658.867 451.38 658.867 449.736C658.867 448.116 658.723 446.97 658.435 446.298C658.159 445.614 657.727 445.272 657.139 445.272ZM657.121 448.62C657.457 448.62 657.739 448.734 657.967 448.962C658.195 449.19 658.309 449.466 658.309 449.79C658.309 450.126 658.195 450.408 657.967 450.636C657.739 450.864 657.457 450.978 657.121 450.978C656.785 450.978 656.503 450.864 656.275 450.636C656.059 450.408 655.951 450.126 655.951 449.79C655.951 449.466 656.059 449.19 656.275 448.962C656.503 448.734 656.785 448.62 657.121 448.62Z" fill="white"/>
<path d="M610.918 475.84V478H602.818V475.84H605.824V468.316L603.25 469.936L602.044 467.974L606.076 465.526H608.596V475.84H610.918Z" fill="white"/>
<path d="M623.313 465.202C624.789 465.202 625.905 465.772 626.661 466.912C627.429 468.052 627.813 469.66 627.813 471.736C627.813 473.824 627.429 475.444 626.661 476.596C625.905 477.736 624.789 478.306 623.313 478.306C621.837 478.306 620.715 477.736 619.947 476.596C619.191 475.444 618.813 473.824 618.813 471.736C618.813 469.66 619.191 468.052 619.947 466.912C620.715 465.772 621.837 465.202 623.313 465.202ZM623.313 467.272C622.713 467.272 622.269 467.62 621.981 468.316C621.705 469 621.567 470.14 621.567 471.736C621.567 473.38 621.705 474.544 621.981 475.228C622.269 475.912 622.713 476.254 623.313 476.254C623.925 476.254 624.363 475.912 624.627 475.228C624.903 474.544 625.041 473.38 625.041 471.736C625.041 470.116 624.897 468.97 624.609 468.298C624.333 467.614 623.901 467.272 623.313 467.272ZM623.295 470.62C623.631 470.62 623.913 470.734 624.141 470.962C624.369 471.19 624.483 471.466 624.483 471.79C624.483 472.126 624.369 472.408 624.141 472.636C623.913 472.864 623.631 472.978 623.295 472.978C622.959 472.978 622.677 472.864 622.449 472.636C622.233 472.408 622.125 472.126 622.125 471.79C622.125 471.466 622.233 471.19 622.449 470.962C622.677 470.734 622.959 470.62 623.295 470.62Z" fill="white"/>
<path d="M644.744 475.84V478H636.644V475.84H639.65V468.316L637.076 469.936L635.87 467.974L639.902 465.526H642.422V475.84H644.744Z" fill="white"/>
<path d="M657.139 465.202C658.615 465.202 659.731 465.772 660.487 466.912C661.255 468.052 661.639 469.66 661.639 471.736C661.639 473.824 661.255 475.444 660.487 476.596C659.731 477.736 658.615 478.306 657.139 478.306C655.663 478.306 654.541 477.736 653.773 476.596C653.017 475.444 652.639 473.824 652.639 471.736C652.639 469.66 653.017 468.052 653.773 466.912C654.541 465.772 655.663 465.202 657.139 465.202ZM657.139 467.272C656.539 467.272 656.095 467.62 655.807 468.316C655.531 469 655.393 470.14 655.393 471.736C655.393 473.38 655.531 474.544 655.807 475.228C656.095 475.912 656.539 476.254 657.139 476.254C657.751 476.254 658.189 475.912 658.453 475.228C658.729 474.544 658.867 473.38 658.867 471.736C658.867 470.116 658.723 468.97 658.435 468.298C658.159 467.614 657.727 467.272 657.139 467.272ZM657.121 470.62C657.457 470.62 657.739 470.734 657.967 470.962C658.195 471.19 658.309 471.466 658.309 471.79C658.309 472.126 658.195 472.408 657.967 472.636C657.739 472.864 657.457 472.978 657.121 472.978C656.785 472.978 656.503 472.864 656.275 472.636C656.059 472.408 655.951 472.126 655.951 471.79C655.951 471.466 656.059 471.19 656.275 470.962C656.503 470.734 656.785 470.62 657.121 470.62Z" fill="white"/>
<path d="M627.831 497.84V500H619.731V497.84H622.737V490.316L620.163 491.936L618.957 489.974L622.989 487.526H625.509V497.84H627.831Z" fill="white"/>
<path d="M640.226 487.202C641.702 487.202 642.818 487.772 643.574 488.912C644.342 490.052 644.726 491.66 644.726 493.736C644.726 495.824 644.342 497.444 643.574 498.596C642.818 499.736 641.702 500.306 640.226 500.306C638.75 500.306 637.628 499.736 636.86 498.596C636.104 497.444 635.726 495.824 635.726 493.736C635.726 491.66 636.104 490.052 636.86 488.912C637.628 487.772 638.75 487.202 640.226 487.202ZM640.226 489.272C639.626 489.272 639.182 489.62 638.894 490.316C638.618 491 638.48 492.14 638.48 493.736C638.48 495.38 638.618 496.544 638.894 497.228C639.182 497.912 639.626 498.254 640.226 498.254C640.838 498.254 641.276 497.912 641.54 497.228C641.816 496.544 641.954 495.38 641.954 493.736C641.954 492.116 641.81 490.97 641.522 490.298C641.246 489.614 640.814 489.272 640.226 489.272ZM640.208 492.62C640.544 492.62 640.826 492.734 641.054 492.962C641.282 493.19 641.396 493.466 641.396 493.79C641.396 494.126 641.282 494.408 641.054 494.636C640.826 494.864 640.544 494.978 640.208 494.978C639.872 494.978 639.59 494.864 639.362 494.636C639.146 494.408 639.038 494.126 639.038 493.79C639.038 493.466 639.146 493.19 639.362 492.962C639.59 492.734 639.872 492.62 640.208 492.62Z" fill="white"/>
<path d="M661.657 497.84V500H653.557V497.84H656.563V490.316L653.989 491.936L652.783 489.974L656.815 487.526H659.335V497.84H661.657Z" fill="white"/>
<path d="M610.918 519.84V522H602.818V519.84H605.824V512.316L603.25 513.936L602.044 511.974L606.076 509.526H608.596V519.84H610.918Z" fill="white"/>
<path d="M623.313 509.202C624.789 509.202 625.905 509.772 626.661 510.912C627.429 512.052 627.813 513.66 627.813 515.736C627.813 517.824 627.429 519.444 626.661 520.596C625.905 521.736 624.789 522.306 623.313 522.306C621.837 522.306 620.715 521.736 619.947 520.596C619.191 519.444 618.813 517.824 618.813 515.736C618.813 513.66 619.191 512.052 619.947 510.912C620.715 509.772 621.837 509.202 623.313 509.202ZM623.313 511.272C622.713 511.272 622.269 511.62 621.981 512.316C621.705 513 621.567 514.14 621.567 515.736C621.567 517.38 621.705 518.544 621.981 519.228C622.269 519.912 622.713 520.254 623.313 520.254C623.925 520.254 624.363 519.912 624.627 519.228C624.903 518.544 625.041 517.38 625.041 515.736C625.041 514.116 624.897 512.97 624.609 512.298C624.333 511.614 623.901 511.272 623.313 511.272ZM623.295 514.62C623.631 514.62 623.913 514.734 624.141 514.962C624.369 515.19 624.483 515.466 624.483 515.79C624.483 516.126 624.369 516.408 624.141 516.636C623.913 516.864 623.631 516.978 623.295 516.978C622.959 516.978 622.677 516.864 622.449 516.636C622.233 516.408 622.125 516.126 622.125 515.79C622.125 515.466 622.233 515.19 622.449 514.962C622.677 514.734 622.959 514.62 623.295 514.62Z" fill="white"/>
<path d="M644.744 519.84V522H636.644V519.84H639.65V512.316L637.076 513.936L635.87 511.974L639.902 509.526H642.422V519.84H644.744Z" fill="white"/>
<path d="M657.139 509.202C658.615 509.202 659.731 509.772 660.487 510.912C661.255 512.052 661.639 513.66 661.639 515.736C661.639 517.824 661.255 519.444 660.487 520.596C659.731 521.736 658.615 522.306 657.139 522.306C655.663 522.306 654.541 521.736 653.773 520.596C653.017 519.444 652.639 517.824 652.639 515.736C652.639 513.66 653.017 512.052 653.773 510.912C654.541 509.772 655.663 509.202 657.139 509.202ZM657.139 511.272C656.539 511.272 656.095 511.62 655.807 512.316C655.531 513 655.393 514.14 655.393 515.736C655.393 517.38 655.531 518.544 655.807 519.228C656.095 519.912 656.539 520.254 657.139 520.254C657.751 520.254 658.189 519.912 658.453 519.228C658.729 518.544 658.867 517.38 658.867 515.736C658.867 514.116 658.723 512.97 658.435 512.298C658.159 511.614 657.727 511.272 657.139 511.272ZM657.121 514.62C657.457 514.62 657.739 514.734 657.967 514.962C658.195 515.19 658.309 515.466 658.309 515.79C658.309 516.126 658.195 516.408 657.967 516.636C657.739 516.864 657.457 516.978 657.121 516.978C656.785 516.978 656.503 516.864 656.275 516.636C656.059 516.408 655.951 516.126 655.951 515.79C655.951 515.466 656.059 515.19 656.275 514.962C656.503 514.734 656.785 514.62 657.121 514.62Z" fill="white"/>
<path d="M610.918 541.84V544H602.818V541.84H605.824V534.316L603.25 535.936L602.044 533.974L606.076 531.526H608.596V541.84H610.918Z" fill="white"/>
<path d="M623.313 531.202C624.789 531.202 625.905 531.772 626.661 532.912C627.429 534.052 627.813 535.66 627.813 537.736C627.813 539.824 627.429 541.444 626.661 542.596C625.905 543.736 624.789 544.306 623.313 544.306C621.837 544.306 620.715 543.736 619.947 542.596C619.191 541.444 618.813 539.824 618.813 537.736C618.813 535.66 619.191 534.052 619.947 532.912C620.715 531.772 621.837 531.202 623.313 531.202ZM623.313 533.272C622.713 533.272 622.269 533.62 621.981 534.316C621.705 535 621.567 536.14 621.567 537.736C621.567 539.38 621.705 540.544 621.981 541.228C622.269 541.912 622.713 542.254 623.313 542.254C623.925 542.254 624.363 541.912 624.627 541.228C624.903 540.544 625.041 539.38 625.041 537.736C625.041 536.116 624.897 534.97 624.609 534.298C624.333 533.614 623.901 533.272 623.313 533.272ZM623.295 536.62C623.631 536.62 623.913 536.734 624.141 536.962C624.369 537.19 624.483 537.466 624.483 537.79C624.483 538.126 624.369 538.408 624.141 538.636C623.913 538.864 623.631 538.978 623.295 538.978C622.959 538.978 622.677 538.864 622.449 538.636C622.233 538.408 622.125 538.126 622.125 537.79C622.125 537.466 622.233 537.19 622.449 536.962C622.677 536.734 622.959 536.62 623.295 536.62Z" fill="white"/>
<path d="M640.226 531.202C641.702 531.202 642.818 531.772 643.574 532.912C644.342 534.052 644.726 535.66 644.726 537.736C644.726 539.824 644.342 541.444 643.574 542.596C642.818 543.736 641.702 544.306 640.226 544.306C638.75 544.306 637.628 543.736 636.86 542.596C636.104 541.444 635.726 539.824 635.726 537.736C635.726 535.66 636.104 534.052 636.86 532.912C637.628 531.772 638.75 531.202 640.226 531.202ZM640.226 533.272C639.626 533.272 639.182 533.62 638.894 534.316C638.618 535 638.48 536.14 638.48 537.736C638.48 539.38 638.618 540.544 638.894 541.228C639.182 541.912 639.626 542.254 640.226 542.254C640.838 542.254 641.276 541.912 641.54 541.228C641.816 540.544 641.954 539.38 641.954 537.736C641.954 536.116 641.81 534.97 641.522 534.298C641.246 533.614 640.814 533.272 640.226 533.272ZM640.208 536.62C640.544 536.62 640.826 536.734 641.054 536.962C641.282 537.19 641.396 537.466 641.396 537.79C641.396 538.126 641.282 538.408 641.054 538.636C640.826 538.864 640.544 538.978 640.208 538.978C639.872 538.978 639.59 538.864 639.362 538.636C639.146 538.408 639.038 538.126 639.038 537.79C639.038 537.466 639.146 537.19 639.362 536.962C639.59 536.734 639.872 536.62 640.208 536.62Z" fill="white"/>
<path d="M661.657 541.84V544H653.557V541.84H656.563V534.316L653.989 535.936L652.783 533.974L656.815 531.526H659.335V541.84H661.657Z" fill="white"/>
<path d="M610.918 497.84V500H602.818V497.84H605.824V490.316L603.25 491.936L602.044 489.974L606.076 487.526H608.596V497.84H610.918Z" fill="white"/>
<path d="M523.5 323C524.976 323 526.092 323.57 526.848 324.71C527.616 325.85 528 327.458 528 329.534C528 331.622 527.616 333.242 526.848 334.394C526.092 335.534 524.976 336.104 523.5 336.104C522.024 336.104 520.902 335.534 520.134 334.394C519.378 333.242 519 331.622 519 329.534C519 327.458 519.378 325.85 520.134 324.71C520.902 323.57 522.024 323 523.5 323ZM523.5 325.07C522.9 325.07 522.456 325.418 522.168 326.114C521.892 326.798 521.754 327.938 521.754 329.534C521.754 331.178 521.892 332.342 522.168 333.026C522.456 333.71 522.9 334.052 523.5 334.052C524.112 334.052 524.55 333.71 524.814 333.026C525.09 332.342 525.228 331.178 525.228 329.534C525.228 327.914 525.084 326.768 524.796 326.096C524.52 325.412 524.088 325.07 523.5 325.07ZM523.482 328.418C523.818 328.418 524.1 328.532 524.328 328.76C524.556 328.988 524.67 329.264 524.67 329.588C524.67 329.924 524.556 330.206 524.328 330.434C524.1 330.662 523.818 330.776 523.482 330.776C523.146 330.776 522.864 330.662 522.636 330.434C522.42 330.206 522.312 329.924 522.312 329.588C522.312 329.264 522.42 328.988 522.636 328.76C522.864 328.532 523.146 328.418 523.482 328.418Z" fill="white"/>
<path d="M544.931 324.638V326.798H536.831V324.638H539.837V317.114L537.263 318.734L536.057 316.772L540.089 314.324H542.609V324.638H544.931Z" fill="white"/>
<path d="M523.5 345C524.976 345 526.092 345.57 526.848 346.71C527.616 347.85 528 349.458 528 351.534C528 353.622 527.616 355.242 526.848 356.394C526.092 357.534 524.976 358.104 523.5 358.104C522.024 358.104 520.902 357.534 520.134 356.394C519.378 355.242 519 353.622 519 351.534C519 349.458 519.378 347.85 520.134 346.71C520.902 345.57 522.024 345 523.5 345ZM523.5 347.07C522.9 347.07 522.456 347.418 522.168 348.114C521.892 348.798 521.754 349.938 521.754 351.534C521.754 353.178 521.892 354.342 522.168 355.026C522.456 355.71 522.9 356.052 523.5 356.052C524.112 356.052 524.55 355.71 524.814 355.026C525.09 354.342 525.228 353.178 525.228 351.534C525.228 349.914 525.084 348.768 524.796 348.096C524.52 347.412 524.088 347.07 523.5 347.07ZM523.482 350.418C523.818 350.418 524.1 350.532 524.328 350.76C524.556 350.988 524.67 351.264 524.67 351.588C524.67 351.924 524.556 352.206 524.328 352.434C524.1 352.662 523.818 352.776 523.482 352.776C523.146 352.776 522.864 352.662 522.636 352.434C522.42 352.206 522.312 351.924 522.312 351.588C522.312 351.264 522.42 350.988 522.636 350.76C522.864 350.532 523.146 350.418 523.482 350.418Z" fill="white"/>
<path d="M544.931 346.638V348.798H536.831V346.638H539.837V339.114L537.263 340.734L536.057 338.772L540.089 336.324H542.609V346.638H544.931Z" fill="white"/>
<path d="M557.308 327.418C557.644 327.418 557.926 327.532 558.154 327.76C558.382 327.988 558.496 328.264 558.496 328.588C558.496 328.924 558.382 329.206 558.154 329.434C557.926 329.662 557.644 329.776 557.308 329.776C556.972 329.776 556.69 329.662 556.462 329.434C556.246 329.206 556.138 328.924 556.138 328.588C556.138 328.264 556.246 327.988 556.462 327.76C556.69 327.532 556.972 327.418 557.308 327.418Z" fill="white"/>
<path fill-rule="evenodd" clip-rule="evenodd" d="M557.326 322C558.802 322 559.918 322.57 560.674 323.71C561.442 324.85 561.826 326.458 561.826 328.534C561.826 330.622 561.442 332.242 560.674 333.394C559.918 334.534 558.802 335.104 557.326 335.104C555.85 335.104 554.728 334.534 553.96 333.394C553.204 332.242 552.826 330.622 552.826 328.534C552.826 326.458 553.204 324.85 553.96 323.71C554.728 322.57 555.85 322 557.326 322ZM555.994 325.114C556.282 324.418 556.726 324.07 557.326 324.07C557.914 324.07 558.346 324.412 558.622 325.096C558.91 325.768 559.054 326.914 559.054 328.534C559.054 330.178 558.916 331.342 558.64 332.026C558.376 332.71 557.938 333.052 557.326 333.052C556.726 333.052 556.282 332.71 555.994 332.026C555.718 331.342 555.58 330.178 555.58 328.534C555.58 326.938 555.718 325.798 555.994 325.114Z" fill="white"/>
<path d="M621.5 662C622.976 662 624.092 662.57 624.848 663.71C625.616 664.85 626 666.458 626 668.534C626 670.622 625.616 672.242 624.848 673.394C624.092 674.534 622.976 675.104 621.5 675.104C620.024 675.104 618.902 674.534 618.134 673.394C617.378 672.242 617 670.622 617 668.534C617 666.458 617.378 664.85 618.134 663.71C618.902 662.57 620.024 662 621.5 662ZM621.5 664.07C620.9 664.07 620.456 664.418 620.168 665.114C619.892 665.798 619.754 666.938 619.754 668.534C619.754 670.178 619.892 671.342 620.168 672.026C620.456 672.71 620.9 673.052 621.5 673.052C622.112 673.052 622.55 672.71 622.814 672.026C623.09 671.342 623.228 670.178 623.228 668.534C623.228 666.914 623.084 665.768 622.796 665.096C622.52 664.412 622.088 664.07 621.5 664.07ZM621.482 667.418C621.818 667.418 622.1 667.532 622.328 667.76C622.556 667.988 622.67 668.264 622.67 668.588C622.67 668.924 622.556 669.206 622.328 669.434C622.1 669.662 621.818 669.776 621.482 669.776C621.146 669.776 620.864 669.662 620.636 669.434C620.42 669.206 620.312 668.924 620.312 668.588C620.312 668.264 620.42 667.988 620.636 667.76C620.864 667.532 621.146 667.418 621.482 667.418Z" fill="white"/>
<path d="M610.501 686.574V688.734H602.401V686.574H605.407V679.05L602.833 680.67L601.627 678.708L605.659 676.26H608.179V686.574H610.501Z" fill="white"/>
<path d="M589.499 693.22C590.975 693.22 592.091 693.79 592.847 694.93C593.615 696.07 593.999 697.678 593.999 699.754C593.999 701.842 593.615 703.462 592.847 704.614C592.091 705.754 590.975 706.324 589.499 706.324C588.023 706.324 586.901 705.754 586.133 704.614C585.377 703.462 584.999 701.842 584.999 699.754C584.999 697.678 585.377 696.07 586.133 694.93C586.901 693.79 588.023 693.22 589.499 693.22ZM589.499 695.29C588.899 695.29 588.455 695.638 588.167 696.334C587.891 697.018 587.753 698.158 587.753 699.754C587.753 701.398 587.891 702.562 588.167 703.246C588.455 703.93 588.899 704.272 589.499 704.272C590.111 704.272 590.549 703.93 590.813 703.246C591.089 702.562 591.227 701.398 591.227 699.754C591.227 698.134 591.083 696.988 590.795 696.316C590.519 695.632 590.087 695.29 589.499 695.29ZM589.481 698.638C589.817 698.638 590.099 698.752 590.327 698.98C590.555 699.208 590.669 699.484 590.669 699.808C590.669 700.144 590.555 700.426 590.327 700.654C590.099 700.882 589.817 700.996 589.481 700.996C589.145 700.996 588.863 700.882 588.635 700.654C588.419 700.426 588.311 700.144 588.311 699.808C588.311 699.484 588.419 699.208 588.635 698.98C588.863 698.752 589.145 698.638 589.481 698.638Z" fill="white"/>
<path d="M579.874 716.944V719.104H571.774V716.944H574.78V709.42L572.206 711.04L571 709.078L575.032 706.63H577.552V716.944H579.874Z" fill="white"/>
<path d="M566.001 732.374V734.534H557.901V732.374H560.907V724.85L558.333 726.47L557.127 724.508L561.159 722.06H563.679V732.374H566.001Z" fill="white"/>
<path d="M546 736.896C547.476 736.896 548.592 737.466 549.348 738.606C550.116 739.746 550.5 741.354 550.5 743.43C550.5 745.518 550.116 747.138 549.348 748.29C548.592 749.43 547.476 750 546 750C544.524 750 543.402 749.43 542.634 748.29C541.878 747.138 541.5 745.518 541.5 743.43C541.5 741.354 541.878 739.746 542.634 738.606C543.402 737.466 544.524 736.896 546 736.896ZM546 738.966C545.4 738.966 544.956 739.314 544.668 740.01C544.392 740.694 544.254 741.834 544.254 743.43C544.254 745.074 544.392 746.238 544.668 746.922C544.956 747.606 545.4 747.948 546 747.948C546.612 747.948 547.05 747.606 547.314 746.922C547.59 746.238 547.728 745.074 547.728 743.43C547.728 741.81 547.584 740.664 547.296 739.992C547.02 739.308 546.588 738.966 546 738.966ZM545.982 742.314C546.318 742.314 546.6 742.428 546.828 742.656C547.056 742.884 547.17 743.16 547.17 743.484C547.17 743.82 547.056 744.102 546.828 744.33C546.6 744.558 546.318 744.672 545.982 744.672C545.646 744.672 545.364 744.558 545.136 744.33C544.92 744.102 544.812 743.82 544.812 743.484C544.812 743.16 544.92 742.884 545.136 742.656C545.364 742.428 545.646 742.314 545.982 742.314Z" fill="white"/>
<path d="M488.182 345.676C489.658 345.676 490.774 346.246 491.53 347.386C492.298 348.526 492.682 350.134 492.682 352.21C492.682 354.298 492.298 355.918 491.53 357.07C490.774 358.21 489.658 358.78 488.182 358.78C486.706 358.78 485.584 358.21 484.816 357.07C484.06 355.918 483.682 354.298 483.682 352.21C483.682 350.134 484.06 348.526 484.816 347.386C485.584 346.246 486.706 345.676 488.182 345.676ZM488.182 347.746C487.582 347.746 487.138 348.094 486.85 348.79C486.574 349.474 486.436 350.614 486.436 352.21C486.436 353.854 486.574 355.018 486.85 355.702C487.138 356.386 487.582 356.728 488.182 356.728C488.794 356.728 489.232 356.386 489.496 355.702C489.772 355.018 489.91 353.854 489.91 352.21C489.91 350.59 489.766 349.444 489.478 348.772C489.202 348.088 488.77 347.746 488.182 347.746ZM488.164 351.094C488.5 351.094 488.782 351.208 489.01 351.436C489.238 351.664 489.352 351.94 489.352 352.264C489.352 352.6 489.238 352.882 489.01 353.11C488.782 353.338 488.5 353.452 488.164 353.452C487.828 353.452 487.546 353.338 487.318 353.11C487.102 352.882 486.994 352.6 486.994 352.264C486.994 351.94 487.102 351.664 487.318 351.436C487.546 351.208 487.828 351.094 488.164 351.094Z" fill="white"/>
<path d="M505.095 345.676C506.571 345.676 507.687 346.246 508.443 347.386C509.211 348.526 509.595 350.134 509.595 352.21C509.595 354.298 509.211 355.918 508.443 357.07C507.687 358.21 506.571 358.78 505.095 358.78C503.619 358.78 502.497 358.21 501.729 357.07C500.973 355.918 500.595 354.298 500.595 352.21C500.595 350.134 500.973 348.526 501.729 347.386C502.497 346.246 503.619 345.676 505.095 345.676ZM505.095 347.746C504.495 347.746 504.051 348.094 503.763 348.79C503.487 349.474 503.349 350.614 503.349 352.21C503.349 353.854 503.487 355.018 503.763 355.702C504.051 356.386 504.495 356.728 505.095 356.728C505.707 356.728 506.145 356.386 506.409 355.702C506.685 355.018 506.823 353.854 506.823 352.21C506.823 350.59 506.679 349.444 506.391 348.772C506.115 348.088 505.683 347.746 505.095 347.746ZM505.077 351.094C505.413 351.094 505.695 351.208 505.923 351.436C506.151 351.664 506.265 351.94 506.265 352.264C506.265 352.6 506.151 352.882 505.923 353.11C505.695 353.338 505.413 353.452 505.077 353.452C504.741 353.452 504.459 353.338 504.231 353.11C504.015 352.882 503.907 352.6 503.907 352.264C503.907 351.94 504.015 351.664 504.231 351.436C504.459 351.208 504.741 351.094 505.077 351.094Z" fill="white"/>
<path d="M475.787 378.314V380.474H467.687V378.314H470.693V370.79L468.119 372.41L466.913 370.448L470.945 368H473.465V378.314H475.787Z" fill="white"/>
<path d="M492.7 378.314V380.474H484.6V378.314H487.606V370.79L485.032 372.41L483.826 370.448L487.858 368H490.378V378.314H492.7Z" fill="white"/>
<path d="M505.095 367.676C506.571 367.676 507.687 368.246 508.443 369.386C509.211 370.526 509.595 372.134 509.595 374.21C509.595 376.298 509.211 377.918 508.443 379.07C507.687 380.21 506.571 380.78 505.095 380.78C503.619 380.78 502.497 380.21 501.729 379.07C500.973 377.918 500.595 376.298 500.595 374.21C500.595 372.134 500.973 370.526 501.729 369.386C502.497 368.246 503.619 367.676 505.095 367.676ZM505.095 369.746C504.495 369.746 504.051 370.094 503.763 370.79C503.487 371.474 503.349 372.614 503.349 374.21C503.349 375.854 503.487 377.018 503.763 377.702C504.051 378.386 504.495 378.728 505.095 378.728C505.707 378.728 506.145 378.386 506.409 377.702C506.685 377.018 506.823 375.854 506.823 374.21C506.823 372.59 506.679 371.444 506.391 370.772C506.115 370.088 505.683 369.746 505.095 369.746ZM505.077 373.094C505.413 373.094 505.695 373.208 505.923 373.436C506.151 373.664 506.265 373.94 506.265 374.264C506.265 374.6 506.151 374.882 505.923 375.11C505.695 375.338 505.413 375.452 505.077 375.452C504.741 375.452 504.459 375.338 504.231 375.11C504.015 374.882 503.907 374.6 503.907 374.264C503.907 373.94 504.015 373.664 504.231 373.436C504.459 373.208 504.741 373.094 505.077 373.094Z" fill="white"/>
<path d="M458.874 400.314V402.474H450.774V400.314H453.78V392.79L451.206 394.41L450 392.448L454.032 390H456.552V400.314H458.874Z" fill="white"/>
<path d="M471.269 389.676C472.745 389.676 473.861 390.246 474.617 391.386C475.385 392.526 475.769 394.134 475.769 396.21C475.769 398.298 475.385 399.918 474.617 401.07C473.861 402.21 472.745 402.78 471.269 402.78C469.793 402.78 468.671 402.21 467.903 401.07C467.147 399.918 466.769 398.298 466.769 396.21C466.769 394.134 467.147 392.526 467.903 391.386C468.671 390.246 469.793 389.676 471.269 389.676ZM471.269 391.746C470.669 391.746 470.225 392.094 469.937 392.79C469.661 393.474 469.523 394.614 469.523 396.21C469.523 397.854 469.661 399.018 469.937 399.702C470.225 400.386 470.669 400.728 471.269 400.728C471.881 400.728 472.319 400.386 472.583 399.702C472.859 399.018 472.997 397.854 472.997 396.21C472.997 394.59 472.853 393.444 472.565 392.772C472.289 392.088 471.857 391.746 471.269 391.746ZM471.251 395.094C471.587 395.094 471.869 395.208 472.097 395.436C472.325 395.664 472.439 395.94 472.439 396.264C472.439 396.6 472.325 396.882 472.097 397.11C471.869 397.338 471.587 397.452 471.251 397.452C470.915 397.452 470.633 397.338 470.405 397.11C470.189 396.882 470.081 396.6 470.081 396.264C470.081 395.94 470.189 395.664 470.405 395.436C470.633 395.208 470.915 395.094 471.251 395.094Z" fill="white"/>
<path d="M492.7 400.314V402.474H484.6V400.314H487.606V392.79L485.032 394.41L483.826 392.448L487.858 390H490.378V400.314H492.7Z" fill="white"/>
<path d="M458.874 422.314V424.474H450.774V422.314H453.78V414.79L451.206 416.41L450 414.448L454.032 412H456.552V422.314H458.874Z" fill="white"/>
<path d="M471.269 411.676C472.745 411.676 473.861 412.246 474.617 413.386C475.385 414.526 475.769 416.134 475.769 418.21C475.769 420.298 475.385 421.918 474.617 423.07C473.861 424.21 472.745 424.78 471.269 424.78C469.793 424.78 468.671 424.21 467.903 423.07C467.147 421.918 466.769 420.298 466.769 418.21C466.769 416.134 467.147 414.526 467.903 413.386C468.671 412.246 469.793 411.676 471.269 411.676ZM471.269 413.746C470.669 413.746 470.225 414.094 469.937 414.79C469.661 415.474 469.523 416.614 469.523 418.21C469.523 419.854 469.661 421.018 469.937 421.702C470.225 422.386 470.669 422.728 471.269 422.728C471.881 422.728 472.319 422.386 472.583 421.702C472.859 421.018 472.997 419.854 472.997 418.21C472.997 416.59 472.853 415.444 472.565 414.772C472.289 414.088 471.857 413.746 471.269 413.746ZM471.251 417.094C471.587 417.094 471.869 417.208 472.097 417.436C472.325 417.664 472.439 417.94 472.439 418.264C472.439 418.6 472.325 418.882 472.097 419.11C471.869 419.338 471.587 419.452 471.251 419.452C470.915 419.452 470.633 419.338 470.405 419.11C470.189 418.882 470.081 418.6 470.081 418.264C470.081 417.94 470.189 417.664 470.405 417.436C470.633 417.208 470.915 417.094 471.251 417.094Z" fill="white"/>
<path d="M509.613 334.314V336.474H501.513V334.314H504.519V326.79L501.945 328.41L500.739 326.448L504.771 324H507.291V334.314H509.613Z" fill="white"/>
<path d="M381.182 472.676C382.658 472.676 383.774 473.246 384.53 474.386C385.298 475.526 385.682 477.134 385.682 479.21C385.682 481.298 385.298 482.918 384.53 484.07C383.774 485.21 382.658 485.78 381.182 485.78C379.706 485.78 378.584 485.21 377.816 484.07C377.06 482.918 376.682 481.298 376.682 479.21C376.682 477.134 377.06 475.526 377.816 474.386C378.584 473.246 379.706 472.676 381.182 472.676ZM381.182 474.746C380.582 474.746 380.138 475.094 379.85 475.79C379.574 476.474 379.436 477.614 379.436 479.21C379.436 480.854 379.574 482.018 379.85 482.702C380.138 483.386 380.582 483.728 381.182 483.728C381.794 483.728 382.232 483.386 382.496 482.702C382.772 482.018 382.91 480.854 382.91 479.21C382.91 477.59 382.766 476.444 382.478 475.772C382.202 475.088 381.77 474.746 381.182 474.746ZM381.164 478.094C381.5 478.094 381.782 478.208 382.01 478.436C382.238 478.664 382.352 478.94 382.352 479.264C382.352 479.6 382.238 479.882 382.01 480.11C381.782 480.338 381.5 480.452 381.164 480.452C380.828 480.452 380.546 480.338 380.318 480.11C380.102 479.882 379.994 479.6 379.994 479.264C379.994 478.94 380.102 478.664 380.318 478.436C380.546 478.208 380.828 478.094 381.164 478.094Z" fill="white"/>
<path d="M398.095 472.676C399.571 472.676 400.687 473.246 401.443 474.386C402.211 475.526 402.595 477.134 402.595 479.21C402.595 481.298 402.211 482.918 401.443 484.07C400.687 485.21 399.571 485.78 398.095 485.78C396.619 485.78 395.497 485.21 394.729 484.07C393.973 482.918 393.595 481.298 393.595 479.21C393.595 477.134 393.973 475.526 394.729 474.386C395.497 473.246 396.619 472.676 398.095 472.676ZM398.095 474.746C397.495 474.746 397.051 475.094 396.763 475.79C396.487 476.474 396.349 477.614 396.349 479.21C396.349 480.854 396.487 482.018 396.763 482.702C397.051 483.386 397.495 483.728 398.095 483.728C398.707 483.728 399.145 483.386 399.409 482.702C399.685 482.018 399.823 480.854 399.823 479.21C399.823 477.59 399.679 476.444 399.391 475.772C399.115 475.088 398.683 474.746 398.095 474.746ZM398.077 478.094C398.413 478.094 398.695 478.208 398.923 478.436C399.151 478.664 399.265 478.94 399.265 479.264C399.265 479.6 399.151 479.882 398.923 480.11C398.695 480.338 398.413 480.452 398.077 480.452C397.741 480.452 397.459 480.338 397.231 480.11C397.015 479.882 396.907 479.6 396.907 479.264C396.907 478.94 397.015 478.664 397.231 478.436C397.459 478.208 397.741 478.094 398.077 478.094Z" fill="white"/>
<path d="M368.787 505.314V507.474H360.687V505.314H363.693V497.79L361.119 499.41L359.913 497.448L363.945 495H366.465V505.314H368.787Z" fill="white"/>
<path d="M385.7 505.314V507.474H377.6V505.314H380.606V497.79L378.032 499.41L376.826 497.448L380.858 495H383.378V505.314H385.7Z" fill="white"/>
<path d="M347.501 494.37C348.977 494.37 350.092 494.94 350.848 496.08C351.616 497.22 352 498.828 352 500.904C352 502.992 351.616 504.612 350.848 505.764C350.092 506.904 348.977 507.474 347.501 507.474C346.025 507.474 344.903 506.904 344.135 505.764C343.379 504.612 343.001 502.992 343.001 500.904C343.001 498.828 343.379 497.22 344.135 496.08C344.903 494.94 346.025 494.37 347.501 494.37ZM347.501 496.44C346.901 496.44 346.457 496.788 346.169 497.484C345.893 498.168 345.755 499.308 345.755 500.904C345.755 502.548 345.893 503.712 346.169 504.396C346.457 505.08 346.901 505.422 347.501 505.422C348.113 505.422 348.551 505.08 348.815 504.396C349.091 503.712 349.229 502.548 349.229 500.904C349.229 499.284 349.085 498.138 348.797 497.466C348.521 496.782 348.089 496.44 347.501 496.44ZM347.483 499.788C347.819 499.788 348.101 499.902 348.329 500.13C348.557 500.358 348.67 500.634 348.67 500.958C348.67 501.294 348.557 501.576 348.329 501.804C348.101 502.032 347.819 502.146 347.483 502.146C347.147 502.146 346.865 502.032 346.637 501.804C346.421 501.576 346.313 501.294 346.313 500.958C346.313 500.634 346.421 500.358 346.637 500.13C346.865 499.902 347.147 499.788 347.483 499.788Z" fill="white"/>
<path d="M351.875 527.314V529.474H343.775V527.314H346.781V519.79L344.207 521.41L343.001 519.448L347.033 517H349.553V527.314H351.875Z" fill="white"/>
<path d="M364.269 516.676C365.745 516.676 366.861 517.246 367.617 518.386C368.385 519.526 368.769 521.134 368.769 523.21C368.769 525.298 368.385 526.918 367.617 528.07C366.861 529.21 365.745 529.78 364.269 529.78C362.793 529.78 361.671 529.21 360.903 528.07C360.147 526.918 359.769 525.298 359.769 523.21C359.769 521.134 360.147 519.526 360.903 518.386C361.671 517.246 362.793 516.676 364.269 516.676ZM364.269 518.746C363.669 518.746 363.225 519.094 362.937 519.79C362.661 520.474 362.523 521.614 362.523 523.21C362.523 524.854 362.661 526.018 362.937 526.702C363.225 527.386 363.669 527.728 364.269 527.728C364.881 527.728 365.319 527.386 365.583 526.702C365.859 526.018 365.997 524.854 365.997 523.21C365.997 521.59 365.853 520.444 365.565 519.772C365.289 519.088 364.857 518.746 364.269 518.746ZM364.251 522.094C364.587 522.094 364.869 522.208 365.097 522.436C365.325 522.664 365.439 522.94 365.439 523.264C365.439 523.6 365.325 523.882 365.097 524.11C364.869 524.338 364.587 524.452 364.251 524.452C363.915 524.452 363.633 524.338 363.405 524.11C363.189 523.882 363.081 523.6 363.081 523.264C363.081 522.94 363.189 522.664 363.405 522.436C363.633 522.208 363.915 522.094 364.251 522.094Z" fill="white"/>
<path d="M331.5 516.676C332.976 516.676 334.092 517.246 334.848 518.386C335.616 519.526 336 521.134 336 523.21C336 525.298 335.616 526.918 334.848 528.07C334.092 529.21 332.976 529.78 331.5 529.78C330.024 529.78 328.902 529.21 328.134 528.07C327.378 526.918 327 525.298 327 523.21C327 521.134 327.378 519.526 328.134 518.386C328.902 517.246 330.024 516.676 331.5 516.676ZM331.5 518.746C330.9 518.746 330.456 519.094 330.168 519.79C329.892 520.474 329.754 521.614 329.754 523.21C329.754 524.854 329.892 526.018 330.168 526.702C330.456 527.386 330.9 527.728 331.5 527.728C332.112 527.728 332.55 527.386 332.814 526.702C333.09 526.018 333.228 524.854 333.228 523.21C333.228 521.59 333.084 520.444 332.796 519.772C332.52 519.088 332.088 518.746 331.5 518.746ZM331.482 522.094C331.818 522.094 332.1 522.208 332.328 522.436C332.556 522.664 332.67 522.94 332.67 523.264C332.67 523.6 332.556 523.882 332.328 524.11C332.1 524.338 331.818 524.452 331.482 524.452C331.146 524.452 330.864 524.338 330.636 524.11C330.42 523.882 330.312 523.6 330.312 523.264C330.312 522.94 330.42 522.664 330.636 522.436C330.864 522.208 331.146 522.094 331.482 522.094Z" fill="white"/>
<path d="M351.875 549.314V551.474H343.775V549.314H346.781V541.79L344.207 543.41L343.001 541.448L347.033 539H349.553V549.314H351.875Z" fill="white"/>
<path d="M364.269 538.676C365.745 538.676 366.861 539.246 367.617 540.386C368.385 541.526 368.769 543.134 368.769 545.21C368.769 547.298 368.385 548.918 367.617 550.07C366.861 551.21 365.745 551.78 364.269 551.78C362.793 551.78 361.671 551.21 360.903 550.07C360.147 548.918 359.769 547.298 359.769 545.21C359.769 543.134 360.147 541.526 360.903 540.386C361.671 539.246 362.793 538.676 364.269 538.676ZM364.269 540.746C363.669 540.746 363.225 541.094 362.937 541.79C362.661 542.474 362.523 543.614 362.523 545.21C362.523 546.854 362.661 548.018 362.937 548.702C363.225 549.386 363.669 549.728 364.269 549.728C364.881 549.728 365.319 549.386 365.583 548.702C365.859 548.018 365.997 546.854 365.997 545.21C365.997 543.59 365.853 542.444 365.565 541.772C365.289 541.088 364.857 540.746 364.269 540.746ZM364.251 544.094C364.587 544.094 364.869 544.208 365.097 544.436C365.325 544.664 365.439 544.94 365.439 545.264C365.439 545.6 365.325 545.882 365.097 546.11C364.869 546.338 364.587 546.452 364.251 546.452C363.915 546.452 363.633 546.338 363.405 546.11C363.189 545.882 363.081 545.6 363.081 545.264C363.081 544.94 363.189 544.664 363.405 544.436C363.633 544.208 363.915 544.094 364.251 544.094Z" fill="white"/>
<path d="M331.5 538.37C332.976 538.37 334.092 538.94 334.848 540.08C335.616 541.22 336 542.828 336 544.904C336 546.992 335.616 548.612 334.848 549.764C334.092 550.904 332.976 551.474 331.5 551.474C330.024 551.474 328.902 550.904 328.134 549.764C327.378 548.612 327 546.992 327 544.904C327 542.828 327.378 541.22 328.134 540.08C328.902 538.94 330.024 538.37 331.5 538.37ZM331.5 540.44C330.9 540.44 330.456 540.788 330.168 541.484C329.892 542.168 329.754 543.308 329.754 544.904C329.754 546.548 329.892 547.712 330.168 548.396C330.456 549.08 330.9 549.422 331.5 549.422C332.112 549.422 332.55 549.08 332.814 548.396C333.09 547.712 333.228 546.548 333.228 544.904C333.228 543.284 333.084 542.138 332.796 541.466C332.52 540.782 332.088 540.44 331.5 540.44ZM331.482 543.788C331.818 543.788 332.1 543.902 332.328 544.13C332.556 544.358 332.67 544.634 332.67 544.958C332.67 545.294 332.556 545.576 332.328 545.804C332.1 546.032 331.818 546.146 331.482 546.146C331.146 546.146 330.864 546.032 330.636 545.804C330.42 545.576 330.312 545.294 330.312 544.958C330.312 544.634 330.42 544.358 330.636 544.13C330.864 543.902 331.146 543.788 331.482 543.788Z" fill="white"/>
<path d="M351.875 571.314V573.474H343.775V571.314H346.781V563.79L344.207 565.41L343.001 563.448L347.033 561H349.553V571.314H351.875Z" fill="white"/>
<path d="M402.613 461.314V463.474H394.513V461.314H397.519V453.79L394.945 455.41L393.739 453.448L397.771 451H400.291V461.314H402.613Z" fill="white"/>
<path d="M675.59 444C677.066 444 678.182 444.57 678.938 445.71C679.706 446.85 680.09 448.458 680.09 450.534C680.09 452.622 679.706 454.242 678.938 455.394C678.182 456.534 677.066 457.104 675.59 457.104C674.114 457.104 672.992 456.534 672.224 455.394C671.468 454.242 671.09 452.622 671.09 450.534C671.09 448.458 671.468 446.85 672.224 445.71C672.992 444.57 674.114 444 675.59 444ZM675.59 446.07C674.99 446.07 674.546 446.418 674.258 447.114C673.982 447.798 673.844 448.938 673.844 450.534C673.844 452.178 673.982 453.342 674.258 454.026C674.546 454.71 674.99 455.052 675.59 455.052C676.202 455.052 676.64 454.71 676.904 454.026C677.18 453.342 677.318 452.178 677.318 450.534C677.318 448.914 677.174 447.768 676.886 447.096C676.61 446.412 676.178 446.07 675.59 446.07ZM675.572 449.418C675.908 449.418 676.19 449.532 676.418 449.76C676.646 449.988 676.76 450.264 676.76 450.588C676.76 450.924 676.646 451.206 676.418 451.434C676.19 451.662 675.908 451.776 675.572 451.776C675.236 451.776 674.954 451.662 674.726 451.434C674.51 451.206 674.402 450.924 674.402 450.588C674.402 450.264 674.51 449.988 674.726 449.76C674.954 449.532 675.236 449.418 675.572 449.418Z" fill="white"/>
<path d="M697.021 454.638V456.798H688.921V454.638H691.927V447.114L689.353 448.734L688.147 446.772L692.179 444.324H694.699V454.638H697.021Z" fill="white"/>
<path d="M675.59 466C677.066 466 678.182 466.57 678.938 467.71C679.706 468.85 680.09 470.458 680.09 472.534C680.09 474.622 679.706 476.242 678.938 477.394C678.182 478.534 677.066 479.104 675.59 479.104C674.114 479.104 672.992 478.534 672.224 477.394C671.468 476.242 671.09 474.622 671.09 472.534C671.09 470.458 671.468 468.85 672.224 467.71C672.992 466.57 674.114 466 675.59 466ZM675.59 468.07C674.99 468.07 674.546 468.418 674.258 469.114C673.982 469.798 673.844 470.938 673.844 472.534C673.844 474.178 673.982 475.342 674.258 476.026C674.546 476.71 674.99 477.052 675.59 477.052C676.202 477.052 676.64 476.71 676.904 476.026C677.18 475.342 677.318 474.178 677.318 472.534C677.318 470.914 677.174 469.768 676.886 469.096C676.61 468.412 676.178 468.07 675.59 468.07ZM675.572 471.418C675.908 471.418 676.19 471.532 676.418 471.76C676.646 471.988 676.76 472.264 676.76 472.588C676.76 472.924 676.646 473.206 676.418 473.434C676.19 473.662 675.908 473.776 675.572 473.776C675.236 473.776 674.954 473.662 674.726 473.434C674.51 473.206 674.402 472.924 674.402 472.588C674.402 472.264 674.51 471.988 674.726 471.76C674.954 471.532 675.236 471.418 675.572 471.418Z" fill="white"/>
<path d="M697.021 476.638V478.798H688.921V476.638H691.927V469.114L689.353 470.734L688.147 468.772L692.179 466.324H694.699V476.638H697.021Z" fill="white"/>
<path d="M709.416 466C710.892 466 712.008 466.57 712.764 467.71C713.532 468.85 713.916 470.458 713.916 472.534C713.916 474.622 713.532 476.242 712.764 477.394C712.008 478.534 710.892 479.104 709.416 479.104C707.94 479.104 706.818 478.534 706.05 477.394C705.294 476.242 704.916 474.622 704.916 472.534C704.916 470.458 705.294 468.85 706.05 467.71C706.818 466.57 707.94 466 709.416 466ZM709.416 468.07C708.816 468.07 708.372 468.418 708.084 469.114C707.808 469.798 707.67 470.938 707.67 472.534C707.67 474.178 707.808 475.342 708.084 476.026C708.372 476.71 708.816 477.052 709.416 477.052C710.028 477.052 710.466 476.71 710.73 476.026C711.006 475.342 711.144 474.178 711.144 472.534C711.144 470.914 711 469.768 710.712 469.096C710.436 468.412 710.004 468.07 709.416 468.07ZM709.398 471.418C709.734 471.418 710.016 471.532 710.244 471.76C710.472 471.988 710.586 472.264 710.586 472.588C710.586 472.924 710.472 473.206 710.244 473.434C710.016 473.662 709.734 473.776 709.398 473.776C709.062 473.776 708.78 473.662 708.552 473.434C708.336 473.206 708.228 472.924 708.228 472.588C708.228 472.264 708.336 471.988 708.552 471.76C708.78 471.532 709.062 471.418 709.398 471.418Z" fill="white"/>
<path d="M680.108 498.638V500.798H672.008V498.638H675.014V491.114L672.44 492.734L671.234 490.772L675.266 488.324H677.786V498.638H680.108Z" fill="white"/>
<path d="M697.021 498.638V500.798H688.921V498.638H691.927V491.114L689.353 492.734L688.147 490.772L692.179 488.324H694.699V498.638H697.021Z" fill="white"/>
<path d="M713.934 498.638V500.798H705.834V498.638H708.84V491.114L706.266 492.734L705.06 490.772L709.092 488.324H711.612V498.638H713.934Z" fill="white"/>
<path d="M726.329 488C727.805 488 728.921 488.57 729.677 489.71C730.445 490.85 730.829 492.458 730.829 494.534C730.829 496.622 730.445 498.242 729.677 499.394C728.921 500.534 727.805 501.104 726.329 501.104C724.853 501.104 723.731 500.534 722.963 499.394C722.207 498.242 721.829 496.622 721.829 494.534C721.829 492.458 722.207 490.85 722.963 489.71C723.731 488.57 724.853 488 726.329 488ZM726.329 490.07C725.729 490.07 725.285 490.418 724.997 491.114C724.721 491.798 724.583 492.938 724.583 494.534C724.583 496.178 724.721 497.342 724.997 498.026C725.285 498.71 725.729 499.052 726.329 499.052C726.941 499.052 727.379 498.71 727.643 498.026C727.919 497.342 728.057 496.178 728.057 494.534C728.057 492.914 727.913 491.768 727.625 491.096C727.349 490.412 726.917 490.07 726.329 490.07ZM726.311 493.418C726.647 493.418 726.929 493.532 727.157 493.76C727.385 493.988 727.499 494.264 727.499 494.588C727.499 494.924 727.385 495.206 727.157 495.434C726.929 495.662 726.647 495.776 726.311 495.776C725.975 495.776 725.693 495.662 725.465 495.434C725.249 495.206 725.141 494.924 725.141 494.588C725.141 494.264 725.249 493.988 725.465 493.76C725.693 493.532 725.975 493.418 726.311 493.418Z" fill="white"/>
<path d="M680.108 520.638V522.798H672.008V520.638H675.014V513.114L672.44 514.734L671.234 512.772L675.266 510.324H677.786V520.638H680.108Z" fill="white"/>
<path d="M692.503 510C693.979 510 695.095 510.57 695.851 511.71C696.619 512.85 697.003 514.458 697.003 516.534C697.003 518.622 696.619 520.242 695.851 521.394C695.095 522.534 693.979 523.104 692.503 523.104C691.027 523.104 689.905 522.534 689.137 521.394C688.381 520.242 688.003 518.622 688.003 516.534C688.003 514.458 688.381 512.85 689.137 511.71C689.905 510.57 691.027 510 692.503 510ZM692.503 512.07C691.903 512.07 691.459 512.418 691.171 513.114C690.895 513.798 690.757 514.938 690.757 516.534C690.757 518.178 690.895 519.342 691.171 520.026C691.459 520.71 691.903 521.052 692.503 521.052C693.115 521.052 693.553 520.71 693.817 520.026C694.093 519.342 694.231 518.178 694.231 516.534C694.231 514.914 694.087 513.768 693.799 513.096C693.523 512.412 693.091 512.07 692.503 512.07ZM692.485 515.418C692.821 515.418 693.103 515.532 693.331 515.76C693.559 515.988 693.673 516.264 693.673 516.588C693.673 516.924 693.559 517.206 693.331 517.434C693.103 517.662 692.821 517.776 692.485 517.776C692.149 517.776 691.867 517.662 691.639 517.434C691.423 517.206 691.315 516.924 691.315 516.588C691.315 516.264 691.423 515.988 691.639 515.76C691.867 515.532 692.149 515.418 692.485 515.418Z" fill="white"/>
<path d="M713.934 520.638V522.798H705.834V520.638H708.84V513.114L706.266 514.734L705.06 512.772L709.092 510.324H711.612V520.638H713.934Z" fill="white"/>
<path d="M726.329 510C727.805 510 728.921 510.57 729.677 511.71C730.445 512.85 730.829 514.458 730.829 516.534C730.829 518.622 730.445 520.242 729.677 521.394C728.921 522.534 727.805 523.104 726.329 523.104C724.853 523.104 723.731 522.534 722.963 521.394C722.207 520.242 721.829 518.622 721.829 516.534C721.829 514.458 722.207 512.85 722.963 511.71C723.731 510.57 724.853 510 726.329 510ZM726.329 512.07C725.729 512.07 725.285 512.418 724.997 513.114C724.721 513.798 724.583 514.938 724.583 516.534C724.583 518.178 724.721 519.342 724.997 520.026C725.285 520.71 725.729 521.052 726.329 521.052C726.941 521.052 727.379 520.71 727.643 520.026C727.919 519.342 728.057 518.178 728.057 516.534C728.057 514.914 727.913 513.768 727.625 513.096C727.349 512.412 726.917 512.07 726.329 512.07ZM726.311 515.418C726.647 515.418 726.929 515.532 727.157 515.76C727.385 515.988 727.499 516.264 727.499 516.588C727.499 516.924 727.385 517.206 727.157 517.434C726.929 517.662 726.647 517.776 726.311 517.776C725.975 517.776 725.693 517.662 725.465 517.434C725.249 517.206 725.141 516.924 725.141 516.588C725.141 516.264 725.249 515.988 725.465 515.76C725.693 515.532 725.975 515.418 726.311 515.418Z" fill="white"/>
<path d="M680.108 542.638V544.798H672.008V542.638H675.014V535.114L672.44 536.734L671.234 534.772L675.266 532.324H677.786V542.638H680.108Z" fill="white"/>
<path d="M692.503 532C693.979 532 695.095 532.57 695.851 533.71C696.619 534.85 697.003 536.458 697.003 538.534C697.003 540.622 696.619 542.242 695.851 543.394C695.095 544.534 693.979 545.104 692.503 545.104C691.027 545.104 689.905 544.534 689.137 543.394C688.381 542.242 688.003 540.622 688.003 538.534C688.003 536.458 688.381 534.85 689.137 533.71C689.905 532.57 691.027 532 692.503 532ZM692.503 534.07C691.903 534.07 691.459 534.418 691.171 535.114C690.895 535.798 690.757 536.938 690.757 538.534C690.757 540.178 690.895 541.342 691.171 542.026C691.459 542.71 691.903 543.052 692.503 543.052C693.115 543.052 693.553 542.71 693.817 542.026C694.093 541.342 694.231 540.178 694.231 538.534C694.231 536.914 694.087 535.768 693.799 535.096C693.523 534.412 693.091 534.07 692.503 534.07ZM692.485 537.418C692.821 537.418 693.103 537.532 693.331 537.76C693.559 537.988 693.673 538.264 693.673 538.588C693.673 538.924 693.559 539.206 693.331 539.434C693.103 539.662 692.821 539.776 692.485 539.776C692.149 539.776 691.867 539.662 691.639 539.434C691.423 539.206 691.315 538.924 691.315 538.588C691.315 538.264 691.423 537.988 691.639 537.76C691.867 537.532 692.149 537.418 692.485 537.418Z" fill="white"/>
<path d="M713.934 542.638V544.798H705.834V542.638H708.84V535.114L706.266 536.734L705.06 534.772L709.092 532.324H711.612V542.638H713.934Z" fill="white"/>
<path d="M726.329 532C727.805 532 728.921 532.57 729.677 533.71C730.445 534.85 730.829 536.458 730.829 538.534C730.829 540.622 730.445 542.242 729.677 543.394C728.921 544.534 727.805 545.104 726.329 545.104C724.853 545.104 723.731 544.534 722.963 543.394C722.207 542.242 721.829 540.622 721.829 538.534C721.829 536.458 722.207 534.85 722.963 533.71C723.731 532.57 724.853 532 726.329 532ZM726.329 534.07C725.729 534.07 725.285 534.418 724.997 535.114C724.721 535.798 724.583 536.938 724.583 538.534C724.583 540.178 724.721 541.342 724.997 542.026C725.285 542.71 725.729 543.052 726.329 543.052C726.941 543.052 727.379 542.71 727.643 542.026C727.919 541.342 728.057 540.178 728.057 538.534C728.057 536.914 727.913 535.768 727.625 535.096C727.349 534.412 726.917 534.07 726.329 534.07ZM726.311 537.418C726.647 537.418 726.929 537.532 727.157 537.76C727.385 537.988 727.499 538.264 727.499 538.588C727.499 538.924 727.385 539.206 727.157 539.434C726.929 539.662 726.647 539.776 726.311 539.776C725.975 539.776 725.693 539.662 725.465 539.434C725.249 539.206 725.141 538.924 725.141 538.588C725.141 538.264 725.249 537.988 725.465 537.76C725.693 537.532 725.975 537.418 726.311 537.418Z" fill="white"/>
<path d="M680.144 564.17H678.902V566.798H676.184L676.166 564.17H671V562.298L674.456 554L676.868 554.9L673.934 562.046H676.166L676.49 559.04H678.902V562.046H680.144V564.17Z" fill="white"/>
<path d="M697.021 564.638V566.798H688.921V564.638H691.927V557.114L689.353 558.734L688.147 556.772L692.179 554.324H694.699V564.638H697.021Z" fill="white"/>
<path d="M709.416 554C710.892 554 712.008 554.57 712.764 555.71C713.532 556.85 713.916 558.458 713.916 560.534C713.916 562.622 713.532 564.242 712.764 565.394C712.008 566.534 710.892 567.104 709.416 567.104C707.94 567.104 706.818 566.534 706.05 565.394C705.294 564.242 704.916 562.622 704.916 560.534C704.916 558.458 705.294 556.85 706.05 555.71C706.818 554.57 707.94 554 709.416 554ZM709.416 556.07C708.816 556.07 708.372 556.418 708.084 557.114C707.808 557.798 707.67 558.938 707.67 560.534C707.67 562.178 707.808 563.342 708.084 564.026C708.372 564.71 708.816 565.052 709.416 565.052C710.028 565.052 710.466 564.71 710.73 564.026C711.006 563.342 711.144 562.178 711.144 560.534C711.144 558.914 711 557.768 710.712 557.096C710.436 556.412 710.004 556.07 709.416 556.07ZM709.398 559.418C709.734 559.418 710.016 559.532 710.244 559.76C710.472 559.988 710.586 560.264 710.586 560.588C710.586 560.924 710.472 561.206 710.244 561.434C710.016 561.662 709.734 561.776 709.398 561.776C709.062 561.776 708.78 561.662 708.552 561.434C708.336 561.206 708.228 560.924 708.228 560.588C708.228 560.264 708.336 559.988 708.552 559.76C708.78 559.532 709.062 559.418 709.398 559.418Z" fill="white"/>
<path d="M730.847 564.638V566.798H722.747V564.638H725.753V557.114L723.179 558.734L721.973 556.772L726.005 554.324H728.525V564.638H730.847Z" fill="white"/>
<path d="M692.503 576C693.979 576 695.095 576.57 695.851 577.71C696.619 578.85 697.003 580.458 697.003 582.534C697.003 584.622 696.619 586.242 695.851 587.394C695.095 588.534 693.979 589.104 692.503 589.104C691.027 589.104 689.905 588.534 689.137 587.394C688.381 586.242 688.003 584.622 688.003 582.534C688.003 580.458 688.381 578.85 689.137 577.71C689.905 576.57 691.027 576 692.503 576ZM692.503 578.07C691.903 578.07 691.459 578.418 691.171 579.114C690.895 579.798 690.757 580.938 690.757 582.534C690.757 584.178 690.895 585.342 691.171 586.026C691.459 586.71 691.903 587.052 692.503 587.052C693.115 587.052 693.553 586.71 693.817 586.026C694.093 585.342 694.231 584.178 694.231 582.534C694.231 580.914 694.087 579.768 693.799 579.096C693.523 578.412 693.091 578.07 692.503 578.07ZM692.485 581.418C692.821 581.418 693.103 581.532 693.331 581.76C693.559 581.988 693.673 582.264 693.673 582.588C693.673 582.924 693.559 583.206 693.331 583.434C693.103 583.662 692.821 583.776 692.485 583.776C692.149 583.776 691.867 583.662 691.639 583.434C691.423 583.206 691.315 582.924 691.315 582.588C691.315 582.264 691.423 581.988 691.639 581.76C691.867 581.532 692.149 581.418 692.485 581.418Z" fill="white"/>
<path d="M713.934 586.638V588.798H705.834V586.638H708.84V579.114L706.266 580.734L705.06 578.772L709.092 576.324H711.612V586.638H713.934Z" fill="white"/>
<path d="M726.329 576C727.805 576 728.921 576.57 729.677 577.71C730.445 578.85 730.829 580.458 730.829 582.534C730.829 584.622 730.445 586.242 729.677 587.394C728.921 588.534 727.805 589.104 726.329 589.104C724.853 589.104 723.731 588.534 722.963 587.394C722.207 586.242 721.829 584.622 721.829 582.534C721.829 580.458 722.207 578.85 722.963 577.71C723.731 576.57 724.853 576 726.329 576ZM726.329 578.07C725.729 578.07 725.285 578.418 724.997 579.114C724.721 579.798 724.583 580.938 724.583 582.534C724.583 584.178 724.721 585.342 724.997 586.026C725.285 586.71 725.729 587.052 726.329 587.052C726.941 587.052 727.379 586.71 727.643 586.026C727.919 585.342 728.057 584.178 728.057 582.534C728.057 580.914 727.913 579.768 727.625 579.096C727.349 578.412 726.917 578.07 726.329 578.07ZM726.311 581.418C726.647 581.418 726.929 581.532 727.157 581.76C727.385 581.988 727.499 582.264 727.499 582.588C727.499 582.924 727.385 583.206 727.157 583.434C726.929 583.662 726.647 583.776 726.311 583.776C725.975 583.776 725.693 583.662 725.465 583.434C725.249 583.206 725.141 582.924 725.141 582.588C725.141 582.264 725.249 581.988 725.465 581.76C725.693 581.532 725.975 581.418 726.311 581.418Z" fill="white"/>
<path d="M692.503 598C693.979 598 695.095 598.57 695.851 599.71C696.619 600.85 697.003 602.458 697.003 604.534C697.003 606.622 696.619 608.242 695.851 609.394C695.095 610.534 693.979 611.104 692.503 611.104C691.027 611.104 689.905 610.534 689.137 609.394C688.381 608.242 688.003 606.622 688.003 604.534C688.003 602.458 688.381 600.85 689.137 599.71C689.905 598.57 691.027 598 692.503 598ZM692.503 600.07C691.903 600.07 691.459 600.418 691.171 601.114C690.895 601.798 690.757 602.938 690.757 604.534C690.757 606.178 690.895 607.342 691.171 608.026C691.459 608.71 691.903 609.052 692.503 609.052C693.115 609.052 693.553 608.71 693.817 608.026C694.093 607.342 694.231 606.178 694.231 604.534C694.231 602.914 694.087 601.768 693.799 601.096C693.523 600.412 693.091 600.07 692.503 600.07ZM692.485 603.418C692.821 603.418 693.103 603.532 693.331 603.76C693.559 603.988 693.673 604.264 693.673 604.588C693.673 604.924 693.559 605.206 693.331 605.434C693.103 605.662 692.821 605.776 692.485 605.776C692.149 605.776 691.867 605.662 691.639 605.434C691.423 605.206 691.315 604.924 691.315 604.588C691.315 604.264 691.423 603.988 691.639 603.76C691.867 603.532 692.149 603.418 692.485 603.418Z" fill="white"/>
<path d="M709.416 598C710.892 598 712.008 598.57 712.764 599.71C713.532 600.85 713.916 602.458 713.916 604.534C713.916 606.622 713.532 608.242 712.764 609.394C712.008 610.534 710.892 611.104 709.416 611.104C707.94 611.104 706.818 610.534 706.05 609.394C705.294 608.242 704.916 606.622 704.916 604.534C704.916 602.458 705.294 600.85 706.05 599.71C706.818 598.57 707.94 598 709.416 598ZM709.416 600.07C708.816 600.07 708.372 600.418 708.084 601.114C707.808 601.798 707.67 602.938 707.67 604.534C707.67 606.178 707.808 607.342 708.084 608.026C708.372 608.71 708.816 609.052 709.416 609.052C710.028 609.052 710.466 608.71 710.73 608.026C711.006 607.342 711.144 606.178 711.144 604.534C711.144 602.914 711 601.768 710.712 601.096C710.436 600.412 710.004 600.07 709.416 600.07ZM709.398 603.418C709.734 603.418 710.016 603.532 710.244 603.76C710.472 603.988 710.586 604.264 710.586 604.588C710.586 604.924 710.472 605.206 710.244 605.434C710.016 605.662 709.734 605.776 709.398 605.776C709.062 605.776 708.78 605.662 708.552 605.434C708.336 605.206 708.228 604.924 708.228 604.588C708.228 604.264 708.336 603.988 708.552 603.76C708.78 603.532 709.062 603.418 709.398 603.418Z" fill="white"/>
<path d="M742.59 488C744.066 488 745.182 488.57 745.938 489.71C746.706 490.85 747.09 492.458 747.09 494.534C747.09 496.622 746.706 498.242 745.938 499.394C745.182 500.534 744.066 501.104 742.59 501.104C741.114 501.104 739.992 500.534 739.224 499.394C738.468 498.242 738.09 496.622 738.09 494.534C738.09 492.458 738.468 490.85 739.224 489.71C739.992 488.57 741.114 488 742.59 488ZM742.59 490.07C741.99 490.07 741.546 490.418 741.258 491.114C740.982 491.798 740.844 492.938 740.844 494.534C740.844 496.178 740.982 497.342 741.258 498.026C741.546 498.71 741.99 499.052 742.59 499.052C743.202 499.052 743.64 498.71 743.904 498.026C744.18 497.342 744.318 496.178 744.318 494.534C744.318 492.914 744.174 491.768 743.886 491.096C743.61 490.412 743.178 490.07 742.59 490.07ZM742.572 493.418C742.908 493.418 743.19 493.532 743.418 493.76C743.646 493.988 743.76 494.264 743.76 494.588C743.76 494.924 743.646 495.206 743.418 495.434C743.19 495.662 742.908 495.776 742.572 495.776C742.236 495.776 741.954 495.662 741.726 495.434C741.51 495.206 741.402 494.924 741.402 494.588C741.402 494.264 741.51 493.988 741.726 493.76C741.954 493.532 742.236 493.418 742.572 493.418Z" fill="white"/>
<path d="M747.108 520.638V522.798H739.008V520.638H742.014V513.114L739.44 514.734L738.234 512.772L742.266 510.324H744.786V520.638H747.108Z" fill="white"/>
<path d="M764.021 520.638V522.798H755.921V520.638H758.927V513.114L756.353 514.734L755.147 512.772L759.179 510.324H761.699V520.638H764.021Z" fill="white"/>
<path d="M747.108 542.638V544.798H739.008V542.638H742.014V535.114L739.44 536.734L738.234 534.772L742.266 532.324H744.786V542.638H747.108Z" fill="white"/>
<path d="M759.503 532C760.979 532 762.095 532.57 762.851 533.71C763.619 534.85 764.003 536.458 764.003 538.534C764.003 540.622 763.619 542.242 762.851 543.394C762.095 544.534 760.979 545.104 759.503 545.104C758.027 545.104 756.905 544.534 756.137 543.394C755.381 542.242 755.003 540.622 755.003 538.534C755.003 536.458 755.381 534.85 756.137 533.71C756.905 532.57 758.027 532 759.503 532ZM759.503 534.07C758.903 534.07 758.459 534.418 758.171 535.114C757.895 535.798 757.757 536.938 757.757 538.534C757.757 540.178 757.895 541.342 758.171 542.026C758.459 542.71 758.903 543.052 759.503 543.052C760.115 543.052 760.553 542.71 760.817 542.026C761.093 541.342 761.231 540.178 761.231 538.534C761.231 536.914 761.087 535.768 760.799 535.096C760.523 534.412 760.091 534.07 759.503 534.07ZM759.485 537.418C759.821 537.418 760.103 537.532 760.331 537.76C760.559 537.988 760.673 538.264 760.673 538.588C760.673 538.924 760.559 539.206 760.331 539.434C760.103 539.662 759.821 539.776 759.485 539.776C759.149 539.776 758.867 539.662 758.639 539.434C758.423 539.206 758.315 538.924 758.315 538.588C758.315 538.264 758.423 537.988 758.639 537.76C758.867 537.532 759.149 537.418 759.485 537.418Z" fill="white"/>
<path d="M780.934 542.638V544.798H772.834V542.638H775.84V535.114L773.266 536.734L772.06 534.772L776.092 532.324H778.612V542.638H780.934Z" fill="white"/>
<path d="M747.108 564.638V566.798H739.008V564.638H742.014V557.114L739.44 558.734L738.234 556.772L742.266 554.324H744.786V564.638H747.108Z" fill="white"/>
<path d="M759.503 554C760.979 554 762.095 554.57 762.851 555.71C763.619 556.85 764.003 558.458 764.003 560.534C764.003 562.622 763.619 564.242 762.851 565.394C762.095 566.534 760.979 567.104 759.503 567.104C758.027 567.104 756.905 566.534 756.137 565.394C755.381 564.242 755.003 562.622 755.003 560.534C755.003 558.458 755.381 556.85 756.137 555.71C756.905 554.57 758.027 554 759.503 554ZM759.503 556.07C758.903 556.07 758.459 556.418 758.171 557.114C757.895 557.798 757.757 558.938 757.757 560.534C757.757 562.178 757.895 563.342 758.171 564.026C758.459 564.71 758.903 565.052 759.503 565.052C760.115 565.052 760.553 564.71 760.817 564.026C761.093 563.342 761.231 562.178 761.231 560.534C761.231 558.914 761.087 557.768 760.799 557.096C760.523 556.412 760.091 556.07 759.503 556.07ZM759.485 559.418C759.821 559.418 760.103 559.532 760.331 559.76C760.559 559.988 760.673 560.264 760.673 560.588C760.673 560.924 760.559 561.206 760.331 561.434C760.103 561.662 759.821 561.776 759.485 561.776C759.149 561.776 758.867 561.662 758.639 561.434C758.423 561.206 758.315 560.924 758.315 560.588C758.315 560.264 758.423 559.988 758.639 559.76C758.867 559.532 759.149 559.418 759.485 559.418Z" fill="white"/>
</svg>
